<svg width="216" height="61" viewBox="0 0 216 61" fill="none" xmlns="http://www.w3.org/2000/svg">
<g opacity="0.5">
<g clip-path="url(#clip0_134_2470)">
<g clip-path="url(#clip1_134_2470)">
<g clip-path="url(#clip2_134_2470)">
<path fill-rule="evenodd" clip-rule="evenodd" d="M28.2272 58.363C43.5758 58.363 56.0189 45.9199 56.0189 30.5713C56.0189 15.2228 43.5758 2.77966 28.2272 2.77966C12.8786 2.77966 0.435547 15.2228 0.435547 30.5713C0.435547 45.9199 12.8786 58.363 28.2272 58.363ZM36.897 15.7255C37.3189 14.2273 35.8649 13.3405 34.5359 14.2867L15.9888 27.5016C14.5487 28.5274 14.776 30.5726 16.3299 30.5726H21.2136V30.5347H30.7323L22.9759 33.2709L19.5575 45.4184C19.1355 46.9166 20.5896 47.8034 21.9185 46.8572L40.4657 33.6436C41.9058 32.6178 41.6784 30.5726 40.1246 30.5726H32.7181L36.897 15.7255Z" fill="#2C2C2C"/>
<path d="M70.3945 43.0901V38.694H73.8811V20.9578H70.3945V16.5617H84.0377C85.6547 16.5617 87.0569 16.8396 88.2444 17.3954C89.4571 17.926 90.3919 18.6966 91.0488 19.7072C91.731 20.6925 92.072 21.88 92.072 23.2696V23.6486C92.072 24.8613 91.8446 25.8593 91.3899 26.6425C90.9351 27.4004 90.3919 27.9942 89.7603 28.4237C89.1539 28.8279 88.5728 29.1185 88.017 29.2953V29.9775C88.5728 30.1291 89.1792 30.4196 89.8361 30.8491C90.493 31.2534 91.0488 31.8471 91.5036 32.6303C91.9836 33.4136 92.2236 34.4368 92.2236 35.7V36.079C92.2236 37.5444 91.8825 38.8077 91.2004 39.8688C90.5182 40.9047 89.5708 41.7005 88.358 42.2564C87.1706 42.8122 85.781 43.0901 84.1893 43.0901H70.3945ZM78.8836 38.5424H83.5829C84.6693 38.5424 85.541 38.2771 86.1979 37.7465C86.88 37.216 87.2211 36.458 87.2211 35.4727V35.0937C87.2211 34.1083 86.8927 33.3504 86.2358 32.8198C85.5789 32.2893 84.6946 32.024 83.5829 32.024H78.8836V38.5424ZM78.8836 27.4762H83.5071C84.543 27.4762 85.3894 27.211 86.0463 26.6804C86.7284 26.1498 87.0695 25.4171 87.0695 24.4823V24.1033C87.0695 23.1433 86.7411 22.4106 86.0842 21.9053C85.4273 21.3747 84.5683 21.1094 83.5071 21.1094H78.8836V27.4762ZM103.52 43.6207C101.65 43.6207 99.9699 43.2417 98.4793 42.4837C97.0114 41.7471 95.7876 40.6022 94.9548 39.1866C94.0958 37.7465 93.6663 36.0159 93.6663 33.9946V33.3883C93.6663 31.3671 94.0958 29.6364 94.9548 28.1963C95.7876 26.7808 97.0114 25.6359 98.4793 24.8992C99.9699 24.1412 101.65 23.7623 103.52 23.7623C105.389 23.7623 107.069 24.1412 108.56 24.8992C110.028 25.6359 111.252 26.7808 112.085 28.1963C112.944 29.6364 113.373 31.3671 113.373 33.3883V33.9946C113.373 36.0159 112.944 37.7465 112.085 39.1866C111.252 40.6022 110.028 41.7471 108.56 42.4837C107.069 43.2417 105.389 43.6207 103.52 43.6207ZM103.52 39.3761C104.985 39.3761 106.198 38.9087 107.158 37.9739C108.118 37.0138 108.598 35.6495 108.598 33.881V33.502C108.598 31.7334 108.118 30.3817 107.158 29.4469C106.223 28.4868 105.01 28.0068 103.52 28.0068C102.054 28.0068 100.842 28.4868 99.8815 29.4469C98.9214 30.3817 98.4414 31.7334 98.4414 33.502V33.881C98.4414 35.6495 98.9214 37.0138 99.8815 37.9739C100.842 38.9087 102.054 39.3761 103.52 39.3761ZM115.884 43.0901V16.5617H120.66V43.0901H115.884ZM131.258 43.0901C130.02 43.0901 129.01 42.7111 128.226 41.9532C127.469 41.17 127.09 40.1341 127.09 38.8456V28.2342H122.39V24.2928H127.09V18.4566H131.865V24.2928H137.019V28.2342H131.865V38.0118C131.865 38.7698 132.218 39.1487 132.926 39.1487H136.564V43.0901H131.258ZM147.252 43.6207C144.802 43.6207 142.793 43.0901 141.227 42.029C139.66 40.9678 138.713 39.4519 138.384 37.4812L142.78 36.3443C142.957 37.2286 143.248 37.9234 143.652 38.4287C144.082 38.934 144.6 39.3003 145.206 39.5277C145.838 39.7298 146.52 39.8309 147.252 39.8309C148.364 39.8309 149.185 39.6414 149.716 39.2624C150.246 38.8582 150.512 38.3655 150.512 37.7844C150.512 37.2033 150.259 36.7612 149.754 36.458C149.248 36.1296 148.44 35.8643 147.328 35.6622L146.267 35.4727C144.953 35.22 143.753 34.8789 142.667 34.4494C141.58 33.9947 140.709 33.3757 140.052 32.5924C139.395 31.8092 139.066 30.7986 139.066 29.5606C139.066 27.691 139.749 26.2635 141.113 25.2782C142.477 24.2676 144.271 23.7623 146.494 23.7623C148.591 23.7623 150.335 24.2297 151.724 25.1645C153.114 26.0993 154.023 27.3246 154.453 28.8406L150.019 30.2049C149.817 29.2448 149.4 28.5626 148.768 28.1584C148.162 27.7542 147.404 27.552 146.494 27.552C145.585 27.552 144.89 27.7163 144.41 28.0447C143.93 28.3479 143.69 28.7774 143.69 29.3332C143.69 29.9396 143.943 30.3944 144.448 30.6975C144.953 30.9755 145.635 31.1902 146.494 31.3418L147.556 31.5313C148.97 31.784 150.246 32.125 151.383 32.5545C152.545 32.9588 153.455 33.5525 154.112 34.3357C154.794 35.0937 155.135 36.1296 155.135 37.4433C155.135 39.414 154.415 40.9426 152.975 42.029C151.56 43.0901 149.653 43.6207 147.252 43.6207ZM157.425 43.0901V16.5617H162.201V26.6046H162.883C163.085 26.2004 163.401 25.7961 163.83 25.3919C164.26 24.9876 164.828 24.6592 165.535 24.4065C166.268 24.1286 167.19 23.9897 168.302 23.9897C169.767 23.9897 171.043 24.3307 172.13 25.0129C173.241 25.6698 174.1 26.592 174.707 27.7794C175.313 28.9416 175.616 30.3059 175.616 31.8724V43.0901H170.841V32.2514C170.841 30.8365 170.487 29.7754 169.78 29.0679C169.098 28.3605 168.113 28.0068 166.824 28.0068C165.359 28.0068 164.222 28.4995 163.413 29.4848C162.605 30.4449 162.201 31.7966 162.201 33.5399V43.0901H157.425ZM178.883 43.0901V24.2928H183.658V43.0901H178.883ZM181.271 22.0948C180.412 22.0948 179.679 21.8168 179.073 21.261C178.491 20.7052 178.201 19.9725 178.201 19.0629C178.201 18.1534 178.491 17.4207 179.073 16.8649C179.679 16.309 180.412 16.0311 181.271 16.0311C182.155 16.0311 182.888 16.309 183.469 16.8649C184.05 17.4207 184.34 18.1534 184.34 19.0629C184.34 19.9725 184.05 20.7052 183.469 21.261C182.888 21.8168 182.155 22.0948 181.271 22.0948ZM190.163 43.0901V28.2342H185.388V24.2928H190.163V20.8062C190.163 19.5177 190.542 18.4945 191.3 17.7365C192.083 16.9533 193.093 16.5617 194.331 16.5617H199.258V20.5031H195.999C195.292 20.5031 194.938 20.882 194.938 21.64V24.2928H199.865V28.2342H194.938V43.0901H190.163Z" fill="#2C2C2C"/>
<path d="M208.497 43.0902C207.259 43.0902 206.248 42.7112 205.465 41.9533C204.707 41.17 204.328 40.1342 204.328 38.8456V28.2343H199.629V24.2929H204.328V18.4567H209.103V24.2929H214.257V28.2343H209.103V38.0119C209.103 38.7698 209.457 39.1488 210.164 39.1488H213.803V43.0902H208.497Z" fill="#2C2C2C"/>
</g>
</g>
</g>
</g>
<defs>
<clipPath id="clip0_134_2470">
<rect width="214.754" height="60.6364" fill="white" transform="translate(0.435547 0.253052)"/>
</clipPath>
<clipPath id="clip1_134_2470">
<rect width="214.754" height="60.6364" fill="white" transform="translate(0.435547 0.253052)"/>
</clipPath>
<clipPath id="clip2_134_2470">
<rect width="214.754" height="60.6364" fill="white" transform="translate(0.435547 0.253052)"/>
</clipPath>
</defs>
</svg>
