<svg width="50" height="50" viewBox="0 0 50 50" fill="none" xmlns="http://www.w3.org/2000/svg">
<path d="M29.1067 20.6053L24.8551 18.6653L29.1067 16.7252L31.0468 12.4736L32.9868 16.7252L37.2385 18.6653L32.9868 20.6053L31.0468 24.8569L29.1067 20.6053ZM8.34401 28.9847L10.2841 24.7331L14.5357 22.793L10.2841 20.853L8.34401 16.6014L6.40395 20.853L2.15234 22.793L6.40395 24.7331L8.34401 28.9847ZM17.6315 18.6653L19.8811 13.6913L24.8551 11.4417L19.8811 9.19202L17.6315 4.21805L15.3819 9.19202L10.4079 11.4417L15.3819 13.6913L17.6315 18.6653ZM9.37595 42.4L21.7593 29.996L30.0148 38.2516L47.5579 18.5208L44.6478 15.6107L30.0148 32.0599L21.7593 23.8044L6.28012 39.3042L9.37595 42.4Z" fill="#081348"/>
</svg>
