<svg width="56" height="46" viewBox="0 0 56 46" fill="none" xmlns="http://www.w3.org/2000/svg">
<g clip-path="url(#clip0_6_627)">
<path d="M49.995 13.6362C49.995 13.6362 49.9835 13.6304 49.9778 13.6275C50.0007 13.639 50.0265 13.6505 50.0495 13.6649L48.0866 12.5973C46.7149 11.8512 45.1538 11.4207 43.4836 11.3777C42.3845 7.82785 40.1117 5.07579 37.1673 3.48884C37.1846 3.49745 37.2018 3.50606 37.219 3.51467L37.0899 3.4458C37.0899 3.4458 37.087 3.4458 37.0841 3.4458C37.0841 3.4458 37.0841 3.4458 37.0813 3.4458L35.2561 2.45287C32.9001 1.16724 30.1079 0.636345 27.1348 1.05532C19.0623 2.18886 12.4333 9.96866 11.9799 18.6237C11.6843 18.6381 11.3858 18.6639 11.0874 18.7069C5.17003 19.5392 0.348909 25.4106 0.33743 31.7928C0.328821 35.908 2.3204 39.2455 5.32212 40.8784L7.28501 41.9459C7.26205 41.9344 7.24196 41.9201 7.21901 41.9057C8.88918 42.8355 10.875 43.2287 13.0072 42.9302C17.8628 42.2472 22.0985 38.1521 23.3927 32.8403C23.3985 32.8231 23.4042 32.8087 23.4071 32.7915C23.4071 32.7743 23.4157 32.7599 23.4185 32.7427C23.4185 32.737 23.4185 32.7341 23.4185 32.7284C23.4272 32.6882 23.4329 32.6509 23.4386 32.6193C23.4415 32.6078 23.4415 32.5964 23.4415 32.5878C23.4501 32.5189 23.453 32.4672 23.453 32.4127C23.453 32.3639 23.4501 32.318 23.4444 32.2721C23.4444 32.252 23.4415 32.2319 23.4358 32.2118C23.4358 32.1745 23.4243 32.1401 23.4157 32.1056C23.4128 32.0856 23.4071 32.0683 23.4013 32.0511C23.3956 32.0282 23.3899 32.0052 23.3812 31.9851C23.3726 31.9622 23.364 31.9392 23.3525 31.9162C23.3411 31.8875 23.3267 31.8588 23.3124 31.8301C23.2951 31.8015 23.2808 31.7728 23.2607 31.7469C23.2435 31.7211 23.2263 31.6953 23.2062 31.6694C23.1861 31.6436 23.166 31.6207 23.1431 31.5977C23.1316 31.5834 23.1201 31.5719 23.1057 31.5604C23.0885 31.5403 23.0713 31.526 23.0541 31.5145C23.0369 31.5001 23.0197 31.4858 23.0024 31.4743C22.9766 31.4542 22.9508 31.437 22.9221 31.4226C22.9163 31.4169 22.9077 31.4112 22.902 31.4083H22.8991L22.8389 31.3767C22.8389 31.3767 22.8245 31.371 22.8188 31.371C22.7356 31.3337 22.6495 31.3107 22.5548 31.2964C22.5117 31.2906 22.4715 31.2878 22.4285 31.2878C22.3998 31.2878 22.3711 31.2878 22.3424 31.2878C22.3309 31.2878 22.3223 31.2906 22.3108 31.2906H22.2994C22.2994 31.2906 22.2821 31.2935 22.2764 31.2964H22.2621C22.1272 31.3193 22.0239 31.3509 21.9234 31.3968C21.866 31.4226 21.8115 31.4542 21.757 31.4887C21.6508 31.5575 21.5532 31.6407 21.47 31.7354C21.4614 31.7354 21.4499 31.7268 21.4413 31.7211C21.4356 31.7354 21.4327 31.7527 21.4298 31.7699H21.4356C21.3552 31.8675 21.2835 31.9736 21.2261 32.0884C21.2261 32.097 21.2175 32.1056 21.2146 32.1142C21.2031 32.1343 21.1945 32.1544 21.1888 32.1745C21.1773 32.2003 21.1658 32.2262 21.1601 32.252C21.1515 32.2692 21.1457 32.2836 21.14 32.3008C21.14 32.3123 21.1343 32.3266 21.1314 32.3381C21.1228 32.3668 21.1142 32.3984 21.1027 32.4328C21.074 32.5562 21.0453 32.6767 21.0137 32.7972C21.0109 32.803 21.0109 32.8116 21.008 32.8173C20.9707 32.9579 20.9305 33.0986 20.8875 33.2363C20.8817 33.2507 20.8788 33.265 20.8731 33.2765C20.9219 33.1244 20.9649 32.9723 21.008 32.8173C20.2992 35.3398 18.7581 37.4777 16.7952 38.838C16.6632 38.9298 16.5284 39.0159 16.3906 39.102C16.3906 39.102 16.3897 39.103 16.3877 39.1049C15.9716 39.3603 15.5383 39.587 15.0935 39.7735C14.4249 40.0519 13.7246 40.2499 13.0101 40.3503C12.6428 40.402 12.2812 40.4278 11.9282 40.4278C11.822 40.4278 11.7187 40.4249 11.6154 40.4221C11.5695 40.4192 11.5236 40.4163 11.4777 40.4135C11.3973 40.4077 11.3198 40.402 11.2452 40.3962C11.1993 40.3934 11.1534 40.3876 11.1103 40.3819C11.007 40.3704 10.9066 40.3561 10.8061 40.3417H10.8033C10.6971 40.3245 10.5909 40.3073 10.4876 40.2843C10.2753 40.2413 10.0686 40.1896 9.86775 40.1265C9.82471 40.115 9.78166 40.1035 9.74149 40.0892C9.71279 40.0806 9.68696 40.072 9.66113 40.0634C9.57504 40.0347 9.48895 40.0031 9.40573 39.9715C9.3139 39.9371 9.22494 39.9027 9.13598 39.8625C9.09293 39.8453 9.05275 39.8252 9.00971 39.808C8.94944 39.7793 8.88631 39.7506 8.82605 39.719C8.73709 39.6759 8.64812 39.63 8.55916 39.5841C8.53907 39.5726 8.51899 39.5612 8.4989 39.5497C8.44724 39.521 8.39559 39.4923 8.3468 39.4607C8.20332 39.3775 8.0627 39.2885 7.92783 39.1938C7.8733 39.1537 7.81591 39.1164 7.76138 39.0762C7.71547 39.0417 7.66955 39.0073 7.62651 38.97C7.62651 38.97 7.62555 38.97 7.62364 38.97C7.59207 38.947 7.5605 38.9212 7.53181 38.8954C7.4658 38.8466 7.40267 38.7921 7.33953 38.7376C7.2764 38.683 7.21614 38.6285 7.15587 38.5711C6.97221 38.4018 6.79716 38.221 6.63358 38.0316C6.57906 37.9713 6.5274 37.9082 6.47575 37.8451C6.206 37.5179 5.96494 37.1621 5.75258 36.7833C5.70954 36.7087 5.66936 36.6312 5.62918 36.5537C5.54596 36.3987 5.47135 36.2409 5.40248 36.0802C5.37665 36.0285 5.35656 35.9769 5.33647 35.9224C5.31352 35.8764 5.2963 35.8305 5.27908 35.7817C5.25612 35.7301 5.23603 35.6784 5.21882 35.6239C5.2016 35.5837 5.18725 35.5407 5.1729 35.4976C5.15281 35.4431 5.13559 35.3886 5.11838 35.3312C5.08394 35.2336 5.05524 35.1332 5.02654 35.0327C5.0122 34.984 4.99785 34.9323 4.98637 34.8807C4.9175 34.6339 4.86297 34.3785 4.81992 34.1173C4.80558 34.0456 4.7941 33.9738 4.78549 33.9021C4.77401 33.8361 4.7654 33.7729 4.75966 33.7069C4.74531 33.595 4.73383 33.4831 4.72522 33.3712C4.71375 33.2621 4.70514 33.156 4.70227 33.0469C4.69653 32.9809 4.69366 32.9149 4.69366 32.8489C4.68792 32.7398 4.68792 32.6308 4.68792 32.5217C4.69653 27.5571 8.44437 22.9943 13.0445 22.3457C13.6529 22.2625 14.267 22.2482 14.8611 22.3084C14.9471 22.317 15.0332 22.3142 15.1193 22.3027C15.1825 22.2941 15.2427 22.2797 15.303 22.2596C15.3288 22.251 15.3546 22.2424 15.3805 22.2338C15.3948 22.2281 15.4092 22.2223 15.4264 22.2137C15.4608 22.1994 15.4953 22.1822 15.5297 22.1649C15.5412 22.1563 15.5527 22.1506 15.5641 22.1449H15.567C15.567 22.1449 15.5814 22.1362 15.59 22.1305C15.6014 22.1248 15.6129 22.1162 15.6244 22.1076C15.6244 22.1047 15.6301 22.1018 15.6359 22.0989C15.6474 22.0932 15.6617 22.0846 15.6761 22.0731C15.7076 22.0502 15.7334 22.0301 15.7593 22.01L15.765 22.0071C15.7765 21.9985 15.7851 21.9899 15.7937 21.9813C15.7995 21.9784 15.8023 21.9755 15.8052 21.9727C15.8052 21.9698 15.8052 21.9669 15.8109 21.9641C15.8109 21.9641 15.8195 21.9555 15.8253 21.9526C15.8339 21.9411 15.8454 21.9325 15.854 21.921H15.8568L15.8655 21.9124C15.8655 21.9124 15.8712 21.9038 15.8741 21.9009C15.8798 21.8981 15.8884 21.8895 15.8942 21.8837C15.9056 21.8722 15.9142 21.8608 15.9229 21.8493C15.9401 21.8321 15.9544 21.8148 15.9659 21.7976L16.052 21.6771C16.0778 21.6398 16.1008 21.6025 16.1209 21.5623C16.1323 21.5422 16.1438 21.5221 16.1524 21.502C16.1696 21.4676 16.184 21.436 16.1983 21.4016C16.1983 21.3987 16.1983 21.3959 16.1983 21.393C16.2156 21.3499 16.2328 21.3069 16.2443 21.2639C16.2586 21.2151 16.273 21.1692 16.2816 21.1232C16.2988 21.0486 16.3074 20.9769 16.3103 20.9051V20.842C16.3103 20.8191 16.3103 20.799 16.3103 20.7789V20.7703C16.3017 20.5636 16.2988 20.4173 16.2988 20.2623C16.3131 12.6662 22.0468 5.68417 29.0862 4.69412C29.3761 4.65395 29.663 4.62238 29.95 4.60516C30.2198 4.58507 30.4838 4.57646 30.7478 4.57646H30.765C30.9171 4.57646 31.0663 4.57933 31.2156 4.58794C31.2471 4.58507 31.2758 4.58794 31.3017 4.59081C31.4451 4.59655 31.5858 4.60516 31.7264 4.61951C31.7551 4.61951 31.7809 4.62238 31.8039 4.62525C31.9416 4.63673 32.0793 4.65395 32.2171 4.67116C32.286 4.67977 32.3577 4.68838 32.4266 4.70273C32.4581 4.70273 32.4897 4.70847 32.5213 4.71708C32.6189 4.72856 32.7136 4.74578 32.8111 4.76587C32.9862 4.79743 33.1584 4.83187 33.3305 4.87778C33.4396 4.90074 33.5458 4.92657 33.6519 4.95814C33.8098 4.99831 33.9647 5.04423 34.1197 5.09588C34.1742 5.1131 34.2259 5.13032 34.2804 5.15041C34.2919 5.15328 34.3062 5.15615 34.3177 5.16476C34.3837 5.18197 34.4497 5.20493 34.5157 5.23363C34.5559 5.24798 34.599 5.26233 34.6391 5.27954C34.7338 5.31398 34.8257 5.35129 34.9175 5.39146C34.9749 5.41155 35.0323 5.43451 35.0868 5.46034C35.1327 5.48042 35.1758 5.50051 35.2217 5.5206C35.3193 5.56365 35.4168 5.60956 35.5144 5.65835C35.5488 5.67556 35.5861 5.69278 35.6206 5.71C35.678 5.7387 35.7354 5.7674 35.7928 5.79896C35.8071 5.79896 35.8186 5.81044 35.8329 5.81905C35.853 5.83053 35.876 5.84201 35.8961 5.85349C35.9047 5.85349 35.9162 5.8621 35.9248 5.86784C35.9678 5.89366 36.0109 5.91662 36.0539 5.94245C36.0941 5.96541 36.1343 5.98549 36.1716 6.00845C36.1773 6.01132 36.1859 6.01706 36.1916 6.01993C36.2318 6.04576 36.2749 6.06872 36.315 6.09454C36.3638 6.12324 36.4126 6.15194 36.4614 6.1835C36.5905 6.26386 36.7168 6.34708 36.8431 6.43604C36.8832 6.46187 36.9234 6.49056 36.9636 6.51639C36.9722 6.52213 36.9779 6.52787 36.9866 6.53361C37.242 6.7144 37.4916 6.90667 37.7298 7.11616C37.9307 7.29121 38.1258 7.46914 38.3152 7.65854C38.364 7.70445 38.4128 7.75037 38.4587 7.79915C38.5046 7.84794 38.5506 7.89672 38.5965 7.94551C38.6969 8.05169 38.7916 8.16074 38.8892 8.27266C38.9064 8.29274 38.9236 8.31283 38.9408 8.33579C38.9466 8.34153 38.9523 8.35014 38.958 8.35588C38.958 8.35588 38.9638 8.35875 38.9638 8.36162C38.9724 8.3731 38.981 8.38171 38.9896 8.39318C39.0441 8.45632 39.0987 8.51945 39.1475 8.58546C39.1475 8.58546 39.1532 8.59407 39.1561 8.59693C39.0958 8.52232 39.0355 8.45058 38.9753 8.37884C39.0642 8.48215 39.1503 8.58833 39.2307 8.69451C39.311 8.79495 39.3914 8.90112 39.4631 9.0073C39.509 9.06757 39.5521 9.12783 39.5923 9.19097C39.6439 9.26271 39.6927 9.33445 39.7386 9.40906C39.8419 9.55829 39.9366 9.71038 40.0285 9.86535C40.0658 9.92561 40.1002 9.98588 40.1318 10.0461C40.2035 10.1667 40.2724 10.2901 40.3384 10.4163C40.4044 10.5455 40.4704 10.6746 40.5307 10.8066C40.545 10.8324 40.5593 10.8611 40.5708 10.887C40.6254 10.9989 40.677 11.1137 40.7229 11.2285C40.8176 11.4408 40.9037 11.6561 40.9841 11.877C41.0099 11.9373 41.0329 12.0004 41.0529 12.0607C41.1132 12.2214 41.1677 12.385 41.2136 12.5514C41.251 12.6662 41.2825 12.7838 41.3141 12.9015C41.3112 12.8872 41.3083 12.8757 41.3026 12.8613C41.2883 12.8039 41.271 12.7437 41.2538 12.6863L41.3141 12.9015C41.3141 12.9015 41.317 12.9159 41.3198 12.9245C41.3198 12.9159 41.3141 12.9101 41.3141 12.9015C41.3227 12.9302 41.3284 12.956 41.337 12.9847C41.337 12.9933 41.3428 13.0019 41.3428 13.0077C41.3428 13.0077 41.3428 13.0077 41.3428 13.0106C41.3485 13.0278 41.3514 13.0421 41.3571 13.0593C41.3772 13.1368 41.4002 13.2114 41.4174 13.2889C41.4375 13.3635 41.4547 13.441 41.4719 13.5185C41.4977 13.6333 41.5236 13.7481 41.5465 13.8657C41.5609 13.9317 41.5724 13.9977 41.5838 14.0666C41.5896 14.0867 41.5924 14.1068 41.5953 14.1269C41.6097 14.19 41.6211 14.2531 41.6298 14.3163C41.6326 14.3335 41.6355 14.345 41.6384 14.3593C41.6384 14.3794 41.6441 14.3995 41.647 14.4167C41.6613 14.4856 41.6814 14.5516 41.7072 14.6147C41.713 14.6348 41.7216 14.6549 41.7331 14.675C41.7388 14.6922 41.7474 14.7094 41.756 14.7238C41.7847 14.7812 41.8163 14.8328 41.8507 14.8787C41.8536 14.8787 41.8565 14.8816 41.8565 14.8816C41.8938 14.9333 41.9397 14.982 41.9885 15.0251C42.0028 15.0394 42.0172 15.0509 42.0344 15.0595C42.0344 15.0624 42.0401 15.0653 42.043 15.0681C42.0545 15.0768 42.066 15.0854 42.0774 15.094C42.086 15.1026 42.0946 15.1054 42.1004 15.1141C42.1176 15.1227 42.1348 15.1313 42.1492 15.1399C42.1578 15.1456 42.1635 15.1514 42.1721 15.1542C42.1721 15.1542 42.1721 15.1571 42.1779 15.1571C42.2094 15.1743 42.2439 15.1915 42.2783 15.203C42.307 15.2145 42.3357 15.226 42.3673 15.2346C42.3673 15.2346 42.373 15.2346 42.3759 15.2346C42.4046 15.2432 42.4361 15.2489 42.4677 15.2547C42.5021 15.2604 42.5366 15.2662 42.571 15.269C42.5968 15.269 42.6227 15.269 42.6485 15.269C42.6743 15.269 42.7059 15.269 42.7432 15.2633C42.7432 15.2662 42.7489 15.2662 42.7518 15.2633H42.7547C42.7547 15.2633 42.769 15.2604 42.7805 15.2604C42.7891 15.2604 42.8006 15.2604 42.8092 15.2575C42.8207 15.2547 42.8322 15.2518 42.8436 15.2518C42.8523 15.2518 42.8637 15.2518 42.8752 15.2461C42.881 15.2461 42.8867 15.2432 42.8953 15.2432C42.9613 15.2288 43.0302 15.2145 43.099 15.203C43.1191 15.1973 43.1392 15.1944 43.1564 15.1915C43.1765 15.1858 43.1966 15.1829 43.2167 15.1801H43.2224C43.2569 15.1743 43.2884 15.1686 43.32 15.1628C43.409 15.1485 43.4951 15.1341 43.5812 15.1227C43.6988 15.1054 43.8136 15.0911 43.9284 15.0796C44.9988 14.9706 46.0233 15.0538 46.9789 15.3063C47.108 15.3408 47.2372 15.3781 47.3663 15.4211C47.4295 15.4412 47.4955 15.4613 47.5586 15.4843C47.6246 15.5072 47.6877 15.5302 47.748 15.5531C47.8857 15.6048 48.0206 15.6593 48.1555 15.7167C48.1584 15.7196 48.1641 15.7224 48.167 15.7224C48.4138 15.8315 48.6548 15.9549 48.8873 16.0869C48.8959 16.0926 48.9074 16.0955 48.916 16.1041C49.0308 16.1672 49.1427 16.2361 49.2517 16.305C49.3665 16.3825 49.4784 16.4571 49.5903 16.5374C49.6764 16.5977 49.7625 16.6637 49.8457 16.7297C49.8831 16.7555 49.9175 16.7842 49.9548 16.8129C50.0495 16.8904 50.1413 16.9679 50.2332 17.0482C50.4426 17.2319 50.6407 17.4242 50.8301 17.6308C50.9248 17.7312 51.0166 17.8374 51.1056 17.9436C51.1744 18.0239 51.2433 18.1072 51.3093 18.1933C51.4643 18.3913 51.6106 18.6008 51.7484 18.816C51.7914 18.8791 51.8316 18.9451 51.8718 19.0111C51.9866 19.1977 52.0927 19.3871 52.1932 19.5851C52.2305 19.6597 52.2649 19.7343 52.3022 19.8089C52.3682 19.9409 52.4285 20.0758 52.483 20.2135C52.5175 20.291 52.549 20.3685 52.5777 20.4489C52.6064 20.5149 52.6294 20.5837 52.6552 20.6497C52.6609 20.6641 52.6667 20.6784 52.6695 20.6928C52.704 20.7789 52.7327 20.8707 52.7614 20.9597C52.7958 21.063 52.8274 21.1663 52.8561 21.2725C52.8848 21.3672 52.9106 21.4619 52.9336 21.5594C52.9336 21.5623 52.9393 21.568 52.9393 21.5767C52.991 21.7747 53.034 21.9755 53.0742 22.1822C53.077 22.1879 53.077 22.1936 53.077 22.2023C53.0943 22.2855 53.1086 22.3687 53.1201 22.4548C53.1287 22.5007 53.1373 22.5466 53.1402 22.5925C53.1545 22.67 53.166 22.7446 53.1746 22.8221C53.1775 22.8307 53.1775 22.8393 53.1775 22.8479C53.1947 22.9713 53.2062 23.0976 53.2177 23.2239C53.232 23.3731 53.2406 23.5223 53.2464 23.6744C53.2492 23.7002 53.2521 23.7232 53.2492 23.7462C53.2578 23.8925 53.2607 24.0389 53.2607 24.1852V24.2225C53.2492 29.9964 48.8901 35.3025 43.541 36.0544C43.0158 36.129 42.5682 36.5594 42.4103 37.0932C42.3644 37.2281 42.3472 37.3687 42.3472 37.5122C42.3472 37.5581 42.3501 37.604 42.3529 37.6499C42.3529 37.67 42.3587 37.6901 42.3615 37.7102C42.3673 37.7504 42.3759 37.7905 42.3845 37.8307C42.4103 37.9398 42.4505 38.0431 42.505 38.1349C42.5251 38.1665 42.5452 38.198 42.5653 38.2267C42.6026 38.2784 42.6428 38.3272 42.6915 38.3702C42.7145 38.3932 42.7375 38.4133 42.7604 38.4305C42.7949 38.4592 42.835 38.485 42.8752 38.508C42.881 38.5137 42.8896 38.5195 42.8982 38.5223C43.0818 38.6228 43.2999 38.6658 43.5352 38.6314C50.2016 37.6958 55.634 31.0812 55.6483 23.8868C55.6569 19.2292 53.3898 15.4556 49.9806 13.6275L49.995 13.6362ZM2.85417 36.4733C2.84269 36.4389 2.83408 36.4073 2.8226 36.3729C2.83408 36.4045 2.84269 36.4389 2.85417 36.4705V36.4733ZM20.6493 33.9222C20.6321 33.971 20.612 34.0197 20.5919 34.0685C20.5919 34.0743 20.5861 34.08 20.5833 34.0857C20.6062 34.0312 20.6263 33.9767 20.6464 33.9222H20.6493ZM20.5 34.2866C20.4627 34.3842 20.4197 34.4789 20.3738 34.5707C20.3738 34.5707 20.3738 34.5707 20.3738 34.5736C20.4168 34.4789 20.4599 34.3813 20.5029 34.2838L20.5 34.2866ZM20.1184 35.0873C20.1184 35.0873 20.1184 35.0873 20.1184 35.0901C20.1098 35.1074 20.1012 35.1217 20.0925 35.1389C20.1012 35.1217 20.1126 35.1045 20.1212 35.0873H20.1184ZM19.246 36.4676C19.246 36.4676 19.2374 36.482 19.2316 36.4877C19.2316 36.4906 19.2259 36.4963 19.223 36.4992C19.2316 36.4877 19.2374 36.4791 19.246 36.4676ZM18.9188 36.8866C18.9188 36.8866 18.8959 36.9153 18.8844 36.9296C18.8844 36.9296 18.8815 36.9325 18.8787 36.9354C18.893 36.921 18.9045 36.9038 18.916 36.8895L18.9188 36.8866ZM17.837 38.0259C17.837 38.0259 17.8341 38.0287 17.8312 38.0316C17.8197 38.0431 17.8054 38.0546 17.791 38.066C17.8054 38.0517 17.8226 38.0402 17.837 38.0259ZM39.1618 8.60267C39.1618 8.60267 39.1675 8.60267 39.1675 8.60841C39.1675 8.60841 39.1695 8.61033 39.1733 8.61415C39.1733 8.61415 39.1819 8.62563 39.1848 8.63137C39.1761 8.62276 39.1704 8.61415 39.1618 8.60267ZM39.2737 8.74329C39.2909 8.76051 39.3024 8.7806 39.3168 8.79781C39.3455 8.83512 39.3742 8.8753 39.4029 8.91547C39.4029 8.91547 39.4029 8.91834 39.4086 8.92121C39.3655 8.86095 39.3225 8.80355 39.2766 8.74329H39.2737Z" fill="black"/>
<path d="M38.892 8.27856C38.9207 8.313 38.9494 8.34744 38.9781 8.38187C38.9666 8.36753 38.9551 8.35318 38.9436 8.3417C38.9264 8.31874 38.9092 8.29865 38.892 8.27856Z" fill="black"/>
<path d="M38.6022 7.95142C38.7026 8.0576 38.7973 8.16664 38.8949 8.27856C38.8949 8.27856 38.892 8.27569 38.8891 8.27282C38.7944 8.16377 38.6997 8.05473 38.6022 7.95142Z" fill="black"/>
<path d="M40.9958 33.0672L39.9139 33.0442C39.713 31.9795 39.317 31.0182 38.7631 30.2003L39.4174 29.1558C39.5982 28.863 39.5753 28.4957 39.3572 28.292L38.2753 27.2761C38.1548 27.1642 37.9969 27.1211 37.8391 27.1412C37.71 27.1584 37.5808 27.2216 37.4689 27.3249L36.585 28.1542C35.7557 27.6721 34.8144 27.3737 33.8014 27.299L33.6378 26.154C33.5977 25.8298 33.3336 25.626 33.0266 25.669L31.497 25.8843C31.19 25.9273 30.9259 26.2057 30.88 26.5414L30.7136 27.7324C29.7006 28.094 28.7593 28.6564 27.9271 29.371L27.0461 28.7913C26.9342 28.7196 26.805 28.6937 26.6759 28.7138C26.5152 28.7368 26.3574 28.8257 26.2368 28.9692L25.155 30.2893C24.9369 30.5562 24.9082 30.9292 25.0918 31.1703L25.7432 32.0312C25.1865 33.004 24.7819 34.0773 24.5781 35.2022L23.4963 35.5294C23.1921 35.6212 22.9682 35.9369 22.9654 36.2669V37.9199C22.9625 38.2527 23.1863 38.5024 23.4905 38.5082L24.5724 38.5311C24.7761 39.5986 25.1722 40.56 25.726 41.3779L25.0717 42.4196C24.8881 42.7123 24.9139 43.0825 25.132 43.2834L26.211 44.2992C26.3315 44.414 26.4894 44.4571 26.6501 44.4341C26.7792 44.4169 26.9112 44.3538 27.0203 44.2505L27.9041 43.424C28.7335 43.9061 29.6748 44.2045 30.6849 44.282L30.8456 45.427C30.8915 45.7484 31.1527 45.9551 31.4597 45.912L32.9893 45.6968C33.2963 45.6537 33.5603 45.3725 33.6005 45.0396L33.767 43.8487C34.78 43.4871 35.7241 42.9246 36.5563 42.2101L37.4373 42.7869C37.5493 42.8586 37.6784 42.8845 37.8075 42.8672C37.9682 42.8443 38.1261 42.7553 38.2437 42.609L39.3285 41.2889C39.5466 41.0249 39.5724 40.649 39.3916 40.4079L38.7402 39.547C39.2969 38.5713 39.6987 37.498 39.9024 36.376L40.9843 36.0488C41.2885 35.957 41.5123 35.6442 41.5152 35.3113V33.6583C41.5181 33.3283 41.2942 33.0758 40.99 33.07L40.9958 33.0672ZM32.2317 41.2459C29.4423 41.639 27.1752 39.5068 27.181 36.4965C27.1867 33.4833 29.4624 30.714 32.2518 30.3209C35.044 29.9277 37.3111 32.0599 37.3053 35.0731C37.2996 38.0863 35.0239 40.8527 32.2317 41.2459Z" fill="black"/>
</g>
<defs>
<clipPath id="clip0_6_627">
<rect width="55.3252" height="45" fill="white" transform="translate(0.337402 0.914795)"/>
</clipPath>
</defs>
</svg>
