<svg width="96" height="21" viewBox="0 0 96 21" fill="none" xmlns="http://www.w3.org/2000/svg">
<path d="M10.004 0.525879C4.479 0.525879 0 5.00288 0 10.5259C0 16.0489 4.478 20.5259 10.003 20.5259C15.527 20.5259 20.005 16.0489 20.005 10.5259C20.005 5.00288 15.527 0.525879 10.003 0.525879H10.004ZM17.194 10.7069L17.192 10.7099C17.1813 10.7183 17.1703 10.7264 17.159 10.7339L17.147 10.7419L17.124 10.7559L17.102 10.7689C17.026 10.8085 16.9416 10.8291 16.856 10.8289H12.118C12.156 10.9859 12.198 11.1649 12.242 11.3589C12.502 12.4799 13.192 15.4589 13.925 15.4589H13.963C14.535 15.4589 14.827 14.6319 15.467 12.8189L15.475 12.7979C15.578 12.5059 15.694 12.1779 15.82 11.8299L15.852 11.7419C15.8753 11.6897 15.9173 11.648 15.9697 11.625C16.0221 11.6021 16.0811 11.5995 16.1353 11.6177C16.1896 11.6359 16.235 11.6737 16.2629 11.7237C16.2907 11.7736 16.299 11.8322 16.286 11.8879L16.26 11.9769C16.193 12.1929 16.122 12.4869 16.04 12.8269C15.658 14.4069 15.082 16.7969 13.603 16.7969H13.592C12.636 16.7889 12.065 15.2619 11.82 14.6089C11.363 13.3889 11.016 12.0899 10.684 10.8319H6.322L5.416 13.7269L5.403 13.7169C5.34999 13.8016 5.27082 13.8668 5.17746 13.9025C5.08411 13.9383 4.98165 13.9426 4.8856 13.915C4.78954 13.8873 4.70512 13.8291 4.64511 13.7491C4.5851 13.6692 4.55277 13.5718 4.553 13.4719V13.4559L4.608 13.1279C4.733 12.3839 4.883 11.6109 5.054 10.8299H3.214L3.208 10.8229C3.08668 10.8038 2.97255 10.753 2.87713 10.6756C2.78172 10.5983 2.7084 10.4972 2.66457 10.3824C2.62075 10.2677 2.60798 10.1434 2.62754 10.0222C2.6471 9.90095 2.69832 9.78701 2.776 9.69188C2.87977 9.56702 3.02423 9.48274 3.184 9.45388C3.25572 9.44602 3.32786 9.44268 3.4 9.44388H3.49C4.073 9.45388 4.694 9.46388 5.371 9.47288C6.333 5.56688 7.446 3.58488 8.681 3.57888C10.007 3.57888 10.991 6.59588 11.777 9.54788L11.78 9.55888C13.397 9.59188 15.12 9.63888 16.796 9.75988L16.866 9.76688C16.8928 9.76733 16.9195 9.76967 16.946 9.77388H16.956L16.965 9.77588H16.969C17.0674 9.7958 17.158 9.84323 17.2305 9.91266C17.303 9.98209 17.3542 10.0707 17.3783 10.1681C17.4024 10.2655 17.3983 10.3678 17.3666 10.463C17.3349 10.5582 17.2767 10.6424 17.199 10.7059L17.194 10.7069ZM25.556 13.0279L24.763 14.9879H22.459L26.842 4.75788H28.877L33.245 14.9879H30.955L30.163 13.0279H25.556ZM27.846 7.34488L26.35 11.0689H29.371L27.846 7.34488ZM46.23 11.0539V14.9879H44.151V11.2339C44.151 10.0969 43.598 9.48388 42.625 9.48388C42.191 9.48388 41.712 9.67788 41.278 10.2769C41.314 10.5339 41.334 10.7939 41.338 11.0539V14.9879H39.26V11.2339C39.26 10.0969 38.706 9.48388 37.719 9.48388C37.317 9.48388 36.866 9.72388 36.447 10.2919V14.9879H34.368V7.82388H36.448V8.25688C36.896 7.83788 37.375 7.59888 38.213 7.59888C39.125 7.59888 39.933 7.95888 40.503 8.61588C41.266 7.91288 41.983 7.59888 43.105 7.59888C44.855 7.59888 46.23 8.95988 46.23 11.0539ZM55.37 11.4129C55.37 13.4909 53.785 15.1359 51.81 15.1359C51.002 15.1359 50.329 14.9269 49.776 14.5679V18.4419H47.696V7.82288H49.776V8.24188C50.329 7.88288 51.002 7.67388 51.81 7.67388C53.784 7.67388 55.37 9.30388 55.37 11.4129ZM53.321 11.4129C53.321 10.3509 52.544 9.42288 51.466 9.42288C50.853 9.42288 50.24 9.63288 49.776 10.2609V12.5509C50.24 13.1629 50.853 13.3729 51.466 13.3729C52.544 13.3709 53.321 12.4599 53.321 11.4129ZM58.616 14.9869H56.537V4.36888H58.616V14.9869ZM60.486 5.29588C60.486 4.59288 61.04 4.06988 61.743 4.06988C62.431 4.06988 62.984 4.59188 62.984 5.29588C62.984 5.98388 62.431 6.49288 61.743 6.49288C61.04 6.49288 60.486 5.98388 60.486 5.29588ZM62.79 7.82388V14.9869H60.711V7.82388H62.79ZM70.345 14.8829C69.477 15.1519 69.088 15.2119 68.417 15.2119C66.681 15.2119 65.545 13.9849 65.545 12.1309V9.57288H64.034V7.82288H65.545V5.26588H67.609V7.82388H70.197V9.57388H67.609V12.1159C67.609 12.9239 68.103 13.2969 68.866 13.2969C69.255 13.2969 69.674 13.2069 70.077 13.1029L70.345 14.8829ZM78.691 14.9869H76.612V14.4789C76.029 14.9419 75.37 15.2119 74.563 15.2119C72.678 15.2119 71.422 13.8509 71.422 11.7719V7.82388H73.501V11.5769C73.501 12.7139 74.07 13.3269 75.042 13.3269C75.564 13.3269 76.134 13.0129 76.613 12.4299V7.82388H78.692L78.691 14.9869ZM87.518 14.9869H85.439V14.5679C84.885 14.9279 84.212 15.1359 83.404 15.1359C81.43 15.1359 79.829 13.5059 79.829 11.3969C79.829 9.31888 81.43 7.67288 83.404 7.67288C84.212 7.67288 84.885 7.88288 85.439 8.24188V4.36888H87.518V14.9869ZM85.439 12.5499V10.2599C84.975 9.64688 84.362 9.43788 83.748 9.43788C82.656 9.43788 81.893 10.3509 81.893 11.3979C81.893 12.4579 82.656 13.3859 83.748 13.3859C84.36 13.3869 84.975 13.1779 85.439 12.5499ZM95.955 11.9359H90.675C90.839 12.7739 91.393 13.4319 92.53 13.4319C93.113 13.4319 93.517 13.2519 93.741 12.8939H95.911C95.522 14.2689 94.175 15.2109 92.485 15.2109C90.181 15.2109 88.625 13.5509 88.625 11.4129C88.625 9.19888 90.166 7.59688 92.425 7.59688C94.474 7.59688 96 9.04788 96 11.2619C96.003 11.4874 95.9879 11.7128 95.955 11.9359ZM90.689 10.7099H93.936C93.815 9.81288 93.277 9.31988 92.44 9.31988C91.437 9.31988 90.884 9.90188 90.689 10.7099Z" fill="#081348"/>
</svg>
