<svg width="107" height="65" viewBox="0 0 107 65" fill="none" xmlns="http://www.w3.org/2000/svg">
<path d="M0.577148 42.1172C2.68057 42.3039 4.16923 43.1457 5.97358 44.1553C15.9787 49.573 26.6867 52.9403 37.889 54.8324C38.2382 54.8914 38.5875 54.9505 38.9473 55.0113C43.7369 55.7741 48.507 55.8974 53.3461 55.897C54.3224 55.8978 55.2986 55.9045 56.2749 55.9115C62.1796 55.9315 68.056 55.5557 73.8343 54.2765C74.1999 54.1977 74.5654 54.1188 74.942 54.0375C80.9138 52.7127 86.8214 51.107 92.5074 48.8369C95.0804 47.8251 95.0804 47.8251 96.5549 48.0463C97.2961 48.7875 97.2961 48.7875 97.299 49.6531C96.7772 51.0324 95.856 51.5931 94.6558 52.3542C94.4127 52.5113 94.1696 52.6683 93.9192 52.8302C85.6194 58.0211 76.4533 60.9896 66.9093 62.8691C66.4607 62.961 66.4607 62.961 66.0031 63.0546C47.086 66.8279 26.1792 61.8587 10.2438 51.2812C7.26556 49.2578 4.4118 47.0679 1.68886 44.7112C1.46865 44.5273 1.24843 44.3434 1.02154 44.1539C0.577148 43.5995 0.577148 43.5995 0.577148 42.1172Z" fill="#808080"/>
<path d="M33.9287 1.35538C35.763 1.35538 37.5974 1.35538 39.4873 1.35538C40.5913 4.24454 41.4423 7.10549 42.1551 10.113C42.311 10.7569 42.311 10.7569 42.4701 11.4139C42.7982 12.7699 43.1232 14.1266 43.4477 15.4834C43.7766 16.8534 44.1062 18.2232 44.4373 19.5926C44.6424 20.4414 44.8462 21.2905 45.0485 22.14C45.186 22.7101 45.186 22.7101 45.3262 23.2916C45.4065 23.6274 45.4868 23.9632 45.5695 24.3092C45.7174 25.0624 45.7174 25.0624 46.1575 25.4425C46.2113 25.1937 46.2651 24.945 46.3205 24.6887C47.6709 18.4661 49.1275 12.2823 50.7093 6.11435C50.8754 5.45573 51.0361 4.79568 51.1885 4.13376C51.6418 2.17078 51.6418 2.17078 52.4572 1.35538C53.6254 1.23089 53.6254 1.23089 55.0281 1.21642C55.49 1.20591 55.9519 1.1954 56.4279 1.18457C57.6452 1.35538 57.6452 1.35538 58.2398 1.96063C58.8684 3.02662 59.0972 3.97185 59.3548 5.18268C59.4569 5.65108 59.5591 6.11949 59.6644 6.60209C59.7166 6.84956 59.7689 7.09704 59.8227 7.35201C60.0965 8.64887 60.382 9.94315 60.6663 11.2377C60.7232 11.4983 60.78 11.7589 60.8387 12.0274C61.4581 14.8485 62.1628 17.6469 62.8829 20.4438C63.3079 22.1047 63.7017 23.7426 63.9449 25.4425C65.4753 21.0931 66.6125 16.6244 67.7447 12.1584C67.8185 11.868 67.8924 11.5777 67.9684 11.2785C68.3443 9.79935 68.7178 8.31962 69.0875 6.83885C69.2275 6.28532 69.3676 5.73182 69.5078 5.17834C69.5711 4.92152 69.6343 4.6647 69.6995 4.4001C70.0034 3.20914 70.2954 2.39091 70.9858 1.35538C71.9593 1.27335 72.8419 1.25102 73.8114 1.2859C74.0732 1.29091 74.3349 1.29593 74.6046 1.3011C75.2513 1.31421 75.8979 1.33415 76.5443 1.35538C76.3305 3.0877 75.9979 4.68603 75.4749 6.35039C75.3313 6.81067 75.1877 7.27094 75.0398 7.74516C74.8827 8.24158 74.7256 8.73797 74.5684 9.23435C74.4062 9.75167 74.2441 10.269 74.0822 10.7865C73.6563 12.1457 73.2279 13.5041 72.7991 14.8624C72.4528 15.9606 72.1083 17.0595 71.7639 18.1583C71.3483 19.484 70.9319 20.8095 70.5153 22.1348C70.4378 22.3817 70.3602 22.6285 70.2803 22.8828C69.5107 25.3298 68.7337 27.7743 67.9348 30.2119C67.7586 30.7496 67.7586 30.7496 67.5789 31.2983C67.2801 32.1127 67.2801 32.1127 66.9095 32.4833C65.9921 32.5501 65.0948 32.5863 64.1765 32.5991C63.9224 32.6099 63.6683 32.6206 63.4064 32.6317C62.6624 32.6411 62.6624 32.6411 61.3509 32.4833C60.2329 31.3563 59.9679 30.1948 59.6414 28.669C59.5392 28.2025 59.4371 27.7359 59.3318 27.2552C59.2251 26.7514 59.1184 26.2475 59.0117 25.7436C58.843 24.9672 58.6728 24.1912 58.5025 23.4153C58.3871 22.8892 58.2721 22.363 58.1575 21.8367C57.6041 19.3015 57.0055 16.7778 56.3946 14.2559C56.3017 13.8715 56.2089 13.4871 56.1133 13.0911C55.7641 11.6484 55.4126 10.2064 55.0512 8.76679C54.7415 9.99408 54.433 11.2217 54.1248 12.4493C54.0272 12.8374 53.9296 13.2255 53.8291 13.6254C53.2243 16.0412 52.6346 18.4598 52.0592 20.8827C51.928 21.4328 51.7967 21.9829 51.6654 22.533C51.4714 23.3462 51.2782 24.1596 51.0875 24.9736C50.9078 25.7408 50.7252 26.5072 50.5421 27.2736C50.4379 27.7157 50.3337 28.1579 50.2263 28.6134C49.8382 29.9773 49.3359 31.1933 48.7515 32.4833C47.8476 32.5333 46.9464 32.57 46.0417 32.5991C45.7859 32.6146 45.5301 32.6302 45.2666 32.6462C44.5175 32.6643 44.5175 32.6643 43.193 32.4833C42.2269 31.1902 41.7813 29.8429 41.3343 28.3043C41.2007 27.8504 41.0671 27.3966 40.9295 26.929C40.8605 26.6903 40.7915 26.4517 40.7204 26.2058C40.3564 24.9472 39.9843 23.691 39.6132 22.4345C39.5024 22.0579 39.5024 22.0579 39.3893 21.6738C38.7518 19.5146 38.0731 17.3703 37.3797 15.2286C36.5124 12.5285 35.6743 9.82131 34.8783 7.09923C34.7822 6.77795 34.6861 6.45667 34.5871 6.12566C34.5002 5.82403 34.4134 5.5224 34.3239 5.21163C34.2473 4.94914 34.1706 4.68665 34.0916 4.41621C33.9287 3.5788 33.9287 3.5788 33.9287 1.35538Z" fill="#808080"/>
<path d="M17.5231 0.171936C21.0486 0.0305503 24.6253 0.773218 27.4561 3.00188C29.3151 4.9749 30.2629 7.38746 30.2749 10.0697C30.2789 10.5635 30.2789 10.5635 30.2828 11.0673C30.2844 11.4209 30.2859 11.7745 30.2875 12.1388C30.2961 12.8939 30.3051 13.649 30.3143 14.4042C30.3273 15.5897 30.3382 16.775 30.3432 17.9606C30.3489 19.1082 30.3639 20.2555 30.3802 21.403C30.3795 21.7521 30.3787 22.1012 30.378 22.4609C30.4181 24.6676 30.8222 26.3105 31.7947 28.2978C32.1418 29.3488 32.032 29.9531 31.7047 31.0002C30.8377 31.8571 29.8668 32.3956 28.7401 32.8531C27.7442 32.7836 27.7442 32.7836 26.8872 32.1119C26.1931 31.1628 25.598 30.1787 25.0344 29.1474C24.8677 29.2864 24.701 29.4254 24.5292 29.5686C21.3979 32.0598 18.6104 33.3835 14.5889 33.4321C14.3117 33.4375 14.0344 33.443 13.7488 33.4486C11.1928 33.4018 9.30395 32.5148 7.33964 30.9076C5.15447 28.2368 4.70071 25.8473 4.86 22.4235C5.16363 19.7715 6.18897 18.1245 8.21974 16.4322C12.2638 13.7337 16.6121 13.3891 21.2968 14.2073C22.4296 14.4652 23.5475 14.7446 24.6638 15.0657C24.5955 10.5009 24.5955 10.5009 22.533 6.58889C18.9128 4.77876 15.2731 5.1153 11.5317 6.35728C11.2819 6.44545 11.0321 6.53361 10.7747 6.62444C9.42612 7.09758 8.30955 7.39416 6.87642 7.28371C6.82611 6.69786 6.79032 6.11075 6.76062 5.5235C6.72838 5.03339 6.72838 5.03339 6.69548 4.53338C6.87642 3.578 6.87642 3.578 7.66389 2.76593C10.6029 0.917069 14.1224 0.410325 17.5231 0.171936Z" fill="#808080"/>
<path d="M99.8904 2.46668C100.632 3.20782 100.632 3.20782 100.704 4.00976C100.695 4.3107 100.687 4.61164 100.678 4.92171C100.671 5.22456 100.664 5.52742 100.658 5.83945C100.649 6.07161 100.64 6.30376 100.632 6.54295C99.2169 7.07976 98.3792 6.71255 96.9953 6.19554C93.9758 5.21403 90.545 4.68205 87.5443 5.95091C86.5361 6.49592 86.5361 6.49592 85.8087 7.28409C85.6481 8.13514 85.6481 8.13514 85.6466 9.09063C85.6317 9.41068 85.6169 9.73073 85.6017 10.0605C85.9006 11.4026 86.5226 11.7393 87.6615 12.4721C88.7673 13.0015 88.7673 13.0015 89.9544 13.4217C90.3781 13.5788 90.8019 13.736 91.2384 13.8979C92.2951 14.2616 93.348 14.5826 94.4244 14.8808C97.682 15.8289 99.9692 17.2763 101.782 20.1658C102.608 22.2324 102.422 24.9605 101.885 27.0908C100.691 29.7808 98.3886 31.5282 95.7214 32.6219C95.1391 32.8351 94.5525 33.037 93.9612 33.224C93.7377 33.2957 93.5141 33.3673 93.2838 33.4412C88.9021 34.2765 83.3928 33.7604 79.6421 31.2496C78.7583 30.1626 78.9246 29.0105 79.0342 27.6698C79.0686 27.4238 79.103 27.1778 79.1384 26.9243C80.535 26.472 81.1862 26.7482 82.5155 27.3557C84.709 28.3275 86.7937 28.4869 89.167 28.5224C89.4163 28.529 89.6656 28.5355 89.9225 28.5422C92.2005 28.5392 93.9339 28.0239 95.6056 26.438C96.3023 25.2397 96.359 24.5846 96.1847 23.2186C95.5738 21.6616 94.8215 21.2876 93.3562 20.6098C91.4743 19.8466 89.525 19.2803 87.579 18.7052C84.5749 17.7607 82.0037 16.2816 80.2501 13.5838C79.2376 11.5081 79.1759 9.1695 79.509 6.91352C80.4045 4.8918 81.744 3.32362 83.5853 2.09611C83.8757 1.89739 84.1661 1.69867 84.4654 1.49393C89.0763 -0.921302 95.5246 -0.272625 99.8904 2.46668Z" fill="#808080"/>
<path d="M105.819 41.0061C106.811 41.9977 106.682 42.5154 106.699 43.9012C106.604 48.9779 104.455 54.6809 100.909 58.3766C99.6976 59.5346 99.6976 59.5346 98.4076 59.5346C98.6624 56.9115 99.5543 54.583 100.468 52.1239C101.274 49.8356 101.534 47.875 101.372 45.453C97.3175 43.136 91.4294 44.4255 86.9199 44.7118C86.959 44.0546 86.959 44.0546 87.2905 43.2295C92.6039 39.6367 99.8031 38.6173 105.819 41.0061Z" fill="#808080"/>
<path d="M18.5732 18.285C18.9141 18.2886 19.2549 18.2922 19.606 18.2959C21.3269 18.3244 22.9727 18.4252 24.6645 18.7714C24.7843 21.2262 24.8811 23.2832 23.5528 25.4417C21.3355 27.8352 19.4213 28.772 16.1645 28.9621C14.1817 28.935 13.1734 28.53 11.7712 27.1483C10.6573 25.6667 10.7934 23.8688 10.9534 22.1066C11.5125 20.3633 12.2591 19.5814 13.8619 18.704C15.3938 18.1214 16.9567 18.2339 18.5732 18.285Z" fill="white"/>
</svg>
