<svg width="226" height="65" viewBox="0 0 226 65" fill="none" xmlns="http://www.w3.org/2000/svg">
<path d="M48.6432 5.0332C49.0123 5.0332 49.3814 5.0332 49.7617 5.0332C49.9689 5.39458 50.1761 5.75596 50.3897 6.12829C54.4094 13.1315 58.4564 20.1148 62.5887 27.0524C66.04 32.8505 69.4139 38.6877 72.7484 44.5535C75.6396 49.6359 78.5767 54.6892 81.5456 59.7266C81.8526 60.2495 82.1596 60.7723 82.4759 61.311C82.7469 61.7707 83.018 62.2304 83.2972 62.704C83.8739 63.751 83.8739 63.751 83.8739 64.3102C63.3898 64.3102 42.9056 64.3102 21.8008 64.3102C23.9095 62.9044 25.9344 62.685 28.3869 62.3049C29.1255 62.1849 29.1255 62.1849 29.8791 62.0625C31.4614 61.8059 33.0445 61.5548 34.6278 61.3045C36.6838 60.9766 38.7394 60.646 40.7945 60.3127C41.5546 60.1896 41.5546 60.1896 42.33 60.064C47.6306 59.1914 52.8908 58.1327 58.1499 57.0404C55.3205 53.5361 52.442 50.0892 49.482 46.6949C46.5229 43.3002 43.6355 39.8601 40.8142 36.3494C40.3651 35.9587 39.916 35.568 39.4533 35.1654C38.434 33.2895 38.5218 32.9813 39.0273 30.9866C39.4157 29.7848 39.8287 28.5908 40.255 27.4019C40.393 27.0103 40.5311 26.6187 40.6733 26.2153C41.8267 22.951 43.0298 19.706 44.2394 16.4622C44.6044 15.476 44.9692 14.4897 45.3338 13.5034C45.6809 12.5665 46.0282 11.6298 46.3758 10.6931C46.5389 10.2533 46.702 9.81359 46.87 9.36051C48.0177 6.2842 48.0177 6.2842 48.6432 5.0332Z" fill="#808080"/>
<path d="M45.2882 0C45.565 0.553625 45.565 0.553625 45.8474 1.11843C45.2271 2.62578 44.5681 4.06888 43.853 5.53101C43.53 6.20495 43.53 6.20495 43.2004 6.89251C42.4906 8.37164 41.7747 9.84781 41.0591 11.3242C40.3186 12.8645 39.5796 14.4057 38.8407 15.9469C38.3435 16.9834 37.8458 18.0197 37.3476 19.0557C35.2442 23.4308 33.179 27.8227 31.133 32.2249C30.8272 32.8819 30.5214 33.5389 30.2064 34.2157C29.5911 35.538 28.976 36.8604 28.3612 38.183C26.575 42.0242 24.7813 45.8619 22.9894 49.7004C21.2939 53.3336 21.2939 53.3336 19.5642 57.0402C13.2898 57.0402 7.01533 57.0402 0.550781 57.0402C1.34945 54.6442 1.95609 53.0188 3.19614 50.9325C3.50283 50.4121 3.80951 49.8918 4.12549 49.3557C4.45677 48.8005 4.78805 48.2453 5.12937 47.6733C5.83757 46.4743 6.54531 45.275 7.25265 44.0755C7.80466 43.1414 7.80466 43.1414 8.36781 42.1884C9.50433 40.2533 10.6274 38.3112 11.7439 36.3644C12.1107 35.7252 12.4774 35.086 12.8553 34.4274C13.5566 33.2035 14.257 31.9791 14.9565 30.7542C21.459 19.4295 21.459 19.4295 24.667 17.0561C25.1933 16.6524 25.7195 16.2488 26.2617 15.8328C26.8196 15.4061 27.3776 14.9793 27.9524 14.5397C29.1763 13.5287 30.3818 12.4966 31.5873 11.464C34.3638 9.10216 37.1727 6.78377 39.9996 4.48248C41.7873 3.01598 43.5409 1.51429 45.2882 0Z" fill="#808080"/>
<path d="M106.243 19.5723C107.719 19.5723 109.196 19.5723 110.717 19.5723C112.372 22.7608 113.754 25.9628 115.011 29.3258C115.199 29.8209 115.386 30.316 115.58 30.8261C116.174 32.3982 116.766 33.9715 117.358 35.5449C118.136 37.6082 118.915 39.6709 119.695 41.7334C119.882 42.231 120.07 42.7287 120.263 43.2413C121.673 46.9692 123.153 50.6636 124.682 54.3441C125.257 55.9214 125.257 55.9214 125.257 57.599C123.78 57.599 122.304 57.599 120.783 57.599C120.337 56.5634 119.895 55.5262 119.455 54.4884C119.208 53.911 118.962 53.3336 118.708 52.7387C117.975 50.8592 117.422 48.9133 116.868 46.9739C111.332 46.9739 105.796 46.9739 100.092 46.9739C99.7227 48.6348 99.3536 50.2957 98.9733 52.0069C98.3748 53.5993 98.3748 53.5993 97.785 54.8379C97.4887 55.4705 97.4887 55.4705 97.1864 56.1158C97.0379 56.4207 96.8894 56.7257 96.7364 57.0398C95.2601 57.0398 93.7838 57.0398 92.2627 57.0398C93.7014 51.7136 95.7158 46.5996 97.6801 41.4516C98.0323 40.5246 98.3845 39.5975 98.7366 38.6704C101.169 32.2764 103.652 25.9042 106.243 19.5723Z" fill="#808080"/>
<path d="M219.31 30.2325C221.775 31.2708 223.369 33.0013 224.797 35.2305C225.916 38.0266 225.916 38.0266 225.916 44.7372C219.641 44.7372 213.367 44.7372 206.902 44.7372C207.719 49.3793 207.719 49.3793 210.257 52.5662C213.011 54.2789 216.075 54.0207 219.205 53.6847C220.991 53.1085 222.606 52.371 224.238 51.4478C224.238 52.7396 224.238 54.0314 224.238 55.3623C223.54 55.7263 222.841 56.0868 222.141 56.4458C221.752 56.6469 221.362 56.8481 220.961 57.0553C217.513 58.622 213.685 58.7026 210.118 57.4594C206.26 55.7984 204.573 53.5559 202.988 49.7702C201.548 45.4517 201.928 40.7421 203.791 36.6285C207.072 30.7651 212.885 28.2145 219.31 30.2325Z" fill="#808080"/>
<path d="M154.336 30.1973C155.812 30.1973 157.288 30.1973 158.809 30.1973C158.817 31.0603 158.817 31.0603 158.825 31.9407C158.848 34.0858 158.884 36.2305 158.925 38.3753C158.941 39.3016 158.953 40.228 158.961 41.1544C158.973 42.4902 158.999 43.8252 159.028 45.1607C159.029 45.5715 159.029 45.9823 159.03 46.4056C159.11 49.2632 159.801 50.9224 161.606 53.1252C163.555 54.1002 165.63 54.0092 167.757 53.6844C169.757 52.6142 170.943 51.3956 171.671 49.2107C171.757 47.8067 171.815 46.4152 171.848 45.01C171.86 44.6027 171.872 44.1955 171.884 43.7759C171.92 42.4769 171.953 41.1778 171.986 39.8787C172.01 38.9973 172.035 38.1159 172.059 37.2344C172.119 35.0752 172.176 32.9159 172.231 30.7565C173.707 30.7565 175.183 30.7565 176.704 30.7565C176.704 39.4299 176.704 48.1034 176.704 57.0397C175.413 57.0397 174.121 57.0397 172.79 57.0397C172.513 55.3788 172.513 55.3788 172.231 53.6844C171.931 54.1111 171.631 54.5379 171.322 54.9776C169.264 57.3065 167.56 58.069 164.471 58.3678C161.317 58.2288 158.671 57.4087 156.363 55.2222C154.442 51.9715 154.175 48.7765 154.226 45.1061C154.228 44.6772 154.23 44.2483 154.231 43.8064C154.237 42.4505 154.251 41.0948 154.266 39.7389C154.271 38.8138 154.276 37.8887 154.281 36.9636C154.293 34.7081 154.313 32.4527 154.336 30.1973Z" fill="#808080"/>
<path d="M128.611 30.7568C135.439 30.7568 142.267 30.7568 149.302 30.7568C148.786 32.8228 148.439 33.5814 147.212 35.2022C146.736 35.8382 146.736 35.8382 146.25 36.487C145.908 36.9374 145.566 37.3879 145.213 37.8519C144.502 38.8008 143.792 39.7503 143.083 40.7004C142.723 41.1827 142.362 41.6649 141.991 42.1618C139.326 45.7667 136.776 49.4546 134.203 53.1255C141.677 53.4023 141.677 53.4023 149.302 53.6847C149.302 54.9765 149.302 56.2683 149.302 57.5993C141.921 57.5993 134.539 57.5993 126.934 57.5993C127.515 54.6934 128.061 53.8536 129.869 51.6226C130.376 50.9859 130.882 50.348 131.385 49.7091C131.658 49.3641 131.93 49.0192 132.211 48.6638C133.834 46.5648 135.38 44.4093 136.93 42.2557C137.235 41.8325 137.541 41.4092 137.856 40.9731C139.484 38.7118 141.045 36.4329 142.592 34.1121C137.978 34.1121 133.365 34.1121 128.611 34.1121C128.611 33.0049 128.611 31.8976 128.611 30.7568Z" fill="#808080"/>
<path d="M185.651 30.1974C187.128 30.1974 188.604 30.1974 190.125 30.1974C190.31 31.4892 190.494 32.781 190.684 34.112C191.123 33.5699 191.561 33.0278 192.012 32.4693C192.872 31.4056 193.364 30.8146 194.599 30.1974C195.46 30.1586 196.323 30.1502 197.185 30.1625C197.871 30.1701 197.871 30.1701 198.57 30.1778C199.096 30.1875 199.096 30.1875 199.632 30.1974C199.632 31.6738 199.632 33.1501 199.632 34.6712C199.261 34.6322 198.889 34.5933 198.507 34.5532C195.633 34.2991 195.633 34.2991 193.065 35.3593C190.835 38.0315 190.589 40.4531 190.507 43.7825C190.496 44.1773 190.484 44.5721 190.472 44.9789C190.436 46.238 190.403 47.4972 190.37 48.7565C190.346 49.611 190.321 50.4654 190.297 51.3199C190.237 53.4129 190.18 55.506 190.125 57.5991C188.649 57.5991 187.172 57.5991 185.651 57.5991C185.651 48.5565 185.651 39.514 185.651 30.1974Z" fill="#808080"/>
<path d="M108.48 24.6055C109.965 27.417 110.972 30.4232 112.072 33.4006C112.464 34.4629 112.861 35.5239 113.257 36.585C113.504 37.2525 113.751 37.92 114.006 38.6077C114.347 39.5264 114.347 39.5264 114.695 40.4637C115.19 41.9412 115.19 41.9412 115.19 43.0596C110.946 43.0596 106.701 43.0596 102.328 43.0596C102.721 40.7045 103.079 38.9551 103.881 36.7837C104.076 36.2521 104.271 35.7205 104.472 35.1727C104.676 34.6267 104.879 34.0806 105.089 33.518C105.291 32.9698 105.492 32.4216 105.7 31.8567C106.596 29.4264 107.51 27.0076 108.48 24.6055Z" fill="white"/>
<path d="M218.856 34.5318C220.939 36.3179 220.939 36.3179 221.442 38.027C221.442 39.1342 221.442 40.2415 221.442 41.3823C216.644 41.3823 211.846 41.3823 206.902 41.3823C207.503 37.7788 208.374 36.101 211.271 33.9027C214.167 33.0753 216.232 33.1712 218.856 34.5318Z" fill="white"/>
</svg>
