<?xml version="1.0" encoding="UTF-8"?><svg xmlns="http://www.w3.org/2000/svg" xmlns:xlink="http://www.w3.org/1999/xlink" viewBox="0 0 1584.77 1050.15"><defs><style>.cls-1{fill:none;}.cls-1,.cls-2,.cls-3,.cls-4,.cls-5{stroke-width:0px;}.cls-6{mask:url(#mask);}.cls-2{fill:url(#linear-gradient);}.cls-7{fill:#fff;}.cls-7,.cls-8{stroke:#e56f18;stroke-miterlimit:10;stroke-width:2px;}.cls-8{fill:#f1f0ee;}.cls-4{fill:#f4934b;}.cls-5{fill:#e56f18;}</style><linearGradient id="linear-gradient" x1="810.11" y1="979.25" x2="810.11" y2="-335.37" gradientTransform="translate(1620.23 1517.66) rotate(-180)" gradientUnits="userSpaceOnUse"><stop offset="0" stop-color="#000"/><stop offset=".14" stop-color="#fff"/></linearGradient><mask id="mask" x="-21.82" y="11.99" width="1663.87" height="1493.67" maskUnits="userSpaceOnUse"><rect class="cls-2" x="-21.82" y="11.99" width="1663.87" height="1493.67" transform="translate(1620.23 1517.66) rotate(180)"/></mask></defs><g class="cls-6"><g id="Layer_1"><path class="cls-7" d="M1510.44,760.86c0,398.91-323.38,722.3-722.3,722.3S65.84,1159.78,65.84,760.86c0-89.19,16.17-174.6,45.73-253.47C214.22,233.51,478.42,38.57,788.14,38.57c398.91,0,722.3,323.38,722.3,722.3Z"/><path class="cls-8" d="M1385.35,760.86c0,329.83-267.38,597.21-597.21,597.21S190.94,1090.69,190.94,760.86c0-73.74,13.37-144.37,37.81-209.58,84.88-226.45,303.31-387.63,559.4-387.63,329.83,0,597.21,267.38,597.21,597.21Z"/><path class="cls-7" d="M1261.54,760.86c0,261.45-211.95,473.4-473.4,473.4s-473.4-211.95-473.4-473.4c0-58.46,10.6-114.44,29.97-166.13,67.28-179.5,240.43-307.27,443.43-307.27,261.45,0,473.4,211.95,473.4,473.4Z"/><path class="cls-8" d="M1149.71,760.86c0,199.69-161.88,361.57-361.57,361.57s-361.57-161.88-361.57-361.57c0-44.65,8.09-87.4,22.89-126.88,51.39-137.1,183.64-234.68,338.68-234.68,199.69,0,361.57,161.88,361.57,361.57Z"/><circle class="cls-5" cx="788.14" cy="760.86" r="237.19"/><circle class="cls-4" cx="788.14" cy="760.86" r="225"/><path class="cls-3" d="M503.38,734.87l.18-1.97,15.67,1.46-.18,1.97-15.67-1.46Z"/><path class="cls-3" d="M504.45,724.99l.29-2.2,16.35-3.74-.28,2.14-4.97,1.04-.8,6.22,4.54,2.3-.26,2.01-14.86-7.76ZM513.51,727.67l.66-5.11-5.47,1.11c-.91.19-2.29.41-2.29.41v.04s1.25.58,2.11,1.01l5,2.53Z"/><path class="cls-3" d="M505.84,714.63l.47-2.48,13.79-2.57v-.04s-11.88-7.42-11.88-7.42l.48-2.53,15.45,2.95-.35,1.86-12.7-2.42v.04s1.12.64,1.8,1.06l9.95,6.29-.28,1.49-11.57,2.18c-.84.15-2.08.32-2.08.32v.04s12.7,2.42,12.7,2.42l-.33,1.75-15.45-2.95Z"/><path class="cls-4" d="M519.4,692.03c-1.38-.37-2.23-1.8-1.86-3.2.37-1.38,1.81-2.21,3.2-1.84,1.38.37,2.21,1.79,1.84,3.18-.37,1.4-1.8,2.23-3.18,1.87Z"/><path class="cls-3" d="M522.47,678.24c-4.38-1.48-6.89-5.26-5.38-9.7,1.18-3.48,3.89-4.91,6.78-4.38l-.62,1.83c-1.98-.27-3.75.78-4.54,3.13-1.11,3.27.92,6,4.42,7.19,3.65,1.23,6.79.04,7.84-3.06.95-2.81-.52-4.8-2.64-5.72l.63-1.85c1.47.52,2.9,1.79,3.58,3.21.67,1.39.7,3.09.05,4.99-1.43,4.23-5.59,5.89-10.12,4.36Z"/><path class="cls-3" d="M520.44,660.21l.63-1.67,14.71,5.59-.63,1.67-14.71-5.59Z"/><path class="cls-3" d="M531.12,660.3c-3.05-1.26-4.72-4.24-3.42-7.37,1.31-3.15,4.58-4.03,7.63-2.77,3.05,1.26,4.74,4.2,3.43,7.35-1.3,3.13-4.59,4.05-7.63,2.79ZM534.63,651.84c-2.32-.96-4.64-.59-5.56,1.65-.93,2.24.44,4.16,2.76,5.12,2.32.96,4.63.56,5.55-1.68.93-2.24-.43-4.13-2.75-5.09Z"/><path class="cls-3" d="M544.3,644.31l-1.42-.66-.02.04c.65,1.2.9,2.39.21,3.88-.98,2.11-2.89,2.88-5.03,1.88l-7.14-3.33.75-1.62,7.1,3.31c1.34.62,2.51.13,3.19-1.33.76-1.64.02-3.27-1.62-4.03l-6.34-2.96.75-1.62,10.31,4.8-.75,1.62Z"/><path class="cls-3" d="M540.72,638.64c-3.36-1.75-4.3-4.69-3-7.19.74-1.42,2.01-2.15,3.3-2.3l.02-.04-5.29-2.75.82-1.58,13.95,7.26-.82,1.58-1.23-.64-.02.04c.58,1.27.64,2.49-.1,3.91-1.43,2.75-4.39,3.39-7.63,1.71ZM544.76,630.92c-2.34-1.22-4.57-.94-5.66,1.15-.99,1.91.22,3.78,2.48,4.96,2.28,1.19,4.47,1.08,5.47-.85,1.17-2.24-.01-4.07-2.3-5.26Z"/><path class="cls-3" d="M537.64,622.78l6.25-10.77,1.5.87-2.63,4.53,12.1,7.03-.99,1.71-12.1-7.03-2.63,4.53-1.5-.87Z"/><path class="cls-3" d="M550.41,613.47l.02-.04c-.57-1.16-.73-2.66.08-3.95.17-.28.31-.41.5-.55l1.46.91-.03.06c-.21.18-.33.31-.51.61-.93,1.49-.63,3.5,1.18,4.63l5.36,3.35-.94,1.51-9.65-6.03.94-1.51,1.6,1Z"/><path class="cls-3" d="M563.79,607.41v.02c.34,1.06.46,2.54-.62,4.15-1.2,1.79-2.99,2.63-4.78,1.43-2.23-1.5-1.51-3.56-.29-6.16.69-1.47,1.19-2.49.17-3.17-1.06-.71-2.18-.35-3.08,1-1.03,1.53-.89,2.74.5,3.75l-.96,1.42c-1.79-1.28-2.35-3.41-.67-5.91,1.35-2.01,3.09-2.99,5.34-1.48l4.49,3.02c.77.52,1.31.61,1.68-.33l.04-.05,1.08.72c-.05.23-.14.52-.39.9-.65.97-1.43,1.19-2.5.68ZM561.64,605.91l-1.61-1.08c-.02.7-.36,1.72-.75,2.62-.72,1.66-1.26,3.02.13,3.95,1.26.85,2.2.04,2.85-.92,1.33-1.97.48-3.84-.61-4.57Z"/><path class="cls-3" d="M554.67,595.78l1.03-1.45,1.79,1.28-1.03,1.45-1.79-1.28ZM558.21,598.31l1.03-1.45,9.26,6.6-1.03,1.45-9.26-6.6Z"/><path class="cls-3" d="M557.27,592.16l1.06-1.44,12.67,9.33-1.06,1.44-12.67-9.33Z"/><path class="cls-4" d="M570.81,588.53c-1.11-.9-1.3-2.55-.39-3.68.9-1.11,2.56-1.27,3.67-.37,1.11.9,1.28,2.54.39,3.65-.91,1.13-2.55,1.3-3.67.4Z"/><path class="cls-3" d="M579.23,577.21c-3.39-3.14-4.15-7.61-.96-11.05,2.49-2.7,5.55-2.9,7.97-1.23l-1.31,1.42c-1.69-1.05-3.74-.82-5.43,1.01-2.35,2.54-1.61,5.86,1.11,8.37,2.83,2.61,6.18,2.81,8.41.4,2.02-2.18,1.49-4.59-.08-6.3l1.33-1.44c1.13,1.08,1.92,2.82,1.96,4.39.04,1.54-.63,3.11-1.98,4.58-3.03,3.28-7.51,3.1-11.02-.14Z"/><path class="cls-3" d="M591.36,567.45c-2.31-2.36-2.67-5.76-.25-8.12,2.44-2.38,5.79-1.91,8.1.45s2.7,5.73.27,8.11c-2.42,2.37-5.81,1.93-8.12-.43ZM597.9,561.06c-1.75-1.79-4.03-2.36-5.76-.67s-1.23,4,.53,5.79,4.03,2.33,5.76.64,1.23-3.97-.53-5.76Z"/><path class="cls-3" d="M599.09,554.21l.03-.03c-.11-1.35.28-2.62,1.51-3.72,1.77-1.59,3.72-1.59,5.29.16l5.33,5.94-1.33,1.19-5.23-5.83c-.98-1.1-2.26-1.07-3.46,0-1.34,1.21-1.47,3.04-.22,4.43l4.67,5.21-1.33,1.19-7.6-8.46,1.33-1.19,1,1.11Z"/><path class="cls-3" d="M605.04,546.91l1.2-1-1.16-1.41c-1.25-1.51-.83-2.77.63-3.97.29-.24.52-.4.72-.54l.97,1.17c-.25.18-.32.24-.46.35-.88.73-1.02,1.22-.43,1.93l1.11,1.34,1.63-1.35.93,1.12-1.63,1.35,6.32,7.65-1.37,1.14-6.32-7.65-1.2,1-.93-1.12ZM607.64,539.1l1.37-1.14,1.4,1.7-1.37,1.14-1.4-1.7ZM610.42,542.46l1.37-1.14,7.25,8.76-1.37,1.14-7.25-8.76Z"/><path class="cls-3" d="M620.97,549.34l1.31-1c.9.89,2.14.56,3.54-.51,1.66-1.27,2.02-2.72.82-4.3l-.97-1.28-.04.03c-.01,1.36-.32,2.45-1.61,3.44-2.35,1.79-5.38,1.14-7.37-1.47-2.14-2.82-1.63-5.81.47-7.41,1.31-1,2.54-1.13,3.8-.74l.04-.03-.88-1.16,1.42-1.08,6.51,8.56c1.81,2.38,1.09,4.7-1.31,6.52-2.35,1.78-4.4,1.85-5.74.41ZM623.37,539.02c-1.5-1.98-3.28-2.56-5.2-1.1-1.7,1.29-1.54,3.27-.05,5.24,1.51,1.98,3.38,2.59,5.06,1.31,2.08-1.58,1.64-3.54.19-5.45Z"/><path class="cls-4" d="M631.54,531.92c-.8-1.19-.49-2.82.71-3.63,1.19-.8,2.82-.46,3.61.73.8,1.19.48,2.81-.71,3.6-1.21.81-2.82.49-3.62-.7Z"/><path class="cls-3" d="M638.4,517.16l1.84-1.08,9.25,8.15c.58.5,1.6,1.51,1.6,1.51l.04-.02s-.39-1.4-.53-2.13l-2.6-12.04,1.79-1.04,3.16,16.37-1.88,1.1-12.66-10.82Z"/><path class="cls-3" d="M651.78,509.45l5.82-3.02c1.46-.76,2.85-.86,4.02-.38.94.38,1.77,1.11,2.32,2.17,1.33,2.56.67,4.86-2.38,6.44l-3.81,1.98,3.04,5.85-1.76.91-7.26-13.95ZM657.01,515.21l3.67-1.91c1.97-1.02,2.39-2.51,1.56-4.11-.87-1.68-2.36-2.02-4.14-1.1l-3.77,1.96,2.68,5.15Z"/><path class="cls-3" d="M667.06,510.38c-1.91-4.21-.87-8.62,3.4-10.56,3.35-1.52,6.24-.51,7.82,1.96l-1.76.8c-1.15-1.63-3.13-2.21-5.39-1.18-3.15,1.43-3.75,4.77-2.23,8.14,1.59,3.51,4.61,4.99,7.59,3.63,2.7-1.23,3.15-3.65,2.38-5.84l1.78-.81c.63,1.43.67,3.34.1,4.81-.56,1.44-1.78,2.62-3.61,3.45-4.07,1.85-8.12-.06-10.09-4.41Z"/><path class="cls-4" d="M688.18,502.07c-.5-1.34.17-2.86,1.53-3.37,1.34-.5,2.85.2,3.35,1.54.5,1.34-.18,2.84-1.52,3.34-1.36.51-2.86-.17-3.36-1.51Z"/><path class="cls-3" d="M700.88,496.75c-1.35-4.46.4-8.72,4.84-10.06,3.71-1.12,6.56.43,7.75,3.2l-3.03.92c-.73-1.43-2.17-2.08-3.94-1.54-2.78.84-3.41,3.56-2.5,6.55.93,3.07,3.2,4.8,5.72,4.04,1.79-.54,2.73-2,2.44-3.63l2.99-.9c.32,1.35.14,2.81-.59,4.06-.74,1.28-2,2.35-4.09,2.98-4.23,1.28-8.23-1.07-9.6-5.6Z"/><path class="cls-3" d="M718.27,490l.06-.02c.34-1.41.92-2.24,2.2-2.56.32-.08.52-.11.7-.09l.65,2.53-.06.02c-1.95.3-3.05,1.65-2.46,3.95l1.37,5.33-2.9.74-2.81-10.93,2.79-.72.45,1.75Z"/><path class="cls-3" d="M723.13,492.69c-.72-3.29,1.07-6.33,4.48-7.08,3.42-.75,6.31,1.28,7.03,4.56s-1.07,6.33-4.48,7.08c-3.42.75-6.31-1.28-7.03-4.56ZM731.68,490.82c-.47-2.15-1.8-3.39-3.58-3-1.8.39-2.47,2.07-2,4.22s1.77,3.37,3.58,2.98c1.78-.39,2.48-2.05,2.01-4.2Z"/><path class="cls-3" d="M733.97,484.48l2.93-.48,2.2,4.95c.39.87.84,2,.84,2h.04s.04-1.24.13-2.19l.54-5.38,2.52-.42,2.3,4.91c.39.89.87,2.02.87,2.02h.04s.07-1.22.15-2.17l.56-5.4,2.87-.47-1.48,11.69-2.69.44-2.38-5.23c-.39-.85-.82-1.85-.82-1.85h-.04s-.11,1.1-.2,2.03l-.62,5.72-2.67.44-5.1-10.6Z"/><path class="cls-3" d="M751.3,487.42c-.39-3.5,1.32-6.15,4.12-6.46,1.57-.18,2.64.43,3.36,1.31h.07s-.65-5.78-.65-5.78l2.97-.33,1.76,15.63-2.86.32-.16-1.47h-.04c-.54,1.15-1.57,2-3.14,2.17-2.82.32-5-1.76-5.41-5.39ZM759.4,486.58c-.24-2.14-1.1-3.51-3-3.29-1.64.18-2.31,1.72-2.08,3.8.24,2.16,1.24,3.34,2.77,3.17,1.77-.2,2.54-1.61,2.31-3.67Z"/><path class="cls-3" d="M763.73,488.05l2.76-.19c.29,1.28,1.25,1.79,2.59,1.69,1.32-.09,2.03-.65,1.97-1.44-.07-1.08-1.51-1.09-3.07-1.29-2.05-.25-4.06-.67-4.23-3.12-.17-2.44,1.77-3.74,4.34-3.92,2.96-.21,4.71,1.15,5.09,3.39l-2.7.19c-.22-1.2-1.01-1.58-2.29-1.49-1.16.08-1.9.57-1.84,1.38.07.97,1.57.95,3.19,1.17,1.91.26,4.04.65,4.22,3.28.16,2.26-1.68,3.75-4.49,3.95-3.27.23-5.2-1.23-5.54-3.61Z"/><path class="cls-3" d="M773.9,479.72l1.56-.06-.13-3.52,2.92-.11.13,3.52,1.94-.07.08,1.98-1.94.07.23,5.98c.03.84.5,1.1,1.16,1.08.37-.01.88-.06.88-.06l.08,2.2s-.68.07-1.87.12c-1.45.06-3.08-.46-3.16-2.59l-.25-6.62-1.56.06-.08-1.98Z"/><path class="cls-3" d="M784.92,481.21h.07c.66-1.29,1.42-1.96,2.74-1.98.33,0,.53.01.71.08l.04,2.62h-.07c-1.96-.17-3.35.89-3.31,3.27l.09,5.5-2.99.05-.18-11.29,2.88-.05.03,1.8Z"/><path class="cls-3" d="M789.99,479.38l2.99.05-.18,11.29-2.99-.05.18-11.29ZM790.06,474.94l2.99.05-.04,2.68-2.99-.05.04-2.68Z"/><path class="cls-3" d="M799.11,485.74l-1.35,1.29-.16,3.8-2.97-.12.65-15.72,2.97.12-.36,8.71,4.18-4.1,3.58.15-4.33,4.11,4.37,7.19-3.63-.15-2.95-5.28Z"/><path class="cls-3" d="M805.64,485.51c.28-3.33,2.75-5.73,6.04-5.46,3.62.3,5.32,3.22,4.99,7.23l-8.16-.68c.08,1.75.95,2.9,2.64,3.04,1.16.1,1.89-.37,2.29-1.2l2.94.24c-.58,1.96-2.5,3.5-5.39,3.26-3.73-.31-5.62-3.09-5.34-6.45ZM808.73,484.55l5,.41c.03-1.43-.83-2.5-2.19-2.61-1.58-.13-2.42.75-2.81,2.2Z"/><path class="cls-3" d="M827.87,477.68l3.27.47,3.23,16.36-3.29-.48-.56-3.46-5.62-.81-1.5,3.16-3.2-.46,7.68-14.78ZM825.98,487.45l4.12.6-.74-4.69c-.14-.87-.28-2.49-.28-2.49h-.04s-.62,1.5-1,2.29l-2.04,4.28Z"/><path class="cls-3" d="M834.45,494.91l2.92.57c.1.74.62,1.4,1.98,1.66,1.66.32,2.62-.32,2.91-1.83l.24-1.21h-.07c-.79.6-1.74.99-3.14.72-2.46-.48-4.5-2.89-3.85-6.24.64-3.3,3.04-5.03,5.85-4.49,1.38.27,2.29,1.01,2.78,2.06h.04s.23-1.16.23-1.16l2.83.55-1.99,10.23c-.3,1.55-1,2.52-1.97,3.11-1.1.68-2.6.79-4.24.48-3.02-.59-4.63-2.24-4.51-4.46ZM843.43,490.06c.32-1.62-.28-3.17-2.05-3.51-1.49-.29-2.71.68-3.07,2.54-.37,1.88.41,3.17,1.93,3.47,1.86.36,2.88-.85,3.2-2.49Z"/><path class="cls-3" d="M847.52,491.37c.78-3.25,3.59-5.25,6.8-4.48,3.53.85,4.76,4,3.82,7.91l-7.96-1.91c-.19,1.74.5,3.02,2.14,3.41,1.13.27,1.92-.08,2.44-.84l2.87.69c-.87,1.85-3,3.08-5.83,2.4-3.64-.87-5.08-3.91-4.29-7.19ZM850.71,490.89l4.88,1.17c.25-1.41-.44-2.59-1.77-2.91-1.54-.37-2.51.37-3.11,1.74Z"/><path class="cls-3" d="M863.69,491.24l.06.02c1.07-.95,2.24-1.28,3.72-.85,2.24.65,3.25,2.77,2.57,5.14l-2.04,7.08-2.87-.83,1.92-6.66c.33-1.16-.1-2.18-1.31-2.53-1.27-.37-2.49.38-2.92,1.86l-1.77,6.15-2.87-.83,3.12-10.84,2.81.81-.43,1.48Z"/><path class="cls-3" d="M872.32,492.17l1.49.48,1.09-3.35,2.78.91-1.09,3.35,1.84.6-.61,1.88-1.84-.6-1.85,5.69c-.26.79.09,1.21.72,1.41.36.12.84.25.84.25l-.68,2.09s-.66-.17-1.79-.54c-1.38-.45-2.73-1.49-2.07-3.52l2.05-6.3-1.49-.48.61-1.88Z"/><path class="cls-3" d="M876.94,501.69l2.6.95c-.26,1.29.42,2.14,1.68,2.6,1.24.45,2.12.23,2.39-.51.37-1.01-.94-1.61-2.28-2.42-1.77-1.06-3.44-2.26-2.6-4.57.83-2.29,3.14-2.7,5.55-1.82,2.79,1.02,3.84,2.96,3.27,5.17l-2.54-.93c.29-1.18-.28-1.86-1.48-2.3-1.1-.4-1.97-.25-2.25.52-.33.91,1.04,1.5,2.44,2.36,1.64,1.02,3.43,2.23,2.52,4.71-.78,2.13-3.06,2.75-5.71,1.79-3.08-1.12-4.25-3.23-3.6-5.55Z"/><path class="cls-4" d="M898.53,506.35c.58-1.31,2.13-1.92,3.46-1.33,1.31.58,1.89,2.14,1.31,3.45-.58,1.31-2.12,1.9-3.43,1.31-1.33-.59-1.92-2.13-1.33-3.44Z"/><path class="cls-3" d="M914.68,504.33l1.89.99-1.99,12.16c-.12.75-.43,2.16-.43,2.16l.04.02s.98-1.07,1.52-1.58l8.81-8.59,1.83.96-12.18,11.37-1.93-1.01,2.44-16.47Z"/><path class="cls-3" d="M928.35,511.58l5.65,3.32c1.42.84,2.24,1.96,2.46,3.2.18,1,0,2.09-.6,3.11-1.46,2.48-3.76,3.15-6.72,1.41l-3.7-2.17-3.34,5.69-1.71-1,7.96-13.56ZM926.25,519.07l3.57,2.09c1.92,1.12,3.39.69,4.31-.86.96-1.63.45-3.07-1.27-4.09l-3.66-2.15-2.94,5.01Z"/><path class="cls-3" d="M940.28,518.67l1.74,1.15-.04,13.07c0,.97-.16,2.32-.16,2.32l.04.02,7.14-10.81,1.54,1.02-8.66,13.12-1.69-1.11v-13.12c.01-.92.12-2.28.12-2.28l-.04-.02-7.11,10.78-1.54-1.02,8.66-13.12Z"/><path class="cls-4" d="M953.46,538.15c.86-1.14,2.51-1.38,3.67-.5,1.14.86,1.35,2.52.49,3.65-.86,1.14-2.5,1.36-3.64.5-1.16-.88-1.38-2.51-.52-3.65Z"/><path class="cls-3" d="M969.89,539.92l1.55,1.37-4.91,9.31c-.5.97-1.32,2.39-1.32,2.39l.03.03s1.39-1.01,2.29-1.59l8.87-5.76,1.6,1.41-4.68,9.46c-.48.98-1.31,2.45-1.31,2.45l.03.03s1.4-1.02,2.22-1.59l8.73-5.94,1.5,1.32-13.69,8.9-1.42-1.25,5.18-10.22c.43-.85,1.16-2.18,1.16-2.18l-.03-.03s-1.22.89-2.03,1.4l-9.65,6.28-1.48-1.31,7.36-14.49Z"/><path class="cls-3" d="M988.57,556.96l1.58,1.56-6.95,15.26-1.53-1.52,2.19-4.58-4.45-4.41-4.58,2.21-1.44-1.42,15.18-7.1ZM980.94,562.53l3.66,3.62,2.44-5.02c.4-.84,1.06-2.07,1.06-2.07l-.03-.03s-1.23.64-2.08,1.07l-5.04,2.43Z"/><path class="cls-3" d="M995.82,564.28l7.2,7.87-1.28,1.17-5.87-6.41-3.62,3.31,4.88,5.34-1.23,1.13-4.88-5.34-5.47,5-1.34-1.46,11.61-10.62Z"/><path class="cls-4" d="M1002.19,584.48c1.11-.9,2.77-.74,3.68.39.9,1.11.71,2.77-.4,3.67-1.11.9-2.75.73-3.65-.39-.91-1.13-.74-2.77.37-3.67Z"/><path class="cls-3" d="M1020.85,594.71l1.29,1.81-9.47,13.84-1.25-1.76,2.94-4.14-3.63-5.11-4.89,1.39-1.17-1.65,16.18-4.38ZM1012.38,598.89l2.98,4.2,3.26-4.53c.54-.76,1.41-1.86,1.41-1.86l-.03-.04s-1.32.42-2.23.69l-5.39,1.53Z"/><path class="cls-3" d="M1025.56,601.22l1.1,1.75-7.35,7.53c-.76.78-1.94,1.91-1.94,1.91l.02.04s1.62-.57,2.64-.87l10.14-2.99,1.13,1.81-7.18,7.73c-.74.8-1.96,1.97-1.96,1.97l.02.04s1.63-.58,2.58-.89l10.06-3.2,1.06,1.7-15.65,4.62-1-1.6,7.87-8.32c.66-.69,1.73-1.76,1.73-1.76l-.02-.04s-1.42.5-2.35.77l-11.03,3.27-1.05-1.68,11.17-11.78Z"/><path class="cls-3" d="M1027.34,623.91l.92,1.7c-2.21,1.5-2.65,3.59-1.24,6.2,1.04,1.91,2.66,2.81,4.38,1.88,1.89-1.03,1.44-2.93.63-5.7-.78-2.73-1.22-5.2,1.39-6.61,2.28-1.24,4.68-.09,6.21,2.71,1.88,3.46.9,5.85-1.47,7.58l-.89-1.64c1.83-1.32,2.13-3.13,1.03-5.16-1.02-1.88-2.48-2.68-3.91-1.91-1.57.85-1.19,2.65-.47,4.94.92,2.98,1.59,5.79-1.52,7.48-2.59,1.41-5.18.09-6.8-2.89-2.11-3.89-.95-6.92,1.75-8.58Z"/><path class="cls-3" d="M1037.88,652.15l-.02-.04c-1.94-.37-3.36-1.58-4.23-3.46-1.84-4.02-.02-8.12,4.32-10.11,4.2-1.93,8.59-1.06,10.66,3.44,1.52,3.32.66,6.19-1.93,7.93l-.85-1.86c1.72-1.27,2.24-3.13,1.21-5.39-1.58-3.44-4.87-3.82-8.23-2.28-3.5,1.6-4.91,4.72-3.58,7.62,1.35,2.94,3.98,3.4,6.38,2.3l.34-.16-1.97-4.3,1.56-.72,2.8,6.1-7.56,3.47-.53-1.16,1.64-1.38Z"/><path class="cls-3" d="M1040.28,663.54l1.45-.58-.02-.04c-1.32-.35-2.36-.98-2.97-2.51-.86-2.17-.11-4.08,2.08-4.95l7.32-2.91.66,1.66-7.28,2.9c-1.37.54-1.82,1.74-1.22,3.23.67,1.68,2.37,2.26,4.04,1.59l6.5-2.59.66,1.66-10.57,4.2-.66-1.66Z"/><path class="cls-3" d="M1045.54,673.37v-.02c-1.06-.35-2.32-1.15-2.96-2.98-.71-2.04-.32-3.97,1.72-4.68,2.53-.89,3.75.92,5.11,3.46.76,1.44,1.28,2.44,2.44,2.04,1.2-.42,1.58-1.53,1.04-3.07-.61-1.74-1.66-2.35-3.31-1.85l-.57-1.62c2.1-.67,4.14.16,5.13,3,.8,2.28.54,4.27-2.02,5.16l-5.11,1.79c-.87.31-1.28.68-.74,1.54l.02.06-1.22.43c-.16-.18-.33-.42-.49-.86-.39-1.1-.09-1.86.95-2.41ZM1048.02,672.55l1.83-.64c-.55-.44-1.16-1.32-1.65-2.17-.9-1.57-1.67-2.82-3.24-2.27-1.43.5-1.35,1.73-.97,2.83.79,2.24,2.78,2.69,4.03,2.25Z"/><path class="cls-3" d="M1054.92,676.67v.04c1.27.32,2.5,1.18,2.96,2.63.1.31.11.5.09.73l-1.64.51-.02-.06c0-.28-.03-.45-.13-.79-.53-1.68-2.24-2.76-4.28-2.12l-6.03,1.88-.53-1.7,10.85-3.39.53,1.7-1.81.56Z"/><path class="cls-3" d="M1052.7,682.34c3.65-1,6.35.51,7.09,3.23.43,1.55-.01,2.95-.86,3.93v.04s5.76-1.58,5.76-1.58l.47,1.72-15.17,4.17-.47-1.72,1.34-.37v-.04c-1.3-.54-2.17-1.39-2.6-2.94-.82-2.99.91-5.48,4.43-6.44ZM1054.99,690.75c2.54-.7,3.99-2.42,3.37-4.69-.57-2.08-2.73-2.63-5.19-1.95-2.48.68-4.01,2.24-3.44,4.34.67,2.44,2.78,2.98,5.26,2.3Z"/><path class="cls-3" d="M1065.99,692.86l1.24,5.59c1.02,4.62-1.63,7.51-6.22,8.52-4.6,1.02-8.15-.65-9.17-5.27l-1.2-5.44,15.36-3.4ZM1053.52,701.26c.8,3.61,3.44,4.53,7.05,3.73s5.77-2.63,4.97-6.24l-.8-3.59-11.99,2.66.76,3.44Z"/><path class="cls-3" d="M1054.91,717.68l1.54-.26v-.04c-1.23-.62-2.11-1.45-2.38-3.07-.39-2.3.74-4.01,3.06-4.41l7.76-1.33.3,1.76-7.72,1.32c-1.45.25-2.14,1.33-1.87,2.91.3,1.78,1.84,2.7,3.62,2.39l6.9-1.18.3,1.76-11.21,1.92-.3-1.76Z"/><path class="cls-3" d="M1066.69,719.46l.22,1.63,3.55-.49.24,1.76-3.55.49.3,2.18-1.44.2-.3-2.18-7.32,1c-.78.11-.99.56-.89,1.28.05.35.19.73.28.92v.07s-1.52.21-1.52.21c-.14-.4-.28-.87-.35-1.4-.2-1.44.25-2.56,1.84-2.78l7.71-1.06-.22-1.63,1.44-.2Z"/><path class="cls-3" d="M1052.9,728.51l1.58-.17v.09c-.1.25-.17.64-.11,1.23.08.74.41,1.22,1.55,1.54l1.16.32,10.52-5.57.2,1.93-6.77,3.41c-.9.45-2.13,1-2.13,1v.04s1.32.26,2.29.51l7.32,1.84.2,1.88-12.74-3.56c-2.44-.67-3.01-1.5-3.15-2.88-.07-.68-.07-1.12.07-1.62Z"/><path class="cls-4" d="M648.06,474.8l-12.15-8.76,4.27-2.06,5.68,4.32c1.15.88,2.6,2.14,2.6,2.14l.05-.03s-.04-1.95-.03-3.38l.1-7.11,4.11-1.98-.71,14.96,3.6,7.46-3.92,1.89-3.6-7.46Z"/><path class="cls-4" d="M656.55,471.35c-1.8-4.23-.17-8.76,4.22-10.63s8.79.11,10.58,4.34.17,8.76-4.22,10.63c-4.39,1.87-8.79-.11-10.58-4.34ZM667.54,466.68c-1.17-2.76-3.27-4.09-5.56-3.11-2.32.99-2.79,3.4-1.62,6.17s3.23,4.07,5.55,3.09c2.29-.97,2.8-3.38,1.63-6.14Z"/><path class="cls-4" d="M685,468.25l-.61-1.69-.08.03c-.51,1.68-1.36,2.85-3.39,3.59-3.21,1.17-5.77-.24-6.91-3.39l-3.5-9.64,3.81-1.38,3.27,9c.61,1.69,1.71,2.35,3.35,1.75,1.8-.66,2.41-2.41,1.72-4.33l-3.03-8.35,3.83-1.39,5.25,14.47-3.69,1.34Z"/><path class="cls-4" d="M690.87,452.68l.09-.03c.36-1.94,1.09-3.11,2.81-3.65.43-.14.7-.19.95-.17l1.07,3.4-.09.03c-2.63.54-4.03,2.47-3.06,5.56l2.25,7.15-3.89,1.23-4.63-14.68,3.75-1.18.74,2.35Z"/><path class="cls-4" d="M706.51,439.38l4.37-1.07,12.46,19.02-4.4,1.08-2.49-4.08-7.52,1.85-.28,4.76-4.28,1.05,2.14-22.61ZM709.13,452.69l5.51-1.35-3.34-5.54c-.62-1.02-1.63-3-1.63-3h-.06s0,2.24-.09,3.43l-.39,6.46Z"/><path class="cls-4" d="M718.02,436.41l4.37-.75,4.56,10.02c.72,1.73,1.71,4.45,1.71,4.45h.06s.08-2.73.2-4.67l.48-11.01,4.14-.71,4.13,10.18c.76,1.79,1.75,4.35,1.75,4.35h.06s.14-2.92.23-4.83l.86-10.92,4.23-.73-2.39,22.17-3.99.69-4.52-10.88c-.62-1.48-1.39-3.63-1.39-3.63h-.06s.06,2.28-.03,3.88l-.65,11.77-3.96.68-9.79-20.07Z"/><path class="cls-4" d="M747.98,446.47l4.24-.42c.55,2.54,2.11,3.41,5.16,3.11,2.21-.22,4.07-1.18,3.88-3.15-.21-2.09-2.28-2.31-5.6-2.74-3.91-.49-7.5-1.16-7.94-5.61-.41-4.21,2.81-6.73,7.56-7.19,4.81-.47,8.14,1.58,8.9,5.85l-4.15.41c-.45-2.13-2.23-3.04-4.44-2.82-2.33.23-3.76,1.36-3.61,2.89.17,1.73,1.71,2.09,4.95,2.47,4.48.52,8.17,1.22,8.62,5.82.42,4.33-2.83,7.09-7.64,7.56-5.79.57-9.33-1.68-9.92-6.17Z"/><path class="cls-4" d="M772.93,429.51l15.78-.35.08,3.66-11.43.26.11,4.8,10.02-.22.08,3.57-10.02.22.13,5.79,11.52-.26.08,3.63-15.87.35-.48-21.45Z"/><path class="cls-4" d="M795.77,437.49h.09c1.1-1.61,2.54-2.44,4.64-2.37,3.18.1,5.23,2.57,5.12,5.93l-.32,10.04-4.08-.13.3-9.44c.05-1.65-.87-2.85-2.58-2.9-1.8-.06-3.16,1.34-3.23,3.44l-.28,8.73-4.08-.13.49-15.38,3.99.13-.07,2.1Z"/><path class="cls-4" d="M807.24,435.78l4.13.33,1.82,8.15c.33,1.5.49,2.51.49,2.51h.06s.29-.97.85-2.4l3.15-7.75,4.07.33-6.58,14.91-3.89-.31-4.09-15.77Z"/><path class="cls-4" d="M823.51,437.21l4.05.46-1.75,15.29-4.05-.46,1.75-15.29ZM824.2,431.19l4.05.46-.42,3.64-4.05-.46.42-3.64Z"/><path class="cls-4" d="M834.02,441.01h.09c1.17-1.58,2.33-2.32,4.11-2.07.45.06.71.13.93.25l-.5,3.53h-.09c-2.6-.66-4.7.47-5.16,3.68l-1.06,7.42-4.04-.57,2.17-15.23,3.89.55-.35,2.44Z"/><path class="cls-4" d="M838.75,446.93c.84-4.51,4.7-7.39,9.39-6.52,4.69.87,7.26,4.95,6.42,9.47-.84,4.51-4.7,7.39-9.39,6.52s-7.26-4.95-6.42-9.47ZM850.49,449.12c.55-2.95-.46-5.21-2.91-5.67-2.48-.46-4.21,1.29-4.76,4.24-.55,2.95.44,5.18,2.92,5.64,2.45.46,4.2-1.26,4.75-4.21Z"/><path class="cls-4" d="M861.72,445.81l.09.02c1.41-1.36,2.98-1.87,5.03-1.38,3.09.75,4.6,3.58,3.8,6.85l-2.37,9.77-3.96-.96,2.22-9.19c.39-1.6-.27-2.97-1.93-3.37-1.75-.42-3.37.67-3.87,2.71l-2.06,8.49-3.97-.96,3.62-14.96,3.88.94-.49,2.04Z"/><path class="cls-4" d="M875.01,446.84l3.75,1.18-.62,1.98.09.03c1.22-1.09,2.98-1.68,5.01-1.04,1.86.58,3.03,2.08,3.26,3.85l.06.02c1.5-1.29,3.36-1.78,5.22-1.19,3.09.97,4.21,3.52,3.21,6.73l-3.1,9.88-3.89-1.22,2.89-9.22c.52-1.66-.04-2.78-1.47-3.23-1.63-.51-3.03.43-3.64,2.38l-2.67,8.53-3.89-1.22,2.89-9.22c.52-1.66-.04-2.78-1.47-3.23-1.57-.49-3.03.43-3.64,2.38l-2.67,8.53-3.89-1.22,4.6-14.68Z"/><path class="cls-4" d="M895.98,461.66c1.65-4.25,5.81-6.43,10.01-4.81,4.62,1.79,5.71,6.27,3.72,11.39l-10.4-4.04c-.58,2.32.12,4.17,2.28,5,1.48.57,2.61.24,3.45-.69l3.75,1.45c-1.52,2.34-4.62,3.61-8.31,2.18-4.75-1.84-6.15-6.21-4.49-10.49ZM900.38,461.6l6.38,2.47c.59-1.86-.12-3.59-1.85-4.26-2.01-.78-3.46.04-4.52,1.79Z"/><path class="cls-4" d="M917.92,464.49l.08.04c1.63-1.07,3.28-1.29,5.19-.43,2.9,1.3,3.86,4.37,2.48,7.43l-4.12,9.17-3.72-1.67,3.87-8.62c.68-1.5.28-2.97-1.28-3.67-1.64-.74-3.44.03-4.3,1.95l-3.58,7.96-3.72-1.67,6.31-14.04,3.64,1.64-.86,1.92Z"/><path class="cls-4" d="M929.42,467.45l1.91.95,2.15-4.29,3.57,1.78-2.15,4.29,2.36,1.18-1.21,2.42-2.36-1.18-3.65,7.3c-.51,1.02-.12,1.65.69,2.05.46.23,1.09.51,1.09.51l-1.34,2.68s-.86-.36-2.31-1.09c-1.77-.89-3.38-2.56-2.08-5.17l4.04-8.08-1.91-.95,1.21-2.42Z"/><path class="cls-3" d="M572.23,394.42l6.27-3.58c2.64-1.51,5.27-.98,6.57,1.29.92,1.6.87,3.25-.61,4.74l.03.06c1.47-.36,2.53,0,3.66,1.56,1.29,1.82,2.06,3.33,2.66,3.27l.08.13-2.66,1.52c-.43.04-1.34-1.46-2.3-2.87-.97-1.42-2.29-1.78-4.01-.8l-2.24,1.28,3.14,5.48-2.77,1.58-7.81-13.66ZM578.46,398.88l2.94-1.68c1.51-.86,1.81-2.07,1.18-3.16-.63-1.11-1.81-1.53-3.28-.68l-3.02,1.73,2.17,3.8Z"/><path class="cls-3" d="M598.49,397.86l-.62-1.17-.06.03c-.2,1.27-.7,2.21-2.1,2.95-2.22,1.17-4.21.41-5.37-1.76l-3.52-6.65,2.62-1.39,3.29,6.2c.62,1.17,1.48,1.53,2.61.93,1.24-.66,1.51-1.99.81-3.32l-3.05-5.75,2.64-1.4,5.28,9.97-2.55,1.35Z"/><path class="cls-3" d="M600.96,385.64l.06-.03c.15-1.43.8-2.46,2.18-3.14,2.09-1.03,4.27-.15,5.36,2.06l3.26,6.61-2.68,1.32-3.07-6.21c-.54-1.08-1.55-1.54-2.67-.99-1.18.58-1.58,1.96-.9,3.34l2.83,5.74-2.68,1.32-4.99-10.12,2.62-1.29.68,1.38Z"/><path class="cls-3" d="M615.47,387.91l-.04.02.58,1.28-2.62,1.2-6.54-14.3,2.72-1.24,2.41,5.28.06-.03c.17-1.12.75-2.18,2.17-2.83,2.58-1.18,5.44.2,6.9,3.4,1.52,3.32.72,6.23-1.86,7.4-1.44.66-2.74.5-3.78-.18ZM618.36,381.95c-.87-1.9-2.23-2.87-3.75-2.18-1.72.79-1.73,2.46-.86,4.36.86,1.88,2.35,2.65,3.87,1.96,1.4-.64,1.65-2.16.75-4.14Z"/><path class="cls-3" d="M621.93,380.33c-1.31-3.1-.1-6.43,3.12-7.78,3.22-1.36,6.44.11,7.75,3.21s.1,6.43-3.12,7.78c-3.22,1.36-6.44-.11-7.75-3.21ZM630,376.93c-.85-2.03-2.39-3.01-4.07-2.3-1.7.72-2.06,2.49-1.2,4.52.85,2.03,2.36,2.99,4.06,2.28,1.68-.71,2.06-2.47,1.21-4.5Z"/><path class="cls-3" d="M633.64,375.42c-1.21-3.14.1-6.43,3.36-7.68s6.44.31,7.65,3.45c1.21,3.14-.1,6.43-3.36,7.68s-6.44-.31-7.65-3.45ZM641.81,372.27c-.79-2.05-2.29-3.08-4-2.42-1.73.66-2.13,2.42-1.34,4.48.79,2.05,2.26,3.07,3.99,2.4,1.7-.66,2.14-2.4,1.35-4.46Z"/><path class="cls-3" d="M650.19,369.74l-.78,1.7,1.26,3.59-2.8.98-5.2-14.85,2.8-.98,2.88,8.22,2.37-5.35,3.38-1.19-2.51,5.42,6.72,5.06-3.43,1.2-4.69-3.81Z"/><path class="cls-3" d="M657.02,368.95l2.64-.85c.58,1.18,1.64,1.44,2.92,1.03,1.26-.4,1.81-1.11,1.57-1.87-.33-1.03-1.72-.69-3.29-.52-2.05.24-4.1.32-4.85-2.03-.75-2.33.83-4.05,3.28-4.84,2.83-.91,4.85,0,5.75,2.08l-2.58.83c-.5-1.11-1.36-1.3-2.58-.91-1.11.36-1.71,1.01-1.46,1.79.3.92,1.75.55,3.38.37,1.92-.2,4.07-.34,4.88,2.18.69,2.16-.74,4.05-3.42,4.91-3.12,1-5.34.05-6.24-2.18Z"/><path class="cls-3" d="M668.42,352.68l4.33-1.18,4.23,7.03c1.05,1.77,2.07,3.84,2.07,3.84h.04s-.19-2.31-.19-4.36l.06-8.21,4.39-1.2,4.15,15.18-2.87.78-2.38-8.7c-.34-1.23-.73-3.18-.73-3.18h-.04s.15,1.89.13,3.08l-.16,9.67-2.95.81-4.99-8.26c-.62-1.02-1.45-2.71-1.45-2.71h-.04s.65,1.89.99,3.12l2.38,8.7-2.82.77-4.15-15.18Z"/><path class="cls-3" d="M685.82,348.05l2.91-.71.63,2.61-2.91.71-.63-2.61ZM686.87,352.37l2.91-.71,2.67,10.97-2.91.71-2.67-10.97Z"/><path class="cls-3" d="M692.79,358.77l2.71-.6c.48,1.22,1.5,1.58,2.81,1.29,1.29-.29,1.91-.94,1.74-1.72-.23-1.05-1.65-.85-3.22-.81-2.06.05-4.11-.05-4.65-2.46-.53-2.38,1.19-3.96,3.7-4.52,2.9-.65,4.83.43,5.54,2.6l-2.64.59c-.39-1.15-1.24-1.41-2.48-1.14-1.14.25-1.79.85-1.62,1.65.21.94,1.69.7,3.33.68,1.93-.03,4.09.03,4.66,2.61.49,2.21-1.1,3.96-3.85,4.58-3.2.71-5.33-.43-6.02-2.74Z"/><path class="cls-3" d="M703.18,356.45l2.72-.53c.44,1.24,1.46,1.62,2.78,1.36,1.3-.25,1.93-.9,1.78-1.67-.21-1.06-1.63-.89-3.2-.9-2.06,0-4.11-.16-4.59-2.57-.47-2.4,1.29-3.93,3.82-4.43,2.92-.57,4.82.56,5.47,2.74l-2.66.52c-.36-1.16-1.2-1.45-2.46-1.2-1.14.22-1.81.8-1.66,1.6.19.95,1.67.75,3.31.76,1.93.02,4.09.14,4.6,2.73.44,2.22-1.2,3.94-3.96,4.48-3.22.63-5.31-.57-5.95-2.89Z"/><path class="cls-3" d="M712.23,342.41l2.95-.52.47,2.64-2.95.52-.47-2.64ZM713.01,346.79l2.95-.52,1.96,11.12-2.95.52-1.96-11.12Z"/><path class="cls-3" d="M718.34,351.56c-.51-3.33,1.46-6.26,4.92-6.79,3.46-.53,6.22,1.67,6.74,4.99.51,3.33-1.46,6.26-4.92,6.79-3.46.53-6.22-1.67-6.74-4.99ZM727,350.22c-.34-2.17-1.59-3.5-3.39-3.22-1.83.28-2.6,1.91-2.26,4.09.34,2.17,1.56,3.48,3.39,3.19,1.8-.28,2.6-1.89,2.27-4.07Z"/><path class="cls-3" d="M733.82,345.12h.07c.61-1.3,1.56-2.06,3.09-2.26,2.31-.29,4.08,1.27,4.39,3.71l.91,7.31-2.97.37-.86-6.88c-.15-1.2-.95-1.97-2.2-1.81-1.31.16-2.14,1.33-1.95,2.86l.79,6.35-2.97.37-1.39-11.2,2.9-.36.19,1.53Z"/><path class="cls-3" d="M746.55,345.57c-.38-4.65,2.22-8.44,6.85-8.82,3.86-.32,6.33,1.8,6.9,4.75l-3.16.26c-.41-1.56-1.68-2.49-3.53-2.34-2.89.24-4.08,2.76-3.82,5.88.26,3.2,2.12,5.37,4.75,5.15,1.86-.15,3.09-1.38,3.15-3.04l3.11-.26c.03,1.39-.46,2.77-1.43,3.85-.99,1.1-2.45,1.88-4.62,2.06-4.41.36-7.82-2.78-8.21-7.49Z"/><path class="cls-3" d="M761.69,336.47l2.99-.17.91,15.7-2.99.17-.91-15.7Z"/><path class="cls-3" d="M766.71,346.26c-.12-3.36,2.18-6.05,5.67-6.18,3.5-.13,5.99,2.38,6.11,5.74.12,3.36-2.18,6.05-5.67,6.18s-5.99-2.38-6.11-5.74ZM775.46,345.94c-.08-2.2-1.17-3.66-2.99-3.59-1.85.07-2.8,1.6-2.72,3.8s1.15,3.63,2.99,3.57c1.82-.07,2.8-1.58,2.72-3.78Z"/><path class="cls-3" d="M787.16,351.37l-.02-1.32h-.07c-.75,1.05-1.62,1.66-3.21,1.68-2.51.04-3.94-1.54-3.98-4.01l-.12-7.53,2.97-.05.11,7.02c.02,1.32.63,2.04,1.9,2.02,1.41-.02,2.25-1.09,2.23-2.59l-.1-6.51,2.99-.05.18,11.29-2.88.05Z"/><path class="cls-3" d="M791.4,345.73c.08-3.52,2.13-5.92,4.94-5.85,1.58.03,2.56.78,3.15,1.74h.07s.12-5.8.12-5.8l2.99.06-.34,15.72-2.88-.06.03-1.47h-.04c-.68,1.06-1.82,1.76-3.4,1.73-2.84-.06-4.72-2.41-4.64-6.06ZM799.53,345.97c.05-2.15-.63-3.62-2.54-3.66-1.65-.04-2.52,1.4-2.56,3.49-.05,2.18.78,3.47,2.32,3.5,1.78.04,2.73-1.26,2.78-3.33Z"/><path class="cls-3" d="M807.6,346.17c.2-3.36,2.55-5.82,5.97-5.62,2.92.17,4.62,1.97,4.87,4.43l-2.92-.17c-.14-1-.86-1.79-1.96-1.86-1.8-.11-2.8,1.22-2.93,3.4-.13,2.13.65,3.61,2.47,3.72,1.21.07,2.1-.51,2.37-1.78l2.88.17c-.34,2.38-2.32,4.18-5.33,4-3.56-.21-5.62-2.93-5.42-6.29Z"/><path class="cls-3" d="M819.26,346.87c.3-3.35,2.91-5.73,6.4-5.42,3.48.31,5.64,3.1,5.35,6.46-.3,3.35-2.91,5.73-6.4,5.42-3.48-.31-5.64-3.1-5.35-6.46ZM827.98,347.64c.19-2.19-.7-3.77-2.52-3.93-1.84-.16-2.98,1.24-3.17,3.43-.19,2.19.68,3.75,2.52,3.91,1.82.16,2.98-1.22,3.17-3.41Z"/><path class="cls-3" d="M832.33,346.97l5.93.67-.29,2.56-5.93-.67.29-2.56Z"/><path class="cls-3" d="M839.34,348.85c.48-3.49,2.79-5.63,5.58-5.25,1.57.22,2.45,1.07,2.93,2.09h.07s.79-5.74.79-5.74l2.96.41-2.14,15.58-2.85-.39.2-1.46h-.04c-.8.97-2.01,1.54-3.58,1.32-2.81-.39-4.41-2.94-3.92-6.55ZM847.39,350.02c.29-2.14-.21-3.67-2.1-3.93-1.63-.22-2.66,1.1-2.94,3.17-.3,2.16.38,3.54,1.91,3.75,1.77.24,2.86-.94,3.14-2.99Z"/><path class="cls-3" d="M851.73,350.54c.55-3.3,3.21-5.48,6.47-4.94,3.58.6,5.03,3.65,4.37,7.62l-8.07-1.35c-.07,1.75.71,2.97,2.38,3.25,1.15.19,1.91-.22,2.38-1.01l2.91.49c-.74,1.91-2.78,3.28-5.64,2.8-3.69-.62-5.34-3.55-4.78-6.87ZM854.88,349.84l4.95.83c.15-1.42-.62-2.56-1.97-2.78-1.56-.26-2.48.54-2.98,1.95Z"/><path class="cls-3" d="M864.08,346.9l2.98.58.65,6.09c.12,1.12.15,1.87.15,1.87h.04s.29-.67.82-1.67l2.94-5.39,2.94.58-6.03,10.32-2.81-.55-1.67-11.83Z"/><path class="cls-3" d="M873.69,354.52c.73-3.26,3.51-5.3,6.73-4.58,3.54.79,4.83,3.92,3.95,7.85l-7.99-1.79c-.17,1.74.54,3.01,2.2,3.38,1.14.25,1.92-.11,2.43-.88l2.88.64c-.85,1.86-2.95,3.13-5.79,2.49-3.65-.82-5.14-3.83-4.4-7.12ZM876.87,354l4.9,1.1c.23-1.41-.48-2.59-1.81-2.89-1.55-.35-2.5.41-3.08,1.79Z"/><path class="cls-3" d="M888.38,347.55l2.91.71-3.75,15.27-2.91-.71,3.75-15.27Z"/><path class="cls-3" d="M890.3,358.38c.87-3.25,3.86-5.14,7.24-4.23,3.38.91,5.02,4.04,4.15,7.29-.87,3.25-3.86,5.14-7.24,4.23-3.38-.91-5.02-4.04-4.15-7.29ZM898.76,360.65c.57-2.13-.04-3.84-1.8-4.31-1.79-.48-3.15.7-3.72,2.83-.57,2.13.03,3.81,1.81,4.29,1.76.47,3.15-.68,3.72-2.81Z"/><path class="cls-3" d="M904.73,356.44l2.76.83-.41,1.35.06.02c.98-.74,2.2-1.13,3.67-.68,2.86.86,3.99,3.75,2.98,7.12-1.05,3.5-3.62,5.14-6.4,4.3-1.52-.46-2.32-1.37-2.65-2.48h-.04s-1.43,4.75-1.43,4.75l-2.86-.86,4.32-14.34ZM910.86,364.28c.62-2.04.33-3.69-1.44-4.22-1.79-.54-2.97.78-3.55,2.72-.59,1.96-.07,3.52,1.63,4.03,1.45.44,2.74-.48,3.36-2.53Z"/><path class="cls-3" d="M913.84,367.18l2.63.88c-.22,1.29.47,2.13,1.75,2.55,1.25.42,2.12.17,2.37-.58.34-1.02-.98-1.58-2.35-2.36-1.79-1.01-3.5-2.16-2.72-4.5.77-2.32,3.06-2.78,5.5-1.97,2.82.94,3.92,2.86,3.41,5.08l-2.57-.85c.26-1.19-.33-1.85-1.55-2.25-1.11-.37-1.98-.19-2.23.58-.31.92,1.09,1.47,2.51,2.29,1.67.97,3.49,2.13,2.65,4.64-.71,2.15-2.98,2.83-5.65,1.94-3.11-1.03-4.34-3.11-3.75-5.44Z"/><path class="cls-3" d="M930.02,364.54l2.78,1.05-.58,5.38c-.1.95-.28,2.15-.28,2.15l.04.02s.66-1.05,1.21-1.82l3.17-4.37,2.39.91-.47,5.4c-.11.97-.26,2.18-.26,2.18l.04.02s.67-1.02,1.22-1.79l3.2-4.39,2.71,1.03-7.15,9.36-2.55-.97.57-5.71c.09-.93.22-2.01.22-2.01l-.04-.02s-.64.89-1.19,1.64l-3.41,4.64-2.53-.96.92-11.72Z"/><path class="cls-3" d="M946.3,370.84l2.77,1.14-4.28,10.44-2.77-1.14,4.28-10.44ZM947.99,366.73l2.77,1.13-1.02,2.48-2.77-1.14,1.02-2.48Z"/><path class="cls-3" d="M950.36,372.5l1.44.61,1.38-3.24,2.69,1.15-1.38,3.24,1.78.76-.78,1.82-1.78-.76-2.35,5.5c-.33.77-.02,1.21.59,1.47.34.15.82.33.82.33l-.87,2.02s-.64-.23-1.74-.7c-1.33-.57-2.59-1.73-1.75-3.69l2.6-6.09-1.44-.61.78-1.82Z"/><path class="cls-3" d="M959.97,378.29l.06.03c1.23-.74,2.32-.9,3.72-.26,2.12.97,2.81,3.22,1.79,5.46l-3.06,6.71-2.72-1.24,2.87-6.31c.5-1.1.22-2.17-.92-2.69-1.2-.55-2.52.01-3.16,1.41l-2.66,5.83-2.72-1.24,6.52-14.31,2.72,1.24-2.46,5.39Z"/><path class="cls-3" d="M966.97,393.87l.94.47c1.06.53,1.77.2,2.18-.63.28-.55.4-1.3.6-3.12l.88-8.54,2.81,1.41-.78,5.29c-.15,1.08-.46,2.53-.46,2.53l.04.02s.92-1.14,1.69-1.91l3.69-3.83,2.7,1.35-8.71,8.58c-1.89,1.86-3.04,2.29-5.09,1.26l-1.57-.79,1.05-2.1Z"/><path class="cls-3" d="M978.92,392.05c1.59-2.96,4.93-4.12,8.01-2.46,3.08,1.65,3.97,5.08,2.37,8.04-1.59,2.97-4.93,4.12-8.01,2.46s-3.96-5.08-2.37-8.04ZM986.63,396.19c1.04-1.94.84-3.74-.77-4.61-1.63-.87-3.23-.04-4.27,1.9-1.04,1.94-.85,3.71.78,4.59,1.61.86,3.22.05,4.26-1.88Z"/><path class="cls-3" d="M993.92,406.77l.66-1.14-.06-.03c-1.18.51-2.24.59-3.62-.2-2.17-1.25-2.59-3.35-1.37-5.48l3.75-6.52,2.58,1.48-3.5,6.08c-.66,1.14-.5,2.07.6,2.71,1.22.7,2.49.21,3.24-1.08l3.25-5.65,2.59,1.49-5.63,9.78-2.5-1.44Z"/><path class="cls-3" d="M432.45,383.59c-3.12-3.4-3.51-7.92-.06-11.09,2.71-2.48,5.77-2.43,8.04-.57l-1.43,1.31c-1.6-1.19-3.66-1.12-5.49.56-2.54,2.34-2.08,5.7.42,8.43,2.6,2.84,5.93,3.3,8.35,1.09,2.19-2.01,1.86-4.45.44-6.29l1.44-1.32c1.04,1.17,1.68,2.97,1.6,4.54-.08,1.54-.88,3.05-2.35,4.4-3.29,3.02-7.73,2.47-10.96-1.04Z"/><path class="cls-3" d="M439.13,366.9l1.33-1.18,10.42,11.78-1.33,1.18-10.42-11.78Z"/><path class="cls-3" d="M448.53,371.98c-2.14-2.51-2.28-5.92.29-8.12,2.59-2.22,5.91-1.52,8.05.99,2.14,2.51,2.32,5.89-.28,8.11-2.58,2.2-5.93,1.53-8.07-.97ZM455.49,366.03c-1.63-1.91-3.87-2.63-5.71-1.05-1.84,1.57-1.49,3.91.14,5.82,1.63,1.91,3.87,2.6,5.71,1.02,1.84-1.57,1.49-3.88-.14-5.79Z"/><path class="cls-3" d="M467.47,363.5l-.99-1.21-.03.03c.06,1.37-.23,2.54-1.5,3.59-1.81,1.48-3.86,1.33-5.35-.49l-4.98-6.1,1.38-1.13,4.95,6.07c.93,1.14,2.21,1.21,3.45.19,1.4-1.14,1.44-2.94.3-4.33l-4.42-5.42,1.38-1.13,7.19,8.81-1.38,1.13Z"/><path class="cls-3" d="M466.69,356.85c-2.33-2.98-1.96-6.06.26-7.79,1.27-.99,2.72-1.12,3.96-.72l.03-.03-3.66-4.7,1.41-1.09,9.67,12.4-1.41,1.09-.85-1.09-.03.03c0,1.4-.45,2.53-1.72,3.52-2.45,1.91-5.41,1.26-7.65-1.62ZM473.58,351.52c-1.62-2.08-3.76-2.76-5.62-1.31-1.7,1.32-1.38,3.53.19,5.54,1.58,2.03,3.61,2.85,5.33,1.51,2-1.55,1.68-3.71.1-5.74Z"/><path class="cls-3" d="M475.24,347.35c-2.79-3.79-2.48-8.36,1.35-11.17,3.83-2.81,8.28-1.74,11.07,2.05,2.79,3.79,2.48,8.36-1.35,11.17-3.83,2.81-8.28,1.74-11.07-2.05ZM486.02,339.43c-2.19-2.98-5.44-4.06-8.42-1.87-2.98,2.19-2.92,5.61-.73,8.59,2.19,2.98,5.43,4.04,8.41,1.85,2.98-2.19,2.93-5.6.74-8.57Z"/><path class="cls-3" d="M487.48,334.11l1.47-1.01.91,1.32.04-.02c.04-1.45.58-2.68,1.94-3.62,2.37-1.64,5.27-.97,7.42,2.14,2.08,3,1.87,5.99-.67,7.74-1.27.88-2.43,1.12-3.9.66l-.04.02,2.84,4.11-1.47,1.01-8.55-12.36ZM497.77,333.98c-1.45-2.1-3.44-3.08-5.21-1.85-2.04,1.41-1.83,3.73-.43,5.76s3.35,3.11,5.51,1.62c1.79-1.24,1.6-3.41.14-5.53Z"/><path class="cls-3" d="M501.26,333.94l1.52-1.01c1.29,1.52,2.7,1.25,4.11.32,1.56-1.03,1.75-2.13,1.17-3.01-.7-1.06-1.62-.86-3.6-.07-2.13.85-4.05,1.57-5.42-.51-1.04-1.58-.51-3.41,1.69-4.86,2.35-1.55,4.25-1.19,5.69.51l-1.52,1.01c-.97-1.15-2.01-1.25-3.43-.32-1.36.9-1.51,1.87-1.01,2.62.68,1.03,1.73.62,3.58-.12,2.16-.87,4.04-1.51,5.48.68,1.26,1.91.34,3.91-1.84,5.35-2.61,1.72-4.87,1.45-6.42-.58Z"/><path class="cls-3" d="M507.5,315.5l9.45-5.83.91,1.48-7.77,4.79,2.61,4.23,7.06-4.35.88,1.42-7.06,4.35,2.9,4.7,7.99-4.93.96,1.55-9.68,5.97-8.26-13.39Z"/><path class="cls-3" d="M523.68,312.49l.04-.02c.16-1.34.8-2.51,2.23-3.34,2.05-1.2,3.96-.81,5.15,1.22l4.03,6.9-1.54.9-3.95-6.76c-.74-1.27-2-1.51-3.39-.7-1.56.91-2.05,2.68-1.11,4.29l3.53,6.04-1.54.9-5.74-9.82,1.54-.9.75,1.29Z"/><path class="cls-3" d="M537.15,316.83l1.44-.8c.76,1.01,2.03.86,3.57,0,1.83-1.01,2.39-2.4,1.43-4.14l-.78-1.4-.04.02c-.21,1.35-.67,2.38-2.09,3.17-2.58,1.43-5.49.35-7.08-2.52-1.71-3.1-.77-5.98,1.54-7.26,1.44-.8,2.68-.75,3.87-.18l.04-.02-.7-1.27,1.56-.86,5.21,9.41c1.45,2.62.4,4.81-2.24,6.27-2.58,1.43-4.62,1.2-5.74-.42ZM541.01,306.97c-1.2-2.17-2.87-3.01-4.99-1.84-1.87,1.03-2,3.02-.81,5.17,1.2,2.17,2.97,3.05,4.82,2.03,2.29-1.27,2.14-3.27.98-5.37Z"/><path class="cls-3" d="M540.11,296.54l1.57-.84,1.03,1.94-1.57.84-1.03-1.94ZM542.16,300.39l1.57-.84,5.35,10.03-1.57.84-5.35-10.03Z"/><path class="cls-3" d="M548.25,298.85l.04-.02c.23-1.33.94-2.46,2.41-3.22,2.11-1.09,4-.59,5.08,1.5l3.65,7.11-1.59.81-3.58-6.97c-.67-1.31-1.92-1.61-3.35-.88-1.6.82-2.2,2.56-1.34,4.23l3.2,6.23-1.59.81-5.2-10.12,1.59-.81.68,1.33Z"/><path class="cls-3" d="M558.39,298.39c-1.44-2.97-.67-6.32,2.24-7.73,3.07-1.49,5.86.09,7.5,3.47l-7.92,3.84c1.13,2.02,3.02,3.06,5.08,2.06,1.48-.72,2.13-1.91,1.81-3.47l1.56-.76c.59,2.43-.41,4.45-2.72,5.57-3.13,1.52-6.12-.01-7.56-2.98ZM559.67,296.74l6.15-2.98c-1.09-1.99-2.74-2.73-4.58-1.84-1.9.92-2.24,2.85-1.57,4.82Z"/><path class="cls-3" d="M568.99,293.26c-1.37-3-.53-6.34,2.42-7.68,3.1-1.42,5.86.23,7.42,3.65l-8,3.66c1.08,2.05,2.95,3.12,5.03,2.17,1.5-.69,2.17-1.86,1.89-3.43l1.58-.72c.53,2.44-.51,4.44-2.85,5.51-3.16,1.44-6.12-.16-7.49-3.16ZM570.31,291.64l6.22-2.84c-1.04-2.01-2.68-2.79-4.54-1.94-1.92.88-2.3,2.79-1.68,4.78Z"/><path class="cls-3" d="M580.4,283.95l.04-.02c.19-1.28.91-2.6,2.3-3.2.3-.13.48-.16.72-.17l.68,1.57-.06.03c-.28.02-.45.07-.77.21-1.61.7-2.5,2.52-1.65,4.48l2.51,5.79-1.63.71-4.53-10.43,1.63-.71.75,1.73Z"/><path class="cls-3" d="M583.33,275.89l1.64-.69.85,2.03-1.64.69-.85-2.03ZM585.02,279.9l1.64-.69,4.41,10.48-1.64.69-4.41-10.48Z"/><path class="cls-3" d="M591.2,278.94l.04-.02c.35-1.3,1.16-2.36,2.69-2.98,2.2-.89,4.03-.23,4.92,1.96l2.99,7.41-1.65.67-2.93-7.26c-.55-1.37-1.76-1.78-3.25-1.18-1.67.67-2.42,2.35-1.72,4.09l2.62,6.49-1.65.67-4.25-10.55,1.65-.67.56,1.39Z"/><path class="cls-3" d="M603.9,285.18l1.54-.58c.61,1.11,1.89,1.15,3.54.53,1.96-.74,2.71-2.03,2.02-3.88l-.57-1.5-.04.02c-.4,1.3-1.01,2.26-2.53,2.83-2.76,1.04-5.48-.45-6.64-3.52-1.25-3.31.1-6.03,2.57-6.96,1.54-.58,2.76-.36,3.86.38l.04-.02-.51-1.36,1.67-.63,3.79,10.07c1.05,2.8-.3,4.81-3.12,5.88-2.76,1.04-4.74.52-5.62-1.25ZM609.15,275.99c-.88-2.33-2.41-3.39-4.67-2.54-2,.75-2.42,2.7-1.55,5,.88,2.33,2.5,3.45,4.48,2.71,2.45-.92,2.59-2.93,1.74-5.17Z"/><path class="cls-3" d="M612.56,264.51l11.79-4.02.56,1.65-4.96,1.69,4.51,13.25-1.87.64-4.51-13.25-4.96,1.69-.56-1.65Z"/><path class="cls-3" d="M626.32,270.44c-1-3.15.24-6.36,3.32-7.34,3.25-1.03,5.79.93,6.93,4.51l-8.39,2.67c.83,2.16,2.55,3.46,4.73,2.77,1.57-.5,2.38-1.59,2.29-3.18l1.66-.53c.24,2.49-1.04,4.35-3.49,5.13-3.31,1.05-6.06-.89-7.06-4.04ZM627.82,269l6.52-2.07c-.79-2.13-2.32-3.09-4.27-2.47-2.01.64-2.62,2.5-2.25,4.55Z"/><path class="cls-3" d="M645.99,268.67h-.02c-.41,1.04-1.26,2.26-3.12,2.8-2.07.61-3.98.11-4.58-1.95-.76-2.57,1.12-3.7,3.71-4.92,1.47-.68,2.5-1.15,2.16-2.33-.36-1.22-1.45-1.66-3.01-1.2-1.77.52-2.44,1.54-2.02,3.21l-1.65.48c-.56-2.13.37-4.12,3.26-4.97,2.32-.68,4.28-.32,5.05,2.28l1.52,5.19c.26.89.61,1.31,1.5.82l.06-.02.37,1.25c-.19.15-.44.31-.88.44-1.12.33-1.86,0-2.35-1.07ZM645.29,266.15l-.54-1.86c-.46.53-1.38,1.09-2.25,1.53-1.62.82-2.9,1.52-2.43,3.12.43,1.46,1.66,1.44,2.78,1.11,2.28-.67,2.82-2.64,2.45-3.91Z"/><path class="cls-3" d="M647.53,258.01l1.72-.45.41,1.57h.04c.4-1.25,1.37-2.33,2.75-2.69,1.34-.35,2.58.05,3.39,1.2h.04c.37-1.45,1.51-2.5,2.85-2.85,1.96-.52,3.67.38,4.27,2.65l2.03,7.72-1.72.45-2.01-7.64c-.36-1.36-1.49-1.93-2.59-1.64-1.42.38-2.38,1.95-1.92,3.67l1.8,6.85-1.72.45-2.01-7.64c-.36-1.36-1.34-1.97-2.46-1.67-1.34.35-2.5,1.98-2.05,3.7l1.8,6.85-1.72.45-2.9-11Z"/><path class="cls-4" d="M668.56,257c-.32-1.39.55-2.81,1.96-3.14,1.39-.32,2.8.57,3.12,1.97s-.55,2.79-1.94,3.12c-1.42.33-2.81-.55-3.14-1.94Z"/><path class="cls-3" d="M682.04,253.22c-.88-4.53,1.16-8.58,5.75-9.48,3.61-.7,6.19.95,7.15,3.72l-1.9.37c-.74-1.85-2.53-2.87-4.97-2.4-3.39.66-4.76,3.77-4.05,7.4.73,3.78,3.32,5.92,6.54,5.29,2.92-.57,3.91-2.82,3.66-5.13l1.92-.37c.28,1.54-.12,3.41-1.01,4.7-.87,1.27-2.34,2.14-4.31,2.52-4.38.85-7.88-1.94-8.79-6.63Z"/><path class="cls-3" d="M696.5,242.5l1.75-.31,2.69,15.49-1.75.31-2.69-15.49Z"/><path class="cls-3" d="M701.8,251.76c-.51-3.26,1.16-6.24,4.5-6.76,3.37-.53,5.83,1.8,6.34,5.06s-1.11,6.23-4.48,6.76c-3.35.53-5.85-1.8-6.36-5.06ZM710.84,250.34c-.39-2.48-1.92-4.26-4.31-3.89s-3.32,2.55-2.93,5.02,1.94,4.24,4.33,3.86,3.3-2.52,2.91-5Z"/><path class="cls-3" d="M722.4,254.46l-.21-1.55h-.04c-.66,1.2-1.52,2.05-3.16,2.27-2.31.31-3.98-.89-4.29-3.22l-1.04-7.81,1.77-.24,1.04,7.76c.2,1.46,1.25,2.19,2.84,1.97,1.79-.24,2.76-1.75,2.52-3.53l-.93-6.93,1.77-.24,1.51,11.27-1.77.24Z"/><path class="cls-3" d="M725.21,248.39c-.42-3.76,1.5-6.19,4.3-6.5,1.6-.18,2.91.47,3.75,1.47h.04s-.66-5.93-.66-5.93l1.77-.2,1.73,15.63-1.77.2-.15-1.38h-.04c-.73,1.19-1.71,1.92-3.31,2.1-3.08.34-5.26-1.76-5.67-5.39ZM733.88,247.45c-.29-2.62-1.76-4.32-4.1-4.06-2.14.24-3.02,2.28-2.74,4.82.28,2.56,1.59,4.32,3.75,4.08,2.51-.28,3.38-2.28,3.09-4.84Z"/><path class="cls-3" d="M745.5,236.25l2.21-.17,7.01,15.23-2.15.17-2.04-4.65-6.25.49-1.32,4.91-2.02.16,4.54-16.13ZM744.73,245.67l5.13-.4-2.21-5.12c-.38-.85-.87-2.16-.87-2.16h-.04s-.31,1.35-.55,2.27l-1.45,5.41Z"/><path class="cls-3" d="M757.31,241.29h.04c.76-1.12,1.86-1.86,3.51-1.95,2.37-.13,3.89,1.09,4.02,3.45l.42,7.98-1.78.09-.41-7.82c-.08-1.47-1.09-2.26-2.69-2.17-1.8.09-3.05,1.44-2.95,3.31l.37,6.99-1.78.09-.6-11.36,1.78-.09.08,1.49Z"/><path class="cls-3" d="M774.48,248.86h-.02c-.65.9-1.79,1.86-3.73,1.92-2.15.07-3.88-.89-3.95-3.05-.08-2.68,2.01-3.3,4.83-3.83,1.6-.29,2.71-.48,2.68-1.71-.04-1.28-.99-1.97-2.61-1.92-1.85.06-2.75.88-2.76,2.6l-1.71.05c0-2.2,1.4-3.9,4.41-3.99,2.42-.08,4.23.77,4.31,3.47l.17,5.41c.03.92.26,1.42,1.25,1.17h.07s.04,1.3.04,1.3c-.22.09-.5.19-.96.21-1.17.04-1.8-.47-2.01-1.63ZM774.45,246.25l-.06-1.94c-.58.39-1.61.71-2.57.92-1.77.39-3.19.74-3.14,2.41.05,1.52,1.25,1.81,2.41,1.77,2.37-.07,3.4-1.84,3.36-3.16Z"/><path class="cls-3" d="M778.55,234.63l1.78-.03.25,15.73-1.78.03-.25-15.73Z"/><path class="cls-3" d="M782.89,253.87l-.03-1.58h.09c.24.13.62.23,1.21.22.75-.01,1.25-.31,1.67-1.41l.42-1.13-4.62-10.97,1.94-.03,2.8,7.04c.37.94.81,2.21.81,2.21h.04s.38-1.28.71-2.24l2.48-7.13,1.89-.03-4.67,12.38c-.89,2.37-1.76,2.87-3.15,2.89-.68.01-1.12-.03-1.61-.22Z"/><path class="cls-3" d="M792.92,246.58l1.83.03c.21,1.98,1.52,2.56,3.21,2.59,1.87.03,2.66-.77,2.67-1.82.02-1.28-.85-1.62-2.93-2.1-2.24-.5-4.23-1-4.18-3.49.03-1.89,1.51-3.1,4.15-3.05,2.82.05,4.18,1.42,4.4,3.65l-1.83-.03c-.15-1.5-.95-2.17-2.65-2.2-1.63-.03-2.3.69-2.32,1.59-.02,1.23,1.07,1.49,3.02,1.93,2.28.5,4.19,1.04,4.14,3.66-.04,2.29-1.93,3.42-4.55,3.37-3.12-.06-4.84-1.56-4.97-4.12Z"/><path class="cls-3" d="M803.48,239.11l1.65.06.12-3.58,1.78.06-.12,3.58,2.2.08-.05,1.45-2.2-.08-.25,7.39c-.03.79.38,1.07,1.11,1.09.35.01.75-.06.95-.12h.07s-.05,1.54-.05,1.54c-.42.07-.91.12-1.43.1-1.45-.05-2.49-.68-2.43-2.28l.26-7.78-1.65-.06.05-1.45Z"/><path class="cls-3" d="M814.19,235.14l12.43.75-.11,1.73-5.23-.32-.84,13.97-1.98-.12.84-13.96-5.23-.32.11-1.73Z"/><path class="cls-3" d="M824.68,245.85c.26-3.29,2.63-5.79,5.85-5.53,3.4.27,5.01,3.05,4.71,6.8l-8.77-.7c-.05,2.31,1.06,4.17,3.34,4.35,1.64.13,2.8-.57,3.32-2.07l1.73.14c-.72,2.39-2.61,3.63-5.17,3.43-3.46-.28-5.27-3.11-5-6.4ZM826.62,245.07l6.82.55c.07-2.27-.98-3.74-3.02-3.9-2.1-.17-3.37,1.32-3.8,3.36Z"/><path class="cls-3" d="M843.57,251.65h-.02c-.77.8-2.02,1.6-3.95,1.41-2.14-.22-3.73-1.4-3.51-3.54.27-2.67,2.43-3,5.3-3.15,1.62-.08,2.75-.12,2.88-1.34.13-1.27-.71-2.09-2.33-2.25-1.84-.19-2.84.5-3.08,2.21l-1.71-.17c.29-2.18,1.9-3.67,4.9-3.37,2.41.25,4.09,1.33,3.81,4.02l-.55,5.38c-.09.92.07,1.44,1.08,1.33h.07s-.13,1.3-.13,1.3c-.23.07-.52.12-.98.08-1.16-.12-1.72-.71-1.77-1.88ZM843.88,249.05l.2-1.93c-.63.31-1.69.49-2.67.57-1.81.15-3.26.31-3.43,1.97-.15,1.51.99,1.96,2.15,2.08,2.36.24,3.61-1.38,3.75-2.69Z"/><path class="cls-3" d="M849.01,242.36l1.77.23-.21,1.61h.04c.84-.99,2.14-1.62,3.56-1.44,1.38.18,2.38,1.02,2.68,2.39h.04c.89-1.19,2.33-1.73,3.71-1.55,2.01.26,3.26,1.74,2.95,4.07l-1.04,7.92-1.77-.23,1.02-7.83c.18-1.4-.65-2.35-1.78-2.5-1.46-.19-2.94.9-3.17,2.67l-.92,7.03-1.77-.23,1.02-7.83c.18-1.4-.49-2.33-1.65-2.48-1.37-.18-3.07.89-3.3,2.65l-.92,7.03-1.77-.23,1.48-11.28Z"/><path class="cls-4" d="M872.32,249.93c.24-1.41,1.59-2.39,3.02-2.15,1.41.24,2.36,1.6,2.12,3.01-.24,1.41-1.58,2.37-2.99,2.13-1.43-.24-2.39-1.59-2.15-3Z"/><path class="cls-3" d="M888.44,244.03l2.48.52,2.33,13.84h.04s7.62-11.76,7.62-11.76l2.52.52-3.21,15.4-1.85-.39,2.64-12.67h-.04s-.66,1.11-1.09,1.79l-6.46,9.85-1.49-.31-1.99-11.61c-.14-.84-.29-2.08-.29-2.08h-.04s-2.64,12.66-2.64,12.66l-1.75-.36,3.21-15.41Z"/><path class="cls-3" d="M905.29,252.1l1.74.4-2.56,11.08-1.74-.4,2.56-11.08ZM906.28,247.85l1.74.4-.5,2.14-1.74-.4.5-2.14Z"/><path class="cls-3" d="M906.97,260.35l1.77.44c-.24,1.98.91,2.83,2.56,3.24,1.82.45,2.76-.16,3.01-1.18.31-1.24-.47-1.77-2.39-2.7-2.07-.99-3.9-1.91-3.31-4.33.45-1.84,2.16-2.69,4.72-2.05,2.73.67,3.76,2.31,3.48,4.53l-1.77-.44c.19-1.5-.45-2.33-2.09-2.74-1.58-.39-2.4.16-2.61,1.03-.29,1.2.71,1.69,2.52,2.55,2.11,1,3.85,1.95,3.22,4.49-.55,2.22-2.64,2.91-5.18,2.28-3.03-.75-4.37-2.59-3.93-5.11Z"/><path class="cls-3" d="M917.17,262.88l1.76.47c-.28,1.98.85,2.85,2.49,3.29,1.81.48,2.76-.1,3.04-1.12.33-1.23-.43-1.78-2.34-2.75-2.05-1.03-3.86-1.99-3.22-4.4.49-1.83,2.21-2.64,4.76-1.96,2.72.73,3.71,2.39,3.39,4.6l-1.76-.47c.22-1.49-.4-2.34-2.03-2.78-1.57-.42-2.4.11-2.63.98-.32,1.19.68,1.71,2.47,2.6,2.09,1.04,3.81,2.03,3.13,4.55-.59,2.21-2.7,2.85-5.23,2.17-3.02-.81-4.32-2.69-3.82-5.2Z"/><path class="cls-3" d="M930.13,258.45l1.71.49-3.11,10.94-1.71-.49,3.11-10.94ZM931.32,254.26l1.71.49-.6,2.12-1.71-.49.6-2.12Z"/><path class="cls-3" d="M932.02,264.88c.95-3.16,3.75-5.12,7-4.15,3.27.98,4.47,4.15,3.52,7.31-.95,3.16-3.71,5.13-6.97,4.15-3.25-.98-4.49-4.16-3.54-7.32ZM940.78,267.52c.72-2.4.12-4.68-2.2-5.37s-4.1.86-4.82,3.26c-.72,2.4-.09,4.66,2.22,5.36,2.32.7,4.07-.84,4.79-3.25Z"/><path class="cls-3" d="M947.28,265.17h.04c1.11-.76,2.41-1.05,3.98-.54,2.26.74,3.23,2.42,2.5,4.66l-2.48,7.59-1.69-.55,2.43-7.44c.46-1.4-.2-2.5-1.73-3-1.71-.56-3.37.24-3.95,2.02l-2.17,6.65-1.69-.55,3.53-10.81,1.69.55-.46,1.42Z"/><path class="cls-3" d="M959.12,271.2c1.58-4.34,5.42-6.76,9.82-5.16,3.45,1.26,4.82,4,4.21,6.88l-1.82-.66c.32-1.97-.69-3.76-3.03-4.62-3.25-1.18-6.02.78-7.29,4.25-1.32,3.62-.2,6.79,2.88,7.91,2.79,1.02,4.81-.4,5.79-2.51l1.84.67c-.56,1.46-1.86,2.86-3.29,3.51-1.4.64-3.11.62-4.99-.06-4.2-1.53-5.76-5.73-4.12-10.22Z"/><path class="cls-3" d="M972.75,278.56c1.21-3.07,4.16-4.79,7.32-3.54,3.17,1.25,4.11,4.51,2.9,7.58-1.21,3.07-4.12,4.81-7.29,3.55-3.15-1.25-4.13-4.52-2.92-7.59ZM981.26,281.92c.92-2.33.51-4.65-1.74-5.54s-4.15.51-5.08,2.84c-.92,2.33-.48,4.63,1.77,5.52s4.12-.5,5.05-2.83Z"/><path class="cls-3" d="M987.93,280.12l.04.02c1.17-.68,2.49-.86,4.01-.22,2.19.92,3.02,2.69,2.1,4.85l-3.11,7.36-1.64-.69,3.05-7.21c.57-1.36,0-2.5-1.47-3.13-1.66-.7-3.37-.04-4.1,1.68l-2.72,6.44-1.64-.69,4.43-10.48,1.64.69-.58,1.38Z"/><path class="cls-3" d="M996.82,282.28l1.51.67,1.45-3.28,1.63.72-1.45,3.28,2.01.89-.59,1.33-2.01-.89-2.99,6.76c-.32.72-.05,1.13.62,1.43.32.14.72.22.93.24l.06.03-.62,1.41c-.42-.09-.89-.22-1.37-.44-1.33-.59-2.05-1.56-1.4-3.03l3.15-7.12-1.51-.67.59-1.33Z"/><path class="cls-3" d="M1004.57,287.83l.04.02c1.08-.71,2.54-1.06,3.92-.42.3.14.44.25.6.42l-.72,1.56-.06-.03c-.2-.19-.35-.28-.67-.43-1.6-.74-3.55-.18-4.44,1.76l-2.64,5.74-1.62-.75,4.76-10.33,1.62.75-.79,1.72Z"/><path class="cls-3" d="M1007.29,293.25c1.44-2.97,4.51-4.47,7.56-3,3.07,1.48,3.77,4.8,2.33,7.77-1.43,2.97-4.46,4.49-7.54,3.01-3.05-1.47-3.79-4.81-2.35-7.78ZM1015.53,297.23c1.09-2.26.85-4.6-1.33-5.65s-4.18.21-5.27,2.47c-1.09,2.26-.82,4.59,1.36,5.64s4.15-.2,5.24-2.46Z"/><path class="cls-3" d="M1023.34,289.9l1.59.8-7.06,14.05-1.59-.8,7.06-14.05Z"/><path class="cls-4" d="M1029.19,302.54c.67-1.26,2.26-1.76,3.54-1.08,1.26.67,1.73,2.27,1.06,3.53-.67,1.26-2.25,1.74-3.51,1.07-1.28-.68-1.76-2.26-1.09-3.52Z"/><path class="cls-3" d="M1046.27,302.05l4.95,2.86c4.09,2.37,4.43,6.27,2.07,10.35s-5.99,5.56-10.08,3.19l-4.82-2.79,7.88-13.62ZM1044.02,316.91c3.2,1.85,5.67.53,7.52-2.67s1.96-6.03-1.24-7.88l-3.18-1.84-6.15,10.63,3.05,1.76Z"/><path class="cls-3" d="M1053.5,317.9c1.73-2.81,4.97-3.97,7.72-2.27,2.9,1.79,3.08,4.99,1.11,8.19l-7.5-4.61c-1.1,2.04-.95,4.19,1,5.39,1.41.86,2.76.77,3.9-.34l1.48.91c-1.73,1.8-3.97,2.05-6.16.7-2.96-1.82-3.28-5.17-1.55-7.98ZM1055.58,318.09l5.83,3.58c1.09-1.99.83-3.78-.92-4.85-1.8-1.11-3.6-.36-4.91,1.27Z"/><path class="cls-3" d="M1065.96,318.87l1.61,1.04-1.92,7.34c-.27,1.03-.67,2.42-.67,2.42l.04.02s1.11-.96,1.93-1.61l5.92-4.77,1.55,1-9.6,7.35-1.67-1.07,2.8-11.72Z"/><path class="cls-3" d="M1073.4,327.79c2.65-3.89,7.06-5.12,10.98-2.44,3.93,2.68,4.39,7.23,1.74,11.12s-7.06,5.12-10.98,2.44c-3.92-2.68-4.39-7.23-1.74-11.12ZM1084.45,335.33c2.08-3.05,2.02-6.48-1.03-8.56-3.05-2.08-6.26-.89-8.34,2.16-2.08,3.05-2.01,6.46,1.05,8.54,3.05,2.08,6.25.91,8.33-2.15Z"/><path class="cls-3" d="M1089.95,334.93l1.44,1.04-.94,1.3.04.03c1.38-.44,2.72-.34,4.05.63,2.33,1.69,2.67,4.64.45,7.71-2.14,2.96-5.02,3.75-7.52,1.95-1.25-.9-1.87-1.92-1.92-3.46l-.04-.03-2.93,4.05-1.44-1.04,8.81-12.17ZM1093.5,344.58c1.5-2.07,1.76-4.27,0-5.53-2.01-1.46-4.13-.49-5.57,1.51-1.44,2-1.82,4.2.31,5.73,1.76,1.28,3.75.38,5.25-1.71Z"/><path class="cls-3" d="M1094.71,347.87l1.46,1.1c-1,1.72-.28,2.96,1.07,3.98,1.49,1.13,2.6.95,3.23.1.77-1.02.27-1.81-1.13-3.42-1.51-1.72-2.83-3.3-1.32-5.28,1.14-1.51,3.04-1.61,5.15-.02,2.24,1.7,2.54,3.61,1.41,5.54l-1.46-1.1c.76-1.3.51-2.32-.84-3.34-1.3-.98-2.26-.8-2.81-.08-.74.98-.01,1.84,1.31,3.34,1.54,1.75,2.76,3.31,1.18,5.4-1.38,1.82-3.58,1.62-5.66.04-2.49-1.89-2.98-4.11-1.58-6.25Z"/><path class="cls-3" d="M1114.18,347.62l4.45,3.6c3.68,2.98,3.4,6.88.44,10.54-2.96,3.66-6.78,4.56-10.46,1.59l-4.33-3.5,9.89-12.23ZM1109.66,361.96c2.87,2.32,5.51,1.4,7.84-1.47,2.33-2.87,2.88-5.65,0-7.98l-2.86-2.31-7.72,9.54,2.74,2.21Z"/><path class="cls-3" d="M1118.87,364.4c2.14-2.51,5.52-3.15,7.98-1.06,2.59,2.21,2.27,5.4-.17,8.27l-6.7-5.71c-1.4,1.84-1.58,4,.16,5.48,1.25,1.07,2.61,1.18,3.91.27l1.32,1.13c-1.99,1.52-4.24,1.41-6.2-.25-2.64-2.25-2.44-5.61-.3-8.12ZM1120.89,364.91l5.21,4.44c1.39-1.8,1.4-3.61-.16-4.93-1.61-1.37-3.5-.91-5.05.5Z"/><path class="cls-3" d="M1126.43,373.46l1.36,1.21c-1.14,1.64-.52,2.93.75,4.06,1.4,1.24,2.51,1.15,3.22.36.85-.95.41-1.79-.86-3.5-1.37-1.84-2.56-3.51-.9-5.37,1.26-1.41,3.16-1.37,5.13.39,2.1,1.87,2.25,3.8.97,5.63l-1.36-1.21c.86-1.23.69-2.27-.57-3.4-1.22-1.08-2.19-.98-2.79-.31-.82.92-.16,1.83,1.04,3.43,1.4,1.87,2.5,3.52.75,5.47-1.52,1.71-3.69,1.34-5.65-.41-2.33-2.08-2.65-4.33-1.08-6.36Z"/><path class="cls-3" d="M1139,381.51l-2.3.02-3.1,3.34-1.31-1.21,10.7-11.53,1.31,1.21-6.27,6.76,6.97-.17,1.66,1.54-5.98.04-1.37,8.66-1.53-1.42,1.22-7.24Z"/><path class="cls-4" d="M665.74,207.22l6-1.2,5.09,9.96c1.27,2.5,2.46,5.41,2.46,5.41h.06s-.05-3.15.15-5.95l.85-11.16,6.09-1.22,4.22,21.03-3.97.8-2.42-12.06c-.34-1.71-.7-4.39-.7-4.39h-.06s.03,2.58-.11,4.2l-1.13,13.14-4.09.82-6.02-11.71c-.75-1.44-1.71-3.82-1.71-3.82h-.06s.71,2.62,1.05,4.33l2.42,12.06-3.91.79-4.22-21.03Z"/><path class="cls-4" d="M689.86,202.56l4.02-.69.62,3.61-4.02.69-.62-3.61ZM690.88,208.53l4.02-.69,2.6,15.17-4.02.69-2.6-15.17Z"/><path class="cls-4" d="M698.3,217.8l3.74-.56c.53,1.71,1.89,2.29,3.7,2.02,1.78-.27,2.69-1.1,2.52-2.17-.22-1.45-2.17-1.31-4.31-1.41-2.81-.12-5.59-.46-6.09-3.78-.5-3.29,1.99-5.28,5.46-5.8,4-.61,6.53,1.05,7.29,4.06l-3.65.55c-.42-1.6-1.55-2.04-3.27-1.78-1.57.24-2.52.99-2.35,2.09.2,1.31,2.23,1.12,4.47,1.24,2.63.15,5.56.43,6.1,3.99.46,3.06-1.87,5.29-5.67,5.86-4.42.67-7.21-1.09-7.93-4.29Z"/><path class="cls-4" d="M712.67,215.63l3.75-.47c.49,1.72,1.83,2.34,3.65,2.12,1.79-.22,2.71-1.03,2.58-2.1-.18-1.46-2.14-1.37-4.27-1.52-2.81-.19-5.58-.6-5.99-3.94-.41-3.3,2.13-5.22,5.61-5.66,4.02-.5,6.5,1.22,7.18,4.25l-3.66.46c-.38-1.61-1.5-2.08-3.23-1.87-1.58.2-2.55.92-2.41,2.02.16,1.31,2.2,1.18,4.43,1.35,2.63.22,5.54.58,5.99,4.15.38,3.07-2.01,5.24-5.82,5.71-4.44.55-7.17-1.28-7.82-4.5Z"/><path class="cls-4" d="M726.35,197.4l4.06-.43.38,3.64-4.06.43-.38-3.64ZM726.98,203.43l4.06-.43,1.6,15.3-4.06.43-1.6-15.3Z"/><path class="cls-4" d="M733.78,210.42c-.38-4.57,2.58-8.37,7.34-8.77,4.75-.4,8.3,2.86,8.69,7.43.38,4.57-2.58,8.37-7.34,8.77s-8.3-2.86-8.69-7.43ZM745.67,209.43c-.25-2.99-1.82-4.9-4.3-4.7-2.51.21-3.72,2.36-3.47,5.35.25,2.99,1.79,4.88,4.3,4.67,2.48-.21,3.72-2.33,3.47-5.32Z"/><path class="cls-4" d="M755.45,203.17h.09c.96-1.71,2.32-2.65,4.42-2.76,3.17-.17,5.43,2.12,5.6,5.47l.53,10.03-4.07.21-.5-9.44c-.09-1.65-1.11-2.77-2.81-2.68-1.8.09-3.04,1.6-2.93,3.7l.46,8.72-4.07.21-.81-15.37,3.98-.21.11,2.1Z"/><path class="cls-4" d="M772.7,205.06c-.1-6.36,3.78-11.28,10.11-11.39,5.28-.09,8.45,3.01,8.97,7.09l-4.32.07c-.43-2.15-2.07-3.54-4.59-3.5-3.96.06-5.8,3.4-5.73,7.66.07,4.38,2.4,7.49,6,7.43,2.55-.04,4.32-1.6,4.56-3.85l4.26-.07c-.09,1.89-.87,3.74-2.29,5.11-1.45,1.4-3.5,2.34-6.47,2.39-6.03.1-10.4-4.48-10.5-10.93Z"/><path class="cls-4" d="M794.24,194.09l4.08.07-.35,21.45-4.08-.07.35-21.45Z"/><path class="cls-4" d="M800.09,207.91c.16-4.59,3.56-8.01,8.33-7.84s7.91,3.82,7.75,8.41c-.16,4.59-3.56,8.01-8.33,7.84-4.77-.17-7.91-3.82-7.75-8.41ZM812.03,208.34c.11-3-1.23-5.09-3.72-5.18-2.52-.09-3.97,1.9-4.08,4.9-.11,3,1.2,5.06,3.72,5.15,2.49.09,3.97-1.87,4.08-4.87Z"/><path class="cls-4" d="M827.3,216.9l.12-1.8h-.09c-1.14,1.33-2.39,2.06-4.55,1.92-3.41-.22-5.19-2.54-4.96-5.89l.67-10.24,4.04.27-.63,9.55c-.12,1.8.62,2.84,2.36,2.95,1.92.13,3.18-1.23,3.31-3.27l.58-8.86,4.07.27-1.01,15.36-3.92-.26Z"/><path class="cls-4" d="M833.69,209.64c.46-4.78,3.5-7.83,7.32-7.46,2.15.21,3.4,1.32,4.11,2.69h.09s.76-7.88.76-7.88l4.06.39-2.05,21.35-3.91-.38.19-2h-.06c-1.04,1.37-2.65,2.21-4.8,2-3.85-.37-6.18-3.76-5.7-8.71ZM844.73,210.79c.28-2.93-.49-4.99-3.08-5.24-2.24-.22-3.56,1.65-3.84,4.48-.28,2.96.71,4.8,2.8,5,2.42.23,3.84-1.44,4.11-4.25Z"/><path class="cls-4" d="M856.31,208.88c.9-6.36,5.55-10.52,11.81-9.63s9.55,6.17,8.65,12.52c-.9,6.36-5.51,10.49-11.78,9.61-6.27-.89-9.59-6.14-8.69-12.5ZM872.38,211.15c.6-4.25-.84-7.81-4.73-8.36s-6.35,2.47-6.95,6.72c-.6,4.22.93,7.8,4.82,8.35,3.89.55,6.26-2.48,6.85-6.7Z"/><path class="cls-4" d="M883.33,210.3l.09.02c1.32-1.44,2.86-2.05,4.93-1.69,3.13.55,4.81,3.29,4.22,6.6l-1.75,9.9-4.02-.71,1.65-9.31c.29-1.62-.45-2.94-2.14-3.24-1.77-.31-3.32.87-3.69,2.94l-1.52,8.6-4.02-.71,2.68-15.15,3.93.7-.37,2.07Z"/><path class="cls-4" d="M893.98,217.88c.93-4.46,4.68-7.3,9.08-6.38,4.85,1.01,6.66,5.25,5.54,10.62l-10.93-2.28c-.19,2.38.8,4.09,3.06,4.56,1.56.32,2.61-.19,3.29-1.24l3.94.82c-1.12,2.56-3.96,4.32-7.84,3.52-4.99-1.04-7.08-5.12-6.15-9.62ZM898.31,217.09l6.7,1.4c.28-1.93-.71-3.52-2.53-3.9-2.12-.44-3.41.61-4.17,2.5Z"/><path class="cls-3" d="M533.81,170.72l1.78-.75c1.27,2.35,3.31,3,6.05,1.85,2.01-.84,3.06-2.36,2.31-4.16-.83-1.99-2.77-1.72-5.61-1.2-2.79.51-5.29.69-6.44-2.04-1-2.39.38-4.67,3.32-5.9,3.63-1.52,5.91-.31,7.39,2.21l-1.72.72c-1.13-1.96-2.9-2.43-5.03-1.54-1.97.83-2.92,2.2-2.29,3.7.69,1.64,2.52,1.45,4.86.96,3.06-.62,5.92-1.01,7.29,2.26,1.14,2.72-.43,5.17-3.55,6.48-4.08,1.71-6.98.26-8.36-2.59Z"/><path class="cls-3" d="M546.48,165.05c-1.22-3.07-.2-6.36,2.81-7.55,3.17-1.26,5.84.53,7.22,4.02l-8.18,3.24c.97,2.1,2.79,3.27,4.91,2.43,1.53-.61,2.26-1.75,2.07-3.33l1.62-.64c.41,2.46-.74,4.41-3.13,5.36-3.23,1.28-6.1-.47-7.32-3.54ZM547.88,163.5l6.36-2.52c-.94-2.07-2.53-2.92-4.43-2.17-1.96.78-2.44,2.67-1.93,4.69Z"/><path class="cls-3" d="M557.43,160.72c-1.16-3.09-.13-6.35,3.05-7.54,2.51-.94,4.72-.13,5.94,2l-1.69.63c-.79-1.35-2.13-1.86-3.74-1.25-2.27.85-2.74,3.17-1.85,5.52.88,2.35,2.75,3.76,5.02,2.91,1.73-.65,2.39-2.03,1.91-3.73l1.65-.62c.73,2.64-.38,4.75-3.04,5.75-3.17,1.19-6.09-.58-7.25-3.67Z"/><path class="cls-3" d="M577.48,159.42l-.52-1.47h-.04c-.4,1.32-1.07,2.33-2.62,2.88-2.2.78-4.08-.05-4.87-2.27l-2.63-7.42,1.68-.6,2.62,7.38c.49,1.39,1.67,1.88,3.19,1.35,1.7-.6,2.34-2.28,1.74-3.98l-2.34-6.59,1.68-.6,3.8,10.72-1.68.6Z"/><path class="cls-3" d="M580.03,148.51h.04c.29-1.27,1.12-2.53,2.56-3.02.31-.11.49-.12.73-.11l.55,1.63-.06.02c-.28,0-.45.04-.79.15-1.67.56-2.7,2.31-2.02,4.33l2.02,5.98-1.69.57-3.64-10.78,1.69-.57.61,1.79Z"/><path class="cls-3" d="M583.62,140.72l1.69-.55.69,2.09-1.69.56-.69-2.09ZM584.98,144.86l1.69-.55,3.54,10.81-1.69.55-3.54-10.81Z"/><path class="cls-3" d="M588.33,143.75l1.57-.5-1.09-3.42,1.7-.54,1.09,3.42,2.1-.67.44,1.38-2.1.67,2.25,7.04c.24.75.72.88,1.41.66.34-.11.69-.31.85-.43l.06-.02.47,1.47c-.37.21-.81.42-1.32.58-1.38.44-2.57.2-3.06-1.33l-2.37-7.42-1.57.5-.44-1.38Z"/><path class="cls-3" d="M599.73,155.76l-.46-1.52.08-.03c.27.06.66.05,1.23-.12.72-.22,1.12-.64,1.22-1.82l.1-1.2-7.46-9.28,1.85-.56,4.63,6c.61.8,1.38,1.9,1.38,1.9h.04s0-1.35.07-2.36l.43-7.53,1.81-.55-1.08,13.18c-.2,2.52-.9,3.24-2.23,3.64-.65.2-1.09.28-1.61.23Z"/><path class="cls-3" d="M610.02,140.75c-1.24-4.54.68-8.7,5.26-9.95,4.58-1.26,8.35,1.34,9.6,5.88,1.24,4.54-.68,8.7-5.26,9.95-4.58,1.26-8.35-1.34-9.6-5.88ZM622.92,137.22c-.98-3.57-3.62-5.74-7.19-4.76-3.57.98-4.74,4.2-3.76,7.76.98,3.57,3.62,5.72,7.19,4.74,3.57-.98,4.74-4.17,3.77-7.74Z"/><path class="cls-3" d="M626.14,132.78l1.73-.43.39,1.56h.04c.55-1.35,1.49-2.31,3.09-2.71,2.8-.7,5.27.95,6.19,4.62.88,3.54-.37,6.26-3.35,7-1.49.37-2.67.19-3.88-.75h-.04s1.21,4.86,1.21,4.86l-1.73.43-3.64-14.58ZM635.81,136.28c-.62-2.48-2.13-4.09-4.22-3.57-2.41.6-3.03,2.84-2.44,5.23.6,2.39,2.04,4.09,4.58,3.46,2.11-.53,2.7-2.62,2.08-5.12Z"/><path class="cls-3" d="M638.71,135.53c-.74-3.22.76-6.31,3.92-7.04,3.32-.76,5.69,1.4,6.53,5.07l-8.58,1.97c.64,2.22,2.26,3.66,4.49,3.15,1.61-.37,2.5-1.39,2.54-2.98l1.69-.39c.03,2.5-1.4,4.25-3.9,4.82-3.39.78-5.96-1.39-6.7-4.6ZM640.33,134.21l6.67-1.53c-.61-2.18-2.06-3.27-4.05-2.82-2.06.47-2.82,2.27-2.61,4.34Z"/><path class="cls-3" d="M651.75,128.7h.04c.44-1.23,1.41-2.38,2.89-2.7.32-.07.5-.06.74-.02l.36,1.68h-.06c-.28-.02-.45,0-.8.07-1.72.37-2.95,1.98-2.51,4.07l1.32,6.17-1.74.37-2.37-11.12,1.74-.37.4,1.85Z"/><path class="cls-3" d="M665.43,133.96h-.02c-.5,1-1.46,2.13-3.36,2.51-2.11.42-3.97-.24-4.39-2.36-.52-2.63,1.44-3.58,4.14-4.57,1.53-.55,2.6-.92,2.36-2.13-.25-1.25-1.3-1.78-2.89-1.47-1.81.36-2.56,1.32-2.29,3.01l-1.68.33c-.36-2.17.74-4.07,3.69-4.66,2.37-.47,4.3.07,4.82,2.72l1.05,5.31c.18.91.49,1.36,1.42.95h.06s.25,1.26.25,1.26c-.2.13-.46.27-.92.36-1.14.23-1.85-.17-2.25-1.28ZM664.96,131.38l-.38-1.9c-.51.48-1.47.96-2.38,1.33-1.68.67-3.03,1.25-2.7,2.89.3,1.49,1.53,1.58,2.67,1.35,2.33-.46,3.05-2.38,2.79-3.67Z"/><path class="cls-3" d="M666.84,123.71l1.62-.3-.65-3.53,1.75-.32.65,3.53,2.16-.4.26,1.43-2.16.4,1.34,7.27c.14.78.6.96,1.32.83.35-.06.72-.22.9-.32h.06s.28,1.5.28,1.5c-.4.16-.86.32-1.38.41-1.43.26-2.57-.13-2.87-1.71l-1.42-7.66-1.62.3-.26-1.43Z"/><path class="cls-3" d="M673.51,118.07l1.75-.31.38,2.17-1.75.31-.38-2.17ZM674.26,122.36l1.75-.31,1.97,11.2-1.75.31-1.97-11.2Z"/><path class="cls-3" d="M678.81,127.33c-.53-3.26,1.13-6.24,4.47-6.79,3.37-.55,5.84,1.77,6.37,5.03.53,3.26-1.08,6.24-4.45,6.78-3.34.54-5.86-1.77-6.39-5.02ZM687.84,125.86c-.4-2.48-1.94-4.25-4.33-3.87-2.39.39-3.31,2.56-2.9,5.04.4,2.48,1.96,4.23,4.35,3.84,2.39-.39,3.29-2.54,2.89-5.01Z"/><path class="cls-3" d="M692.59,120.89h.04c.65-1.19,1.69-2.03,3.32-2.26,2.35-.34,3.97.74,4.31,3.07l1.14,7.9-1.76.25-1.11-7.75c-.21-1.46-1.29-2.15-2.88-1.92-1.79.26-2.91,1.71-2.64,3.56l.99,6.92-1.76.25-1.62-11.26,1.76-.25.21,1.48Z"/><path class="cls-3" d="M702.48,125.73l1.81-.23c.49,1.93,1.87,2.31,3.55,2.1,1.85-.23,2.52-1.14,2.38-2.18-.16-1.27-1.07-1.48-3.2-1.66-2.28-.18-4.33-.39-4.64-2.85-.24-1.88,1.05-3.28,3.67-3.61,2.79-.35,4.33.81,4.87,2.98l-1.81.23c-.36-1.46-1.25-2.01-2.93-1.8-1.61.2-2.18,1.01-2.07,1.9.15,1.22,1.27,1.32,3.27,1.47,2.33.17,4.29.44,4.62,3.03.29,2.27-1.42,3.66-4.02,3.99-3.1.39-5.01-.85-5.5-3.36Z"/><path class="cls-3" d="M716.37,119.8c-.46-4.6,1.94-8.44,6.61-8.91,3.66-.36,6.08,1.52,6.78,4.37l-1.93.19c-.57-1.91-2.25-3.09-4.73-2.85-3.44.34-5.09,3.32-4.72,6.99.38,3.83,2.76,6.2,6.03,5.88,2.96-.29,4.16-2.45,4.12-4.77l1.95-.19c.13,1.56-.44,3.38-1.44,4.59-.99,1.18-2.53,1.91-4.52,2.11-4.44.44-7.67-2.66-8.15-7.41Z"/><path class="cls-3" d="M731.86,120.5c-.26-3.29,1.68-6.13,4.9-6.39,3.4-.27,5.43,2.22,5.72,5.97l-8.77.69c.31,2.29,1.7,3.95,3.98,3.77,1.64-.13,2.68-1,2.95-2.57l1.73-.14c-.33,2.48-2,4-4.57,4.2-3.46.27-5.69-2.24-5.95-5.53ZM733.65,119.43l6.82-.54c-.29-2.25-1.56-3.54-3.6-3.38-2.1.17-3.12,1.83-3.22,3.92Z"/><path class="cls-3" d="M745.72,115.25h.04c.75-1.13,1.85-1.88,3.49-1.98,2.37-.14,3.9,1.06,4.04,3.41l.48,7.97-1.78.11-.47-7.82c-.09-1.47-1.11-2.25-2.71-2.15-1.8.11-3.04,1.46-2.93,3.33l.42,6.98-1.78.11-.69-11.35,1.78-.11.09,1.49Z"/><path class="cls-3" d="M754.61,113.24l1.65-.08-.17-3.58,1.78-.08.17,3.58,2.2-.1.07,1.45-2.2.1.34,7.38c.04.79.47,1.04,1.19,1,.35-.02.74-.12.94-.2h.07s.07,1.54.07,1.54c-.41.11-.89.2-1.42.22-1.45.07-2.53-.48-2.61-2.08l-.36-7.78-1.65.08-.07-1.45Z"/><path class="cls-3" d="M761.62,118.61c-.11-3.3,1.96-6.05,5.19-6.16,3.41-.11,5.32,2.47,5.44,6.23l-8.8.29c.21,2.3,1.52,4.02,3.8,3.95,1.65-.05,2.72-.88,3.07-2.43l1.74-.06c-.45,2.46-2.18,3.9-4.76,3.98-3.47.11-5.58-2.5-5.69-5.8ZM763.46,117.62l6.84-.22c-.18-2.26-1.39-3.61-3.44-3.54-2.11.07-3.2,1.69-3.4,3.77Z"/><path class="cls-3" d="M775.75,114.4h.04c.66-1.11,1.83-2.06,3.35-2.08.33,0,.51.04.73.12l.03,1.72h-.07c-.27-.08-.44-.1-.79-.1-1.76.03-3.28,1.38-3.24,3.51l.11,6.31-1.78.03-.2-11.38,1.78-.03.03,1.89Z"/><path class="cls-4" d="M788.19,116.58c.02-1.43,1.21-2.6,2.66-2.58,1.43.02,2.58,1.23,2.55,2.66-.02,1.43-1.21,2.58-2.64,2.56-1.45-.02-2.6-1.21-2.58-2.64Z"/><path class="cls-3" d="M802.11,116c.15-4.62,3.03-8.11,7.72-7.96,3.67.12,5.83,2.3,6.15,5.21l-1.93-.06c-.31-1.97-1.83-3.36-4.31-3.44-3.45-.11-5.48,2.62-5.59,6.31-.12,3.85,1.93,6.51,5.2,6.61,2.97.09,4.44-1.88,4.71-4.19l1.96.06c-.07,1.56-.88,3.3-2.03,4.36-1.13,1.04-2.76,1.56-4.76,1.5-4.46-.14-7.26-3.64-7.1-8.42Z"/><path class="cls-3" d="M817.34,118.72c.18-3.3,2.43-5.86,5.81-5.68,3.41.18,5.33,2.97,5.15,6.27-.18,3.3-2.38,5.87-5.79,5.68-3.38-.18-5.35-2.97-5.17-6.27ZM826.48,119.21c.13-2.5-.99-4.57-3.41-4.7s-3.78,1.8-3.91,4.31,1.01,4.55,3.43,4.68,3.75-1.78,3.89-4.29Z"/><path class="cls-3" d="M832.21,115.36h.04c.89-1.01,2.08-1.61,3.72-1.49,2.37.17,3.73,1.57,3.56,3.92l-.57,7.96-1.78-.13.56-7.81c.11-1.47-.8-2.37-2.4-2.49-1.8-.13-3.21,1.05-3.34,2.91l-.5,6.98-1.78-.13.81-11.34,1.78.13-.11,1.49Z"/><path class="cls-3" d="M841.28,114.53l1.64.14.31-3.57,1.78.15-.31,3.57,2.19.19-.12,1.45-2.19-.19-.63,7.37c-.07.79.33,1.09,1.05,1.15.35.03.75-.02.96-.07h.07s-.13,1.54-.13,1.54c-.42.05-.91.08-1.44.03-1.45-.12-2.45-.81-2.31-2.41l.67-7.76-1.64-.14.12-1.45Z"/><path class="cls-3" d="M848.78,115.2l1.77.17-1.07,11.32-1.77-.17,1.07-11.32ZM849.19,110.86l1.77.17-.21,2.19-1.77-.17.21-2.19Z"/><path class="cls-3" d="M854.7,117.26h.04c.92-.98,2.13-1.54,3.78-1.36,2.36.25,3.67,1.7,3.42,4.04l-.85,7.94-1.77-.19.83-7.79c.16-1.47-.72-2.4-2.32-2.57-1.79-.19-3.24.94-3.44,2.8l-.74,6.96-1.77-.19,1.21-11.31,1.77.19-.16,1.49Z"/><path class="cls-3" d="M870.53,129.04l.19-1.55h-.04c-.94.99-2,1.59-3.63,1.38-2.31-.29-3.62-1.87-3.33-4.21l.98-7.82,1.77.22-.97,7.77c-.18,1.46.65,2.43,2.24,2.63,1.79.22,3.12-.98,3.34-2.78l.87-6.94,1.77.22-1.41,11.29-1.77-.22Z"/><path class="cls-3" d="M874.82,123.86c.47-3.27,2.94-5.62,6.29-5.14,3.38.48,5.04,3.44,4.57,6.7-.47,3.27-2.9,5.63-6.27,5.14-3.35-.48-5.06-3.44-4.59-6.7ZM883.87,125.16c.36-2.48-.58-4.64-2.97-4.98-2.4-.34-3.92,1.46-4.28,3.94s.6,4.62,3,4.96,3.9-1.44,4.25-3.92Z"/><path class="cls-3" d="M893.69,132.46l.25-1.54h-.04c-.98.95-2.05,1.51-3.68,1.25-2.3-.37-3.55-2-3.18-4.33l1.26-7.77,1.76.29-1.25,7.73c-.24,1.45.56,2.45,2.15,2.71,1.78.29,3.15-.87,3.44-2.65l1.12-6.9,1.76.29-1.82,11.23-1.76-.29Z"/><path class="cls-3" d="M897.73,129.39l1.8.32c-.11,1.99,1.09,2.77,2.76,3.07,1.84.33,2.74-.33,2.93-1.37.23-1.26-.58-1.74-2.56-2.54-2.13-.85-4.02-1.66-3.58-4.11.33-1.86,1.98-2.82,4.58-2.35,2.77.5,3.9,2.06,3.77,4.3l-1.8-.32c.09-1.5-.59-2.3-2.26-2.6-1.6-.29-2.38.31-2.54,1.2-.22,1.21.82,1.65,2.68,2.38,2.17.86,3.96,1.7,3.5,4.27-.4,2.25-2.45,3.07-5.03,2.61-3.07-.55-4.52-2.31-4.25-4.85Z"/><path class="cls-3" d="M913.91,120.12l12.2,2.5-.35,1.7-5.13-1.05-2.81,13.7-1.94-.4,2.81-13.7-5.13-1.05.35-1.7Z"/><path class="cls-3" d="M928.43,129.14h.04c1.03-.86,2.3-1.28,3.91-.91,2.32.52,3.45,2.11,2.93,4.4l-1.76,7.79-1.74-.39,1.72-7.64c.32-1.44-.44-2.47-2-2.82-1.76-.4-3.33.56-3.74,2.38l-1.54,6.82-1.74-.39,3.46-15.34,1.74.39-1.29,5.71Z"/><path class="cls-3" d="M939.77,132.17h.04c.92-.9,2.29-1.52,3.77-1.16.32.08.48.16.67.3l-.4,1.67-.06-.02c-.24-.15-.4-.21-.74-.29-1.71-.41-3.52.51-4.02,2.58l-1.48,6.14-1.73-.42,2.67-11.05,1.73.42-.45,1.84Z"/><path class="cls-3" d="M943.44,136.96c.82-3.19,3.58-5.26,6.71-4.45,3.3.85,4.41,3.86,3.48,7.5l-8.52-2.19c-.45,2.27.33,4.29,2.54,4.86,1.6.41,2.86-.08,3.63-1.47l1.68.43c-1.12,2.23-3.19,3.13-5.68,2.49-3.37-.87-4.66-3.97-3.84-7.16ZM945.48,136.53l6.62,1.7c.46-2.22-.33-3.85-2.31-4.36-2.04-.53-3.55.72-4.32,2.66Z"/><path class="cls-3" d="M961.08,145.87h-.02c-.89.66-2.26,1.24-4.13.73-2.08-.57-3.44-2-2.87-4.08.71-2.59,2.9-2.56,5.75-2.22,1.61.19,2.74.34,3.06-.84.34-1.23-.36-2.18-1.93-2.61-1.78-.49-2.88.03-3.4,1.66l-1.65-.46c.65-2.1,2.49-3.31,5.39-2.5,2.33.64,3.81,1.99,3.09,4.6l-1.44,5.22c-.25.89-.17,1.44.84,1.49l.06.02-.35,1.25c-.24.03-.54.03-.98-.09-1.12-.31-1.58-.98-1.44-2.15ZM961.82,143.36l.52-1.87c-.67.2-1.75.2-2.73.11-1.81-.16-3.27-.24-3.71,1.37-.4,1.46.65,2.1,1.78,2.41,2.29.63,3.79-.76,4.14-2.03Z"/><path class="cls-3" d="M966.97,137.36l1.58.46,1-3.44,1.71.5-1,3.44,2.11.62-.41,1.39-2.11-.61-2.07,7.1c-.22.76.11,1.13.8,1.33.34.1.74.12.95.12l.06.02-.43,1.48c-.43-.03-.91-.1-1.42-.25-1.39-.41-2.24-1.27-1.79-2.81l2.18-7.48-1.58-.46.41-1.39Z"/><path class="cls-3" d="M979.25,136.42l1.89.6-2.02,6.38,8.01,2.54,2.02-6.38,1.89.6-4.75,15-1.89-.6,2.24-7.09-8.01-2.54-2.24,7.09-1.89-.6,4.75-15Z"/><path class="cls-3" d="M995.61,158.3l.5-1.48h-.04c-1.12.77-2.27,1.14-3.84.61-2.21-.75-3.17-2.56-2.42-4.79l2.53-7.46,1.69.57-2.52,7.42c-.47,1.4.15,2.51,1.67,3.03,1.71.58,3.25-.34,3.83-2.05l2.25-6.62,1.69.57-3.65,10.77-1.69-.57Z"/><path class="cls-3" d="M1004.54,150.96h.04c1.13-.72,2.44-.98,3.99-.42,2.24.8,3.16,2.52,2.37,4.73l-2.7,7.52-1.68-.6,2.65-7.37c.5-1.39-.13-2.5-1.64-3.05-1.7-.61-3.37.14-4.01,1.9l-2.37,6.58-1.68-.6,3.85-10.71,1.68.6-.51,1.41Z"/><path class="cls-3" d="M1013.48,152.61l1.54.58,1.26-3.36,1.67.63-1.26,3.36,2.06.77-.51,1.36-2.06-.77-2.6,6.92c-.28.74.02,1.14.7,1.39.33.12.73.18.94.19l.06.02-.54,1.44c-.42-.06-.9-.17-1.39-.36-1.36-.51-2.14-1.44-1.57-2.94l2.74-7.29-1.54-.58.51-1.36Z"/><path class="cls-3" d="M1020.54,155.28l1.66.64-4.09,10.61-1.66-.64,4.09-10.61ZM1022.11,151.22l1.66.64-.79,2.05-1.66-.64.79-2.05Z"/><path class="cls-3" d="M1025.65,158.87l.04.02c1.16-.7,2.47-.91,4-.3,2.21.88,3.07,2.63,2.2,4.81l-2.96,7.42-1.66-.66,2.91-7.27c.55-1.37-.04-2.5-1.53-3.1-1.68-.67-3.38.03-4.07,1.76l-2.6,6.5-1.65-.66,4.22-10.56,1.65.66-.55,1.39Z"/><path class="cls-3" d="M1030.53,172.17l1.52.64c-.33,1.22.58,2.13,2.2,2.82,1.93.81,3.37.39,4.14-1.43l.62-1.48-.04-.02c-1.19.67-2.29.95-3.79.31-2.72-1.15-3.67-4.1-2.4-7.12,1.38-3.26,4.23-4.31,6.66-3.28,1.52.64,2.25,1.64,2.54,2.93l.04.02.56-1.34,1.64.69-4.18,9.92c-1.16,2.76-3.53,3.29-6.31,2.12-2.72-1.15-3.8-2.89-3.22-4.77ZM1040.68,169.11c.96-2.29.59-4.12-1.64-5.06-1.97-.83-3.61.29-4.57,2.56-.97,2.29-.56,4.23,1.38,5.05,2.41,1.02,3.89-.34,4.83-2.55Z"/><path class="cls-4" d="M646.96,95.72c-1.23-6.24,1.72-11.77,7.93-12.99,5.18-1.02,8.85,1.47,10.08,5.39l-4.24.83c-.8-2.04-2.66-3.12-5.13-2.63-3.89.76-5.1,4.37-4.28,8.54.84,4.3,3.69,6.95,7.22,6.25,2.5-.49,3.97-2.34,3.8-4.6l4.18-.82c.25,1.88-.2,3.83-1.35,5.43-1.18,1.64-3.03,2.92-5.95,3.49-5.92,1.16-11.02-2.57-12.27-8.9Z"/><path class="cls-4" d="M671.32,88.8l.09-.02c.62-1.87,1.5-2.94,3.28-3.24.44-.08.71-.09.97-.04l.61,3.52-.09.02c-2.68.19-4.33,1.9-3.78,5.09l1.27,7.39-4.02.69-2.61-15.16,3.87-.67.42,2.42Z"/><path class="cls-4" d="M677.56,93.02c-.69-4.54,2.01-8.53,6.73-9.25,4.72-.72,8.48,2.29,9.17,6.83.69,4.54-2.01,8.53-6.73,9.25-4.72.72-8.48-2.29-9.17-6.83ZM689.37,91.22c-.45-2.97-2.15-4.77-4.62-4.4-2.49.38-3.55,2.6-3.1,5.57s2.12,4.75,4.61,4.37c2.46-.38,3.55-2.57,3.1-5.54Z"/><path class="cls-4" d="M692.82,82.86l4.02-.49,2.72,6.86c.48,1.21,1.04,2.77,1.04,2.77h.06s.13-1.69.3-2.98l1.04-7.29,3.45-.42,2.86,6.81c.48,1.24,1.07,2.8,1.07,2.8h.06s.16-1.66.33-2.95l1.06-7.32,3.93-.48-2.68,15.83-3.69.45-2.95-7.25c-.48-1.18-1.01-2.57-1.01-2.57h-.06s-.21,1.48-.39,2.74l-1.16,7.76-3.66.45-6.34-14.72Z"/><path class="cls-4" d="M716.17,87.81c-.45-4.78,1.96-8.35,5.78-8.71,2.15-.2,3.59.66,4.54,1.86h.09s-.74-7.89-.74-7.89l4.06-.38,2.01,21.35-3.91.37-.19-2h-.06c-.76,1.55-2.19,2.68-4.34,2.88-3.85.36-6.77-2.53-7.24-7.48ZM727.23,86.86c-.27-2.93-1.42-4.81-4.01-4.56-2.24.21-3.19,2.29-2.92,5.12.28,2.96,1.6,4.58,3.7,4.38,2.42-.23,3.5-2.14,3.24-4.94Z"/><path class="cls-4" d="M733.34,87.26l4.25-.29c.47,2.55,2.01,3.47,5.06,3.27,2.22-.15,4.11-1.06,3.98-3.03-.14-2.1-2.21-2.38-5.52-2.91-3.89-.61-7.46-1.39-7.76-5.85-.28-4.22,3.01-6.64,7.77-6.96,4.82-.32,8.09,1.83,8.71,6.12l-4.16.28c-.38-2.14-2.13-3.1-4.35-2.96-2.33.16-3.8,1.25-3.69,2.77.12,1.74,1.65,2.14,4.87,2.62,4.47.66,8.13,1.47,8.44,6.08.29,4.34-3.05,7-7.87,7.33-5.81.39-9.27-1.96-9.73-6.47Z"/><path class="cls-4" d="M751.76,77.3l2.13-.1-.22-4.79,3.99-.18.22,4.79,2.64-.12.12,2.7-2.64.12.37,8.15c.05,1.14.7,1.5,1.6,1.46.51-.02,1.2-.08,1.2-.08l.14,3s-.93.1-2.54.18c-1.98.09-4.2-.59-4.33-3.5l-.41-9.02-2.13.1-.12-2.7Z"/><path class="cls-4" d="M766.77,79.16h.09c.88-1.77,1.9-2.7,3.7-2.76.45-.01.72,0,.96.09l.11,3.57h-.09c-2.68-.19-4.55,1.28-4.45,4.52l.23,7.5-4.08.12-.47-15.38,3.93-.12.08,2.46Z"/><path class="cls-4" d="M773.32,70.46l4.08-.07.07,3.66-4.08.07-.07-3.66ZM773.43,76.52l4.08-.07.28,15.39-4.08.07-.28-15.39Z"/><path class="cls-4" d="M786.07,84.75l-1.74,1.86.08,5.19-4.05.07-.35-21.45,4.05-.07.19,11.88,5.36-5.91,4.89-.08-5.57,5.94,6.52,9.44-4.95.08-4.43-6.95Z"/><path class="cls-4" d="M794.96,84.04c.1-4.56,3.26-8.04,7.76-7.94,4.95.1,7.51,3.94,7.4,9.43l-11.16-.23c.25,2.38,1.54,3.87,3.85,3.92,1.59.03,2.54-.67,3.01-1.83l4.02.08c-.63,2.72-3.11,4.98-7.07,4.9-5.1-.11-7.91-3.74-7.81-8.33ZM799.07,82.47l6.84.14c-.08-1.95-1.34-3.33-3.2-3.37-2.16-.04-3.24,1.22-3.64,3.23Z"/><path class="cls-4" d="M816.48,85.65l4.25.23c.16,2.59,1.57,3.69,4.63,3.86,2.22.12,4.21-.55,4.31-2.53.11-2.1-1.9-2.63-5.12-3.55-3.79-1.08-7.24-2.29-6.99-6.75.23-4.22,3.79-6.22,8.56-5.96,4.82.26,7.81,2.8,7.9,7.13l-4.16-.23c-.12-2.17-1.74-3.34-3.96-3.46-2.34-.13-3.92.78-4,2.31-.09,1.74,1.38,2.33,4.51,3.19,4.35,1.2,7.89,2.44,7.64,7.06-.24,4.34-3.87,6.58-8.7,6.32-5.81-.32-8.96-3.07-8.87-7.6Z"/><path class="cls-4" d="M835.7,85.65c.37-4.55,3.73-7.83,8.22-7.47,4.93.4,7.26,4.38,6.82,9.85l-11.12-.9c.11,2.39,1.31,3.96,3.61,4.14,1.58.13,2.57-.52,3.11-1.65l4.01.32c-.79,2.68-3.4,4.78-7.34,4.47-5.08-.41-7.67-4.2-7.3-8.78ZM839.9,84.33l6.82.55c.04-1.95-1.14-3.4-3-3.55-2.15-.17-3.3,1.03-3.82,3Z"/><path class="cls-4" d="M857.17,82.28h.09c1.1-1.63,2.23-2.42,4.03-2.24.45.04.71.1.94.22l-.36,3.55h-.09c-2.63-.55-4.68.67-5,3.89l-.75,7.46-4.06-.41,1.54-15.31,3.91.39-.25,2.45Z"/><path class="cls-4" d="M863.26,80.4l4.11.49,1.49,8.22c.27,1.51.39,2.52.39,2.52h.06s.33-.95.95-2.36l3.45-7.62,4.05.49-7.16,14.64-3.87-.46-3.47-15.92Z"/><path class="cls-4" d="M879.26,82.38l4.04.55-2.07,15.25-4.04-.55,2.07-15.25ZM880.08,76.37l4.04.55-.49,3.63-4.04-.55.49-3.63Z"/><path class="cls-4" d="M884.2,90.8c.7-4.54,4.2-7.58,8.82-6.87,3.94.6,6.02,3.26,6.05,6.63l-3.94-.6c-.06-1.38-.95-2.54-2.43-2.77-2.43-.37-3.96,1.3-4.41,4.24-.44,2.88.42,4.98,2.88,5.36,1.63.25,2.92-.43,3.45-2.11l3.88.6c-.76,3.19-3.68,5.38-7.74,4.76-4.8-.74-7.26-4.69-6.56-9.23Z"/><path class="cls-4" d="M899.91,93.19c.8-4.49,4.46-7.44,8.89-6.65,4.87.87,6.81,5.05,5.85,10.46l-10.99-1.95c-.12,2.39.92,4.06,3.2,4.47,1.57.28,2.61-.27,3.25-1.34l3.96.7c-1.04,2.59-3.84,4.44-7.74,3.75-5.02-.89-7.23-4.91-6.43-9.43ZM904.22,92.28l6.74,1.2c.22-1.94-.81-3.5-2.64-3.82-2.13-.38-3.39.71-4.09,2.62Z"/><path class="cls-4" d="M915.28,98.71l3.7.75c-.08,1.79,1,2.8,2.79,3.16,1.76.35,2.9-.12,3.11-1.18.29-1.44-1.59-1.97-3.57-2.8-2.6-1.07-5.1-2.34-4.43-5.64.66-3.26,3.68-4.28,7.12-3.58,3.97.8,5.78,3.21,5.46,6.3l-3.62-.73c.15-1.65-.76-2.45-2.47-2.79-1.56-.31-2.71.07-2.93,1.15-.26,1.29,1.72,1.81,3.77,2.69,2.42,1.04,5.07,2.31,4.36,5.83-.61,3.03-3.56,4.33-7.33,3.57-4.38-.88-6.4-3.49-5.99-6.74Z"/><circle class="cls-1" cx="788.14" cy="760.86" r="322.3"/><path class="cls-3" d="M624.82,729.27l-11.87-21.89h7.88l5.39,10.57c1.1,2.14,2.34,5.09,2.34,5.09h.1s1.35-2.94,2.39-5.09l5.29-10.57h7.58l-11.87,21.89v13.76h-7.23v-13.76Z"/><path class="cls-3" d="M639.83,730.27c0-7.63,5.44-13.51,13.36-13.51s13.36,5.88,13.36,13.51-5.44,13.51-13.36,13.51-13.36-5.88-13.36-13.51ZM659.68,730.27c0-4.99-2.34-8.38-6.48-8.38s-6.48,3.39-6.48,8.38,2.29,8.33,6.48,8.33,6.48-3.34,6.48-8.33Z"/><path class="cls-3" d="M685.86,743.03v-2.99h-.15c-1.75,2.34-3.74,3.69-7.33,3.69-5.68,0-8.88-3.64-8.88-9.23v-17.05h6.73v15.91c0,2.99,1.35,4.64,4.24,4.64,3.19,0,5.14-2.39,5.14-5.78v-14.76h6.78v25.58h-6.53Z"/><path class="cls-3" d="M703.31,721.54h.15c1.55-2.89,3.29-4.39,6.28-4.39.75,0,1.2.05,1.6.2v5.93h-.15c-4.44-.45-7.63,1.9-7.63,7.28v12.47h-6.78v-25.58h6.53v4.09Z"/><path class="cls-3" d="M720.71,707.38h7.38l4.64,17.7c.7,3.04,1.55,7.78,1.55,7.78h.1s.9-4.44,1.65-7.58l3.89-17.9h6.98l3.89,17.85c.75,3.14,1.65,7.63,1.65,7.63h.1s1.05-4.74,1.75-7.83l4.49-17.65h7.13l-10.17,35.65h-6.73l-4.34-19.1c-.6-2.59-1.25-6.33-1.25-6.33h-.1s-.55,3.74-1.15,6.33l-4.39,19.1h-6.68l-10.37-35.65Z"/><path class="cls-3" d="M764.34,730.27c0-7.63,5.44-13.51,13.36-13.51s13.36,5.88,13.36,13.51-5.44,13.51-13.36,13.51-13.36-5.88-13.36-13.51ZM784.18,730.27c0-4.99-2.34-8.38-6.48-8.38s-6.48,3.39-6.48,8.38,2.29,8.33,6.48,8.33,6.48-3.34,6.48-8.33Z"/><path class="cls-3" d="M800.73,721.54h.15c1.55-2.89,3.29-4.39,6.28-4.39.75,0,1.2.05,1.6.2v5.93h-.15c-4.44-.45-7.63,1.9-7.63,7.28v12.47h-6.78v-25.58h6.53v4.09Z"/><path class="cls-3" d="M821.38,731.37l-2.94,3.04v8.63h-6.73v-35.65h6.73v19.75l9.08-9.67h8.13l-9.42,9.72,10.57,15.86h-8.23l-7.18-11.67Z"/><path class="cls-3" d="M839.03,707.38h6.78v35.65h-6.78v-35.65Z"/><path class="cls-3" d="M849.05,730.27c0-7.63,5.44-13.51,13.36-13.51s13.36,5.88,13.36,13.51-5.44,13.51-13.36,13.51-13.36-5.88-13.36-13.51ZM868.9,730.27c0-4.99-2.34-8.38-6.48-8.38s-6.48,3.39-6.48,8.38,2.29,8.33,6.48,8.33,6.48-3.34,6.48-8.33Z"/><path class="cls-3" d="M894.23,740.19h-.1c-1.3,1.94-3.14,3.44-7.53,3.44-5.24,0-8.93-2.74-8.93-7.83,0-5.63,4.59-7.43,10.27-8.23,4.24-.6,6.18-.95,6.18-2.89s-1.45-3.04-4.29-3.04c-3.19,0-4.74,1.15-4.94,3.59h-6.03c.2-4.49,3.54-8.43,11.02-8.43s10.77,3.44,10.77,9.42v13.01c0,1.94.3,3.09.9,3.54v.25h-6.53c-.4-.5-.65-1.7-.8-2.84ZM894.28,734.01v-3.84c-1.2.7-3.04,1.1-4.74,1.5-3.54.8-5.29,1.6-5.29,3.99s1.6,3.24,3.99,3.24c3.89,0,6.03-2.39,6.03-4.89Z"/><path class="cls-3" d="M903.7,730.27c0-7.98,4.54-13.51,10.92-13.51,3.59,0,5.83,1.65,7.23,3.79h.15v-13.16h6.78v35.65h-6.53v-3.34h-.1c-1.5,2.44-4.04,4.09-7.63,4.09-6.43,0-10.82-5.24-10.82-13.51ZM922.15,730.42c0-4.89-1.6-8.18-5.93-8.18-3.74,0-5.63,3.29-5.63,8.03s1.94,7.83,5.44,7.83c4.04,0,6.13-2.99,6.13-7.68Z"/><path class="cls-3" d="M931.57,734.76h6.28c.45,2.94,2.54,4.24,5.58,4.24s4.69-1.15,4.69-2.94c0-2.44-3.24-2.69-6.73-3.39-4.59-.9-9.08-2.14-9.08-7.73s4.59-8.18,10.42-8.18c6.73,0,10.47,3.34,10.97,8.48h-6.13c-.3-2.74-2.04-3.74-4.94-3.74-2.64,0-4.39,1-4.39,2.84,0,2.19,3.39,2.39,7.03,3.14,4.29.9,9.03,2.09,9.03,8.08,0,5.14-4.39,8.23-10.77,8.23-7.43,0-11.57-3.59-11.97-9.03Z"/><path class="cls-3" d="M624.35,800.03h-.1c-1.3,1.95-3.14,3.44-7.53,3.44-5.24,0-8.93-2.74-8.93-7.83,0-5.63,4.59-7.43,10.27-8.23,4.24-.6,6.18-.95,6.18-2.89s-1.45-3.04-4.29-3.04c-3.19,0-4.74,1.15-4.94,3.59h-6.03c.2-4.49,3.54-8.43,11.02-8.43s10.77,3.44,10.77,9.42v13.01c0,1.95.3,3.09.9,3.54v.25h-6.53c-.4-.5-.65-1.7-.8-2.84ZM624.4,793.84v-3.84c-1.2.7-3.04,1.1-4.74,1.5-3.54.8-5.29,1.6-5.29,3.99s1.6,3.24,3.99,3.24c3.89,0,6.03-2.39,6.03-4.89Z"/><path class="cls-3" d="M641.7,780.78h.15c1.75-2.74,4.09-4.19,7.58-4.19,5.29,0,8.83,3.99,8.83,9.57v16.71h-6.78v-15.71c0-2.74-1.6-4.69-4.44-4.69-2.99,0-5.19,2.39-5.19,5.88v14.51h-6.78v-25.58h6.63v3.49Z"/><path class="cls-3" d="M661.2,790.1c0-7.98,4.54-13.51,10.92-13.51,3.59,0,5.83,1.65,7.23,3.79h.15v-13.17h6.78v35.65h-6.53v-3.34h-.1c-1.5,2.44-4.04,4.09-7.63,4.09-6.43,0-10.82-5.24-10.82-13.51ZM679.65,790.25c0-4.89-1.6-8.18-5.93-8.18-3.74,0-5.63,3.29-5.63,8.03s1.94,7.83,5.44,7.83c4.04,0,6.13-2.99,6.13-7.68Z"/><path class="cls-3" d="M709.41,767.21h7.48l12.57,35.65h-7.53l-2.39-7.58h-12.87l-2.34,7.58h-7.33l12.42-35.65ZM708.37,789.75h9.42l-3.19-10.27c-.6-1.9-1.45-5.49-1.45-5.49h-.1s-.9,3.59-1.5,5.49l-3.19,10.27Z"/><path class="cls-3" d="M731.9,777.29h6.53v3.19h.15c1.65-2.24,4.04-3.89,7.53-3.89,6.78,0,11.12,5.54,11.12,13.51s-4.49,13.51-11.07,13.51c-3.59,0-5.93-1.45-7.38-3.64h-.1v11.27h-6.78v-33.96ZM750.35,790.3c0-4.84-1.7-8.23-5.88-8.23s-5.93,3.64-5.93,8.23,2.14,7.68,6.18,7.68c3.44,0,5.63-2.84,5.63-7.68Z"/><path class="cls-3" d="M760.37,777.29h6.53v3.19h.15c1.65-2.24,4.04-3.89,7.53-3.89,6.78,0,11.12,5.54,11.12,13.51s-4.49,13.51-11.07,13.51c-3.59,0-5.93-1.45-7.38-3.64h-.1v11.27h-6.78v-33.96ZM778.82,790.3c0-4.84-1.7-8.23-5.88-8.23s-5.93,3.64-5.93,8.23,2.14,7.68,6.18,7.68c3.44,0,5.63-2.84,5.63-7.68Z"/><path class="cls-3" d="M788.94,767.21h6.78v35.65h-6.78v-35.65Z"/><path class="cls-3" d="M800.21,767.21h6.78v6.08h-6.78v-6.08ZM800.21,777.29h6.78v25.58h-6.78v-25.58Z"/><path class="cls-3" d="M810.13,790.1c0-7.63,4.99-13.51,12.77-13.51,6.63,0,10.72,3.84,11.62,9.38h-6.63c-.45-2.24-2.19-3.94-4.69-3.94-4.09,0-6.18,3.14-6.18,8.08s1.94,8.08,6.08,8.08c2.74,0,4.69-1.45,5.14-4.34h6.53c-.45,5.44-4.69,9.77-11.52,9.77-8.08,0-13.12-5.88-13.12-13.51Z"/><path class="cls-3" d="M853.51,800.03h-.1c-1.3,1.95-3.14,3.44-7.53,3.44-5.24,0-8.93-2.74-8.93-7.83,0-5.63,4.59-7.43,10.27-8.23,4.24-.6,6.18-.95,6.18-2.89s-1.45-3.04-4.29-3.04c-3.19,0-4.74,1.15-4.94,3.59h-6.03c.2-4.49,3.54-8.43,11.02-8.43s10.77,3.44,10.77,9.42v13.01c0,1.95.3,3.09.9,3.54v.25h-6.53c-.4-.5-.65-1.7-.8-2.84ZM853.56,793.84v-3.84c-1.2.7-3.04,1.1-4.74,1.5-3.54.8-5.29,1.6-5.29,3.99s1.6,3.24,3.99,3.24c3.89,0,6.03-2.39,6.03-4.89Z"/><path class="cls-3" d="M862.24,777.29h3.54v-7.98h6.63v7.98h4.39v4.49h-4.39v13.56c0,1.89,1.05,2.54,2.54,2.54.85,0,1.99-.05,1.99-.05v4.99s-1.55.1-4.24.1c-3.29,0-6.93-1.3-6.93-6.13v-15.01h-3.54v-4.49Z"/><path class="cls-3" d="M880.29,767.21h6.78v6.08h-6.78v-6.08ZM880.29,777.29h6.78v25.58h-6.78v-25.58Z"/><path class="cls-3" d="M890.21,790.1c0-7.63,5.44-13.51,13.36-13.51s13.36,5.88,13.36,13.51-5.44,13.51-13.36,13.51-13.36-5.88-13.36-13.51ZM910.06,790.1c0-4.99-2.34-8.38-6.48-8.38s-6.48,3.39-6.48,8.38,2.29,8.33,6.48,8.33,6.48-3.34,6.48-8.33Z"/><path class="cls-3" d="M926.71,780.78h.15c1.75-2.74,4.09-4.19,7.58-4.19,5.29,0,8.83,3.99,8.83,9.57v16.71h-6.78v-15.71c0-2.74-1.6-4.69-4.44-4.69-2.99,0-5.19,2.39-5.19,5.88v14.51h-6.78v-25.58h6.63v3.49Z"/><path class="cls-3" d="M945.86,794.59h6.28c.45,2.94,2.54,4.24,5.58,4.24s4.69-1.15,4.69-2.94c0-2.44-3.24-2.69-6.73-3.39-4.59-.9-9.08-2.14-9.08-7.73s4.59-8.18,10.42-8.18c6.73,0,10.47,3.34,10.97,8.48h-6.13c-.3-2.74-2.04-3.74-4.94-3.74-2.64,0-4.39,1-4.39,2.84,0,2.19,3.39,2.39,7.03,3.14,4.29.9,9.03,2.09,9.03,8.08,0,5.14-4.39,8.23-10.77,8.23-7.43,0-11.57-3.59-11.97-9.03Z"/></g></g></svg>