<?xml version="1.0" encoding="UTF-8"?><svg id="Layer_2" xmlns="http://www.w3.org/2000/svg" xmlns:xlink="http://www.w3.org/1999/xlink" viewBox="0 0 1260.76 1874.25"><defs><style>.cls-1{clip-path:url(#clippath);}.cls-2{fill:none;}.cls-2,.cls-3,.cls-4,.cls-5{stroke-width:0px;}.cls-6{clip-path:url(#clippath-1);}.cls-7{clip-path:url(#clippath-3);}.cls-8{clip-path:url(#clippath-2);}.cls-9{isolation:isolate;}.cls-4{fill:#fecf56;}.cls-5{fill:#e8e8e8;}</style><clipPath id="clippath"><polygon class="cls-2" points="715.85 1693.56 715.48 1563.23 1118.87 1330.33 1119.24 1460.66 715.85 1693.56"/></clipPath><clipPath id="clippath-1"><polygon class="cls-2" points="189.03 791.31 188.92 752.48 861.56 364.13 861.67 402.97 189.03 791.31"/></clipPath><clipPath id="clippath-2"><polygon class="cls-2" points="201.84 923.9 201.73 885.06 734.02 577.74 734.13 616.58 201.84 923.9"/></clipPath><clipPath id="clippath-3"><polygon class="cls-2" points="217.57 1064.78 217.46 1025.94 534.8 842.72 534.91 881.56 217.57 1064.78"/></clipPath></defs><g id="line"><g class="cls-9"><path class="cls-3" d="m1007.89,794.18l-88.26-51.29c9.09-5.25,16.45-18.01,16.42-28.45l88.26,51.29c.03,10.43-7.33,23.19-16.42,28.45Z"/><path class="cls-3" d="m336.74,1348.7l-88.26-51.29c4.56,2.65,9.53,4.65,14.94,5.84,1.54.34,3.04-.13,4.36-.88,1.68-.97,3.04-2.42,3.76-3.27,1.28-1.53,4.26-5.61,4.22-10.56-.68-80.99,9.46-140.3,30.15-176.27,8.47-14.73,18.99-26,30.42-32.6l88.26,51.29c-11.43,6.6-21.95,17.87-30.42,32.6-20.68,35.97-30.83,95.29-30.15,176.27.04,4.95-2.94,9.03-4.22,10.56-.72.85-2.08,2.3-3.76,3.27-1.31.76-2.82,1.23-4.36.88-5.41-1.19-10.38-3.19-14.94-5.84Z"/><path class="cls-4" d="m225.53,1274.67c29.42,17.1,58.84,34.19,88.26,51.29,6.22,9.41,13.79,17.43,23.02,22.78l-88.26-51.29c-9.23-5.35-16.8-13.37-23.02-22.78Z"/><polygon class="cls-3" points="424.59 1130.95 336.33 1079.66 919.63 742.89 1007.89 794.18 424.59 1130.95"/><polygon class="cls-3" points="1024.31 765.74 936.07 714.45 934.39 131.44 934.39 131.42 934.31 98.72 977.62 73.72 934.16 48.46 934.16 48.26 977.8 73.62 1006.08 90.04 1022.43 99.55 1024.31 765.74"/><path class="cls-3" d="m929.37,37.71l88.26,51.29c2.96,1.72,4.79,5.37,4.8,10.55l-88.26-51.29c-.01-5.18-1.85-8.83-4.8-10.55Z"/><path class="cls-4" d="m929.28,37.66s.06.03.08.05l88.26,51.29s-.06-.03-.08-.05c-29.42-17.1-58.84-34.19-88.26-51.29Z"/><path class="cls-4" d="m929.19,37.61s.06.03.09.05c29.42,17.1,58.84,34.19,88.26,51.29-.03-.02-.06-.03-.09-.05-29.42-17.1-58.84-34.19-88.26-51.29Z"/><path class="cls-4" d="m929.19,37.61c2.36,1.33,4.69,2.73,7.04,4.09,27.07,15.73,54.14,31.46,81.22,47.2-1.48-.81-3.22-1.15-5.15-.97-16.62-9.66-33.24-19.32-49.86-28.98-1.73-1-4.03-2.34-5.76-3.35-1.71-1-4-2.32-5.71-3.32-7.28-4.23-14.56-8.46-21.84-12.69-1.52-.89-3.84-1.71-5.08-2.95,1.93-.18,3.68.16,5.15.97Z"/><path class="cls-4" d="m1012.28,87.94c-.43.05-.88.1-1.33.2-.18.05-.35.07-.53.13-.9.23-1.86.55-2.83,1-.23.1-.45.23-.7.35h-.03c-.13.08-.25.13-.38.2s-.25.15-.4.23c-.05.03-.13.07-.18.1h-.03l-21.21-12.34-7.05-4.09-43.46-25.25-16.53-9.6c2.28-1.3,4.44-2.03,6.39-2.21,1.71.98,3.39,1.98,5.09,2.96,1.28.73,2.53,1.48,3.81,2.21,6.22,3.64,12.44,7.25,18.68,10.86.48.28.95.58,1.45.83,1.66.98,3.31,1.96,4.99,2.91.5.3,1,.6,1.5.88.05.02.1.07.15.1.43.25.88.5,1.33.78,7.22,4.19,14.44,8.38,21.69,12.59,9.83,5.72,19.69,11.44,29.54,17.18Z"/><path class="cls-3" d="m949.52,3.04l88.26,51.29c-8.18-4.75-19.5-4.09-31.97,3.11l-88.26-51.29c12.47-7.2,23.79-7.86,31.97-3.11Z"/><path class="cls-4" d="m198.12,1183.88c-.48-4.93-2.19-8.66-4.79-11.04,29.42,17.1,58.84,34.19,88.26,51.29,2.6,2.38,4.31,6.11,4.79,11.04,1.66,17.12,7.71,60.96,27.41,90.79-29.42-17.1-58.84-34.19-88.26-51.29-19.7-29.84-25.75-73.68-27.41-90.79Z"/><path class="cls-3" d="m316.37,1383.32l-88.26-51.29c-41.4-24.06-54.01-89.76-57.8-123.75l88.26,51.29c3.78,33.99,16.4,99.69,57.8,123.75Z"/><path class="cls-4" d="m193.33,1172.84c-.6-.55-1.25-1.03-1.95-1.43l88.26,51.29c.69.4,1.34.88,1.95,1.43-29.42-17.1-58.84-34.19-88.26-51.29Z"/><path class="cls-3" d="m191.38,1171.4l88.26,51.29c-4.31-2.51-10.29-2.11-16.85,1.68l-88.26-51.29c6.56-3.79,12.53-4.18,16.85-1.68Z"/><polygon class="cls-3" points="262.78 1224.37 230.28 1243.12 214.06 1252.5 183.71 1270.01 135.14 1298.07 118.61 1288.46 90.03 1271.86 89.9 1221.96 89.9 1221.93 118.39 1205.51 174.54 1173.09 198.43 1186.98 262.78 1224.37"/><path class="cls-3" d="m135.14,1298.07c-3.06,1.76-5.92,2.46-8.38,2.21-.05,0-.1,0-.13-.03h-.07c-.18-.03-.38-.05-.58-.1-.8-.15-1.55-.4-2.23-.78-.13-.02-.25-.07-.35-.15l-5.02-2.93c-5.17-3.01-10.58-6.17-16.17-9.4-.93-.55-1.86-1.1-2.81-1.63-1.53-.9-3.08-1.81-4.66-2.71l-4.69-2.71v-.02c-2.61-1.53-5.22-3.03-7.85-4.56-2.88-1.68-5.77-3.36-8.68-5.04-.95-.55-1.93-1.13-2.88-1.68-1.93-1.13-3.84-2.23-5.74-3.34-2.86-1.66-5.69-3.31-8.48-4.91-7.45-4.34-14.62-8.5-21.24-12.34,2.98,1.71,7.05,1.48,11.54-1.08.05-.03.1-.05.15-.08l43.16,25.08,28.59,16.6,16.53,9.6Z"/><path class="cls-4" d="m123.25,1299.1c-1.58-.93-3.21-1.86-4.87-2.81-5.17-3.01-10.58-6.17-16.17-9.4-.93-.55-1.86-1.1-2.81-1.63-1.53-.9-3.08-1.81-4.66-2.71-1.55-.9-3.13-1.81-4.69-2.73-2.61-1.53-5.22-3.03-7.85-4.56-2.88-1.68-5.77-3.36-8.68-5.04-.95-.55-1.93-1.13-2.88-1.68-1.93-1.13-3.84-2.23-5.74-3.34-2.86-1.66-5.69-3.31-8.48-4.91-7.45-4.34-14.62-8.5-21.24-12.34-2.98-1.71-4.81-5.37-4.84-10.58l16.38,9.5,43.31,25.18v.03l28.59,16.6c0,.48.03.95.05,1.43v.13c.03.13.03.28.05.4.03.3.05.58.13.85.03.35.08.68.18.98,0,.1.03.18.05.25.03.15.07.3.13.45.03.1.05.2.05.28.08.28.18.55.28.8.05.18.13.35.2.5.02.1.05.2.13.3,0,.05.03.08.05.13.1.23.2.45.35.68.13.28.28.53.48.78.08.15.18.3.28.43.03.03.03.05.05.05.15.23.33.43.53.63,0,0,0,.03.03.03.13.13.25.25.38.38.4.38.83.7,1.28.98Z"/><path class="cls-3" d="m103.26,1333.89l-88.26-51.29c-8.07-4.69-13.08-14.65-13.12-28.8l88.26,51.29c.04,14.15,5.05,24.11,13.12,28.8Z"/><path class="cls-4" d="m118.61,1288.46v.2l-28.59-16.6v-.03l-43.31-25.18c.05-.03.1-.05.15-.08l43.16,25.08-.13-49.9v-.03l-1.66-583.04-59.68-34.68-.1-33.05,65.83,38.27,22.42,13.01,1.68,583.06.23,82.95Z"/><polygon class="cls-4" points="1005.88 90.14 934.39 131.42 133.13 594.04 110.77 581.05 44.89 542.75 73.07 526.48 133.03 561.34 934.31 98.72 977.62 73.72 984.67 77.8 1005.88 90.14"/><path class="cls-4" d="m116.72,622.46l-88.26-51.29c-.03-10.43,7.33-23.17,16.42-28.42l88.26,51.29c-9.09,5.25-16.45,17.99-16.42,28.42Z"/><path class="cls-3" d="m1050.9,83.12c-.03-14.49-5.32-24.6-13.74-29.11-.33-.2-.65-.35-1-.53-.02,0-.05-.03-.07-.03-.73-.35-1.45-.65-2.21-.88-.43-.15-.85-.3-1.3-.4-.43-.13-.88-.25-1.33-.33-.33-.07-.68-.15-1.03-.2-.35-.08-.68-.13-1.03-.15-.53-.08-1.05-.13-1.61-.15-.53-.03-1.08-.05-1.63-.05-.38,0-.78,0-1.15.03-.38.03-.78.03-1.15.08-.2,0-.4.03-.63.05h-.07c-.38.05-.75.1-1.15.15-.58.07-1.15.18-1.73.28-.83.18-1.65.35-2.48.58-.83.23-1.68.48-2.53.75-.43.15-.85.3-1.28.48-.43.15-.88.33-1.3.5s-.88.35-1.3.55c-.45.18-.88.38-1.33.6-.43.2-.88.43-1.33.65-.88.45-1.78.93-2.68,1.45l-21.29,12.31h-.03l-1.76,1-4.94,2.86-.18.1-43.31,25L133.03,561.34c-8.12,4.69-15.72,11.56-22.27,19.71-6.85,8.45-12.54,18.28-16.48,28.39-3.86,9.86-6.07,20.01-6.04,29.47l1.66,583.04v.03l.13,49.9v.2l.03,7.75v.02l.07,25.25c0,.88.03,1.76.08,2.61.03.85.1,1.68.18,2.51.08.7.15,1.38.25,2.06.05.48.13.95.23,1.4,0,.15.03.28.07.43.08.48.18.95.28,1.43.1.53.23,1.05.35,1.55.2.73.4,1.4.63,2.11.2.68.45,1.33.7,1.96.03.1.05.2.1.28.23.55.45,1.08.7,1.61.28.6.58,1.2.9,1.76.53.98,1.13,1.91,1.73,2.76.03.05.07.1.13.15.1.18.25.35.4.53.68.9,1.43,1.76,2.21,2.48.43.43.88.8,1.33,1.18.45.38.9.7,1.35,1.05t.05.03c.23.18.45.33.7.48l.78.45c8.17,4.76,19.48,4.09,31.95-3.11l59.98-34.63,32.3-18.63,1.45-.83,29.62-17.1c.13,1.2.28,2.46.43,3.74.13.98.25,1.98.4,2.98.03.33.08.65.13,1,.28,2.06.58,4.16.93,6.37.2,1.28.4,2.56.63,3.89.15.93.3,1.86.48,2.78.25,1.53.55,3.08.85,4.66.03.2.08.43.13.65.28,1.35.55,2.73.83,4.11,0,.05,0,.08.03.1.3,1.4.6,2.83.93,4.29.23.98.45,1.98.68,2.98.05.18.07.35.13.53.05.2.1.43.15.63.38,1.56.78,3.11,1.18,4.69.3,1.18.6,2.33.93,3.51.15.48.28.98.43,1.48.03.1.05.2.08.3.03.15.08.3.13.48l.03.02c.48,1.68.98,3.39,1.53,5.09.07.3.18.63.28.95l.45,1.43c.4,1.23.8,2.46,1.2,3.66.68,2.01,1.4,3.99,2.16,5.97.35.95.73,1.91,1.08,2.86.43,1.03.83,2.06,1.25,3.06.3.73.6,1.45.93,2.18.85,2.01,1.76,3.99,2.71,5.97.38.8.78,1.6,1.18,2.41.73,1.45,1.5,2.91,2.28,4.36.38.68.75,1.35,1.13,2.03,1.15,2.06,2.38,4.06,3.64,6.02.78,1.23,1.61,2.43,2.43,3.64.1.13.2.28.3.4.7,1.03,1.43,2.03,2.18,3.01.58.78,1.18,1.53,1.81,2.28.25.35.55.68.83,1.03.35.45.73.88,1.1,1.33.8.95,1.66,1.91,2.51,2.81.03.05.07.1.13.15.5.5.98.98,1.45,1.48.68.7,1.38,1.38,2.08,2.03.93.9,1.86,1.76,2.81,2.58.58.5,1.15.98,1.73,1.43.58.48,1.15.93,1.76,1.38.58.45,1.18.9,1.78,1.33.63.45,1.23.88,1.86,1.28.6.43,1.23.83,1.86,1.23.25.18.53.33.78.48.05.02.1.07.15.1.03,0,.03.02.05.02.05.03.08.05.13.08l.83.48c5.82,3.39,12.16,5.94,19.16,7.47,6.19,1.38,13.42-.3,20.64-4.46,5.82-3.36,11.64-8.3,16.98-14.67,12.06-14.29,19.46-32.85,19.33-48.45-.55-67.96,7.65-123.38,21.94-148.23,3.21-5.57,6.37-9.05,10.26-11.31l583.31-336.76c24.78-14.32,44.86-49.13,44.79-77.59l-1.88-666.19Zm-43.01,711.05l-583.29,336.78h-.03c-.7.43-1.4.85-2.11,1.28,0,0-.03,0-.03.03-.13.08-.23.15-.35.23-.18.1-.35.23-.5.33-.43.28-.83.55-1.23.83-.33.23-.65.48-.98.73-.1.02-.2.1-.28.18-.98.7-1.96,1.45-2.91,2.21-1.35,1.13-2.71,2.31-4.01,3.54-.68.63-1.33,1.28-1.98,1.93-.65.63-1.3,1.3-1.93,2.01-.6.65-1.2,1.3-1.81,1.98-.03.03-.08.08-.1.13-.08.1-.18.2-.28.3-.38.45-.78.9-1.15,1.38-1.53,1.81-3.03,3.74-4.46,5.74-.03.03-.05.05-.07.1-1.1,1.53-2.18,3.11-3.21,4.74-.05.05-.08.13-.13.18-.43.68-.88,1.38-1.3,2.06-.53.88-1.08,1.81-1.6,2.73-.78,1.35-1.53,2.73-2.28,4.14,0,.02-.03.05-.03.07-.63,1.15-1.23,2.36-1.81,3.56-1.58,3.21-3.08,6.54-4.51,10.06-.03.07-.05.15-.08.23-.23.55-.45,1.13-.68,1.68-.02.1-.07.2-.1.28-.25.63-.5,1.25-.75,1.88-.5,1.35-1,2.71-1.48,4.09h-.03v.02c-.85,2.43-1.68,4.92-2.46,7.47-.25.8-.5,1.63-.75,2.46-.33,1.03-.63,2.06-.93,3.11-1.73,6.04-3.31,12.41-4.71,19.13-.7,3.36-1.38,6.8-2.01,10.33-1.25,7.05-2.36,14.42-3.31,22.12-1.18,9.65-2.13,19.79-2.81,30.47,0,.05,0,.1-.03.18-.13,2.06-.25,4.14-.35,6.22-.23,4.01-.43,8.1-.55,12.26-.03.35-.03.68-.05,1.03-.03.55-.05,1.1-.05,1.68-.08,1.71-.13,3.41-.15,5.12-.1,3.54-.18,7.15-.2,10.78-.03,1.6-.05,3.21-.05,4.84-.05,4.29-.03,8.65,0,13.06.05,4.97-2.93,9.03-4.21,10.56-.73.85-2.08,2.31-3.76,3.29-1.33.75-2.83,1.23-4.36.88-.8-.18-1.58-.38-2.36-.58-.78-.2-1.55-.43-2.31-.68-.75-.25-1.5-.5-2.23-.78-.73-.28-1.43-.55-2.13-.85-.2-.08-.4-.18-.6-.25-.55-.25-1.08-.5-1.61-.75-.7-.33-1.4-.68-2.08-1.05-.55-.3-1.13-.6-1.66-.93l-.13-.08c-.1-.05-.2-.1-.28-.15l-.18-.1s-.05-.03-.08-.05l-.6-.35c-.38-.25-.75-.48-1.1-.7-.15-.1-.28-.2-.4-.28-.53-.35-1.05-.7-1.58-1.1-.1-.05-.18-.12-.28-.2-.53-.35-1.03-.73-1.53-1.13-.6-.45-1.18-.93-1.76-1.4s-1.15-.98-1.71-1.45c-1.23-1.1-2.41-2.23-3.56-3.44-.73-.75-1.45-1.53-2.16-2.33-.53-.58-1.03-1.15-1.5-1.76-.63-.73-1.23-1.45-1.81-2.23-.65-.8-1.28-1.65-1.88-2.51-.05-.05-.1-.12-.13-.18-.13-.13-.2-.25-.28-.38-.18-.23-.33-.43-.45-.65-.4-.53-.75-1.05-1.1-1.58-.18-.23-.3-.45-.45-.68-.63-.93-1.23-1.88-1.81-2.83-.4-.63-.78-1.25-1.13-1.91-.38-.58-.73-1.2-1.05-1.8-.3-.55-.6-1.08-.9-1.63-.65-1.18-1.28-2.38-1.88-3.59l-.08-.15c-.38-.75-.75-1.5-1.1-2.28-.28-.58-.55-1.15-.83-1.73-.13-.25-.25-.53-.35-.78-.18-.38-.35-.78-.53-1.15-.03-.05-.03-.07-.05-.12-.15-.3-.28-.63-.43-.98-.33-.7-.63-1.43-.93-2.18v-.03c-.45-1.05-.88-2.11-1.3-3.18-.3-.75-.58-1.5-.88-2.28-.13-.33-.23-.63-.35-.95-.18-.48-.35-.95-.53-1.45-.23-.58-.45-1.18-.63-1.78-.18-.43-.33-.88-.45-1.3-.1-.28-.2-.58-.3-.88-.3-.85-.58-1.71-.83-2.56-.25-.73-.48-1.48-.7-2.21-.3-.93-.58-1.86-.85-2.78-.02-.08-.05-.15-.07-.25-.3-1-.58-2.01-.83-2.98-.3-1.08-.6-2.13-.88-3.18-.03-.1-.05-.18-.08-.28-.25-.98-.5-1.96-.73-2.91-.28-1.05-.53-2.11-.75-3.13-.13-.43-.23-.85-.3-1.28-1.1-4.74-2.01-9.33-2.76-13.59-.1-.53-.2-1.05-.28-1.58-.18-.95-.35-1.91-.48-2.81-.05-.28-.1-.53-.13-.78-.13-.65-.2-1.28-.3-1.91-.1-.63-.2-1.25-.28-1.86-.1-.55-.18-1.08-.23-1.6-.03-.08-.03-.13-.03-.18-.23-1.53-.43-2.96-.58-4.31-.1-.73-.18-1.43-.25-2.11-.02-.05-.02-.08-.02-.13-.08-.68-.15-1.35-.23-1.98-.08-.6-.13-1.15-.18-1.71-.07-.58-.13-1.15-.18-1.68-.1-1.13-.28-2.21-.53-3.21-.05-.2-.1-.4-.15-.6-.08-.3-.15-.58-.25-.85-.05-.18-.1-.38-.18-.55-.07-.2-.13-.38-.2-.55-.1-.23-.18-.43-.28-.63-.03-.08-.05-.15-.08-.2-.15-.35-.33-.7-.53-1.05-.05-.13-.13-.25-.2-.35-.18-.33-.38-.65-.6-.95-.03-.05-.05-.1-.1-.15-.05-.07-.13-.18-.2-.25-.05-.1-.13-.2-.2-.28-.18-.23-.35-.45-.55-.65-.08-.08-.15-.18-.23-.23-.1-.12-.2-.23-.3-.3-.03-.05-.08-.08-.1-.1-.03-.05-.08-.1-.13-.13,0-.02-.03-.02-.03-.02-.3-.28-.6-.53-.93-.75-.2-.18-.43-.33-.68-.48-.15-.1-.33-.2-.48-.28-.07-.05-.13-.08-.18-.1-.03-.03-.05-.03-.05-.03-.33-.18-.63-.33-.95-.45-.05-.03-.08-.03-.13-.05-.05-.03-.1-.03-.13-.03v-.03c-.2-.08-.4-.15-.6-.2h-.03s-.05-.03-.1-.03c-.03,0-.03-.03-.05-.03-.03-.02-.05-.02-.05-.02-.05-.03-.13-.05-.18-.05-.25-.08-.48-.15-.73-.18h-.02s-.03-.03-.05-.03c-.2-.05-.43-.1-.65-.13-.1-.03-.2-.05-.3-.05-.08,0-.15-.03-.23-.03-.1-.03-.18-.03-.25-.03-.13-.03-.25-.03-.4-.03-.15-.03-.3-.03-.45-.03-.15-.03-.3-.03-.45-.03-3.24-.03-6.87,1.03-10.73,3.26l-32.5,18.76-16.22,9.38-30.34,17.5-48.57,28.06c-3.06,1.76-5.92,2.46-8.38,2.21h-.08s-.07-.03-.13-.03c-.18-.03-.38-.05-.58-.1-.8-.15-1.55-.4-2.23-.78-.18-.07-.35-.18-.5-.28-.45-.28-.88-.6-1.28-.98-.13-.12-.25-.25-.38-.38l-.03-.03c-.2-.2-.38-.4-.53-.63-.03,0-.03-.03-.03-.05-.13-.13-.23-.28-.3-.43-.18-.25-.33-.5-.48-.78-.13-.23-.25-.43-.35-.68-.03-.05-.05-.08-.05-.13-.08-.1-.1-.2-.13-.3-.1-.15-.15-.33-.2-.5-.1-.25-.2-.53-.28-.8-.03-.05-.03-.13-.05-.18-.05-.18-.08-.35-.13-.55-.03-.08-.05-.15-.05-.25-.05-.25-.07-.5-.13-.75-.03-.08-.05-.15-.05-.23-.08-.28-.1-.55-.13-.85-.03-.13-.03-.28-.05-.4v-.13c-.03-.48-.05-.95-.05-1.43v-.2l-.23-82.95-1.68-583.06c-.03-10.43,7.35-23.17,16.43-28.41L934.39,131.42l71.49-41.28h.03c.05-.03.13-.07.18-.1.28-.15.55-.3.8-.43.25-.15.48-.25.7-.35.5-.23.98-.43,1.45-.58.48-.18.93-.3,1.38-.43.18-.05.35-.07.53-.13.45-.1.9-.15,1.33-.2h.03c.18,0,.33-.03.5-.03.35-.03.7-.03,1.03,0,.2,0,.4.03.6.05.33.03.65.1.98.18.07,0,.18.03.25.05.03,0,.05.02.08.02.33.1.63.2.93.33.13.03.23.08.33.13.1.05.2.1.28.15h.03s.03.02.03.02h.02s.05.05.08.05l.05.03s.05.03.07.05c.03,0,.05,0,.05.03t.03.03c.15.08.28.15.43.25.1.05.18.13.25.18.13.1.25.2.38.3.2.15.38.3.55.5.08.05.13.1.18.18.13.13.25.25.35.38.05.05.08.1.13.15.15.15.28.35.43.55.03.03.03.08.05.1.03.05.05.08.08.13h.03c.23.38.45.78.65,1.18.05.13.13.25.15.38.15.33.28.65.38.98.03.05.05.1.05.15.05.13.1.28.13.43.03.03.03.05.03.08.1.28.15.55.2.83.05.15.08.3.08.45.1.48.18.98.23,1.5.07.6.1,1.2.1,1.86l1.88,666.19c.03,10.43-7.32,23.2-16.43,28.44Z"/><path class="cls-4" d="m1005.9,90.15c9.09-5.25,16.5-1.03,16.53,9.4l1.89,666.19c.03,10.43-7.33,23.19-16.42,28.44l-583.3,336.77c-11.43,6.6-21.95,17.87-30.43,32.6-20.68,35.97-30.83,95.29-30.15,176.27.05,4.95-2.94,9.03-4.22,10.56-.72.85-2.08,2.3-3.76,3.27-1.31.76-2.82,1.22-4.36.88-50.93-11.19-62.86-94.19-65.3-119.37-1.27-13.18-11.42-17.82-23.59-10.8l-127.65,73.7c-9.09,5.25-16.5,1.01-16.53-9.42l-1.89-666.19c-.03-10.43,7.33-23.17,16.42-28.42L1005.9,90.15Z"/><path class="cls-5" d="m90.03,1271.86l-43.16-25.08s-.1.05-.15.08l-16.38-9.5-1.78-633.14,59.68,34.68,1.66,583.04v.03l.13,49.9Z"/><path class="cls-3" d="m90.03,1271.86l-43.16-25.08s-.1.05-.15.08l-16.38-9.5-1.78-382.17,59.68,34.68,1.66,332.07v.03l.13,49.9Z"/><path class="cls-3" d="m90.13,1305.09L1.88,1253.81,0,587.62l28.56,16.6,1.78,633.14,16.38,9.5c.05-.03.1-.05.15-.08l43.16,25.08v.2l.03,7.75v.02l.07,25.25Z"/><polygon class="cls-5" points="977.62 73.72 934.31 98.72 133.03 561.34 73.07 526.48 917.64 38.86 934.16 48.46 977.62 73.72"/><polygon class="cls-3" points="1005.81 57.44 984.52 69.75 984.49 69.75 982.74 70.76 977.8 73.62 977.62 73.72 934.16 48.46 917.64 38.86 73.07 526.48 44.79 510.03 917.54 6.16 1005.81 57.44"/><path class="cls-3" d="m133.03,561.34c-8.12,4.69-15.72,11.56-22.27,19.71-6.85,8.45-12.54,18.28-16.48,28.39-3.86,9.86-6.07,20.01-6.04,29.47l-59.68-34.68L0,587.62c-.1-28.46,20.01-63.27,44.79-77.59l28.29,16.45,59.96,34.86Z"/></g><g class="cls-9"><path class="cls-3" d="m1024.04,1538.76c35.35,20.54,70.7,41.08,106.04,61.63-.27.33-.54.65-.81.98-17.67-10.27-35.33-20.53-53-30.8-17.68-10.28-35.36-20.55-53.04-30.83.27-.33.54-.65.81-.98Z"/><path class="cls-3" d="m1019.48,1544.21c1.26-1.48,2.51-2.97,3.75-4.47,35.35,20.54,70.7,41.08,106.04,61.63-1.24,1.5-2.5,2.99-3.75,4.47-35.35-20.54-70.7-41.08-106.04-61.63Z"/><path class="cls-3" d="m1019.48,1544.21c35.35,20.54,70.7,41.08,106.04,61.63-28.68,33.7-61.21,62.18-95.64,82.05l-106.04-61.63c34.43-19.88,66.96-48.36,95.64-82.05Z"/><path class="cls-3" d="m1024.04,1538.76c64.72-78.42,108.68-183.25,108.42-273.86l106.04,61.63c.26,90.6-43.71,195.43-108.42,273.86-35.35-20.54-70.7-41.08-106.04-61.63Z"/><path class="cls-3" d="m1238.52,1326.5v.03c-11.16-6.47-23.62-13.72-36.44-21.16l-4.97-2.88c-6.17-3.59-12.39-7.2-18.56-10.78l-5.69-3.31c-14.24-8.28-28.11-16.33-40.4-23.47-.1-34.31-6.52-63.32-17.98-86.34-4.69-9.43-10.23-17.83-16.5-25.18.2-.03.4-.07.6-.12,1.4-.28,2.81-.58,4.19-.83,1.4-.25,2.78-.5,4.16-.73l-35.53-20.66,35.56,20.66h.02l70.01,40.7.08.03s.05.05.1.08l.1.05.05.03c.4.23.78.45,1.15.7.18.1.33.2.48.3,1.3.78,2.56,1.58,3.81,2.43.15.08.3.18.45.3.95.63,1.91,1.3,2.81,1.96.45.33.88.65,1.3.98.4.28.75.58,1.13.88.5.38.98.75,1.43,1.13.28.23.55.43.83.65.5.4.95.8,1.43,1.23.45.35.88.73,1.3,1.1v.03c.07.05.15.1.2.18.25.2.48.4.68.6.15.13.3.25.43.4.18.15.35.3.53.48.35.3.73.65,1.08,1,.25.23.5.45.73.7.95.9,1.88,1.83,2.78,2.78.03.03.05.05.07.08.68.7,1.33,1.43,1.98,2.16.18.18.33.35.48.53.43.45.85.93,1.23,1.4.18.18.35.38.48.55.6.7,1.18,1.4,1.76,2.08,0,.02.03.02.03.05.8.98,1.55,1.93,2.28,2.91.23.28.43.55.63.85,1.4,1.88,2.78,3.81,4.09,5.82.05.08.1.15.15.25.05.07.1.12.15.2.63.98,1.25,1.96,1.83,2.96.35.55.7,1.13,1.03,1.71.18.25.33.5.45.75.43.75.85,1.48,1.25,2.23.75,1.3,1.45,2.66,2.16,4.01.58,1.13,1.13,2.26,1.68,3.41.33.68.63,1.33.93,2.01.28.58.53,1.18.8,1.78.2.43.4.88.58,1.3.6,1.43,1.2,2.88,1.78,4.36.6,1.5,1.15,3.01,1.71,4.56.13.33.25.65.35,1,.35.9.65,1.83.95,2.78.05.08.07.15.07.23.15.43.28.88.43,1.33.2.6.4,1.18.55,1.78.08.15.13.33.15.48.2.63.38,1.23.55,1.86.43,1.43.83,2.86,1.2,4.31.38,1.38.73,2.78,1.05,4.21.18.73.35,1.45.5,2.18.03.08.05.13.05.2.3,1.28.58,2.58.83,3.89.1.35.18.73.23,1.08.25,1.25.5,2.53.73,3.81.08.43.15.83.2,1.23.15.85.3,1.71.43,2.58.1.58.2,1.18.28,1.78l.08.53c.1.53.18,1.05.23,1.55.13.88.25,1.73.35,2.61.1.75.2,1.5.28,2.28.13.9.23,1.8.3,2.71.05.4.1.8.13,1.2.03.23.05.45.05.68.03.08.05.15.03.23.13,1.1.23,2.23.3,3.36.23,2.46.38,4.91.5,7.42.05.65.08,1.3.1,1.96v.1c.03.7.08,1.4.08,2.11.05,1.2.1,2.43.13,3.66v.38c.03,1.53.05,3.06.05,4.61Z"/><polygon class="cls-3" points="806.2 1817.04 700.16 1755.41 923.84 1626.26 1029.89 1687.89 806.2 1817.04"/><path class="cls-3" d="m658.1,1774.77c13.6-4.63,27.67-11.06,42.06-19.37l106.04,61.63c-14.39,8.31-28.46,14.74-42.06,19.37-35.35-20.54-70.7-41.08-106.04-61.63Z"/><path class="cls-3" d="m649.41,1777.51c2.87-.83,5.77-1.74,8.69-2.73,35.35,20.54,70.7,41.08,106.04,61.63-2.92.99-5.82,1.9-8.69,2.73-35.35-20.54-70.7-41.08-106.04-61.63Z"/><path class="cls-3" d="m649.41,1777.51c35.35,20.54,70.7,41.08,106.04,61.63-3.85,1.11-7.67,2.07-11.43,2.89-35.35-20.54-70.7-41.08-106.04-61.63,3.77-.82,7.58-1.78,11.43-2.89Z"/><path class="cls-3" d="m634.22,1781.17c1.25-.24,2.5-.5,3.75-.77,35.35,20.54,70.7,41.08,106.04,61.63-1.26.27-2.51.53-3.75.77-35.35-20.54-70.7-41.08-106.04-61.63Z"/><path class="cls-4" d="m1177.01,1192.42l-.15-.08c-1.03-.58-2.03-1.15-3.08-1.71-1.03-.55-2.08-1.08-3.13-1.58-2.98-1.45-6.04-2.76-9.18-3.91-.8-.3-1.63-.6-2.43-.88-1-.35-2.03-.68-3.06-.98-.4-.15-.8-.25-1.23-.38-1.18-.35-2.33-.68-3.54-.95-.75-.23-1.5-.4-2.28-.58-5.42-1.28-11.01-2.16-16.78-2.63-.3,0-.58-.03-.88-.05-4.29-.33-8.68-.43-13.17-.3-1.2.05-2.41.1-3.61.18-1.58.08-3.18.18-4.79.35-.13,0-.25,0-.38.02-1.56.15-3.11.33-4.66.5-.1.03-.2.03-.33.05-1.6.2-3.21.43-4.84.7-.1,0-.2.03-.28.03-3.34.55-6.72,1.2-10.16,1.98-.08.03-.15.03-.25.05-1.53.38-3.08.75-4.64,1.13-2.31.6-4.61,1.25-6.95,1.96-1.28.38-2.58.78-3.89,1.2-5.59,1.83-11.28,3.94-17.05,6.39-1.5.63-3.03,1.3-4.56,1.98-.48.23-.98.45-1.5.68-1.55.7-3.11,1.45-4.66,2.21-1.5.73-3.03,1.48-4.56,2.26-1.03.53-2.06,1.05-3.08,1.6-1.2.63-2.43,1.28-3.66,1.96-1.91,1.03-3.81,2.11-5.72,3.21l-22.09-12.84-83.96-48.77c7.87-4.54,15.67-8.53,23.32-11.96l82.65,48.02c4.64-2.68,9.28-5.19,13.87-7.52.93-.5,1.88-.95,2.83-1.43.93-.45,1.83-.9,2.73-1.33,1.28-.63,2.56-1.23,3.84-1.81,2.56-1.18,5.09-2.31,7.62-3.39,1.33-.58,2.66-1.1,3.96-1.63.68-.28,1.33-.55,2.01-.8,1.35-.55,2.71-1.05,4.06-1.55,1.1-.4,2.21-.8,3.31-1.2,1.38-.5,2.76-.95,4.11-1.4,1.38-.48,2.73-.9,4.11-1.33,1.35-.43,2.71-.83,4.06-1.2,1.35-.4,2.68-.78,4.04-1.13,2.16-.58,4.29-1.1,6.39-1.58.85-.2,1.71-.38,2.56-.58h.03c.2-.03.4-.07.6-.12,1.4-.28,2.81-.58,4.19-.83,1.4-.25,2.78-.5,4.16-.73h.05l70.01,40.7Z"/><path class="cls-3" d="m634.22,1781.17c.8.14,1.65.96,2.35,1.37,3,1.74,6,3.49,9,5.23,4.54,2.64,9.08,5.27,13.61,7.91,27.03,15.71,54.05,31.41,81.08,47.12-31.56,6.09-59.87,1.86-82.87-11.52l-106.04-61.63c23,13.38,51.3,17.61,82.87,11.52Z"/><path class="cls-5" d="m1106.94,1151.72c-1.38.2-2.78.45-4.16.73-1.4.25-2.78.53-4.19.83-.2.05-.4.1-.6.12h-.03c-.85.2-1.71.38-2.56.58-2.11.48-4.24,1-6.39,1.58-1.33.35-2.68.73-4.04,1.13-1.35.38-2.71.78-4.06,1.2-1.38.43-2.73.85-4.11,1.33-1.38.45-2.73.9-4.11,1.4-1.1.4-2.21.8-3.31,1.2-1.35.5-2.71,1-4.06,1.55-.65.25-1.33.53-2.01.8-1.3.53-2.63,1.05-3.96,1.63-2.53,1.08-5.07,2.21-7.62,3.39-1.28.58-2.56,1.18-3.84,1.81-.9.43-1.81.88-2.73,1.33-.93.45-1.88.93-2.83,1.43-4.59,2.33-9.23,4.84-13.87,7.52l-82.65-48.02c48.67-21.84,92.51-21.47,125.43-2.31l.18.1,35.53,20.66Z"/><path class="cls-3" d="m1193.13,1165.29c-1.05-.6-2.08-1.2-3.16-1.76-.95-.53-1.91-1.03-2.86-1.48-.93-.48-1.86-.93-2.81-1.35-.05-.05-.13-.08-.2-.1-.07-.05-.18-.08-.25-.1-.85-.43-1.71-.8-2.58-1.15-.98-.45-1.96-.85-2.93-1.23-.08-.03-.13-.05-.2-.08-.95-.4-1.91-.78-2.88-1.1-2.06-.73-4.11-1.43-6.22-2.06-2.08-.65-4.19-1.23-6.34-1.73-.93-.25-1.88-.45-2.83-.65-1.86-.4-3.71-.78-5.62-1.08-.08,0-.15-.02-.23-.05-.85-.12-1.71-.28-2.56-.38-.28-.03-.55-.08-.85-.13-.78-.13-1.58-.23-2.38-.3-1.98-.25-3.99-.45-6.02-.58-1-.1-2.01-.15-3.03-.18-4.34-.23-8.75-.25-13.22-.05-3.11.13-6.22.35-9.38.68-1.05.1-2.11.23-3.16.35-1.18.15-2.33.3-3.51.48-.95.13-1.93.28-2.91.45h-.05l-35.53-20.66-.18-.1c-32.93-19.16-76.76-19.53-125.43,2.31l-23.4-13.59c64.25-37.09,122.55-40.47,164.68-16l106.05,61.61Z"/><polygon class="cls-4" points="1028.53 1206.84 804.84 1335.98 783.7 1323.7 698.79 1274.37 720.81 1261.66 804.77 1310.43 1006.43 1194 1028.53 1206.84"/><polygon class="cls-5" points="1006.43 1194 804.77 1310.43 720.81 1261.66 922.48 1145.22 1006.43 1194"/><polygon class="cls-3" points="1028.45 1181.29 1006.43 1194 922.48 1145.22 720.81 1261.66 698.72 1248.82 922.4 1119.67 945.8 1133.26 1028.45 1181.29"/><path class="cls-4" d="m657.44,1831.31l-106.04-61.63c-37.63-21.87-61.04-68.23-61.23-133.94-.38-132.3,93.51-294.91,208.63-361.37l106.04,61.63c-115.12,66.46-209,229.08-208.63,361.37.19,65.71,23.6,112.07,61.23,133.94Z"/><path class="cls-3" d="m804.77,1310.43c-7.1,4.11-14.12,8.53-21.06,13.27-117.79,80.3-210.12,247.93-209.72,386.51,0,2.26.03,4.49.1,6.72v.12c.05,1.76.1,3.49.18,5.22.03.75.08,1.5.1,2.26.1,1.88.23,3.76.35,5.59.13,1.88.28,3.76.45,5.59.05.5.1,1,.15,1.5.15,1.45.3,2.88.48,4.29.05.63.13,1.28.23,1.91.2,1.86.45,3.66.73,5.47.3,2.03.6,4.04.95,5.99.35,1.98.7,3.94,1.1,5.87.75,3.81,1.6,7.55,2.56,11.21.03.12.05.25.1.38.45,1.76.93,3.46,1.43,5.17.43,1.48.85,2.91,1.3,4.34.1.33.2.65.3.98.55,1.71,1.13,3.39,1.71,5.04.33.88.65,1.76.98,2.63.1.33.23.65.38,1,.3.83.63,1.65.95,2.46.53,1.33,1.08,2.66,1.63,3.96.65,1.53,1.33,3.01,2.01,4.49.1.2.18.38.28.58.68,1.45,1.38,2.88,2.11,4.31.88,1.76,1.81,3.46,2.76,5.17.68,1.23,1.38,2.43,2.11,3.61.78,1.3,1.58,2.58,2.41,3.86.13.2.25.43.4.63.8,1.25,1.65,2.51,2.51,3.71.93,1.33,1.86,2.61,2.83,3.89,1.03,1.38,2.11,2.73,3.21,4.06.85,1.03,1.73,2.06,2.61,3.06.08.1.18.2.28.3.95,1.1,1.93,2.16,2.91,3.18.03.05.08.08.13.13,1,1.05,2.01,2.06,3.03,3.06.15.15.33.33.5.48.8.78,1.6,1.53,2.41,2.23,1.48,1.38,3.03,2.71,4.59,3.96,1.03.85,2.08,1.68,3.13,2.46,1.13.88,2.28,1.73,3.46,2.56.07.03.13.08.2.13,1.2.83,2.43,1.65,3.69,2.46.03,0,.05.03.1.05,1.15.75,2.31,1.45,3.46,2.11.13.1.23.15.35.23l-106.05-61.61c-41.58-24.17-67.41-75.51-67.61-148.38-.43-146.73,103.12-326.07,230.78-399.78l22.09,12.84,83.96,48.77Z"/><path class="cls-3" d="m1189.97,1163.53c-.95-.5-1.91-1-2.86-1.48-.93-.45-1.86-.9-2.81-1.35-.05-.05-.13-.08-.2-.1-.07-.05-.18-.08-.25-.1-.85-.4-1.71-.78-2.58-1.15-.98-.43-1.96-.83-2.93-1.23-.08-.03-.13-.05-.2-.08-.98-.38-1.93-.75-2.88-1.1-2.06-.73-4.11-1.43-6.22-2.06-2.08-.63-4.21-1.2-6.34-1.73-.95-.23-1.88-.45-2.83-.65-1.86-.4-3.74-.75-5.62-1.08-.08,0-.15-.02-.23-.05-.85-.12-1.71-.25-2.56-.38-.28-.03-.55-.08-.85-.13-.8-.1-1.58-.2-2.38-.3-1.98-.23-3.99-.43-6.02-.58-1-.08-2.01-.13-3.03-.18-4.34-.23-8.73-.25-13.22-.05-3.11.13-6.22.35-9.38.68-1.05.1-2.11.23-3.16.35-1.18.15-2.33.3-3.51.48-.95.15-1.93.3-2.91.45h-.05c-1.38.23-2.76.48-4.16.73-1.38.25-2.78.55-4.19.83-.2.05-.4.1-.6.12h-.03c-.85.2-1.71.38-2.56.58-2.11.5-4.26,1.03-6.39,1.58-1.35.35-2.68.73-4.04,1.13-1.35.38-2.71.78-4.06,1.2-1.38.43-2.73.85-4.11,1.33-1.35.45-2.73.9-4.11,1.4-1.1.4-2.21.8-3.31,1.2-1.35.5-2.71,1-4.06,1.55-.68.25-1.33.53-2.01.8-1.3.53-2.63,1.05-3.96,1.63-2.53,1.08-5.07,2.21-7.62,3.39-1.28.58-2.56,1.18-3.84,1.81-.9.43-1.81.88-2.73,1.33-.95.48-1.91.93-2.83,1.43-4.59,2.33-9.23,4.84-13.87,7.52l-22.02,12.71-201.67,116.43c-7.1,4.11-14.12,8.53-21.06,13.27-117.79,80.3-210.12,247.93-209.72,386.51,0,2.26.03,4.49.1,6.72v.12c.05,1.76.1,3.49.18,5.22.03.75.08,1.5.1,2.26.1,1.88.23,3.76.35,5.59.13,1.88.28,3.76.45,5.59.05.5.1,1,.15,1.5.15,1.45.3,2.88.48,4.29.05.63.13,1.28.23,1.91.2,1.86.45,3.66.73,5.47.3,2.03.6,4.04.95,5.99.35,1.98.7,3.94,1.1,5.87.75,3.84,1.6,7.57,2.56,11.21.03.12.05.25.1.38.45,1.76.93,3.46,1.43,5.17.43,1.48.85,2.91,1.3,4.34.1.33.2.65.3.98.55,1.71,1.13,3.39,1.71,5.04.33.88.65,1.76.98,2.63.1.33.23.65.38,1,.3.83.63,1.65.95,2.46.53,1.33,1.08,2.66,1.63,3.96.65,1.53,1.33,3.01,2.01,4.49.1.2.18.38.28.58.68,1.45,1.38,2.88,2.11,4.31.88,1.76,1.81,3.46,2.76,5.17.68,1.23,1.38,2.43,2.11,3.61.78,1.3,1.58,2.58,2.41,3.86.13.2.25.43.4.63.8,1.25,1.65,2.51,2.51,3.71.93,1.33,1.86,2.61,2.83,3.89,1.03,1.38,2.11,2.73,3.21,4.06.85,1.03,1.73,2.06,2.61,3.06.08.1.18.2.28.3.95,1.1,1.93,2.16,2.91,3.18.03.05.08.08.13.13,1,1.05,2.01,2.06,3.03,3.06.15.15.33.33.5.48.8.78,1.6,1.53,2.41,2.23,1.48,1.38,3.03,2.71,4.59,3.96,1.03.85,2.08,1.68,3.13,2.46,1.13.88,2.28,1.73,3.46,2.56.07.03.13.08.2.13,1.2.83,2.43,1.65,3.69,2.46.03,0,.05.03.1.05.58.38,1.15.75,1.73,1.1.58.35,1.15.68,1.73,1,.05.05.1.08.15.12.08.03.13.05.2.1,42.13,24.48,100.43,21.09,164.68-16l223.69-129.15c127.67-73.7,231.21-253.05,230.81-399.75-.23-74.7-27.36-126.76-70.79-150.16Zm48.55,163.88c0,2.03-.03,4.06-.08,6.12v.03c-.05,2.06-.1,4.14-.2,6.22v.03c-.08,1.56-.15,3.08-.23,4.61-.02.2-.02.43-.05.63,0,.18-.03.35-.03.53-.03.35-.05.7-.08,1.05-.13,2.03-.28,4.09-.45,6.14-.05.48-.1.98-.15,1.48-.1,1.28-.23,2.58-.38,3.91-.05.68-.13,1.35-.2,2.06-.05.35-.08.73-.13,1.1-.05.48-.1.95-.18,1.43-.08.68-.15,1.38-.23,2.08-.03.1-.05.23-.05.35-.03.12-.03.25-.05.4-.1.78-.2,1.6-.33,2.41-.1.85-.23,1.73-.35,2.58-.1.8-.23,1.58-.33,2.38-.05.35-.1.7-.18,1.08-.48,3.24-1,6.5-1.6,9.78-.43,2.38-.88,4.76-1.35,7.17-.4,2.03-.83,4.09-1.28,6.14-.23,1.05-.45,2.11-.7,3.18-.1.48-.2.98-.33,1.45-.65,2.91-1.35,5.82-2.08,8.75-.48,1.81-.95,3.61-1.43,5.44-.3,1.15-.63,2.33-.95,3.49-.23.9-.48,1.81-.75,2.71-.45,1.61-.93,3.21-1.4,4.84-.3,1.03-.63,2.06-.93,3.08-.55,1.88-1.15,3.76-1.76,5.64-.2.65-.4,1.3-.63,1.93-.58,1.83-1.18,3.66-1.81,5.47v.03c-.73,2.18-1.48,4.34-2.26,6.5-.65,1.83-1.3,3.66-1.98,5.49-.48,1.3-.95,2.61-1.45,3.89-.18.48-.38.98-.58,1.48-.45,1.23-.93,2.43-1.4,3.64-.18.45-.35.9-.53,1.35-.23.55-.43,1.1-.68,1.65-.95,2.46-1.96,4.89-2.98,7.35-.3.73-.6,1.45-.93,2.18-.9,2.16-1.86,4.31-2.81,6.47-.78,1.76-1.55,3.51-2.36,5.27-.98,2.13-1.96,4.26-2.96,6.39-1,2.11-2.01,4.21-3.06,6.32-1.03,2.11-2.08,4.21-3.13,6.32-.8,1.55-1.58,3.08-2.38,4.64-.28.5-.53.98-.78,1.48-1.28,2.43-2.56,4.84-3.89,7.25-1.18,2.16-2.36,4.31-3.59,6.47-.93,1.68-1.88,3.33-2.86,5.02-.68,1.18-1.38,2.38-2.08,3.56-.5.85-1,1.71-1.5,2.53-1.2,2.03-2.43,4.04-3.66,6.04-4.94,8.05-10.11,15.92-15.47,23.65-1.08,1.53-2.16,3.08-3.24,4.61-1.88,2.63-3.76,5.24-5.69,7.82-.83,1.13-1.66,2.23-2.48,3.34-.43.55-.8,1.08-1.2,1.58-.98,1.28-1.96,2.56-2.93,3.81-.93,1.2-1.86,2.38-2.78,3.56-.53.65-1.05,1.3-1.55,1.96-.05.08-.1.13-.15.18-.48.6-.95,1.2-1.43,1.78-1,1.23-2.01,2.46-3.01,3.69-.28.33-.55.65-.8.98-1.25,1.5-2.51,2.98-3.76,4.46-1.93,2.28-3.89,4.54-5.87,6.77-.35.38-.68.75-1.03,1.13-.45.53-.93,1.05-1.43,1.58-1.15,1.3-2.33,2.61-3.54,3.89-.68.73-1.33,1.48-2.03,2.21-.4.45-.83.88-1.25,1.33-1.4,1.5-2.83,3.01-4.26,4.49-1.53,1.58-3.08,3.16-4.64,4.69-.33.35-.68.7-1.03,1.03-.93.93-1.88,1.86-2.81,2.78-1.2,1.18-2.41,2.33-3.61,3.46-.75.73-1.48,1.43-2.23,2.11-.03.03-.03.05-.05.08-.03,0-.08.05-.1.08-3.06,2.88-6.14,5.67-9.28,8.4-.65.6-1.3,1.15-1.98,1.73-1.18,1.03-2.36,2.03-3.54,3.03-1.66,1.4-3.34,2.81-5.02,4.16-.68.55-1.35,1.1-2.06,1.65-1.38,1.1-2.76,2.21-4.16,3.29-1,.78-1.98,1.56-3.01,2.33-.35.25-.68.5-1.03.78l-5.19,3.84c-.8.58-1.63,1.15-2.43,1.73-.6.43-1.18.85-1.78,1.25-.65.45-1.28.9-1.93,1.35-.4.28-.8.55-1.2.83-1.05.7-2.11,1.4-3.16,2.11v.03c-.3.2-.63.4-.93.6-1.23.8-2.46,1.61-3.69,2.38-.58.4-1.18.75-1.76,1.13-1.4.9-2.83,1.78-4.26,2.63-.9.53-1.78,1.08-2.68,1.6-.88.53-1.78,1.05-2.68,1.58l-223.69,129.15c-1.05.6-2.08,1.2-3.13,1.78-.75.43-1.5.85-2.26,1.25-1.33.73-2.66,1.43-3.99,2.13-.45.25-.9.48-1.35.7-1.1.6-2.21,1.15-3.31,1.71-.68.33-1.35.65-2.01.98-1.78.88-3.51,1.71-5.24,2.51-.15.05-.28.13-.4.18-1.65.75-3.29,1.48-4.89,2.16-1.76.75-3.49,1.48-5.19,2.16-1.15.48-2.28.9-3.41,1.33-.28.12-.55.23-.83.3-.85.35-1.71.65-2.56.95-1.18.43-2.33.83-3.49,1.23-.15.05-.28.1-.43.15-.1.03-.2.05-.3.1-.6.2-1.23.4-1.83.6-.6.2-1.23.4-1.81.58-.38.12-.75.25-1.13.35-.4.13-.78.25-1.15.35-.7.2-1.38.4-2.06.6-.78.23-1.55.45-2.33.65-.18.05-.38.1-.55.15-.6.18-1.18.33-1.78.48-.58.15-1.15.3-1.73.45-1.71.43-3.39.8-5.07,1.18-1.25.28-2.48.53-3.71.75-.03,0-.05.02-.07.02-.95.18-1.91.35-2.83.5-.53.1-1.03.2-1.55.28-.48.08-.98.15-1.45.23-.38.05-.75.13-1.13.18-.5.07-.98.12-1.45.2-.13.02-.25.02-.38.05-.8.1-1.58.2-2.38.3-.07,0-.18.03-.28.03-1.5.18-3.03.33-4.54.45-1.58.15-3.18.25-4.76.33-.55.02-1.13.07-1.68.07-.58.03-1.13.05-1.68.05-1.08.03-2.16.05-3.24.05s-2.18-.03-3.28-.05c-.68,0-1.38-.02-2.06-.07-.03.02-.03,0-.03,0t-.05,0c-.6-.03-1.15-.05-1.76-.08-1.08-.05-2.13-.12-3.21-.23-.68-.05-1.35-.1-2.01-.18-.1,0-.2-.03-.3-.03-.7-.07-1.4-.15-2.08-.25-.63-.05-1.25-.15-1.86-.23-1.76-.25-3.49-.53-5.19-.83-.38-.07-.73-.12-1.08-.2-.23-.05-.45-.1-.68-.15-.78-.15-1.53-.3-2.31-.48-.02,0-.07,0-.1-.03-.13-.03-.25-.05-.38-.1-.68-.13-1.35-.3-2.03-.48-.1,0-.23-.05-.33-.08-.28-.08-.53-.13-.8-.2-.38-.1-.75-.2-1.1-.3-.93-.23-1.83-.5-2.73-.78-.23-.08-.43-.13-.65-.2-.78-.23-1.55-.48-2.31-.73-3.26-1.08-6.42-2.31-9.5-3.69-.35-.15-.7-.3-1.03-.48-.55-.23-1.1-.5-1.63-.75-1.18-.55-2.33-1.15-3.46-1.76-.18-.08-.35-.18-.5-.25-1-.53-1.98-1.08-2.96-1.65-.18-.1-.33-.23-.5-.33-.28-.13-.53-.28-.8-.45-.25-.15-.5-.3-.78-.48h-.03c-.25-.18-.53-.33-.75-.5-.05-.03-.08-.05-.13-.08-.18-.1-.35-.2-.5-.3-.35-.2-.7-.43-1.05-.68-.33-.2-.65-.43-.98-.65-.4-.25-.8-.53-1.18-.78-.88-.63-1.76-1.25-2.63-1.91-.05-.05-.13-.1-.2-.15-.03,0-.05-.03-.08-.05l-.1-.1c-.13-.1-.28-.2-.38-.25-.8-.63-1.61-1.25-2.41-1.91-.5-.38-.98-.78-1.45-1.18-.03,0-.05-.03-.05-.05-.75-.6-1.48-1.23-2.18-1.88-.55-.48-1.1-.98-1.66-1.5-.05-.05-.13-.08-.18-.15-.35-.3-.7-.63-1.03-.95-.4-.38-.78-.73-1.15-1.1-.83-.8-1.63-1.63-2.43-2.46-.78-.8-1.56-1.63-2.28-2.48-.18-.18-.33-.33-.45-.5-.05-.05-.1-.1-.15-.15-.1-.1-.2-.23-.3-.35-.05-.05-.13-.13-.18-.2-.53-.6-1.05-1.2-1.55-1.83-.38-.43-.73-.85-1.08-1.3-.65-.78-1.28-1.58-1.88-2.38-.28-.35-.55-.7-.8-1.05-.65-.85-1.28-1.71-1.88-2.61-.1-.1-.18-.2-.23-.33-.85-1.18-1.66-2.38-2.46-3.61-.03,0-.03-.03-.05-.05-.78-1.2-1.53-2.46-2.28-3.71-.8-1.25-1.55-2.56-2.26-3.89-.38-.68-.75-1.33-1.1-2.01-.38-.68-.73-1.33-1.05-2.03-.23-.4-.43-.83-.63-1.25-.5-.95-.98-1.93-1.4-2.91-.13-.23-.23-.43-.3-.65-.13-.2-.2-.4-.3-.63-.45-.98-.9-1.98-1.33-3.01-.03,0-.03-.03-.05-.05-1.78-4.16-3.41-8.48-4.86-12.97-.15-.38-.28-.75-.38-1.15-.48-1.4-.9-2.81-1.3-4.26-.33-1.05-.63-2.13-.9-3.24-.18-.58-.33-1.13-.48-1.73-.3-1.18-.6-2.38-.88-3.59-.08-.23-.13-.45-.15-.68-.07-.25-.15-.48-.18-.73-.38-1.5-.7-3.03-1-4.59-.1-.45-.2-.9-.28-1.35-.33-1.58-.6-3.16-.88-4.76-.23-1.25-.43-2.48-.6-3.76l-.08-.53s-.05-.07-.03-.12c-.15-.78-.25-1.56-.35-2.33-.08-.48-.15-.98-.2-1.45-.25-1.73-.45-3.49-.63-5.27-.05-.15-.05-.3-.05-.45-.08-.5-.13-1.03-.18-1.56-.05-.45-.1-.9-.13-1.38-.07-.63-.13-1.28-.18-1.93-.1-.93-.18-1.88-.23-2.83-.03-.35-.05-.73-.08-1.08-.13-1.48-.2-2.96-.28-4.44-.08-1.4-.13-2.81-.18-4.21v-.03c-.03-.13-.03-.28,0-.4-.05-1.1-.1-2.21-.13-3.31v-.35c-.03-1.5-.05-3.03-.05-4.59-.38-132.3,93.51-294.9,208.64-361.38l223.69-129.15c1.91-1.1,3.81-2.18,5.72-3.21,1.23-.68,2.46-1.33,3.66-1.96,1.03-.55,2.06-1.08,3.08-1.6,1.53-.78,3.06-1.53,4.56-2.26,1.55-.75,3.11-1.5,4.66-2.21.53-.23,1.03-.45,1.5-.68,1.53-.68,3.06-1.35,4.56-1.98,5.77-2.46,11.46-4.56,17.05-6.39,1.3-.43,2.61-.83,3.89-1.2,2.33-.7,4.64-1.35,6.95-1.96,1.55-.38,3.11-.75,4.64-1.13.1-.03.18-.03.25-.05,3.44-.78,6.82-1.43,10.16-1.98.08,0,.18-.03.28-.03,1.63-.28,3.24-.5,4.84-.7.13-.03.23-.03.33-.05,1.56-.18,3.11-.35,4.66-.5.13-.02.25-.02.38-.02,1.61-.18,3.21-.28,4.79-.35,1.2-.08,2.41-.13,3.61-.18,4.49-.13,8.88-.03,13.17.3.3.03.58.05.88.05,5.77.48,11.36,1.35,16.78,2.63.78.18,1.53.35,2.28.58,1.2.28,2.36.6,3.54.95.43.13.83.23,1.23.38,1.03.3,2.06.63,3.06.98.8.28,1.63.58,2.43.88,3.13,1.15,6.19,2.46,9.18,3.91,1.05.5,2.11,1.03,3.13,1.58,1.05.55,2.06,1.13,3.08,1.71l.15.08c.08.03.13.08.18.1.45.25.88.53,1.3.78.18.1.33.2.48.3,1.3.78,2.56,1.58,3.81,2.43.15.08.3.18.45.3.95.63,1.91,1.3,2.81,1.96.45.33.88.65,1.3.98.4.28.75.58,1.13.88.5.38.98.75,1.43,1.13.28.2.55.43.83.65.5.4.95.8,1.43,1.23.45.38.9.73,1.3,1.13.07.05.15.1.2.18.25.2.48.4.68.6.15.13.3.25.43.4.18.15.35.3.53.48.38.33.73.65,1.08,1,.25.23.5.45.73.7.95.9,1.88,1.83,2.78,2.78.03.03.05.05.07.08.68.7,1.35,1.43,1.98,2.16.18.18.33.35.48.53.43.45.85.93,1.23,1.4.18.2.35.38.48.55.6.7,1.18,1.4,1.76,2.08.03.02.03.05.03.05.8.98,1.55,1.93,2.28,2.91.23.28.43.55.63.85,1.4,1.88,2.78,3.81,4.09,5.82.05.08.1.18.15.25.05.07.1.12.15.2.63.98,1.25,1.96,1.83,2.96.35.55.7,1.13,1.03,1.71.18.25.33.5.45.75.43.75.85,1.48,1.25,2.23.13.18.23.38.35.58.6,1.13,1.2,2.28,1.81,3.44.58,1.13,1.13,2.26,1.68,3.41.33.68.63,1.33.93,2.01.28.58.55,1.18.8,1.78.2.43.4.88.58,1.3.63,1.45,1.23,2.88,1.78,4.36.6,1.5,1.18,3.01,1.71,4.56.13.33.25.65.35,1,.33.9.65,1.86.95,2.78.05.08.07.15.07.23.15.43.28.88.43,1.33.2.6.4,1.18.55,1.78.08.15.13.33.15.48.2.63.4,1.23.55,1.86.43,1.43.83,2.86,1.2,4.31.38,1.38.73,2.78,1.05,4.21.18.73.35,1.45.5,2.18.03.08.05.13.05.2.3,1.28.58,2.58.83,3.89.1.35.18.73.23,1.08.15.73.3,1.45.43,2.21.1.53.2,1.08.3,1.6.08.43.15.83.2,1.23.15.85.3,1.73.43,2.58.1.6.2,1.18.28,1.78l.08.53c.1.53.18,1.03.23,1.55.13.88.25,1.73.35,2.61.1.75.2,1.5.28,2.28.1.88.23,1.78.3,2.71.05.4.1.8.13,1.2.03.23.05.45.05.68.03.08.05.15.03.23.13,1.1.23,2.23.3,3.36.23,2.46.38,4.91.5,7.42.03.23.03.45.03.68.03.43.05.85.08,1.28v.1c.03.7.08,1.4.08,2.11.03.13.03.25,0,.38.05,1.08.1,2.18.13,3.29v.38c.03,1.53.05,3.06.05,4.61v.9Z"/><path class="cls-4" d="m1028.52,1206.85c115.12-66.46,209.61-12.61,209.99,119.67.38,132.3-93.51,294.91-208.63,361.37l-223.69,129.14c-115.12,66.46-209.61,12.61-209.99-119.67-.38-132.3,93.51-294.91,208.63-361.37l223.69-129.14Z"/></g><g class="cls-9"><g class="cls-1"><path class="cls-3" d="m772.2,1530.48c-31.32,18.08-56.63,61.92-56.53,97.91.1,35.99,25.58,50.51,56.9,32.43s56.63-61.92,56.52-97.91c-.1-35.99-25.58-50.5-56.89-32.42"/><path class="cls-3" d="m917.18,1446.78c-31.32,18.08-56.63,61.92-56.53,97.91.1,35.99,25.58,50.51,56.9,32.43,31.32-18.08,56.63-61.92,56.52-97.91s-25.58-50.5-56.89-32.42"/><path class="cls-3" d="m1062.16,1363.07c-31.32,18.08-56.63,61.92-56.53,97.91.1,35.99,25.58,50.51,56.9,32.43,31.32-18.08,56.63-61.92,56.52-97.91-.1-35.99-25.58-50.5-56.89-32.42"/></g></g><g class="cls-9"><g class="cls-6"><path class="cls-3" d="m844.66,373.89L205.82,742.72c-9.33,5.39-16.88,18.45-16.85,29.18s7.62,15.05,16.96,9.66l638.84-368.83c9.33-5.39,16.88-18.45,16.85-29.18s-7.62-15.05-16.96-9.66"/></g></g><g class="cls-9"><g class="cls-8"><path class="cls-3" d="m717.12,587.5l-498.49,287.8c-9.33,5.39-16.88,18.45-16.85,29.18s7.62,15.05,16.96,9.66l498.49-287.8c9.33-5.39,16.88-18.45,16.85-29.18s-7.62-15.05-16.96-9.66"/></g></g><g class="cls-9"><g class="cls-7"><path class="cls-3" d="m517.9,852.48l-283.54,163.7c-9.33,5.39-16.88,18.45-16.85,29.18s7.62,15.05,16.96,9.66l283.54-163.7c9.33-5.39,16.88-18.45,16.85-29.18s-7.63-15.05-16.96-9.66"/></g></g></g></svg>