<svg width="621" height="549" viewBox="0 0 621 549" fill="none" xmlns="http://www.w3.org/2000/svg">
<g opacity="0.4">
<path d="M569.515 164.869L518.156 135.214L569.515 105.562L620.874 135.215L569.515 164.869ZM521.793 135.215L569.515 162.77L617.237 135.217L569.515 107.665L521.793 135.215Z" fill="white"/>
<path d="M470.437 164.868L469.984 164.605L419.076 135.215L470.435 105.562L470.888 105.824L521.795 135.214L470.437 164.868ZM422.711 135.215L470.435 162.768L518.157 135.215L470.433 107.663L422.711 135.215Z" fill="white"/>
<path d="M519.976 193.47L468.617 163.816L519.976 134.162L571.335 163.818L519.976 193.47ZM472.252 163.818L519.974 191.37L567.697 163.819L519.974 136.265L472.252 163.818Z" fill="white"/>
<path d="M569.517 222.073L569.064 221.811L518.156 192.421L569.515 162.769L569.968 163.031L620.875 192.421L569.517 222.073ZM521.793 192.421L569.517 219.973L617.239 192.423L569.515 164.87L521.793 192.421Z" fill="white"/>
<path d="M371.351 164.867L370.898 164.604L319.99 135.215L371.349 105.562L371.802 105.825L422.709 135.215L371.351 164.867ZM323.627 135.213L371.351 162.766L419.073 135.215L371.349 107.662L323.627 135.213Z" fill="white"/>
<path d="M420.892 193.47L369.531 163.816L420.89 134.164L421.343 134.427L472.25 163.816L420.892 193.47ZM373.168 163.816L420.892 191.371L468.614 163.818L420.89 136.265L373.168 163.816Z" fill="white"/>
<path d="M470.439 222.073L469.985 221.811L419.078 192.421L470.437 162.769L521.796 192.421L470.439 222.073ZM422.714 192.421L470.439 219.973L518.159 192.421L470.437 164.868L422.714 192.421Z" fill="white"/>
<path d="M519.978 250.677L468.619 221.023L519.976 191.369L520.429 191.632L571.337 221.021L519.978 250.677ZM472.254 221.025L519.976 248.577L567.699 221.025L519.975 193.472L472.254 221.025Z" fill="white"/>
<path d="M569.519 279.281L569.065 279.018L518.158 249.629L569.517 219.975L620.877 249.629L569.519 279.281ZM521.795 249.627L569.519 277.18L617.241 249.629L569.517 222.074L521.795 249.627Z" fill="white"/>
<path d="M272.267 164.868L271.814 164.605L220.906 135.215L272.265 105.562L272.718 105.824L323.625 135.214L272.267 164.868ZM224.543 135.214L272.267 162.766L319.989 135.214L272.265 107.661L224.543 135.214Z" fill="white"/>
<path d="M321.812 193.468L321.359 193.206L270.451 163.816L321.81 134.162L322.263 134.425L373.17 163.814L321.812 193.468ZM274.086 163.816L321.81 191.369L369.532 163.816L321.808 136.263L274.086 163.816Z" fill="white"/>
<path d="M371.353 222.071L370.899 221.808L319.992 192.419L371.351 162.765L422.711 192.419L371.353 222.071ZM323.629 192.419L371.353 219.971L419.075 192.42L371.351 164.866L323.629 192.419Z" fill="white"/>
<path d="M420.898 250.677L369.537 221.022L420.896 191.371L421.349 191.634L472.256 221.023L420.898 250.677ZM373.173 221.022L420.898 248.576L468.62 221.023L420.896 193.471L373.173 221.022Z" fill="white"/>
<path d="M470.437 279.282L419.078 249.628L470.437 219.974L521.796 249.628L470.437 279.282ZM422.714 249.628L470.437 277.18L518.159 249.628L470.437 222.075L422.714 249.628Z" fill="white"/>
<path d="M519.98 307.883L519.526 307.621L468.619 278.231L519.978 248.577L520.431 248.84L571.338 278.229L519.98 307.883ZM472.254 278.229L519.978 305.782L567.7 278.229L519.976 250.677L472.254 278.229Z" fill="white"/>
<path d="M569.519 336.488L569.066 336.225L518.158 306.836L569.517 277.182L569.97 277.444L620.877 306.834L569.519 336.488ZM521.795 306.834L569.519 334.387L617.241 306.834L569.517 279.281L521.795 306.834Z" fill="white"/>
<path d="M173.183 164.865L172.73 164.602L121.822 135.212L173.181 105.562L173.634 105.824L224.542 135.214L173.183 164.865ZM125.459 135.212L173.183 162.765L220.905 135.214L173.181 107.661L125.459 135.212Z" fill="white"/>
<path d="M222.726 193.468L171.365 163.812L222.724 134.16L223.177 134.423L274.084 163.812L222.726 193.468ZM175.002 163.814L222.726 191.368L270.448 163.816L222.724 136.263L175.002 163.814Z" fill="white"/>
<path d="M272.273 222.071L271.819 221.808L220.912 192.419L272.271 162.765L272.724 163.027L323.631 192.417L272.273 222.071ZM224.547 192.419L272.271 219.971L319.993 192.419L272.269 164.866L224.547 192.419Z" fill="white"/>
<path d="M321.814 250.675L321.36 250.413L270.453 221.023L321.812 191.369L322.265 191.632L373.172 221.021L321.814 250.675ZM274.088 221.021L321.812 248.574L369.534 221.021L321.81 193.469L274.088 221.021Z" fill="white"/>
<path d="M371.353 279.28L370.9 279.017L319.992 249.628L371.351 219.974L422.711 249.628L371.353 279.28ZM323.629 249.626L371.353 277.179L419.075 249.628L371.351 222.073L323.629 249.626Z" fill="white"/>
<path d="M420.896 307.882L369.537 278.228L420.896 248.577L472.255 278.231L420.896 307.882ZM373.173 278.228L420.896 305.78L468.618 278.229L420.896 250.677L373.173 278.228Z" fill="white"/>
<path d="M470.439 336.488L419.078 306.832L470.437 277.182L470.89 277.444L521.797 306.834L470.439 336.488ZM422.714 306.832L470.439 334.387L518.161 306.834L470.437 279.281L422.714 306.832Z" fill="white"/>
<path d="M519.98 365.089L519.526 364.826L468.619 335.436L519.978 305.782L520.431 306.045L571.338 335.435L519.98 365.089ZM472.255 335.436L519.98 362.989L567.702 335.436L519.978 307.884L472.255 335.436Z" fill="white"/>
<path d="M569.524 393.691L569.071 393.428L518.164 364.039L569.523 334.385L569.976 334.647L620.883 364.037L569.524 393.691ZM521.8 364.039L569.524 391.591L617.247 364.039L569.523 336.486L521.8 364.039Z" fill="white"/>
<path d="M74.1007 164.864L73.6476 164.601L22.7402 135.212L74.099 105.558L74.5521 105.82L125.459 135.21L74.1007 164.864ZM26.3766 135.212L74.1007 162.764L121.823 135.212L74.099 107.659L26.3766 135.212Z" fill="white"/>
<path d="M123.644 193.466L123.191 193.204L72.2832 163.814L123.642 134.16L124.095 134.423L175.002 163.812L123.644 193.466ZM75.9179 163.814L123.642 191.367L171.364 163.814L123.64 136.262L75.9179 163.814Z" fill="white"/>
<path d="M173.187 222.07L172.734 221.807L121.826 192.418L173.185 162.764L224.545 192.419L173.187 222.07ZM125.463 192.418L173.187 219.97L220.909 192.419L173.185 164.865L125.463 192.418Z" fill="white"/>
<path d="M222.728 250.675L171.367 221.021L222.726 191.369L223.179 191.632L274.086 221.021L222.728 250.675ZM175.004 221.021L222.728 248.576L270.45 221.023L222.726 193.471L175.004 221.021Z" fill="white"/>
<path d="M272.273 279.28L271.819 279.017L220.912 249.628L272.271 219.974L272.724 220.236L323.631 249.626L272.273 279.28ZM224.547 249.626L272.271 277.179L319.993 249.626L272.269 222.073L224.547 249.626Z" fill="white"/>
<path d="M321.814 307.882L321.36 307.62L270.453 278.23L321.812 248.576L322.265 248.839L373.172 278.228L321.814 307.882ZM274.088 278.228L321.812 305.781L369.534 278.228L321.81 250.676L274.088 278.228Z" fill="white"/>
<path d="M371.357 336.485L370.903 336.222L319.996 306.833L371.355 277.179L422.714 306.833L371.357 336.485ZM323.632 306.831L371.357 334.384L419.077 306.831L371.355 279.278L323.632 306.831Z" fill="white"/>
<path d="M420.898 365.086L369.539 335.432L420.896 305.778L472.257 335.434L420.898 365.086ZM373.175 335.434L420.898 362.987L468.62 335.436L420.896 307.881L373.175 335.434Z" fill="white"/>
<path d="M470.442 393.691L419.082 364.037L470.441 334.387L470.894 334.649L521.801 364.039L470.442 393.691ZM422.717 364.037L470.441 391.592L518.163 364.039L470.439 336.486L422.717 364.037Z" fill="white"/>
<path d="M519.985 422.295L519.532 422.032L468.625 392.642L519.984 362.988L520.437 363.251L571.344 392.641L519.985 422.295ZM472.26 392.642L519.984 420.195L567.706 392.642L519.982 365.09L472.26 392.642Z" fill="white"/>
<path d="M569.525 450.9L569.071 450.637L518.164 421.248L569.523 391.594L569.976 391.856L620.883 421.246L569.525 450.9ZM521.8 421.246L569.525 448.799L617.247 421.246L569.523 393.694L521.8 421.246Z" fill="white"/>
<path d="M74.1046 222.07L73.6515 221.807L22.7441 192.418L74.103 162.764L74.5561 163.026L125.463 192.416L74.1046 222.07ZM26.3805 192.418L74.1046 219.97L121.827 192.418L74.103 164.865L26.3805 192.418Z" fill="white"/>
<path d="M123.648 250.673L123.194 250.41L72.2871 221.02L123.646 191.366L124.099 191.629L175.006 221.019L123.648 250.673ZM75.9218 221.02L123.646 248.573L171.368 221.02L123.644 193.468L75.9218 221.02Z" fill="white"/>
<path d="M173.187 279.277L172.734 279.014L121.826 249.625L173.185 219.971L224.545 249.626L173.187 279.277ZM125.463 249.623L173.187 277.176L220.909 249.625L173.185 222.07L125.463 249.623Z" fill="white"/>
<path d="M222.728 307.881L222.274 307.618L171.367 278.228L222.726 248.576L223.179 248.839L274.086 278.228L222.728 307.881ZM175.004 278.227L222.728 305.779L270.45 278.228L222.726 250.676L175.004 278.227Z" fill="white"/>
<path d="M272.275 336.485L220.914 306.831L272.273 277.179L272.726 277.441L323.633 306.831L272.275 336.485ZM224.55 306.829L272.275 334.384L319.997 306.831L272.273 279.278L224.55 306.829Z" fill="white"/>
<path d="M321.814 365.087L321.36 364.824L270.453 335.434L321.812 305.78L322.265 306.043L373.172 335.433L321.814 365.087ZM274.089 335.434L321.814 362.987L369.536 335.434L321.812 307.882L274.089 335.434Z" fill="white"/>
<path d="M371.355 393.691L319.996 364.037L371.355 334.383L422.714 364.037L371.355 393.691ZM323.632 364.038L371.355 391.591L419.077 364.038L371.355 336.486L323.632 364.038Z" fill="white"/>
<path d="M420.9 422.294L420.446 422.031L369.539 392.641L420.898 362.987L472.258 392.643L420.9 422.294ZM373.175 392.641L420.9 420.194L468.622 392.643L420.898 365.089L373.175 392.641Z" fill="white"/>
<path d="M470.442 450.898L469.989 450.635L419.082 421.245L470.441 391.595L470.894 391.857L521.801 421.247L470.442 450.898ZM422.717 421.244L470.441 448.796L518.163 421.245L470.439 393.693L422.717 421.244Z" fill="white"/>
<path d="M519.985 479.502L468.625 449.846L519.984 420.195L520.437 420.458L571.344 449.848L519.985 479.502ZM472.26 449.846L519.984 477.4L567.706 449.848L519.982 422.295L472.26 449.846Z" fill="white"/>
<path d="M569.526 508.106L569.073 507.843L518.166 478.454L569.525 448.8L569.978 449.062L620.885 478.452L569.526 508.106ZM521.802 478.452L569.526 506.005L617.249 478.452L569.525 450.9L521.802 478.452Z" fill="white"/>
<path d="M74.1046 279.277L22.7441 249.623L74.1029 219.971L74.556 220.233L125.463 249.623L74.1046 279.277ZM26.3789 249.621L74.1029 277.176L121.825 249.623L74.1013 222.07L26.3789 249.621Z" fill="white"/>
<path d="M123.648 307.881L123.194 307.619L72.2871 278.229L123.646 248.575L124.099 248.838L175.006 278.228L123.648 307.881ZM75.9218 278.228L123.646 305.78L171.368 278.228L123.644 250.675L75.9218 278.228Z" fill="white"/>
<path d="M173.189 336.484L172.735 336.221L121.828 306.832L173.187 277.178L173.64 277.44L224.547 306.83L173.189 336.484ZM125.464 306.83L173.189 334.383L220.911 306.83L173.187 279.277L125.464 306.83Z" fill="white"/>
<path d="M222.73 365.085L222.276 364.822L171.369 335.432L222.728 305.778L274.088 335.432L222.73 365.085ZM175.005 335.432L222.73 362.985L270.452 335.434L222.728 307.88L175.005 335.432Z" fill="white"/>
<path d="M272.275 393.687L271.821 393.425L220.914 364.035L272.273 334.383L272.726 334.645L323.633 364.035L272.275 393.687ZM224.55 364.035L272.275 391.588L319.997 364.037L272.273 336.484L224.55 364.035Z" fill="white"/>
<path d="M321.814 422.294L270.455 392.64L321.814 362.987L373.173 392.641L321.814 422.294ZM274.091 392.64L321.814 420.194L369.536 392.641L321.814 365.089L274.091 392.64Z" fill="white"/>
<path d="M371.357 450.896L370.903 450.634L319.996 421.244L371.355 391.59L371.808 391.853L422.715 421.242L371.357 450.896ZM323.632 421.242L371.357 448.795L419.079 421.242L371.355 393.69L323.632 421.242Z" fill="white"/>
<path d="M420.899 479.501L420.446 479.238L369.539 449.848L420.898 420.194L421.351 420.457L472.258 449.847L420.899 479.501ZM373.175 449.847L420.899 477.399L468.622 449.847L420.898 422.294L373.175 449.847Z" fill="white"/>
<path d="M470.446 508.103L469.993 507.84L419.086 478.451L470.445 448.797L521.805 478.452L470.446 508.103ZM422.721 478.449L470.445 506.002L518.167 478.451L470.443 450.897L422.721 478.449Z" fill="white"/>
<path d="M74.1085 336.484L22.748 306.828L74.1069 277.178L74.56 277.44L125.467 306.83L74.1085 336.484ZM26.3844 306.828L74.1085 334.383L121.831 306.83L74.1069 279.277L26.3844 306.828Z" fill="white"/>
<path d="M123.649 365.085L123.196 364.822L72.2891 335.432L123.648 305.778L124.101 306.041L175.008 335.431L123.649 365.085ZM75.9238 335.432L123.648 362.985L171.37 335.432L123.646 307.88L75.9238 335.432Z" fill="white"/>
<path d="M173.189 393.689L172.735 393.426L121.828 364.037L173.187 334.383L173.64 334.645L224.547 364.035L173.189 393.689ZM125.464 364.037L173.189 391.589L220.911 364.037L173.187 336.484L125.464 364.037Z" fill="white"/>
<path d="M222.733 422.292L222.28 422.029L171.373 392.64L222.732 362.987L223.185 363.25L274.092 392.64L222.733 422.292ZM175.009 392.64L222.733 420.192L270.456 392.64L222.732 365.087L175.009 392.64Z" fill="white"/>
<path d="M272.276 450.896L271.823 450.633L220.916 421.244L272.275 391.59L323.634 421.244L272.276 450.896ZM224.551 421.244L272.275 448.796L319.996 421.245L272.273 393.691L224.551 421.244Z" fill="white"/>
<path d="M321.814 479.501L270.455 449.847L321.812 420.194L322.265 420.457L373.173 449.847L321.814 479.501ZM274.091 449.845L321.814 477.399L369.536 449.847L321.812 422.294L274.091 449.845Z" fill="white"/>
<path d="M371.36 508.103L370.907 507.84L320 478.451L371.359 448.797L371.812 449.06L422.719 478.449L371.36 508.103ZM323.636 478.449L371.36 506.002L419.083 478.449L371.359 450.897L323.636 478.449Z" fill="white"/>
<path d="M74.1085 393.686L73.6554 393.423L22.748 364.033L74.1068 334.383L74.5599 334.645L125.467 364.035L74.1085 393.686ZM26.3828 364.033L74.1068 391.586L121.829 364.035L74.1052 336.483L26.3828 364.033Z" fill="white"/>
<path d="M123.65 422.292L72.2891 392.638L123.648 362.985L124.101 363.248L175.008 392.638L123.65 422.292ZM75.9238 392.638L123.648 420.192L171.37 392.639L123.646 365.087L75.9238 392.638Z" fill="white"/>
<path d="M173.191 450.896L172.737 450.633L121.83 421.244L173.189 391.59L173.642 391.853L224.549 421.242L173.191 450.896ZM125.466 421.244L173.191 448.796L220.913 421.244L173.189 393.691L125.466 421.244Z" fill="white"/>
<path d="M222.735 479.499L222.282 479.236L171.375 449.846L222.734 420.192L223.187 420.455L274.094 449.845L222.735 479.499ZM175.011 449.845L222.735 477.397L270.458 449.845L222.734 422.292L175.011 449.845Z" fill="white"/>
<path d="M272.275 508.101L220.916 478.447L272.275 448.793L323.634 478.447L272.275 508.101ZM224.551 478.447L272.273 506L319.996 478.449L272.273 450.894L224.551 478.447Z" fill="white"/>
<path d="M74.1104 450.892L73.6573 450.63L22.75 421.24L74.1088 391.586L125.469 421.242L74.1104 450.892ZM26.3847 421.24L74.1088 448.793L121.831 421.242L74.1071 393.687L26.3847 421.24Z" fill="white"/>
<path d="M123.65 479.497L123.196 479.234L72.2891 449.845L123.648 420.192L124.101 420.455L175.008 449.845L123.65 479.497ZM75.9254 449.843L123.65 477.396L171.372 449.845L123.648 422.292L75.9254 449.843Z" fill="white"/>
<path d="M173.191 508.102L121.83 478.447L173.189 448.796L173.642 449.059L224.549 478.448L173.191 508.102ZM125.466 478.447L173.191 506.001L220.913 478.448L173.189 450.896L125.466 478.447Z" fill="white"/>
<path d="M74.1104 508.099L73.6573 507.837L22.75 478.447L74.1088 448.793L74.5619 449.056L125.469 478.445L74.1104 508.099ZM26.3847 478.445L74.1088 505.998L121.831 478.445L74.1072 450.893L26.3847 478.445Z" fill="white"/>
</g>
<path d="M315.988 71.7391C315.02 72.2989 314.084 72.9983 313.189 73.7896C312.802 61.1945 303.705 56.1857 292.509 62.649C283.391 67.9123 275.667 79.1842 272.897 90.2312C270.645 89.9275 268.002 90.5136 265.161 92.1536C256.999 96.8653 250.383 108.326 250.383 117.749C250.383 127.174 256.999 130.993 265.161 126.281L315.988 96.9359C322.015 93.4571 326.899 84.9958 326.899 78.0383C326.899 71.0808 322.015 68.2604 315.988 71.7391Z" fill="white"/>
<path d="M175.069 527.392C175.069 530.448 172.923 534.164 170.276 535.692C167.63 537.22 165.484 535.981 165.484 532.926C165.484 529.871 167.63 526.154 170.276 524.625C172.923 523.097 175.069 524.336 175.069 527.392Z" fill="white"/>
<path d="M190.602 518.426C190.602 521.483 188.456 525.198 185.81 526.726C183.163 528.255 181.018 527.015 181.018 523.96C181.018 520.905 183.163 517.188 185.81 515.66C188.456 514.131 190.602 515.369 190.602 518.426Z" fill="white"/>
<path d="M206.137 509.456C206.137 512.512 203.991 516.228 201.345 517.757C198.698 519.285 196.553 518.046 196.553 514.99C196.553 511.935 198.698 508.218 201.345 506.69C203.991 505.162 206.137 506.399 206.137 509.456Z" fill="white"/>
<path d="M221.666 500.488C221.666 503.543 219.521 507.26 216.874 508.789C214.228 510.317 212.082 509.078 212.082 506.022C212.082 502.966 214.228 499.25 216.874 497.722C219.521 496.194 221.666 497.433 221.666 500.488Z" fill="white"/>
<path d="M369.539 45.3857C369.539 48.4409 367.394 52.1577 364.747 53.6861C362.101 55.2146 359.955 53.9751 359.955 50.9199C359.955 47.8647 362.101 44.1479 364.747 42.6195C367.394 41.091 369.539 42.3305 369.539 45.3857Z" fill="white"/>
<path d="M382.76 37.7532C382.76 40.8084 380.614 44.5252 377.968 46.0536C375.321 47.582 373.176 46.3426 373.176 43.2874C373.176 40.2322 375.321 36.5154 377.968 34.9869C380.616 33.4585 382.76 34.6964 382.76 37.7532Z" fill="white"/>
<path d="M369.539 30.1211C369.539 33.1763 367.394 36.8931 364.747 38.4215C362.101 39.9499 359.955 38.7104 359.955 35.6552C359.955 32.6 362.101 28.8832 364.747 27.3548C367.394 25.8264 369.539 27.0659 369.539 30.1211Z" fill="white"/>
<path d="M382.76 22.4885C382.76 25.5437 380.614 29.2605 377.968 30.789C375.321 32.3174 373.176 31.0779 373.176 28.0227C373.176 24.9675 375.321 21.2507 377.968 19.7223C380.616 18.1939 382.76 19.4317 382.76 22.4885Z" fill="white"/>
<path d="M137.814 444.623C136.125 445.599 134.536 446.997 133.132 448.647C132.912 439.418 126.29 435.729 118.134 440.439C115.52 441.947 113.064 444.139 110.925 446.73C107.293 440.383 99.7712 438.91 91.0538 443.942C78.7953 451.019 68.8565 468.233 68.8565 482.387C68.8565 483.556 68.9484 484.645 69.0797 485.697C67.3313 485.244 65.1889 485.61 62.8643 486.951C56.9985 490.338 52.2441 498.574 52.2441 505.346C52.2441 512.118 56.9985 514.865 62.8643 511.478L137.816 468.205C143.455 464.949 148.026 457.031 148.026 450.52C148.024 444.006 143.453 441.366 137.814 444.623Z" fill="white"/>
<path opacity="0.4" d="M586.951 420.172C585.336 421.105 583.816 422.443 582.474 424.019C582.264 415.193 575.932 411.667 568.133 416.17C565.634 417.613 563.286 419.708 561.239 422.185C557.767 416.117 550.575 414.707 542.24 419.521C530.518 426.288 521.016 442.746 521.016 456.282C521.016 457.4 521.103 458.44 521.229 459.445C519.556 459.012 517.508 459.361 515.286 460.645C509.678 463.883 505.131 471.758 505.131 478.234C505.131 484.711 509.677 487.336 515.286 484.097L586.953 442.72C592.344 439.607 596.716 432.035 596.716 425.81C596.716 419.585 592.343 417.06 586.951 420.172Z" fill="white"/>
<path d="M489.933 415.426L394.82 360.513C391.335 358.5 391.771 354.985 395.797 352.661L496.607 294.307C500.632 291.984 506.719 291.731 510.205 293.743L605.318 348.657C608.803 350.669 608.367 354.184 604.341 356.509L503.531 414.863C499.507 417.186 493.418 417.439 489.933 415.426Z" fill="#7DC3EA"/>
<path d="M495.853 397.382C493.137 397.382 490.522 396.812 488.523 395.658L393.411 340.745C391.019 339.365 389.646 337.232 389.646 334.894C389.646 332.259 391.375 329.749 394.388 328.012L495.193 269.66C500.072 266.841 507.285 266.595 511.616 269.095L606.728 324.008C609.12 325.389 610.491 327.521 610.492 329.859C610.492 332.492 608.764 335.003 605.751 336.741L504.944 395.094C502.318 396.611 499.016 397.382 495.853 397.382ZM491.341 390.776C493.955 392.285 498.99 392.02 502.121 390.213L602.927 331.86C604.338 331.046 604.85 330.217 604.85 329.859C604.85 329.647 604.558 329.268 603.907 328.89L508.794 273.977C506.184 272.47 501.146 272.73 498.013 274.54L397.208 332.893C395.796 333.707 395.284 334.536 395.284 334.894C395.284 335.106 395.576 335.485 396.228 335.863L491.341 390.776Z" fill="white"/>
<path d="M496.794 126.382C496.794 126.382 444.575 131.356 413.125 133.771L496.543 371.346L606.883 307.705C606.901 307.695 606.919 307.684 606.937 307.674L607.134 307.561L607.131 307.551C608.511 306.681 609.385 304.783 609.385 302.104V69.8957C609.385 67.443 608.649 64.8048 607.467 62.4834L496.794 126.382Z" fill="url(#paint0_radial_2528_13120)"/>
<path d="M602.553 56.8408L505.517 0.81626C503.831 -0.157266 502.29 -0.227859 501.098 0.433745L390.314 64.345L395.535 83.6628L423.313 162.771L428.541 165.79L607.476 62.4817C606.232 60.0405 604.488 57.9572 602.553 56.8408Z" fill="url(#paint1_linear_2528_13120)"/>
<path d="M491.849 371.133L394.813 315.108C391.039 312.93 387.98 307.084 387.98 302.053V69.842C387.98 64.8102 391.039 62.497 394.813 64.6772L491.849 120.702C495.623 122.88 498.682 128.726 498.682 133.756V365.966C498.683 370.998 495.623 373.311 491.849 371.133Z" fill="#5793CE"/>
<path d="M493.93 119.534L396.894 63.509C394.709 62.2482 392.771 62.4993 391.52 63.9046C392.496 63.7503 393.619 63.9867 394.814 64.6762L491.85 120.701C495.624 122.879 498.683 128.725 498.683 133.756V365.965C498.683 368.085 498.136 369.713 497.225 370.736C499.333 370.403 500.763 368.236 500.763 364.798V132.588C500.763 127.557 497.703 121.712 493.93 119.534Z" fill="white"/>
<path d="M485.744 357.153L400.916 308.178C397.618 306.274 394.943 301.163 394.943 296.765V81.1069C394.943 76.7087 397.618 74.6862 400.916 76.5905L485.744 125.566C489.042 127.47 491.716 132.581 491.716 136.979V352.637C491.718 357.035 489.044 359.058 485.744 357.153Z" fill="url(#paint2_linear_2528_13120)"/>
<path d="M485.744 357.153L400.916 308.178C397.618 306.274 394.943 301.163 394.943 296.765V81.1069C394.943 76.7087 397.618 74.6862 400.916 76.5905L485.744 125.566C489.042 127.47 491.716 132.581 491.716 136.979V352.637C491.718 357.035 489.044 359.058 485.744 357.153Z" fill="url(#paint3_linear_2528_13120)"/>
<path d="M485.744 357.153L400.916 308.178C397.618 306.274 394.943 301.163 394.943 296.765V81.1069C394.943 76.7087 397.618 74.6862 400.916 76.5905L485.744 125.566C489.042 127.47 491.716 132.581 491.716 136.979V352.637C491.718 357.035 489.044 359.058 485.744 357.153Z" fill="#173D7A"/>
<path d="M488.515 355.52L403.687 306.545C400.389 304.641 397.714 299.53 397.714 295.132V79.4753C397.714 77.9748 398.031 76.76 398.571 75.8751C396.439 75.8587 394.941 77.8172 394.941 81.1056V296.764C394.941 301.162 397.616 306.272 400.914 308.177L485.742 357.152C487.916 358.408 489.813 357.948 490.857 356.237C490.14 356.231 489.349 356.001 488.515 355.52Z" fill="#396CAA"/>
<path d="M485.749 258.138L454.22 239.935L403.934 268.968L491.722 319.652V269.551C491.723 265.153 489.049 260.042 485.749 258.138Z" fill="#173D7A"/>
<path d="M485.749 213.947L454.22 195.744L403.934 224.778L491.722 275.463V225.362C491.723 220.961 489.049 215.852 485.749 213.947Z" fill="#173D7A"/>
<path d="M485.749 169.754L454.22 151.551L403.934 180.584L491.722 231.27V181.169C491.723 176.769 489.049 171.66 485.749 169.754Z" fill="#173D7A"/>
<path d="M485.749 125.563L454.22 107.36L403.934 136.394L491.722 187.078V136.977C491.723 132.578 489.049 127.468 485.749 125.563Z" fill="#173D7A"/>
<path d="M485.747 125.563L415.945 85.2627L403.93 92.2005L491.718 142.885V136.976C491.721 132.578 489.047 127.467 485.747 125.563Z" fill="#173D7A"/>
<path d="M491.723 142.886L403.934 92.2002V120.132L491.723 170.816V142.886Z" fill="#5793CE"/>
<path d="M491.723 187.076L403.934 136.391V164.322L491.723 215.008V187.076Z" fill="#5793CE"/>
<path d="M491.723 231.27L403.934 180.586V208.516L491.723 259.202V231.27Z" fill="#5793CE"/>
<path d="M491.723 275.462L403.934 224.776V252.708L491.723 303.392V275.462Z" fill="#5793CE"/>
<path d="M491.723 319.655L403.934 268.969V296.901L491.723 347.585V319.655Z" fill="#5793CE"/>
<path d="M483.977 160.863L417.853 122.687C415.986 121.609 414.473 118.718 414.473 116.229V108.749C414.473 106.26 415.986 105.116 417.853 106.193L483.977 144.369C485.844 145.446 487.357 148.339 487.357 150.828V158.307C487.357 160.798 485.844 161.942 483.977 160.863Z" fill="#173D7A"/>
<path opacity="0.3" d="M421.195 121.255C419.329 120.176 417.815 117.285 417.815 114.796V107.317C417.815 106.918 417.866 106.568 417.938 106.241L417.853 106.192C415.986 105.114 414.473 106.258 414.473 108.748V116.228C414.473 118.717 415.986 121.609 417.853 122.686L483.975 160.862C485.543 161.767 486.85 161.092 487.231 159.382L421.195 121.255Z" fill="#06033E"/>
<path d="M463.228 140.36L423.437 117.388C422.78 117.009 422.248 115.991 422.248 115.116C422.248 114.241 422.78 113.838 423.437 114.216L463.228 137.19C463.885 137.569 464.417 138.587 464.417 139.462C464.417 140.337 463.885 140.739 463.228 140.36Z" fill="white"/>
<path d="M483.977 204.782L417.853 166.606C415.986 165.529 414.473 162.637 414.473 160.148V152.668C414.473 150.179 415.986 149.035 417.853 150.112L483.977 188.288C485.844 189.367 487.357 192.258 487.357 194.747V202.226C487.357 204.717 485.844 205.861 483.977 204.782Z" fill="#173D7A"/>
<path opacity="0.3" d="M421.195 165.174C419.329 164.095 417.815 161.204 417.815 158.715V151.236C417.815 150.837 417.866 150.487 417.938 150.16L417.853 150.111C415.986 149.033 414.473 150.177 414.473 152.667V160.147C414.473 162.636 415.986 165.528 417.853 166.605L483.975 204.781C485.543 205.687 486.85 205.009 487.231 203.3L421.195 165.174Z" fill="#06033E"/>
<path d="M463.228 184.28L423.437 161.306C422.78 160.927 422.248 159.909 422.248 159.034C422.248 158.159 422.78 157.755 423.437 158.135L463.228 181.107C463.885 181.486 464.417 182.504 464.417 183.379C464.417 184.257 463.885 184.66 463.228 184.28Z" fill="white"/>
<path d="M483.977 249.111L417.853 210.935C415.986 209.857 414.473 206.966 414.473 204.477V196.997C414.473 194.509 415.986 193.364 417.853 194.441L483.977 232.617C485.844 233.696 487.357 236.587 487.357 239.076V246.555C487.357 249.044 485.844 250.188 483.977 249.111Z" fill="#173D7A"/>
<path opacity="0.3" d="M421.195 209.501C419.329 208.423 417.815 205.532 417.815 203.043V195.563C417.815 195.164 417.866 194.815 417.938 194.489L417.853 194.44C415.986 193.362 414.473 194.506 414.473 196.996V204.476C414.473 206.965 415.986 209.857 417.853 210.934L483.975 249.11C485.543 250.015 486.85 249.339 487.231 247.63L421.195 209.501Z" fill="#06033E"/>
<path d="M463.228 228.609L423.437 205.637C422.78 205.257 422.248 204.239 422.248 203.364C422.248 202.489 422.78 202.086 423.437 202.465L463.228 225.437C463.885 225.816 464.417 226.834 464.417 227.709C464.417 228.584 463.885 228.988 463.228 228.609Z" fill="#D4ECFF"/>
<path d="M483.977 293.846L417.853 255.67C415.986 254.591 414.473 251.7 414.473 249.211V241.732C414.473 239.243 415.986 238.099 417.853 239.176L483.977 277.352C485.844 278.43 487.357 281.321 487.357 283.81V291.29C487.357 293.78 485.844 294.924 483.977 293.846Z" fill="#173D7A"/>
<path opacity="0.3" d="M421.195 254.237C419.329 253.159 417.815 250.268 417.815 247.779V240.299C417.815 239.901 417.866 239.551 417.938 239.226L417.853 239.177C415.986 238.098 414.473 239.242 414.473 241.733V249.212C414.473 251.701 415.986 254.594 417.853 255.671L483.975 293.847C485.543 294.751 486.85 294.075 487.231 292.366L421.195 254.237Z" fill="#06033E"/>
<path d="M463.228 273.345L423.437 250.371C422.78 249.992 422.248 248.974 422.248 248.099C422.248 247.224 422.78 246.82 423.437 247.199L463.228 270.173C463.885 270.552 464.417 271.57 464.417 272.445C464.417 273.322 463.885 273.724 463.228 273.345Z" fill="#FF2C9C"/>
<path d="M483.977 337.699L417.853 299.523C415.986 298.445 414.473 295.554 414.473 293.065V285.585C414.473 283.096 415.986 281.952 417.853 283.029L483.977 321.205C485.844 322.282 487.357 325.175 487.357 327.664V335.143C487.357 337.632 485.844 338.776 483.977 337.699Z" fill="#173D7A"/>
<path opacity="0.3" d="M421.195 298.089C419.329 297.01 417.815 294.119 417.815 291.631V284.151C417.815 283.752 417.866 283.402 417.938 283.077L417.853 283.028C415.986 281.95 414.473 283.094 414.473 285.584V293.064C414.473 295.553 415.986 298.445 417.853 299.522L483.975 337.698C485.543 338.604 486.85 337.926 487.231 336.217L421.195 298.089Z" fill="#06033E"/>
<path d="M463.228 317.197L423.437 294.223C422.78 293.844 422.248 292.826 422.248 291.951C422.248 291.076 422.78 290.672 423.437 291.052L463.228 314.026C463.885 314.405 464.417 315.423 464.417 316.298C464.417 317.174 463.885 317.577 463.228 317.197Z" fill="#D4ECFF"/>
<path opacity="0.5" d="M403.932 92.2002L410.845 96.1912V124.123L403.932 120.132V92.2002Z" fill="#173D7A"/>
<path opacity="0.5" d="M403.932 136.393L410.845 140.385V168.315L403.932 164.324V136.393Z" fill="#173D7A"/>
<path opacity="0.5" d="M403.932 180.585L410.845 184.576V212.506L403.932 208.515V180.585Z" fill="#173D7A"/>
<path opacity="0.5" d="M403.932 224.776L410.845 228.767V256.699L403.932 252.708V224.776Z" fill="#173D7A"/>
<path opacity="0.5" d="M403.93 268.967L410.843 272.958V300.89L403.93 296.899V268.967Z" fill="#173D7A"/>
<path d="M471.068 143.118C471.068 144.011 470.441 144.372 469.668 143.926C468.895 143.479 468.268 142.394 468.268 141.501C468.268 140.608 468.895 140.247 469.668 140.693C470.441 141.14 471.068 142.227 471.068 143.118Z" fill="#D4ECFF"/>
<path d="M477 146.545C477 147.438 476.373 147.799 475.6 147.353C474.826 146.906 474.199 145.821 474.199 144.928C474.199 144.035 474.826 143.674 475.6 144.12C476.373 144.567 477 145.652 477 146.545Z" fill="#FF2C9C"/>
<path d="M482.934 149.972C482.934 150.865 482.306 151.226 481.533 150.779C480.76 150.333 480.133 149.248 480.133 148.355C480.133 147.462 480.76 147.1 481.533 147.547C482.306 147.993 482.934 149.079 482.934 149.972Z" fill="#D4ECFF"/>
<path d="M471.068 187.287C471.068 188.18 470.441 188.541 469.668 188.095C468.895 187.648 468.268 186.563 468.268 185.67C468.268 184.777 468.895 184.416 469.668 184.862C470.441 185.309 471.068 186.394 471.068 187.287Z" fill="#FF2C9C"/>
<path d="M477 190.714C477 191.607 476.373 191.968 475.6 191.522C474.826 191.075 474.199 189.99 474.199 189.097C474.199 188.204 474.826 187.843 475.6 188.289C476.373 188.736 477 189.821 477 190.714Z" fill="#D4ECFF"/>
<path d="M482.934 194.142C482.934 195.035 482.306 195.396 481.533 194.949C480.76 194.503 480.133 193.418 480.133 192.525C480.133 191.631 480.76 191.27 481.533 191.717C482.306 192.163 482.934 193.249 482.934 194.142Z" fill="white"/>
<path d="M471.068 231.792C471.068 232.685 470.441 233.046 469.668 232.6C468.895 232.153 468.268 231.068 468.268 230.175C468.268 229.282 468.895 228.921 469.668 229.367C470.441 229.814 471.068 230.899 471.068 231.792Z" fill="white"/>
<path d="M477 235.217C477 236.11 476.373 236.471 475.6 236.025C474.826 235.578 474.199 234.493 474.199 233.6C474.199 232.707 474.826 232.345 475.6 232.792C476.373 233.24 477 234.325 477 235.217Z" fill="#FF2C9C"/>
<path d="M482.934 238.643C482.934 239.536 482.306 239.897 481.533 239.45C480.76 239.004 480.133 237.919 480.133 237.026C480.133 236.132 480.76 235.771 481.533 236.218C482.306 236.666 482.934 237.751 482.934 238.643Z" fill="white"/>
<path d="M471.068 275.646C471.068 276.539 470.441 276.9 469.668 276.453C468.895 276.007 468.268 274.922 468.268 274.028C468.268 273.135 468.895 272.774 469.668 273.221C470.441 273.667 471.068 274.752 471.068 275.646Z" fill="white"/>
<path d="M477 279.071C477 279.964 476.373 280.326 475.6 279.879C474.826 279.432 474.199 278.347 474.199 277.454C474.199 276.561 474.826 276.2 475.6 276.647C476.373 277.095 477 278.18 477 279.071Z" fill="#D4ECFF"/>
<path d="M482.934 282.497C482.934 283.39 482.306 283.751 481.533 283.305C480.76 282.858 480.133 281.773 480.133 280.88C480.133 279.987 480.76 279.626 481.533 280.072C482.306 280.52 482.934 281.606 482.934 282.497Z" fill="#D4ECFF"/>
<path d="M471.068 320.099C471.068 320.992 470.441 321.353 469.668 320.906C468.895 320.46 468.268 319.375 468.268 318.482C468.268 317.588 468.895 317.227 469.668 317.674C470.441 318.12 471.068 319.206 471.068 320.099Z" fill="white"/>
<path d="M477 323.524C477 324.417 476.373 324.779 475.6 324.332C474.826 323.886 474.199 322.8 474.199 321.907C474.199 321.014 474.826 320.653 475.6 321.1C476.373 321.546 477 322.631 477 323.524Z" fill="#FF2C9C"/>
<path d="M482.934 326.95C482.934 327.843 482.306 328.204 481.533 327.758C480.76 327.311 480.133 326.226 480.133 325.333C480.133 324.44 480.76 324.079 481.533 324.525C482.306 324.972 482.934 326.057 482.934 326.95Z" fill="#D4ECFF"/>
<path d="M513.299 339.739V142.01L513.708 141.775L596.344 94.0645V291.795L595.935 292.03L513.299 339.739ZM514.936 142.956V336.904L594.709 290.848V96.8997L514.936 142.956Z" fill="#173D7A"/>
<path d="M574.878 183.031L537.825 204.424C535.336 205.86 533.318 204.335 533.318 201.017V180.473C533.318 177.155 535.336 173.299 537.825 171.862L574.878 150.469C577.367 149.033 579.384 150.558 579.384 153.876V174.42C579.384 177.738 577.367 181.593 574.878 183.031Z" fill="#173D7A"/>
<path d="M575.776 150.07C575.988 150.645 576.11 151.333 576.11 152.131V172.675C576.11 175.993 574.092 179.849 571.603 181.286L534.55 202.679C534.241 202.856 533.941 202.987 533.65 203.076C534.32 204.89 535.932 205.514 537.824 204.422L574.877 183.029C577.365 181.593 579.383 177.736 579.383 174.418V153.874C579.385 150.967 577.835 149.437 575.776 150.07Z" fill="#5793CE"/>
<path d="M568.108 170.658C568.793 170.262 569.348 170.582 569.348 171.374V176.054C569.348 176.845 568.793 177.807 568.108 178.203C567.424 178.599 566.867 178.279 566.867 177.487V172.807C566.869 172.016 567.424 171.054 568.108 170.658Z" fill="white"/>
<path d="M562.796 174.312C563.481 173.917 564.037 174.237 564.037 175.028V179.122C564.037 179.914 563.482 180.876 562.796 181.271C562.112 181.667 561.557 181.347 561.557 180.556V176.461C561.557 175.67 562.112 174.708 562.796 174.312Z" fill="#D4ECFF"/>
<path d="M557.48 172.81C558.164 172.415 558.719 172.735 558.719 173.526V182.189C558.719 182.981 558.164 183.943 557.48 184.338C556.795 184.734 556.24 184.414 556.24 183.622V174.959C556.239 174.168 556.793 173.206 557.48 172.81Z" fill="#FF2C9C"/>
<path d="M552.165 170.889C552.85 170.494 553.405 170.814 553.405 171.605V185.261C553.405 186.052 552.85 187.014 552.165 187.41C551.481 187.805 550.926 187.485 550.926 186.694V173.038C550.926 172.245 551.481 171.283 552.165 170.889Z" fill="#D4ECFF"/>
<path d="M546.847 175.389C547.531 174.994 548.086 175.314 548.086 176.105V188.329C548.086 189.12 547.531 190.082 546.847 190.478C546.162 190.874 545.607 190.554 545.607 189.762V177.538C545.607 176.747 546.162 175.785 546.847 175.389Z" fill="#D4ECFF"/>
<path d="M541.532 184.046C542.217 183.65 542.772 183.97 542.772 184.761V191.4C542.772 192.192 542.217 193.152 541.532 193.549C540.848 193.945 540.293 193.625 540.293 192.834V186.195C540.293 185.402 540.848 184.44 541.532 184.046Z" fill="white"/>
<path d="M566.889 168.294C566.889 169.072 567.435 169.388 568.109 168.999C568.782 168.609 569.328 167.664 569.328 166.886C569.328 166.107 568.782 165.792 568.109 166.181C567.435 166.57 566.889 167.516 566.889 168.294Z" fill="#FF2C9C"/>
<path d="M566.889 163.896C566.889 164.674 567.435 164.989 568.109 164.6C568.782 164.211 569.328 163.265 569.328 162.487C569.328 161.709 568.782 161.394 568.109 161.783C567.435 162.172 566.889 163.118 566.889 163.896Z" fill="white"/>
<path d="M287.928 521.139L104.908 415.598L158.245 384.803L341.263 490.346L287.928 521.139Z" fill="#7DC3EA"/>
<path d="M287.928 496.85C287.442 496.85 286.955 496.724 286.52 496.473L103.5 390.931C102.628 390.427 102.09 389.496 102.09 388.488C102.09 387.482 102.627 386.55 103.5 386.047L156.835 355.252C157.704 354.748 158.779 354.748 159.654 355.251L342.672 460.794C343.544 461.298 344.082 462.228 344.082 463.236C344.082 464.243 343.546 465.175 342.672 465.678L289.337 496.471C288.902 496.724 288.416 496.85 287.928 496.85ZM110.551 388.487L287.926 490.776L335.623 463.238L158.247 360.949L110.551 388.487Z" fill="white"/>
<path d="M190.29 410.149C189.04 410.149 188.027 409.136 188.027 407.887V336.445C188.027 335.196 189.04 334.183 190.29 334.183C191.539 334.183 192.552 335.196 192.552 336.445V407.887C192.552 409.136 191.539 410.149 190.29 410.149Z" fill="#396CAA"/>
<path d="M179.107 328.35V376.614C179.107 378.267 180.199 379.919 182.383 381.179C186.751 383.701 193.83 383.701 198.199 381.179C200.382 379.919 201.474 378.267 201.474 376.614V328.35H179.107Z" fill="url(#paint4_radial_2528_13120)"/>
<path d="M179.107 336.29V352.624C185.671 355.621 194.91 355.623 201.474 352.624V336.289C194.91 333.293 185.671 333.293 179.107 336.29Z" fill="#396CAA"/>
<path d="M208.41 261.082H172.168V336.781C172.168 339.458 173.938 342.136 177.476 344.178C184.553 348.264 196.027 348.264 203.102 344.178C206.642 342.136 208.41 339.457 208.41 336.779V261.082Z" fill="url(#paint5_radial_2528_13120)"/>
<path d="M187.154 369.275C187.154 371.494 185.596 372.394 183.672 371.284C181.749 370.174 180.191 367.476 180.191 365.254C180.191 363.035 181.749 362.135 183.672 363.245C185.596 364.355 187.154 367.055 187.154 369.275Z" fill="#D4ECFF"/>
<path d="M260.571 450.768C259.322 450.768 258.309 449.755 258.309 448.506V377.064C258.309 375.815 259.322 374.802 260.571 374.802C261.82 374.802 262.833 375.815 262.833 377.064V448.506C262.833 449.755 261.82 450.768 260.571 450.768Z" fill="#396CAA"/>
<path d="M249.389 368.967V417.231C249.389 418.883 250.48 420.536 252.664 421.797C257.032 424.318 264.111 424.318 268.48 421.797C270.663 420.536 271.755 418.884 271.755 417.231V368.967H249.389Z" fill="url(#paint6_radial_2528_13120)"/>
<path d="M249.389 376.906V393.239C255.952 396.237 265.192 396.238 271.755 393.24V376.906C265.192 373.908 255.952 373.908 249.389 376.906Z" fill="#396CAA"/>
<path d="M278.691 301.7H242.449V377.399C242.449 380.076 244.219 382.754 247.757 384.796C254.833 388.882 266.308 388.882 273.384 384.796C276.923 382.754 278.691 380.076 278.691 377.397V301.7Z" fill="url(#paint7_radial_2528_13120)"/>
<path d="M257.433 409.892C257.433 412.112 255.875 413.011 253.951 411.901C252.029 410.792 250.471 408.093 250.471 405.872C250.471 403.652 252.029 402.752 253.951 403.862C255.875 404.974 257.433 407.672 257.433 409.892Z" fill="#D4ECFF"/>
<path d="M120.834 206.286L168.944 178.607C168.944 178.607 167.135 206.229 167.135 206.286C167.135 206.344 139.497 214.846 139.497 214.846L120.834 206.286Z" fill="#FF9557"/>
<path d="M378.548 365.595C378.548 346.169 364.911 322.548 348.087 312.834C344.426 310.72 340.931 309.487 337.678 308.976C332.829 283.484 315.09 256.412 293.939 244.201C287.577 240.529 281.528 238.565 276.041 238.143C273.153 207.245 251.668 172.131 225.58 157.068C211.953 149.2 199.587 148.269 190.464 153.087L190.466 153.064L190.023 153.319C189.79 153.448 189.558 153.581 189.33 153.717L160.961 170.473L170.388 177.918C161.925 181.615 156.578 191.106 156.578 205.134C156.578 231.004 174.74 262.46 197.144 275.395L335.446 374.153L339.709 402.932L369.595 385.331C369.621 385.317 369.649 385.3 369.675 385.284L369.854 385.179L369.849 385.174C375.227 381.936 378.548 375.174 378.548 365.595Z" fill="#FF9557"/>
<path d="M157.977 193.744L223.088 155.701C210.448 149.109 199.027 148.564 190.462 153.087L190.464 153.064L190.021 153.319C189.788 153.448 189.556 153.581 189.328 153.718L160.96 170.473L170.386 177.918C164.471 180.504 160.086 185.926 157.977 193.744Z" fill="#FF9557"/>
<path d="M278.221 305.658L325.728 277.778C317.581 263.685 306.36 251.373 293.939 244.201C292.295 243.252 290.672 242.421 289.074 241.697L228.648 277.035L278.221 305.658Z" fill="#FF9557"/>
<path d="M174.346 173.585L195.517 185.809L234.289 162.973C231.457 160.773 228.55 158.785 225.578 157.07C220.883 154.359 216.344 152.491 212.029 151.378L174.346 173.585Z" fill="#FFF4EE"/>
<path d="M320.489 269.575L282.572 291.917L295.76 306.625L330.181 286.301C327.459 280.473 324.188 274.837 320.489 269.575Z" fill="#FFF4EE"/>
<path d="M318.302 330.379C314.641 328.265 311.146 327.032 307.894 326.521C303.044 301.029 285.306 273.957 264.156 261.746C257.794 258.074 251.745 256.11 246.258 255.689C243.37 224.79 221.887 189.676 195.797 174.613C167.741 158.415 144.995 171.545 144.995 203.942C144.995 205.041 145.026 206.149 145.079 207.263C124.562 197.748 108.531 208.47 108.531 232.772C108.531 258.642 126.693 290.099 149.098 303.033L318.304 400.724C335.128 410.437 348.765 402.563 348.765 383.138C348.765 363.714 335.126 340.091 318.302 330.379Z" fill="#173D7A"/>
<path d="M145.075 207.264C145.024 206.151 144.992 205.041 144.992 203.943C144.992 203.897 144.995 203.852 144.995 203.805C133.661 199.399 123.92 201.316 117.807 208.388C124.449 202.922 134.105 202.176 145.075 207.264Z" fill="white"/>
<path d="M320.777 327.965C317.115 325.851 313.621 324.618 310.369 324.107C305.519 298.615 287.781 271.543 266.631 259.332C260.269 255.66 254.22 253.696 248.733 253.275C245.845 222.376 224.362 187.262 198.274 172.199C180.795 162.108 165.379 163.403 156.238 173.646C165.55 165.688 179.806 165.381 195.797 174.614C221.885 189.677 243.37 224.791 246.257 255.689C251.744 256.111 257.795 258.075 264.157 261.747C285.307 273.958 303.045 301.03 307.895 326.522C311.147 327.033 314.642 328.266 318.305 330.38C335.127 340.092 348.767 363.715 348.767 383.139C348.767 390.149 346.97 395.628 343.91 399.345C348.473 395.83 351.244 389.457 351.244 380.724C351.239 361.3 337.601 337.677 320.777 327.965Z" fill="white"/>
<path d="M141.498 214.98L154.218 220.878L153.571 206.873C153.525 205.89 153.497 204.913 153.497 203.942C153.497 191.441 157.271 182.377 164.124 178.419C170.976 174.466 180.716 175.728 191.542 181.978C214.826 195.422 235.138 228.146 237.786 256.48L238.455 263.618L245.603 264.168C249.996 264.505 254.806 266.168 259.902 269.111C278.395 279.789 295.065 304.601 299.537 328.111L300.657 333.996L306.575 334.922C308.933 335.293 311.448 336.24 314.05 337.744C328.257 345.948 340.259 366.735 340.259 383.139C340.259 389.277 338.557 393.782 335.589 395.496C332.624 397.206 327.871 396.431 322.554 393.361L153.346 295.669C133.662 284.305 117.033 255.502 117.033 232.772C117.033 223.853 119.663 217.058 124.25 214.129C126.138 212.926 128.42 212.325 130.994 212.325C134.125 212.325 137.689 213.211 141.498 214.98Z" fill="white"/>
<path d="M225.947 321.026L230.411 318.785L226.016 315.456L225.947 321.026Z" fill="#081348"/>
<path d="M212.543 260.729L216.875 258.539L216.954 260.806L212.543 260.729Z" fill="#081348"/>
<path d="M238.681 306.932L243.204 304.658L234.5 296.379L238.681 306.932Z" fill="#081348"/>
<path d="M229.108 318.643L207.977 306.197C206.905 305.565 206.038 303.974 206.041 302.643L206.11 278.177L231.126 292.911L231.057 317.377C231.054 318.709 230.182 319.275 229.108 318.643Z" fill="#081348"/>
<path d="M216.832 258.565L194.008 273.252C193.039 273.876 193.822 276.199 195.293 277.064L218.604 290.794L241.914 304.523C243.385 305.39 244.178 303.994 243.216 302.235L220.551 260.755C219.572 258.964 217.817 257.932 216.832 258.565Z" fill="#081348"/>
<path d="M224.573 320.925L203.441 308.479C202.369 307.847 201.503 306.257 201.506 304.925L201.575 280.459L226.591 295.193L226.522 319.659C226.519 320.991 225.645 321.557 224.573 320.925Z" fill="#FF9557"/>
<path d="M212.297 260.848L189.473 275.534C188.504 276.158 189.287 278.481 190.758 279.348L214.068 293.077L237.379 306.807C238.85 307.674 239.643 306.278 238.681 304.518L216.015 263.039C215.037 261.247 213.284 260.214 212.297 260.848Z" fill="#FF9557"/>
<path d="M317.324 548.932C316.923 548.932 316.524 548.827 316.165 548.622C315.447 548.208 315.006 547.443 315.006 546.614V516.92C315.006 516.091 315.449 515.326 316.165 514.913L341.882 500.065C342.601 499.651 343.483 499.651 344.2 500.065C344.918 500.479 345.359 501.244 345.359 502.073V531.766C345.359 532.595 344.916 533.36 344.2 533.774L318.483 548.622C318.125 548.827 317.725 548.932 317.324 548.932ZM319.642 518.258V542.598L340.723 530.427V506.087L319.642 518.258Z" fill="white"/>
<path d="M39.9059 411.445L2.81836 390.032L39.9043 368.621L76.9918 390.032L39.9059 411.445Z" fill="#7DC3EA"/>
<path d="M39.9063 398.185C39.4187 398.185 38.9328 398.059 38.4978 397.808L1.41023 376.395C0.536849 375.891 0 374.96 0 373.954C0 372.947 0.53849 372.015 1.41023 371.513L38.4978 350.102C39.3695 349.598 40.4448 349.598 41.3166 350.102L78.4025 371.513C79.2742 372.017 79.8127 372.947 79.8127 373.954C79.8127 374.96 79.2758 375.893 78.4025 376.395L41.3166 397.808C40.8782 398.057 40.3939 398.185 39.9063 398.185ZM8.45803 373.952L39.9063 392.109L71.353 373.952L39.9063 355.797L8.45803 373.952Z" fill="white"/>
<path d="M76.9941 357.222L39.9082 378.633V335.811L76.9941 314.4V357.222Z" fill="url(#paint8_radial_2528_13120)"/>
<path d="M39.9062 335.811L2.82031 314.4L39.9046 292.989L76.9905 314.4L39.9062 335.811Z" fill="url(#paint9_linear_2528_13120)"/>
<path d="M39.9062 378.633L2.82031 357.222V314.4L39.9062 335.811V378.633Z" fill="url(#paint10_radial_2528_13120)"/>
<path d="M26.548 355.5L16.1758 349.511V337.533L26.548 343.522V355.5Z" fill="white"/>
<path d="M422.244 524.668L385.156 503.256L422.242 481.845L459.33 503.257L422.244 524.668Z" fill="#7DC3EA"/>
<path d="M422.244 511.409C421.757 511.409 421.271 511.283 420.836 511.031L383.748 489.619C382.876 489.115 382.338 488.184 382.338 487.178C382.338 486.171 382.876 485.239 383.748 484.736L420.834 463.325C421.706 462.821 422.781 462.821 423.653 463.325L460.74 484.738C461.614 485.242 462.151 486.173 462.151 487.179C462.151 488.185 461.612 489.118 460.74 489.62L423.654 511.031C423.218 511.283 422.732 511.409 422.244 511.409ZM390.796 487.178L422.244 505.335L453.691 487.179L422.243 469.022L390.796 487.178Z" fill="white"/>
<path d="M459.332 470.446L422.246 491.857V449.037L459.332 427.624V470.446Z" fill="url(#paint11_radial_2528_13120)"/>
<path d="M422.244 449.037L385.158 427.624L422.242 406.213L459.328 427.626L422.244 449.037Z" fill="url(#paint12_linear_2528_13120)"/>
<path d="M422.244 491.857L385.158 470.446V427.624L422.244 449.037V491.857Z" fill="url(#paint13_radial_2528_13120)"/>
<path d="M408.888 468.723L398.516 462.734V450.758L408.888 456.747V468.723Z" fill="white"/>
<path d="M325.73 238.656L288.645 217.245L325.729 195.834L362.816 217.245L325.73 238.656Z" fill="#7DC3EA"/>
<path d="M325.731 225.397C325.243 225.397 324.757 225.27 324.322 225.019L287.234 203.608C286.363 203.104 285.824 202.173 285.824 201.167C285.824 200.16 286.363 199.228 287.234 198.726L324.32 177.315C325.192 176.811 326.266 176.811 327.139 177.315L364.227 198.726C365.098 199.23 365.637 200.16 365.637 201.167C365.637 202.173 365.098 203.106 364.227 203.608L327.141 225.019C326.704 225.268 326.218 225.397 325.731 225.397ZM294.284 201.165L325.731 219.321L357.176 201.165L325.729 183.01L294.284 201.165Z" fill="white"/>
<path d="M362.818 184.435L325.732 205.846V163.024L362.818 141.613V184.435Z" fill="url(#paint14_radial_2528_13120)"/>
<path d="M325.73 163.024L288.645 141.613L325.729 120.202L362.815 141.613L325.73 163.024Z" fill="url(#paint15_linear_2528_13120)"/>
<path d="M325.73 205.846L288.645 184.435V141.613L325.73 163.024V205.846Z" fill="url(#paint16_radial_2528_13120)"/>
<path d="M312.37 182.713L301.998 176.724V164.746L312.37 170.735V182.713Z" fill="white"/>
<defs>
<radialGradient id="paint0_radial_2528_13120" cx="0" cy="0" r="1" gradientUnits="userSpaceOnUse" gradientTransform="translate(459.134 180.004) scale(198.885 198.885)">
<stop stop-color="#396CAA"/>
<stop offset="1" stop-color="#274F89"/>
</radialGradient>
<linearGradient id="paint1_linear_2528_13120" x1="396.577" y1="38.9122" x2="582.028" y2="151.904" gradientUnits="userSpaceOnUse">
<stop stop-color="#D4ECFF"/>
<stop offset="0.2385" stop-color="#D0EAFE"/>
<stop offset="0.4599" stop-color="#C5E2F9"/>
<stop offset="0.6745" stop-color="#B2D6F2"/>
<stop offset="0.8837" stop-color="#98C4E7"/>
<stop offset="1" stop-color="#86B8E0"/>
</linearGradient>
<linearGradient id="paint2_linear_2528_13120" x1="391.204" y1="202.525" x2="479.45" y2="188.868" gradientUnits="userSpaceOnUse">
<stop stop-color="#3919BB"/>
<stop offset="1" stop-color="#6507FA"/>
</linearGradient>
<linearGradient id="paint3_linear_2528_13120" x1="391.204" y1="202.525" x2="479.45" y2="188.868" gradientUnits="userSpaceOnUse">
<stop stop-color="#3919BB"/>
<stop offset="1" stop-color="#6507FA"/>
</linearGradient>
<radialGradient id="paint4_radial_2528_13120" cx="0" cy="0" r="1" gradientUnits="userSpaceOnUse" gradientTransform="translate(177.72 374.236) scale(20.9004 20.9004)">
<stop stop-color="#699DD1"/>
<stop offset="0.2662" stop-color="#6396CC"/>
<stop offset="0.6412" stop-color="#5184BD"/>
<stop offset="1" stop-color="#396CAA"/>
</radialGradient>
<radialGradient id="paint5_radial_2528_13120" cx="0" cy="0" r="1" gradientUnits="userSpaceOnUse" gradientTransform="translate(166.029 351.802) scale(33.048 33.048)">
<stop stop-color="#699DD1"/>
<stop offset="0.2662" stop-color="#6396CC"/>
<stop offset="0.6412" stop-color="#5184BD"/>
<stop offset="1" stop-color="#396CAA"/>
</radialGradient>
<radialGradient id="paint6_radial_2528_13120" cx="0" cy="0" r="1" gradientUnits="userSpaceOnUse" gradientTransform="translate(248.001 414.854) scale(20.9004 20.9004)">
<stop stop-color="#699DD1"/>
<stop offset="0.2662" stop-color="#6396CC"/>
<stop offset="0.6412" stop-color="#5184BD"/>
<stop offset="1" stop-color="#396CAA"/>
</radialGradient>
<radialGradient id="paint7_radial_2528_13120" cx="0" cy="0" r="1" gradientUnits="userSpaceOnUse" gradientTransform="translate(236.31 392.42) scale(33.048)">
<stop stop-color="#699DD1"/>
<stop offset="0.2662" stop-color="#6396CC"/>
<stop offset="0.6412" stop-color="#5184BD"/>
<stop offset="1" stop-color="#396CAA"/>
</radialGradient>
<radialGradient id="paint8_radial_2528_13120" cx="0" cy="0" r="1" gradientUnits="userSpaceOnUse" gradientTransform="translate(36.3989 334.457) scale(55.2737 55.2738)">
<stop stop-color="#274F89"/>
<stop offset="1" stop-color="#173D7A"/>
</radialGradient>
<linearGradient id="paint9_linear_2528_13120" x1="2.82031" y1="314.401" x2="100.628" y2="314.401" gradientUnits="userSpaceOnUse">
<stop stop-color="#D4ECFF"/>
<stop offset="0.2385" stop-color="#D0EAFE"/>
<stop offset="0.4599" stop-color="#C5E2F9"/>
<stop offset="0.6745" stop-color="#B2D6F2"/>
<stop offset="0.8837" stop-color="#98C4E7"/>
<stop offset="1" stop-color="#86B8E0"/>
</linearGradient>
<radialGradient id="paint10_radial_2528_13120" cx="0" cy="0" r="1" gradientUnits="userSpaceOnUse" gradientTransform="translate(-43.0705 277.259) scale(99.9126 99.9127)">
<stop stop-color="#699DD1"/>
<stop offset="0.2662" stop-color="#6396CC"/>
<stop offset="0.6412" stop-color="#5184BD"/>
<stop offset="1" stop-color="#396CAA"/>
</radialGradient>
<radialGradient id="paint11_radial_2528_13120" cx="0" cy="0" r="1" gradientUnits="userSpaceOnUse" gradientTransform="translate(418.737 447.681) scale(55.2736 55.2736)">
<stop stop-color="#274F89"/>
<stop offset="1" stop-color="#173D7A"/>
</radialGradient>
<linearGradient id="paint12_linear_2528_13120" x1="385.158" y1="427.625" x2="482.966" y2="427.625" gradientUnits="userSpaceOnUse">
<stop stop-color="#D4ECFF"/>
<stop offset="0.2385" stop-color="#D0EAFE"/>
<stop offset="0.4599" stop-color="#C5E2F9"/>
<stop offset="0.6745" stop-color="#B2D6F2"/>
<stop offset="0.8837" stop-color="#98C4E7"/>
<stop offset="1" stop-color="#86B8E0"/>
</linearGradient>
<radialGradient id="paint13_radial_2528_13120" cx="0" cy="0" r="1" gradientUnits="userSpaceOnUse" gradientTransform="translate(339.267 390.484) scale(99.9124 99.9125)">
<stop stop-color="#699DD1"/>
<stop offset="0.2662" stop-color="#6396CC"/>
<stop offset="0.6412" stop-color="#5184BD"/>
<stop offset="1" stop-color="#396CAA"/>
</radialGradient>
<radialGradient id="paint14_radial_2528_13120" cx="0" cy="0" r="1" gradientUnits="userSpaceOnUse" gradientTransform="translate(322.223 161.67) scale(55.2738 55.2738)">
<stop stop-color="#274F89"/>
<stop offset="1" stop-color="#173D7A"/>
</radialGradient>
<linearGradient id="paint15_linear_2528_13120" x1="288.645" y1="141.613" x2="386.453" y2="141.613" gradientUnits="userSpaceOnUse">
<stop stop-color="#D4ECFF"/>
<stop offset="0.2385" stop-color="#D0EAFE"/>
<stop offset="0.4599" stop-color="#C5E2F9"/>
<stop offset="0.6745" stop-color="#B2D6F2"/>
<stop offset="0.8837" stop-color="#98C4E7"/>
<stop offset="1" stop-color="#86B8E0"/>
</linearGradient>
<radialGradient id="paint16_radial_2528_13120" cx="0" cy="0" r="1" gradientUnits="userSpaceOnUse" gradientTransform="translate(242.754 104.472) scale(99.9126 99.9127)">
<stop stop-color="#699DD1"/>
<stop offset="0.2662" stop-color="#6396CC"/>
<stop offset="0.6412" stop-color="#5184BD"/>
<stop offset="1" stop-color="#396CAA"/>
</radialGradient>
</defs>
</svg>
