<?xml version="1.0" encoding="UTF-8"?><svg id="Artwork" xmlns="http://www.w3.org/2000/svg" viewBox="0 0 214 214"><defs><style>.cls-1{stroke-width:0px;}</style></defs><path class="cls-1" d="m206.39,89.55c-3.46-7.82-9.23-14.01-16.46-17.9.05.02.09.04.14.07h-.02s.01,0,.02,0l-.05-.03-.29-.16-.1-.05-6.4-3.48c-5.55-3.02-11.96-4.67-18.87-4.67,0,0,0,0,0-.01-3.28-9.73-9.3-17.8-17.11-23.43-1.85-1.34-3.81-2.53-5.85-3.59.28.15.56.28.84.44l-6.84-3.72c-8.99-4.89-19.82-6.94-31.44-5.31-15.5,2.18-29.6,10.52-39.86,22.31-5.12,5.9-9.3,12.66-12.19,19.96-2.49,6.28-4.04,12.96-4.42,19.77-1.15.06-2.31.17-3.49.34-10.94,1.54-20.92,7.43-28.17,15.77-3.63,4.17-6.58,8.97-8.64,14.15-2.06,5.17-3.21,10.74-3.22,16.39-.01,5.65,1.12,10.89,3.16,15.49,3.06,6.91,8.13,12.38,14.49,15.84l6.55,3.56c.09.05.19.1.29.16,6.36,3.46,14.02,4.91,22.23,3.76,9.25-1.31,17.81-5.72,24.62-12.11,6.7-6.28,11.74-14.5,14.08-23.75.01-.02.01-.04.02-.06v-.02s.01-.06.02-.09c0-.01.01-.02.01-.03.02-.07.03-.15.04-.22.02-.08.03-.15.04-.23v-.04c.02-.12.04-.25.05-.37,0,0,0,0,0-.01v-.03c.09-1.3-.31-2.48-1.09-3.29-.02-.03-.04-.06-.07-.07-.05-.06-.11-.11-.17-.17-.06-.06-.12-.11-.19-.16-.02-.02-.05-.04-.07-.05-.06-.04-.12-.09-.17-.12-.08-.05-.15-.09-.22-.13h-.01l-.16-.09h-.02s-.03-.02-.05-.03c-.01,0-.02-.01-.04-.01-.07-.04-.14-.07-.21-.09-.02-.01-.05-.02-.07-.02-.03-.01-.05-.02-.08-.03-.06-.02-.13-.04-.19-.06h-.03c-.1-.03-.21-.05-.32-.07-.38-.05-.76-.05-1.14,0-.96.14-1.88.62-2.62,1.34-.73.71-1.28,1.63-1.55,2.69-1.69,6.97-5.57,13.43-10.92,18.44-5.33,5-12.09,8.51-19.48,9.55-1.49.21-2.95.31-4.38.31-.43,0-.86-.01-1.29-.03-.42-.02-.83-.04-1.25-.08-.86-.07-1.72-.19-2.55-.34-.36-.06-.71-.13-1.06-.2-.32-.07-.64-.15-.96-.23-.21-.05-.41-.11-.62-.17-.03,0-.05-.01-.08-.02-.28-.08-.55-.16-.82-.25-.39-.12-.77-.25-1.14-.39-.34-.13-.68-.26-1.01-.4-.41-.17-.81-.35-1.21-.54-.34-.16-.67-.32-.99-.49-.08-.04-.16-.09-.24-.13-.13-.07-.25-.14-.37-.22-.23-.11-.45-.24-.67-.39-.51-.3-1.01-.62-1.5-.97-.24-.17-.48-.34-.71-.53t-.01,0c-.47-.35-.92-.72-1.36-1.1-2.81-2.47-5.07-5.53-6.63-9.05-1.55-3.5-2.4-7.46-2.39-11.76.01-4.31.87-8.5,2.44-12.45,4.69-11.86,15.82-21.5,28.92-23.33,2.36-.34,4.67-.39,6.89-.21.29.02.58.01.87-.03,1.03-.14,2.05-.69,2.84-1.54,1.02-1.09,1.57-2.6,1.49-4.03-.03-.52-.05-1.1-.05-1.75.02-6.6,1.35-13.07,3.76-19.13.17-.42.34-.84.52-1.26.14-.34.29-.69.45-1.03.43-.98.9-1.95,1.4-2.9.22-.42.44-.85.67-1.26,1.09-1.98,2.29-3.9,3.62-5.75.2-.3.41-.59.63-.87.11-.16.22-.31.35-.46.19-.27.4-.54.61-.81,1.43-1.82,2.96-3.57,4.6-5.22.18-.18.36-.36.54-.54,1.27-1.25,2.6-2.44,3.98-3.57.36-.3.73-.6,1.1-.89.67-.52,1.35-1.03,2.04-1.51.36-.26.72-.51,1.08-.75,1.17-.81,2.38-1.57,3.62-2.27.34-.2.69-.4,1.04-.58.79-.45,1.6-.86,2.43-1.25.38-.19.76-.37,1.15-.55.01-.01.03-.02.05-.02.21-.1.42-.19.62-.28.36-.16.71-.31,1.07-.45.43-.19.87-.36,1.31-.52.22-.09.45-.18.68-.26.54-.21,1.09-.4,1.65-.58.39-.13.77-.25,1.16-.37.44-.14.89-.27,1.34-.38.39-.12.79-.22,1.18-.32.58-.14,1.16-.28,1.74-.4,1.16-.25,2.34-.46,3.53-.63,2.8-.39,5.54-.54,8.21-.44.18,0,.37.01.55.02.38,0,.75.04,1.12.07,1.21.08,2.4.21,3.57.39.55.08,1.09.18,1.63.29.53.1,1.05.21,1.56.33.04,0,.08.01.12.03.38.08.76.18,1.13.28.21.06.42.11.62.17,1.54.43,3.03.95,4.48,1.56.12.04.23.09.35.15.1.04.2.08.29.12.22.09.44.19.66.29.47.21.94.44,1.41.67.38.19.75.39,1.12.59.03.02.06.03.08.04.22.12.44.25.65.37.21.11.41.23.61.35.2.12.39.24.58.36.36.22.72.45,1.07.68.42.28.84.57,1.25.87,8.1,5.84,13.78,14.64,15.83,25.21.04.22.08.44.12.67h0c.02.1.04.18.05.27.02.12.05.24.08.36.02.09.05.19.08.28.01.04.02.08.04.12.01.03.02.05.02.07.02.05.04.09.06.13.02.05.04.1.07.15h0c.05.11.1.2.15.29,0,.01.01.01.01.01.04.08.08.15.13.22.02.02.03.05.05.07.05.08.11.16.16.23h.01s.01.01.02.02c.18.23.4.43.63.6.01,0,.02.02.03.03.02.01.04.03.07.05.13.09.27.17.42.25.09.04.18.09.28.12,0,.01.01.01.01.01.15.06.31.11.47.15h.01c.11.03.22.05.34.07.05.01.09.01.14.02h.07c.18.02.37.02.56.01.11,0,.22-.01.33-.03.09-.02.17-.04.25-.05.01,0,.03-.01.04-.01h.02c.07-.02.15-.03.22-.04.02-.01.03-.01.05-.01.07-.02.15-.04.23-.05.05-.01.1-.02.16-.03.08-.02.17-.04.26-.05.11-.02.22-.04.32-.06h.02c.11-.02.22-.04.33-.06.03-.01.06-.01.09-.01.08-.02.17-.04.26-.05.21-.03.43-.07.65-.1,2.12-.3,4.19-.41,6.21-.34.2,0,.41.01.61.03.42.01.83.04,1.25.08.48.04.97.09,1.45.16h.02c.46.06.92.13,1.38.21.02.01.04.01.06.01.42.07.84.16,1.25.25.08.02.16.04.24.05.42.09.83.2,1.23.3.04.02.08.03.13.04.35.09.69.19,1.03.31.16.04.32.09.47.15.37.11.74.24,1.1.38.15.05.3.11.45.18.29.1.57.21.85.33.34.14.67.29,1,.44.5.24.99.48,1.48.74.01,0,.02,0,.03,0,.07.04.13.08.2.11.06.04.12.07.18.11.42.22.83.46,1.24.72.47.28.92.58,1.37.9.45.3.89.63,1.32.97.43.33.85.67,1.26,1.03,3.27,2.87,5.91,6.43,7.72,10.52,1.8,4.09,2.8,8.71,2.79,13.71-.01,5.02-1.02,9.91-2.84,14.52-5.46,13.8-18.4,24.99-33.61,27.11-1.94.28-3.57,1.88-4.13,3.85-.13.46-.2.94-.2,1.43v.02c0,.2.01.4.04.59.02.19.06.38.1.57.04.16.09.32.15.47.01.05.03.1.06.14.05.13.11.25.17.37.09.18.2.34.32.5.11.14.22.26.34.38.11.11.22.21.34.3.13.11.27.2.42.28.68.39,1.49.55,2.37.43,12.34-1.73,23.58-8.37,31.76-17.78,4.09-4.7,7.42-10.1,9.74-15.94,2.3-5.82,3.6-12.09,3.61-18.45.01-6.36-1.26-12.26-3.55-17.44Z"/><path class="cls-1" d="m152.91,135.06l-23.04,3.43c-1.31.18-2.29-.96-2.03-2.38l6.53-36.42c.29-1.59-.86-2.56-2.05-2.39-.58.08-1.16.43-1.6,1.09l-37.84,57.13c-1.07,1.61-.1,3.62,1.64,3.38l22.53-3.37c1.25-.18,2.21.89,2.04,2.25l-4.2,33.61c-.19,1.53.92,2.41,2.07,2.25.58-.08,1.16-.42,1.6-1.08l36-54.12c1.08-1.62.12-3.63-1.62-3.38Z"/></svg>