<?xml version="1.0" encoding="UTF-8"?><svg id="Artwork" xmlns="http://www.w3.org/2000/svg" viewBox="0 0 214 214"><defs><style>.cls-1{stroke-width:0px;}</style></defs><path class="cls-1" d="m182.11,6.75s-.05-.02-.07-.04l-6.25-3.4c-1.95-1.05-4.26-1.51-6.74-1.16l-83.68,11.76c-1.17.17-2.29.89-3.03,1.97l-27.09,39.15c-.57.84-.9,1.83-.9,2.82l-.03,14.42-10.96,1.54c-5.68.8-10.31,6.44-10.32,12.56l-.19,104.14c-.01,7.29,3.51,13.21,8.83,16.1l6.33,3.44c-.07-.04-.13-.08-.2-.12,2.98,1.68,6.53,2.39,10.34,1.86l89.24-12.54c9.91-1.39,18.07-10.75,18.96-21.32l8.71-1.22c6.97-.98,12.65-7.89,12.66-15.41l.27-143.84c0-4.85-2.34-8.79-5.87-10.71Zm-34.71,184.03l-89.25,12.54c-.49.06-.97.1-1.44.1-.2,0-.41,0-.6-.02-.23,0-.45-.04-.68-.06-.18-.02-.34-.05-.51-.08-.19-.04-.39-.07-.57-.13-.19-.05-.38-.09-.56-.16-.31-.09-.6-.21-.9-.34-.15-.06-.29-.13-.43-.2-.15-.06-.29-.14-.43-.22-.33-.19-.65-.4-.95-.63-.18-.13-.34-.27-.51-.42-.18-.14-.34-.3-.49-.45-.16-.16-.31-.31-.45-.48-.09-.1-.18-.19-.24-.3h0c-.06-.07-.13-.16-.18-.23-.25-.34-.49-.69-.7-1.07-.16-.26-.3-.54-.42-.81-.08-.17-.17-.34-.23-.53-.09-.22-.18-.44-.25-.68-.06-.18-.11-.35-.16-.54-.03-.1-.06-.21-.08-.31-.04-.15-.06-.3-.09-.44-.06-.25-.09-.51-.13-.78-.02-.1-.03-.2-.04-.31-.02-.19-.04-.37-.05-.56-.02-.25-.03-.51-.03-.78v-.04l.19-104.14c0-1.45,1.1-2.78,2.45-2.98l4.62-.65-.17,90.67c0,4.84,2.34,8.78,5.87,10.69l6.23,3.4h.02s.06.04.07.05c1.95,1.06,4.26,1.52,6.73,1.17l85.37-12c-.84,5.88-5.46,10.95-11.03,11.73Zm32.46-28.38c0,2.85-2.16,5.47-4.8,5.84l-101.99,14.33-4.31-2.35h0c-.05-.1-.09-.21-.13-.32-.06-.14-.1-.28-.14-.43-.04-.13-.06-.26-.09-.4,0-.06-.02-.11-.03-.18-.02-.09-.03-.19-.04-.29-.02-.17-.03-.35-.03-.53l.22-115.59,21.74-3.06c3.26-.46,5.9-3.68,5.91-7.2l.05-27.03,77.52-10.9,1.61-.22c.43-.06.86-.06,1.26,0,.13.02.25.05.36.07.03,0,.05.02.06.02.1.03.2.06.3.09.09.03.18.06.26.1.11.05.22.1.32.16.02,0,.05.02.06.04.14.07.27.17.4.25.02.02.04.04.06.06.14.1.27.21.39.34.14.13.26.28.38.43h0c.12.16.22.31.31.48.06.09.1.19.15.28.06.12.1.24.15.36.06.14.1.28.14.43.04.13.06.26.09.4,0,.03,0,.06.02.09.02.12.04.24.05.37.02.17.03.35.03.53l-.27,143.84Z"/><path class="cls-1" d="m136.89,148.01l-58.19,8.18c-2.13.3-3.86,2.41-3.86,4.7,0,2.3,1.72,3.91,3.85,3.61l58.19-8.18c2.13-.3,3.86-2.4,3.86-4.69,0-2.3-1.72-3.92-3.85-3.62Z"/><path class="cls-1" d="m152.92,123.74l-73.29,10.3c-2.13.3-3.86,2.4-3.86,4.69,0,2.3,1.72,3.92,3.85,3.62l73.29-10.3c2.13-.3,3.86-2.41,3.86-4.7,0-2.3-1.72-3.91-3.85-3.61Z"/><path class="cls-1" d="m78.69,118.08l58.19-8.18c2.13-.3,3.86-2.4,3.86-4.69,0-2.3-1.72-3.92-3.85-3.62l-58.19,8.18c-2.13.3-3.86,2.41-3.86,4.7,0,2.3,1.72,3.91,3.85,3.61Z"/><path class="cls-1" d="m170.71,29.97l-39.99,5.62c-2.13.3-3.86,2.41-3.86,4.7,0,2.3,1.72,3.91,3.85,3.61l39.99-5.62c2.13-.3,3.86-2.4,3.86-4.69,0-2.3-1.72-3.92-3.85-3.62Z"/><path class="cls-1" d="m152.92,77.33l-73.29,10.3c-2.13.3-3.86,2.4-3.86,4.69,0,2.3,1.72,3.92,3.85,3.62l73.29-10.3c2.13-.3,3.86-2.41,3.86-4.7,0-2.3-1.72-3.91-3.85-3.61Z"/></svg>