<?xml version="1.0" encoding="UTF-8"?><svg xmlns="http://www.w3.org/2000/svg" viewBox="0 0 214 214"><defs><style>.cls-1{stroke-width:0px;}</style></defs><g id="Artwork"><path class="cls-1" d="m201.52,92.67c-.76-.71-1.63-1.33-2.56-1.82.04.02.09.04.13.07l-6.84-3.72c-2.19-1.19-4.8-1.7-7.58-1.31l-1.05.15c-3.18-17.47-9.82-32.61-19.1-44.14-5.78-7.17-12.59-12.93-20.24-16.91.29.15.59.29.88.45l-6.84-3.72c-1.46-.8-2.96-1.53-4.48-2.19-9.11-3.96-19.29-5.45-30.06-3.94-11.76,1.65-22.48,6.05-31.86,12.61-7.03,4.93-13.31,11.06-18.73,18.1-8.13,10.57-14.37,23.2-18.58,37.02-2.37,7.78-4.1,15.95-5.17,24.37h0l-6.99.98c-3.9.55-7.47,2.77-10.02,5.88-2.56,3.11-4.16,7.19-4.17,11.39l-.07,38.28c0,4.2,1.58,7.83,4.13,10.22.73.69,1.55,1.28,2.43,1.77l6.84,3.72s-.09-.06-.14-.09c2.21,1.25,4.87,1.79,7.71,1.4l10.16-1.43c1.18-.17,2.35-.85,3.19-1.88.84-1.02,1.33-2.34,1.33-3.63l.08-44.12v-5.88s.01,0,.01,0h0c.43-10.84,2-21.31,4.62-31.07,4.62-17.3,12.48-32.36,22.92-43.55,5.23-5.6,11.11-10.25,17.62-13.79,6.52-3.54,13.68-5.97,21.5-7.07,9.3-1.3,18.01-.04,25.93,3.4.14.06.29.13.43.19h.01c.22.1.45.2.67.31.62.29,1.23.59,1.84.91.12.05.23.11.34.17l.39.21c.08.04.16.08.24.13.32.17.64.35.95.53.31.18.63.36.94.55.31.19.63.38.94.58,2.16,1.36,4.25,2.9,6.26,4.62.28.24.57.48.85.74.57.5,1.13,1.01,1.68,1.55.28.26.55.53.82.8s.54.54.81.82c.81.83,1.6,1.7,2.37,2.59.5.57.99,1.16,1.47,1.76.04.04.08.09.11.14.93,1.15,1.83,2.35,2.7,3.59.08.1.15.21.23.32.43.63.86,1.27,1.28,1.92.45.69.89,1.39,1.32,2.11.44.71.86,1.44,1.27,2.18.42.74.82,1.49,1.22,2.25,4,7.67,7.06,16.47,8.97,26.11l-.12.02.13.07c.57,2.83,1.03,5.74,1.37,8.72.4,3.24.67,6.56.8,9.94v5.45s-.1,43.52-.1,43.52c-.12.14-.22.28-.3.43h-.01c-.18.28-.34.57-.47.89-.05.11-.24.53-.61,1.21-1.16,2.16-4.09,6.91-9.77,12.49-7.74,7.61-20.64,16.83-41.43,22.92-3.33.97-6.86,1.86-10.6,2.64.13.42.2.88.2,1.36,0-.48-.08-.93-.21-1.35-.58-1.88-2.28-3.07-4.29-2.79l-7.74,1.09c-2.48.35-4.51,2.83-4.52,5.5v5.44c-.01,2.68,2.01,4.58,4.49,4.23l7.74-1.09c2.1-.3,3.88-2.11,4.38-4.28.07-.29.1-.59.12-.89-.02.3-.05.6-.12.9,3.68-.79,7.18-1.68,10.51-2.65,22.35-6.53,36.77-16.81,45.63-25.72,6.83-6.87,10.31-12.86,11.64-15.49l10.01-1.41c3.9-.55,7.47-2.77,10.02-5.89,2.56-3.11,4.17-7.18,4.17-11.38l.07-38.27c.01-4.21-1.57-7.83-4.12-10.23ZM34.83,170.69l-5.64.79c-.24.04-.48.05-.71.05h-.06c-.07,0-.13,0-.2-.01-.04,0-.07,0-.11-.01-.03,0-.06,0-.09-.01-.07,0-.15-.01-.22-.03-.05,0-.1-.01-.14-.02-.05-.01-.1-.02-.15-.03-.04-.01-.07-.02-.11-.03-.16-.04-.32-.09-.47-.15-.13-.05-.27-.11-.4-.18-.04-.02-.09-.04-.13-.07-.1-.06-.19-.12-.29-.18-.03-.01-.06-.03-.08-.06-.06-.04-.11-.07-.16-.11-.11-.08-.21-.17-.31-.26-.1-.09-.2-.2-.29-.3-.04-.05-.08-.11-.12-.16-.02-.02-.04-.05-.05-.07-.13-.15-.24-.32-.33-.49,0,0,0,0,0,0-.07-.12-.14-.25-.2-.39-.04-.08-.08-.17-.12-.26-.05-.13-.1-.27-.14-.41-.04-.13-.07-.26-.1-.4-.02-.09-.04-.19-.05-.29-.01-.03-.02-.06-.02-.09-.04-.27-.06-.54-.06-.83l.07-38.28c.01-1.53.58-2.97,1.51-4.11.12-.14.24-.28.37-.41.12-.12.24-.24.36-.34.06-.05.12-.1.18-.15.11-.09.22-.18.33-.26.01,0,.03-.02.04-.03.12-.09.24-.16.36-.23.14-.09.29-.17.44-.24.11-.05.22-.1.34-.15.01,0,.02-.01.03-.01.14-.06.28-.11.42-.14.07-.03.15-.05.22-.07h.01c.18-.05.35-.08.53-.11l5.64-.79-.09,49.33Zm160.94-80.97s-.02,0-.03,0c-.01,0-.03,0-.04,0,.02,0,.04,0,.07.01Zm.77,52.72c0,1.54-.58,2.97-1.51,4.12-.94,1.14-2.2,1.92-3.63,2.13l-5.64.79v-3.85s0-.99,0-.99l.08-44.49,3.85-.55,1.79-.25c.39-.05.76-.06,1.12-.02.01,0,.03,0,.04,0,.05,0,.1.01.15.02.04,0,.07.01.1.02h.02c.05,0,.1.01.15.03.02.01.04.01.06.01h.01s.02.01.02.01h.01s.01,0,.02.01h.05s.03.01.04.01h0s.01.01.02.01.01,0,.02.01c.05.01.1.02.14.04.06.01.12.03.17.06.06.02.13.04.19.07.01,0,.02,0,.03,0,.04.02.08.03.12.05h.01s.07.04.11.06c0,.01.01.01.01.01.01,0,.01.01.02.01.09.04.18.09.26.15.06.04.13.08.19.12.06.04.13.08.19.13.01.01.02.02.04.03.1.08.21.17.31.26.93.88,1.49,2.16,1.49,3.7l-.07,38.27Z"/><path class="cls-1" d="m93.67,102.93c2.29,2.16,3.68,5.34,3.68,9.12-.01,2.62,1.96,4.47,4.39,4.12,2.43-.34,4.41-2.74,4.41-5.36.01-6.37-2.38-11.85-6.25-15.48-3.85-3.63-9.23-5.47-15.13-4.64-5.91.82-11.3,4.18-15.17,8.9-3.88,4.71-6.3,10.87-6.3,17.24-.01,2.62,1.95,4.47,4.38,4.13,2.43-.34,4.41-2.74,4.41-5.36.01-3.78,1.42-7.36,3.72-10.16,2.3-2.8,5.44-4.76,8.94-5.25s6.63.59,8.92,2.74Z"/><path class="cls-1" d="m124.23,113.01c2.43-.34,4.4-2.74,4.41-5.36.01-3.78,1.42-7.36,3.71-10.16,2.31-2.8,5.44-4.76,8.94-5.25s6.63.59,8.93,2.74c2.28,2.16,3.68,5.34,3.68,9.12,0,2.62,1.96,4.47,4.39,4.13,2.43-.34,4.4-2.75,4.41-5.37.01-6.37-2.38-11.85-6.25-15.47-3.86-3.64-9.23-5.48-15.14-4.65-5.9.83-11.29,4.19-15.17,8.91-3.87,4.71-6.3,10.87-6.3,17.24,0,2.62,1.96,4.47,4.39,4.12Z"/><path class="cls-1" d="m110.84,171.84c9.36-1.31,18.71-4.86,27.34-10.51l8.07-5.29c2.2-1.44,3.13-4.41,2.09-6.62-.75-1.6-2.33-2.38-3.97-2.15-.64.09-1.28.33-1.89.73l-8.07,5.28c-.38.25-.76.49-1.14.73-7.11,4.45-14.76,7.25-22.41,8.33-6.36.89-12.72.6-18.79-.95-.54-.14-1.07-.28-1.6-.44l-7.66-2.25c-.53-.16-1.09-.19-1.63-.11-1.75.24-3.4,1.6-4.09,3.55-.91,2.56.17,5.17,2.42,5.83l7.66,2.25c7.61,2.24,15.65,2.75,23.67,1.62Z"/></g><g id="Label"><path class="cls-1" d="m74.07,45.57c1.19-1.16,2.41-2.27,3.66-3.33-1.25,1.07-2.47,2.18-3.66,3.33Z"/></g></svg>