<?xml version="1.0" encoding="UTF-8"?><svg id="Artwork" xmlns="http://www.w3.org/2000/svg" viewBox="0 0 214 214"><defs><style>.cls-1{stroke-width:0px;}</style></defs><path class="cls-1" d="m206.01,21.65c0-1.13-.41-2.17-1.15-2.86-.2-.19-.43-.36-.67-.48,0,0-.02,0-.02,0l-.07-.04-.08-.05h-.01l-4.38-2.38c-.63-.35-1.37-.48-2.12-.37l-68.96,9.69c-1.41.2-2.73,1.2-3.44,2.63l-10.8,21.82c-.02.05-.04.11-.06.16l-94.22,13.24c-1.04.15-2.06.75-2.79,1.65-.74.9-1.17,2.05-1.17,3.18l-.25,131.07c0,1.12.42,2.16,1.16,2.85.21.2.43.36.68.49l6.61,3.6h.01l.19.11s.02,0,.03.01c.62.34,1.36.48,2.11.37l175.12-24.61c1.04-.14,2.06-.75,2.8-1.64.73-.9,1.16-2.06,1.16-3.19l.25-131.07c0-.33-.05-.65-.12-.97.09-.36.15-.72.15-1.1l.04-22.1Zm-8.22,152.09l-167.21,23.5v-4.68s.22-120.86.22-120.86l167.22-23.5-.23,125.54Zm.29-135.76l-68.52,9.63,5.83-11.78,58.14-8.17,4.57-.64-.02,10.96Z"/><path class="cls-1" d="m139.25,110.79c.02-7.42-2.77-13.78-7.27-18.01-4.49-4.23-10.74-6.37-17.61-5.41-6.88.97-13.15,4.87-17.66,10.37-4.52,5.49-7.32,12.64-7.34,20.06,0,7.42,2.77,13.78,7.27,18.01.51.48,1.04.92,1.6,1.35-1.44,1.04-2.74,2.29-3.88,3.68-3.06,3.71-4.98,8.57-4.99,13.59l-.02,8.73c0,2.39,1.79,4.07,4,3.76,2.21-.31,4.01-2.49,4.01-4.89l.02-8.72c0-2.64,1-5.16,2.63-7.16,1.64-1.99,3.85-3.36,6.3-3.72l16.03-2.25c2.45-.34,4.66.42,6.29,1.95,1.62,1.54,2.61,3.78,2.61,6.42l-.02,8.72c0,2.4,1.79,4.07,4,3.76,2.21-.31,4.01-2.49,4.01-4.88l.02-8.73c.01-5.02-1.9-9.34-4.94-12.2-1.16-1.09-2.49-1.97-3.95-2.62.54-.57,1.06-1.15,1.55-1.75,4.52-5.49,7.33-12.64,7.34-20.06Zm-12.99,14.74c-3.08,3.75-7.29,6.38-11.98,7.04-4.69.66-8.89-.79-11.96-3.67-3.06-2.89-4.95-7.17-4.94-12.22,0-5.07,1.91-9.87,4.98-13.63,3.09-3.74,7.3-6.37,11.99-7.03,4.69-.66,8.89.79,11.96,3.67,3.06,2.89,4.94,7.16,4.93,12.23-.01,5.06-1.91,9.86-4.98,13.61Z"/></svg>