<?xml version="1.0" encoding="UTF-8"?><svg id="Artwork" xmlns="http://www.w3.org/2000/svg" viewBox="0 0 214 214"><defs><style>.cls-1{stroke-width:0px;}</style></defs><path class="cls-1" d="m177.18,19.73c.01-5.26-2.55-9.52-6.39-11.59h-.01s-.04-.02-.06-.04c.04.02.07.03.11.05l-6.84-3.72c-2.11-1.15-4.61-1.63-7.28-1.25l-108.16,15.2c-8.68,1.22-15.76,9.85-15.78,19.22l-.28,153.24c0,5.24,2.52,9.49,6.34,11.57l6.84,3.72s-.06-.04-.09-.05c2.13,1.18,4.66,1.69,7.38,1.3l70.18-9.86c1.35,2.67,3.11,5.02,5.19,6.97,5.14,4.84,12.29,7.3,20.15,6.19,7.87-1.11,15.04-5.57,20.2-11.86,5.17-6.29,8.38-14.46,8.39-22.95,0-1.13-.05-2.24-.17-3.32l.29-152.82Zm-57.17,164.16v.22c0,1.59.12,3.14.35,4.63l-67.4,9.48c-.23.03-.45.05-.67.05-.18,0-.36,0-.53-.03-.02-.01-.04-.01-.07-.01-.17-.02-.33-.05-.49-.1-.12-.02-.24-.06-.35-.11-.03,0-.05-.02-.08-.03-.02-.01-.04-.01-.06-.02-.03-.01-.05-.01-.07-.03-.05-.02-.1-.04-.14-.06-.05-.02-.1-.04-.15-.07-.05-.01-.1-.04-.14-.07-.18-.1-.35-.21-.52-.33-.16-.12-.32-.25-.46-.4-.15-.14-.29-.3-.41-.46-.2-.27-.38-.56-.52-.87-.04-.08-.08-.16-.11-.25-.04-.08-.07-.17-.1-.27-.03-.09-.06-.18-.08-.27-.04-.14-.07-.28-.1-.42,0-.02-.01-.04-.01-.06-.01-.05-.02-.11-.02-.16-.02-.1-.03-.2-.04-.3-.02-.19-.03-.38-.03-.58l.28-153.24c.01-4.32,3.27-8.3,7.27-8.86l106.42-14.95,1.75-.25c.23-.03.46-.05.68-.05.18,0,.35.01.53.03.02,0,.05.01.07.01.16.02.32.05.48.1.16.03.31.08.46.15.04,0,.07.01.1.03.1.03.19.08.27.12.09.04.17.08.24.13.87.49,1.55,1.28,1.94,2.27.03.08.06.16.09.25.04.09.07.19.09.3.04.13.07.27.1.41,0,.02.01.04.01.06.03.15.05.31.06.46.02.19.03.38.03.58l-.24,134.07c-2.01-1.83-4.31-3.3-6.84-4.34-3.9-1.62-8.33-2.22-13.01-1.56-7.87,1.1-15.03,5.57-20.19,11.85-5.17,6.28-8.39,14.46-8.39,22.95Zm48.73-6.85c0,.38-.01.76-.03,1.13-.01.35-.04.7-.07,1.04-.02.14-.03.27-.05.41v.05c-.02.18-.04.36-.07.54,0,.03-.01.05-.01.08,0,.09-.02.17-.03.25-.04.31-.1.62-.15.92-.01.03-.01.06-.02.09-.04.25-.1.5-.15.74-.04.18-.08.36-.12.54-.03.12-.06.23-.09.34-.06.25-.13.48-.2.72-.15.54-.32,1.08-.52,1.61-.06.17-.12.33-.19.5-.11.3-.23.6-.36.9-.13.3-.26.59-.4.88-.1.22-.21.44-.32.65-.11.23-.24.46-.35.68-.02.03-.03.06-.05.09,0,.03-.03.05-.05.08-.19.36-.4.71-.62,1.06-.29.48-.6.96-.93,1.42-.37.53-.76,1.04-1.17,1.54-3.67,4.47-8.7,7.6-14.3,8.39-.9.13-1.79.19-2.65.19-.28,0-.55-.01-.83-.02-.28-.01-.56-.03-.83-.06-.13-.01-.25-.02-.37-.04-.14-.02-.27-.03-.4-.05-.13-.01-.26-.03-.39-.06-.15-.02-.31-.05-.46-.08-.27-.05-.53-.1-.79-.17-.27-.06-.52-.13-.78-.2-.51-.15-1.01-.33-1.5-.52-.24-.09-.48-.2-.72-.31-.14-.06-.28-.13-.42-.2-.01,0-.02-.01-.03-.01-.15-.07-.29-.15-.43-.23-.18-.09-.35-.18-.52-.28-.32-.18-.63-.38-.94-.58-.04-.03-.09-.06-.13-.09-.3-.2-.59-.42-.88-.64-.21-.16-.41-.33-.61-.5-.2-.18-.4-.35-.59-.53-.05-.05-.11-.11-.17-.16s-.12-.11-.17-.17c-.11-.11-.22-.22-.33-.33-.16-.18-.32-.35-.47-.53-.25-.29-.5-.59-.74-.89,0-.01-.02-.02-.02-.02-.22-.3-.44-.61-.66-.93-.01-.01-.02-.03-.03-.05-.2-.29-.39-.59-.56-.9-.03-.04-.06-.09-.08-.13-.02-.03-.03-.05-.04-.08-.14-.23-.27-.48-.39-.72-.06-.1-.11-.21-.16-.31,0,0-.01,0-.01-.02-.11-.21-.21-.43-.3-.65-.02-.04-.03-.08-.05-.12-.05-.1-.09-.2-.13-.3-.14-.34-.27-.68-.39-1.03-.07-.21-.14-.42-.21-.63-.05-.16-.1-.33-.15-.5-.01-.05-.03-.1-.04-.15-.1-.37-.2-.75-.28-1.14-.09-.36-.16-.73-.21-1.11-.07-.37-.12-.75-.16-1.14-.02-.24-.05-.48-.07-.73,0-.05-.01-.11-.01-.16-.01-.16-.02-.32-.03-.48-.02-.33-.03-.66-.03-.99v-.22c.01-6.03,2.27-11.78,5.95-16.25,3.67-4.47,8.7-7.61,14.29-8.4.9-.13,1.78-.19,2.65-.19.28,0,.56.01.84.02.5.03.99.07,1.48.13.12.02.24.03.36.05.05,0,.11.02.16.03.27.04.54.09.8.15.07.02.14.03.21.05.34.07.68.16,1.01.26.24.07.48.14.71.22.22.08.44.16.65.24.13.05.27.11.39.16.02.01.03.01.05.02.3.13.6.26.88.4.03.02.07.03.1.06.13.05.25.12.37.19.05.02.09.05.14.07,0,0,.01,0,.01.01.18.09.34.19.51.29.3.17.58.36.86.55.28.19.56.39.83.6.44.33.86.69,1.27,1.07.19.18.37.36.54.54.13.12.24.24.35.37.02.01.03.03.04.04.13.14.26.28.38.43.21.24.4.48.59.73.17.22.34.45.49.67.06.08.11.16.16.24.15.22.29.44.43.67.17.27.33.55.48.84.15.28.3.57.44.86.02.03.03.06.04.09.13.26.24.53.36.8.01.03.02.07.04.1.09.23.18.46.26.7.06.15.12.31.17.47.04.12.08.24.12.37.04.13.08.25.12.38.07.25.14.51.21.77.07.26.13.52.18.79.05.19.08.38.12.58,0,.02.01.04.01.06.01.05.02.11.03.16v.03c.01.05.02.11.03.16,0,.02.01.05.01.07.04.23.07.46.1.69.04.3.07.6.1.9s.05.61.06.92c.02.33.03.67.03,1.01v.15Z"/><path class="cls-1" d="m153.44,138.53c0-2.48-1.86-4.22-4.16-3.9l-79.22,11.13c-2.3.32-4.17,2.59-4.17,5.07,0,2.48,1.86,4.23,4.16,3.91l79.22-11.13c2.3-.32,4.17-2.6,4.17-5.08Z"/><path class="cls-1" d="m141.13,110.68l-62.91,8.84c-2.3.32-4.16,2.6-4.17,5.08,0,2.48,1.85,4.23,4.15,3.9l62.91-8.84c2.3-.32,4.16-2.59,4.17-5.07,0-2.48-1.85-4.23-4.15-3.91Z"/><path class="cls-1" d="m88.04,61.4l43.22-6.07c2.3-.32,4.17-2.59,4.17-5.07,0-2.48-1.86-4.23-4.16-3.91l-43.22,6.07c-2.3.32-4.17,2.6-4.17,5.08,0,2.48,1.86,4.22,4.16,3.9Z"/><path class="cls-1" d="m70.04,104.57l79.22-11.13c2.3-.32,4.17-2.6,4.17-5.08,0-2.48-1.86-4.22-4.16-3.9l-79.22,11.13c-2.3.32-4.17,2.59-4.17,5.07,0,2.48,1.86,4.23,4.16,3.91Z"/><path class="cls-1" d="m160.37,166.58c-.39-.25-.84-.33-1.29-.27-.69.1-1.38.54-1.81,1.26l-7.48,12.36-3.09,5.11h-.01l-1.2,1.99-1.68-1.58-4.22-3.97s-.09-.08-.13-.1c-.41-.34-.93-.46-1.44-.39-.52.07-1.04.35-1.46.8-.04.04-.08.08-.12.13-.86,1.05-.87,2.58,0,3.39l1.09,1.02,6.67,6.28c.41.39.98.56,1.56.48.07,0,.13-.02.19-.04.65-.14,1.25-.59,1.63-1.22l4.57-7.55,3.1-5.12,5.64-9.31c.72-1.18.48-2.65-.52-3.27Z"/></svg>