<svg width="482" height="623" viewBox="0 0 482 623" fill="none" xmlns="http://www.w3.org/2000/svg">
<path d="M328.726 205.997C327.876 205.997 327.186 205.307 327.186 204.456V141.09C327.186 140.239 327.876 139.549 328.726 139.549C329.577 139.549 330.267 140.239 330.267 141.09V204.456C330.267 205.307 329.577 205.997 328.726 205.997Z" fill="#B2B6C6"/>
<path d="M334.229 137.103H323.221V160.859H334.229V137.103Z" fill="#B2B6C6"/>
<path d="M332.618 163.105C330.469 164.347 326.983 164.347 324.832 163.105C322.683 161.863 322.683 159.852 324.832 158.611C326.981 157.369 330.467 157.369 332.616 158.611C334.766 159.852 334.766 161.863 332.618 163.105Z" fill="#B2B6C6"/>
<path d="M337.644 103.991H319.805V141.25H337.644V103.991Z" fill="#B2B6C6"/>
<path d="M323.219 141.009V149.048C326.449 150.525 330.997 150.525 334.227 149.048V141.007C330.997 139.532 326.449 139.532 323.219 141.009Z" fill="#173D7A"/>
<path d="M335.031 144.891C331.547 146.902 325.9 146.902 322.418 144.891C318.934 142.88 318.934 139.62 322.418 137.609C325.902 135.598 331.549 135.598 335.031 137.609C338.514 139.62 338.514 142.88 335.031 144.891Z" fill="#B2B6C6"/>
<path d="M390.521 240.769C389.671 240.769 388.98 240.078 388.98 239.228V175.861C388.98 175.011 389.671 174.32 390.521 174.32C391.372 174.32 392.062 175.011 392.062 175.861V239.228C392.062 240.078 391.372 240.769 390.521 240.769Z" fill="#B2B6C6"/>
<path d="M396.022 171.879H385.014V195.635H396.022V171.879Z" fill="#B2B6C6"/>
<path d="M394.41 197.881C392.261 199.123 388.775 199.123 386.627 197.881C384.476 196.64 384.476 194.629 386.627 193.387C388.775 192.146 392.261 192.146 394.41 193.387C396.561 194.629 396.561 196.642 394.41 197.881Z" fill="#B2B6C6"/>
<path d="M399.437 138.769H381.598V176.028H399.437V138.769Z" fill="#B2B6C6"/>
<path d="M385.012 175.786V183.825C388.242 185.302 392.79 185.302 396.02 183.825V175.785C392.79 174.31 388.242 174.31 385.012 175.786Z" fill="#173D7A"/>
<path d="M396.824 179.668C393.34 181.679 387.693 181.679 384.211 179.668C380.727 177.657 380.727 174.397 384.211 172.386C387.695 170.375 393.342 170.375 396.824 172.386C400.308 174.397 400.308 177.657 396.824 179.668Z" fill="#B2B6C6"/>
<path d="M450.587 200.59L474.507 186.503L451.728 158.072L445.738 167.856L450.587 200.59Z" fill="#FFF4EE"/>
<path d="M276.91 44.552L315.084 22.5898C315.084 22.5898 313.648 44.5079 313.648 44.552C313.648 44.5961 291.717 51.3438 291.717 51.3438L276.91 44.552Z" fill="#FF9557"/>
<path d="M457.238 129.096C454.332 127.419 451.559 126.44 448.979 126.034C445.129 105.806 431.055 84.3251 414.272 74.6351C409.225 71.7205 404.425 70.163 400.07 69.8287C397.778 45.3119 380.731 17.4469 360.03 5.49606C349.216 -0.746567 339.405 -1.48489 332.165 2.33709L332.167 2.31873L331.816 2.52076C331.631 2.62361 331.447 2.72829 331.267 2.83665L308.756 16.1319L316.236 22.0402C309.522 24.9751 305.279 32.5052 305.279 43.6369C305.279 64.1646 319.691 89.126 337.468 99.3889L457.242 184.916C470.59 192.624 481.413 186.376 481.413 170.962C481.413 155.547 470.588 136.804 457.238 129.096Z" fill="#FF9557"/>
<path d="M306.387 34.5995L358.052 4.41298C348.022 -0.817675 338.961 -1.24928 332.163 2.33945L332.165 2.32109L331.814 2.52311C331.629 2.62596 331.445 2.73065 331.265 2.83901L308.754 16.1342L316.235 22.0426C311.54 24.0922 308.062 28.3972 306.387 34.5995Z" fill="#FF9557"/>
<path d="M401.799 123.404L439.495 101.282C433.031 90.0992 424.127 80.3303 414.27 74.6387C412.966 73.8857 411.678 73.2263 410.409 72.6533L362.461 100.695L401.799 123.404Z" fill="#FFF4EE"/>
<path d="M319.375 18.6019L336.174 28.301L366.939 10.181C364.693 8.43623 362.385 6.85859 360.028 5.49766C356.302 3.34699 352.7 1.86485 349.277 0.981445L319.375 18.6019Z" fill="#FFF4EE"/>
<path d="M435.339 94.7725L405.252 112.501L415.717 124.173L443.029 108.046C440.869 103.419 438.274 98.9471 435.339 94.7725Z" fill="#FF9557"/>
<path d="M433.603 143.017C430.698 141.34 427.925 140.361 425.344 139.955C421.496 119.727 407.421 98.2461 390.638 88.5561C385.591 85.6414 380.79 84.084 376.435 83.7497C374.143 59.231 357.096 31.3678 336.396 19.417C314.132 6.56261 296.084 16.9835 296.084 42.6887C296.084 43.5611 296.11 44.4408 296.15 45.3242C279.871 37.7739 267.15 46.2811 267.15 65.5655C267.15 86.0932 281.562 111.055 299.339 121.318L433.603 198.835C446.952 206.543 457.775 200.295 457.775 184.881C457.775 169.468 446.954 150.725 433.603 143.017Z" fill="#173D7A"/>
<path d="M296.151 45.3263C296.11 44.4429 296.084 43.5631 296.084 42.6908C296.084 42.654 296.086 42.6191 296.086 42.5824C287.092 39.0855 279.364 40.6081 274.512 46.2189C279.783 41.8808 287.445 41.2894 296.151 45.3263Z" fill="#DADCE4"/>
<path d="M435.568 141.1C432.663 139.423 429.889 138.444 427.309 138.038C423.459 117.81 409.385 96.3291 392.603 86.6392C387.556 83.7245 382.755 82.167 378.4 81.8328C376.11 57.314 359.061 29.4509 338.36 17.5001C324.49 9.49247 312.259 10.521 305.006 18.648C312.395 12.3337 323.708 12.0913 336.395 19.4157C357.096 31.3665 374.143 59.2315 376.435 83.7483C380.79 84.0826 385.59 85.64 390.637 88.5547C407.42 98.2447 421.496 119.726 425.344 139.954C427.924 140.358 430.697 141.337 433.603 143.016C446.951 150.722 457.774 169.466 457.774 184.881C457.774 190.444 456.349 194.79 453.919 197.739C457.539 194.949 459.74 189.893 459.74 182.966C459.74 167.551 448.918 148.806 435.568 141.1Z" fill="#DADCE4"/>
<path d="M293.315 51.4465L303.407 56.1262L302.893 45.0129C302.856 44.2323 302.834 43.4573 302.834 42.6877C302.834 32.7682 305.83 25.5761 311.266 22.4355C316.704 19.2986 324.433 20.3013 333.022 25.2602C351.499 35.9272 367.617 61.895 369.718 84.3769L370.247 90.041L375.918 90.4763C379.404 90.7444 383.222 92.0631 387.265 94.3993C401.939 102.872 415.168 122.56 418.716 141.214L419.605 145.885L424.301 146.62C426.171 146.913 428.168 147.666 430.232 148.858C441.505 155.367 451.029 171.862 451.029 184.878C451.029 189.749 449.678 193.323 447.323 194.684C444.971 196.041 441.2 195.425 436.98 192.99L302.715 115.472C287.096 106.455 273.9 83.6 273.9 65.5645C273.9 58.4862 275.987 53.0958 279.627 50.7707C281.124 49.8156 282.936 49.3399 284.979 49.3399C287.466 49.3418 290.292 50.0452 293.315 51.4465Z" fill="white"/>
<path d="M360.32 135.598L363.861 133.821L360.375 131.178L360.32 135.598Z" fill="#FFF4EE"/>
<path d="M349.686 87.7529L353.124 86.0137L353.186 87.8154L349.686 87.7529Z" fill="#5793CE"/>
<path d="M370.424 124.413L374.013 122.61L367.107 116.04L370.424 124.413Z" fill="#FFF4EE"/>
<path d="M362.827 133.706L346.059 123.831C345.209 123.329 344.52 122.068 344.523 121.012L344.579 101.599L364.43 113.29L364.375 132.703C364.37 133.758 363.677 134.208 362.827 133.706Z" fill="#FFF4EE"/>
<path d="M353.085 86.0357L334.974 97.689C334.205 98.1831 334.828 100.027 335.994 100.714L354.49 111.609L372.987 122.503C374.153 123.19 374.783 122.085 374.021 120.687L356.037 87.7732C355.26 86.3516 353.868 85.5325 353.085 86.0357Z" fill="#FFF4EE"/>
<path d="M359.231 135.518L342.463 125.642C341.613 125.141 340.924 123.879 340.928 122.823L340.983 103.41L360.835 115.102L360.78 134.515C360.774 135.569 360.082 136.019 359.231 135.518Z" fill="#FF9557"/>
<path d="M349.489 87.8473L331.379 99.5005C330.609 99.9946 331.232 101.839 332.398 102.525L350.894 113.42L369.391 124.315C370.557 125.002 371.187 123.896 370.425 122.499L352.441 89.5847C351.664 88.1632 350.272 87.344 349.489 87.8473Z" fill="#FF9557"/>
<path d="M327.037 156.742C327.037 157.835 326.269 158.278 325.323 157.732C324.377 157.185 323.609 155.857 323.609 154.764C323.609 153.672 324.377 153.229 325.323 153.775C326.269 154.322 327.037 155.65 327.037 156.742Z" fill="white"/>
<path d="M388.978 192.021C388.978 193.114 388.21 193.556 387.264 193.011C386.319 192.465 385.551 191.136 385.551 190.043C385.551 188.95 386.319 188.507 387.264 189.053C388.212 189.6 388.978 190.928 388.978 192.021Z" fill="white"/>
<path d="M278.297 431.598L199.832 386.856C196.963 385.2 197.321 382.305 200.636 380.393L245.783 354.328C249.097 352.414 254.109 352.207 256.979 353.864L335.444 398.605C338.313 400.262 337.955 403.156 334.64 405.068L289.493 431.133C286.18 433.047 281.167 433.255 278.297 431.598Z" fill="#D4ECFF"/>
<path d="M342.434 383.542V200.363L269.611 181.302L256.198 173.557C253.12 171.779 247.743 172.004 244.189 174.055L231.674 181.28L192.832 181.258L204.333 358.092C204.245 359.295 204.917 360.456 206.395 361.31L279.068 416.146C282.146 417.923 287.524 417.699 291.077 415.648L339.509 387.686C341.56 386.503 342.55 384.971 342.434 383.542Z" fill="#396CAA"/>
<path d="M250.626 172.365C248.373 172.42 246.035 172.988 244.189 174.053L231.674 181.278L192.832 181.256V364.93C192.744 366.133 193.416 367.294 194.894 368.148L279.068 416.144C280.546 416.998 282.557 417.385 284.642 417.334L285.51 232.512L250.626 172.365Z" fill="#D4ECFF"/>
<path d="M279.84 416.525C282.494 417.662 286.336 417.6 289.44 416.415V230.332H279.84V416.525Z" fill="#5793CE"/>
<path d="M279.07 232.537L194.897 184.541C191.818 182.764 192.204 179.66 195.758 177.608L244.189 149.646C247.743 147.594 253.121 147.37 256.199 149.148L340.372 197.144C343.45 198.922 343.064 202.026 339.509 204.077L291.078 232.04C287.526 234.093 282.15 234.315 279.07 232.537Z" fill="#D4ECFF"/>
<path d="M339.514 200.672L291.083 228.635C287.527 230.686 282.151 230.91 279.073 229.132L194.9 181.136C194.213 180.74 193.71 180.275 193.364 179.773C192.306 181.476 192.786 183.322 194.9 184.541L279.073 232.537C282.151 234.315 287.529 234.091 291.083 232.04L339.514 204.077C342.276 202.483 343.115 200.255 341.912 198.507C341.429 199.284 340.627 200.029 339.514 200.672Z" fill="#FAFDFF"/>
<path d="M281.454 213.084L225.414 180.599C223.974 179.767 224.154 178.314 225.818 177.353L248.481 164.267C250.145 163.307 252.661 163.202 254.101 164.034L310.142 196.52C311.581 197.352 311.401 198.805 309.737 199.765L287.074 212.849C285.41 213.812 282.894 213.916 281.454 213.084Z" fill="#173D7A"/>
<path d="M251.196 182.057L247.949 180.182C247.75 180.066 247.774 179.866 248.004 179.734L251.139 177.923C251.368 177.791 251.717 177.776 251.916 177.89L255.163 179.765C255.363 179.881 255.337 180.081 255.108 180.213L251.973 182.024C251.743 182.157 251.394 182.171 251.196 182.057Z" fill="#D4ECFF"/>
<path d="M262.043 188.294L258.796 186.419C258.598 186.303 258.622 186.103 258.851 185.97L261.987 184.159C262.216 184.027 262.565 184.013 262.763 184.126L266.011 186.002C266.211 186.117 266.185 186.317 265.955 186.452L262.82 188.262C262.591 188.395 262.242 188.409 262.043 188.294Z" fill="#D4ECFF"/>
<path d="M272.893 194.533L269.646 192.657C269.448 192.542 269.472 192.341 269.701 192.207L272.836 190.397C273.066 190.264 273.415 190.25 273.613 190.365L276.86 192.24C277.06 192.356 277.035 192.556 276.805 192.689L273.67 194.499C273.44 194.632 273.091 194.646 272.893 194.533Z" fill="#D4ECFF"/>
<path d="M283.741 200.771L280.494 198.896C280.295 198.78 280.319 198.58 280.549 198.448L283.684 196.637C283.913 196.505 284.262 196.49 284.461 196.604L287.708 198.479C287.908 198.595 287.882 198.795 287.653 198.927L284.518 200.738C284.288 200.872 283.939 200.887 283.741 200.771Z" fill="#D4ECFF"/>
<path d="M225.41 180.599L225.476 180.637C225.586 180.558 225.687 180.477 225.814 180.406L248.477 167.322C250.141 166.361 252.658 166.257 254.097 167.089L310.072 199.536C311.399 198.585 311.469 197.292 310.138 196.522L254.097 164.036C252.658 163.204 250.141 163.309 248.477 164.269L225.814 177.355C224.15 178.314 223.97 179.767 225.41 180.599Z" fill="#5793CE"/>
<path d="M300.536 268.83L332.399 250.587C334.192 249.551 335.646 246.774 335.646 244.383V232.988C335.646 230.597 334.192 229.499 332.399 230.535L300.536 248.778C298.744 249.813 297.289 252.59 297.289 254.982V266.376C297.289 268.765 298.742 269.864 300.536 268.83Z" fill="#173D7A"/>
<path d="M333.974 230.19C334.475 230.662 334.789 231.469 334.789 232.561V243.956C334.789 246.347 333.337 249.124 331.542 250.16L299.679 268.401C299.104 268.733 298.572 268.823 298.102 268.744C298.697 269.306 299.56 269.391 300.533 268.829L332.396 250.586C334.189 249.55 335.643 246.773 335.643 244.382V232.988C335.643 231.364 334.966 230.358 333.974 230.19Z" fill="white"/>
<path d="M310.121 256.45L313.043 254.763C313.434 254.537 313.75 253.932 313.75 253.411V250.289C313.75 249.767 313.433 249.528 313.043 249.754L310.121 251.442C309.73 251.668 309.414 252.272 309.414 252.794V255.916C309.412 256.438 309.73 256.676 310.121 256.45Z" fill="#396CAA"/>
<path d="M319.893 250.809L322.815 249.121C323.206 248.895 323.522 248.291 323.522 247.769V244.647C323.522 244.125 323.204 243.887 322.815 244.113L319.893 245.8C319.501 246.026 319.186 246.631 319.186 247.152V250.274C319.186 250.794 319.501 251.035 319.893 250.809Z" fill="white"/>
<path d="M300.536 351.169L332.399 332.926C334.192 331.89 335.646 329.113 335.646 326.721V315.327C335.646 312.936 334.192 311.838 332.399 312.873L300.536 331.116C298.744 332.152 297.289 334.929 297.289 337.321V348.715C297.289 351.106 298.742 352.204 300.536 351.169Z" fill="#173D7A"/>
<path d="M333.974 312.529C334.475 313.001 334.789 313.808 334.789 314.9V326.295C334.789 328.686 333.337 331.463 331.542 332.499L299.679 350.742C299.104 351.074 298.572 351.164 298.102 351.085C298.697 351.645 299.56 351.73 300.533 351.17L332.396 332.927C334.189 331.891 335.643 329.114 335.643 326.723V315.328C335.643 313.703 334.966 312.698 333.974 312.529Z" fill="white"/>
<path d="M310.121 338.792L313.043 337.104C313.434 336.878 313.75 336.274 313.75 335.753V332.63C313.75 332.109 313.433 331.87 313.043 332.096L310.121 333.784C309.73 334.01 309.414 334.614 309.414 335.136V338.258C309.412 338.778 309.73 339.016 310.121 338.792Z" fill="#396CAA"/>
<path d="M319.893 333.148L322.815 331.46C323.206 331.234 323.522 330.63 323.522 330.108V326.986C323.522 326.464 323.204 326.225 322.815 326.451L319.893 328.139C319.501 328.365 319.186 328.969 319.186 329.491V332.613C319.186 333.135 319.501 333.374 319.893 333.148Z" fill="white"/>
<path d="M300.536 392.337L332.399 374.094C334.192 373.059 335.646 370.282 335.646 367.89V356.496C335.646 354.105 334.192 353.007 332.399 354.042L300.536 372.285C298.744 373.321 297.289 376.098 297.289 378.489V389.884C297.289 392.275 298.742 393.373 300.536 392.337Z" fill="#173D7A"/>
<path d="M333.974 353.698C334.475 354.17 334.789 354.977 334.789 356.069V367.464C334.789 369.855 333.337 372.632 331.542 373.668L299.679 391.911C299.104 392.243 298.572 392.333 298.102 392.254C298.697 392.814 299.56 392.899 300.533 392.339L332.396 374.096C334.189 373.06 335.643 370.283 335.643 367.892V356.497C335.643 354.874 334.966 353.867 333.974 353.698Z" fill="white"/>
<path d="M310.121 379.959L313.043 378.271C313.434 378.045 313.75 377.441 313.75 376.92V373.797C313.75 373.276 313.433 373.037 313.043 373.263L310.121 374.951C309.73 375.177 309.414 375.781 309.414 376.303V379.425C309.412 379.945 309.73 380.185 310.121 379.959Z" fill="#396CAA"/>
<path d="M319.893 374.315L322.815 372.627C323.206 372.401 323.522 371.797 323.522 371.275V368.153C323.522 367.631 323.204 367.392 322.815 367.618L319.893 369.306C319.501 369.532 319.186 370.136 319.186 370.658V373.78C319.186 374.302 319.501 374.541 319.893 374.315Z" fill="white"/>
<path d="M300.536 310L332.399 291.757C334.192 290.721 335.646 287.944 335.646 285.553V274.158C335.646 271.767 334.192 270.669 332.399 271.705L300.536 289.948C298.744 290.983 297.289 293.76 297.289 296.152V307.546C297.289 309.935 298.742 311.035 300.536 310Z" fill="#173D7A"/>
<path d="M333.974 271.36C334.475 271.832 334.789 272.639 334.789 273.731V285.126C334.789 287.517 333.337 290.294 331.542 291.33L299.679 309.573C299.104 309.905 298.572 309.995 298.102 309.916C298.697 310.478 299.56 310.563 300.533 310.001L332.396 291.758C334.189 290.722 335.643 287.945 335.643 285.554V274.159C335.643 272.534 334.966 271.527 333.974 271.36Z" fill="white"/>
<path d="M310.121 297.62L313.043 295.932C313.434 295.707 313.75 295.102 313.75 294.581V291.459C313.75 290.937 313.433 290.698 313.043 290.924L310.121 292.612C309.73 292.838 309.414 293.442 309.414 293.964V297.086C309.412 297.607 309.73 297.846 310.121 297.62Z" fill="#396CAA"/>
<path d="M319.893 291.978L322.815 290.29C323.206 290.064 323.522 289.46 323.522 288.938V285.816C323.522 285.294 323.204 285.056 322.815 285.281L319.893 286.969C319.501 287.195 319.186 287.799 319.186 288.321V291.443C319.186 291.963 319.501 292.204 319.893 291.978Z" fill="white"/>
<path d="M272.94 257.165L199.428 214.723C197.783 213.774 196.449 211.224 196.449 209.031V195.015C196.449 192.82 197.783 191.813 199.428 192.763L272.94 235.205C274.586 236.155 275.919 238.704 275.919 240.897V254.914C275.919 257.107 274.586 258.115 272.94 257.165Z" fill="#5793CE"/>
<path opacity="0.4" d="M270.828 252.251L201.537 212.246C200.703 211.765 200.025 210.472 200.025 209.359V198.82C200.025 197.707 200.701 197.195 201.537 197.678L270.828 237.683C271.662 238.164 272.34 239.457 272.34 240.57V251.109C272.34 252.222 271.662 252.732 270.828 252.251Z" fill="#D4ECFF"/>
<path d="M215.981 215.254L205.641 209.283C204.831 208.815 204.174 207.559 204.174 206.479C204.174 205.399 204.831 204.901 205.641 205.37L215.981 211.34C216.791 211.809 217.449 213.065 217.449 214.145C217.449 215.227 216.791 215.723 215.981 215.254Z" fill="#D4ECFF"/>
<path d="M224.791 218.385C224.791 219.465 224.032 219.904 223.096 219.364C222.159 218.824 221.4 217.509 221.4 216.429C221.4 215.349 222.159 214.91 223.096 215.45C224.032 215.99 224.791 217.303 224.791 218.385Z" fill="#173D7A"/>
<path d="M230.771 221.838C230.771 222.92 230.013 223.357 229.076 222.817C228.139 222.277 227.381 220.962 227.381 219.882C227.381 218.802 228.139 218.363 229.076 218.903C230.013 219.443 230.771 220.758 230.771 221.838Z" fill="#173D7A"/>
<path d="M236.75 225.289C236.75 226.369 235.991 226.808 235.055 226.268C234.118 225.728 233.359 224.413 233.359 223.333C233.359 222.253 234.118 221.814 235.055 222.354C235.991 222.894 236.75 224.209 236.75 225.289Z" fill="#D4ECFF"/>
<path d="M242.726 228.741C242.726 229.823 241.968 230.26 241.031 229.72C240.094 229.18 239.336 227.865 239.336 226.785C239.336 225.705 240.094 225.266 241.031 225.806C241.968 226.346 242.726 227.659 242.726 228.741Z" fill="#173D7A"/>
<path d="M267.916 246.382L264.432 244.371C263.913 244.071 263.49 243.265 263.49 242.571V238.885C263.49 238.191 263.913 237.873 264.432 238.172L267.916 240.183C268.436 240.484 268.859 241.289 268.859 241.983V245.669C268.859 246.363 268.436 246.683 267.916 246.382Z" fill="#173D7A"/>
<path d="M272.94 281.882L199.428 239.44C197.783 238.49 196.449 235.941 196.449 233.748V219.731C196.449 217.537 197.783 216.53 199.428 217.48L272.94 259.922C274.586 260.871 275.919 263.421 275.919 265.613V279.63C275.919 281.825 274.586 282.833 272.94 281.882Z" fill="#5793CE"/>
<path opacity="0.4" d="M270.828 276.968L201.537 236.963C200.703 236.482 200.025 235.189 200.025 234.076V223.537C200.025 222.424 200.701 221.912 201.537 222.395L270.828 262.4C271.662 262.881 272.34 264.174 272.34 265.289V275.827C272.34 276.938 271.662 277.451 270.828 276.968Z" fill="#D4ECFF"/>
<path d="M215.981 239.973L205.641 234.002C204.831 233.534 204.174 232.279 204.174 231.198C204.174 230.118 204.831 229.62 205.641 230.088L215.981 236.059C216.791 236.527 217.449 237.784 217.449 238.864C217.449 239.944 216.791 240.441 215.981 239.973Z" fill="#D4ECFF"/>
<path d="M224.791 243.105C224.791 244.186 224.032 244.624 223.096 244.084C222.159 243.544 221.4 242.229 221.4 241.149C221.4 240.067 222.159 239.63 223.096 240.17C224.032 240.708 224.791 242.023 224.791 243.105Z" fill="white"/>
<path d="M230.771 246.555C230.771 247.636 230.013 248.073 229.076 247.534C228.139 246.994 227.381 245.679 227.381 244.599C227.381 243.519 228.139 243.08 229.076 243.62C230.013 244.16 230.771 245.475 230.771 246.555Z" fill="#173D7A"/>
<path d="M236.75 250.007C236.75 251.087 235.991 251.526 235.055 250.986C234.118 250.446 233.359 249.131 233.359 248.051C233.359 246.971 234.118 246.532 235.055 247.072C235.991 247.612 236.75 248.925 236.75 250.007Z" fill="#D4ECFF"/>
<path d="M242.726 253.458C242.726 254.54 241.968 254.977 241.031 254.437C240.094 253.897 239.336 252.582 239.336 251.502C239.336 250.422 240.094 249.983 241.031 250.523C241.968 251.063 242.726 252.378 242.726 253.458Z" fill="#173D7A"/>
<path d="M267.916 271.1L264.432 269.089C263.913 268.787 263.49 267.983 263.49 267.289V263.603C263.49 262.908 263.913 262.591 264.432 262.89L267.916 264.901C268.436 265.202 268.859 266.007 268.859 266.701V270.387C268.859 271.081 268.436 271.401 267.916 271.1Z" fill="#173D7A"/>
<path d="M272.938 306.602L199.426 264.16C197.781 263.21 196.447 260.661 196.447 258.468V244.451C196.447 242.256 197.781 241.25 199.426 242.199L272.938 284.641C274.584 285.591 275.917 288.14 275.917 290.333V304.35C275.917 306.543 274.584 307.551 272.938 306.602Z" fill="#5793CE"/>
<path opacity="0.4" d="M270.826 301.687L201.535 261.682C200.701 261.201 200.023 259.908 200.023 258.795V248.257C200.023 247.144 200.699 246.631 201.535 247.114L270.826 287.119C271.66 287.601 272.338 288.894 272.338 290.007V300.545C272.338 301.658 271.66 302.169 270.826 301.687Z" fill="#D4ECFF"/>
<path d="M215.979 264.693L205.639 258.722C204.829 258.254 204.172 256.998 204.172 255.918C204.172 254.836 204.829 254.34 205.639 254.808L215.979 260.779C216.789 261.247 217.447 262.502 217.447 263.584C217.447 264.664 216.789 265.161 215.979 264.693Z" fill="#D4ECFF"/>
<path d="M224.789 267.822C224.789 268.903 224.03 269.34 223.094 268.8C222.157 268.26 221.398 266.945 221.398 265.866C221.398 264.784 222.157 264.347 223.094 264.887C224.03 265.427 224.789 266.742 224.789 267.822Z" fill="white"/>
<path d="M230.769 271.274C230.769 272.356 230.011 272.793 229.074 272.253C228.137 271.713 227.379 270.398 227.379 269.318C227.379 268.238 228.137 267.799 229.074 268.339C230.011 268.879 230.769 270.193 230.769 271.274Z" fill="#173D7A"/>
<path d="M236.748 274.725C236.748 275.807 235.989 276.244 235.053 275.704C234.116 275.164 233.357 273.849 233.357 272.77C233.357 271.69 234.116 271.251 235.053 271.791C235.989 272.331 236.748 273.646 236.748 274.725Z" fill="#D4ECFF"/>
<path d="M242.724 278.178C242.724 279.26 241.966 279.697 241.029 279.157C240.093 278.617 239.334 277.302 239.334 276.222C239.334 275.14 240.093 274.703 241.029 275.243C241.966 275.783 242.724 277.096 242.724 278.178Z" fill="#173D7A"/>
<path d="M267.914 295.819L264.43 293.808C263.911 293.509 263.488 292.703 263.488 292.008V288.322C263.488 287.628 263.911 287.31 264.43 287.61L267.914 289.621C268.434 289.92 268.857 290.726 268.857 291.421V295.107C268.857 295.801 268.434 296.119 267.914 295.819Z" fill="#173D7A"/>
<path d="M272.94 331.321L199.428 288.879C197.783 287.93 196.449 285.38 196.449 283.187V269.17C196.449 266.978 197.783 265.969 199.428 266.919L272.94 309.361C274.586 310.31 275.919 312.86 275.919 315.053V329.07C275.919 331.263 274.586 332.271 272.94 331.321Z" fill="#5793CE"/>
<path opacity="0.4" d="M270.828 326.407L201.537 286.402C200.703 285.921 200.025 284.628 200.025 283.515V272.977C200.025 271.864 200.701 271.351 201.537 271.834L270.828 311.839C271.662 312.32 272.34 313.613 272.34 314.726V325.265C272.34 326.378 271.662 326.888 270.828 326.407Z" fill="#D4ECFF"/>
<path d="M215.981 289.411L205.641 283.44C204.831 282.972 204.174 281.717 204.174 280.635C204.174 279.554 204.831 279.058 205.641 279.526L215.981 285.497C216.791 285.965 217.449 287.221 217.449 288.301C217.449 289.383 216.791 289.879 215.981 289.411Z" fill="#D4ECFF"/>
<path d="M224.791 292.541C224.791 293.623 224.032 294.06 223.096 293.52C222.159 292.98 221.4 291.665 221.4 290.585C221.4 289.504 222.159 289.066 223.096 289.606C224.032 290.146 224.791 291.461 224.791 292.541Z" fill="#173D7A"/>
<path d="M230.771 295.994C230.771 297.076 230.013 297.513 229.076 296.973C228.139 296.433 227.381 295.118 227.381 294.038C227.381 292.958 228.139 292.519 229.076 293.059C230.013 293.599 230.771 294.912 230.771 295.994Z" fill="#173D7A"/>
<path d="M236.75 299.445C236.75 300.527 235.991 300.964 235.055 300.424C234.118 299.884 233.359 298.569 233.359 297.489C233.359 296.409 234.118 295.97 235.055 296.51C235.991 297.05 236.75 298.365 236.75 299.445Z" fill="#D4ECFF"/>
<path d="M242.726 302.898C242.726 303.979 241.968 304.417 241.031 303.877C240.094 303.337 239.336 302.022 239.336 300.942C239.336 299.86 240.094 299.423 241.031 299.963C241.968 300.503 242.726 301.816 242.726 302.898Z" fill="#173D7A"/>
<path d="M267.916 320.539L264.432 318.528C263.913 318.229 263.49 317.422 263.49 316.728V313.042C263.49 312.348 263.913 312.03 264.432 312.329L267.916 314.34C268.436 314.64 268.859 315.446 268.859 316.14V319.826C268.859 320.519 268.436 320.838 267.916 320.539Z" fill="#FFF4EE"/>
<path d="M272.94 356.039L199.428 313.597C197.783 312.648 196.449 310.098 196.449 307.906V293.889C196.449 291.694 197.783 290.687 199.428 291.637L272.94 334.079C274.586 335.029 275.919 337.578 275.919 339.771V353.788C275.919 355.981 274.586 356.989 272.94 356.039Z" fill="#5793CE"/>
<path opacity="0.4" d="M270.828 351.122L201.537 311.117C200.703 310.636 200.025 309.343 200.025 308.23V297.691C200.025 296.578 200.701 296.066 201.537 296.549L270.828 336.554C271.662 337.035 272.34 338.328 272.34 339.443V349.981C272.34 351.093 271.662 351.605 270.828 351.122Z" fill="#D4ECFF"/>
<path d="M215.981 314.128L205.641 308.158C204.831 307.689 204.174 306.435 204.174 305.353C204.174 304.271 204.831 303.776 205.641 304.244L215.981 310.215C216.791 310.683 217.449 311.937 217.449 313.019C217.449 314.101 216.791 314.597 215.981 314.128Z" fill="#D4ECFF"/>
<path d="M224.791 317.259C224.791 318.341 224.032 318.778 223.096 318.238C222.159 317.698 221.4 316.383 221.4 315.303C221.4 314.221 222.159 313.784 223.096 314.324C224.032 314.864 224.791 316.177 224.791 317.259Z" fill="#173D7A"/>
<path d="M230.771 320.712C230.771 321.794 230.013 322.231 229.076 321.691C228.139 321.151 227.381 319.836 227.381 318.756C227.381 317.676 228.139 317.237 229.076 317.777C230.013 318.317 230.771 319.632 230.771 320.712Z" fill="white"/>
<path d="M236.75 324.163C236.75 325.245 235.991 325.682 235.055 325.142C234.118 324.602 233.359 323.287 233.359 322.207C233.359 321.127 234.118 320.688 235.055 321.228C235.991 321.768 236.75 323.081 236.75 324.163Z" fill="#D4ECFF"/>
<path d="M242.726 327.614C242.726 328.695 241.968 329.132 241.031 328.592C240.094 328.052 239.336 326.737 239.336 325.658C239.336 324.576 240.094 324.139 241.031 324.679C241.968 325.219 242.726 326.534 242.726 327.614Z" fill="white"/>
<path d="M267.916 345.254L264.432 343.243C263.913 342.943 263.49 342.137 263.49 341.443V337.757C263.49 337.063 263.913 336.745 264.432 337.044L267.916 339.055C268.436 339.355 268.859 340.161 268.859 340.855V344.541C268.859 345.236 268.436 345.555 267.916 345.254Z" fill="#FFF4EE"/>
<path d="M272.938 380.757L199.426 338.315C197.781 337.365 196.447 334.816 196.447 332.623V318.606C196.447 316.412 197.781 315.405 199.426 316.355L272.938 358.797C274.584 359.746 275.917 362.296 275.917 364.488V378.505C275.917 380.698 274.584 381.708 272.938 380.757Z" fill="#5793CE"/>
<path opacity="0.4" d="M270.826 375.843L201.535 335.838C200.701 335.357 200.023 334.064 200.023 332.951V322.412C200.023 321.299 200.699 320.787 201.535 321.27L270.826 361.275C271.66 361.756 272.338 363.049 272.338 364.162V374.7C272.338 375.813 271.66 376.326 270.826 375.843Z" fill="#D4ECFF"/>
<path d="M215.979 338.847L205.639 332.876C204.829 332.408 204.172 331.154 204.172 330.072C204.172 328.99 204.829 328.494 205.639 328.963L215.979 334.933C216.789 335.402 217.447 336.656 217.447 337.738C217.447 338.818 216.789 339.316 215.979 338.847Z" fill="#D4ECFF"/>
<path d="M224.789 341.976C224.789 343.058 224.03 343.495 223.094 342.955C222.157 342.415 221.398 341.1 221.398 340.02C221.398 338.941 222.157 338.502 223.094 339.042C224.03 339.582 224.789 340.897 224.789 341.976Z" fill="#173D7A"/>
<path d="M230.769 345.43C230.769 346.511 230.011 346.948 229.074 346.409C228.137 345.869 227.379 344.554 227.379 343.474C227.379 342.394 228.137 341.955 229.074 342.495C230.011 343.035 230.769 344.35 230.769 345.43Z" fill="#173D7A"/>
<path d="M236.748 348.882C236.748 349.964 235.989 350.401 235.053 349.861C234.116 349.321 233.357 348.006 233.357 346.926C233.357 345.846 234.116 345.407 235.053 345.947C235.989 346.487 236.748 347.8 236.748 348.882Z" fill="#D4ECFF"/>
<path d="M242.724 352.333C242.724 353.415 241.966 353.852 241.029 353.312C240.093 352.772 239.334 351.457 239.334 350.377C239.334 349.296 240.093 348.858 241.029 349.398C241.966 349.938 242.724 351.253 242.724 352.333Z" fill="#173D7A"/>
<path d="M267.914 369.974L264.43 367.963C263.911 367.663 263.488 366.857 263.488 366.163V362.477C263.488 361.782 263.911 361.465 264.43 361.764L267.914 363.775C268.434 364.076 268.857 364.881 268.857 365.575V369.261C268.857 369.955 268.434 370.273 267.914 369.974Z" fill="#173D7A"/>
<path d="M272.938 405.476L199.426 363.033C197.781 362.084 196.447 359.535 196.447 357.342V343.325C196.447 341.132 197.781 340.124 199.426 341.073L272.938 383.515C274.584 384.465 275.917 387.014 275.917 389.207V403.224C275.917 405.417 274.584 406.425 272.938 405.476Z" fill="#5793CE"/>
<path opacity="0.4" d="M270.826 400.561L201.535 360.556C200.701 360.075 200.023 358.78 200.023 357.667V347.129C200.023 346.016 200.699 345.504 201.535 345.987L270.826 385.992C271.66 386.473 272.338 387.766 272.338 388.881V399.419C272.338 400.532 271.66 401.043 270.826 400.561Z" fill="#D4ECFF"/>
<path d="M215.979 363.565L205.639 357.594C204.829 357.126 204.172 355.871 204.172 354.79C204.172 353.708 204.829 353.212 205.639 353.68L215.979 359.651C216.789 360.119 217.447 361.376 217.447 362.456C217.447 363.537 216.789 364.033 215.979 363.565Z" fill="#D4ECFF"/>
<path d="M263.488 389.507C263.488 391.548 262.056 392.376 260.287 391.355C258.518 390.334 257.086 387.851 257.086 385.81C257.086 383.77 258.518 382.942 260.287 383.963C262.054 384.982 263.488 387.465 263.488 389.507Z" fill="white"/>
<path d="M224.789 367.004C224.789 368.086 224.03 368.523 223.094 367.983C222.157 367.443 221.398 366.128 221.398 365.048C221.398 363.968 222.157 363.529 223.094 364.069C224.03 364.609 224.789 365.924 224.789 367.004Z" fill="#173D7A"/>
<path d="M230.769 370.457C230.769 371.539 230.011 371.976 229.074 371.436C228.137 370.896 227.379 369.581 227.379 368.501C227.379 367.42 228.137 366.982 229.074 367.522C230.011 368.062 230.769 369.377 230.769 370.457Z" fill="#D4ECFF"/>
<path d="M236.748 373.91C236.748 374.992 235.989 375.429 235.053 374.889C234.116 374.349 233.357 373.034 233.357 371.954C233.357 370.874 234.116 370.435 235.053 370.975C235.989 371.513 236.748 372.828 236.748 373.91Z" fill="#173D7A"/>
<path d="M382.582 491.364L304.117 446.623C301.248 444.966 301.606 442.072 304.921 440.16L350.069 414.095C353.382 412.181 358.394 411.974 361.265 413.63L439.73 458.372C442.598 460.028 442.238 462.923 438.925 464.835L393.78 490.9C390.465 492.814 385.453 493.021 382.582 491.364Z" fill="#D4ECFF"/>
<path d="M446.725 443.31V260.13L373.902 241.07L360.49 233.325C357.411 231.547 352.034 231.771 348.48 233.823L335.965 241.048L297.125 241.026L308.626 417.86C308.538 419.063 309.21 420.224 310.688 421.078L383.361 475.913C386.439 477.691 391.816 477.467 395.37 475.415L443.801 447.453C445.851 446.27 446.839 444.737 446.725 443.31Z" fill="#396CAA"/>
<path d="M354.913 232.134C352.66 232.189 350.322 232.756 348.476 233.822L335.961 241.047L297.121 241.025V424.698C297.033 425.901 297.705 427.062 299.183 427.916L383.357 475.912C384.835 476.766 386.846 477.154 388.931 477.102L389.799 292.281L354.913 232.134Z" fill="#D4ECFF"/>
<path d="M384.129 476.293C386.785 477.43 390.625 477.367 393.729 476.183V290.1H384.129V476.293Z" fill="#5793CE"/>
<path d="M383.359 292.305L299.186 244.309C296.107 242.531 296.493 239.427 300.049 237.374L348.48 209.411C352.034 207.36 357.411 207.136 360.489 208.914L444.663 256.91C447.741 258.688 447.355 261.792 443.801 263.843L395.37 291.805C391.814 293.859 386.437 294.083 383.359 292.305Z" fill="#D4ECFF"/>
<path d="M443.799 260.439L395.368 288.401C391.814 290.453 386.436 290.677 383.358 288.899L299.185 240.903C298.498 240.506 297.995 240.041 297.65 239.54C296.592 241.241 297.071 243.088 299.185 244.308L383.358 292.304C386.436 294.082 391.814 293.858 395.368 291.806L443.799 263.844C446.561 262.25 447.4 260.022 446.197 258.272C445.714 259.048 444.914 259.796 443.799 260.439Z" fill="#FAFDFF"/>
<path d="M385.737 272.85L329.697 240.364C328.257 239.532 328.437 238.08 330.101 237.119L352.765 224.035C354.428 223.074 356.945 222.97 358.385 223.802L414.425 256.288C415.865 257.12 415.685 258.572 414.021 259.533L391.357 272.619C389.695 273.578 387.179 273.682 385.737 272.85Z" fill="#173D7A"/>
<path d="M355.485 241.824L352.238 239.949C352.039 239.833 352.063 239.633 352.293 239.499L355.428 237.688C355.658 237.556 356.007 237.541 356.205 237.655L359.452 239.53C359.65 239.646 359.626 239.846 359.397 239.978L356.262 241.789C356.032 241.925 355.683 241.94 355.485 241.824Z" fill="#D4ECFF"/>
<path d="M366.333 248.064L363.085 246.189C362.887 246.073 362.911 245.873 363.141 245.739L366.276 243.928C366.505 243.796 366.854 243.781 367.052 243.895L370.3 245.77C370.498 245.886 370.474 246.086 370.244 246.218L367.109 248.029C366.88 248.163 366.533 248.178 366.333 248.064Z" fill="#D4ECFF"/>
<path d="M377.182 254.3L373.935 252.424C373.737 252.309 373.761 252.109 373.99 251.976L377.125 250.165C377.355 250.033 377.704 250.018 377.902 250.132L381.149 252.007C381.349 252.123 381.324 252.323 381.094 252.456L377.959 254.267C377.73 254.401 377.382 254.415 377.182 254.3Z" fill="#D4ECFF"/>
<path d="M388.03 260.54L384.783 258.665C384.584 258.549 384.608 258.349 384.838 258.216L387.973 256.406C388.202 256.273 388.551 256.259 388.75 256.373L391.997 258.248C392.197 258.363 392.171 258.564 391.942 258.696L388.807 260.507C388.577 260.641 388.23 260.654 388.03 260.54Z" fill="#D4ECFF"/>
<path d="M329.697 240.366L329.763 240.405C329.871 240.326 329.974 240.245 330.101 240.173L352.765 227.089C354.428 226.129 356.945 226.024 358.385 226.856L414.359 259.304C415.687 258.352 415.756 257.059 414.425 256.29L358.385 223.804C356.945 222.972 354.428 223.076 352.765 224.037L330.101 237.121C328.437 238.082 328.257 239.534 329.697 240.366Z" fill="#5793CE"/>
<path d="M404.823 328.597L436.687 310.354C438.479 309.318 439.934 306.541 439.934 304.15V292.756C439.934 290.365 438.481 289.266 436.687 290.302L404.823 308.545C403.031 309.581 401.576 312.358 401.576 314.747V326.142C401.576 328.535 403.031 329.633 404.823 328.597Z" fill="#173D7A"/>
<path d="M438.261 289.958C438.763 290.43 439.077 291.236 439.077 292.329V303.723C439.077 306.115 437.622 308.892 435.83 309.927L403.966 328.17C403.391 328.503 402.859 328.593 402.389 328.514C402.984 329.074 403.847 329.16 404.82 328.598L436.684 310.355C438.476 309.319 439.931 306.543 439.931 304.151V292.757C439.931 291.133 439.253 290.127 438.261 289.958Z" fill="white"/>
<path d="M414.408 316.221L417.33 314.533C417.721 314.307 418.037 313.703 418.037 313.181V310.059C418.037 309.537 417.72 309.299 417.33 309.525L414.408 311.212C414.017 311.438 413.701 312.043 413.701 312.564V315.686C413.701 316.206 414.017 316.447 414.408 316.221Z" fill="#396CAA"/>
<path d="M424.18 310.576L427.102 308.889C427.493 308.663 427.809 308.058 427.809 307.537V304.415C427.809 303.893 427.493 303.654 427.102 303.88L424.18 305.568C423.789 305.794 423.473 306.398 423.473 306.92V310.042C423.473 310.564 423.79 310.802 424.18 310.576Z" fill="white"/>
<path d="M404.823 410.937L436.687 392.694C438.479 391.658 439.934 388.881 439.934 386.49V375.096C439.934 372.704 438.481 371.606 436.687 372.642L404.823 390.885C403.031 391.921 401.576 394.698 401.576 397.089V408.483C401.576 410.873 403.031 411.971 404.823 410.937Z" fill="#173D7A"/>
<path d="M438.261 372.297C438.763 372.769 439.077 373.575 439.077 374.668V386.062C439.077 388.454 437.622 391.23 435.83 392.266L403.966 410.509C403.391 410.842 402.859 410.932 402.389 410.853C402.984 411.415 403.847 411.499 404.82 410.937L436.684 392.694C438.476 391.658 439.931 388.881 439.931 386.49V375.096C439.931 373.472 439.253 372.466 438.261 372.297Z" fill="white"/>
<path d="M414.408 398.558L417.33 396.87C417.721 396.644 418.037 396.04 418.037 395.518V392.396C418.037 391.874 417.72 391.636 417.33 391.862L414.408 393.549C414.017 393.775 413.701 394.38 413.701 394.901V398.023C413.701 398.545 414.017 398.784 414.408 398.558Z" fill="#396CAA"/>
<path d="M424.18 392.915L427.102 391.227C427.493 391.002 427.809 390.397 427.809 389.876V386.753C427.809 386.232 427.493 385.993 427.102 386.219L424.18 387.907C423.789 388.133 423.473 388.737 423.473 389.259V392.381C423.473 392.901 423.79 393.141 424.18 392.915Z" fill="white"/>
<path d="M404.823 452.106L436.687 433.863C438.479 432.827 439.934 430.05 439.934 427.659V416.265C439.934 413.873 438.481 412.775 436.687 413.811L404.823 432.054C403.031 433.09 401.576 435.867 401.576 438.258V449.652C401.576 452.042 403.031 453.142 404.823 452.106Z" fill="#173D7A"/>
<path d="M438.261 413.467C438.763 413.939 439.077 414.745 439.077 415.838V427.232C439.077 429.623 437.622 432.4 435.83 433.436L403.966 451.679C403.391 452.012 402.859 452.102 402.389 452.023C402.984 452.585 403.847 452.669 404.82 452.107L436.684 433.864C438.476 432.828 439.931 430.051 439.931 427.66V416.266C439.931 414.64 439.253 413.634 438.261 413.467Z" fill="white"/>
<path d="M414.408 439.727L417.33 438.039C417.721 437.813 418.037 437.209 418.037 436.687V433.565C418.037 433.043 417.72 432.805 417.33 433.031L414.408 434.718C414.017 434.944 413.701 435.55 413.701 436.07V439.192C413.701 439.714 414.017 439.953 414.408 439.727Z" fill="#396CAA"/>
<path d="M424.18 434.084L427.102 432.396C427.493 432.17 427.809 431.566 427.809 431.045V427.922C427.809 427.401 427.493 427.162 427.102 427.388L424.18 429.076C423.789 429.302 423.473 429.908 423.473 430.428V433.55C423.473 434.07 423.79 434.31 424.18 434.084Z" fill="white"/>
<path d="M404.823 369.767L436.687 351.524C438.479 350.488 439.934 347.711 439.934 345.32V333.926C439.934 331.535 438.481 330.436 436.687 331.472L404.823 349.715C403.031 350.751 401.576 353.528 401.576 355.917V367.312C401.576 369.703 403.031 370.801 404.823 369.767Z" fill="#173D7A"/>
<path d="M438.261 331.127C438.763 331.599 439.077 332.405 439.077 333.498V344.892C439.077 347.284 437.622 350.061 435.83 351.096L403.966 369.339C403.391 369.672 402.859 369.762 402.389 369.683C402.984 370.243 403.847 370.329 404.82 369.767L436.684 351.524C438.476 350.488 439.931 347.712 439.931 345.32V333.926C439.931 332.302 439.253 331.296 438.261 331.127Z" fill="white"/>
<path d="M414.408 357.389L417.33 355.701C417.721 355.475 418.037 354.871 418.037 354.349V351.227C418.037 350.705 417.72 350.467 417.33 350.693L414.408 352.38C414.017 352.606 413.701 353.211 413.701 353.732V356.854C413.701 357.374 414.017 357.615 414.408 357.389Z" fill="#396CAA"/>
<path d="M424.18 351.746L427.102 350.058C427.493 349.833 427.809 349.226 427.809 348.707V345.584C427.809 345.063 427.493 344.824 427.102 345.05L424.18 346.738C423.789 346.964 423.473 347.568 423.473 348.09V351.212C423.473 351.732 423.79 351.97 424.18 351.746Z" fill="white"/>
<path d="M377.223 316.934L303.711 274.492C302.066 273.542 300.732 270.993 300.732 268.8V254.783C300.732 252.588 302.066 251.582 303.711 252.531L377.223 294.974C378.869 295.923 380.202 298.472 380.202 300.665V314.682C380.204 316.877 378.869 317.885 377.223 316.934Z" fill="#5793CE"/>
<path opacity="0.4" d="M375.111 312.019L305.82 272.014C304.986 271.533 304.309 270.24 304.309 269.127V258.589C304.309 257.476 304.984 256.964 305.82 257.447L375.111 297.452C375.945 297.933 376.623 299.226 376.623 300.339V310.877C376.623 311.99 375.947 312.502 375.111 312.019Z" fill="#D4ECFF"/>
<path d="M320.265 275.025L309.924 269.054C309.115 268.586 308.457 267.331 308.457 266.249C308.457 265.169 309.115 264.672 309.924 265.14L320.265 271.111C321.075 271.579 321.732 272.835 321.732 273.915C321.732 274.995 321.076 275.493 320.265 275.025Z" fill="#D4ECFF"/>
<path d="M329.074 278.155C329.074 279.237 328.315 279.674 327.379 279.134C326.442 278.594 325.684 277.279 325.684 276.199C325.684 275.119 326.442 274.68 327.379 275.22C328.315 275.758 329.074 277.073 329.074 278.155Z" fill="#173D7A"/>
<path d="M335.054 281.606C335.054 282.688 334.296 283.125 333.359 282.585C332.423 282.045 331.664 280.73 331.664 279.65C331.664 278.57 332.423 278.131 333.359 278.671C334.296 279.211 335.054 280.526 335.054 281.606Z" fill="#173D7A"/>
<path d="M341.033 285.059C341.033 286.138 340.274 286.577 339.338 286.037C338.401 285.497 337.643 284.182 337.643 283.103C337.643 282.023 338.401 281.584 339.338 282.124C340.274 282.664 341.033 283.977 341.033 285.059Z" fill="#D4ECFF"/>
<path d="M347.013 288.51C347.013 289.591 346.255 290.029 345.318 289.489C344.382 288.949 343.623 287.634 343.623 286.554C343.623 285.474 344.382 285.035 345.318 285.575C346.253 286.115 347.013 287.43 347.013 288.51Z" fill="#173D7A"/>
<path d="M372.202 306.151L368.718 304.14C368.198 303.839 367.775 303.035 367.775 302.34V298.654C367.775 297.96 368.198 297.642 368.718 297.942L372.202 299.953C372.721 300.254 373.144 301.058 373.144 301.753V305.439C373.144 306.133 372.721 306.453 372.202 306.151Z" fill="#173D7A"/>
<path d="M377.223 341.653L303.711 299.21C302.066 298.261 300.732 295.712 300.732 293.519V279.502C300.732 277.307 302.066 276.301 303.711 277.25L377.223 319.692C378.869 320.642 380.202 323.191 380.202 325.384V339.401C380.204 341.594 378.869 342.602 377.223 341.653Z" fill="#5793CE"/>
<path opacity="0.4" d="M375.111 336.738L305.82 296.733C304.986 296.252 304.309 294.959 304.309 293.846V283.308C304.309 282.195 304.984 281.682 305.82 282.165L375.111 322.17C375.945 322.651 376.623 323.944 376.623 325.057V335.596C376.623 336.709 375.947 337.219 375.111 336.738Z" fill="#D4ECFF"/>
<path d="M320.265 299.743L309.924 293.773C309.115 293.304 308.457 292.048 308.457 290.968C308.457 289.888 309.115 289.39 309.924 289.859L320.265 295.83C321.075 296.298 321.732 297.552 321.732 298.634C321.732 299.714 321.076 300.21 320.265 299.743Z" fill="#D4ECFF"/>
<path d="M329.074 302.872C329.074 303.954 328.315 304.391 327.379 303.851C326.442 303.311 325.684 301.996 325.684 300.916C325.684 299.836 326.442 299.397 327.379 299.937C328.315 300.477 329.074 301.792 329.074 302.872Z" fill="white"/>
<path d="M335.054 306.325C335.054 307.407 334.296 307.844 333.359 307.304C332.423 306.764 331.664 305.449 331.664 304.369C331.664 303.289 332.423 302.85 333.359 303.39C334.296 303.93 335.054 305.243 335.054 306.325Z" fill="#173D7A"/>
<path d="M341.033 309.776C341.033 310.856 340.274 311.295 339.338 310.755C338.401 310.215 337.643 308.9 337.643 307.82C337.643 306.74 338.401 306.301 339.338 306.841C340.274 307.381 341.033 308.696 341.033 309.776Z" fill="#D4ECFF"/>
<path d="M347.013 313.228C347.013 314.31 346.255 314.747 345.318 314.207C344.382 313.667 343.623 312.352 343.623 311.272C343.623 310.193 344.382 309.754 345.318 310.294C346.253 310.833 347.013 312.147 347.013 313.228Z" fill="#173D7A"/>
<path d="M372.202 330.87L368.718 328.859C368.198 328.56 367.775 327.753 367.775 327.059V323.373C367.775 322.679 368.198 322.361 368.718 322.66L372.202 324.672C372.721 324.973 373.144 325.777 373.144 326.471V330.158C373.144 330.852 372.721 331.169 372.202 330.87Z" fill="#173D7A"/>
<path d="M377.223 366.372L303.711 323.93C302.066 322.98 300.732 320.431 300.732 318.238V304.221C300.732 302.028 302.066 301.02 303.711 301.97L377.223 344.412C378.869 345.361 380.202 347.91 380.202 350.103V364.12C380.204 366.313 378.869 367.322 377.223 366.372Z" fill="#5793CE"/>
<path opacity="0.4" d="M375.111 361.458L305.82 321.453C304.986 320.972 304.309 319.679 304.309 318.566V308.027C304.309 306.914 304.984 306.402 305.82 306.885L375.111 346.89C375.945 347.371 376.623 348.664 376.623 349.777V360.316C376.623 361.429 375.947 361.939 375.111 361.458Z" fill="#D4ECFF"/>
<path d="M320.265 324.461L309.924 318.49C309.115 318.022 308.457 316.768 308.457 315.686C308.457 314.606 309.115 314.108 309.924 314.577L320.265 320.547C321.075 321.016 321.732 322.272 321.732 323.352C321.732 324.434 321.076 324.93 320.265 324.461Z" fill="#D4ECFF"/>
<path d="M329.074 327.592C329.074 328.673 328.315 329.111 327.379 328.571C326.442 328.031 325.684 326.716 325.684 325.636C325.684 324.556 326.442 324.117 327.379 324.657C328.315 325.197 329.074 326.51 329.074 327.592Z" fill="white"/>
<path d="M335.054 331.045C335.054 332.127 334.296 332.564 333.359 332.024C332.423 331.484 331.664 330.169 331.664 329.089C331.664 328.009 332.423 327.57 333.359 328.11C334.296 328.65 335.054 329.965 335.054 331.045Z" fill="#173D7A"/>
<path d="M341.033 334.496C341.033 335.576 340.274 336.015 339.338 335.475C338.401 334.935 337.643 333.62 337.643 332.54C337.643 331.46 338.401 331.021 339.338 331.561C340.274 332.101 341.033 333.416 341.033 334.496Z" fill="#D4ECFF"/>
<path d="M347.013 337.948C347.013 339.03 346.255 339.467 345.318 338.927C344.382 338.387 343.623 337.072 343.623 335.992C343.623 334.912 344.382 334.473 345.318 335.013C346.253 335.553 347.013 336.866 347.013 337.948Z" fill="#173D7A"/>
<path d="M372.202 355.589L368.718 353.578C368.198 353.278 367.775 352.472 367.775 351.778V348.092C367.775 347.398 368.198 347.08 368.718 347.379L372.202 349.39C372.721 349.691 373.144 350.496 373.144 351.19V354.876C373.144 355.57 372.721 355.89 372.202 355.589Z" fill="#173D7A"/>
<path d="M377.223 391.089L303.711 348.647C302.066 347.697 300.732 345.148 300.732 342.955V328.938C300.732 326.744 302.066 325.737 303.711 326.687L377.223 369.129C378.869 370.078 380.202 372.628 380.202 374.82V388.837C380.204 391.032 378.869 392.04 377.223 391.089Z" fill="#5793CE"/>
<path opacity="0.4" d="M375.111 386.175L305.82 346.17C304.986 345.689 304.309 344.396 304.309 343.283V332.744C304.309 331.631 304.984 331.119 305.82 331.602L375.111 371.607C375.945 372.088 376.623 373.381 376.623 374.496V385.034C376.623 386.145 375.947 386.658 375.111 386.175Z" fill="#D4ECFF"/>
<path d="M320.265 349.18L309.924 343.209C309.115 342.741 308.457 341.486 308.457 340.405C308.457 339.325 309.115 338.827 309.924 339.295L320.265 345.266C321.075 345.734 321.732 346.989 321.732 348.071C321.732 349.151 321.076 349.648 320.265 349.18Z" fill="#D4ECFF"/>
<path d="M329.074 352.31C329.074 353.392 328.315 353.829 327.379 353.289C326.442 352.749 325.684 351.434 325.684 350.354C325.684 349.275 326.442 348.836 327.379 349.376C328.315 349.916 329.074 351.229 329.074 352.31Z" fill="#173D7A"/>
<path d="M335.054 355.762C335.054 356.843 334.296 357.28 333.359 356.741C332.423 356.201 331.664 354.886 331.664 353.806C331.664 352.726 332.423 352.287 333.359 352.827C334.296 353.367 335.054 354.682 335.054 355.762Z" fill="#173D7A"/>
<path d="M341.033 359.214C341.033 360.294 340.274 360.733 339.338 360.193C338.401 359.653 337.643 358.338 337.643 357.258C337.643 356.178 338.401 355.739 339.338 356.279C340.274 356.819 341.033 358.132 341.033 359.214Z" fill="#D4ECFF"/>
<path d="M347.013 362.665C347.013 363.747 346.255 364.184 345.318 363.644C344.382 363.104 343.623 361.789 343.623 360.709C343.623 359.629 344.382 359.19 345.318 359.73C346.253 360.27 347.013 361.585 347.013 362.665Z" fill="#173D7A"/>
<path d="M372.202 380.307L368.718 378.296C368.198 377.996 367.775 377.19 367.775 376.496V372.81C367.775 372.115 368.198 371.798 368.718 372.097L372.202 374.108C372.721 374.409 373.144 375.214 373.144 375.908V379.594C373.144 380.288 372.721 380.608 372.202 380.307Z" fill="#F5EAD4"/>
<path d="M377.223 415.807L303.711 373.365C302.066 372.415 300.732 369.866 300.732 367.673V353.656C300.732 351.461 302.066 350.455 303.711 351.404L377.223 393.847C378.869 394.796 380.202 397.345 380.202 399.538V413.555C380.204 415.748 378.869 416.756 377.223 415.807Z" fill="#5793CE"/>
<path opacity="0.4" d="M375.111 410.893L305.82 370.888C304.986 370.406 304.309 369.113 304.309 368V357.462C304.309 356.349 304.984 355.837 305.82 356.32L375.111 396.325C375.945 396.806 376.623 398.099 376.623 399.212V409.75C376.623 410.863 375.947 411.374 375.111 410.893Z" fill="#D4ECFF"/>
<path d="M320.265 373.898L309.924 367.927C309.115 367.459 308.457 366.203 308.457 365.123C308.457 364.041 309.115 363.545 309.924 364.013L320.265 369.984C321.075 370.453 321.732 371.707 321.732 372.789C321.732 373.869 321.076 374.366 320.265 373.898Z" fill="#D4ECFF"/>
<path d="M329.074 377.027C329.074 378.108 328.315 378.545 327.379 378.006C326.442 377.466 325.684 376.151 325.684 375.071C325.684 373.989 326.442 373.552 327.379 374.092C328.315 374.632 329.074 375.947 329.074 377.027Z" fill="#173D7A"/>
<path d="M335.054 380.479C335.054 381.561 334.296 381.998 333.359 381.458C332.423 380.918 331.664 379.603 331.664 378.523C331.664 377.444 332.423 377.005 333.359 377.545C334.296 378.084 335.054 379.398 335.054 380.479Z" fill="white"/>
<path d="M341.033 383.931C341.033 385.011 340.274 385.449 339.338 384.909C338.401 384.37 337.643 383.055 337.643 381.975C337.643 380.895 338.401 380.456 339.338 380.996C340.274 381.536 341.033 382.851 341.033 383.931Z" fill="#D4ECFF"/>
<path d="M347.013 387.383C347.013 388.464 346.255 388.902 345.318 388.362C344.382 387.822 343.623 386.507 343.623 385.427C343.623 384.347 344.382 383.908 345.318 384.448C346.253 384.988 347.013 386.301 347.013 387.383Z" fill="white"/>
<path d="M372.202 405.024L368.718 403.013C368.198 402.712 367.775 401.908 367.775 401.213V397.527C367.775 396.833 368.198 396.515 368.718 396.815L372.202 398.826C372.721 399.127 373.144 399.931 373.144 400.626V404.312C373.144 405.006 372.721 405.324 372.202 405.024Z" fill="#F5EAD4"/>
<path d="M377.223 440.525L303.711 398.083C302.066 397.134 300.732 394.584 300.732 392.392V378.375C300.732 376.182 302.066 375.173 303.711 376.123L377.223 418.565C378.869 419.515 380.202 422.064 380.202 424.257V438.274C380.204 440.467 378.869 441.475 377.223 440.525Z" fill="#5793CE"/>
<path opacity="0.4" d="M375.111 435.611L305.82 395.606C304.986 395.125 304.309 393.832 304.309 392.719V382.181C304.309 381.068 304.984 380.555 305.82 381.038L375.111 421.043C375.945 421.524 376.623 422.817 376.623 423.93V434.469C376.623 435.582 375.947 436.092 375.111 435.611Z" fill="#D4ECFF"/>
<path d="M320.265 398.615L309.924 392.644C309.115 392.176 308.457 390.921 308.457 389.839C308.457 388.758 309.115 388.262 309.924 388.73L320.265 394.701C321.075 395.169 321.732 396.426 321.732 397.505C321.732 398.587 321.076 399.083 320.265 398.615Z" fill="#D4ECFF"/>
<path d="M329.074 401.745C329.074 402.827 328.315 403.264 327.379 402.724C326.442 402.184 325.684 400.869 325.684 399.789C325.684 398.708 326.442 398.27 327.379 398.81C328.315 399.35 329.074 400.665 329.074 401.745Z" fill="#173D7A"/>
<path d="M335.054 405.198C335.054 406.28 334.296 406.717 333.359 406.177C332.423 405.637 331.664 404.322 331.664 403.242C331.664 402.162 332.423 401.723 333.359 402.263C334.296 402.803 335.054 404.116 335.054 405.198Z" fill="#173D7A"/>
<path d="M341.033 408.649C341.033 409.731 340.274 410.168 339.338 409.628C338.401 409.088 337.643 407.773 337.643 406.693C337.643 405.613 338.401 405.174 339.338 405.714C340.274 406.254 341.033 407.569 341.033 408.649Z" fill="#D4ECFF"/>
<path d="M347.013 412.102C347.013 413.183 346.255 413.62 345.318 413.08C344.382 412.54 343.623 411.225 343.623 410.146C343.623 409.066 344.382 408.627 345.318 409.167C346.253 409.707 347.013 411.02 347.013 412.102Z" fill="#173D7A"/>
<path d="M372.202 429.743L368.718 427.732C368.198 427.433 367.775 426.626 367.775 425.932V422.246C367.775 421.552 368.198 421.234 368.718 421.534L372.202 423.545C372.721 423.846 373.144 424.65 373.144 425.345V429.031C373.144 429.723 372.721 430.043 372.202 429.743Z" fill="#173D7A"/>
<path d="M377.223 465.243L303.711 422.801C302.066 421.851 300.732 419.302 300.732 417.109V403.092C300.732 400.899 302.066 399.891 303.711 400.841L377.223 443.283C378.869 444.232 380.202 446.782 380.202 448.975V462.991C380.204 465.184 378.869 466.193 377.223 465.243Z" fill="#5793CE"/>
<path opacity="0.4" d="M375.111 460.327L305.82 420.322C304.986 419.841 304.309 418.548 304.309 417.435V406.897C304.309 405.784 304.984 405.271 305.82 405.754L375.111 445.759C375.945 446.24 376.623 447.533 376.623 448.648V459.187C376.623 460.298 375.947 460.81 375.111 460.327Z" fill="#D4ECFF"/>
<path d="M320.265 423.333L309.924 417.362C309.115 416.893 308.457 415.639 308.457 414.557C308.457 413.475 309.115 412.98 309.924 413.448L320.265 419.419C321.075 419.887 321.732 421.143 321.732 422.223C321.732 423.303 321.076 423.801 320.265 423.333Z" fill="#D4ECFF"/>
<path d="M330.007 429.907C331.257 429.186 331.257 426.845 330.007 424.68C328.757 422.515 326.73 421.345 325.48 422.066C324.23 422.788 324.23 425.128 325.48 427.294C326.731 429.459 328.757 430.629 330.007 429.907Z" fill="white"/>
<path d="M343.345 435.047C343.345 436.129 342.587 436.566 341.65 436.026C340.714 435.486 339.955 434.171 339.955 433.091C339.955 432.009 340.714 431.572 341.65 432.112C342.587 432.652 343.345 433.965 343.345 435.047Z" fill="#173D7A"/>
<path d="M349.328 438.499C349.328 439.581 348.569 440.018 347.633 439.478C346.696 438.938 345.938 437.623 345.938 436.543C345.938 435.463 346.696 435.024 347.633 435.564C348.568 436.104 349.328 437.419 349.328 438.499Z" fill="#D4ECFF"/>
<path d="M355.308 441.951C355.308 443.033 354.55 443.47 353.613 442.93C352.676 442.39 351.918 441.075 351.918 439.995C351.918 438.915 352.676 438.476 353.613 439.016C354.55 439.556 355.308 440.871 355.308 441.951Z" fill="#173D7A"/>
<path d="M372.202 454.46L368.718 452.449C368.198 452.148 367.775 451.343 367.775 450.649V446.963C367.775 446.269 368.198 445.951 368.718 446.25L372.202 448.261C372.721 448.563 373.144 449.367 373.144 450.061V453.747C373.144 454.442 372.721 454.761 372.202 454.46Z" fill="#D4ECFF"/>
<path d="M254.952 445.129C254.583 445.129 254.223 444.938 254.024 444.595C253.729 444.084 253.905 443.43 254.416 443.135L268.916 434.751C270.561 433.797 271.582 432.029 271.582 430.128V422.453C271.582 421.863 272.062 421.384 272.651 421.384C273.241 421.384 273.72 421.863 273.72 422.453V430.128C273.72 432.787 272.289 435.269 269.984 436.6L255.484 444.984C255.315 445.083 255.134 445.129 254.952 445.129Z" fill="#5793CE"/>
<path d="M258.592 446.986L254.201 439.329L237.678 448.803L242.068 456.46L258.592 446.986Z" fill="#B2B6C6"/>
<path d="M259.548 444.99C259.554 442.999 258.163 440.574 256.444 439.575C254.723 438.574 253.324 439.377 253.318 441.368C253.313 443.359 254.703 445.783 256.424 446.782C258.143 447.781 259.543 446.979 259.548 444.99Z" fill="#B2B6C6"/>
<path d="M246.322 457.184L239.207 444.775L213.291 459.635L220.406 472.043L246.322 457.184Z" fill="#B2B6C6"/>
<path d="M240.434 447.266L246.026 444.06C248.34 445.718 250.155 448.881 250.417 451.716L244.825 454.923C242.511 453.265 240.696 450.102 240.434 447.266Z" fill="#081348"/>
<path d="M247.85 453.933C247.859 450.708 245.607 446.78 242.819 445.16C240.031 443.54 237.763 444.84 237.754 448.065C237.745 451.29 239.996 455.219 242.786 456.839C245.572 458.459 247.841 457.158 247.85 453.933Z" fill="#B2B6C6"/>
<path d="M254.339 442.944C255.149 442.48 255.151 441.723 254.345 441.253C253.539 440.785 252.227 440.779 251.417 441.244C250.607 441.708 250.606 442.465 251.412 442.935C252.218 443.405 253.53 443.409 254.339 442.944Z" fill="#D4ECFF"/>
<path d="M185.927 620.99L3.48438 515.657C-1.67647 512.678 -1.03001 507.473 4.92976 504.032L129.159 432.33C135.119 428.89 144.133 428.516 149.296 431.497L331.738 536.83C336.899 539.809 336.253 545.014 330.293 548.455L206.063 620.155C200.102 623.596 191.088 623.969 185.927 620.99Z" fill="#D4ECFF"/>
<path d="M335.217 517.161L310.278 513.868L149.294 420.923C144.133 417.944 135.117 418.316 129.159 421.756L15.0862 487.591L0.00585938 485.6V494.157L0.0205441 494.159C-0.0786323 496.137 1.04722 498.038 3.48255 499.445L185.925 604.778C191.086 607.757 200.102 607.384 206.061 603.944L330.291 532.243C333.643 530.307 335.314 527.813 335.217 525.471V517.161Z" fill="#173D7A"/>
<path d="M214.258 458.432L202.822 451.829H77.077L15.0862 487.595L0.00585938 485.604V494.161L0.0205441 494.163C-0.0786323 496.141 1.04722 498.042 3.48255 499.449L185.925 604.782C188.652 606.356 192.456 606.986 196.316 606.729L214.258 458.432Z" fill="#396CAA"/>
<path d="M6.69846 486.485L0.00585938 485.602V494.158L0.0205441 494.16C-0.0786323 496.138 1.04722 498.039 3.48255 499.446L6.69661 501.303V486.485H6.69846Z" fill="#5793CE"/>
<path d="M187.764 605.634C192.656 607.489 199.65 607.085 204.872 604.572V585.488H187.764V605.634Z" fill="#274F89"/>
<path d="M185.927 596.235L3.48438 490.901C-1.67647 487.923 -1.03001 482.718 4.92976 479.276L129.159 407.576C135.119 404.137 144.133 403.762 149.296 406.743L331.738 512.076C336.899 515.055 336.253 520.26 330.293 523.701L206.063 595.403C200.102 598.841 191.088 599.214 185.927 596.235Z" fill="#D4ECFF"/>
<path d="M330.288 520.575L206.059 592.274C200.099 595.714 191.085 596.088 185.922 593.109L3.47959 487.776C1.78808 486.799 0.732017 485.582 0.271031 484.267C-0.537074 486.707 0.493276 489.176 3.47959 490.902L185.922 596.235C191.083 599.216 200.099 598.842 206.059 595.402L330.288 523.7C334.294 521.388 335.888 518.281 334.942 515.584C334.354 517.362 332.799 519.125 330.288 520.575Z" fill="white"/>
<path d="M81.0803 456.033L72.8248 451.267C72.1617 450.885 72.2444 450.216 73.0102 449.774L82.7534 444.148C83.5192 443.705 84.6763 443.658 85.3393 444.042L93.5949 448.808C94.2579 449.19 94.1752 449.858 93.4093 450.301L83.6662 455.926C82.9003 456.367 81.7433 456.415 81.0803 456.033Z" fill="#173D7A"/>
<path d="M93.8283 463.39L85.5728 458.624C84.9098 458.242 84.9924 457.574 85.7583 457.131L95.5015 451.506C96.2673 451.063 97.4244 451.015 98.0874 451.399L106.343 456.165C107.006 456.547 106.923 457.216 106.157 457.658L96.4143 463.284C95.6484 463.724 94.4913 463.772 93.8283 463.39Z" fill="#173D7A"/>
<path d="M106.576 470.75L98.3208 465.984C97.6578 465.602 97.7405 464.933 98.5063 464.49L108.25 458.865C109.015 458.422 110.172 458.375 110.835 458.758L119.091 463.524C119.754 463.906 119.671 464.575 118.905 465.018L109.162 470.643C108.396 471.086 107.239 471.133 106.576 470.75Z" fill="#173D7A"/>
<path d="M124.209 464.671L115.954 459.905C115.291 459.523 115.373 458.855 116.139 458.412L124.318 453.69C125.083 453.247 126.24 453.2 126.903 453.584L135.159 458.35C135.822 458.732 135.739 459.4 134.973 459.843L126.795 464.565C126.029 465.005 124.872 465.053 124.209 464.671Z" fill="#173D7A"/>
<path d="M136.957 472.032L128.702 467.266C128.039 466.884 128.121 466.215 128.887 465.772L137.066 461.05C137.831 460.608 138.988 460.56 139.651 460.944L147.907 465.71C148.57 466.092 148.487 466.76 147.722 467.203L139.543 471.925C138.777 472.368 137.62 472.415 136.957 472.032Z" fill="#173D7A"/>
<path d="M149.703 479.393L141.448 474.627C140.785 474.245 140.867 473.576 141.633 473.134L149.812 468.412C150.578 467.969 151.735 467.921 152.398 468.305L160.653 473.071C161.316 473.453 161.234 474.122 160.468 474.564L152.289 479.286C151.523 479.727 150.366 479.775 149.703 479.393Z" fill="#173D7A"/>
<path d="M162.451 486.752L154.196 481.986C153.533 481.604 153.615 480.936 154.381 480.493L162.56 475.771C163.326 475.329 164.483 475.281 165.146 475.665L173.401 480.431C174.064 480.813 173.982 481.481 173.216 481.924L165.037 486.646C164.271 487.087 163.114 487.134 162.451 486.752Z" fill="#173D7A"/>
<path d="M175.199 494.112L166.944 489.346C166.281 488.964 166.364 488.295 167.129 487.852L175.308 483.131C176.074 482.688 177.231 482.64 177.894 483.024L186.149 487.79C186.812 488.172 186.73 488.841 185.964 489.283L177.785 494.005C177.019 494.446 175.862 494.494 175.199 494.112Z" fill="#173D7A"/>
<path d="M187.947 501.472L179.692 496.706C179.029 496.324 179.112 495.655 179.877 495.213L188.056 490.491C188.822 490.048 189.979 490.001 190.642 490.384L198.897 495.15C199.56 495.532 199.478 496.201 198.712 496.644L190.533 501.365C189.768 501.806 188.61 501.854 187.947 501.472Z" fill="#173D7A"/>
<path d="M200.695 508.83L192.44 504.064C191.777 503.682 191.86 503.014 192.625 502.571L200.804 497.849C201.57 497.407 202.727 497.359 203.39 497.743L211.645 502.509C212.308 502.891 212.226 503.559 211.46 504.002L203.281 508.724C202.516 509.165 201.358 509.214 200.695 508.83Z" fill="#173D7A"/>
<path d="M213.44 516.192L205.184 511.426C204.521 511.044 204.604 510.375 205.37 509.933L213.548 505.211C214.314 504.768 215.471 504.72 216.134 505.104L224.389 509.87C225.052 510.252 224.97 510.921 224.204 511.363L216.026 516.085C215.26 516.526 214.103 516.574 213.44 516.192Z" fill="#173D7A"/>
<path d="M226.19 523.552L217.934 518.786C217.271 518.404 217.354 517.735 218.12 517.293L226.298 512.571C227.064 512.128 228.221 512.081 228.884 512.464L237.139 517.23C237.802 517.612 237.72 518.281 236.954 518.724L228.776 523.446C228.01 523.886 226.853 523.934 226.19 523.552Z" fill="#173D7A"/>
<path d="M238.938 530.911L230.682 526.145C230.019 525.763 230.102 525.095 230.868 524.652L239.046 519.93C239.812 519.488 240.969 519.44 241.632 519.824L249.887 524.59C250.551 524.972 250.468 525.64 249.702 526.083L241.524 530.805C240.758 531.247 239.601 531.295 238.938 530.911Z" fill="#173D7A"/>
<path d="M142.99 461.188L134.735 456.422C134.072 456.04 134.155 455.371 134.92 454.929L143.099 450.207C143.865 449.764 145.022 449.716 145.685 450.1L153.94 454.866C154.603 455.248 154.521 455.917 153.755 456.359L145.576 461.081C144.811 461.522 143.653 461.57 142.99 461.188Z" fill="#396CAA"/>
<path d="M130.051 453.719L121.795 448.953C121.132 448.571 121.215 447.903 121.981 447.46L130.159 442.738C130.925 442.295 132.082 442.248 132.745 442.631L141.001 447.397C141.664 447.779 141.581 448.448 140.815 448.891L132.637 453.612C131.873 454.053 130.714 454.101 130.051 453.719Z" fill="#396CAA"/>
<path d="M117.095 446.235L99.3169 435.971C98.6539 435.589 98.7365 434.92 99.5024 434.477L107.681 429.756C108.447 429.313 109.604 429.265 110.267 429.649L128.045 439.914C128.708 440.296 128.625 440.964 127.86 441.407L119.681 446.129C118.917 446.57 117.758 446.617 117.095 446.235Z" fill="#173D7A"/>
<path d="M126.152 437.136L111.723 428.806C111.06 428.424 111.143 427.755 111.909 427.312L120.087 422.59C120.853 422.148 122.01 422.1 122.673 422.484L137.101 430.813C137.764 431.195 137.682 431.864 136.916 432.306L128.737 437.028C127.972 437.472 126.813 437.52 126.152 437.136Z" fill="#173D7A"/>
<path d="M155.738 468.547L147.483 463.781C146.82 463.399 146.903 462.731 147.668 462.288L155.847 457.566C156.613 457.123 157.77 457.076 158.433 457.46L166.688 462.226C167.351 462.608 167.269 463.276 166.503 463.719L158.324 468.441C157.559 468.881 156.401 468.929 155.738 468.547Z" fill="#396CAA"/>
<path d="M168.487 475.908L160.231 471.142C159.568 470.76 159.651 470.092 160.416 469.649L168.595 464.927C169.361 464.485 170.518 464.437 171.181 464.821L179.436 469.587C180.099 469.969 180.017 470.637 179.251 471.08L171.072 475.802C170.307 476.243 169.15 476.29 168.487 475.908Z" fill="#173D7A"/>
<path d="M181.233 483.267L172.977 478.501C172.314 478.119 172.397 477.45 173.163 477.008L181.341 472.286C182.107 471.843 183.264 471.795 183.927 472.179L192.182 476.945C192.845 477.327 192.763 477.996 191.997 478.438L183.819 483.16C183.053 483.601 181.896 483.649 181.233 483.267Z" fill="#173D7A"/>
<path d="M193.981 490.625L185.725 485.859C185.062 485.477 185.145 484.809 185.911 484.366L194.089 479.644C194.855 479.202 196.012 479.154 196.675 479.538L204.93 484.304C205.593 484.686 205.511 485.354 204.745 485.797L196.567 490.519C195.801 490.961 194.644 491.009 193.981 490.625Z" fill="#173D7A"/>
<path d="M206.731 497.99L198.475 493.224C197.812 492.842 197.895 492.173 198.661 491.73L206.839 487.008C207.605 486.566 208.762 486.518 209.425 486.902L217.68 491.668C218.343 492.05 218.261 492.719 217.495 493.161L209.317 497.883C208.551 498.324 207.394 498.372 206.731 497.99Z" fill="#173D7A"/>
<path d="M219.477 505.347L211.221 500.581C210.558 500.199 210.641 499.531 211.407 499.088L219.585 494.366C220.351 493.925 221.508 493.876 222.171 494.26L230.427 499.026C231.09 499.408 231.007 500.076 230.241 500.519L222.063 505.241C221.297 505.682 220.14 505.729 219.477 505.347Z" fill="#173D7A"/>
<path d="M232.225 512.706L223.969 507.94C223.306 507.558 223.389 506.89 224.155 506.447L232.333 501.725C233.099 501.283 234.256 501.235 234.919 501.619L243.175 506.385C243.838 506.767 243.755 507.435 242.989 507.878L234.811 512.6C234.045 513.042 232.888 513.09 232.225 512.706Z" fill="#173D7A"/>
<path d="M244.971 520.068L236.715 515.302C236.052 514.92 236.135 514.251 236.901 513.808L245.079 509.087C245.845 508.644 247.002 508.596 247.665 508.98L255.921 513.746C256.584 514.128 256.501 514.797 255.735 515.239L247.557 519.961C246.791 520.402 245.634 520.45 244.971 520.068Z" fill="#173D7A"/>
<path d="M257.719 527.426L249.463 522.66C248.8 522.278 248.883 521.61 249.649 521.167L257.827 516.445C258.593 516.002 259.75 515.955 260.413 516.338L268.669 521.104C269.332 521.486 269.249 522.155 268.483 522.598L260.305 527.32C259.539 527.76 258.382 527.81 257.719 527.426Z" fill="#173D7A"/>
<path d="M280.383 540.513L262.372 530.114C261.709 529.732 261.791 529.064 262.557 528.621L270.735 523.899C271.501 523.456 272.658 523.409 273.321 523.793L291.333 534.191C291.996 534.573 291.913 535.242 291.147 535.685L282.969 540.407C282.203 540.847 281.046 540.895 280.383 540.513Z" fill="#173D7A"/>
<path d="M305.2 526.183L289.999 517.406C289.336 517.024 289.418 516.356 290.184 515.913L298.362 511.191C299.128 510.748 300.285 510.701 300.948 511.085L316.15 519.862C316.813 520.244 316.73 520.912 315.964 521.355L307.786 526.077C307.02 526.518 305.863 526.565 305.2 526.183Z" fill="#173D7A"/>
<path d="M178.061 467.108L169.805 462.342C169.142 461.96 169.225 461.291 169.991 460.849L178.169 456.127C178.935 455.684 180.092 455.636 180.755 456.02L189.011 460.786C189.674 461.168 189.591 461.837 188.825 462.279L180.647 467.001C179.883 467.442 178.724 467.49 178.061 467.108Z" fill="#173D7A"/>
<path d="M164.998 459.565L156.743 454.799C156.08 454.417 156.162 453.748 156.928 453.306L165.107 448.584C165.872 448.141 167.03 448.093 167.693 448.477L175.948 453.243C176.611 453.625 176.528 454.294 175.763 454.736L167.584 459.458C166.818 459.899 165.659 459.947 164.998 459.565Z" fill="#173D7A"/>
<path d="M151.934 452.021L143.678 447.255C143.015 446.873 143.098 446.204 143.864 445.762L152.042 441.04C152.808 440.597 153.965 440.549 154.628 440.933L162.884 445.699C163.547 446.081 163.464 446.75 162.698 447.192L154.52 451.914C153.754 452.355 152.597 452.403 151.934 452.021Z" fill="#396CAA"/>
<path d="M138.867 444.477L130.612 439.711C129.949 439.329 130.032 438.66 130.797 438.218L138.976 433.496C139.742 433.053 140.899 433.005 141.562 433.389L149.817 438.155C150.48 438.537 150.398 439.206 149.632 439.648L141.453 444.37C140.689 444.811 139.53 444.859 138.867 444.477Z" fill="#173D7A"/>
<path d="M190.809 474.465L182.553 469.699C181.89 469.317 181.973 468.649 182.739 468.206L190.917 463.484C191.683 463.041 192.84 462.994 193.503 463.378L201.759 468.144C202.422 468.526 202.339 469.194 201.573 469.637L193.395 474.359C192.629 474.801 191.472 474.849 190.809 474.465Z" fill="#173D7A"/>
<path d="M203.557 481.827L195.301 477.061C194.638 476.679 194.721 476.011 195.487 475.568L203.665 470.846C204.431 470.404 205.588 470.356 206.251 470.74L214.507 475.506C215.17 475.888 215.087 476.556 214.321 476.999L206.143 481.721C205.379 482.162 204.22 482.209 203.557 481.827Z" fill="#173D7A"/>
<path d="M216.307 489.187L208.051 484.421C207.388 484.039 207.471 483.37 208.237 482.928L216.415 478.206C217.181 477.763 218.338 477.715 219.001 478.099L227.257 482.865C227.92 483.247 227.837 483.916 227.071 484.358L218.893 489.08C218.129 489.521 216.97 489.571 216.307 489.187Z" fill="#173D7A"/>
<path d="M229.053 496.548L220.797 491.782C220.134 491.4 220.217 490.732 220.983 490.289L229.161 485.567C229.927 485.124 231.084 485.077 231.747 485.461L240.003 490.227C240.666 490.609 240.583 491.277 239.817 491.72L231.639 496.442C230.873 496.882 229.716 496.93 229.053 496.548Z" fill="#173D7A"/>
<path d="M241.799 503.907L233.543 499.141C232.88 498.759 232.963 498.09 233.729 497.647L241.907 492.925C242.673 492.483 243.83 492.435 244.493 492.819L252.749 497.585C253.412 497.967 253.329 498.635 252.563 499.078L244.385 503.8C243.621 504.241 242.462 504.289 241.799 503.907Z" fill="#173D7A"/>
<path d="M254.551 511.267L246.295 506.501C245.632 506.119 245.715 505.45 246.481 505.008L254.659 500.286C255.425 499.843 256.582 499.795 257.245 500.179L265.501 504.945C266.164 505.327 266.081 505.996 265.315 506.438L257.137 511.16C256.373 511.603 255.214 511.651 254.551 511.267Z" fill="#173D7A"/>
<path d="M267.297 518.626L259.042 513.86C258.379 513.478 258.461 512.81 259.227 512.367L267.405 507.645C268.171 507.203 269.328 507.155 269.991 507.539L278.247 512.305C278.91 512.687 278.827 513.355 278.061 513.798L269.883 518.52C269.117 518.961 267.96 519.008 267.297 518.626Z" fill="#173D7A"/>
<path d="M280.043 525.987L271.788 521.221C271.125 520.839 271.207 520.17 271.973 519.728L280.152 515.006C280.917 514.565 282.074 514.516 282.737 514.899L290.993 519.665C291.656 520.047 291.573 520.716 290.807 521.159L282.629 525.88C281.863 526.321 280.706 526.369 280.043 525.987Z" fill="#173D7A"/>
<path d="M292.791 533.349L284.536 528.583C283.873 528.201 283.955 527.532 284.721 527.09L292.9 522.368C293.665 521.925 294.822 521.877 295.485 522.261L303.741 527.027C304.404 527.409 304.321 528.078 303.555 528.52L295.377 533.242C294.613 533.683 293.454 533.731 292.791 533.349Z" fill="#173D7A"/>
<path d="M171.35 448.903L163.094 444.137C162.431 443.755 162.514 443.086 163.28 442.643L171.458 437.922C172.224 437.479 173.381 437.431 174.044 437.815L182.3 442.581C182.963 442.963 182.88 443.632 182.114 444.074L173.936 448.796C173.172 449.237 172.013 449.285 171.35 448.903Z" fill="#173D7A"/>
<path d="M158.666 441.579L150.411 436.813C149.748 436.431 149.83 435.763 150.596 435.32L158.775 430.598C159.54 430.156 160.697 430.108 161.36 430.492L169.616 435.258C170.279 435.64 170.196 436.308 169.43 436.751L161.252 441.473C160.486 441.914 159.329 441.961 158.666 441.579Z" fill="#173D7A"/>
<path d="M145.983 434.255L137.727 429.489C137.064 429.107 137.147 428.439 137.913 427.996L146.091 423.274C146.857 422.831 148.014 422.784 148.677 423.168L156.932 427.934C157.595 428.316 157.513 428.984 156.747 429.427L148.569 434.149C147.805 434.589 146.646 434.637 145.983 434.255Z" fill="#173D7A"/>
<path d="M133.299 426.933L125.044 422.167C124.38 421.785 124.463 421.116 125.229 420.674L133.407 415.952C134.173 415.509 135.33 415.461 135.993 415.845L144.249 420.611C144.912 420.993 144.829 421.662 144.063 422.104L135.885 426.826C135.119 427.267 133.962 427.315 133.299 426.933Z" fill="#173D7A"/>
<path d="M146.34 419.401L138.084 414.635C137.421 414.253 137.504 413.584 138.27 413.142L140.973 411.581C141.739 411.138 142.896 411.09 143.559 411.474L151.815 416.24C152.478 416.622 152.395 417.291 151.629 417.733L148.926 419.294C148.16 419.735 147.003 419.785 146.34 419.401Z" fill="#173D7A"/>
<path d="M162.897 428.96L154.641 424.194C153.978 423.812 154.061 423.143 154.827 422.7L157.53 421.139C158.296 420.697 159.453 420.649 160.116 421.033L168.372 425.799C169.035 426.181 168.952 426.849 168.186 427.292L165.483 428.853C164.717 429.294 163.56 429.342 162.897 428.96Z" fill="#173D7A"/>
<path d="M175.526 436.253L167.27 431.487C166.607 431.105 166.69 430.436 167.456 429.993L170.159 428.432C170.925 427.99 172.082 427.942 172.745 428.326L181 433.092C181.664 433.474 181.581 434.142 180.815 434.585L178.112 436.146C177.346 436.587 176.187 436.635 175.526 436.253Z" fill="#173D7A"/>
<path d="M188.156 443.545L179.901 438.779C179.238 438.397 179.321 437.728 180.086 437.285L182.79 435.724C183.556 435.282 184.713 435.234 185.376 435.618L193.631 440.384C194.294 440.766 194.212 441.434 193.446 441.877L190.742 443.438C189.976 443.879 188.819 443.927 188.156 443.545Z" fill="#173D7A"/>
<path d="M200.787 450.837L192.532 446.071C191.869 445.689 191.951 445.02 192.717 444.578L195.421 443.017C196.187 442.576 197.344 442.526 198.007 442.91L206.262 447.676C206.925 448.058 206.843 448.727 206.077 449.169L203.373 450.73C202.607 451.173 201.45 451.221 200.787 450.837Z" fill="#173D7A"/>
<path d="M271.307 491.553L263.051 486.787C262.388 486.405 262.471 485.737 263.237 485.294L265.94 483.733C266.706 483.29 267.863 483.243 268.526 483.627L276.782 488.393C277.445 488.775 277.362 489.443 276.596 489.886L273.893 491.447C273.127 491.888 271.97 491.935 271.307 491.553Z" fill="#173D7A"/>
<path d="M283.938 498.844L275.682 494.078C275.019 493.696 275.102 493.028 275.868 492.585L278.571 491.024C279.337 490.581 280.494 490.534 281.157 490.918L289.413 495.684C290.076 496.066 289.993 496.734 289.227 497.177L286.524 498.738C285.758 499.179 284.601 499.226 283.938 498.844Z" fill="#173D7A"/>
<path d="M296.571 506.138L288.315 501.372C287.652 500.99 287.735 500.322 288.5 499.879L291.204 498.318C291.97 497.875 293.127 497.828 293.79 498.212L302.045 502.977C302.708 503.359 302.626 504.028 301.86 504.471L299.156 506.032C298.392 506.473 297.234 506.52 296.571 506.138Z" fill="#173D7A"/>
<path d="M309.203 513.433L300.948 508.667C300.285 508.285 300.367 507.617 301.133 507.174L303.837 505.613C304.603 505.17 305.76 505.123 306.423 505.506L314.678 510.272C315.341 510.654 315.259 511.323 314.493 511.766L311.789 513.327C311.023 513.767 309.866 513.815 309.203 513.433Z" fill="#173D7A"/>
<path d="M184.098 456.261L175.842 451.495C175.179 451.113 175.262 450.444 176.028 450.002L184.206 445.28C184.972 444.837 186.129 444.79 186.792 445.173L195.048 449.939C195.711 450.321 195.628 450.99 194.862 451.433L186.684 456.154C185.92 456.597 184.761 456.645 184.098 456.261Z" fill="#173D7A"/>
<path d="M196.842 463.625L188.586 458.859C187.923 458.477 188.006 457.809 188.772 457.366L196.95 452.644C197.716 452.202 198.873 452.154 199.536 452.538L207.792 457.304C208.455 457.686 208.372 458.354 207.606 458.797L199.428 463.519C198.664 463.96 197.505 464.007 196.842 463.625Z" fill="#173D7A"/>
<path d="M209.59 470.983L201.335 466.217C200.672 465.835 200.754 465.166 201.52 464.724L209.698 460.002C210.464 459.559 211.621 459.511 212.284 459.895L220.54 464.661C221.203 465.043 221.12 465.712 220.354 466.154L212.176 470.876C211.412 471.317 210.253 471.365 209.59 470.983Z" fill="#173D7A"/>
<path d="M222.34 478.344L214.085 473.578C213.422 473.196 213.504 472.528 214.27 472.085L222.448 467.363C223.214 466.92 224.371 466.873 225.034 467.256L233.29 472.022C233.953 472.404 233.87 473.073 233.104 473.516L224.926 478.238C224.162 478.678 223.003 478.726 222.34 478.344Z" fill="#173D7A"/>
<path d="M235.088 485.702L226.833 480.936C226.17 480.554 226.252 479.886 227.018 479.443L235.196 474.721C235.962 474.279 237.119 474.231 237.782 474.615L246.038 479.381C246.701 479.763 246.618 480.431 245.852 480.874L237.674 485.596C236.91 486.037 235.751 486.084 235.088 485.702Z" fill="#173D7A"/>
<path d="M247.836 493.061L239.581 488.295C238.918 487.913 239 487.244 239.766 486.802L247.944 482.08C248.71 481.637 249.867 481.589 250.53 481.973L258.786 486.739C259.449 487.121 259.366 487.79 258.6 488.232L250.422 492.954C249.658 493.395 248.499 493.445 247.836 493.061Z" fill="#173D7A"/>
<path d="M260.582 500.423L252.327 495.657C251.664 495.275 251.746 494.607 252.512 494.164L260.691 489.442C261.456 488.999 262.613 488.952 263.276 489.336L271.532 494.102C272.195 494.484 272.112 495.152 271.347 495.595L263.168 500.317C262.404 500.757 261.245 500.805 260.582 500.423Z" fill="#173D7A"/>
<path d="M273.334 507.784L265.079 503.018C264.416 502.635 264.498 501.967 265.264 501.524L273.443 496.802C274.208 496.36 275.365 496.312 276.028 496.696L284.284 501.462C284.947 501.844 284.864 502.512 284.099 502.955L275.92 507.677C275.156 508.118 273.997 508.167 273.334 507.784Z" fill="#173D7A"/>
<path d="M286.078 515.142L277.825 510.376C277.162 509.994 277.244 509.325 278.01 508.883L286.189 504.161C286.954 503.718 288.112 503.67 288.775 504.054L297.03 508.82C297.693 509.202 297.61 509.871 296.845 510.313L288.666 515.035C287.9 515.478 286.741 515.526 286.078 515.142Z" fill="#173D7A"/>
<path d="M111.22 457.17L86.9087 443.135C86.2457 442.753 86.3283 442.084 87.0942 441.641L95.2726 436.92C96.0385 436.477 97.1956 436.429 97.8586 436.813L122.17 450.848C122.833 451.23 122.75 451.899 121.984 452.342L113.806 457.063C113.04 457.504 111.881 457.554 111.22 457.17Z" fill="#173D7A"/>
<path d="M267.823 547.591L243.512 533.556C242.849 533.174 242.932 532.505 243.698 532.063L251.876 527.341C252.642 526.9 253.799 526.85 254.462 527.234L278.773 541.27C279.436 541.652 279.353 542.32 278.588 542.763L270.409 547.485C269.645 547.926 268.486 547.973 267.823 547.591Z" fill="#173D7A"/>
<path d="M216.844 534.416L208.588 529.65C207.925 529.268 208.008 528.599 208.774 528.156L218.517 522.531C219.283 522.088 220.44 522.041 221.103 522.424L229.359 527.19C230.022 527.572 229.939 528.241 229.173 528.684L219.43 534.309C218.666 534.75 217.507 534.798 216.844 534.416Z" fill="#173D7A"/>
<path d="M124.27 480.967L111.069 473.345C110.406 472.963 110.489 472.294 111.254 471.852L120.998 466.226C121.763 465.784 122.921 465.736 123.584 466.12L136.785 473.742C137.448 474.124 137.365 474.792 136.599 475.235L126.856 480.86C126.09 481.301 124.933 481.349 124.27 480.967Z" fill="#173D7A"/>
<path d="M204.565 527.325L191.364 519.703C190.701 519.321 190.783 518.653 191.549 518.21L201.292 512.585C202.058 512.142 203.215 512.094 203.878 512.478L217.08 520.1C217.743 520.482 217.66 521.151 216.894 521.593L207.151 527.219C206.385 527.66 205.226 527.707 204.565 527.325Z" fill="#173D7A"/>
<path d="M142.663 491.586L129.461 483.964C128.798 483.582 128.881 482.914 129.647 482.471L139.39 476.845C140.156 476.403 141.313 476.355 141.976 476.739L155.178 484.361C155.841 484.743 155.758 485.411 154.992 485.854L145.249 491.479C144.483 491.92 143.326 491.968 142.663 491.586Z" fill="#173D7A"/>
<path d="M142.067 476.789L199.465 509.927C200.177 510.338 200.177 511.005 199.465 511.416L189.529 517.152C188.816 517.564 187.661 517.564 186.95 517.152L129.553 484.014L142.067 476.789Z" fill="#173D7A"/>
<path d="M252.474 547.759L261.67 553.068C262.213 553.382 262.146 553.93 261.517 554.292L257.532 556.593C256.904 556.955 255.956 556.995 255.413 556.681L246.217 551.371C245.673 551.057 245.741 550.51 246.369 550.148L250.355 547.847C250.983 547.485 251.932 547.447 252.474 547.759Z" fill="#173D7A"/>
<path d="M239.622 540.338L248.818 545.648C249.362 545.962 249.294 546.509 248.666 546.871L244.68 549.172C244.052 549.534 243.105 549.575 242.561 549.26L233.365 543.951C232.821 543.637 232.889 543.089 233.518 542.728L237.503 540.426C238.129 540.063 239.079 540.024 239.622 540.338Z" fill="#173D7A"/>
<path d="M226.872 532.977L236.068 538.286C236.612 538.6 236.544 539.148 235.916 539.509L231.93 541.811C231.302 542.172 230.355 542.213 229.811 541.899L220.615 536.589C220.071 536.275 220.139 535.728 220.768 535.366L224.753 533.065C225.379 532.703 226.329 532.664 226.872 532.977Z" fill="#173D7A"/>
<path d="M246.66 536.271L255.855 541.581C256.399 541.895 256.331 542.442 255.703 542.804L251.718 545.105C251.089 545.467 250.142 545.508 249.598 545.193L240.402 539.884C239.859 539.57 239.927 539.022 240.555 538.661L244.54 536.359C245.166 535.998 246.116 535.957 246.66 536.271Z" fill="#173D7A"/>
<path d="M138.49 556.593C137.063 556.593 135.693 556.297 134.646 555.691L70.929 518.904C69.7481 518.225 69.1016 517.235 69.1016 516.116C69.1016 514.847 69.9703 513.618 71.4818 512.744L113.663 488.393C116.249 486.898 120.064 486.756 122.345 488.071L186.06 524.86C187.241 525.54 187.889 526.53 187.889 527.648C187.889 528.919 187.021 530.148 185.509 531.02L143.326 555.374C141.926 556.182 140.169 556.593 138.49 556.593ZM118.517 489.158C117.176 489.158 115.746 489.483 114.657 490.113L72.4736 514.467C71.6067 514.966 71.0888 515.583 71.0888 516.114C71.0888 516.623 71.6104 516.999 71.9208 517.181L135.638 553.969C137.302 554.927 140.365 554.782 142.329 553.649L184.514 529.296C185.38 528.794 185.897 528.179 185.897 527.646C185.897 527.138 185.375 526.761 185.065 526.581L121.349 489.792C120.609 489.368 119.59 489.158 118.517 489.158Z" fill="#5793CE"/>
<path d="M123.774 516.513L130.019 513.014C130.597 512.689 131.611 512.737 132.281 513.123C132.952 513.507 133.025 514.081 132.447 514.407L126.2 517.905C125.62 518.23 124.608 518.181 123.938 517.797C123.267 517.411 123.194 516.836 123.774 516.513Z" fill="white"/>
<path d="M110.509 523.943L119.718 518.784C120.296 518.459 121.31 518.509 121.981 518.893C122.651 519.276 122.724 519.851 122.146 520.176L112.937 525.335C112.359 525.661 111.345 525.611 110.674 525.227C110.004 524.843 109.931 524.268 110.509 523.943Z" fill="white"/>
<path d="M144.44 527.987L156.36 521.309C156.94 520.984 157.952 521.032 158.623 521.418C159.293 521.802 159.366 522.376 158.788 522.701L146.866 529.379C146.288 529.704 145.274 529.657 144.604 529.271C143.933 528.885 143.86 528.312 144.44 527.987Z" fill="white"/>
<path d="M142.286 517.667L146.187 515.482C146.765 515.156 147.779 515.206 148.449 515.59C149.12 515.974 149.193 516.549 148.615 516.874L144.714 519.059C144.135 519.384 143.122 519.335 142.451 518.951C141.779 518.565 141.705 517.99 142.286 517.667Z" fill="white"/>
<path d="M133.511 511.055L136.016 509.652C136.595 509.327 137.609 509.375 138.279 509.76C138.949 510.144 139.023 510.719 138.444 511.044L135.939 512.447C135.36 512.772 134.347 512.723 133.676 512.339C133.006 511.955 132.933 511.38 133.511 511.055Z" fill="white"/>
<path d="M122.735 505.568L125.845 503.825C126.425 503.5 127.437 503.548 128.107 503.933C128.778 504.317 128.851 504.892 128.271 505.217L125.161 506.96C124.583 507.285 123.569 507.236 122.899 506.852C122.228 506.466 122.155 505.893 122.735 505.568Z" fill="white"/>
<path d="M110.637 512.345L118.836 507.752C119.414 507.427 120.428 507.477 121.098 507.86C121.769 508.244 121.842 508.819 121.262 509.144L113.063 513.738C112.485 514.063 111.471 514.015 110.8 513.629C110.132 513.245 110.057 512.671 110.637 512.345Z" fill="white"/>
<path d="M114.865 504.214L120.761 500.912C121.339 500.587 122.353 500.635 123.023 501.02C123.694 501.404 123.767 501.979 123.189 502.304L117.293 505.606C116.715 505.931 115.701 505.884 115.031 505.498C114.36 505.112 114.285 504.539 114.865 504.214Z" fill="white"/>
<path d="M127.772 525.797L138.193 519.959C138.773 519.634 139.785 519.681 140.456 520.067C141.126 520.451 141.2 521.026 140.621 521.351L130.2 527.189C129.62 527.515 128.608 527.465 127.937 527.081C127.265 526.695 127.192 526.121 127.772 525.797Z" fill="white"/>
<path d="M133.113 528.569L151.275 518.395C151.853 518.07 152.867 518.119 153.537 518.503C154.208 518.887 154.281 519.462 153.703 519.787L135.541 529.962C134.96 530.287 133.948 530.239 133.278 529.853C132.608 529.469 132.534 528.895 133.113 528.569Z" fill="white"/>
<path d="M130.679 518.404L141.1 512.565C141.68 512.24 142.692 512.288 143.363 512.674C144.033 513.057 144.107 513.632 143.526 513.957L133.105 519.796C132.527 520.121 131.513 520.071 130.843 519.688C130.174 519.302 130.101 518.727 130.679 518.404Z" fill="white"/>
<path d="M119.867 530.226L123.652 528.105C124.23 527.78 125.244 527.829 125.914 528.213C126.585 528.597 126.658 529.172 126.08 529.497L122.295 531.618C121.714 531.943 120.702 531.895 120.032 531.51C119.361 531.124 119.288 530.549 119.867 530.226Z" fill="white"/>
<path d="M118.407 513.757L130.933 506.739C131.511 506.414 132.525 506.464 133.195 506.848C133.866 507.232 133.939 507.806 133.361 508.132L120.835 515.149C120.256 515.474 119.243 515.427 118.572 515.041C117.9 514.655 117.827 514.08 118.407 513.757Z" fill="white"/>
<path d="M304.368 440.474C302.972 440.474 301.576 440.114 300.321 439.388L244.118 406.847C242.369 405.833 241.312 404.023 241.291 401.999C241.271 399.973 242.292 398.14 244.022 397.091L259.573 387.677C260.08 387.374 260.737 387.533 261.042 388.037C261.349 388.542 261.185 389.199 260.682 389.506L245.132 398.92C244.054 399.572 243.416 400.717 243.429 401.977C243.442 403.236 244.099 404.364 245.19 404.996L301.394 437.537C303.284 438.63 305.618 438.597 307.475 437.46L326.827 425.632C327.331 425.325 327.99 425.485 328.298 425.987C328.605 426.49 328.447 427.149 327.944 427.458L308.592 439.284C307.295 440.077 305.831 440.474 304.368 440.474Z" fill="#5793CE"/>
</svg>
