<svg width="51" height="51" viewBox="0 0 51 51" fill="none" xmlns="http://www.w3.org/2000/svg">
<path d="M35.6175 35.8975C32.8313 35.8975 31.077 36.7643 29.529 37.5486C28.1875 38.2297 27.0937 38.7869 25.2981 38.7869C23.4406 38.7869 22.4086 38.271 21.0671 37.5486C19.5192 36.7643 17.8268 35.8975 14.9786 35.8975C12.1305 35.8975 10.4381 36.7643 8.89015 37.5486C7.54862 38.2297 6.4754 38.7869 4.65918 38.7869V42.8115C7.44543 42.8115 9.19973 41.9447 10.7477 41.1604C12.0892 40.4793 13.1624 39.9221 14.9786 39.9221C16.7948 39.9221 17.8681 40.4381 19.2096 41.1604C20.7575 41.9447 22.4499 42.8115 25.2981 42.8115C28.1462 42.8115 29.8386 41.9447 31.3865 41.1604C32.7281 40.4793 33.8219 39.9221 35.6175 39.9221C37.475 39.9221 38.507 40.4381 39.8485 41.1604C41.3964 41.9447 43.1094 42.8115 45.937 42.8115V38.7869C44.0795 38.7869 43.0475 38.271 41.706 37.5486C40.1581 36.7643 38.4038 35.8975 35.6175 35.8975ZM35.6175 26.7132C32.8313 26.7132 31.077 27.6007 29.529 28.3643C28.1875 29.0248 27.0937 29.6026 25.2981 29.6026C23.4406 29.6026 22.4086 29.0867 21.0671 28.3643C19.5192 27.58 17.8268 26.7132 14.9786 26.7132C12.1305 26.7132 10.4381 27.6007 8.89015 28.3643C7.54862 29.0248 6.4754 29.6026 4.65918 29.6026V33.6272C7.44543 33.6272 9.19973 32.7398 10.7477 31.9761C12.0892 31.2538 13.1211 30.7378 14.9786 30.7378C16.8361 30.7378 17.8681 31.2538 19.2096 31.9761C20.7575 32.7604 22.4499 33.6272 25.2981 33.6272C28.1462 33.6272 29.8386 32.7398 31.3865 31.9761C32.7281 31.2538 33.76 30.7378 35.6175 30.7378C37.475 30.7378 38.507 31.2538 39.8485 31.9761C41.3964 32.7604 43.1094 33.6272 45.937 33.6272V29.6026C44.0795 29.6026 43.0475 29.0867 41.706 28.3643C40.1581 27.58 38.4038 26.7132 35.6175 26.7132ZM41.706 10.037C40.1581 9.2527 38.445 8.38586 35.6175 8.38586C32.79 8.38586 31.077 9.2527 29.529 10.037C28.1875 10.6974 27.0937 11.2753 25.2981 11.2753C23.4406 11.2753 22.4086 10.7593 21.0671 10.037C19.5192 9.27334 17.8268 8.38586 14.9786 8.38586C12.1305 8.38586 10.4381 9.2527 8.89015 10.037C7.54862 10.7181 6.4754 11.2753 4.65918 11.2753V15.2586C7.44543 15.2586 9.19973 14.3711 10.7477 13.6075C12.0892 12.9264 13.1624 12.3692 14.9786 12.3692C16.7948 12.3692 17.8681 12.8851 19.2096 13.6075C20.7575 14.3918 22.4499 15.2586 25.2981 15.2586C28.1462 15.2586 29.8386 14.3711 31.3865 13.6075C32.7281 12.9471 33.8219 12.3692 35.6175 12.3692C37.475 12.3692 38.507 12.8851 39.8485 13.6075C41.3964 14.3918 43.1094 15.2586 45.937 15.2586V11.234C44.0795 11.234 43.0475 10.7181 41.706 10.037ZM35.6175 17.5289C32.8313 17.5289 31.077 18.4164 29.529 19.18C28.1875 19.9024 27.1556 20.4183 25.2981 20.4183C23.4406 20.4183 22.4086 19.9024 21.0671 19.18C19.5192 18.3957 17.8268 17.5289 14.9786 17.5289C12.1305 17.5289 10.4381 18.4164 8.89015 19.18C7.54862 19.9024 6.51668 20.4183 4.65918 20.4183V24.4429C7.44543 24.4429 9.19973 23.5554 10.7477 22.7918C12.0892 22.1314 13.183 21.5535 14.9786 21.5535C16.7742 21.5535 17.8681 22.0694 19.2096 22.7918C20.7575 23.5761 22.4499 24.4429 25.2981 24.4429C28.1462 24.4429 29.8386 23.5554 31.3865 22.7918C32.7281 22.1314 33.8219 21.5535 35.6175 21.5535C37.475 21.5535 38.507 22.0694 39.8485 22.7918C41.3964 23.5761 43.1094 24.4429 45.937 24.4429V20.4183C44.0795 20.4183 43.0475 19.9024 41.706 19.18C40.1581 18.3957 38.4038 17.5289 35.6175 17.5289Z" fill="#081348"/>
</svg>
