<svg width="252" height="61" viewBox="0 0 252 61" fill="none" xmlns="http://www.w3.org/2000/svg">
<g opacity="0.5">
<g clip-path="url(#clip0_134_2458)">
<g clip-path="url(#clip1_134_2458)">
<g clip-path="url(#clip2_134_2458)">
<path d="M46.7782 14.3546L45.1397 12.7161C43.5013 10.969 41.7542 9.22194 39.5713 8.13049C37.0587 6.81922 34.3288 7.14767 31.6001 7.14767H10.9585L15.1083 12.7161H39.8972C42.19 12.7161 44.1557 13.1532 46.0114 14.3546C46.3398 14.4632 46.6695 14.4632 46.7782 14.3546ZM51.3638 23.3098L49.7254 21.6713C48.0869 19.9243 46.3398 18.1772 44.1557 17.0857C41.6443 15.7745 38.9144 16.1016 36.1845 16.1016H17.8382L21.988 21.6713H44.5927C46.8868 21.6713 48.8524 22.1084 50.7082 23.3098C50.809 23.3636 50.9216 23.3918 51.036 23.3918C51.1503 23.3918 51.2629 23.3636 51.3638 23.3098ZM56.4964 32.0452L54.858 30.4068C53.2208 28.6597 51.4724 26.9126 49.2895 25.8211C46.7769 24.5099 44.047 24.8371 41.3184 24.8371H24.4994L28.6492 30.408H49.6155C51.9083 30.408 53.8739 30.8439 55.7296 32.0452C56.0581 32.1539 56.2779 32.2638 56.4964 32.0452ZM10.5227 46.7874L12.1611 48.4259C13.7996 50.173 15.5467 51.92 17.7308 53.0115C20.2422 54.3228 22.9721 53.9956 25.702 53.9956H46.3411L42.1913 48.4259H17.4024C15.1096 48.4259 13.1452 47.9888 11.2882 46.7874C10.9598 46.6788 10.7412 46.6788 10.5227 46.7874ZM5.93706 37.8322L7.57424 39.4706C9.21269 41.2177 10.9598 42.9648 13.1439 44.0563C15.6553 45.3675 18.3865 45.0403 21.1151 45.0403H39.4614L35.3116 39.4706H12.7069C10.414 39.4706 8.44842 39.0336 6.59269 37.8322C6.49166 37.7781 6.37884 37.7498 6.26425 37.7498C6.14965 37.7498 6.03809 37.7781 5.93706 37.8322ZM0.913086 28.9881L2.55153 30.6253C4.18871 32.3724 5.93706 34.1195 8.11997 35.2109C10.6326 36.5222 13.3625 36.195 16.0911 36.195H32.9089L28.7591 30.6253H7.79279C5.49997 30.6253 3.53435 30.1882 1.67862 28.9881C1.35017 28.8782 1.13163 28.8782 0.913086 28.9881ZM69.0431 17.9485V43.2036H74.5964V32.7691H85.1724V28.4538H74.5964V22.6175H86.7994V17.9485H69.0431ZM100.727 32.097H92.5561C92.5801 31.7433 92.6508 31.3416 92.7683 30.8944C92.9098 30.4459 93.1347 30.0227 93.4404 29.621C93.7902 29.2047 94.2241 28.8672 94.7138 28.6306C95.257 28.3477 95.929 28.2062 96.7299 28.2062C97.9565 28.2062 98.8648 28.5359 99.4535 29.1966C100.067 29.8573 100.492 30.8236 100.727 32.097ZM92.5561 35.2804H105.751C105.849 33.9143 105.73 32.5413 105.397 31.2127C105.088 29.9614 104.535 28.7833 103.77 27.7463C103.034 26.7283 102.064 25.9032 100.94 25.3411C99.7857 24.7284 98.429 24.4215 96.8727 24.4215C95.4818 24.4215 94.2085 24.6691 93.0526 25.1642C91.9452 25.6423 90.9464 26.3402 90.1168 27.2158C89.2772 28.0873 88.627 29.1229 88.2067 30.2577C87.7511 31.4793 87.5233 32.7741 87.5347 34.0778C87.5347 35.4926 87.7469 36.7887 88.1713 37.9686C88.588 39.097 89.2253 40.1311 90.046 41.0106C90.8703 41.8748 91.8718 42.5505 92.9818 42.9913C94.1377 43.4398 95.4351 43.6634 96.8727 43.6634C98.9482 43.6634 100.717 43.1922 102.178 42.2485C103.641 41.3049 104.725 39.7372 105.432 37.5442H101.011C100.847 38.1101 100.398 38.6521 99.667 39.1712C98.9368 39.6664 98.0639 39.914 97.0495 39.914C95.6347 39.914 94.5508 39.5477 93.7954 38.8175C93.0412 38.0861 92.6269 36.9075 92.5561 35.2804ZM107.456 30.5407C107.526 29.3621 107.821 28.383 108.341 27.6049C108.848 26.8369 109.526 26.1956 110.32 25.7302C111.152 25.2473 112.062 24.9122 113.008 24.7398C114.009 24.529 115.028 24.4223 116.05 24.4215C116.97 24.4215 117.902 24.4922 118.845 24.6337C119.788 24.7512 120.648 25 121.427 25.3765C122.205 25.7529 122.841 26.2835 123.337 26.9682C123.832 27.6289 124.079 28.5131 124.079 29.621V39.1359C124.079 39.9608 124.127 40.7516 124.221 41.5057C124.316 42.2599 124.481 42.8259 124.716 43.2036H119.623C119.529 42.9239 119.447 42.6407 119.375 42.3547C119.328 42.0496 119.293 41.7428 119.269 41.435C118.49 42.2463 117.516 42.8432 116.439 43.1682C115.362 43.4972 114.241 43.6641 113.114 43.6634C112.243 43.6634 111.429 43.5573 110.674 43.3451C109.954 43.1504 109.281 42.8136 108.693 42.3547C108.121 41.899 107.661 41.3181 107.349 40.6568C107.043 39.9722 106.889 39.1586 106.889 38.2162C106.889 37.1778 107.066 36.3289 107.42 35.6695C107.799 34.9848 108.269 34.4441 108.834 34.0424C109.424 33.6407 110.085 33.3476 110.815 33.1581C111.559 32.9482 112.315 32.7828 113.079 32.6629C113.819 32.5469 114.562 32.4526 115.307 32.38C116.04 32.3092 116.687 32.2031 117.253 32.0616C117.819 31.9202 118.267 31.7206 118.597 31.4603C118.928 31.1774 119.081 30.7769 119.057 30.2577C119.057 29.7145 118.963 29.2913 118.774 28.9843C118.622 28.6683 118.375 28.4083 118.066 28.2415C117.757 28.0438 117.406 27.9225 117.041 27.8878C116.632 27.8144 116.218 27.7788 115.803 27.7817C114.812 27.7817 114.034 27.9939 113.468 28.4184C112.902 28.8429 112.572 29.5503 112.478 30.5407H107.456ZM119.057 34.2547C118.845 34.4441 118.574 34.5957 118.243 34.7145C117.937 34.8092 117.595 34.8913 117.217 34.9621C116.843 35.0361 116.465 35.0951 116.086 35.1389C115.683 35.1862 115.282 35.2452 114.883 35.3158C114.5 35.3876 114.122 35.4821 113.751 35.5988C113.397 35.7162 113.079 35.8817 112.796 36.094C112.537 36.2834 112.325 36.5298 112.159 36.8367C111.995 37.1425 111.912 37.5315 111.912 38.004C111.912 38.4512 111.995 38.8289 112.159 39.1359C112.325 39.4416 112.548 39.6892 112.831 39.8787C113.114 40.0429 113.445 40.1616 113.822 40.2324C114.201 40.3031 114.589 40.3385 114.989 40.3385C115.979 40.3385 116.746 40.1743 117.288 39.8433C117.831 39.5123 118.232 39.1232 118.491 38.6761C118.751 38.2049 118.904 37.7324 118.951 37.2612C119.021 36.79 119.057 36.4123 119.057 36.1293V34.2547ZM133.285 24.9167V19.4341H128.262V24.9167H125.219V28.2769H128.262V39.0651C128.262 39.9848 128.415 40.7276 128.722 41.2935C129.028 41.8595 129.441 42.2953 129.96 42.6023C130.502 42.908 131.115 43.1088 131.799 43.2036C132.507 43.321 133.249 43.3804 134.028 43.3804C134.523 43.3804 135.029 43.3678 135.549 43.3451C136.066 43.321 136.539 43.2743 136.963 43.2036V39.3127C136.718 39.3612 136.47 39.3966 136.221 39.4188C135.96 39.4416 135.69 39.4542 135.407 39.4542C134.558 39.4542 133.992 39.3127 133.709 39.0298C133.426 38.7468 133.285 38.1809 133.285 37.3319V28.2769H136.963V24.9167H133.285ZM138.291 17.9485V43.2036H143.314V33.618C143.314 31.7547 143.621 30.4219 144.233 29.621C144.847 28.7949 145.838 28.383 147.205 28.383C148.407 28.383 149.245 28.7607 149.716 29.5149C150.188 30.2451 150.423 31.3656 150.423 32.8752V43.2036H155.446V31.9555C155.446 30.8236 155.34 29.7979 155.128 28.8782C154.94 27.9346 154.597 27.145 154.102 26.5084C153.607 25.8477 152.923 25.3411 152.05 24.9874C151.202 24.6097 150.105 24.4215 148.761 24.4215C147.819 24.4215 146.851 24.6691 145.861 25.1642C144.87 25.6354 144.057 26.4022 143.42 27.4634H143.314V17.9485H138.291ZM170.507 32.097H162.336C162.369 31.6904 162.44 31.2878 162.548 30.8944C162.69 30.4459 162.913 30.0227 163.22 29.621C163.57 29.2045 164.004 28.867 164.494 28.6306C165.036 28.3477 165.708 28.2062 166.51 28.2062C167.736 28.2062 168.643 28.5359 169.233 29.1966C169.846 29.8573 170.27 30.8236 170.507 32.097ZM162.336 35.2804H175.529C175.628 33.9143 175.509 32.5413 175.176 31.2127C174.867 29.9614 174.314 28.7833 173.549 27.7463C172.813 26.7283 171.842 25.9032 170.719 25.3411C169.563 24.7284 168.208 24.4215 166.651 24.4215C165.26 24.4215 163.987 24.6691 162.831 25.1642C161.724 25.6422 160.725 26.3402 159.895 27.2158C159.056 28.0875 158.406 29.1231 157.985 30.2577C157.529 31.4792 157.302 32.774 157.313 34.0778C157.313 35.4926 157.525 36.7887 157.95 37.9686C158.367 39.097 159.004 40.1311 159.825 41.0106C160.649 41.8748 161.65 42.5505 162.76 42.9913C163.916 43.4398 165.212 43.6634 166.651 43.6634C168.727 43.6634 170.495 43.1922 171.957 42.2485C173.419 41.3049 174.504 39.7372 175.211 37.5442H170.79C170.624 38.1101 170.177 38.6521 169.446 39.1712C168.714 39.6664 167.842 39.914 166.828 39.914C165.413 39.914 164.328 39.5477 163.574 38.8175C162.82 38.0861 162.407 36.9075 162.336 35.2804ZM177.447 24.9167V43.2036H182.47V34.9621C182.47 34.1372 182.552 33.3704 182.717 32.6629C182.883 31.9555 183.153 31.3416 183.531 30.8236C183.931 30.2804 184.451 29.8573 185.087 29.5503C185.724 29.2433 186.502 29.0905 187.422 29.0905C187.729 29.0905 188.047 29.1132 188.377 29.1612C188.706 29.1839 188.989 29.2193 189.226 29.2673V24.5983C188.87 24.4876 188.501 24.428 188.129 24.4215C187.505 24.4196 186.884 24.515 186.29 24.7044C185.7 24.8939 185.147 25.1642 184.627 25.518C184.103 25.8526 183.637 26.2708 183.248 26.756C182.851 27.2221 182.529 27.7471 182.293 28.3123H182.222V24.9167H177.447ZM196.218 38.5346V22.6175H200.179C201.547 22.6175 202.691 22.8184 203.61 23.2188C204.554 23.5965 205.308 24.1499 205.874 24.8813C206.44 25.6127 206.84 26.497 207.077 27.5341C207.336 28.5473 207.466 29.6918 207.466 30.9651C207.466 32.356 207.289 33.5346 206.935 34.5022C206.582 35.4686 206.11 36.2582 205.52 36.8721C204.955 37.446 204.265 37.8818 203.504 38.1455C202.753 38.4043 201.964 38.5358 201.17 38.5346H196.218ZM190.664 17.9485V43.2036H201.559C203.493 43.2036 205.167 42.8852 206.582 42.2485C208.02 41.5879 209.21 40.6922 210.154 39.5603C211.12 38.4285 211.84 37.0843 212.312 35.528C212.783 33.9717 213.019 32.2739 213.019 30.4346C213.019 28.335 212.725 26.5084 212.135 24.952C211.569 23.3957 210.767 22.0983 209.73 21.0612C208.707 20.0181 207.461 19.22 206.086 18.7267C204.695 18.2088 203.186 17.9485 201.559 17.9485H190.664ZM227.6 32.097H219.429C219.452 31.7433 219.522 31.3416 219.641 30.8944C219.783 30.4459 220.006 30.0227 220.313 29.621C220.663 29.2045 221.097 28.867 221.587 28.6306C222.128 28.3477 222.8 28.2062 223.603 28.2062C224.828 28.2062 225.736 28.5359 226.326 29.1966C226.939 29.8573 227.363 30.8236 227.6 32.097ZM219.429 35.2804H232.622C232.72 33.9143 232.601 32.5414 232.269 31.2127C231.959 29.9615 231.406 28.7836 230.642 27.7463C229.906 26.7287 228.935 25.9036 227.812 25.3411C226.656 24.7284 225.3 24.4215 223.744 24.4215C222.352 24.4215 221.079 24.6691 219.924 25.1642C218.817 25.6422 217.818 26.3402 216.988 27.2158C216.148 28.0868 215.498 29.1226 215.078 30.2577C214.622 31.4792 214.395 32.774 214.406 34.0778C214.406 35.4926 214.618 36.7887 215.043 37.9686C215.459 39.0972 216.096 40.1314 216.918 41.0106C217.742 41.8751 218.743 42.5508 219.853 42.9913C221.008 43.4398 222.305 43.6634 223.744 43.6634C225.818 43.6634 227.587 43.1922 229.05 42.2485C230.511 41.3049 231.597 39.7372 232.304 37.5442H227.883C227.717 38.1101 227.269 38.6521 226.538 39.1712C225.807 39.6664 224.934 39.914 223.921 39.914C222.506 39.914 221.421 39.5477 220.667 38.8175C219.911 38.0861 219.5 36.9075 219.429 35.2804ZM244.656 43.2036L250.846 24.9167H245.859L242.003 37.4027H241.933L238.077 24.9167H232.807L239.067 43.2036H244.656Z" fill="#2C2C2C"/>
</g>
</g>
</g>
</g>
<defs>
<clipPath id="clip0_134_2458">
<rect width="250.125" height="60.6364" fill="white" transform="translate(0.913086 0.253052)"/>
</clipPath>
<clipPath id="clip1_134_2458">
<rect width="250.125" height="60.6364" fill="white" transform="translate(0.913086 0.253052)"/>
</clipPath>
<clipPath id="clip2_134_2458">
<rect width="250.125" height="60.6364" fill="white" transform="translate(0.913086 0.253052)"/>
</clipPath>
</defs>
</svg>
