<?xml version="1.0" encoding="UTF-8"?><svg xmlns="http://www.w3.org/2000/svg" viewBox="0 0 214 214"><defs><style>.cls-1{letter-spacing:.05em;}.cls-2{letter-spacing:.05em;}.cls-3{letter-spacing:.02em;}.cls-4{letter-spacing:.06em;}.cls-5{font-family:NHaasGroteskDSPro-55Rg, 'Neue Haas Grotesk Display Pro';font-size:63.6px;}.cls-6{stroke-width:0px;}</style></defs><g id="Artwork"><path class="cls-6" d="m204.61,19.63s-.05-.03-.08-.04l-6.76-3.68c-.15-.08-.3-.15-.46-.21-.12-.04-4.84-1.74-11.87-3.13-7.04-1.38-16.37-2.48-25.89-1.15-5.15.72-10.39,2.17-15.32,4.81-10.51,5.64-19.37,13.02-25.74,20.88-.01.01-.02.03-.03.04-3.23-5.03-7.67-9.72-13.06-13.99-3.58-2.81-7.58-5.43-11.93-7.8l-6.83-3.72c-3.95-2.15-8.19-4.09-12.67-5.77-7.15-2.67-15.09-2.82-22.9-1.73-11.36,1.6-22.54,5.87-30.94,9.71-8.41,3.85-14.04,7.29-14.15,7.37-1.98,1.21-2.96,3.78-2.21,5.87.06.15,3.71,10.49,10.66,22.11,3.47,5.81,7.78,11.94,12.93,17.29,3.8,3.93,8.06,7.45,12.82,10.04l6.7,3.64c1.76.96,3.58,1.8,5.47,2.49,12.69,4.57,25.53,5.82,36.85,4.23,6.93-.98,13.3-3,18.76-6.14l-.06,33.82-23.84,3.36c-3.67.51-6.99,2.62-9.36,5.52-2.36,2.91-3.83,6.67-3.84,10.54,0,.68.04,1.37.14,2.05l8.43,62.19c.46,3.42,2.09,6.25,4.41,8.09.49.39,1.02.74,1.58,1.05l6.78,3.68s.04.03.06.04c2.04,1.11,4.47,1.58,7.04,1.21l39.04-5.48c3.27-.46,6.32-2.2,8.64-4.69s3.96-5.78,4.44-9.34l8.67-64.58c.09-.72.14-1.42.14-2.1,0-3.86-1.45-7.22-3.81-9.47-.71-.68-1.5-1.25-2.38-1.71l-6.76-3.68c-2.02-1.11-4.45-1.59-7.06-1.22l-17.28,2.43.06-32.14.61.33c-.09-.05-.19-.11-.28-.16,2.16,1.22,4.61,2.04,7.25,2.52,3.96.7,8.39.67,13.15,0,8.4-1.18,17.85-4.35,27.44-9.28,7.19-3.7,13.04-8.73,17.68-14.1,6.98-8.07,11.32-16.9,13.95-23.71,2.64-6.83,3.57-11.68,3.62-11.9.35-1.87-.39-3.61-1.81-4.39Zm-102.06,54.59c-3.33,1.59-7.23,2.81-11.51,3.55-.31.06-.62.11-.93.15-.31.05-.63.09-.94.14-.32.04-.64.09-.97.13-.34.04-.69.08-1.04.12-9.53.99-20.48-.23-31.35-4.16-1.49-.54-2.96-1.2-4.39-1.98-.94-.51-1.87-1.08-2.79-1.69-.2-.13-.39-.26-.59-.4-.01,0-.01-.01-.02-.01-.12-.08-.25-.17-.37-.26-.33-.22-.65-.46-.97-.7-.32-.24-.64-.48-.96-.74-.14-.11-.28-.22-.42-.33-.32-.26-.63-.52-.94-.78-1.42-1.2-2.79-2.5-4.11-3.88-6.98-7.22-12.53-16.46-16.28-23.85-1.83-3.61-3.24-6.79-4.18-9.07,2.34-1.28,5.68-3.01,9.66-4.82,7.91-3.62,18.38-7.53,28.44-8.95,6.99-.98,13.73-.75,19.37,1.37.71.27,1.41.54,2.1.82.06.02.12.05.18.07.68.28,1.36.56,2.03.85.71.3,1.4.61,2.09.93.63.29,1.25.58,1.86.88.02.01.03.02.04.02.05.03.09.05.14.07,1.07.53,2.12,1.07,3.14,1.62.06.03.13.07.19.1.38.21.76.42,1.14.63.43.25.87.5,1.3.75.01.01.02.02.03.02.62.37,1.23.74,1.83,1.11.55.34,1.09.69,1.62,1.03,1.21.8,2.38,1.62,3.5,2.45.45.33.89.66,1.32,1,.16.13.32.25.48.38.44.35.88.7,1.3,1.06.35.29.69.58,1.02.87.18.15.35.31.53.47.32.28.63.56.93.85.25.23.5.47.74.7.32.3.63.61.93.92.93.95,1.81,1.91,2.62,2.87.87,1.02,1.66,2.04,2.38,3.06.85,1.21,1.6,2.42,2.25,3.63.18.33.36.67.52,1,.56,1.14,1.03,2.27,1.4,3.38.78,2.31,1.16,4.55,1.16,6.65,0,.59-.03,1.17-.09,1.74-.33,1.16-.58,2.32-.76,3.47-.08.26-.17.52-.27.77l-.06-.03v.18c-.75,1.88-1.82,3.62-3.24,5.26-.57.65-1.2,1.29-1.88,1.9-.55.5-1.13.98-1.75,1.44-1.59,1.19-3.4,2.28-5.43,3.24Zm42.61,48.63l1.88-.26c.23-.04.46-.05.68-.05.16,0,.31.01.46.03h.05s.05.01.08.01c.01,0,.03.01.05.01.03.01.06.01.09.02.03,0,.06.01.09.01.02,0,.04.01.06.01.03.01.06.01.08.02t.02.01s.03,0,.04.01h.02s.03.01.05.01t.02.01s.04.01.06.02h.02c.07.02.14.04.21.07.05,0,.09.03.14.05.15.06.3.13.45.21.07.03.14.07.2.12.09.05.18.11.26.17.15.1.29.22.43.35.9.87,1.44,2.13,1.44,3.58,0,.26-.02.53-.06.8l-8.66,64.6c-.19,1.36-.8,2.58-1.69,3.54-.89.95-2.02,1.59-3.27,1.77l-39.04,5.49c-.08,0-.17.02-.26.03h-.11c-.14.01-.27.02-.4.01-.08,0-.16,0-.23-.01h-.09s-.01,0-.02-.01h-.02c-.08-.01-.16-.02-.24-.04-.02,0-.05-.01-.07-.01-.01,0-.03,0-.05-.01-.01,0-.03,0-.05-.01-.03,0-.07-.01-.1-.02-.02,0-.04,0-.06-.01h0s-.01-.01-.01-.01c-.01,0-.03-.01-.04-.01-.04-.01-.08-.03-.13-.04-.03-.01-.06-.02-.09-.03-.03,0-.07,0-.1-.03-.01,0-.02-.01-.04-.01h-.01s-.03-.02-.04-.02c-.01-.01-.03-.02-.05-.02-.05-.02-.1-.04-.14-.06-.12-.05-.24-.11-.35-.17-.01-.01-.02-.01-.03-.02-.01-.01-.02-.02-.04-.02-.04-.03-.07-.05-.11-.07-.13-.08-.26-.17-.38-.27-.11-.09-.22-.18-.32-.28-.08-.08-.17-.16-.23-.25-.04-.04-.08-.09-.12-.13-.06-.08-.12-.16-.18-.24-.03-.04-.05-.08-.08-.12-.04-.07-.09-.14-.13-.22-.06-.11-.12-.23-.18-.35-.22-.44-.36-.94-.44-1.47v-.06s-8.43-62.13-8.43-62.13c-.04-.27-.05-.53-.05-.79,0-1.45.55-2.87,1.46-3.99.92-1.12,2.13-1.89,3.56-2.09l54.25-7.63Zm46.76-81.85c-2.29,4.45-5.29,9.19-9.14,13.51-3.84,4.34-8.52,8.27-14.28,11.24-.55.29-1.1.56-1.65.83-.55.28-1.1.54-1.64.79-.23.11-.47.22-.7.33-.13.06-.27.12-.4.18-.01,0-.01.01-.02.01-.05.03-.1.05-.15.07-.04.02-.08.03-.12.05-.23.1-.46.21-.69.31-.23.11-.46.21-.69.3-.37.17-.73.32-1.1.47-.34.15-.68.29-1.01.42-1.07.43-2.14.84-3.19,1.22-.26.1-.53.19-.79.28-.27.09-.53.18-.79.27-.65.22-1.3.43-1.94.63-.39.12-.78.23-1.16.34-.25.08-.51.15-.76.22-.09.03-.18.05-.27.07-.03.01-.06.02-.09.02-.07.02-.14.04-.22.06-.04.01-.08.02-.11.03-.25.07-.51.14-.76.2h-.01s-.05.01-.07.02c-.02,0-.04.01-.06.01-.09.03-.18.05-.27.07-.09.03-.17.05-.26.07-.05.01-.1.03-.15.04-.03.01-.06.02-.09.02-.02.01-.04.01-.06.02-.08.02-.15.04-.23.06-.37.09-.73.17-1.09.25-.49.1-.97.2-1.45.3-.97.18-1.91.34-2.84.47-.48.07-.96.13-1.43.18-.14.02-.28.03-.42.04-.37.04-.72.07-1.08.1-.06,0-.13.01-.19.01-.37.03-.73.05-1.08.06-.13.01-.26.01-.39.01-.4.02-.79.03-1.17.03h-.08c-.36,0-.71-.01-1.05-.02-.24-.01-.48-.02-.71-.03-.03,0-.07,0-.1-.01-.25-.01-.49-.03-.72-.05-.26-.02-.51-.05-.75-.07-.03,0-.05-.01-.08-.01-.52-.06-1.02-.13-1.51-.22-.13-.02-.25-.04-.38-.07-.47-.09-.92-.2-1.35-.32-.06-.01-.11-.03-.17-.05s-.13-.03-.19-.05c-.24-.07-.46-.14-.68-.22-.34-.12-.66-.24-.96-.37-.08-.03-.15-.06-.22-.09-.03-.02-.07-.03-.1-.05-.17-.07-.33-.15-.49-.23-.09-.04-.19-.09-.27-.14-.09-.04-.18-.09-.26-.14-.32-.18-.62-.36-.9-.56-.33-.23-.64-.48-.93-.73-.19-.17-.38-.35-.54-.54-.11-.12-.21-.23-.31-.35-.13-.15-.25-.3-.35-.45-.05-.07-.1-.13-.15-.2-.19-.28-.37-.57-.52-.87-.06-.11-.12-.22-.17-.34-.09-.19-.18-.39-.26-.6-.43-1.14-.64-2.38-.64-3.78,0-.26.01-.54.03-.81,0-.11.02-.23.03-.35,0-.11.03-.23.04-.35,0-.05,0-.09.01-.14.01-.02.01-.04.01-.06.33-1.11.56-2.24.73-3.37.08-.27.17-.54.26-.82.13-.37.26-.73.41-1.11.14-.37.3-.75.47-1.13.18-.41.37-.82.57-1.23.14-.27.27-.53.41-.8.04-.08.09-.17.13-.25.11-.21.23-.43.36-.65h0c.07-.14.15-.27.23-.4.05-.1.11-.21.18-.32.15-.26.31-.53.48-.8.09-.15.19-.3.28-.45.12-.18.24-.37.36-.55.24-.37.49-.73.74-1.1.04-.06.08-.12.13-.18.29-.43.6-.86.93-1.29.11-.15.22-.3.34-.45.07-.1.14-.19.22-.29.09-.12.18-.24.28-.36.02-.02.04-.05.06-.08.08-.1.16-.2.24-.3.39-.5.8-.99,1.23-1.49.26-.3.52-.59.78-.89.39-.44.79-.88,1.21-1.32.14-.15.28-.3.42-.44.33-.35.67-.69,1.01-1.03,4.92-4.92,11.13-9.6,18.22-13.39.4-.21.81-.42,1.22-.61.17-.09.34-.17.51-.24.01-.01.03-.02.05-.02.03-.01.05-.03.08-.04.25-.12.5-.23.75-.33h.02s.01-.01.02-.01c.08-.04.17-.08.25-.11.07-.03.14-.06.21-.08h.01s.02-.01.03-.02c.01,0,.02,0,.03-.01.01,0,.02-.01.03-.01.05-.02.1-.04.15-.06.01,0,.02-.01.03-.01.01-.01.02-.01.03-.01.12-.06.24-.1.37-.14.06-.03.12-.05.18-.07.03-.01.06-.02.09-.03t.02-.01c.11-.05.23-.09.34-.13,0,0,.01-.01.02-.01,1.02-.36,2.08-.68,3.15-.96.06-.01.13-.03.2-.05h.02c.06-.02.12-.03.18-.04.24-.07.49-.13.74-.18.14-.04.29-.07.44-.1.01,0,.02,0,.03-.01,1.07-.23,2.16-.42,3.26-.58.02,0,.03,0,.05-.01h.04c8.2-1.16,16.87-.2,23.39,1.1.09.02.18.04.27.05,3.02.61,5.57,1.27,7.42,1.8-.95,3.29-2.69,8.46-5.58,14.08Z"/></g><g id="Label"><text class="cls-5" transform="translate(-271.09 -49.58)"><tspan class="cls-1" x="0" y="0">CONTINUO</tspan><tspan class="cls-4" x="353.05" y="0">U</tspan><tspan class="cls-2" x="398.72" y="0">S GR</tspan><tspan class="cls-3" x="550.15" y="0">O</tspan><tspan class="cls-4" x="601.04" y="0">W</tspan><tspan class="cls-2" x="662.98" y="0">TH</tspan></text></g></svg>