<svg width="590" height="488" viewBox="0 0 590 488" fill="none" xmlns="http://www.w3.org/2000/svg">
<g opacity="0.4">
<path d="M541.249 159.6L492.508 131.457L541.249 103.314L589.99 131.457L541.249 159.6ZM495.959 131.457L541.249 157.605L586.539 131.457L541.249 105.309L495.959 131.457Z" fill="white"/>
<path d="M447.217 159.595L446.787 159.346L398.475 131.454L447.216 103.314L447.646 103.564L495.958 131.455L447.217 159.595ZM401.924 131.454L447.216 157.602L492.506 131.455L447.214 105.307L401.924 131.454Z" fill="white"/>
<path d="M494.233 186.743L445.492 158.6L494.233 130.459L542.974 158.602L494.233 186.743ZM448.942 158.6L494.232 184.75L539.522 158.602L494.232 132.453L448.942 158.6Z" fill="white"/>
<path d="M541.251 213.888L540.821 213.639L492.508 185.747L541.249 157.604L541.679 157.854L589.992 185.745L541.251 213.888ZM495.959 185.747L541.251 211.895L586.541 185.747L541.249 159.599L495.959 185.747Z" fill="white"/>
<path d="M353.182 159.596L352.752 159.347L304.439 131.455L353.181 103.314L353.611 103.564L401.923 131.455L353.182 159.596ZM307.89 131.455L353.182 157.604L398.472 131.455L353.181 105.307L307.89 131.455Z" fill="white"/>
<path d="M400.2 186.741L399.77 186.491L351.457 158.6L400.198 130.457L400.628 130.706L448.941 158.598L400.2 186.741ZM354.908 158.6L400.2 184.748L445.49 158.6L400.198 132.451L354.908 158.6Z" fill="white"/>
<path d="M447.221 213.886L446.791 213.637L398.479 185.745L447.22 157.603L495.961 185.745L447.221 213.886ZM401.93 185.745L447.221 211.893L492.51 185.747L447.22 159.597L401.93 185.745Z" fill="white"/>
<path d="M494.235 241.032L445.494 212.889L494.234 184.75L494.664 184.999L542.976 212.891L494.235 241.032ZM448.944 212.891L494.234 239.039L539.524 212.893L494.232 186.744L448.944 212.891Z" fill="white"/>
<path d="M541.252 268.179L492.51 240.037L541.251 211.896L541.681 212.145L589.994 240.037L541.252 268.179ZM495.961 240.037L541.252 266.186L586.543 240.038L541.251 213.89L495.961 240.037Z" fill="white"/>
<path d="M259.149 159.596L258.719 159.347L210.406 131.455L259.147 103.314L307.89 131.457L259.149 159.596ZM213.857 131.454L259.149 157.602L304.439 131.455L259.147 105.306L213.857 131.454Z" fill="white"/>
<path d="M306.168 186.741L257.426 158.596L306.167 130.457L306.597 130.706L354.91 158.598L306.168 186.741ZM260.875 158.598L306.167 184.748L351.457 158.6L306.165 132.451L260.875 158.598Z" fill="white"/>
<path d="M353.184 213.886L352.754 213.637L304.441 185.745L353.183 157.603L353.613 157.852L401.925 185.744L353.184 213.886ZM307.892 185.745L353.184 211.893L398.474 185.745L353.183 159.597L307.892 185.745Z" fill="white"/>
<path d="M400.202 241.032L399.772 240.782L351.459 212.891L400.2 184.748L400.63 184.997L448.943 212.889L400.202 241.032ZM354.91 212.891L400.202 239.039L445.492 212.891L400.2 186.742L354.91 212.891Z" fill="white"/>
<path d="M447.22 268.179L398.479 240.036L447.22 211.894L495.961 240.036L447.22 268.179ZM401.93 240.038L447.22 266.186L492.51 240.038L447.22 213.889L401.93 240.038Z" fill="white"/>
<path d="M494.237 295.323L493.807 295.073L445.494 267.182L494.235 239.039L542.978 267.183L494.237 295.323ZM448.944 267.18L494.235 293.328L539.525 267.182L494.234 241.032L448.944 267.18Z" fill="white"/>
<path d="M541.252 322.47L492.51 294.328L541.251 266.187L541.681 266.436L589.994 294.328L541.252 322.47ZM495.961 294.326L541.252 320.476L586.543 294.328L541.251 268.179L495.961 294.326Z" fill="white"/>
<path d="M165.116 159.596L164.686 159.347L116.373 131.455L165.114 103.314L165.544 103.564L213.857 131.455L165.116 159.596ZM119.824 131.454L165.116 157.602L210.406 131.454L165.114 105.306L119.824 131.454Z" fill="white"/>
<path d="M212.131 186.74L211.701 186.49L163.389 158.599L212.13 130.456L212.56 130.705L260.873 158.597L212.131 186.74ZM166.84 158.599L212.131 184.747L257.422 158.599L212.13 132.45L166.84 158.599Z" fill="white"/>
<path d="M259.153 213.884L258.723 213.635L210.41 185.743L259.151 157.601L307.894 185.745L259.153 213.884ZM213.86 185.743L259.151 211.891L304.441 185.745L259.15 159.595L213.86 185.743Z" fill="white"/>
<path d="M306.17 241.03L305.74 240.781L257.428 212.889L306.169 184.748L306.599 184.997L354.912 212.889L306.17 241.03ZM260.877 212.889L306.169 239.037L351.459 212.891L306.167 186.742L260.877 212.889Z" fill="white"/>
<path d="M353.184 268.178L304.441 240.034L353.183 211.895L353.613 212.144L401.925 240.036L353.184 268.178ZM307.892 240.036L353.184 266.185L398.474 240.037L353.183 213.889L307.892 240.036Z" fill="white"/>
<path d="M400.2 295.323L351.459 267.181L400.2 239.038L448.941 267.181L400.2 295.323ZM354.91 267.181L400.2 293.329L445.49 267.181L400.2 241.032L354.91 267.181Z" fill="white"/>
<path d="M447.221 322.468L446.791 322.219L398.479 294.327L447.22 266.185L447.65 266.434L495.962 294.326L447.221 322.468ZM401.93 294.326L447.221 320.474L492.511 294.326L447.22 268.177L401.93 294.326Z" fill="white"/>
<path d="M494.237 349.611L493.807 349.362L445.494 321.47L494.235 293.329L542.978 321.472L494.237 349.611ZM448.945 321.47L494.237 347.618L539.527 321.472L494.235 295.322L448.945 321.47Z" fill="white"/>
<path d="M541.254 376.758L540.824 376.508L492.512 348.617L541.253 320.476L541.683 320.725L589.996 348.617L541.254 376.758ZM495.963 348.617L541.254 374.765L586.545 348.618L541.253 322.47L495.963 348.617Z" fill="white"/>
<path d="M71.0826 159.594L70.6525 159.345L22.3398 131.453L71.081 103.311L119.824 131.453L71.0826 159.594ZM25.7909 131.452L71.0826 157.6L116.373 131.453L71.081 105.303L25.7909 131.452Z" fill="white"/>
<path d="M118.1 186.737L117.67 186.488L69.3574 158.596L118.099 130.457L118.529 130.706L166.841 158.598L118.1 186.737ZM72.8069 158.596L118.099 184.745L163.389 158.598L118.097 132.45L72.8069 158.596Z" fill="white"/>
<path d="M165.118 213.884L116.375 185.742L165.116 157.601L165.546 157.85L213.859 185.742L165.118 213.884ZM119.826 185.742L165.118 211.891L210.408 185.743L165.116 159.595L119.826 185.742Z" fill="white"/>
<path d="M212.135 241.03L211.705 240.78L163.393 212.889L212.134 184.746L212.564 184.995L260.876 212.887L212.135 241.03ZM166.844 212.889L212.135 239.037L257.425 212.889L212.134 186.74L166.844 212.889Z" fill="white"/>
<path d="M259.153 268.177L258.723 267.928L210.41 240.036L259.151 211.894L259.581 212.143L307.894 240.035L259.153 268.177ZM213.86 240.036L259.151 266.184L304.441 240.036L259.15 213.888L213.86 240.036Z" fill="white"/>
<path d="M306.17 295.322L305.74 295.072L257.428 267.181L306.169 239.038L354.912 267.181L306.17 295.322ZM260.877 267.179L306.169 293.327L351.459 267.181L306.167 241.031L260.877 267.179Z" fill="white"/>
<path d="M353.188 322.468L352.758 322.218L304.445 294.327L353.186 266.186L401.928 294.328L353.188 322.468ZM307.896 294.325L353.188 320.473L398.477 294.327L353.186 268.178L307.896 294.325Z" fill="white"/>
<path d="M400.204 349.613L351.463 321.47L400.202 293.329L400.632 293.578L448.945 321.47L400.204 349.613ZM354.914 321.47L400.204 347.62L445.494 321.472L400.202 295.323L354.914 321.47Z" fill="white"/>
<path d="M447.223 376.757L446.793 376.508L398.48 348.616L447.222 320.474L447.652 320.723L495.964 348.615L447.223 376.757ZM401.93 348.616L447.222 374.765L492.512 348.616L447.22 322.468L401.93 348.616Z" fill="white"/>
<path d="M494.238 403.903L493.808 403.653L445.494 375.762L494.235 347.619L494.665 347.868L542.98 375.762L494.238 403.903ZM448.945 375.762L494.237 401.91L539.527 375.762L494.235 349.613L448.945 375.762Z" fill="white"/>
<path d="M541.254 431.049L540.824 430.8L492.512 402.908L541.253 374.766L589.996 402.908L541.254 431.049ZM495.963 402.908L541.254 429.056L586.545 402.91L541.253 376.76L495.963 402.908Z" fill="white"/>
<path d="M71.0865 213.883L70.6564 213.634L22.3438 185.742L71.0849 157.6L71.5149 157.849L119.828 185.741L71.0865 213.883ZM25.7948 185.742L71.0865 211.89L116.377 185.742L71.0849 159.594L25.7948 185.742Z" fill="white"/>
<path d="M118.102 241.028L117.672 240.778L69.3594 212.887L118.101 184.744L166.843 212.888L118.102 241.028ZM72.8088 212.887L118.101 239.035L163.391 212.888L118.099 186.738L72.8088 212.887Z" fill="white"/>
<path d="M165.118 268.177L116.375 240.033L165.116 211.894L165.546 212.143L213.859 240.035L165.118 268.177ZM119.826 240.033L165.118 266.183L210.408 240.035L165.116 213.886L119.826 240.033Z" fill="white"/>
<path d="M212.135 295.322L211.705 295.072L163.393 267.181L212.134 239.038L212.564 239.287L260.876 267.179L212.135 295.322ZM166.844 267.179L212.135 293.327L257.425 267.179L212.134 241.031L166.844 267.179Z" fill="white"/>
<path d="M259.155 322.467L258.725 322.218L210.412 294.326L259.153 266.184L259.583 266.433L307.896 294.325L259.155 322.467ZM213.863 294.325L259.155 320.473L304.445 294.325L259.153 268.176L213.863 294.325Z" fill="white"/>
<path d="M306.17 349.613L305.74 349.363L257.428 321.472L306.169 293.329L306.599 293.578L354.912 321.47L306.17 349.613ZM260.879 321.47L306.17 347.618L351.461 321.47L306.169 295.322L260.879 321.47Z" fill="white"/>
<path d="M353.186 376.756L304.445 348.613L353.186 320.471L401.928 348.615L353.186 376.756ZM307.896 348.615L353.186 374.763L398.477 348.616L353.186 322.467L307.896 348.615Z" fill="white"/>
<path d="M400.206 403.903L351.463 375.76L400.204 347.619L400.634 347.868L448.947 375.76L400.206 403.903ZM354.914 375.76L400.206 401.91L445.496 375.762L400.204 349.613L354.914 375.76Z" fill="white"/>
<path d="M447.223 431.049L446.793 430.8L398.48 402.908L447.222 374.766L447.652 375.015L495.964 402.907L447.223 431.049ZM401.93 402.908L447.222 429.056L492.512 402.908L447.22 376.76L401.93 402.908Z" fill="white"/>
<path d="M494.241 458.194L493.811 457.944L445.498 430.053L494.239 401.91L494.669 402.159L542.982 430.051L494.241 458.194ZM448.948 430.051L494.239 456.199L539.529 430.051L494.238 403.903L448.948 430.051Z" fill="white"/>
<path d="M541.258 485.34L540.828 485.091L492.516 457.199L541.257 429.057L541.687 429.306L589.999 457.198L541.258 485.34ZM495.967 457.198L541.258 483.346L586.549 457.198L541.257 431.049L495.967 457.198Z" fill="white"/>
<path d="M71.0865 268.175L70.6564 267.926L22.3438 240.034L71.0849 211.892L71.5149 212.141L119.828 240.033L71.0865 268.175ZM25.7932 240.033L71.0849 266.181L116.375 240.033L71.0849 213.884L25.7932 240.033Z" fill="white"/>
<path d="M118.102 295.32L117.672 295.07L69.3594 267.179L118.101 239.036L166.843 267.179L118.102 295.32ZM72.8088 267.177L118.101 293.325L163.391 267.179L118.099 241.029L72.8088 267.177Z" fill="white"/>
<path d="M165.12 322.466L164.69 322.217L116.377 294.325L165.118 266.186L165.548 266.435L213.861 294.327L165.12 322.466ZM119.828 294.323L165.12 320.472L210.41 294.325L165.118 268.177L119.828 294.323Z" fill="white"/>
<path d="M212.139 349.613L163.396 321.47L212.138 293.329L212.568 293.578L260.88 321.47L212.139 349.613ZM166.847 321.469L212.139 347.618L257.429 321.47L212.138 295.322L166.847 321.469Z" fill="white"/>
<path d="M259.157 376.756L258.727 376.507L210.414 348.615L259.155 320.473L259.585 320.722L307.898 348.614L259.157 376.756ZM213.865 348.615L259.157 374.764L304.447 348.615L259.155 322.467L213.865 348.615Z" fill="white"/>
<path d="M306.171 403.9L257.43 375.758L306.171 347.615L354.912 375.758L306.171 403.9ZM260.881 375.759L306.171 401.908L351.461 375.759L306.171 349.611L260.881 375.759Z" fill="white"/>
<path d="M353.188 431.048L352.758 430.799L304.445 402.907L353.186 374.765L401.929 402.909L353.188 431.048ZM307.896 402.907L353.188 429.056L398.478 402.909L353.186 376.759L307.896 402.907Z" fill="white"/>
<path d="M400.206 458.193L399.776 457.943L351.463 430.052L400.204 401.912L400.634 402.161L448.947 430.053L400.206 458.193ZM354.914 430.05L400.206 456.198L445.496 430.052L400.204 403.903L354.914 430.05Z" fill="white"/>
<path d="M447.225 485.34L398.482 457.196L447.224 429.057L447.654 429.306L495.966 457.198L447.225 485.34ZM401.932 457.196L447.224 483.346L492.514 457.198L447.222 431.049L401.932 457.196Z" fill="white"/>
<path d="M71.0904 322.465L70.6604 322.216L22.3477 294.324L71.0888 266.182L71.5188 266.431L119.832 294.323L71.0904 322.465ZM25.7987 294.323L71.0904 320.471L116.381 294.323L71.0888 268.174L25.7987 294.323Z" fill="white"/>
<path d="M118.106 349.611L117.676 349.361L69.3633 321.47L118.104 293.327L118.534 293.576L166.847 321.468L118.106 349.611ZM72.8127 321.468L118.104 347.616L163.395 321.468L118.103 295.32L72.8127 321.468Z" fill="white"/>
<path d="M165.12 376.754L164.69 376.505L116.377 348.613L165.118 320.471L213.861 348.613L165.12 376.754ZM119.828 348.613L165.12 374.762L210.41 348.615L165.118 322.465L119.828 348.613Z" fill="white"/>
<path d="M212.139 403.901L163.396 375.758L212.138 347.617L212.568 347.866L260.88 375.758L212.139 403.901ZM166.847 375.758L212.139 401.908L257.429 375.76L212.138 349.611L166.847 375.758Z" fill="white"/>
<path d="M259.159 431.048L258.729 430.799L210.416 402.907L259.157 374.765L307.898 402.907L259.159 431.048ZM213.865 402.907L259.157 429.056L304.446 402.907L259.156 376.759L213.865 402.907Z" fill="white"/>
<path d="M306.171 458.193L257.43 430.051L306.169 401.908L306.599 402.157L354.912 430.049L306.171 458.193ZM260.881 430.051L306.171 456.199L351.461 430.051L306.169 403.902L260.881 430.051Z" fill="white"/>
<path d="M353.192 485.338L352.762 485.089L304.449 457.197L353.19 429.055L353.62 429.304L401.933 457.196L353.192 485.338ZM307.9 457.196L353.192 483.344L398.482 457.196L353.19 431.047L307.9 457.196Z" fill="white"/>
<path d="M71.0904 376.755L70.6604 376.506L22.3477 348.614L71.0888 320.472L71.5188 320.721L119.831 348.613L71.0904 376.755ZM25.7971 348.614L71.0888 374.763L116.379 348.614L71.0873 322.466L25.7971 348.614Z" fill="white"/>
<path d="M118.106 403.899L117.676 403.65L69.3633 375.758L118.104 347.615L118.534 347.865L166.847 375.756L118.106 403.899ZM72.8127 375.758L118.104 401.906L163.395 375.758L118.103 349.61L72.8127 375.758Z" fill="white"/>
<path d="M165.124 431.044L164.694 430.795L116.381 402.903L165.122 374.761L213.865 402.905L165.124 431.044ZM119.832 402.903L165.124 429.052L210.414 402.905L165.122 376.755L119.832 402.903Z" fill="white"/>
<path d="M212.141 458.191L211.711 457.942L163.398 430.05L212.14 401.909L212.57 402.158L260.882 430.05L212.141 458.191ZM166.849 430.049L212.141 456.197L257.431 430.05L212.14 403.902L166.849 430.049Z" fill="white"/>
<path d="M259.157 485.337L210.416 457.193L259.157 429.054L307.898 457.196L259.157 485.337ZM213.865 457.193L259.156 483.343L304.446 457.195L259.156 431.046L213.865 457.193Z" fill="white"/>
<path d="M71.0903 431.044L22.3477 402.902L71.0888 374.761L71.5188 375.01L119.831 402.902L71.0903 431.044ZM25.7971 402.902L71.0888 429.052L116.379 402.903L71.0872 376.755L25.7971 402.902Z" fill="white"/>
<path d="M118.106 458.192L117.676 457.942L69.3633 430.051L118.104 401.908L118.534 402.157L166.847 430.049L118.106 458.192ZM72.8143 430.049L118.106 456.198L163.396 430.049L118.104 403.901L72.8143 430.049Z" fill="white"/>
<path d="M165.124 485.336L164.694 485.087L116.381 457.195L165.122 429.053L165.552 429.302L213.865 457.194L165.124 485.336ZM119.832 457.194L165.124 483.342L210.414 457.194L165.122 431.045L119.832 457.194Z" fill="white"/>
<path d="M71.0904 485.336L22.3477 457.194L71.0888 429.053L71.5188 429.302L119.832 457.194L71.0904 485.336ZM25.7971 457.192L71.0888 483.342L116.379 457.194L71.0873 431.045L25.7971 457.192Z" fill="white"/>
</g>
<path d="M396.904 421.076C396.904 424.064 394.806 427.699 392.218 429.195C389.63 430.689 387.531 429.478 387.531 426.489C387.531 423.5 389.63 419.865 392.218 418.371C394.806 416.876 396.904 418.088 396.904 421.076Z" fill="white"/>
<path d="M412.098 412.305C412.098 415.293 409.999 418.928 407.411 420.423C404.823 421.918 402.725 420.707 402.725 417.717C402.725 414.727 404.823 411.094 407.411 409.6C409.999 408.104 412.098 409.316 412.098 412.305Z" fill="white"/>
<path d="M427.289 403.534C427.289 406.523 425.19 410.158 422.603 411.652C420.015 413.146 417.916 411.935 417.916 408.945C417.916 405.956 420.015 402.322 422.603 400.827C425.19 399.334 427.289 400.545 427.289 403.534Z" fill="white"/>
<path d="M442.482 394.763C442.482 397.751 440.384 401.386 437.796 402.88C435.208 404.374 433.109 403.164 433.109 400.174C433.109 397.184 435.208 393.551 437.796 392.055C440.384 390.563 442.482 391.773 442.482 394.763Z" fill="white"/>
<path d="M8.21389 307.035L0 311.778V302.294L8.21389 297.552V307.035Z" fill="white"/>
<path d="M21.5264 299.35L13.3125 304.093V294.609L21.5264 289.866V299.35Z" fill="white"/>
<path d="M34.8369 291.662L26.623 296.405V286.921L34.8369 282.179V291.662Z" fill="white"/>
<path d="M48.1514 283.978L39.9375 288.72V279.237L48.1514 274.494V283.978Z" fill="white"/>
<path d="M148.871 416.481L139.498 421.893V411.07L148.871 405.657V416.481Z" fill="white"/>
<path d="M161.882 408.876L152.508 414.289V403.465L161.882 398.053V408.876Z" fill="white"/>
<path d="M148.953 430.524L139.58 435.935V425.111L148.953 419.7V430.524Z" fill="white"/>
<path d="M161.882 423.058L152.508 428.471V417.647L161.882 412.234V423.058Z" fill="white"/>
<path opacity="0.5" d="M249.675 430.489C248.273 431.299 246.954 432.461 245.788 433.829C245.606 426.164 240.106 423.102 233.333 427.013C231.163 428.266 229.124 430.085 227.347 432.237C224.333 426.966 218.085 425.743 210.846 429.922C200.666 435.799 192.413 450.094 192.413 461.847C192.413 462.818 192.49 463.722 192.599 464.596C191.147 464.22 189.368 464.522 187.437 465.638C182.567 468.45 178.617 475.29 178.617 480.913C178.617 486.537 182.567 488.817 187.437 486.004L249.679 450.07C254.362 447.367 258.157 440.791 258.157 435.384C258.157 429.978 254.359 427.784 249.675 430.489Z" fill="white"/>
<path d="M548.434 262.831L513.236 242.512L548.432 222.19L583.629 242.512L548.434 262.831Z" fill="#7DC3EA"/>
<path d="M548.435 250.249C547.972 250.249 547.511 250.129 547.098 249.89L511.901 229.569C511.072 229.091 510.562 228.207 510.562 227.252C510.562 226.297 511.074 225.412 511.901 224.935L547.097 204.616C547.924 204.137 548.944 204.137 549.772 204.616L584.969 224.935C585.796 225.414 586.307 226.297 586.307 227.252C586.307 228.207 585.798 229.092 584.969 229.569L549.773 249.89C549.359 250.129 548.898 250.249 548.435 250.249ZM518.588 227.251L548.433 244.481L578.277 227.251L548.432 210.02L518.588 227.251Z" fill="white"/>
<path d="M583.631 211.373L548.436 231.695V191.055L583.631 170.735V211.373Z" fill="url(#paint0_radial_2794_1352)"/>
<path d="M548.436 191.055L513.24 170.735L548.434 150.415L583.63 170.735L548.436 191.055Z" fill="url(#paint1_linear_2794_1352)"/>
<path d="M548.436 231.695L513.24 211.373V170.735L548.436 191.055V231.695Z" fill="url(#paint2_radial_2794_1352)"/>
<path d="M535.758 209.738L525.914 204.056V192.688L535.758 198.372V209.738Z" fill="white"/>
<path d="M58.5034 417.569L9.94762 389.536C6.96713 387.816 7.34104 384.81 10.7827 382.824L57.6667 355.755C61.1084 353.768 66.3122 353.552 69.2927 355.273L117.848 383.307C120.829 385.027 120.455 388.032 117.013 390.019L70.1293 417.086C66.6876 419.075 61.4823 419.291 58.5034 417.569Z" fill="#7DC3EA"/>
<path d="M63.5786 406.161C61.2073 406.161 58.917 405.651 57.1237 404.618L8.56801 376.585C6.41326 375.34 5.17773 373.407 5.17773 371.281C5.17773 368.902 6.71706 366.646 9.40153 365.096L56.2871 338.027C60.6246 335.523 66.8115 335.319 70.6707 337.544L119.225 365.578C121.38 366.821 122.617 368.754 122.617 370.879C122.617 373.262 121.076 375.516 118.39 377.066L71.5058 404.135C69.1813 405.48 66.3239 406.161 63.5786 406.161ZM59.8814 399.842C62.0253 401.08 66.1681 400.851 68.7481 399.36L115.634 372.289C116.812 371.61 117.095 370.995 117.101 370.879C117.084 370.845 116.927 370.621 116.469 370.356L67.9146 342.322C65.7723 341.085 61.6295 341.311 59.0448 342.805L12.1608 369.873C10.9829 370.554 10.6994 371.168 10.6947 371.283C10.7103 371.319 10.8676 371.545 11.3273 371.81L59.8814 399.842Z" fill="white"/>
<path d="M119.843 353.703V336.949L82.2763 336.929L69.2917 329.432C66.3112 327.712 61.1059 327.927 57.6657 329.913L45.5506 336.907L7.95084 336.887V354.117C7.86515 355.281 8.51485 356.406 9.94667 357.232L58.5024 385.265C61.4829 386.985 66.6883 386.77 70.1284 384.784L117.012 357.715C118.997 356.568 119.955 355.085 119.843 353.703Z" fill="#396CAA"/>
<path d="M63.8978 328.28C61.7166 328.333 59.4544 328.883 57.6657 329.915L45.5506 336.909L7.95084 336.888V354.118C7.86515 355.282 8.51485 356.407 9.94667 357.233L58.5024 385.266C59.9342 386.094 61.8802 386.468 63.8978 386.419V328.28Z" fill="url(#paint3_radial_2794_1352)"/>
<path d="M12.2058 336.89L7.95084 336.889V354.119C7.86515 355.283 8.51485 356.408 9.94667 357.233L12.2058 358.537V336.89Z" fill="#D4ECFF"/>
<path d="M59.25 385.631C61.8207 386.733 65.5382 386.67 68.5436 385.525V365.961H59.25V385.631Z" fill="#5793CE"/>
<path d="M58.5034 368.098L9.94762 340.065C6.96713 338.345 7.34104 335.339 10.7827 333.353L57.6667 306.285C61.1084 304.299 66.3122 304.082 69.2927 305.804L117.848 333.837C120.829 335.557 120.455 338.563 117.013 340.549L70.1293 367.618C66.6876 369.603 61.4823 369.818 58.5034 368.098Z" fill="url(#paint4_linear_2794_1352)"/>
<path d="M117.012 337.251L70.128 364.32C66.6863 366.306 61.4825 366.523 58.502 364.801L9.9463 336.768C9.28259 336.385 8.79338 335.934 8.45996 335.448C7.43634 337.095 7.90062 338.884 9.9463 340.065L58.502 368.098C61.4825 369.818 66.6879 369.603 70.128 367.617L117.012 340.549C119.686 339.005 120.497 336.849 119.333 335.155C118.866 335.906 118.09 336.628 117.012 337.251Z" fill="white"/>
<path d="M101.984 358.122C101.984 359.373 101.106 360.893 100.022 361.518C98.9377 362.143 98.0605 361.637 98.0605 360.386C98.0605 359.134 98.9393 357.614 100.022 356.989C101.106 356.364 101.984 356.872 101.984 358.122Z" fill="#D4ECFF"/>
<path d="M108.296 354.479C108.296 355.73 107.417 357.251 106.335 357.876C105.252 358.5 104.373 357.994 104.373 356.743C104.373 355.492 105.252 353.971 106.335 353.346C107.417 352.722 108.296 353.23 108.296 354.479Z" fill="#D4ECFF"/>
<path d="M114.603 350.837C114.603 352.088 113.726 353.609 112.641 354.233C111.558 354.858 110.68 354.352 110.68 353.101C110.68 351.849 111.558 350.329 112.641 349.704C113.726 349.079 114.603 349.586 114.603 350.837Z" fill="#D4ECFF"/>
<path d="M61.373 350.718L38.6524 337.599C37.258 336.794 37.4325 335.388 39.0435 334.458L60.982 321.791C62.593 320.861 65.0282 320.762 66.4226 321.565L89.1432 334.684C90.5376 335.49 90.3631 336.895 88.7522 337.825L66.8136 350.492C65.2042 351.42 62.7675 351.522 61.373 350.718Z" fill="#5793CE"/>
<path d="M63.5496 339.734L60.4055 337.919C60.2123 337.807 60.2373 337.614 60.4601 337.485L63.4951 335.732C63.7179 335.604 64.0544 335.59 64.2476 335.701L67.3917 337.516C67.5849 337.628 67.56 337.821 67.3372 337.95L64.3021 339.703C64.0793 339.831 63.7412 339.845 63.5496 339.734Z" fill="#D4ECFF"/>
<path d="M38.6524 337.6L38.7163 337.637C38.8222 337.561 38.9204 337.483 39.0435 337.413L60.982 324.746C62.593 323.816 65.0282 323.715 66.4226 324.52L89.0793 337.601C90.3647 336.681 90.4317 335.428 89.1432 334.685L66.4226 321.566C65.0282 320.761 62.593 320.862 60.982 321.792L39.0435 334.459C37.4325 335.387 37.258 336.794 38.6524 337.6Z" fill="#396CAA"/>
<path d="M141.146 186.373C140.227 186.904 139.339 187.568 138.49 188.319C138.122 176.366 129.489 171.612 118.864 177.746C110.21 182.743 102.88 193.439 100.251 203.923C98.1139 203.634 95.6055 204.191 92.9101 205.747C85.1636 210.219 78.8848 221.095 78.8848 230.038C78.8848 238.983 85.1636 242.607 92.9101 238.135L141.146 210.286C146.866 206.984 151.501 198.954 151.501 192.351C151.501 185.748 146.866 183.072 141.146 186.373Z" fill="white"/>
<path d="M545.324 17.1318C543.721 18.0573 542.213 19.3847 540.881 20.9505C540.672 12.1913 534.387 8.69042 526.646 13.1604C524.166 14.5922 521.835 16.6722 519.805 19.1307C516.359 13.1074 509.22 11.7099 500.947 16.4852C489.313 23.2018 479.881 39.5377 479.881 52.971C479.881 54.0803 479.968 55.1133 480.093 56.112C478.433 55.682 476.4 56.0294 474.194 57.3023C468.627 60.5165 464.115 68.3315 464.115 74.7599C464.115 81.1868 468.629 83.7934 474.194 80.5792L545.326 39.5112C550.677 36.4217 555.016 28.9073 555.016 22.7282C555.016 16.5491 550.676 14.0422 545.324 17.1318Z" fill="white"/>
<path d="M496.257 318.658C495.888 318.658 495.512 318.57 495.163 318.388C494.007 317.782 493.56 316.355 494.163 315.197C496.565 310.603 500.085 306.731 503.819 304.578C506.166 303.222 508.466 302.593 510.623 302.696C510.717 302.702 510.813 302.704 510.912 302.704C513.905 302.704 517.566 300.434 520.774 296.568C522.658 294.298 524.723 292.508 526.914 291.241C529.268 289.886 531.555 289.261 533.719 289.359C536.711 289.552 540.558 287.221 543.872 283.231C545.726 280.997 547.851 279.156 550.012 277.906C552.361 276.549 554.63 275.92 556.817 276.024C559.79 276.225 563.655 273.886 566.968 269.896C568.851 267.626 570.917 265.836 573.108 264.569C576.578 262.57 580.03 262.14 582.844 263.36C584.04 263.882 584.589 265.275 584.069 266.472C583.545 267.67 582.155 268.21 580.957 267.696C579.555 267.081 577.607 267.43 575.471 268.664C573.79 269.634 572.106 271.104 570.603 272.914C566.284 278.123 561.13 280.943 556.58 280.745C555.35 280.667 553.901 281.116 552.375 281.999C550.691 282.971 549.008 284.44 547.506 286.249C543.188 291.455 538.094 294.279 533.483 294.08C532.261 293.997 530.806 294.451 529.278 295.336C527.596 296.305 525.912 297.774 524.409 299.586C520.088 304.793 514.928 307.618 510.387 307.417C509.14 307.332 507.707 307.787 506.181 308.671C503.203 310.391 500.348 313.568 498.352 317.388C497.932 318.197 497.109 318.658 496.257 318.658Z" fill="white"/>
<path d="M303.053 436.846L109.478 325.086C104.002 321.925 104.689 316.402 111.012 312.751L242.822 236.676C249.144 233.026 258.71 232.629 264.185 235.791L457.76 347.551C463.237 350.713 462.549 356.236 456.227 359.886L324.417 435.961C318.094 439.612 308.53 440.008 303.053 436.846Z" fill="#7DC3EA"/>
<path d="M312.356 419.878C308.479 419.878 304.76 419.072 301.92 417.433L108.347 305.673C105.231 303.875 103.515 301.275 103.514 298.352C103.514 295.006 105.834 291.746 109.88 289.411L241.69 213.336C248.745 209.261 259.126 208.873 265.322 212.451L458.895 324.211C462.011 326.009 463.728 328.609 463.728 331.533C463.727 334.88 461.408 338.139 457.362 340.473L325.552 416.548C321.732 418.753 316.935 419.878 312.356 419.878ZM304.187 413.504C308.947 416.252 317.69 415.846 323.285 412.619L455.095 336.544C457.661 335.064 459.191 333.19 459.191 331.53C459.191 329.949 457.797 328.813 456.628 328.137L263.055 216.377C258.294 213.627 249.55 214.034 243.957 217.262L112.147 293.337C109.582 294.819 108.051 296.691 108.051 298.351C108.051 299.932 109.445 301.068 110.614 301.744L304.187 413.504Z" fill="white"/>
<path d="M505.773 112.959L312.198 1.19716C309.95 -0.100676 307.666 -0.301659 305.639 0.393219L305.651 0.372964L305.299 0.505395C305.271 0.516301 305.242 0.525655 305.213 0.538119L298.218 3.2148L304.497 6.28878C304.469 6.40407 304.433 6.51314 304.406 6.62999L270.203 162.177C268.625 169.359 271.785 177.745 277.261 180.906L466.18 289.978L465.507 297.983L473.153 295.02C475.72 293.819 477.778 291.102 478.627 287.231L512.831 131.686C514.409 124.505 511.249 116.12 505.773 112.959Z" fill="#173D7A"/>
<path d="M505.771 112.959L312.196 1.19716C309.948 -0.100676 307.663 -0.301659 305.637 0.393219L305.649 0.372964L305.297 0.505395C305.269 0.516301 305.239 0.525655 305.211 0.538119L298.216 3.2148L304.494 6.28878C304.466 6.40407 304.431 6.51314 304.404 6.62999L280.951 113.242L375.665 187.033L511.886 120.671C510.602 117.346 508.471 114.517 505.771 112.959Z" fill="#396CAA"/>
<path d="M498.474 135.02L513.21 128.746C513.479 123.039 511.117 117.143 507.239 113.991L483.914 123.804L498.474 135.02Z" fill="#274F89"/>
<path d="M458.781 297.225L265.206 185.465C259.73 182.303 256.57 173.918 258.148 166.736L292.352 11.1904C293.93 4.00787 299.648 0.748484 305.124 3.90971L498.699 115.67C504.176 118.831 507.335 127.216 505.757 134.4L471.554 289.946C469.976 297.127 464.258 300.386 458.781 297.225Z" fill="url(#paint5_radial_2794_1352)"/>
<path d="M500.556 114.988L306.981 3.22749C304.328 1.69595 301.628 1.69751 299.359 2.89563C301.181 2.49833 303.164 2.77566 305.123 3.90679L498.697 115.667C504.174 118.828 507.333 127.215 505.755 134.397L471.552 289.943C470.739 293.646 468.816 296.279 466.401 297.554C469.668 296.84 472.396 293.877 473.411 289.262L507.614 133.717C509.192 126.536 506.033 118.149 500.556 114.988Z" fill="white"/>
<path d="M454.584 286.55L272.531 181.492C267.52 178.599 264.629 170.926 266.073 164.352L297.598 20.994C299.042 14.4207 304.274 11.4387 309.286 14.3319L491.339 119.389C496.35 122.283 499.242 129.956 497.799 136.529L466.272 279.888C464.828 286.459 459.596 289.441 454.584 286.55Z" fill="white"/>
<path d="M454.584 286.55L272.531 181.492C267.52 178.599 264.629 170.926 266.073 164.352L297.598 20.994C299.042 14.4207 304.274 11.4387 309.286 14.3319L491.339 119.389C496.35 122.283 499.242 129.956 497.799 136.529L466.272 279.888C464.828 286.459 459.596 289.441 454.584 286.55Z" fill="url(#paint6_radial_2794_1352)"/>
<path d="M456.172 285.902L274.119 180.844C269.108 177.951 266.216 170.278 267.661 163.706L299.186 20.3475C299.916 17.0211 301.621 14.6249 303.772 13.4346C300.887 14.1777 298.502 16.8825 297.598 20.9941L266.073 164.352C264.629 170.926 267.52 178.599 272.531 181.492L454.584 286.55C457.058 287.978 459.584 287.964 461.684 286.801C459.956 287.245 458.048 286.986 456.172 285.902Z" fill="#5793CE"/>
<path d="M461.454 302.091L434.994 298.598L264.187 199.983C258.71 196.822 249.146 197.218 242.823 200.868L121.79 270.72L105.789 268.608V277.686L105.805 277.688C105.7 279.787 106.895 281.804 109.478 283.295L303.053 395.055C308.53 398.217 318.094 397.821 324.417 394.17L456.227 318.095C459.784 316.042 461.557 313.396 461.453 310.911V302.091H461.454Z" fill="#173D7A"/>
<path d="M333.117 239.779L320.981 232.772H187.563L121.79 270.721L105.789 268.609V277.687L105.805 277.689C105.7 279.787 106.895 281.805 109.478 283.296L303.053 395.056C305.947 396.726 309.983 397.395 314.079 397.122L333.117 239.779Z" fill="#396CAA"/>
<path d="M112.889 269.544L105.789 268.606V277.685L105.805 277.687C105.7 279.785 106.895 281.803 109.478 283.294L112.891 285.263V269.544H112.889Z" fill="#5793CE"/>
<path d="M305.002 395.963C310.192 397.931 317.613 397.502 323.154 394.837V374.587H305.002V395.963Z" fill="#274F89"/>
<path d="M303.053 385.99L109.478 274.228C104.002 271.067 104.689 265.543 111.012 261.893L242.822 185.818C249.144 182.167 258.71 181.77 264.185 184.933L457.76 296.693C463.237 299.854 462.549 305.377 456.227 309.028L324.417 385.103C318.094 388.753 308.53 389.151 303.053 385.99Z" fill="url(#paint7_radial_2794_1352)"/>
<path d="M456.227 305.713L324.417 381.788C318.094 385.439 308.528 385.836 303.053 382.675L109.478 270.913C107.684 269.877 106.563 268.585 106.074 267.189C105.217 269.779 106.309 272.399 109.478 274.23L303.053 385.99C308.53 389.151 318.094 388.756 324.417 385.105L456.227 309.03C460.477 306.576 462.168 303.28 461.164 300.419C460.543 302.304 458.891 304.175 456.227 305.713Z" fill="white"/>
<path d="M191.808 237.23L183.049 232.173C182.346 231.766 182.433 231.057 183.247 230.588L193.584 224.62C194.396 224.151 195.625 224.099 196.328 224.506L205.085 229.563C205.788 229.97 205.701 230.679 204.889 231.148L194.552 237.116C193.738 237.585 192.511 237.635 191.808 237.23Z" fill="#5793CE"/>
<path d="M205.334 245.039L196.576 239.982C195.874 239.575 195.961 238.866 196.773 238.397L207.11 232.429C207.922 231.96 209.151 231.91 209.854 232.315L218.613 237.372C219.316 237.779 219.228 238.488 218.417 238.957L208.079 244.925C207.266 245.394 206.037 245.444 205.334 245.039Z" fill="#5793CE"/>
<path d="M218.861 252.848L210.102 247.791C209.399 247.384 209.486 246.675 210.299 246.207L220.637 240.238C221.449 239.769 222.678 239.717 223.381 240.124L232.14 245.181C232.842 245.588 232.755 246.297 231.943 246.766L221.606 252.735C220.791 253.204 219.563 253.253 218.861 252.848Z" fill="#5793CE"/>
<path d="M237.564 246.399L228.807 241.342C228.104 240.935 228.191 240.226 229.003 239.757L237.681 234.747C238.493 234.278 239.722 234.228 240.425 234.633L249.184 239.69C249.887 240.096 249.8 240.806 248.988 241.275L240.31 246.286C239.496 246.755 238.269 246.804 237.564 246.399Z" fill="#5793CE"/>
<path d="M251.093 254.208L242.334 249.15C241.631 248.744 241.719 248.035 242.53 247.566L251.209 242.555C252.02 242.086 253.25 242.035 253.952 242.441L262.711 247.499C263.414 247.905 263.327 248.614 262.515 249.083L253.837 254.094C253.024 254.563 251.796 254.613 251.093 254.208Z" fill="#5793CE"/>
<path d="M264.617 262.017L255.859 256.96C255.157 256.555 255.244 255.844 256.056 255.375L264.734 250.365C265.546 249.896 266.775 249.844 267.478 250.251L276.237 255.308C276.939 255.715 276.852 256.424 276.041 256.893L267.362 261.903C266.549 262.372 265.32 262.424 264.617 262.017Z" fill="#5793CE"/>
<path d="M278.142 269.825L269.383 264.767C268.68 264.361 268.768 263.652 269.579 263.183L278.257 258.172C279.069 257.703 280.298 257.652 281.001 258.059L289.76 263.116C290.463 263.523 290.376 264.231 289.562 264.7L280.884 269.711C280.074 270.18 278.846 270.231 278.142 269.825Z" fill="#5793CE"/>
<path d="M291.668 277.634L282.91 272.577C282.208 272.17 282.295 271.461 283.107 270.992L291.785 265.982C292.596 265.513 293.826 265.462 294.528 265.868L303.286 270.925C303.989 271.332 303.901 272.041 303.09 272.51L294.412 277.521C293.598 277.99 292.371 278.041 291.668 277.634Z" fill="#5793CE"/>
<path d="M305.193 285.446L296.434 280.389C295.731 279.982 295.818 279.273 296.63 278.804L305.308 273.793C306.12 273.324 307.349 273.273 308.052 273.68L316.811 278.737C317.514 279.142 317.426 279.853 316.613 280.322L307.935 285.332C307.125 285.801 305.896 285.851 305.193 285.446Z" fill="#5793CE"/>
<path d="M318.719 293.253L309.961 288.196C309.258 287.789 309.346 287.081 310.157 286.612L318.836 281.601C319.647 281.132 320.877 281.081 321.579 281.487L330.337 286.545C331.039 286.951 330.952 287.66 330.141 288.129L321.462 293.14C320.651 293.609 319.423 293.659 318.719 293.253Z" fill="#5793CE"/>
<path d="M332.246 301.062L323.486 296.005C322.784 295.6 322.871 294.889 323.683 294.42L332.361 289.41C333.173 288.941 334.402 288.889 335.105 289.296L343.864 294.353C344.566 294.76 344.479 295.469 343.666 295.938L334.988 300.948C334.176 301.417 332.948 301.467 332.246 301.062Z" fill="#5793CE"/>
<path d="M345.771 308.872L337.014 303.814C336.311 303.408 336.398 302.699 337.21 302.23L345.888 297.219C346.7 296.75 347.929 296.699 348.632 297.105L357.39 302.163C358.092 302.569 358.005 303.278 357.193 303.747L348.515 308.758C347.703 309.227 346.474 309.278 345.771 308.872Z" fill="#5793CE"/>
<path d="M359.294 316.68L350.535 311.623C349.833 311.216 349.92 310.507 350.732 310.038L359.41 305.028C360.221 304.559 361.451 304.507 362.153 304.914L370.913 309.971C371.615 310.378 371.528 311.087 370.715 311.556L362.037 316.567C361.226 317.035 359.999 317.087 359.294 316.68Z" fill="#5793CE"/>
<path d="M257.496 242.702L248.736 237.644C248.034 237.238 248.121 236.529 248.933 236.06L257.611 231.049C258.423 230.58 259.65 230.529 260.355 230.936L269.112 235.993C269.815 236.4 269.728 237.108 268.916 237.577L260.238 242.588C259.426 243.057 258.198 243.107 257.496 242.702Z" fill="#5793CE"/>
<path d="M243.769 234.776L235.01 229.719C234.307 229.312 234.394 228.603 235.206 228.134L243.884 223.123C244.696 222.655 245.925 222.603 246.628 223.01L255.387 228.067C256.09 228.474 256.003 229.183 255.191 229.652L246.513 234.662C245.699 235.131 244.472 235.181 243.769 234.776Z" fill="#5793CE"/>
<path d="M230.017 226.836L211.154 215.945C210.452 215.539 210.539 214.83 211.351 214.361L220.029 209.35C220.841 208.881 222.07 208.83 222.773 209.236L241.636 220.127C242.338 220.534 242.251 221.242 241.439 221.711L232.761 226.722C231.949 227.191 230.722 227.242 230.017 226.836Z" fill="#5793CE"/>
<path d="M239.628 217.183L224.32 208.345C223.618 207.938 223.705 207.229 224.517 206.76L233.195 201.749C234.007 201.28 235.234 201.229 235.939 201.636L251.246 210.474C251.949 210.881 251.862 211.59 251.05 212.059L242.372 217.07C241.56 217.538 240.332 217.59 239.628 217.183Z" fill="#5793CE"/>
<path d="M271.021 250.511L262.264 245.454C261.561 245.047 261.648 244.338 262.46 243.869L271.138 238.859C271.95 238.39 273.179 238.338 273.882 238.745L282.64 243.802C283.342 244.209 283.255 244.918 282.443 245.387L273.765 250.398C272.953 250.867 271.724 250.916 271.021 250.511Z" fill="#5793CE"/>
<path d="M284.546 258.32L275.787 253.263C275.085 252.856 275.172 252.147 275.984 251.678L284.662 246.667C285.473 246.198 286.701 246.147 287.405 246.554L296.163 251.611C296.866 252.018 296.778 252.727 295.967 253.196L287.289 258.206C286.478 258.675 285.251 258.727 284.546 258.32Z" fill="#5793CE"/>
<path d="M298.07 266.128L289.313 261.071C288.61 260.664 288.697 259.956 289.509 259.487L298.187 254.476C298.999 254.007 300.228 253.956 300.931 254.362L309.688 259.42C310.391 259.826 310.304 260.535 309.492 261.004L300.814 266.015C300.002 266.484 298.773 266.535 298.07 266.128Z" fill="#5793CE"/>
<path d="M311.599 273.936L302.84 268.879C302.137 268.474 302.225 267.763 303.036 267.294L311.714 262.284C312.526 261.815 313.754 261.763 314.458 262.17L323.216 267.227C323.918 267.634 323.831 268.343 323.019 268.812L314.341 273.822C313.531 274.291 312.302 274.343 311.599 273.936Z" fill="#5793CE"/>
<path d="M325.123 281.748L316.365 276.69C315.663 276.284 315.75 275.575 316.562 275.106L325.24 270.095C326.052 269.626 327.281 269.575 327.984 269.981L336.741 275.039C337.444 275.445 337.357 276.154 336.545 276.623L327.867 281.634C327.055 282.103 325.827 282.153 325.123 281.748Z" fill="#5793CE"/>
<path d="M338.648 289.556L329.889 284.499C329.186 284.092 329.273 283.383 330.085 282.914L338.763 277.904C339.575 277.435 340.804 277.383 341.507 277.79L350.265 282.847C350.967 283.254 350.88 283.963 350.068 284.432L341.39 289.442C340.58 289.911 339.351 289.961 338.648 289.556Z" fill="#5793CE"/>
<path d="M352.176 297.365L343.418 292.307C342.715 291.901 342.803 291.192 343.614 290.723L352.293 285.712C353.104 285.243 354.334 285.192 355.036 285.599L363.794 290.656C364.497 291.063 364.409 291.772 363.598 292.24L354.919 297.251C354.108 297.72 352.88 297.771 352.176 297.365Z" fill="#5793CE"/>
<path d="M365.701 305.174L356.942 300.117C356.239 299.71 356.326 299.001 357.138 298.533L365.816 293.522C366.628 293.053 367.857 293.002 368.56 293.408L377.319 298.466C378.022 298.872 377.934 299.581 377.123 300.05L368.444 305.061C367.633 305.53 366.405 305.581 365.701 305.174Z" fill="#5793CE"/>
<path d="M379.227 312.983L370.469 307.928C369.766 307.521 369.853 306.812 370.665 306.343L379.343 301.332C380.155 300.864 381.384 300.812 382.087 301.219L390.845 306.276C391.547 306.683 391.46 307.392 390.648 307.861L381.97 312.871C381.158 313.339 379.929 313.39 379.227 312.983Z" fill="#5793CE"/>
<path d="M403.273 326.867L384.162 315.833C383.46 315.426 383.547 314.717 384.359 314.248L393.037 309.238C393.848 308.769 395.078 308.717 395.78 309.124L414.891 320.158C415.594 320.565 415.506 321.273 414.695 321.742L406.017 326.753C405.205 327.222 403.977 327.272 403.273 326.867Z" fill="#5793CE"/>
<path d="M429.605 311.663L413.475 302.35C412.772 301.944 412.859 301.235 413.671 300.766L422.349 295.755C423.161 295.286 424.39 295.235 425.093 295.642L441.223 304.954C441.926 305.361 441.838 306.069 441.027 306.538L432.349 311.549C431.537 312.018 430.308 312.068 429.605 311.663Z" fill="#5793CE"/>
<path d="M294.705 248.982L285.947 243.925C285.245 243.518 285.332 242.809 286.144 242.34L294.822 237.33C295.634 236.861 296.863 236.809 297.566 237.216L306.323 242.273C307.026 242.68 306.939 243.389 306.127 243.858L297.449 248.868C296.637 249.337 295.408 249.389 294.705 248.982Z" fill="#5793CE"/>
<path d="M280.846 240.979L272.088 235.922C271.385 235.515 271.473 234.806 272.284 234.337L280.963 229.327C281.774 228.858 283.003 228.806 283.706 229.213L292.464 234.27C293.166 234.677 293.079 235.386 292.267 235.855L283.589 240.865C282.776 241.334 281.548 241.386 280.846 240.979Z" fill="#5793CE"/>
<path d="M266.982 232.975L258.225 227.918C257.522 227.511 257.609 226.802 258.421 226.333L267.099 221.323C267.911 220.854 269.14 220.802 269.843 221.209L278.601 226.266C279.303 226.673 279.216 227.382 278.404 227.851L269.726 232.861C268.914 233.33 267.687 233.382 266.982 232.975Z" fill="#5793CE"/>
<path d="M253.123 224.973L244.363 219.916C243.661 219.511 243.748 218.8 244.56 218.331L253.238 213.321C254.05 212.852 255.279 212.8 255.982 213.207L264.741 218.264C265.443 218.671 265.356 219.38 264.544 219.849L255.866 224.859C255.055 225.328 253.825 225.378 253.123 224.973Z" fill="#5793CE"/>
<path d="M308.234 256.791L299.475 251.733C298.772 251.327 298.859 250.618 299.672 250.149L308.351 245.138C309.162 244.669 310.392 244.618 311.094 245.024L319.854 250.082C320.556 250.488 320.469 251.197 319.657 251.666L310.979 256.677C310.166 257.146 308.938 257.197 308.234 256.791Z" fill="#5793CE"/>
<path d="M321.759 264.602L313 259.545C312.297 259.138 312.385 258.429 313.196 257.96L321.875 252.95C322.686 252.481 323.916 252.429 324.618 252.836L333.376 257.893C334.079 258.3 333.991 259.009 333.18 259.478L324.501 264.488C323.69 264.956 322.462 265.007 321.759 264.602Z" fill="#5793CE"/>
<path d="M335.287 272.411L326.527 267.353C325.825 266.947 325.912 266.238 326.724 265.769L335.402 260.758C336.214 260.289 337.443 260.238 338.146 260.645L346.905 265.702C347.607 266.109 347.52 266.817 346.709 267.286L338.03 272.297C337.219 272.766 335.989 272.816 335.287 272.411Z" fill="#5793CE"/>
<path d="M348.808 280.218L340.049 275.161C339.346 274.754 339.434 274.045 340.245 273.576L348.923 268.566C349.735 268.097 350.964 268.045 351.667 268.452L360.425 273.509C361.127 273.916 361.04 274.625 360.228 275.094L351.55 280.105C350.74 280.574 349.512 280.625 348.808 280.218Z" fill="#5793CE"/>
<path d="M362.335 288.027L353.576 282.97C352.874 282.563 352.961 281.854 353.773 281.385L362.451 276.374C363.263 275.905 364.492 275.854 365.194 276.261L373.954 281.318C374.656 281.725 374.569 282.434 373.757 282.903L365.079 287.913C364.266 288.382 363.038 288.434 362.335 288.027Z" fill="#5793CE"/>
<path d="M375.863 295.836L367.104 290.779C366.401 290.373 366.488 289.664 367.3 289.195L375.978 284.184C376.79 283.715 378.019 283.664 378.722 284.07L387.481 289.128C388.184 289.534 388.096 290.243 387.285 290.712L378.606 295.723C377.795 296.192 376.565 296.243 375.863 295.836Z" fill="#5793CE"/>
<path d="M389.388 303.647L380.629 298.59C379.926 298.183 380.014 297.474 380.825 297.005L389.504 291.995C390.315 291.526 391.545 291.474 392.247 291.881L401.006 296.938C401.709 297.345 401.622 298.054 400.81 298.523L392.132 303.533C391.32 304.001 390.092 304.052 389.388 303.647Z" fill="#5793CE"/>
<path d="M402.916 311.455L394.156 306.397C393.454 305.991 393.541 305.282 394.353 304.813L403.031 299.802C403.843 299.333 405.072 299.282 405.775 299.688L414.534 304.746C415.236 305.152 415.149 305.861 414.337 306.33L405.659 311.341C404.846 311.81 403.618 311.86 402.916 311.455Z" fill="#5793CE"/>
<path d="M416.441 319.265L407.682 314.208C406.979 313.803 407.066 313.092 407.878 312.623L416.556 307.613C417.368 307.144 418.597 307.092 419.3 307.499L428.059 312.556C428.762 312.963 428.675 313.672 427.863 314.141L419.185 319.151C418.373 319.62 417.144 319.67 416.441 319.265Z" fill="#5793CE"/>
<path d="M287.586 229.667L278.828 224.609C278.126 224.203 278.213 223.494 279.025 223.025L287.703 218.014C288.514 217.545 289.744 217.494 290.446 217.9L299.206 222.958C299.908 223.364 299.821 224.073 299.009 224.542L290.331 229.553C289.516 230.022 288.289 230.073 287.586 229.667Z" fill="#5793CE"/>
<path d="M274.125 221.898L265.365 216.841C264.663 216.434 264.75 215.725 265.562 215.256L274.24 210.246C275.052 209.777 276.281 209.725 276.984 210.132L285.743 215.189C286.445 215.596 286.358 216.305 285.546 216.774L276.868 221.784C276.056 222.253 274.829 222.303 274.125 221.898Z" fill="#5793CE"/>
<path d="M260.669 214.127L251.91 209.069C251.208 208.663 251.295 207.954 252.107 207.485L260.785 202.474C261.596 202.005 262.826 201.954 263.528 202.36L272.288 207.418C272.99 207.824 272.903 208.533 272.091 209.002L263.413 214.013C262.601 214.482 261.374 214.533 260.669 214.127Z" fill="#5793CE"/>
<path d="M247.21 206.357L238.451 201.3C237.749 200.893 237.836 200.184 238.648 199.715L247.326 194.705C248.138 194.236 249.367 194.186 250.069 194.591L258.829 199.648C259.531 200.054 259.444 200.764 258.632 201.233L249.954 206.244C249.142 206.713 247.915 206.764 247.21 206.357Z" fill="#5793CE"/>
<path d="M261.049 198.367L252.291 193.309C251.588 192.903 251.676 192.194 252.487 191.725L255.356 190.069C256.167 189.6 257.397 189.548 258.099 189.955L266.857 195.012C267.56 195.419 267.472 196.128 266.661 196.597L263.792 198.253C262.981 198.722 261.751 198.772 261.049 198.367Z" fill="#5793CE"/>
<path d="M278.613 208.506L269.854 203.449C269.151 203.042 269.238 202.334 270.05 201.865L272.918 200.208C273.73 199.739 274.959 199.688 275.662 200.095L284.421 205.152C285.124 205.559 285.037 206.268 284.225 206.737L281.356 208.393C280.543 208.862 279.315 208.913 278.613 208.506Z" fill="#5793CE"/>
<path d="M292.013 216.245L283.254 211.187C282.551 210.781 282.639 210.072 283.45 209.603L286.319 207.947C287.13 207.478 288.36 207.426 289.062 207.833L297.822 212.89C298.524 213.297 298.437 214.006 297.625 214.475L294.757 216.131C293.945 216.598 292.716 216.65 292.013 216.245Z" fill="#5793CE"/>
<path d="M305.418 223.983L296.66 218.926C295.958 218.519 296.045 217.81 296.857 217.341L299.725 215.685C300.537 215.216 301.764 215.165 302.469 215.571L311.226 220.629C311.929 221.035 311.842 221.744 311.03 222.213L308.162 223.869C307.35 224.338 306.121 224.39 305.418 223.983Z" fill="#5793CE"/>
<path d="M318.818 231.72L310.061 226.663C309.358 226.256 309.445 225.547 310.257 225.078L313.125 223.422C313.937 222.953 315.166 222.902 315.869 223.309L324.627 228.366C325.329 228.773 325.242 229.481 324.43 229.95L321.562 231.607C320.75 232.076 319.521 232.127 318.818 231.72Z" fill="#5793CE"/>
<path d="M393.646 274.919L384.887 269.861C384.184 269.455 384.271 268.746 385.085 268.277L387.953 266.621C388.765 266.152 389.994 266.1 390.697 266.507L399.456 271.564C400.158 271.971 400.071 272.68 399.259 273.149L396.391 274.805C395.576 275.274 394.349 275.325 393.646 274.919Z" fill="#5793CE"/>
<path d="M407.046 282.657L398.287 277.6C397.585 277.193 397.672 276.484 398.484 276.015L401.352 274.359C402.164 273.89 403.393 273.838 404.096 274.245L412.855 279.302C413.557 279.709 413.47 280.418 412.658 280.887L409.79 282.543C408.978 283.012 407.749 283.064 407.046 282.657Z" fill="#5793CE"/>
<path d="M420.447 290.395L411.688 285.338C410.985 284.931 411.072 284.222 411.884 283.753L414.752 282.097C415.564 281.628 416.793 281.577 417.496 281.983L426.255 287.041C426.958 287.447 426.871 288.156 426.059 288.625L423.19 290.281C422.379 290.75 421.149 290.802 420.447 290.395Z" fill="#5793CE"/>
<path d="M433.849 298.133L425.09 293.076C424.387 292.669 424.475 291.961 425.286 291.492L428.155 289.835C428.966 289.366 430.196 289.315 430.898 289.722L439.657 294.779C440.36 295.184 440.273 295.895 439.461 296.364L436.593 298.02C435.781 298.489 434.553 298.54 433.849 298.133Z" fill="#5793CE"/>
<path d="M301.109 237.477L292.35 232.42C291.647 232.013 291.734 231.304 292.546 230.835L301.224 225.825C302.036 225.356 303.265 225.304 303.968 225.711L312.727 230.768C313.43 231.175 313.342 231.884 312.531 232.353L303.853 237.363C303.041 237.832 301.812 237.884 301.109 237.477Z" fill="#5793CE"/>
<path d="M314.639 245.284L305.881 240.227C305.178 239.82 305.266 239.111 306.077 238.642L314.755 233.632C315.567 233.163 316.796 233.113 317.499 233.518L326.258 238.575C326.961 238.982 326.874 239.691 326.062 240.16L317.384 245.17C316.571 245.639 315.343 245.691 314.639 245.284Z" fill="#5793CE"/>
<path d="M328.162 253.095L319.402 248.038C318.7 247.631 318.787 246.922 319.599 246.453L328.277 241.443C329.089 240.974 330.318 240.922 331.021 241.329L339.78 246.386C340.482 246.793 340.395 247.502 339.584 247.971L330.905 252.982C330.092 253.449 328.864 253.5 328.162 253.095Z" fill="#5793CE"/>
<path d="M341.687 260.905L332.93 255.848C332.227 255.441 332.314 254.732 333.126 254.263L341.804 249.252C342.616 248.783 343.845 248.732 344.548 249.139L353.306 254.196C354.008 254.603 353.921 255.312 353.109 255.781L344.431 260.791C343.619 261.259 342.39 261.31 341.687 260.905Z" fill="#5793CE"/>
<path d="M355.213 268.713L346.455 263.656C345.753 263.249 345.84 262.541 346.652 262.072L355.33 257.061C356.141 256.592 357.371 256.541 358.073 256.947L366.833 262.005C367.535 262.411 367.448 263.12 366.636 263.589L357.958 268.6C357.145 269.069 355.917 269.119 355.213 268.713Z" fill="#5793CE"/>
<path d="M368.74 276.522L359.983 271.465C359.28 271.058 359.367 270.349 360.179 269.88L368.857 264.87C369.669 264.401 370.898 264.349 371.601 264.756L380.358 269.813C381.061 270.22 380.974 270.929 380.162 271.398L371.484 276.408C370.671 276.877 369.443 276.929 368.74 276.522Z" fill="#5793CE"/>
<path d="M382.266 284.331L373.508 279.274C372.805 278.867 372.893 278.158 373.704 277.689L382.382 272.679C383.194 272.21 384.423 272.16 385.126 272.565L393.885 277.622C394.588 278.029 394.501 278.738 393.689 279.207L385.011 284.217C384.197 284.686 382.97 284.738 382.266 284.331Z" fill="#5793CE"/>
<path d="M395.793 292.139L387.035 287.082C386.333 286.675 386.42 285.966 387.232 285.497L395.91 280.487C396.721 280.018 397.951 279.966 398.653 280.373L407.411 285.43C408.114 285.837 408.026 286.546 407.215 287.015L398.537 292.025C397.725 292.494 396.497 292.546 395.793 292.139Z" fill="#5793CE"/>
<path d="M409.316 299.95L400.559 294.892C399.856 294.486 399.943 293.777 400.755 293.308L409.433 288.297C410.245 287.828 411.474 287.777 412.177 288.184L420.935 293.241C421.637 293.648 421.55 294.356 420.738 294.825L412.06 299.836C411.248 300.303 410.019 300.355 409.316 299.95Z" fill="#5793CE"/>
<path d="M223.783 238.441L197.988 223.548C197.286 223.141 197.373 222.432 198.185 221.963L206.863 216.953C207.675 216.484 208.904 216.432 209.607 216.839L235.401 231.732C236.104 232.139 236.017 232.848 235.205 233.317L226.527 238.327C225.715 238.796 224.487 238.846 223.783 238.441Z" fill="#5793CE"/>
<path d="M389.947 334.377L364.152 319.484C363.45 319.078 363.537 318.369 364.349 317.9L373.027 312.889C373.839 312.42 375.068 312.369 375.771 312.775L401.565 327.669C402.268 328.075 402.181 328.784 401.369 329.253L392.691 334.264C391.879 334.733 390.65 334.782 389.947 334.377Z" fill="#5793CE"/>
<path d="M335.857 320.396L327.098 315.339C326.395 314.932 326.482 314.223 327.294 313.754L337.632 307.786C338.443 307.317 339.673 307.265 340.375 307.672L349.133 312.729C349.836 313.136 349.748 313.845 348.937 314.314L338.599 320.282C337.789 320.751 336.56 320.801 335.857 320.396Z" fill="#5793CE"/>
<path d="M237.636 263.686L223.629 255.599C222.926 255.192 223.014 254.483 223.825 254.014L234.163 248.045C234.975 247.576 236.204 247.525 236.906 247.932L250.913 256.019C251.616 256.426 251.529 257.135 250.717 257.604L240.379 263.573C239.568 264.042 238.338 264.093 237.636 263.686Z" fill="#5793CE"/>
<path d="M322.825 312.873L308.818 304.785C308.116 304.379 308.203 303.67 309.015 303.201L319.352 297.232C320.164 296.763 321.393 296.712 322.096 297.118L336.103 305.206C336.805 305.613 336.718 306.321 335.906 306.79L325.569 312.759C324.757 313.228 323.529 313.28 322.825 312.873Z" fill="#5793CE"/>
<path d="M257.149 274.956L243.143 266.868C242.44 266.462 242.527 265.753 243.339 265.284L253.676 259.315C254.488 258.846 255.717 258.795 256.42 259.201L270.428 267.289C271.131 267.695 271.044 268.404 270.232 268.873L259.895 274.842C259.081 275.311 257.852 275.361 257.149 274.956Z" fill="#5793CE"/>
<path d="M256.516 259.256L317.416 294.416C318.171 294.852 318.171 295.559 317.416 295.996L306.874 302.083C306.119 302.519 304.894 302.519 304.138 302.083L243.238 266.923L256.516 259.256Z" fill="#5793CE"/>
<path d="M373.659 334.554L383.415 340.187C383.992 340.52 383.92 341.101 383.253 341.485L379.025 343.926C378.359 344.311 377.351 344.351 376.777 344.019L367.02 338.387C366.444 338.054 366.515 337.473 367.182 337.089L371.411 334.648C372.076 334.263 373.082 334.223 373.659 334.554Z" fill="#5793CE"/>
<path d="M360.024 326.683L369.78 332.315C370.356 332.649 370.285 333.23 369.618 333.613L365.389 336.054C364.724 336.439 363.718 336.48 363.141 336.148L353.385 330.516C352.808 330.182 352.882 329.601 353.547 329.218L357.775 326.776C358.439 326.392 359.447 326.35 360.024 326.683Z" fill="#5793CE"/>
<path d="M346.497 318.872L356.253 324.505C356.83 324.838 356.756 325.419 356.091 325.802L351.863 328.244C351.197 328.629 350.191 328.669 349.614 328.337L339.858 322.705C339.282 322.372 339.353 321.79 340.02 321.407L344.249 318.966C344.914 318.582 345.92 318.54 346.497 318.872Z" fill="#5793CE"/>
<path d="M367.491 322.37L377.247 328.002C377.824 328.335 377.752 328.916 377.085 329.3L372.857 331.741C372.192 332.126 371.185 332.166 370.609 331.834L360.852 326.202C360.276 325.869 360.347 325.288 361.014 324.904L365.243 322.463C365.906 322.078 366.914 322.036 367.491 322.37Z" fill="#5793CE"/>
<path d="M340.304 86.6073L318.305 73.9063L319.243 69.1699L341.24 81.8709L340.304 86.6073Z" fill="#D4ECFF"/>
<path d="M337.919 97.6151L315.92 84.9141L316.858 80.1777L338.856 92.8787L337.919 97.6151Z" fill="white"/>
<path d="M445.888 250.288L423.891 237.589L424.827 232.851L446.826 245.553L445.888 250.288Z" fill="#D4ECFF"/>
<path d="M333.144 119.629L311.145 106.928L312.081 102.191L334.08 114.892L333.144 119.629Z" fill="#D4ECFF"/>
<path d="M426.894 181.538L345.514 134.553L346.561 129.264L427.941 176.249L426.894 181.538Z" fill="#D4ECFF"/>
<path d="M397.748 190.466L340.939 157.668L341.986 152.379L398.795 185.175L397.748 190.466Z" fill="#D4ECFF"/>
<path d="M392.375 174.486L343.229 146.111L344.276 140.821L393.422 169.194L392.375 174.486Z" fill="white"/>
<path d="M381.939 129.089C381.156 130.797 379.178 131.406 377.521 130.45C375.863 129.493 375.156 127.332 375.938 125.624C376.721 123.917 378.698 123.308 380.356 124.264C382.014 125.221 382.723 127.382 381.939 129.089Z" fill="#FF2C9C"/>
<path d="M392.527 135.2C391.743 136.907 389.766 137.517 388.109 136.56C386.451 135.603 385.743 133.442 386.526 131.735C387.309 130.027 389.286 129.418 390.944 130.375C392.602 131.333 393.309 133.492 392.527 135.2Z" fill="white"/>
<path d="M403.109 141.311C402.327 143.019 400.348 143.628 398.691 142.671C397.033 141.715 396.325 139.554 397.108 137.846C397.891 136.138 399.868 135.529 401.526 136.486C403.184 137.442 403.893 139.602 403.109 141.311Z" fill="#D4ECFF"/>
<path d="M413.691 147.422C412.907 149.13 410.93 149.739 409.273 148.783C407.615 147.826 406.908 145.665 407.69 143.957C408.473 142.25 410.45 141.641 412.108 142.597C413.766 143.554 414.475 145.713 413.691 147.422Z" fill="#FF2C9C"/>
<path d="M424.607 193.096L400.035 178.909L401.082 173.619L425.654 187.805L424.607 193.096Z" fill="#FF2C9C"/>
<path d="M256.656 336.707L192.537 299.688C190.969 298.783 191.166 297.203 192.976 296.158L226.785 276.639C228.594 275.593 231.333 275.481 232.899 276.385L297.018 313.405C298.585 314.31 298.389 315.89 296.578 316.935L262.769 336.454C260.96 337.498 258.223 337.612 256.656 336.707Z" fill="white"/>
<path opacity="0.5" d="M306.848 371.659L133.156 271.497L183.775 242.271L357.465 342.435L306.848 371.659Z" fill="#173D7A"/>
<path d="M306.846 348.609C306.385 348.609 305.922 348.489 305.509 348.252L131.821 248.09C130.993 247.611 130.482 246.728 130.482 245.771C130.482 244.816 130.992 243.931 131.821 243.454L182.438 214.229C183.263 213.751 184.284 213.751 185.113 214.227L358.803 314.391C359.63 314.87 360.141 315.753 360.141 316.71C360.141 317.665 359.632 318.55 358.803 319.026L308.184 348.25C307.77 348.489 307.309 348.609 306.846 348.609ZM138.511 245.768L306.844 342.844L352.111 316.711L183.776 219.635L138.511 245.768Z" fill="white"/>
<path d="M214.192 266.326C213.006 266.326 212.045 265.365 212.045 264.179V196.378C212.045 195.193 213.006 194.231 214.192 194.231C215.378 194.231 216.339 195.193 216.339 196.378V264.179C216.337 265.363 215.376 266.326 214.192 266.326Z" fill="#396CAA"/>
<path d="M203.58 188.693V234.498C203.58 236.067 204.616 237.634 206.688 238.831C210.834 241.224 217.552 241.224 221.698 238.831C223.77 237.634 224.807 236.067 224.807 234.498V188.693H203.58Z" fill="url(#paint8_radial_2794_1352)"/>
<path d="M203.58 196.231V211.731C209.809 214.576 218.578 214.578 224.807 211.731V196.229C218.578 193.386 209.809 193.386 203.58 196.231Z" fill="#396CAA"/>
<path d="M231.391 124.856H196.996V196.697C196.996 199.238 198.676 201.779 202.033 203.717C208.748 207.595 219.639 207.595 226.354 203.717C229.713 201.779 231.391 199.236 231.391 196.695V124.856Z" fill="url(#paint9_radial_2794_1352)"/>
<path d="M211.213 227.535C211.213 229.642 209.734 230.495 207.908 229.442C206.084 228.389 204.604 225.827 204.604 223.719C204.604 221.613 206.082 220.759 207.908 221.812C209.734 222.866 211.213 225.427 211.213 227.535Z" fill="#D4ECFF"/>
<path d="M280.881 304.875C279.696 304.875 278.734 303.913 278.734 302.728V234.927C278.734 233.742 279.696 232.78 280.881 232.78C282.067 232.78 283.028 233.742 283.028 234.927V302.728C283.028 303.913 282.067 304.875 280.881 304.875Z" fill="#396CAA"/>
<path d="M270.27 227.243V273.047C270.27 274.615 271.306 276.184 273.378 277.38C277.524 279.773 284.243 279.773 288.388 277.38C290.46 276.184 291.496 274.616 291.496 273.047V227.243H270.27Z" fill="url(#paint10_radial_2794_1352)"/>
<path d="M270.268 234.778V250.279C276.497 253.124 285.265 253.126 291.494 250.281V234.778C285.265 231.933 276.495 231.933 270.268 234.778Z" fill="#396CAA"/>
<path d="M298.078 163.405H263.684V235.246C263.684 237.787 265.363 240.328 268.721 242.266C275.436 246.144 286.326 246.144 293.041 242.266C296.4 240.328 298.078 237.785 298.078 235.246V163.405Z" fill="url(#paint11_radial_2794_1352)"/>
<path d="M277.908 266.083C277.908 268.189 276.43 269.043 274.604 267.99C272.779 266.937 271.301 264.375 271.301 262.267C271.301 260.161 272.779 259.307 274.604 260.36C276.428 261.415 277.908 263.976 277.908 266.083Z" fill="#D4ECFF"/>
<path d="M148.27 72.8532L193.927 46.585C193.927 46.585 192.21 72.7987 192.21 72.8532C192.21 72.9078 165.981 80.9768 165.981 80.9768L148.27 72.8532Z" fill="#5793CE"/>
<path d="M392.85 224.04C392.85 205.604 379.908 183.187 363.941 173.969C360.467 171.962 357.15 170.792 354.063 170.307C349.461 146.114 332.627 120.423 312.553 108.834C306.516 105.349 300.774 103.485 295.567 103.085C292.827 73.7613 272.439 40.4367 247.679 26.1419C234.745 18.6743 223.01 17.7909 214.352 22.3637L214.354 22.3419L213.933 22.5834C213.712 22.7064 213.492 22.8326 213.276 22.962L186.353 38.8631L195.299 45.9288C187.268 49.439 182.193 58.4444 182.193 71.7577C182.193 96.3074 199.43 126.162 220.692 138.438L351.944 232.162L355.991 259.476L384.353 242.773C384.378 242.758 384.404 242.743 384.429 242.727L384.599 242.628L384.594 242.623C389.698 239.551 392.85 233.131 392.85 224.04Z" fill="url(#paint12_radial_2794_1352)"/>
<path d="M183.52 60.9512L245.312 24.8471C233.317 18.5917 222.478 18.0744 214.35 22.3667L214.351 22.3449L213.931 22.5864C213.709 22.7095 213.49 22.8357 213.273 22.965L186.35 38.8662L195.297 45.9318C189.681 48.3857 185.52 53.5319 183.52 60.9512Z" fill="#5793CE"/>
<path d="M297.636 167.16L342.722 140.701C334.989 127.326 324.34 115.642 312.552 108.835C310.991 107.934 309.452 107.146 307.936 106.459L250.59 139.995L297.636 167.16Z" fill="#5793CE"/>
<path d="M199.055 41.8185L219.147 53.4196L255.943 31.7475C253.255 29.6597 250.496 27.773 247.676 26.1448C243.22 23.5725 238.912 21.7995 234.818 20.7432L199.055 41.8185Z" fill="#D4ECFF"/>
<path d="M337.75 132.917L301.766 154.12L314.281 168.078L346.948 148.79C344.365 143.259 341.26 137.91 337.75 132.917Z" fill="#D4ECFF"/>
<path d="M335.675 190.62C332.199 188.613 328.883 187.443 325.797 186.958C321.194 162.765 304.36 137.074 284.288 125.485C278.251 122 272.509 120.136 267.301 119.736C264.56 90.4123 244.172 57.0878 219.412 42.7929C192.785 27.4199 171.199 39.881 171.199 70.627C171.199 71.6693 171.229 72.721 171.278 73.7789C151.808 64.7486 136.594 74.924 136.594 97.9874C136.594 122.537 153.83 152.392 175.092 164.668L335.675 257.379C351.641 266.597 364.584 259.124 364.584 240.69C364.584 222.255 351.64 199.838 335.675 190.62Z" fill="url(#paint13_linear_2794_1352)"/>
<path d="M171.279 73.7812C171.231 72.7248 171.2 71.6716 171.2 70.6293C171.2 70.5857 171.203 70.5436 171.203 70.5C160.446 66.3167 151.202 68.138 145.4 74.85C151.703 69.6602 160.867 68.9529 171.279 73.7812Z" fill="white"/>
<path d="M338.025 188.33C334.551 186.323 331.234 185.153 328.147 184.668C323.545 160.475 306.711 134.784 286.639 123.195C280.601 119.71 274.86 117.846 269.653 117.446C266.913 88.1225 246.524 54.7979 221.764 40.503C205.176 30.9259 190.546 32.1552 181.871 41.8757C190.708 34.3239 204.238 34.0326 219.413 42.7949C244.172 57.0898 264.562 90.4143 267.302 119.738C272.511 120.138 278.252 122.002 284.289 125.487C304.361 137.076 321.196 162.767 325.798 186.96C328.884 187.445 332.201 188.615 335.676 190.622C351.642 199.839 364.585 222.257 364.585 240.692C364.585 247.345 362.88 252.542 359.976 256.071C364.306 252.735 366.936 246.687 366.936 238.4C366.934 219.965 353.992 197.547 338.025 188.33Z" fill="white"/>
<path d="M167.882 81.1012L179.953 86.6976L179.339 73.4061C179.296 72.4729 179.269 71.5458 179.269 70.625C179.269 58.7607 182.851 50.1588 189.354 46.4025C195.858 42.6507 205.101 43.8489 215.375 49.7802C237.472 62.5389 256.75 93.595 259.263 120.485L259.897 127.259L266.681 127.781C270.85 128.1 275.415 129.679 280.251 132.472C297.802 142.606 313.622 166.154 317.866 188.465L318.929 194.05L324.545 194.929C326.783 195.281 329.17 196.18 331.639 197.607C345.122 205.392 356.513 225.12 356.513 240.688C356.513 246.513 354.897 250.789 352.08 252.415C349.267 254.039 344.756 253.303 339.71 250.39L179.126 157.678C160.445 146.893 144.664 119.558 144.664 97.987C144.664 89.5223 147.16 83.0736 151.513 80.2941C153.305 79.1521 155.47 78.5819 157.913 78.5819C160.885 78.5834 164.267 79.4248 167.882 81.1012Z" fill="url(#paint14_radial_2794_1352)"/>
<path d="M248.023 181.745L252.26 179.619L248.089 176.459L248.023 181.745Z" fill="#5793CE"/>
<path d="M235.301 124.523L239.412 122.443L239.487 124.597L235.301 124.523Z" fill="#5793CE"/>
<path d="M260.11 168.37L264.401 166.213L256.141 158.355L260.11 168.37Z" fill="#5793CE"/>
<path d="M251.021 179.484L230.966 167.672C229.948 167.073 229.126 165.563 229.129 164.299L229.194 141.08L252.935 155.063L252.87 178.283C252.865 179.546 252.038 180.084 251.021 179.484Z" fill="#5793CE"/>
<path d="M239.37 122.47L217.709 136.408C216.789 137 217.532 139.204 218.928 140.027L241.051 153.057L263.173 166.086C264.569 166.909 265.322 165.585 264.409 163.915L242.899 124.55C241.97 122.848 240.305 121.867 239.37 122.47Z" fill="#5793CE"/>
<path d="M246.718 181.649L226.663 169.837C225.646 169.238 224.823 167.728 224.826 166.464L224.892 143.245L248.633 157.228L248.567 180.448C248.564 181.711 247.735 182.249 246.718 181.649Z" fill="#D4ECFF"/>
<path d="M235.067 124.635L213.406 138.573C212.487 139.165 213.23 141.369 214.626 142.192L236.748 155.222L258.87 168.251C260.266 169.074 261.019 167.75 260.106 166.08L238.596 126.715C237.667 125.013 236.003 124.032 235.067 124.635Z" fill="#D4ECFF"/>
<defs>
<radialGradient id="paint0_radial_2794_1352" cx="0" cy="0" r="1" gradientUnits="userSpaceOnUse" gradientTransform="translate(545.105 189.769) scale(52.4566 52.4566)">
<stop stop-color="#274F89"/>
<stop offset="1" stop-color="#173D7A"/>
</radialGradient>
<linearGradient id="paint1_linear_2794_1352" x1="513.24" y1="170.734" x2="606.063" y2="170.734" gradientUnits="userSpaceOnUse">
<stop stop-color="#D4ECFF"/>
<stop offset="0.2385" stop-color="#D0EAFE"/>
<stop offset="0.4599" stop-color="#C5E2F9"/>
<stop offset="0.6745" stop-color="#B2D6F2"/>
<stop offset="0.8837" stop-color="#98C4E7"/>
<stop offset="1" stop-color="#86B8E0"/>
</linearGradient>
<radialGradient id="paint2_radial_2794_1352" cx="0" cy="0" r="1" gradientUnits="userSpaceOnUse" gradientTransform="translate(469.688 135.487) scale(94.8201 94.8204)">
<stop stop-color="#699DD1"/>
<stop offset="0.2662" stop-color="#6396CC"/>
<stop offset="0.6412" stop-color="#5184BD"/>
<stop offset="1" stop-color="#396CAA"/>
</radialGradient>
<radialGradient id="paint3_radial_2794_1352" cx="0" cy="0" r="1" gradientUnits="userSpaceOnUse" gradientTransform="translate(11.0264 332.013) scale(61.3728 61.3728)">
<stop stop-color="#699DD1"/>
<stop offset="0.2662" stop-color="#6396CC"/>
<stop offset="0.6412" stop-color="#5184BD"/>
<stop offset="1" stop-color="#396CAA"/>
</radialGradient>
<linearGradient id="paint4_linear_2794_1352" x1="22.6111" y1="312.335" x2="118.746" y2="369.649" gradientUnits="userSpaceOnUse">
<stop stop-color="#D4ECFF"/>
<stop offset="0.2009" stop-color="#D0EAFE"/>
<stop offset="0.3874" stop-color="#C5E2F9"/>
<stop offset="0.5682" stop-color="#B2D6F2"/>
<stop offset="0.7444" stop-color="#98C4E7"/>
<stop offset="0.8423" stop-color="#86B8E0"/>
</linearGradient>
<radialGradient id="paint5_radial_2794_1352" cx="0" cy="0" r="1" gradientUnits="userSpaceOnUse" gradientTransform="translate(498.005 281.888) scale(314.24 314.24)">
<stop stop-color="#86B8E0"/>
<stop offset="0.1163" stop-color="#98C4E7"/>
<stop offset="0.3255" stop-color="#B2D6F2"/>
<stop offset="0.5401" stop-color="#C5E2F9"/>
<stop offset="0.7615" stop-color="#D0EAFE"/>
<stop offset="1" stop-color="#D4ECFF"/>
</radialGradient>
<radialGradient id="paint6_radial_2794_1352" cx="0" cy="0" r="1" gradientUnits="userSpaceOnUse" gradientTransform="translate(473.121 210.871) scale(216.237 216.237)">
<stop stop-color="#173D7A"/>
<stop offset="1" stop-color="#274F89"/>
</radialGradient>
<radialGradient id="paint7_radial_2794_1352" cx="0" cy="0" r="1" gradientUnits="userSpaceOnUse" gradientTransform="translate(506.562 306.075) scale(426.457 426.458)">
<stop stop-color="#86B8E0"/>
<stop offset="0.1163" stop-color="#98C4E7"/>
<stop offset="0.3255" stop-color="#B2D6F2"/>
<stop offset="0.5401" stop-color="#C5E2F9"/>
<stop offset="0.7615" stop-color="#D0EAFE"/>
<stop offset="1" stop-color="#D4ECFF"/>
</radialGradient>
<radialGradient id="paint8_radial_2794_1352" cx="0" cy="0" r="1" gradientUnits="userSpaceOnUse" gradientTransform="translate(202.263 232.242) scale(19.8352 19.8352)">
<stop stop-color="#699DD1"/>
<stop offset="0.2662" stop-color="#6396CC"/>
<stop offset="0.6412" stop-color="#5184BD"/>
<stop offset="1" stop-color="#396CAA"/>
</radialGradient>
<radialGradient id="paint9_radial_2794_1352" cx="0" cy="0" r="1" gradientUnits="userSpaceOnUse" gradientTransform="translate(191.17 210.952) scale(31.3635 31.3635)">
<stop stop-color="#699DD1"/>
<stop offset="0.2662" stop-color="#6396CC"/>
<stop offset="0.6412" stop-color="#5184BD"/>
<stop offset="1" stop-color="#396CAA"/>
</radialGradient>
<radialGradient id="paint10_radial_2794_1352" cx="0" cy="0" r="1" gradientUnits="userSpaceOnUse" gradientTransform="translate(268.951 270.791) scale(19.835 19.835)">
<stop stop-color="#699DD1"/>
<stop offset="0.2662" stop-color="#6396CC"/>
<stop offset="0.6412" stop-color="#5184BD"/>
<stop offset="1" stop-color="#396CAA"/>
</radialGradient>
<radialGradient id="paint11_radial_2794_1352" cx="0" cy="0" r="1" gradientUnits="userSpaceOnUse" gradientTransform="translate(257.856 249.501) scale(31.3636 31.3636)">
<stop stop-color="#699DD1"/>
<stop offset="0.2662" stop-color="#6396CC"/>
<stop offset="0.6412" stop-color="#5184BD"/>
<stop offset="1" stop-color="#396CAA"/>
</radialGradient>
<radialGradient id="paint12_radial_2794_1352" cx="0" cy="0" r="1" gradientUnits="userSpaceOnUse" gradientTransform="translate(287.521 139.523) scale(112.878 112.878)">
<stop stop-color="#699DD1"/>
<stop offset="0.2662" stop-color="#6396CC"/>
<stop offset="0.6412" stop-color="#5184BD"/>
<stop offset="1" stop-color="#396CAA"/>
</radialGradient>
<linearGradient id="paint13_linear_2794_1352" x1="136.593" y1="148.77" x2="364.583" y2="148.77" gradientUnits="userSpaceOnUse">
<stop stop-color="#D4ECFF"/>
<stop offset="0.2385" stop-color="#D0EAFE"/>
<stop offset="0.4599" stop-color="#C5E2F9"/>
<stop offset="0.6745" stop-color="#B2D6F2"/>
<stop offset="0.8837" stop-color="#98C4E7"/>
<stop offset="1" stop-color="#86B8E0"/>
</linearGradient>
<radialGradient id="paint14_radial_2794_1352" cx="0" cy="0" r="1" gradientUnits="userSpaceOnUse" gradientTransform="translate(356.971 233.934) scale(228.254 228.254)">
<stop stop-color="#173D7A"/>
<stop offset="1" stop-color="#274F89"/>
</radialGradient>
</defs>
</svg>
