<svg width="708" height="478" viewBox="0 0 708 478" fill="none" xmlns="http://www.w3.org/2000/svg">
<path d="M346.329 271.693C346.158 271.693 345.984 271.647 345.832 271.558L241.864 211.528C241.558 211.352 241.367 211.022 241.367 210.67C241.367 210.313 241.558 209.987 241.866 209.809L290.028 182.105C290.334 181.932 290.713 181.929 291.019 182.108L394.99 242.135C395.296 242.311 395.487 242.641 395.487 242.994C395.487 243.348 395.296 243.676 394.987 243.855L346.823 271.56C346.669 271.647 346.5 271.693 346.329 271.693ZM244.35 210.672L346.329 269.551L392.503 242.989L290.522 184.112L244.35 210.672Z" fill="white"/>
<path d="M290.52 0V120.052L394.49 180.079V60.0271L290.52 0ZM302.93 21.493L382.082 67.1923V158.586L302.93 112.887V21.493Z" fill="url(#paint0_linear_2484_8524)"/>
<path d="M276.285 8.14355V128.195L380.256 188.222V68.1707L276.285 8.14355ZM288.696 29.6366L367.848 75.3358V166.729L288.696 121.03V29.6366Z" fill="url(#paint1_linear_2484_8524)"/>
<path d="M276.285 8.1443L290.521 0L394.492 60.0271L380.256 68.1714L276.285 8.1443Z" fill="url(#paint2_linear_2484_8524)"/>
<path d="M394.492 60.0264L380.256 68.1707V188.223L394.492 180.078V60.0264Z" fill="url(#paint3_linear_2484_8524)"/>
<path d="M302.932 112.887L288.695 121.031V29.6377L302.922 37.8543L302.932 112.887Z" fill="url(#paint4_linear_2484_8524)"/>
<path d="M302.932 112.886L288.695 121.03L367.847 166.729L367.852 150.368L302.932 112.886Z" fill="url(#paint5_linear_2484_8524)"/>
<path opacity="0.5" d="M296.318 116.673V34.0869L367.849 75.3366V157.284L296.318 116.673Z" fill="#7BDAFF"/>
<path d="M256.592 19.5635V139.615L360.562 199.642V79.5906L256.592 19.5635ZM269.002 41.0565L348.154 86.7557V178.149L269.002 132.45V41.0565Z" fill="url(#paint6_linear_2484_8524)"/>
<path d="M242.357 27.708V147.76L346.328 207.787V87.7351L242.357 27.708ZM254.768 49.201L333.92 94.9003V186.294L254.768 140.595V49.201Z" fill="#081348"/>
<path d="M242.357 27.7078L256.594 19.5635L360.564 79.5906L346.328 87.7349L242.357 27.7078Z" fill="url(#paint7_linear_2484_8524)"/>
<path d="M360.564 79.5898L346.328 87.7341V207.786L360.564 199.642V79.5898Z" fill="url(#paint8_linear_2484_8524)"/>
<path d="M269.004 132.451L254.768 140.595V49.2012L268.994 57.4154L269.004 132.451Z" fill="url(#paint9_linear_2484_8524)"/>
<path d="M269.004 132.45L254.768 140.594L333.917 186.294L333.924 169.93L269.004 132.45Z" fill="url(#paint10_linear_2484_8524)"/>
<path opacity="0.5" d="M262.391 136.235V53.6484L333.919 94.9005V176.845L262.391 136.235Z" fill="#7BDAFF"/>
<path d="M346.328 87.7366L242.357 27.7095L244.81 26.3613L348.781 86.3884V206.44L346.328 207.788V87.7366Z" fill="#A9EBFF"/>
<path d="M380.252 68.1746L276.281 8.14748L278.734 6.80176L382.705 66.8289V186.881L380.252 188.226V68.1746Z" fill="#A9EBFF"/>
<path d="M254.768 49.2012L257.22 50.6168V139.249L333.917 183.53V186.294L254.768 140.595V49.2012Z" fill="#A9EBFF"/>
<path opacity="0.5" d="M256.596 19.5615L276.285 8.14453L380.255 68.1717V188.223L360.566 199.64V79.5886L256.596 19.5615Z" fill="white"/>
<path opacity="0.5" d="M380.255 68.1717L360.566 79.5886L256.596 19.5615L276.285 8.14453L380.255 68.1717Z" fill="white"/>
<path d="M200.101 360.559C199.93 360.559 199.756 360.515 199.604 360.424L96.2292 300.739C95.9229 300.563 95.7324 300.235 95.7324 299.881C95.7324 299.526 95.9229 299.198 96.2292 299.02L199.607 239.335C199.913 239.157 200.294 239.157 200.6 239.335L303.973 299.02C304.279 299.196 304.47 299.524 304.47 299.881C304.47 300.235 304.279 300.563 303.973 300.739L200.598 360.424C200.443 360.515 200.272 360.559 200.101 360.559ZM98.7109 299.881L200.101 358.417L301.491 299.881L200.103 241.342L98.7109 299.881Z" fill="white"/>
<path d="M200.096 292.377L304.066 232.347V186.24L200.096 246.267V292.377Z" fill="url(#paint11_linear_2484_8524)"/>
<path d="M200.099 246.268L304.069 186.241L200.103 126.216L96.1328 186.243L200.099 246.268Z" fill="url(#paint12_linear_2484_8524)"/>
<path d="M200.098 231.943L279.252 186.241L200.1 140.542L120.943 186.244L200.098 231.943Z" fill="white"/>
<path d="M96.1289 232.347L200.1 292.377V246.267L96.1289 186.24V232.347Z" fill="url(#paint13_linear_2484_8524)"/>
<path d="M200.096 218.236L304.066 158.209V112.103L200.096 172.13V218.236Z" fill="url(#paint14_linear_2484_8524)"/>
<path d="M200.099 172.13L304.069 112.103L200.103 52.0762L96.1328 112.103L200.099 172.13Z" fill="url(#paint15_linear_2484_8524)"/>
<path d="M200.099 169.82L302.07 110.948L304.069 112.103L200.099 172.131L96.1328 112.103L98.1321 110.951L200.099 169.82Z" fill="#A9EBFF"/>
<path d="M200.099 243.959L302.07 185.085L304.069 186.24L200.099 246.267L96.1328 186.243L98.1321 185.087L200.099 243.959Z" fill="#A9EBFF"/>
<path d="M200.102 75.0391L272.957 117.106L200.1 159.173L127.24 117.106L200.102 75.0391Z" fill="white"/>
<path d="M200.102 75.0379L127.239 117.105L118.574 112.103L200.102 65.0342L281.624 112.103L272.961 117.105L200.102 75.0379Z" fill="#081348"/>
<path d="M96.1289 158.209L200.1 218.236V172.13L96.1289 112.103V158.209Z" fill="url(#paint16_linear_2484_8524)"/>
<path d="M163.822 174.235C163.822 178.026 166.482 182.632 169.765 184.528C173.047 186.423 175.707 184.887 175.707 181.096C175.707 177.305 173.047 172.698 169.765 170.803C166.482 168.91 163.822 170.446 163.822 174.235Z" fill="white"/>
<path d="M142.174 161.737C142.174 165.529 144.834 170.135 148.116 172.031C151.399 173.926 154.059 172.39 154.059 168.599C154.059 164.808 151.399 160.201 148.116 158.306C144.836 156.412 142.174 157.949 142.174 161.737Z" fill="white"/>
<path d="M130.664 159.942C132.984 158.602 132.984 154.258 130.663 150.238C128.342 146.218 124.58 144.045 122.259 145.385C119.938 146.725 119.938 151.07 122.259 155.09C124.58 159.11 128.343 161.282 130.664 159.942Z" fill="white"/>
<path d="M166.834 170.039C166.55 170.676 166.388 171.457 166.388 172.376C166.388 176.167 169.048 180.776 172.331 182.669C173.402 183.289 174.393 183.506 175.261 183.436C174.373 185.426 172.251 185.966 169.765 184.531C166.482 182.635 163.822 178.027 163.822 174.238C163.822 171.684 165.043 170.186 166.834 170.039Z" fill="#A9EBFF"/>
<path d="M145.186 157.54C144.901 158.177 144.74 158.958 144.74 159.877C144.74 163.668 147.4 168.274 150.682 170.17C151.753 170.79 152.744 171.007 153.612 170.937C152.725 172.927 150.603 173.467 148.116 172.032C144.834 170.136 142.174 165.528 142.174 161.739C142.174 159.185 143.397 157.687 145.186 157.54Z" fill="#A9EBFF"/>
<path d="M123.541 145.043C123.257 145.68 123.095 146.461 123.095 147.38C123.095 151.171 125.755 155.777 129.038 157.673C130.109 158.293 131.1 158.51 131.968 158.44C131.08 160.43 128.958 160.97 126.472 159.535C123.189 157.639 120.529 153.03 120.529 149.242C120.529 146.688 121.752 145.192 123.541 145.043Z" fill="#A9EBFF"/>
<path d="M163.818 248.371C163.818 252.162 166.478 256.769 169.761 258.664C173.043 260.56 175.703 259.024 175.703 255.233C175.703 251.444 173.043 246.835 169.761 244.939C166.478 243.046 163.818 244.583 163.818 248.371Z" fill="white"/>
<path d="M142.176 235.877C142.176 239.668 144.836 244.274 148.118 246.17C151.401 248.065 154.061 246.529 154.061 242.738C154.061 238.949 151.401 234.34 148.118 232.445C144.838 230.549 142.176 232.085 142.176 235.877Z" fill="white"/>
<path d="M130.66 234.077C132.98 232.737 132.98 228.392 130.659 224.372C128.338 220.353 124.576 218.18 122.255 219.52C119.934 220.86 119.934 225.205 122.255 229.225C124.576 233.245 128.339 235.417 130.66 234.077Z" fill="white"/>
<path d="M166.831 244.174C166.546 244.811 166.384 245.592 166.384 246.511C166.384 250.302 169.045 254.908 172.327 256.804C173.398 257.424 174.389 257.641 175.257 257.571C174.37 259.56 172.247 260.101 169.761 258.666C166.478 256.77 163.818 252.161 163.818 248.373C163.818 245.819 165.039 244.323 166.831 244.174Z" fill="#A9EBFF"/>
<path d="M145.188 231.677C144.903 232.313 144.742 233.095 144.742 234.014C144.742 237.805 147.402 242.411 150.684 244.307C151.755 244.927 152.746 245.144 153.614 245.074C152.727 247.063 150.605 247.604 148.118 246.169C144.836 244.273 142.176 239.664 142.176 235.876C142.176 233.322 143.399 231.826 145.188 231.677Z" fill="#A9EBFF"/>
<path d="M123.538 219.178C123.253 219.814 123.091 220.596 123.091 221.515C123.091 225.306 125.752 229.912 129.034 231.808C130.105 232.428 131.096 232.645 131.964 232.575C131.077 234.564 128.954 235.105 126.468 233.67C123.185 231.774 120.525 227.165 120.525 223.376C120.525 220.823 121.748 219.327 123.538 219.178Z" fill="#A9EBFF"/>
<path d="M200.096 141.536L304.066 81.509V62.7002L200.096 122.727V141.536Z" fill="url(#paint17_linear_2484_8524)"/>
<path d="M200.099 122.728L304.069 62.7009L200.103 2.67383L96.1328 62.7033L200.099 122.728Z" fill="url(#paint18_linear_2484_8524)"/>
<path d="M200.099 120.418L302.07 61.5459L304.069 62.7011L200.099 122.728L96.1328 62.7035L98.1321 61.5483L200.099 120.418Z" fill="#A9EBFF"/>
<path d="M96.1289 81.509L200.1 141.536V122.727L96.1289 62.7002V81.509Z" fill="url(#paint19_linear_2484_8524)"/>
<path opacity="0.5" d="M304.072 158.21V186.239L200.102 246.266L200.104 218.237L304.072 158.21Z" fill="white"/>
<path opacity="0.5" d="M96.1309 158.21L96.1333 186.241L200.099 246.266L200.102 218.237L96.1309 158.21Z" fill="white"/>
<path d="M230.001 261.498L274.171 235.997C278.08 233.74 281.252 227.682 281.252 222.47C281.252 217.256 278.083 214.859 274.171 217.118L230.001 242.62C226.091 244.877 222.92 250.935 222.92 256.147C222.92 261.358 226.091 263.756 230.001 261.498Z" fill="white"/>
<path d="M266.641 231.194C270.55 228.937 273.722 222.879 273.722 217.665C273.722 217.566 273.712 217.477 273.709 217.38L274.172 217.112C278.082 214.855 281.253 217.25 281.253 222.464C281.253 227.678 278.084 233.734 274.172 235.991L230.002 261.492C226.165 263.706 223.049 261.435 222.934 256.425L266.641 231.194Z" fill="#FF9557"/>
<path d="M104.962 409.18C104.791 409.18 104.617 409.134 104.465 409.044L0.496794 349.017C0.190509 348.841 0 348.511 0 348.159C0 347.804 0.190526 347.476 0.499223 347.298L48.6632 319.595C48.9695 319.421 49.3481 319.419 49.6544 319.597L153.623 379.624C153.929 379.8 154.119 380.131 154.119 380.483C154.119 380.84 153.929 381.165 153.62 381.346L105.456 409.049C105.302 409.136 105.133 409.18 104.962 409.18ZM2.98084 348.164L104.959 407.04L151.131 380.48L49.1528 321.604L2.98084 348.164Z" fill="white"/>
<path d="M49.1582 137.489V257.541L153.129 317.568V197.516L49.1582 137.489ZM61.5664 158.982L140.718 204.682V296.075L61.5664 250.376V158.982Z" fill="url(#paint20_linear_2484_8524)"/>
<path d="M34.918 145.636V265.688L138.889 325.715V205.663L34.918 145.636ZM47.3285 167.129L126.48 212.828V304.222L47.3285 258.522V167.129Z" fill="url(#paint21_linear_2484_8524)"/>
<path d="M34.918 145.636L49.1566 137.489L153.125 197.519L138.889 205.663L34.918 145.636Z" fill="url(#paint22_linear_2484_8524)"/>
<path d="M153.125 197.519L138.889 205.663V325.712L153.125 317.568V197.519Z" fill="url(#paint23_linear_2484_8524)"/>
<path d="M61.5644 250.379L47.3281 258.524V167.13L61.5547 175.344L61.5644 250.379Z" fill="url(#paint24_linear_2484_8524)"/>
<path d="M61.5644 250.377L47.3281 258.521L126.48 304.218L126.485 287.857L61.5644 250.377Z" fill="url(#paint25_linear_2484_8524)"/>
<path opacity="0.5" d="M54.9512 254.162V171.576L126.482 212.826V294.773L54.9512 254.162Z" fill="#7BDAFF"/>
<path d="M15.2227 157.052V277.104L119.193 337.131V217.079L15.2227 157.052ZM27.6332 178.545L106.785 224.244V315.638L27.6332 269.941V178.545Z" fill="url(#paint26_linear_2484_8524)"/>
<path d="M0.986328 165.195V285.247L104.957 345.274V225.222L0.986328 165.195ZM13.3969 186.688L92.5488 232.388V323.781L13.3969 278.084V186.688Z" fill="#081348"/>
<path d="M0.986328 165.196L15.2226 157.052L119.193 217.079L104.957 225.223L0.986328 165.196Z" fill="url(#paint27_linear_2484_8524)"/>
<path d="M119.195 217.077L104.959 225.221V345.273L119.195 337.129V217.077Z" fill="url(#paint28_linear_2484_8524)"/>
<path d="M27.6366 269.938L13.4004 278.082V186.688L27.627 194.903L27.6366 269.938Z" fill="url(#paint29_linear_2484_8524)"/>
<path d="M27.6366 269.938L13.4004 278.082L92.5499 323.781L92.5571 307.42L27.6366 269.938Z" fill="url(#paint30_linear_2484_8524)"/>
<path opacity="0.5" d="M21.0215 273.721V191.138L92.55 232.387V314.334L21.0215 273.721Z" fill="#7BDAFF"/>
<path d="M104.957 225.224L0.986328 165.197L3.43902 163.852L107.41 223.879V343.931L104.957 345.276V225.224Z" fill="#A9EBFF"/>
<path d="M138.881 205.664L34.9102 145.637L37.3628 144.289L141.334 204.316V324.368L138.881 325.714V205.664Z" fill="#A9EBFF"/>
<path d="M13.3965 186.69L15.8492 188.109V276.738L92.5459 321.02V323.783L13.3965 278.084V186.69Z" fill="#A9EBFF"/>
<path opacity="0.5" d="M15.2285 157.051L34.9176 145.637L138.888 205.664V325.713L119.199 337.13V217.078L15.2285 157.051Z" fill="white"/>
<path opacity="0.5" d="M138.888 205.664L119.199 217.078L15.2285 157.051L34.9176 145.637L138.888 205.664Z" fill="white"/>
<path d="M268.764 282.339C268.764 278.343 271.192 273.7 274.19 271.971L308.043 252.427C309.466 251.604 310.756 251.597 311.726 252.232L311.733 252.227L349.119 273.845L307.896 308.255L270.589 286.699L270.597 286.695C269.475 286.012 268.764 284.493 268.764 282.339Z" fill="url(#paint31_linear_2484_8524)"/>
<path d="M311.458 307.979L345.311 288.434C348.308 286.705 350.737 282.063 350.737 278.067C350.737 274.07 348.308 272.235 345.311 273.964L311.458 293.509C308.46 295.238 306.031 299.88 306.031 303.876C306.031 307.873 308.462 309.708 311.458 307.979Z" fill="url(#paint32_linear_2484_8524)"/>
<path d="M341.191 343.334L396.385 311.466V286.989L341.191 318.855V343.334Z" fill="url(#paint33_linear_2484_8524)"/>
<path d="M341.19 318.856L396.384 286.988L341.193 255.122L285.996 286.99L341.19 318.856Z" fill="url(#paint34_linear_2484_8524)"/>
<path d="M285.996 311.466L341.19 343.334V318.855L285.996 286.989V311.466Z" fill="url(#paint35_linear_2484_8524)"/>
<path d="M341.19 317.631L395.323 286.375L396.384 286.988L341.19 318.856L285.996 286.99L287.057 286.377L341.19 317.631Z" fill="#A9EBFF"/>
<path d="M351.818 323.197L383.846 304.494L410.828 326.1L413.112 344.753V361.753L539.46 437.856L566.102 453.588L562.044 465.767L543.519 473.127L517.893 465.513L453.076 424.934L396.382 393.471L380.505 381.29L379.49 355.407L377.459 339.676L351.818 323.197Z" fill="white"/>
<path d="M542.171 477.416C547.433 477.416 552.698 476.032 557.495 473.261C567.091 467.721 572.821 457.797 572.821 446.715V137.596C572.821 135.283 570.947 133.409 568.634 133.409C566.322 133.409 564.448 135.283 564.448 137.596V446.717C564.448 454.77 560.283 461.983 553.308 466.011C546.334 470.039 538.006 470.036 531.031 466.011L392.033 385.663C387.162 382.851 384.137 377.61 384.137 371.986V352.808C384.137 344.201 379.507 336.182 372.055 331.88L356.475 322.884C354.474 321.729 351.912 322.414 350.755 324.416C349.599 326.417 350.284 328.978 352.286 330.134L367.866 339.129C372.737 341.941 375.761 347.182 375.761 352.806V371.984C375.761 380.589 380.392 388.61 387.844 392.913L526.842 473.261C531.644 476.032 536.906 477.416 542.171 477.416Z" fill="white"/>
<path d="M382.301 306.031C383.457 304.03 386.018 303.342 388.022 304.5L403.602 313.496C411.054 317.798 415.684 325.817 415.684 334.422V353.6C415.684 359.224 418.711 364.464 423.58 367.276L568.588 451.095C571.453 452.749 574.55 453.712 577.685 454.006C577.396 456.774 577.502 459.598 577.273 462.389C572.838 462.025 568.453 460.686 564.401 458.344L419.393 374.526C411.941 370.223 407.311 362.205 407.311 353.597V334.419C407.311 328.795 404.286 323.555 399.415 320.743L383.835 311.747C381.831 310.594 381.146 308.035 382.301 306.031Z" fill="white"/>
<path d="M554.229 474.904L566.96 458.98L568.769 440.139V394.464L568.641 154.544L601.997 160.216V144.699C601.997 142.387 603.871 140.513 606.184 140.513C608.497 140.513 610.37 142.387 610.37 144.699V431.802C610.37 442.884 604.643 452.806 595.044 458.348C593.317 459.346 591.528 460.156 589.702 460.793L589.69 460.805L554.229 474.904Z" fill="url(#paint36_linear_2484_8524)"/>
<path d="M542.171 477.416C547.433 477.416 552.698 476.032 557.495 473.261C567.091 467.721 572.821 457.797 572.821 446.715V137.596C572.821 135.283 570.947 133.409 568.634 133.409C566.322 133.409 564.448 135.283 564.448 137.596V446.717C564.448 454.77 560.283 461.983 553.308 466.011C546.334 470.039 538.006 470.036 531.031 466.011L392.033 385.663C387.162 382.851 384.137 377.61 384.137 371.986V352.808C384.137 344.201 379.507 336.182 372.055 331.88L356.475 322.884C354.474 321.729 351.912 322.414 350.755 324.416C349.599 326.417 350.284 328.978 352.286 330.134L367.866 339.129C372.737 341.941 375.761 347.182 375.761 352.806V371.984C375.761 380.589 380.392 388.61 387.844 392.913L526.842 473.261C531.644 476.032 536.906 477.416 542.171 477.416Z" fill="#081348"/>
<path opacity="0.2" d="M329.541 331.597L335.175 334.848V323.532L329.541 320.281V331.597Z" fill="white"/>
<path opacity="0.2" d="M320.162 326.177L325.796 329.43V318.115L320.162 314.861V326.177Z" fill="white"/>
<path opacity="0.2" d="M310.773 320.76L316.407 324.013V312.698L310.773 309.444V320.76Z" fill="white"/>
<path d="M301.391 315.343L307.024 318.596V307.278L301.391 304.027V315.343Z" fill="white"/>
<path d="M292.008 309.926L297.644 313.177V301.862L292.008 298.608V309.926Z" fill="white"/>
<path d="M583.509 165H581.098V231.623H583.509V165Z" fill="#59BDEF"/>
<path d="M593.325 165H589.1V369.652H593.325V165Z" fill="#59BDEF"/>
<path d="M602.568 158.966H599.736V250.675H602.568V158.966Z" fill="#59BDEF"/>
<path d="M603.066 256.76H599.236V424.72H603.066V256.76Z" fill="#59BDEF"/>
<path d="M592.086 375.081H590.338V410.036H592.086V375.081Z" fill="#59BDEF"/>
<path d="M583.148 241.083H581.457V273.788H583.148V241.083Z" fill="#59BDEF"/>
<path d="M583.785 282.259H580.818V383.164H583.785V282.259Z" fill="#59BDEF"/>
<path d="M697.629 33.4933L651.903 6.92606L651.906 6.93809C645.081 2.87197 635.591 3.38326 625.092 9.44385C621.663 11.4239 618.349 13.8838 615.192 16.6983L596.767 6.05303L596.769 6.05785C586.648 -1.05907 571.994 -0.747975 555.689 8.66488C535.061 20.5738 517.085 43.9986 507.573 68.8174C504.421 68.9187 500.909 69.9557 497.193 72.1021C483.731 79.8726 472.82 98.7731 472.82 114.316C472.82 114.652 472.854 114.958 472.864 115.284C469.024 115.549 464.782 116.907 460.318 119.482C443.101 129.423 429.145 153.596 429.145 173.475C429.145 183.327 432.579 190.266 438.133 193.558L438.118 193.565L438.261 193.647C438.27 193.652 438.28 193.659 438.29 193.664L483.422 219.862L493.279 172.443L625.092 96.3421C641.938 86.6157 656.194 65.6002 660.991 45.2069L697.629 33.4933Z" fill="#F8A878"/>
<path d="M430.383 174.551C430.383 154.671 444.339 130.499 461.556 120.558C466.02 117.979 470.262 116.622 474.102 116.359C474.092 116.033 474.058 115.727 474.058 115.392C474.058 99.8482 484.971 80.9478 498.431 73.1773C502.15 71.0309 505.659 69.9939 508.811 69.8926C518.323 45.0762 536.299 21.649 556.927 9.74003C573.232 0.324772 587.886 0.0160909 598.008 7.13301L598.005 7.12819L616.428 17.7734C619.583 14.959 622.899 12.499 626.328 10.519C636.826 4.45842 646.316 3.94717 653.139 8.01329L653.137 8.00122L697.23 33.6207L697.623 33.4953L651.897 6.928L651.899 6.94007C645.074 2.87395 635.584 3.38523 625.089 9.44582C621.659 11.4258 618.345 13.8857 615.188 16.7002L596.763 6.05496L596.766 6.05978C586.644 -1.05713 571.99 -0.746002 555.685 8.66685C535.058 20.5758 517.081 44.0006 507.569 68.8194C504.417 68.9207 500.905 69.9577 497.189 72.1041C483.727 79.877 472.816 98.7775 472.816 114.318C472.816 114.654 472.85 114.96 472.86 115.286C469.02 115.551 464.778 116.909 460.314 119.484C443.097 129.425 429.141 153.598 429.141 173.477C429.141 182.425 431.994 188.936 436.675 192.527C432.746 188.775 430.383 182.673 430.383 174.551Z" fill="#081348"/>
<path d="M670.367 35.7252C664.454 39.1402 658.861 43.9467 653.883 49.6286C646.974 27.4362 625.901 20.5508 600.966 34.9462C580.339 46.8552 562.362 70.28 552.85 95.0963C549.698 95.1976 546.187 96.2347 542.47 98.3811C529.011 106.152 518.098 125.052 518.098 140.595C518.098 140.931 518.131 141.237 518.141 141.563C514.302 141.828 510.059 143.186 505.595 145.761C488.378 155.702 474.422 179.875 474.422 199.754C474.422 219.634 488.378 227.691 505.595 217.75L670.37 122.619C691.151 110.62 707.999 81.4413 707.999 57.445C707.999 33.4486 691.149 23.727 670.367 35.7252Z" fill="url(#paint37_linear_2484_8524)"/>
<path opacity="0.7" d="M670.367 35.7252C664.454 39.1402 658.861 43.9467 653.883 49.6286C646.974 27.4362 625.901 20.5508 600.966 34.9462C580.339 46.8552 562.362 70.28 552.85 95.0963C549.698 95.1976 546.187 96.2347 542.47 98.3811C529.011 106.152 518.098 125.052 518.098 140.595C518.098 140.931 518.131 141.237 518.141 141.563C514.302 141.828 510.059 143.186 505.595 145.761C488.378 155.702 474.422 179.875 474.422 199.754C474.422 219.634 488.378 227.691 505.595 217.75L670.37 122.619C691.151 110.62 707.999 81.4413 707.999 57.445C707.999 33.4486 691.149 23.727 670.367 35.7252Z" fill="url(#paint38_linear_2484_8524)"/>
<path d="M670.367 35.7252C664.454 39.1402 658.861 43.9467 653.883 49.6286C646.974 27.4362 625.901 20.5508 600.966 34.9462C580.339 46.8552 562.362 70.28 552.85 95.0963C549.698 95.1976 546.187 96.2347 542.47 98.3811C529.011 106.152 518.098 125.052 518.098 140.595C518.098 140.931 518.131 141.237 518.141 141.563C514.302 141.828 510.059 143.186 505.595 145.761C488.378 155.702 474.422 179.875 474.422 199.754C474.422 219.634 488.378 227.691 505.595 217.75L670.37 122.619C691.151 110.62 707.999 81.4413 707.999 57.445C707.999 33.4486 691.149 23.727 670.367 35.7252Z" fill="white"/>
<path opacity="0.7" d="M655.878 52.1303C660.856 46.4484 666.449 41.6419 672.362 38.2269C685.12 30.8616 696.373 31.7129 703.179 38.9938C696.735 29.4652 684.464 27.5817 670.368 35.7212C664.754 38.9625 659.445 43.4892 654.658 48.7998C655.095 49.8754 655.517 50.9703 655.878 52.1303Z" fill="#081348"/>
<defs>
<linearGradient id="paint0_linear_2484_8524" x1="422.404" y1="65.9527" x2="252.041" y2="117.312" gradientUnits="userSpaceOnUse">
<stop stop-color="#2573BA"/>
<stop offset="1" stop-color="#0063AD"/>
</linearGradient>
<linearGradient id="paint1_linear_2484_8524" x1="409.923" y1="84.7911" x2="234.333" y2="113.591" gradientUnits="userSpaceOnUse">
<stop stop-color="#2573BA"/>
<stop offset="1" stop-color="#0063AD"/>
</linearGradient>
<linearGradient id="paint2_linear_2484_8524" x1="387.577" y1="11.9049" x2="278.788" y2="58.1438" gradientUnits="userSpaceOnUse">
<stop stop-color="#7BDAFF"/>
<stop offset="1" stop-color="#59BDEF"/>
</linearGradient>
<linearGradient id="paint3_linear_2484_8524" x1="417.546" y1="111.039" x2="322.256" y2="152.367" gradientUnits="userSpaceOnUse">
<stop stop-color="#3A9BD5"/>
<stop offset="1" stop-color="#2573BA"/>
</linearGradient>
<linearGradient id="paint4_linear_2484_8524" x1="316.406" y1="60.4143" x2="275.919" y2="82.214" gradientUnits="userSpaceOnUse">
<stop stop-color="#7BDAFF"/>
<stop offset="1" stop-color="#59BDEF"/>
</linearGradient>
<linearGradient id="paint5_linear_2484_8524" x1="367.852" y1="139.808" x2="288.694" y2="139.808" gradientUnits="userSpaceOnUse">
<stop stop-color="#7BDAFF"/>
<stop offset="1" stop-color="#59BDEF"/>
</linearGradient>
<linearGradient id="paint6_linear_2484_8524" x1="388.476" y1="85.5152" x2="218.113" y2="136.874" gradientUnits="userSpaceOnUse">
<stop stop-color="#2573BA"/>
<stop offset="1" stop-color="#0063AD"/>
</linearGradient>
<linearGradient id="paint7_linear_2484_8524" x1="353.648" y1="31.4674" x2="244.859" y2="77.7063" gradientUnits="userSpaceOnUse">
<stop stop-color="#7BDAFF"/>
<stop offset="1" stop-color="#59BDEF"/>
</linearGradient>
<linearGradient id="paint8_linear_2484_8524" x1="383.618" y1="130.602" x2="288.328" y2="171.93" gradientUnits="userSpaceOnUse">
<stop stop-color="#3A9BD5"/>
<stop offset="1" stop-color="#2573BA"/>
</linearGradient>
<linearGradient id="paint9_linear_2484_8524" x1="282.478" y1="79.9768" x2="241.992" y2="101.777" gradientUnits="userSpaceOnUse">
<stop stop-color="#7BDAFF"/>
<stop offset="1" stop-color="#59BDEF"/>
</linearGradient>
<linearGradient id="paint10_linear_2484_8524" x1="333.924" y1="159.371" x2="254.766" y2="159.371" gradientUnits="userSpaceOnUse">
<stop stop-color="#7BDAFF"/>
<stop offset="1" stop-color="#59BDEF"/>
</linearGradient>
<linearGradient id="paint11_linear_2484_8524" x1="313.233" y1="197.151" x2="182.776" y2="287.087" gradientUnits="userSpaceOnUse">
<stop stop-color="#3A9BD5"/>
<stop offset="1" stop-color="#2573BA"/>
</linearGradient>
<linearGradient id="paint12_linear_2484_8524" x1="278.049" y1="152.753" x2="131.257" y2="215.818" gradientUnits="userSpaceOnUse">
<stop stop-color="#7BDAFF"/>
<stop offset="1" stop-color="#59BDEF"/>
</linearGradient>
<linearGradient id="paint13_linear_2484_8524" x1="213.422" y1="219.62" x2="74.1707" y2="261.6" gradientUnits="userSpaceOnUse">
<stop stop-color="#2573BA"/>
<stop offset="1" stop-color="#0063AD"/>
</linearGradient>
<linearGradient id="paint14_linear_2484_8524" x1="313.233" y1="123.013" x2="182.776" y2="212.949" gradientUnits="userSpaceOnUse">
<stop stop-color="#3A9BD5"/>
<stop offset="1" stop-color="#2573BA"/>
</linearGradient>
<linearGradient id="paint15_linear_2484_8524" x1="278.049" y1="78.6154" x2="131.257" y2="141.68" gradientUnits="userSpaceOnUse">
<stop stop-color="#7BDAFF"/>
<stop offset="1" stop-color="#59BDEF"/>
</linearGradient>
<linearGradient id="paint16_linear_2484_8524" x1="213.422" y1="145.481" x2="74.1707" y2="187.462" gradientUnits="userSpaceOnUse">
<stop stop-color="#2573BA"/>
<stop offset="1" stop-color="#0063AD"/>
</linearGradient>
<linearGradient id="paint17_linear_2484_8524" x1="306.736" y1="64.4407" x2="190.14" y2="144.822" gradientUnits="userSpaceOnUse">
<stop stop-color="#3A9BD5"/>
<stop offset="1" stop-color="#2573BA"/>
</linearGradient>
<linearGradient id="paint18_linear_2484_8524" x1="278.049" y1="29.2136" x2="131.257" y2="92.2782" gradientUnits="userSpaceOnUse">
<stop stop-color="#7BDAFF"/>
<stop offset="1" stop-color="#59BDEF"/>
</linearGradient>
<linearGradient id="paint19_linear_2484_8524" x1="208.035" y1="84.0546" x2="80.2701" y2="122.572" gradientUnits="userSpaceOnUse">
<stop stop-color="#2573BA"/>
<stop offset="1" stop-color="#0063AD"/>
</linearGradient>
<linearGradient id="paint20_linear_2484_8524" x1="181.04" y1="203.443" x2="10.6777" y2="254.802" gradientUnits="userSpaceOnUse">
<stop stop-color="#2573BA"/>
<stop offset="1" stop-color="#0063AD"/>
</linearGradient>
<linearGradient id="paint21_linear_2484_8524" x1="168.556" y1="222.282" x2="-7.03397" y2="251.081" gradientUnits="userSpaceOnUse">
<stop stop-color="#2573BA"/>
<stop offset="1" stop-color="#0063AD"/>
</linearGradient>
<linearGradient id="paint22_linear_2484_8524" x1="146.209" y1="149.395" x2="37.4203" y2="195.634" gradientUnits="userSpaceOnUse">
<stop stop-color="#7BDAFF"/>
<stop offset="1" stop-color="#59BDEF"/>
</linearGradient>
<linearGradient id="paint23_linear_2484_8524" x1="176.179" y1="248.53" x2="80.8888" y2="289.857" gradientUnits="userSpaceOnUse">
<stop stop-color="#3A9BD5"/>
<stop offset="1" stop-color="#2573BA"/>
</linearGradient>
<linearGradient id="paint24_linear_2484_8524" x1="75.039" y1="197.905" x2="34.5524" y2="219.705" gradientUnits="userSpaceOnUse">
<stop stop-color="#7BDAFF"/>
<stop offset="1" stop-color="#59BDEF"/>
</linearGradient>
<linearGradient id="paint25_linear_2484_8524" x1="126.485" y1="277.297" x2="47.3272" y2="277.297" gradientUnits="userSpaceOnUse">
<stop stop-color="#7BDAFF"/>
<stop offset="1" stop-color="#59BDEF"/>
</linearGradient>
<linearGradient id="paint26_linear_2484_8524" x1="147.107" y1="223.004" x2="-23.256" y2="274.363" gradientUnits="userSpaceOnUse">
<stop stop-color="#2573BA"/>
<stop offset="1" stop-color="#0063AD"/>
</linearGradient>
<linearGradient id="paint27_linear_2484_8524" x1="112.277" y1="168.956" x2="3.48823" y2="215.195" gradientUnits="userSpaceOnUse">
<stop stop-color="#7BDAFF"/>
<stop offset="1" stop-color="#59BDEF"/>
</linearGradient>
<linearGradient id="paint28_linear_2484_8524" x1="142.249" y1="268.09" x2="46.9589" y2="309.417" gradientUnits="userSpaceOnUse">
<stop stop-color="#3A9BD5"/>
<stop offset="1" stop-color="#2573BA"/>
</linearGradient>
<linearGradient id="paint29_linear_2484_8524" x1="41.111" y1="217.465" x2="0.624431" y2="239.265" gradientUnits="userSpaceOnUse">
<stop stop-color="#7BDAFF"/>
<stop offset="1" stop-color="#59BDEF"/>
</linearGradient>
<linearGradient id="paint30_linear_2484_8524" x1="92.5564" y1="296.859" x2="13.3992" y2="296.859" gradientUnits="userSpaceOnUse">
<stop stop-color="#7BDAFF"/>
<stop offset="1" stop-color="#59BDEF"/>
</linearGradient>
<linearGradient id="paint31_linear_2484_8524" x1="328.752" y1="264.489" x2="284.695" y2="294.412" gradientUnits="userSpaceOnUse">
<stop stop-color="#3A9BD5"/>
<stop offset="0.2406" stop-color="#3596D1"/>
<stop offset="0.5394" stop-color="#2587C7"/>
<stop offset="0.8678" stop-color="#0C6FB5"/>
<stop offset="1" stop-color="#0063AD"/>
</linearGradient>
<linearGradient id="paint32_linear_2484_8524" x1="344.623" y1="266.67" x2="297.417" y2="301.463" gradientUnits="userSpaceOnUse">
<stop stop-color="#2573BA"/>
<stop offset="1" stop-color="#0063AD"/>
</linearGradient>
<linearGradient id="paint33_linear_2484_8524" x1="401.252" y1="292.781" x2="331.996" y2="340.525" gradientUnits="userSpaceOnUse">
<stop stop-color="#3A9BD5"/>
<stop offset="1" stop-color="#2573BA"/>
</linearGradient>
<linearGradient id="paint34_linear_2484_8524" x1="382.571" y1="269.212" x2="304.643" y2="302.691" gradientUnits="userSpaceOnUse">
<stop stop-color="#7BDAFF"/>
<stop offset="1" stop-color="#59BDEF"/>
</linearGradient>
<linearGradient id="paint35_linear_2484_8524" x1="348.263" y1="304.709" x2="274.338" y2="326.995" gradientUnits="userSpaceOnUse">
<stop stop-color="#081348"/>
<stop offset="1" stop-color="#148CFF"/>
</linearGradient>
<linearGradient id="paint36_linear_2484_8524" x1="639.807" y1="307.709" x2="546.054" y2="307.709" gradientUnits="userSpaceOnUse">
<stop stop-color="#3A9BD5"/>
<stop offset="1" stop-color="#2573BA"/>
</linearGradient>
<linearGradient id="paint37_linear_2484_8524" x1="474.42" y1="171.882" x2="707.995" y2="171.882" gradientUnits="userSpaceOnUse">
<stop stop-color="#2B237C"/>
<stop offset="1" stop-color="#180D5B"/>
</linearGradient>
<linearGradient id="paint38_linear_2484_8524" x1="799.298" y1="235.726" x2="506.095" y2="102.079" gradientUnits="userSpaceOnUse">
<stop stop-color="#180D5B"/>
<stop offset="0.095" stop-color="#1A1660"/>
<stop offset="0.2466" stop-color="#1E2D6E"/>
<stop offset="0.436" stop-color="#255385"/>
<stop offset="0.6555" stop-color="#2F87A5"/>
<stop offset="0.8978" stop-color="#3CCACE"/>
<stop offset="1" stop-color="#42E8E0"/>
</linearGradient>
</defs>
</svg>
