<svg width="250" height="61" viewBox="0 0 250 61" fill="none" xmlns="http://www.w3.org/2000/svg">
<g opacity="0.5">
<g clip-path="url(#clip0_134_2478)">
<g clip-path="url(#clip1_134_2478)">
<g clip-path="url(#clip2_134_2478)">
<path d="M39.2658 2.77954H17.9686L0.826172 19.9232V41.2205L17.9698 58.3629H39.2671L56.4095 41.2192V19.9219L39.2658 2.77954ZM20.917 41.487L9.93426 30.5043L20.917 19.5215C25.0681 15.3692 31.8998 15.3692 36.0508 19.5215L47.0336 30.5043L36.0508 41.487C31.8998 45.6393 25.202 45.6393 20.917 41.487ZM80.8409 43.507C84.2517 43.507 87.0561 41.7637 87.9278 39.1487V43.2038H92.9682V32.9714C92.9682 30.6596 91.1491 28.689 88.6857 28.689H81.4852V32.9714H86.6014C87.2456 32.9714 87.6625 33.3883 87.6625 34.0325C87.6625 36.4959 84.4033 38.8834 81.1062 38.8834C76.7101 38.8834 73.2235 35.4347 73.2235 29.9396C73.2235 24.4444 76.7101 21.261 81.2199 21.261C84.6307 21.261 86.9803 23.118 87.3972 25.9603H93.044C92.7029 20.2757 87.9278 16.3722 81.2578 16.3722C74.2467 16.3722 67.8041 20.882 67.8041 29.9396C67.8041 38.9971 74.0572 43.507 80.8409 43.507ZM95.1309 43.2038H100.399V15.8037H95.1309V43.2038ZM111.762 43.507C117.636 43.507 121.842 39.3382 121.842 33.6536C121.842 27.9689 117.636 23.8001 111.762 23.8001C105.888 23.8001 101.681 27.9689 101.681 33.6536C101.681 39.3382 105.888 43.507 111.762 43.507ZM111.762 38.9592C108.919 38.9592 106.987 36.7991 106.987 33.6536C106.987 30.4701 108.919 28.31 111.762 28.31C114.604 28.31 116.537 30.4701 116.537 33.6536C116.537 36.7991 114.604 38.9592 111.762 38.9592ZM133.63 43.507C139.277 43.507 142.65 39.6035 142.65 33.6536C142.65 27.7036 139.277 23.8001 133.706 23.8001C131.318 23.8001 129.461 24.7097 128.4 26.1119V15.8037H123.132V43.2038H128.4V41.1194C129.461 42.5974 131.432 43.507 133.63 43.507ZM132.796 38.9592C129.954 38.9592 128.097 36.837 128.097 33.6536C128.097 30.4323 129.954 28.31 132.796 28.31C135.563 28.31 137.458 30.4323 137.458 33.6536C137.458 36.837 135.563 38.9592 132.796 38.9592ZM151.468 23.8001C146.238 23.8001 143.131 26.8699 142.903 30.6975H147.603C147.679 29.1058 148.853 27.6657 151.165 27.6657C153.325 27.6657 154.576 28.7647 154.576 30.3565C154.576 31.1523 154.083 31.7587 153.136 31.7587H149.915C145.746 31.7587 142.941 34.0325 142.941 37.7844C142.941 41.0436 145.481 43.507 149.195 43.507C151.809 43.507 153.932 42.3321 154.576 40.5509V43.2038H159.806V30.9249C159.806 26.6046 156.281 23.8001 151.468 23.8001ZM150.521 39.6793C149.043 39.6793 147.982 38.8076 147.982 37.557C147.982 36.079 149.119 35.0937 150.71 35.0937H154.576V35.359C154.576 37.7844 153.098 39.6793 150.521 39.6793ZM161.83 43.2038H167.097V15.8037H161.83V43.2038ZM169.896 43.2038H180.734C186.343 43.2038 190.209 40.3236 190.209 35.2832C190.209 31.7966 188.162 29.6743 185.737 28.7269C187.291 27.8931 188.844 25.9982 188.844 23.497C188.844 19.0629 185.244 16.6754 180.431 16.6754H169.896V43.2038ZM175.504 26.7941V21.1852H179.901C182.44 21.1852 183.577 22.2084 183.577 23.9896C183.577 25.7708 182.44 26.7941 180.014 26.7941H175.504ZM175.504 38.2771V31.6071H180.242C183.387 31.6071 184.789 32.8198 184.789 34.98C184.789 37.1401 183.387 38.2771 180.242 38.2771H175.504ZM199.374 23.8001C194.144 23.8001 191.036 26.8699 190.809 30.6975H195.508C195.584 29.1058 196.759 27.6657 199.07 27.6657C201.231 27.6657 202.481 28.7647 202.481 30.3565C202.481 31.1523 201.989 31.7587 201.041 31.7587H197.82C193.651 31.7587 190.847 34.0325 190.847 37.7844C190.847 41.0436 193.386 43.507 197.1 43.507C199.715 43.507 201.837 42.3321 202.481 40.5509V43.2038H207.711V30.9249C207.711 26.6046 204.187 23.8001 199.374 23.8001ZM198.426 39.6793C196.948 39.6793 195.887 38.8076 195.887 37.557C195.887 36.079 197.024 35.0937 198.616 35.0937H202.481V35.359C202.481 37.7844 201.003 39.6793 198.426 39.6793ZM209.432 43.2038H214.737V32.744C214.737 30.2807 216.367 28.4995 218.679 28.4995C220.877 28.4995 222.355 30.167 222.355 32.4787V43.2038H227.661V31.3039C227.661 26.9078 224.856 23.8001 220.536 23.8001C217.921 23.8001 215.799 24.8992 214.737 26.7562V24.1033H209.432V43.2038ZM242.782 43.2038H249.149L240.925 31.6071L248.542 24.1033H241.872L235.24 30.6217V15.8037H229.934V43.2038H235.24V37.2159L237.362 35.1316L242.782 43.2038Z" fill="#2C2C2C"/>
</g>
</g>
</g>
</g>
<defs>
<clipPath id="clip0_134_2478">
<rect width="248.862" height="60.6364" fill="white" transform="translate(0.826172 0.25293)"/>
</clipPath>
<clipPath id="clip1_134_2478">
<rect width="248.862" height="60.6364" fill="white" transform="translate(0.826172 0.25293)"/>
</clipPath>
<clipPath id="clip2_134_2478">
<rect width="248.862" height="60.6364" fill="white" transform="translate(0.826172 0.25293)"/>
</clipPath>
</defs>
</svg>
