<svg width="145" height="65" viewBox="0 0 145 65" fill="none" xmlns="http://www.w3.org/2000/svg">
<g clip-path="url(#clip0_3305_1204)">
<path d="M61.77 -0.0361655C62.5533 -0.0483469 62.5533 -0.0483469 63.3524 -0.0607743C63.9186 -0.0634983 64.4847 -0.0662223 65.068 -0.0690289C65.648 -0.073615 66.2281 -0.078201 66.8257 -0.0829261C68.0546 -0.0903062 69.2835 -0.0948101 70.5124 -0.0966837C72.3945 -0.102725 74.2758 -0.127696 76.1577 -0.153358C77.3502 -0.158165 78.5427 -0.16184 79.7352 -0.164271C80.2993 -0.174192 80.8634 -0.184114 81.4446 -0.194336C85.3393 -0.17145 85.3393 -0.17145 86.9544 1.22442C87.203 1.69792 87.4516 2.17141 87.7078 2.65925C87.9961 3.12255 88.2844 3.58585 88.5814 4.0632C88.8674 4.5644 89.1533 5.06559 89.4479 5.58198C89.7691 6.14215 90.0902 6.70232 90.4212 7.27947C90.7515 7.86059 91.0818 8.44171 91.4222 9.04045C92.0762 10.1841 92.7303 11.3277 93.3846 12.4711C93.8625 13.3159 93.8625 13.3159 94.3501 14.1778C95.0066 15.3122 95.6842 16.4346 96.3815 17.5445C96.7112 18.0743 97.041 18.6041 97.3807 19.15C97.6814 19.6187 97.9821 20.0875 98.2919 20.5705C99.039 22.3294 98.8982 23.1861 98.3748 25.0093C97.745 26.392 97.745 26.392 96.9482 27.7991C96.6547 28.3213 96.3612 28.8435 96.0588 29.3815C95.744 29.9292 95.4292 30.477 95.1049 31.0413C94.6258 31.8845 94.6258 31.8845 94.1371 32.7447C92.255 36.0377 90.3394 39.3089 88.3427 42.5338C88.1368 42.8676 87.9309 43.2015 87.7188 43.5455C86.3118 45.7715 86.3118 45.7715 85.168 46.3435C84.3645 46.3994 83.5588 46.4243 82.7535 46.4334C82.0007 46.4431 82.0007 46.4431 81.2327 46.4531C80.6888 46.4569 80.1448 46.4606 79.5844 46.4645C78.7482 46.4706 78.7482 46.4706 77.8951 46.4769C76.714 46.4839 75.5329 46.4894 74.3518 46.4934C72.5435 46.5021 70.7355 46.5244 68.9273 46.5468C67.7811 46.552 66.6349 46.5563 65.4887 46.5597C64.9468 46.5686 64.4049 46.5775 63.8466 46.5867C60.1202 46.5757 60.1202 46.5757 58.5137 45.5097C57.5904 44.083 56.7017 42.6631 55.8692 41.1806C55.6138 40.7294 55.6138 40.7294 55.3532 40.2691C54.8117 39.3114 54.2748 38.3512 53.7382 37.3907C53.206 36.4447 52.6728 35.4991 52.139 34.554C51.791 33.9366 51.4442 33.3185 51.0989 32.6997C50.0687 30.8614 48.9709 29.0854 47.8293 27.315C46.5849 25.2071 46.0308 23.9371 46.5633 21.4536C47.5171 19.3387 48.6574 17.3563 49.8333 15.3581C50.1563 14.7966 50.4792 14.2351 50.812 13.6566C51.758 12.0176 52.7145 10.3854 53.6747 8.75472C53.9285 8.32002 54.1823 7.88533 54.4438 7.43746C58.79 -0.0012182 58.79 -0.00121824 61.77 -0.0361655Z" fill="#EDECEC"/>
<path d="M81.104 9.26337C83.6751 9.05241 86.2365 8.93266 88.8166 8.99153C89.4515 9.00424 89.4515 9.00424 90.0993 9.0172C91.5816 9.33073 92.1582 9.90525 93.1362 11.0412C93.5421 11.9663 93.9311 12.8988 94.3108 13.835C94.7 14.5097 95.1005 15.178 95.5093 15.841C95.946 16.5585 96.3826 17.2761 96.8189 17.9939C97.0298 18.3376 97.2408 18.6814 97.4582 19.0356C97.7458 19.5365 97.7458 19.5365 98.0392 20.0475C98.2139 20.3429 98.3887 20.6384 98.5688 20.9428C99.1724 22.9048 98.571 24.5785 97.7446 26.3927C97.3502 27.0892 97.3502 27.0892 96.9478 27.7998C96.6543 28.322 96.3608 28.8442 96.0584 29.3822C95.7436 29.9299 95.4289 30.4776 95.1045 31.042C94.6255 31.8852 94.6255 31.8852 94.1367 32.7454C92.2546 36.0384 90.3391 39.3096 88.3424 42.5345C88.1365 42.8683 87.9306 43.2022 87.7185 43.5462C86.3114 45.7722 86.3114 45.7722 85.1676 46.3441C84.3642 46.4001 83.5585 46.425 82.7531 46.4341C82.0003 46.4438 82.0003 46.4438 81.2324 46.4538C80.6884 46.4576 80.1445 46.4613 79.5841 46.4652C78.7479 46.4713 78.7479 46.4713 77.8948 46.4776C76.7137 46.4846 75.5326 46.4901 74.3515 46.4941C72.5431 46.5028 70.7352 46.5251 68.9269 46.5475C67.7807 46.5527 66.6345 46.557 65.4883 46.5604C64.9464 46.5693 64.4046 46.5782 63.8463 46.5874C60.1199 46.5764 60.1199 46.5764 58.5134 45.5104C57.5901 44.0837 56.7014 42.6638 55.8689 41.1812C55.6986 40.8805 55.5283 40.5797 55.3529 40.2698C54.8114 39.3121 54.2745 38.3519 53.7379 37.3914C53.2057 36.4454 52.6725 35.4998 52.1387 34.5547C51.7906 33.9373 51.4439 33.3192 51.0985 32.7004C50.0683 30.8621 48.9706 29.0861 47.8289 27.3156C46.5976 25.2591 46.1076 23.8878 46.563 21.4543C47.1233 20.1134 47.8243 18.9063 48.5948 17.6764C48.7886 17.3532 48.9825 17.0301 49.1821 16.6972C49.6567 15.9082 50.1407 15.1249 50.6266 14.3429C50.9619 14.3429 51.2971 14.3429 51.6426 14.3429C55.8994 21.7796 60.1546 29.2165 64.3414 36.693C69.7055 36.693 75.0695 36.693 80.596 36.693C81.8742 34.5662 83.1523 32.4395 84.4692 30.2483C84.8762 29.5819 85.2833 28.9156 85.7026 28.229C86.1705 27.4341 86.1705 27.4341 86.6479 26.6232C86.9724 26.0832 87.2969 25.5432 87.6313 24.9868C88.3606 23.5378 88.3606 23.5378 87.8949 22.1793C87.6654 21.7724 87.4359 21.3655 87.1995 20.9464C86.8654 20.3269 86.8654 20.3269 86.5246 19.6949C86.2745 19.2678 86.0245 18.8407 85.7669 18.4006C85.4951 17.9321 85.2234 17.4636 84.9434 16.9809C84.3697 15.9992 83.7956 15.0177 83.2211 14.0364C82.9507 13.5698 82.6803 13.1033 82.4017 12.6226C82.1528 12.1972 81.9039 11.7718 81.6474 11.3335C81.104 10.2793 81.104 10.2793 81.104 9.26337Z" fill="#D74538"/>
<path d="M61.7708 -0.0361656C62.5541 -0.0483469 62.5541 -0.0483469 63.3532 -0.0607743C63.9194 -0.0634983 64.4855 -0.0662224 65.0688 -0.0690289C65.6488 -0.073615 66.2289 -0.078201 66.8265 -0.0829261C68.0554 -0.0903062 69.2843 -0.0948101 70.5132 -0.0966837C72.3953 -0.102725 74.2766 -0.127696 76.1585 -0.153358C77.351 -0.158165 78.5435 -0.16184 79.736 -0.164271C80.3001 -0.174192 80.8642 -0.184114 81.4454 -0.194336C85.3526 -0.171377 85.3526 -0.171377 87.0029 1.30937C87.2358 1.75483 87.4686 2.20029 87.7086 2.65925C88.0307 3.17522 88.3529 3.69119 88.6848 4.2228C88.9912 4.75449 89.2977 5.28617 89.6134 5.83397C89.9251 6.3709 90.2368 6.90782 90.5579 7.46102C91.2642 8.75472 91.2642 8.75472 91.2642 9.26267C82.2786 9.82934 73.345 9.80894 64.3426 9.77063C61.8282 14.1289 59.3138 18.4872 56.7233 22.9775C55.1736 21.4278 54.1105 19.8306 53.0088 17.9614C52.8134 17.6504 52.6179 17.3394 52.4165 17.0189C51.8719 16.0923 51.8719 16.0923 51.1357 14.3422C51.6961 12.5171 52.6054 10.9106 53.5485 9.25672C53.8157 8.78822 54.0828 8.31972 54.3581 7.83702C54.6357 7.35412 54.9133 6.87121 55.1994 6.37368C55.477 5.88488 55.7546 5.39608 56.0407 4.89247C56.3078 4.42593 56.575 3.9594 56.8502 3.47872C57.0938 3.05332 57.3374 2.62791 57.5884 2.18961C58.822 0.21541 59.5105 -0.00965846 61.7708 -0.0361656Z" fill="#4E8CF4"/>
<path d="M50.6266 14.3418C50.9619 14.3418 51.2971 14.3418 51.6426 14.3418C53.2143 17.0876 53.2143 17.0876 53.7674 18.0585C54.6928 19.6813 55.6264 21.2985 56.5761 22.9072C59.8198 28.4368 59.8198 28.4368 60.7739 31.3008C61.8647 34.5174 61.8647 34.5174 64.3414 36.6919C69.4925 37.8027 74.8603 37.5134 80.0881 37.1998C79.4257 39.2633 78.7091 40.9568 77.5483 42.7873C77.1896 43.4054 76.8339 44.0253 76.4808 44.6465C76.1626 45.2064 75.8443 45.7662 75.5165 46.343C73.3112 46.3933 71.1061 46.4302 68.9004 46.4546C68.1505 46.4648 67.4006 46.4787 66.6508 46.4963C65.5714 46.521 64.4925 46.5325 63.4128 46.5414C62.7638 46.5521 62.1147 46.5627 61.446 46.5737C59.7698 46.343 59.7698 46.343 58.6431 45.5104C57.5925 44.1183 56.7232 42.7015 55.8689 41.1801C55.6986 40.8794 55.5283 40.5786 55.3529 40.2687C54.8114 39.311 54.2745 38.3508 53.7379 37.3903C53.2057 36.4442 52.6725 35.4987 52.1387 34.5535C51.7906 33.9362 51.4439 33.3181 51.0985 32.6992C50.0683 30.861 48.9706 29.0849 47.8289 27.3145C46.5976 25.258 46.1076 23.8866 46.563 21.4532C47.1233 20.1122 47.8243 18.9052 48.5948 17.6753C48.7886 17.3521 48.9825 17.029 49.1821 16.6961C49.6567 15.9071 50.1407 15.1238 50.6266 14.3418Z" fill="#FECD43"/>
<path d="M75.9302 16.9768C77.8632 18.5784 79.1042 19.9289 79.5494 22.4373C79.7067 24.5302 79.2642 25.7967 78.0573 27.5486C76.6527 29.1245 75.8627 29.9289 73.7892 30.3166C70.9184 30.4418 69.078 30.0381 66.8822 28.0566C65.4249 26.3078 65.0849 24.7817 65.1798 22.4988C65.5782 20.1659 66.7288 18.4832 68.5013 16.9133C71.0199 15.9618 73.4426 15.9265 75.9302 16.9768Z" fill="#FEFEFE"/>
<path d="M64.8508 37.2012C69.8795 37.2012 74.9083 37.2012 80.0894 37.2012C79.3232 39.4998 78.7847 40.8411 77.5497 42.7887C76.8791 43.9621 76.2086 45.1354 75.5178 46.3444C70.6567 46.3444 65.7956 46.3444 60.7871 46.3444C60.7871 46.1768 60.7871 46.0091 60.7871 45.8364C63.6367 45.8364 66.4864 45.8364 69.4224 45.8364C69.59 44.8307 69.7576 43.8249 69.9303 42.7887C68.8879 41.335 68.8879 41.335 67.4223 40.0902C66.5627 39.2991 65.7048 38.5062 64.8508 37.7091C64.8508 37.5415 64.8508 37.3739 64.8508 37.2012Z" fill="#F2B93B"/>
<path d="M43.008 59.0413C43.0491 60.2798 43.0793 61.5169 43.1032 62.7557C43.1224 63.2817 43.1224 63.2817 43.1419 63.8183C43.1792 66.3933 43.1792 66.3933 42.3572 67.6765C40.8865 68.5322 39.5254 68.008 37.9284 67.6765C37.9284 67.006 37.9284 66.3355 37.9284 65.6447C39.4371 65.8962 39.4371 65.8962 40.9762 66.1527C41.3114 65.6498 41.6467 65.1469 41.9921 64.6288C41.5311 64.7545 41.0701 64.8802 40.5952 65.0098C38.9443 65.1368 38.9443 65.1368 37.7062 64.3748C36.9125 63.1049 36.9125 63.1049 36.9443 61.2636C37.9191 57.7543 40.0795 58.5612 43.008 59.0413Z" fill="#7B7B7B"/>
<path d="M53.6752 10.7871C55.1614 12.1891 56.312 13.5915 57.3897 15.327C57.6601 15.7506 57.9305 16.1743 58.2091 16.6107C58.8822 18.1993 58.8392 18.8276 58.2468 20.4383C57.1992 21.8669 57.1992 21.8669 56.215 22.9781C55.3494 21.5756 54.4954 20.1664 53.6435 18.7557C53.397 18.3566 53.1504 17.9575 52.8964 17.5463C52.6656 17.1616 52.4348 16.7769 52.197 16.3806C51.9815 16.0268 51.7661 15.673 51.5441 15.3085C51.1355 14.3428 51.1355 14.3428 51.6434 12.8189C51.9787 12.8189 52.3139 12.8189 52.6593 12.8189C52.9946 12.1484 53.3298 11.4779 53.6752 10.7871Z" fill="#4781E8"/>
<path d="M17.9283 55.2011C18.551 55.2786 18.551 55.2786 19.1863 55.3578C19.6636 55.4216 19.6636 55.4216 20.1506 55.4868C20.1506 55.9897 20.1506 56.4925 20.1506 57.0106C19.8383 56.993 19.5259 56.9753 19.2041 56.9571C18.5883 56.9364 18.5883 56.9364 17.96 56.9154C17.5534 56.8977 17.1468 56.88 16.7278 56.8618C15.5499 56.9225 15.5499 56.9225 14.6623 57.6654C13.8729 58.6056 13.8729 58.6056 14.1504 60.3441C14.4067 62.1118 14.4067 62.1118 15.579 63.1061C17.3568 63.3178 17.3568 63.3178 19.1347 63.1061C19.4699 62.6032 19.8052 62.1004 20.1506 61.5822C18.642 61.3308 18.642 61.3308 17.1029 61.0743C17.1029 60.5714 17.1029 60.0685 17.1029 59.5504C18.6115 59.5504 20.1201 59.5504 21.6745 59.5504C21.8332 61.2013 21.8332 61.2013 21.6745 63.1061C20.3172 64.7101 19.4594 65.0848 17.3886 65.4237C15.0017 65.0468 14.2242 64.2911 12.5312 62.5982C11.794 61.1236 11.8341 60.1739 12.0233 58.5345C13.6122 55.9673 14.9199 54.8143 17.9283 55.2011Z" fill="#797979"/>
<path d="M84.6607 55.9941C84.996 55.9941 85.3312 55.9941 85.6766 55.9941C85.6766 59.0114 85.6766 62.0287 85.6766 65.1373C81.613 65.1373 81.613 65.1373 80.3431 64.2802C79.4208 62.8583 79.2489 62.2273 79.5812 60.5657C80.4383 59.3593 80.4383 59.3593 81.613 58.5339C83.0099 58.6609 83.0099 58.6609 84.1528 59.0419C84.3204 58.0361 84.488 57.0304 84.6607 55.9941Z" fill="#818181"/>
<path d="M88.7246 55.9941C90.2332 55.9941 91.7419 55.9941 93.2962 55.9941C93.7991 56.497 94.302 56.9999 94.8201 57.518C94.7566 59.0736 94.7566 59.0736 94.3121 60.5657C92.6725 61.6588 92.136 61.6837 90.2485 61.5817C90.2485 62.755 90.2485 63.9284 90.2485 65.1373C89.7456 65.1373 89.2427 65.1373 88.7246 65.1373C88.7246 62.1201 88.7246 59.1028 88.7246 55.9941Z" fill="#8C8C8C"/>
<path d="M34.3727 58.5337C35.7607 59.5465 36.3194 60.14 36.6585 61.8354C36.4045 63.1053 36.4045 63.1053 35.6108 64.3117C34.3727 65.1371 34.3727 65.1371 32.5313 65.0736C30.817 64.6291 30.817 64.6291 29.8011 63.6132C29.6106 61.8671 29.6106 61.8671 29.8011 60.0575C31.1426 58.5172 32.3765 58.1843 34.3727 58.5337Z" fill="#7B7B7B"/>
<path d="M27.7692 59.042C28.7851 60.0579 28.7851 60.0579 28.9439 61.804C28.7851 63.6136 28.7851 63.6136 28.2137 64.5977C26.8093 65.3936 25.7974 65.3354 24.2135 65.1374C23.2611 64.5977 23.2611 64.5977 22.6897 63.6136C22.5025 61.8669 22.3932 60.616 23.2294 59.042C24.8202 58.2209 26.0787 58.6424 27.7692 59.042Z" fill="#818181"/>
<path d="M71.4529 59.0418C72.4688 60.5657 72.4688 60.5657 72.3736 62.3753C71.9609 64.1214 71.9609 64.1214 70.437 65.1373C69.0171 65.3148 68.2199 65.3264 66.9766 64.5976C66.0228 63.0414 66.1512 61.8347 66.3734 60.0577C67.8871 58.1946 69.2619 58.375 71.4529 59.0418Z" fill="#727272"/>
<path d="M115.709 58.598C117.17 59.0425 117.17 59.0425 118.186 60.0584C118.462 63.0945 118.462 63.0945 117.646 64.63C116.038 65.4599 114.807 65.0631 113.106 64.63C112.006 62.98 111.81 62.4809 112.09 60.5663C113.226 58.9063 113.67 58.5164 115.709 58.598Z" fill="#7D7D7D"/>
<path d="M102.44 59.0424C102.948 59.5504 102.948 59.5504 102.997 60.7112C102.991 61.1767 102.986 61.6423 102.979 62.1219C102.975 62.5888 102.97 63.0557 102.966 63.5367C102.96 63.8974 102.954 64.2582 102.948 64.63C99.8722 65.126 99.8722 65.126 98.8841 65.1379C98.5488 64.8027 98.2136 64.4674 97.8682 64.122C98.1504 61.808 98.1504 61.808 98.8841 61.0743C99.8998 61.0535 100.916 61.0527 101.932 61.0743C101.932 60.739 101.932 60.4038 101.932 60.0584C100.591 60.226 99.2498 60.3936 97.8682 60.5663C98.0358 60.0634 98.2034 59.5606 98.3761 59.0424C99.8401 58.3105 100.874 58.7093 102.44 59.0424Z" fill="#838383"/>
<path d="M50.6283 58.5346C51.549 59.2965 51.549 59.2965 52.1522 60.0584C51.6442 61.5823 51.6442 61.5823 50.0886 62.4395C49.5962 62.6595 49.1038 62.8795 48.5965 63.1062C49.6022 63.1062 50.608 63.1062 51.6442 63.1062C51.6442 63.609 51.6442 64.1119 51.6442 64.63C48.4064 65.302 48.4064 65.302 47.1044 64.63C46.2682 63.056 46.3775 61.8051 46.5647 60.0584C47.6051 58.3609 48.721 58.2485 50.6283 58.5346Z" fill="#737373"/>
<path d="M64.8496 37.2012C69.8784 37.2012 74.9071 37.2012 80.0883 37.2012C79.753 38.2069 79.4178 39.2127 79.0724 40.2489C74.9504 39.9008 74.9504 39.9008 73.0721 39.233C70.9368 38.5631 68.8612 38.5013 66.6334 38.3917C66.2124 38.3341 65.7914 38.2765 65.3576 38.2171C65.1899 37.8818 65.0223 37.5466 64.8496 37.2012Z" fill="#E9B43B"/>
<path d="M127.55 58.7882C129.248 59.0264 130.26 58.8621 131.9 58.5342C132.916 59.5501 132.916 59.5501 133.015 60.7605C133.003 61.2201 132.991 61.6798 132.979 62.1534C132.97 62.6156 132.961 63.0779 132.951 63.5542C132.94 63.9091 132.928 64.264 132.916 64.6297C132.58 64.6297 132.245 64.6297 131.9 64.6297C131.732 63.121 131.565 61.6124 131.392 60.058C130.721 60.2257 130.051 60.3933 129.36 60.566C129.192 61.907 129.025 63.248 128.852 64.6297C128.517 64.6297 128.182 64.6297 127.836 64.6297C127.668 63.121 127.501 61.6124 127.328 60.058C126.658 60.2257 125.987 60.3933 125.296 60.566C125.129 61.907 124.961 63.248 124.788 64.6297C124.453 64.6297 124.118 64.6297 123.772 64.6297C123.772 62.7858 123.772 60.9419 123.772 59.0421C125.804 58.5342 125.804 58.5342 127.55 58.7882Z" fill="#717171"/>
<path d="M68.4064 40.7559C69.7474 40.7559 71.0885 40.7559 72.4701 40.7559C72.4701 41.0911 72.4701 41.4264 72.4701 41.7718C72.8053 41.9394 73.1406 42.107 73.486 42.2797C73.486 43.4531 73.486 44.6265 73.486 45.8354C70.6785 46.314 67.981 46.4049 65.1365 46.3751C64.7164 46.3728 64.2964 46.3705 63.8636 46.3682C62.8381 46.3622 61.8126 46.3531 60.7871 46.3434C60.7871 46.1757 60.7871 46.0081 60.7871 45.8354C63.6367 45.8354 66.4864 45.8354 69.4224 45.8354C70.2356 42.9964 70.2356 42.9964 69.2001 41.5813C68.9382 41.3089 68.6763 41.0365 68.4064 40.7559Z" fill="#FBC339"/>
<path d="M61.8025 55.9944C62.1378 56.6649 62.473 57.3354 62.8184 58.0262C62.5061 57.9718 62.1938 57.9175 61.872 57.8615C61.2561 57.7702 61.2561 57.7702 60.6279 57.677C60.2213 57.6121 59.8146 57.5473 59.3957 57.4805C58.218 57.4146 58.218 57.4146 57.3321 58.1571C56.5456 59.1117 56.5456 59.1117 56.7865 60.8517C57.0564 62.727 57.0564 62.727 58.7548 63.6137C60.3847 63.7391 61.7628 63.569 63.3264 63.1057C63.3264 63.441 63.3264 63.7762 63.3264 64.1217C61.5914 65.1893 60.2676 65.385 58.2468 65.1376C56.8754 64.2233 55.9398 63.5711 55.1991 62.0898C54.9522 59.9091 54.9642 58.8791 56.215 57.042C58.2622 55.6346 59.3635 55.7877 61.8025 55.9944Z" fill="#7A7A7A"/>
<path d="M81.1055 9.2627C84.458 9.2627 87.8105 9.2627 91.2646 9.2627C91.2646 9.43032 91.2646 9.59795 91.2646 9.77065C88.2473 9.77065 85.2301 9.77065 82.1214 9.77065C82.6871 10.3992 83.2529 11.0278 83.8357 11.6755C85.0382 13.0116 85.9594 14.221 86.693 15.8661C86.1901 16.369 85.6872 16.8719 85.1691 17.39C84.4892 16.2274 83.8124 15.0632 83.1373 13.8978C82.9435 13.5671 82.7497 13.2365 82.55 12.8958C81.1055 10.3937 81.1055 10.3937 81.1055 9.2627Z" fill="#C5412F"/>
<path d="M68.4057 59.5508C69.7391 59.7413 69.7391 59.7413 70.9455 60.0587C71.263 61.5191 71.263 61.5191 71.4534 63.1065C71.1182 63.4417 70.7829 63.777 70.4375 64.1224C68.1235 63.8402 68.1235 63.8402 67.3898 63.1065C67.2945 61.8683 67.2945 61.8683 67.3898 60.5667C67.725 60.2314 68.0603 59.8962 68.4057 59.5508Z" fill="#F2F2F2"/>
<path d="M44.0244 55.4863C44.5273 55.4863 45.0302 55.4863 45.5483 55.4863C45.5483 58.6712 45.5483 61.8561 45.5483 65.1375C45.0454 65.1375 44.5425 65.1375 44.0244 65.1375C44.0244 61.9526 44.0244 58.7677 44.0244 55.4863Z" fill="#7E7E7E"/>
<path d="M115.709 59.6774C116.661 60.0584 116.661 60.0584 117.169 60.5663C117.264 61.8045 117.264 61.8045 117.169 63.1061C116.834 63.4414 116.499 63.7766 116.153 64.122C114.82 63.9316 114.82 63.9316 113.613 63.6141C113.264 62.4394 113.264 62.4394 113.105 61.0743C113.893 59.8305 114.223 59.5026 115.709 59.6774Z" fill="#F5F5F5"/>
<path d="M104.978 57.0107C105.313 57.0107 105.648 57.0107 105.994 57.0107C105.994 57.6812 105.994 58.3517 105.994 59.0426C106.497 59.0426 107 59.0426 107.518 59.0426C107.518 59.3778 107.518 59.7131 107.518 60.0585C107.015 60.0585 106.512 60.0585 105.994 60.0585C105.994 61.3995 105.994 62.7405 105.994 64.1221C106.497 64.1221 107 64.1221 107.518 64.1221C107.518 64.4574 107.518 64.7926 107.518 65.138C106.28 64.9476 106.28 64.9476 104.978 64.6301C104.227 63.1282 104.439 61.7132 104.47 60.0585C104.135 60.0585 103.8 60.0585 103.454 60.0585C103.454 59.7232 103.454 59.388 103.454 59.0426C103.957 59.0426 104.46 59.0426 104.978 59.0426C104.978 58.3721 104.978 57.7016 104.978 57.0107Z" fill="#8E8E8E"/>
<path d="M83.2 59.6774C84.1524 60.0584 84.1524 60.0584 84.6603 60.5663C84.7556 61.8045 84.7556 61.8045 84.6603 63.1061C84.3251 63.4414 83.9898 63.7766 83.6444 64.122C82.311 63.9316 82.311 63.9316 81.1046 63.6141C80.7554 62.4394 80.7554 62.4394 80.5967 61.0743C81.3845 59.8305 81.7138 59.5026 83.2 59.6774Z" fill="#F5F5F5"/>
<path d="M95.3271 55.9941C95.83 55.9941 96.3329 55.9941 96.851 55.9941C96.851 59.0114 96.851 62.0287 96.851 65.1373C96.3481 65.1373 95.8453 65.1373 95.3271 65.1373C95.3271 62.1201 95.3271 59.1028 95.3271 55.9941Z" fill="#949494"/>
<path d="M51.6436 14.8496C52.1464 14.8496 52.6493 14.8496 53.1674 14.8496C53.1674 15.3525 53.1674 15.8554 53.1674 16.3735C53.5917 16.5463 53.5917 16.5463 54.0246 16.7227C55.5205 17.5717 56.5614 18.6861 57.739 19.9292C57.4038 20.9349 57.0685 21.9407 56.7231 22.9769C55.1283 21.6176 54.2756 19.8855 53.3262 18.0561C53.0821 17.594 53.0821 17.594 52.8331 17.1225C52.4341 16.3662 52.0385 15.6081 51.6436 14.8496Z" fill="#4473D3"/>
<path d="M110.059 55.9941C110.73 55.9941 111.4 55.9941 112.091 55.9941C112.091 56.3294 112.091 56.6646 112.091 57.0101C111.588 57.1777 111.085 57.3453 110.567 57.518C110.399 58.0209 110.232 58.5238 110.059 59.0419C110.562 59.0419 111.065 59.0419 111.583 59.0419C111.583 59.3771 111.583 59.7124 111.583 60.0578C111.08 60.0578 110.577 60.0578 110.059 60.0578C110.059 61.5664 110.059 63.075 110.059 64.6294C109.724 64.6294 109.389 64.6294 109.043 64.6294C109.043 63.1208 109.043 61.6121 109.043 60.0578C108.708 60.0578 108.373 60.0578 108.027 60.0578C108.027 59.7225 108.027 59.3873 108.027 59.0419C108.363 59.0419 108.698 59.0419 109.043 59.0419C109.117 58.6333 109.19 58.2247 109.265 57.8037C109.551 56.5021 109.551 56.5021 110.059 55.9941Z" fill="#797979"/>
<path d="M123.266 58.5342C123.098 59.0371 122.931 59.5399 122.758 60.058C122.255 60.2257 121.752 60.3933 121.234 60.566C121.066 62.0746 120.899 63.5833 120.726 65.1376C120.223 65.1376 119.72 65.1376 119.202 65.1376C119.202 63.1261 119.202 61.1146 119.202 59.0421C121.742 58.5342 121.742 58.5342 123.266 58.5342Z" fill="#939393"/>
<path d="M40.2469 60.0264C40.8597 60.0421 40.8597 60.0421 41.485 60.0581C41.6787 61.0697 41.8473 62.0863 41.993 63.1058C41.485 63.6138 41.485 63.6138 40.2151 63.6773C38.9452 63.6138 38.9452 63.6138 38.4373 63.1058C38.3738 61.836 38.3738 61.836 38.4373 60.5661C38.9452 60.0581 38.9452 60.0581 40.2469 60.0264Z" fill="#F6F6F6"/>
<path d="M33.1348 60.0264C33.7477 60.0421 33.7477 60.0421 34.3729 60.0581C34.9444 62.4709 34.9444 62.4709 34.3729 63.6138C33.5266 63.6355 32.6795 63.6344 31.8332 63.6138C31.3252 63.1058 31.3252 63.1058 31.2617 61.836C31.3482 60.1056 31.3982 60.0687 33.1348 60.0264Z" fill="#FAFAFA"/>
<path d="M24.7211 60.0586C25.5721 60.2039 26.4196 60.3724 27.2609 60.5665C27.5784 61.519 27.5784 61.519 27.7688 62.5984C27.4336 62.9336 27.0983 63.2689 26.7529 63.6143C25.4195 63.4238 25.4195 63.4238 24.2131 63.1063C24.1914 62.26 24.1925 61.4129 24.2131 60.5665C24.3808 60.3989 24.5484 60.2313 24.7211 60.0586Z" fill="#FBFBFB"/>
<path d="M64.8496 37.2012C69.8784 37.2012 74.9071 37.2012 80.0883 37.2012C79.753 37.8717 79.4178 38.5422 79.0724 39.233C78.7371 39.233 78.4019 39.233 78.0565 39.233C77.8888 38.8977 77.7212 38.5625 77.5485 38.2171C73.3579 38.0495 69.1672 37.8818 64.8496 37.7091C64.8496 37.5415 64.8496 37.3739 64.8496 37.2012Z" fill="#DDA027"/>
<path d="M90.248 57.01C91.0944 56.9883 91.9415 56.9894 92.7878 57.01C93.2958 57.518 93.2958 57.518 93.3275 58.8196C93.3171 59.2282 93.3066 59.6368 93.2958 60.0578C92.29 60.0578 91.2843 60.0578 90.248 60.0578C90.248 59.052 90.248 58.0463 90.248 57.01Z" fill="#F8F8F8"/>
<path d="M84.6604 55.9941C84.9957 55.9941 85.3309 55.9941 85.6764 55.9941C85.6764 58.8438 85.6764 61.6934 85.6764 64.6294C84.5641 62.9609 84.1535 61.4765 83.6445 59.5498C83.9798 59.5498 84.315 59.5498 84.6604 59.5498C84.6604 58.3765 84.6604 57.2031 84.6604 55.9941Z" fill="#6E6E6E"/>
<path d="M34.8816 60.0586C35.3845 60.2262 35.8873 60.3938 36.4054 60.5665C36.5324 61.7095 36.5324 61.7095 36.4054 63.1063C35.453 64.281 35.453 64.281 34.3736 65.1382C34.0384 65.1382 33.7031 65.1382 33.3577 65.1382C33.3577 64.8029 33.3577 64.4676 33.3577 64.1222C33.0225 63.9546 32.6872 63.787 32.3418 63.6143C33.0123 63.6143 33.6828 63.6143 34.3736 63.6143C34.3631 63.1219 34.3527 62.6295 34.3419 62.1222C34.3736 60.5665 34.3736 60.5665 34.8816 60.0586Z" fill="#818181"/>
<path d="M73.485 59.042C73.8202 59.042 74.1555 59.042 74.5009 59.042C74.514 59.3602 74.5271 59.6784 74.5405 60.0063C74.5694 60.4214 74.5982 60.8366 74.6279 61.2643C74.6514 61.6768 74.675 62.0893 74.6993 62.5143C74.9033 63.7093 74.9033 63.7093 76.0485 64.2684C76.3759 64.3876 76.7033 64.5067 77.0406 64.6295C75.8342 64.947 75.8342 64.947 74.5009 65.1375C73.485 64.1216 73.485 64.1216 73.3857 62.9112C73.3975 62.4515 73.4093 61.9919 73.4215 61.5183C73.4306 61.056 73.4398 60.5937 73.4492 60.1174C73.461 59.7625 73.4728 59.4076 73.485 59.042Z" fill="#707070"/>
<path d="M23.7063 61.0742C24.0416 61.7447 24.3768 62.4152 24.7223 63.106C25.5604 63.106 26.3985 63.106 27.262 63.106C27.262 63.7765 27.262 64.447 27.262 65.1379C25.8334 65.2649 25.8334 65.2649 24.2143 65.1379C23.2619 64.122 23.2619 64.122 22.6904 63.106C23.0257 62.4355 23.3609 61.765 23.7063 61.0742Z" fill="#878787"/>
<path d="M50.6271 58.5336C50.6271 60.0574 50.6271 60.0574 49.9604 60.9146C49.1033 61.5813 49.1033 61.5813 47.5794 61.5813C47.5794 61.246 47.5794 60.9108 47.5794 60.5654C47.2441 60.3977 46.9089 60.2301 46.5635 60.0574C47.8162 58.4751 48.6504 58.3733 50.6271 58.5336Z" fill="#AAAAAA"/>
<path d="M41.9925 59.042C42.3277 59.042 42.663 59.042 43.0084 59.042C43.0084 61.2211 43.0084 63.4003 43.0084 65.6454C42.6731 65.6454 42.3379 65.6454 41.9925 65.6454C41.9925 65.3102 41.9925 64.9749 41.9925 64.6295C41.6572 64.6295 41.322 64.6295 40.9766 64.6295C41.3118 62.7856 41.6471 60.9417 41.9925 59.042Z" fill="#6E6E6E"/>
<path d="M116.661 59.5508C117.164 59.7184 117.666 59.886 118.185 60.0587C118.248 61.7731 118.248 61.7731 118.185 63.6144C117.169 64.6303 117.169 64.6303 115.835 64.6938C115.437 64.6729 115.039 64.6519 114.629 64.6303C114.964 64.4522 115.299 64.2741 115.645 64.0906C116.87 63.124 116.87 63.124 116.788 61.2334C116.725 60.4005 116.725 60.4005 116.661 59.5508Z" fill="#747474"/>
<path d="M69.9932 58.5342C71.4536 59.0421 71.4536 59.0421 72.152 60.0898C72.2568 60.4146 72.3616 60.7393 72.4695 61.074C71.9666 61.074 71.4637 61.074 70.9456 61.074C70.778 60.7387 70.6104 60.4035 70.4377 60.058C69.0967 60.2257 67.7557 60.3933 66.374 60.566C67.573 59.0442 68.0056 58.5342 69.9932 58.5342Z" fill="#7E7E7E"/>
<path d="M52.1506 63.6134C51.5474 64.3753 51.5474 64.3753 50.6267 65.1372C49.2616 65.2325 49.2616 65.2325 48.0869 65.1372C48.0869 64.6344 48.0869 64.1315 48.0869 63.6134C49.7565 63.2072 50.4795 63.0564 52.1506 63.6134Z" fill="#7C7C7C"/>
<path d="M12.0227 58.5342C12.1485 58.8275 12.2742 59.1209 12.4037 59.4231C13.1234 60.7185 13.9917 61.591 15.0705 62.5978C14.9029 62.9331 14.7352 63.2683 14.5625 63.6137C12.5942 62.7248 12.5942 62.7248 12.0227 61.5819C12.0024 60.5662 12.0007 59.5499 12.0227 58.5342Z" fill="#818181"/>
<path d="M77.549 59.042C77.8842 59.042 78.2195 59.042 78.5649 59.042C78.5649 60.8859 78.5649 62.7298 78.5649 64.6295C78.062 64.4619 77.5591 64.2943 77.041 64.1216C77.2086 62.4453 77.3763 60.769 77.549 59.042Z" fill="#757575"/>
<path d="M23.7061 59.042C24.209 59.042 24.7119 59.042 25.23 59.042C24.5527 60.3965 23.8754 61.7511 23.1982 63.1056C23.0305 63.1056 22.8629 63.1056 22.6902 63.1056C22.6267 61.6453 22.6267 61.6453 22.6902 60.0579C23.0254 59.7227 23.3607 59.3874 23.7061 59.042Z" fill="#737373"/>
<path d="M98.3761 61.582C98.5018 61.8963 98.6276 62.2106 98.7571 62.5344C99.4968 63.792 100.092 64.097 101.424 64.6298C100.217 64.9472 100.217 64.9472 98.8841 65.1377C98.5488 64.8025 98.2136 64.4672 97.8682 64.1218C98.0586 62.7884 98.0586 62.7884 98.3761 61.582Z" fill="#707070"/>
<path d="M94.3117 57.5186C94.6609 58.4392 94.6609 58.4392 94.8196 59.5504C94.2799 60.471 94.2799 60.471 93.2958 61.0742C91.6767 60.9155 91.6767 60.9155 90.248 60.5663C90.248 60.3987 90.248 60.231 90.248 60.0583C91.2538 60.0583 92.2596 60.0583 93.2958 60.0583C93.3691 59.7336 93.4425 59.4088 93.518 59.0742C93.8037 58.0265 93.8037 58.0265 94.3117 57.5186Z" fill="#8F8F8F"/>
<path d="M99.3917 62.0898C100.23 62.0898 101.068 62.0898 101.932 62.0898C101.596 62.7603 101.261 63.4308 100.916 64.1217C100.245 63.954 99.5746 63.7864 98.8838 63.6137C99.0514 63.1108 99.219 62.608 99.3917 62.0898Z" fill="#FAFAFA"/>
<path d="M104.979 60.0586C105.146 60.0586 105.314 60.0586 105.486 60.0586C105.654 61.3996 105.822 62.7406 105.994 64.1222C106.497 64.1222 107 64.1222 107.518 64.1222C107.518 64.4575 107.518 64.7927 107.518 65.1382C106.68 64.9705 105.842 64.8029 104.979 64.6302C104.979 63.1216 104.979 61.6129 104.979 60.0586Z" fill="#797979"/>
<path d="M51.6426 62.0899C51.6426 62.4252 51.6426 62.7604 51.6426 63.1059C50.6369 63.2735 49.6311 63.4411 48.5949 63.6138C48.4272 63.2786 48.2596 62.9433 48.0869 62.5979C49.9283 61.5185 49.9283 61.5185 51.6426 62.0899Z" fill="#F5F5F5"/>
<path d="M28.2768 60.5664C28.4444 60.5664 28.612 60.5664 28.7848 60.5664C28.7848 61.5722 28.7848 62.5779 28.7848 63.6141C27.779 64.117 27.779 64.117 26.7529 64.6301C27.2558 63.289 27.7587 61.948 28.2768 60.5664Z" fill="#707070"/>
<path d="M14.5625 63.1055C15.5683 63.4407 16.574 63.776 17.6102 64.1214C17.6102 64.4566 17.6102 64.7919 17.6102 65.1373C16.1016 64.8859 16.1016 64.8859 14.5625 64.6293C14.5625 64.1265 14.5625 63.6236 14.5625 63.1055Z" fill="#777777"/>
</g>
<defs>
<clipPath id="clip0_3305_1204">
<rect width="143.998" height="64.31" fill="white" transform="translate(0.724609 0.000976562)"/>
</clipPath>
</defs>
</svg>
