<svg width="146" height="65" viewBox="0 0 146 65" fill="none" xmlns="http://www.w3.org/2000/svg">
<g clip-path="url(#clip0_3305_1431)">
<path d="M81.9172 9.37136C84.4759 9.16142 87.025 9.04225 89.5926 9.10084C90.2244 9.11348 90.2244 9.11348 90.869 9.12638C92.3443 9.4384 92.918 10.0101 93.8914 11.1406C94.2953 12.0613 94.6824 12.9893 95.0603 13.9209C95.4476 14.5924 95.8462 15.2575 96.253 15.9173C96.6877 16.6313 97.1221 17.3455 97.5563 18.0598C97.7662 18.4019 97.9762 18.744 98.1925 19.0965C98.4787 19.5949 98.4787 19.5949 98.7707 20.1035C98.9446 20.3975 99.1186 20.6915 99.2978 20.9944C99.8985 22.947 99.3 24.6127 98.4776 26.4182C98.0851 27.1113 98.0851 27.1113 97.6846 27.8184C97.3925 28.3381 97.1004 28.8578 96.7995 29.3932C96.4862 29.9383 96.173 30.4834 95.8502 31.045C95.3734 31.8841 95.3734 31.8841 94.8871 32.7402C93.014 36.0173 91.1077 39.2728 89.1206 42.4821C88.9157 42.8143 88.7108 43.1466 88.4997 43.4889C87.0995 45.7042 87.0995 45.7042 85.9612 46.2734C85.1616 46.3291 84.3598 46.3538 83.5583 46.3629C82.8092 46.3726 82.8092 46.3726 82.0449 46.3825C81.5036 46.3863 80.9623 46.39 80.4046 46.3938C79.5724 46.4 79.5724 46.4 78.7234 46.4062C77.548 46.4132 76.3726 46.4186 75.1972 46.4226C73.3975 46.4313 71.5983 46.4535 69.7988 46.4758C68.6581 46.4809 67.5174 46.4852 66.3768 46.4886C65.8375 46.4975 65.2982 46.5063 64.7426 46.5154C61.0342 46.5045 61.0342 46.5045 59.4354 45.4437C58.5166 44.0238 57.6322 42.6108 56.8037 41.1354C56.6342 40.8361 56.4648 40.5367 56.2902 40.2284C55.7513 39.2752 55.217 38.3197 54.6829 37.3638C54.1533 36.4223 53.6227 35.4813 53.0915 34.5407C52.7451 33.9264 52.4 33.3113 52.0563 32.6954C51.0311 30.866 49.9386 29.0985 48.8025 27.3366C47.5771 25.29 47.0895 23.9253 47.5427 21.5035C48.1002 20.1691 48.7979 18.9679 49.5647 17.7438C49.7576 17.4222 49.9505 17.1007 50.1492 16.7693C50.6215 15.9842 51.1031 15.2047 51.5867 14.4264C51.9204 14.4264 52.254 14.4264 52.5977 14.4264C56.834 21.8273 61.0688 29.2283 65.2354 36.6688C70.5736 36.6688 75.9117 36.6688 81.4116 36.6688C82.6836 34.5523 83.9556 32.4358 85.2661 30.2551C85.6712 29.592 86.0763 28.9288 86.4936 28.2456C86.9593 27.4545 86.9593 27.4545 87.4343 26.6475C87.7573 26.1101 88.0802 25.5727 88.413 25.019C89.1388 23.577 89.1388 23.577 88.6754 22.225C88.447 21.8201 88.2186 21.4152 87.9832 20.998C87.6508 20.3816 87.6508 20.3816 87.3116 19.7526C87.0628 19.3276 86.8139 18.9025 86.5575 18.4646C86.2871 17.9983 86.0167 17.5321 85.7381 17.0517C85.1671 16.0747 84.5958 15.0979 84.0241 14.1214C83.755 13.6571 83.4858 13.1928 83.2086 12.7144C82.9609 12.2911 82.7132 11.8677 82.458 11.4315C81.9172 10.3824 81.9172 10.3824 81.9172 9.37136Z" fill="#808080"/>
<path d="M62.6776 0.117369C63.4571 0.105246 63.4571 0.105246 64.2523 0.0928787C64.8157 0.0901679 65.3792 0.087457 65.9597 0.0846639C66.5369 0.0801 67.1141 0.075536 67.7088 0.0708338C68.9318 0.0634892 70.1548 0.059007 71.3778 0.0571424C73.2509 0.0511304 75.123 0.0262797 76.9959 0.000741832C78.1827 -0.00404228 79.3694 -0.00769969 80.5562 -0.0101187C81.1176 -0.0199924 81.6789 -0.0298661 82.2573 -0.0400391C86.1456 -0.017191 86.1456 -0.017191 87.788 1.45642C88.0198 1.89973 88.2515 2.34304 88.4903 2.79979C88.8109 3.31328 89.1315 3.82676 89.4618 4.3558C89.7668 4.88493 90.0717 5.41405 90.3859 5.95921C90.6961 6.49355 91.0063 7.02788 91.3259 7.57841C92.0288 8.86588 92.0288 8.86588 92.0288 9.37138C83.0865 9.93531 74.196 9.91502 65.2369 9.87689C62.7347 14.2141 60.2324 18.5514 57.6543 23.0201C56.1121 21.4779 55.0542 19.8883 53.9578 18.0282C53.7633 17.7187 53.5688 17.4091 53.3684 17.0902C52.8263 16.1681 52.8263 16.1681 52.0938 14.4265C52.6514 12.6101 53.5563 11.0114 54.4949 9.36546C54.7608 8.89922 55.0266 8.43298 55.3006 7.95261C55.5769 7.47203 55.8531 6.99145 56.1378 6.49631C56.4141 6.00987 56.6904 5.52343 56.9751 5.02225C57.2409 4.55796 57.5068 4.09367 57.7807 3.61532C58.0231 3.19196 58.2655 2.7686 58.5153 2.33242C59.7429 0.367732 60.4282 0.143748 62.6776 0.117369Z" fill="#808080"/>
<path d="M51.5867 14.4258C51.9204 14.4258 52.254 14.4258 52.5977 14.4258C54.1619 17.1583 54.1619 17.1583 54.7123 18.1245C55.6333 19.7396 56.5623 21.349 57.5075 22.9499C60.7355 28.4529 60.7355 28.4529 61.685 31.303C62.7706 34.5041 62.7706 34.5041 65.2354 36.6681C70.3616 37.7736 75.7036 37.4856 80.9061 37.1736C80.247 39.2272 79.5338 40.9125 78.3786 42.7342C78.0217 43.3493 77.6677 43.9661 77.3162 44.5844C76.9996 45.1416 76.6829 45.6987 76.3566 46.2727C74.1619 46.3228 71.9675 46.3595 69.7724 46.3838C69.0261 46.394 68.2798 46.4078 67.5336 46.4253C66.4594 46.4499 65.3857 46.4613 64.3113 46.4702C63.6654 46.4808 63.0194 46.4914 62.3539 46.5023C60.6858 46.2727 60.6858 46.2727 59.5645 45.4441C58.5189 44.0588 57.6539 42.6488 56.8037 41.1347C56.6342 40.8354 56.4648 40.5361 56.2902 40.2277C55.7513 39.2746 55.217 38.319 54.6829 37.3632C54.1533 36.4217 53.6227 35.4807 53.0915 34.5401C52.7451 33.9257 52.4 33.3106 52.0563 32.6947C51.0311 30.8653 49.9386 29.0979 48.8025 27.336C47.5771 25.2894 47.0895 23.9246 47.5427 21.5029C48.1002 20.1684 48.7979 18.9672 49.5647 17.7432C49.7576 17.4216 49.9505 17.1 50.1492 16.7687C50.6215 15.9835 51.1031 15.204 51.5867 14.4258Z" fill="#808080"/>
<path d="M76.7689 17.0482C78.6926 18.6421 79.9276 19.9861 80.3707 22.4824C80.5273 24.5652 80.0868 25.8256 78.8857 27.5691C77.488 29.1373 76.7017 29.9379 74.6383 30.3237C71.7813 30.4483 69.9498 30.0466 67.7646 28.0746C66.3143 26.3343 65.9759 24.8155 66.0703 22.5436C66.4668 20.2219 67.6119 18.5474 69.3759 16.985C71.8823 16.0381 74.2933 16.003 76.7689 17.0482Z" fill="#808080"/>
<path d="M65.7423 37.1748C70.7468 37.1748 75.7513 37.1748 80.9075 37.1748C80.145 39.4624 79.6091 40.7972 78.38 42.7354C77.7127 43.9031 77.0454 45.0708 76.358 46.2739C71.5202 46.2739 66.6825 46.2739 61.6982 46.2739C61.6982 46.1071 61.6982 45.9403 61.6982 45.7684C64.5341 45.7684 67.37 45.7684 70.2919 45.7684C70.4587 44.7675 70.6255 43.7666 70.7974 42.7354C69.76 41.2887 69.76 41.2887 68.3014 40.0499C67.446 39.2627 66.5922 38.4735 65.7423 37.6803C65.7423 37.5135 65.7423 37.3467 65.7423 37.1748Z" fill="#808080"/>
<path d="M44.0041 58.9093C44.045 60.1418 44.0751 61.373 44.0989 62.6058C44.118 63.1292 44.118 63.1292 44.1374 63.6632C44.1745 66.2259 44.1745 66.2259 43.3564 67.5029C41.8929 68.3544 40.5383 67.8328 38.949 67.5029C38.949 66.8357 38.949 66.1684 38.949 65.4809C40.4504 65.7311 40.4504 65.7311 41.9821 65.9864C42.3157 65.486 42.6493 64.9855 42.9931 64.4699C42.5343 64.595 42.0756 64.7201 41.6029 64.849C39.96 64.9754 39.96 64.9754 38.7279 64.2171C37.938 62.9534 37.938 62.9534 37.9696 61.1209C38.9397 57.6285 41.0898 58.4315 44.0041 58.9093Z" fill="#7B7B7B"/>
<path d="M19.0457 55.0884C19.6654 55.1656 19.6654 55.1656 20.2977 55.2444C20.7727 55.3079 20.7727 55.3079 21.2573 55.3727C21.2573 55.8732 21.2573 56.3736 21.2573 56.8893C20.9465 56.8717 20.6357 56.8541 20.3154 56.8359C19.7026 56.8154 19.7026 56.8154 19.0773 56.7945C18.6727 56.7769 18.268 56.7593 17.8511 56.7412C16.6788 56.8016 16.6788 56.8016 15.7955 57.5409C15.0099 58.4766 15.0099 58.4766 15.286 60.2067C15.5411 61.9658 15.5411 61.9658 16.7078 62.9553C18.477 63.166 18.477 63.166 20.2463 62.9553C20.58 62.4549 20.9136 61.9544 21.2573 61.4388C19.756 61.1886 19.756 61.1886 18.2243 60.9333C18.2243 60.4329 18.2243 59.9324 18.2243 59.4168C19.7256 59.4168 21.227 59.4168 22.7739 59.4168C22.9318 61.0597 22.9318 61.0597 22.7739 62.9553C21.4231 64.5516 20.5694 64.9245 18.5086 65.2617C16.1333 64.8867 15.3595 64.1346 13.6747 62.4498C12.941 60.9824 12.981 60.0372 13.1692 58.4058C14.7505 55.851 16.0518 54.7035 19.0457 55.0884Z" fill="#797979"/>
<path d="M85.4568 55.877C85.7904 55.877 86.124 55.877 86.4678 55.877C86.4678 58.8797 86.4678 61.8824 86.4678 64.9761C82.4237 64.9761 82.4237 64.9761 81.16 64.123C80.2421 62.708 80.071 62.08 80.4017 60.4265C81.2547 59.2259 81.2547 59.2259 82.4237 58.4045C83.8139 58.5309 83.8139 58.5309 84.9513 58.91C85.1181 57.9091 85.2849 56.9082 85.4568 55.877Z" fill="#818181"/>
<path d="M89.501 55.877C91.0023 55.877 92.5037 55.877 94.0505 55.877C94.551 56.3774 95.0514 56.8779 95.5671 57.3935C95.5039 58.9416 95.5039 58.9416 95.0616 60.4265C93.4298 61.5143 92.896 61.5391 91.0175 61.4375C91.0175 62.6053 91.0175 63.773 91.0175 64.9761C90.517 64.9761 90.0166 64.9761 89.501 64.9761C89.501 61.9734 89.501 58.9707 89.501 55.877Z" fill="#8C8C8C"/>
<path d="M35.4115 58.4051C36.7928 59.4131 37.3488 60.0037 37.6862 61.6909C37.4335 62.9547 37.4335 62.9547 36.6436 64.1553C35.4115 64.9767 35.4115 64.9767 33.579 64.9135C31.8729 64.4712 31.8729 64.4712 30.8619 63.4602C30.6723 61.7225 30.6723 61.7225 30.8619 59.9216C32.197 58.3888 33.4249 58.0575 35.4115 58.4051Z" fill="#7B7B7B"/>
<path d="M28.8398 58.9108C29.8508 59.9218 29.8508 59.9218 30.0088 61.6595C29.8508 63.4604 29.8508 63.4604 29.2821 64.4398C27.8845 65.2318 26.8775 65.1739 25.3012 64.9769C24.3534 64.4398 24.3534 64.4398 23.7847 63.4604C23.5985 61.7221 23.4897 60.4772 24.3218 58.9108C25.905 58.0937 27.1574 58.5131 28.8398 58.9108Z" fill="#818181"/>
<path d="M72.3134 58.9097C73.3244 60.4262 73.3244 60.4262 73.2296 62.2271C72.8189 63.9648 72.8189 63.9648 71.3024 64.9758C69.8894 65.1524 69.0959 65.164 67.8586 64.4387C66.9094 62.89 67.0373 61.6891 67.2583 59.9207C68.7648 58.0666 70.1329 58.2461 72.3134 58.9097Z" fill="#727272"/>
<path d="M116.355 58.4681C117.809 58.9104 117.809 58.9104 118.82 59.9214C119.094 62.9429 119.094 62.9429 118.283 64.471C116.682 65.2969 115.458 64.902 113.765 64.471C112.67 62.829 112.475 62.3322 112.754 60.4269C113.884 58.7748 114.326 58.3869 116.355 58.4681Z" fill="#7D7D7D"/>
<path d="M103.15 58.9106C103.656 59.4161 103.656 59.4161 103.705 60.5712C103.699 61.0346 103.693 61.4979 103.687 61.9752C103.683 62.4398 103.678 62.9044 103.673 63.3831C103.668 63.7422 103.662 64.1012 103.656 64.4712C100.595 64.9648 100.595 64.9648 99.6116 64.9767C99.278 64.643 98.9443 64.3094 98.6006 63.9656C98.8814 61.6628 98.8814 61.6628 99.6116 60.9326C100.622 60.912 101.634 60.9111 102.645 60.9326C102.645 60.599 102.645 60.2653 102.645 59.9216C101.31 60.0884 99.9756 60.2552 98.6006 60.4271C98.7674 59.9266 98.9342 59.4262 99.1061 58.9106C100.563 58.1821 101.592 58.5791 103.15 58.9106Z" fill="#838383"/>
<path d="M51.5885 58.4051C52.5048 59.1633 52.5048 59.1633 53.1051 59.9216C52.5996 61.4381 52.5996 61.4381 51.0514 62.2912C50.5614 62.5101 50.0714 62.7291 49.5665 62.9546C50.5674 62.9546 51.5683 62.9546 52.5996 62.9546C52.5996 63.4551 52.5996 63.9555 52.5996 64.4712C49.3773 65.1399 49.3773 65.1399 48.0816 64.4712C47.2494 62.9048 47.3582 61.6598 47.5445 59.9216C48.5799 58.2323 49.6904 58.1204 51.5885 58.4051Z" fill="#737373"/>
<path d="M65.7412 37.1748C70.7457 37.1748 75.7503 37.1748 80.9064 37.1748C80.5728 38.1757 80.2392 39.1766 79.8954 40.2078C75.7933 39.8615 75.7933 39.8615 73.9241 39.1968C71.799 38.5301 69.7334 38.4687 67.5164 38.3596C67.0974 38.3022 66.6784 38.2449 66.2467 38.1858C66.0799 37.8522 65.9131 37.5185 65.7412 37.1748Z" fill="#808080"/>
<path d="M128.14 58.658C129.829 58.8951 130.836 58.7316 132.468 58.4053C133.479 59.4163 133.479 59.4163 133.578 60.6208C133.566 61.0783 133.554 61.5357 133.542 62.007C133.533 62.4671 133.524 62.9271 133.515 63.4011C133.503 63.7543 133.491 64.1075 133.479 64.4714C133.145 64.4714 132.812 64.4714 132.468 64.4714C132.301 62.97 132.134 61.4686 131.962 59.9218C131.295 60.0886 130.628 60.2554 129.94 60.4273C129.774 61.7618 129.607 63.0964 129.435 64.4714C129.101 64.4714 128.768 64.4714 128.424 64.4714C128.257 62.97 128.09 61.4686 127.918 59.9218C127.251 60.0886 126.584 60.2554 125.896 60.4273C125.73 61.7618 125.563 63.0964 125.391 64.4714C125.057 64.4714 124.724 64.4714 124.38 64.4714C124.38 62.6364 124.38 60.8014 124.38 58.9108C126.402 58.4053 126.402 58.4053 128.14 58.658Z" fill="#717171"/>
<path d="M69.2809 40.7129C70.6154 40.7129 71.9499 40.7129 73.3249 40.7129C73.3249 41.0465 73.3249 41.3802 73.3249 41.7239C73.6585 41.8907 73.9922 42.0575 74.3359 42.2294C74.3359 43.3971 74.3359 44.5649 74.3359 45.768C71.5419 46.2443 68.8574 46.3347 66.0266 46.3051C65.6086 46.3028 65.1906 46.3005 64.7599 46.2982C63.7393 46.2923 62.7188 46.2832 61.6982 46.2735C61.6982 46.1067 61.6982 45.9398 61.6982 45.768C64.5341 45.768 67.37 45.768 70.2919 45.768C71.1012 42.9426 71.1012 42.9426 70.0707 41.5343C69.8101 41.2633 69.5494 40.9922 69.2809 40.7129Z" fill="#808080"/>
<path d="M62.7086 55.8775C63.0422 56.5448 63.3758 57.2121 63.7196 57.8995C63.4087 57.8455 63.0979 57.7914 62.7777 57.7356C62.1648 57.6447 62.1648 57.6447 61.5396 57.552C61.1349 57.4875 60.7302 57.423 60.3133 57.3565C59.1413 57.2909 59.1413 57.2909 58.2597 58.0299C57.477 58.9799 57.477 58.9799 57.7167 60.7114C57.9853 62.5777 57.9853 62.5777 59.6755 63.4601C61.2976 63.5849 62.6691 63.4157 64.2251 62.9546C64.2251 63.2882 64.2251 63.6219 64.2251 63.9656C62.4985 65.0281 61.1811 65.2229 59.17 64.9766C57.8052 64.0668 56.8741 63.4178 56.137 61.9436C55.8913 59.7733 55.9032 58.7484 57.148 56.9201C59.1853 55.5194 60.2813 55.6718 62.7086 55.8775Z" fill="#7A7A7A"/>
<path d="M69.2803 59.416C70.6073 59.6056 70.6073 59.6056 71.8079 59.9215C72.1238 61.3749 72.1238 61.3749 72.3134 62.9546C71.9798 63.2882 71.6461 63.6218 71.3024 63.9656C68.9995 63.6847 68.9995 63.6847 68.2693 62.9546C68.1745 61.7224 68.1745 61.7224 68.2693 60.427C68.603 60.0934 68.9366 59.7598 69.2803 59.416Z" fill="#F2F2F2"/>
<path d="M45.0166 55.3711C45.5171 55.3711 46.0175 55.3711 46.5331 55.3711C46.5331 58.5406 46.5331 61.7102 46.5331 64.9757C46.0327 64.9757 45.5322 64.9757 45.0166 64.9757C45.0166 61.8062 45.0166 58.6367 45.0166 55.3711Z" fill="#7E7E7E"/>
<path d="M116.355 59.5424C117.303 59.9216 117.303 59.9216 117.809 60.4271C117.903 61.6593 117.903 61.6593 117.809 62.9546C117.475 63.2883 117.141 63.6219 116.798 63.9656C115.471 63.7761 115.471 63.7761 114.27 63.4601C113.923 62.2911 113.923 62.2911 113.765 60.9326C114.549 59.6947 114.876 59.3685 116.355 59.5424Z" fill="#F5F5F5"/>
<path d="M105.677 56.8887C106.01 56.8887 106.344 56.8887 106.688 56.8887C106.688 57.5559 106.688 58.2232 106.688 58.9107C107.188 58.9107 107.689 58.9107 108.204 58.9107C108.204 59.2443 108.204 59.578 108.204 59.9217C107.704 59.9217 107.203 59.9217 106.688 59.9217C106.688 61.2563 106.688 62.5908 106.688 63.9658C107.188 63.9658 107.689 63.9658 108.204 63.9658C108.204 64.2994 108.204 64.633 108.204 64.9768C106.972 64.7872 106.972 64.7872 105.677 64.4713C104.929 62.9767 105.141 61.5685 105.171 59.9217C104.838 59.9217 104.504 59.9217 104.16 59.9217C104.16 59.5881 104.16 59.2544 104.16 58.9107C104.661 58.9107 105.161 58.9107 105.677 58.9107C105.677 58.2434 105.677 57.5762 105.677 56.8887Z" fill="#8E8E8E"/>
<path d="M84.0038 59.5424C84.9516 59.9216 84.9516 59.9216 85.4571 60.4271C85.5519 61.6593 85.5519 61.6593 85.4571 62.9546C85.1235 63.2883 84.7899 63.6219 84.4461 63.9656C83.1192 63.7761 83.1192 63.7761 81.9186 63.4601C81.5711 62.2911 81.5711 62.2911 81.4131 60.9326C82.1971 59.6947 82.5248 59.3685 84.0038 59.5424Z" fill="#F5F5F5"/>
<path d="M96.0723 55.877C96.5727 55.877 97.0732 55.877 97.5888 55.877C97.5888 58.8797 97.5888 61.8824 97.5888 64.9761C97.0883 64.9761 96.5879 64.9761 96.0723 64.9761C96.0723 61.9734 96.0723 58.9707 96.0723 55.877Z" fill="#808080"/>
<path d="M110.732 55.877C111.399 55.877 112.067 55.877 112.754 55.877C112.754 56.2106 112.754 56.5442 112.754 56.888C112.254 57.0548 111.753 57.2216 111.237 57.3935C111.071 57.8939 110.904 58.3944 110.732 58.91C111.232 58.91 111.733 58.91 112.249 58.91C112.249 59.2436 112.249 59.5773 112.249 59.921C111.748 59.921 111.248 59.921 110.732 59.921C110.732 61.4224 110.732 62.9237 110.732 64.4706C110.398 64.4706 110.065 64.4706 109.721 64.4706C109.721 62.9692 109.721 61.4679 109.721 59.921C109.387 59.921 109.054 59.921 108.71 59.921C108.71 59.5874 108.71 59.2537 108.71 58.91C109.044 58.91 109.377 58.91 109.721 58.91C109.794 58.5034 109.867 58.0968 109.942 57.6778C110.226 56.3825 110.226 56.3825 110.732 55.877Z" fill="#797979"/>
<path d="M123.875 58.4053C123.708 58.9057 123.541 59.4062 123.37 59.9218C122.869 60.0886 122.369 60.2554 121.853 60.4273C121.686 61.9287 121.519 63.43 121.348 64.9769C120.847 64.9769 120.347 64.9769 119.831 64.9769C119.831 62.9751 119.831 60.9733 119.831 58.9108C122.359 58.4053 122.359 58.4053 123.875 58.4053Z" fill="#939393"/>
<path d="M41.2574 59.8906C41.8674 59.9063 41.8674 59.9063 42.4896 59.9222C42.6824 60.9289 42.8502 61.9406 42.9951 62.9553C42.4896 63.4608 42.4896 63.4608 41.2258 63.524C39.9621 63.4608 39.9621 63.4608 39.4566 62.9553C39.3934 61.6915 39.3934 61.6915 39.4566 60.4277C39.9621 59.9222 39.9621 59.9222 41.2574 59.8906Z" fill="#F6F6F6"/>
<path d="M34.1795 59.8906C34.7894 59.9063 34.7894 59.9063 35.4117 59.9222C35.9804 62.3234 35.9804 62.3234 35.4117 63.4608C34.5694 63.4824 33.7264 63.4813 32.8841 63.4608C32.3786 62.9553 32.3786 62.9553 32.3154 61.6915C32.4015 59.9695 32.4512 59.9328 34.1795 59.8906Z" fill="#FAFAFA"/>
<path d="M25.8065 59.9219C26.6534 60.0665 27.4968 60.2342 28.334 60.4274C28.6499 61.3752 28.6499 61.3752 28.8395 62.4494C28.5059 62.783 28.1722 63.1167 27.8285 63.4604C26.5015 63.2709 26.5015 63.2709 25.301 62.9549C25.2794 62.1127 25.2804 61.2696 25.301 60.4274C25.4678 60.2606 25.6346 60.0937 25.8065 59.9219Z" fill="#FBFBFB"/>
<path d="M65.7412 37.1748C70.7457 37.1748 75.7503 37.1748 80.9064 37.1748C80.5728 37.8421 80.2392 38.5093 79.8954 39.1968C79.5618 39.1968 79.2281 39.1968 78.8844 39.1968C78.7176 38.8632 78.5508 38.5296 78.3789 38.1858C74.2085 38.019 70.038 37.8522 65.7412 37.6803C65.7412 37.5135 65.7412 37.3467 65.7412 37.1748Z" fill="#808080"/>
<path d="M91.0176 56.8889C91.8598 56.8673 92.7029 56.8683 93.5451 56.8889C94.0506 57.3944 94.0506 57.3944 94.0822 58.6897C94.0718 59.0963 94.0614 59.503 94.0506 59.9219C93.0497 59.9219 92.0488 59.9219 91.0176 59.9219C91.0176 58.921 91.0176 57.9201 91.0176 56.8889Z" fill="#F8F8F8"/>
<path d="M85.4563 55.877C85.79 55.877 86.1236 55.877 86.4673 55.877C86.4673 58.7128 86.4673 61.5487 86.4673 64.4706C85.3604 62.8102 84.9518 61.3329 84.4453 59.4155C84.7789 59.4155 85.1126 59.4155 85.4563 59.4155C85.4563 58.2478 85.4563 57.0801 85.4563 55.877Z" fill="#6E6E6E"/>
<path d="M35.9172 59.9219C36.4176 60.0887 36.9181 60.2555 37.4337 60.4274C37.5601 61.5648 37.5601 61.5648 37.4337 62.9549C36.4859 64.1239 36.4859 64.1239 35.4117 64.9769C35.078 64.9769 34.7444 64.9769 34.4007 64.9769C34.4007 64.6433 34.4007 64.3097 34.4007 63.9659C34.067 63.7991 33.7334 63.6323 33.3896 63.4604C34.0569 63.4604 34.7242 63.4604 35.4117 63.4604C35.4013 62.9704 35.3908 62.4804 35.3801 61.9755C35.4117 60.4274 35.4117 60.4274 35.9172 59.9219Z" fill="#818181"/>
<path d="M74.3351 58.9111C74.6687 58.9111 75.0023 58.9111 75.3461 58.9111C75.3591 59.2278 75.3721 59.5445 75.3856 59.8708C75.4142 60.2839 75.4429 60.6971 75.4725 61.1227C75.4959 61.5333 75.5194 61.9438 75.5435 62.3667C75.7465 63.5559 75.7465 63.5559 76.8863 64.1123C77.2121 64.2309 77.5379 64.3495 77.8736 64.4717C76.673 64.7877 76.673 64.7877 75.3461 64.9772C74.3351 63.9662 74.3351 63.9662 74.2363 62.7617C74.2481 62.3042 74.2598 61.8468 74.2719 61.3755C74.281 60.9154 74.2901 60.4554 74.2995 59.9814C74.3112 59.6282 74.323 59.275 74.3351 58.9111Z" fill="#707070"/>
<path d="M24.7962 60.9326C25.1298 61.5999 25.4634 62.2672 25.8072 62.9546C26.6413 62.9546 27.4754 62.9546 28.3347 62.9546C28.3347 63.6219 28.3347 64.2892 28.3347 64.9767C26.913 65.1031 26.913 65.1031 25.3017 64.9767C24.3539 63.9657 24.3539 63.9657 23.7852 62.9546C24.1188 62.2874 24.4524 61.6201 24.7962 60.9326Z" fill="#878787"/>
<path d="M51.587 58.4044C51.587 59.9209 51.587 59.9209 50.9235 60.7739C50.0705 61.4374 50.0705 61.4374 48.554 61.4374C48.554 61.1038 48.554 60.7702 48.554 60.4264C48.2203 60.2596 47.8867 60.0928 47.543 59.9209C48.7896 58.3462 49.6198 58.2449 51.587 58.4044Z" fill="#AAAAAA"/>
<path d="M42.9944 58.9111C43.328 58.9111 43.6617 58.9111 44.0054 58.9111C44.0054 61.0798 44.0054 63.2484 44.0054 65.4827C43.6718 65.4827 43.3382 65.4827 42.9944 65.4827C42.9944 65.1491 42.9944 64.8155 42.9944 64.4717C42.6608 64.4717 42.3271 64.4717 41.9834 64.4717C42.317 62.6367 42.6507 60.8017 42.9944 58.9111Z" fill="#6E6E6E"/>
<path d="M117.303 59.416C117.804 59.5828 118.304 59.7497 118.82 59.9215C118.883 61.6276 118.883 61.6276 118.82 63.4601C117.809 64.4711 117.809 64.4711 116.482 64.5343C116.086 64.5134 115.689 64.4926 115.281 64.4711C115.615 64.2938 115.949 64.1166 116.292 63.934C117.511 62.972 117.511 62.972 117.43 61.0905C117.367 60.2616 117.367 60.2616 117.303 59.416Z" fill="#747474"/>
<path d="M70.8596 58.4053C72.3129 58.9108 72.3129 58.9108 73.008 59.9534C73.1122 60.2766 73.2165 60.5998 73.3239 60.9328C72.8234 60.9328 72.323 60.9328 71.8074 60.9328C71.6406 60.5992 71.4737 60.2655 71.3019 59.9218C69.9673 60.0886 68.6328 60.2554 67.2578 60.4273C68.451 58.9128 68.8815 58.4053 70.8596 58.4053Z" fill="#7E7E7E"/>
<path d="M53.1036 63.4603C52.5033 64.2185 52.5033 64.2185 51.5871 64.9768C50.2286 65.0716 50.2286 65.0716 49.0596 64.9768C49.0596 64.4763 49.0596 63.9759 49.0596 63.4603C50.7212 63.0561 51.4406 62.9059 53.1036 63.4603Z" fill="#7C7C7C"/>
<path d="M13.1691 58.4053C13.2943 58.6972 13.4194 58.9891 13.5483 59.2899C14.2645 60.5791 15.1286 61.4473 16.2022 62.4493C16.0354 62.783 15.8686 63.1166 15.6967 63.4603C13.7378 62.5757 13.7378 62.5757 13.1691 61.4383C13.1489 60.4275 13.1472 59.416 13.1691 58.4053Z" fill="#818181"/>
<path d="M78.3786 58.9111C78.7122 58.9111 79.0458 58.9111 79.3896 58.9111C79.3896 60.7461 79.3896 62.5811 79.3896 64.4717C78.8891 64.3049 78.3887 64.1381 77.873 63.9662C78.0399 62.298 78.2067 60.6299 78.3786 58.9111Z" fill="#757575"/>
<path d="M24.7957 58.9111C25.2962 58.9111 25.7966 58.9111 26.3122 58.9111C25.6382 60.2592 24.9642 61.6072 24.2902 62.9552C24.1234 62.9552 23.9566 62.9552 23.7847 62.9552C23.7215 61.5019 23.7215 61.5019 23.7847 59.9221C24.1183 59.5885 24.452 59.2549 24.7957 58.9111Z" fill="#737373"/>
<path d="M99.1061 61.4375C99.2312 61.7503 99.3563 62.0631 99.4852 62.3853C100.221 63.6368 100.814 63.9404 102.139 64.4705C100.939 64.7865 100.939 64.7865 99.6116 64.9761C99.278 64.6424 98.9443 64.3088 98.6006 63.965C98.7902 62.6381 98.7902 62.6381 99.1061 61.4375Z" fill="#707070"/>
<path d="M95.0616 57.3945C95.4092 58.3108 95.4092 58.3108 95.5671 59.4166C95.03 60.3328 95.03 60.3328 94.0506 60.9331C92.4393 60.7751 92.4393 60.7751 91.0176 60.4276C91.0176 60.2608 91.0176 60.0939 91.0176 59.9221C92.0185 59.9221 93.0194 59.9221 94.0506 59.9221C94.1236 59.5989 94.1966 59.2757 94.2718 58.9426C94.5561 57.9 94.5561 57.9 95.0616 57.3945Z" fill="#8F8F8F"/>
<path d="M100.117 61.9434C100.951 61.9434 101.785 61.9434 102.644 61.9434C102.311 62.6106 101.977 63.2779 101.633 63.9654C100.966 63.7986 100.299 63.6318 99.6113 63.4599C99.7781 62.9594 99.945 62.459 100.117 61.9434Z" fill="#FAFAFA"/>
<path d="M105.677 59.9219C105.844 59.9219 106.01 59.9219 106.182 59.9219C106.349 61.2564 106.516 62.591 106.688 63.9659C107.188 63.9659 107.689 63.9659 108.204 63.9659C108.204 64.2996 108.204 64.6332 108.204 64.9769C107.37 64.8101 106.536 64.6433 105.677 64.4714C105.677 62.9701 105.677 61.4687 105.677 59.9219Z" fill="#797979"/>
<path d="M52.5981 61.9436C52.5981 62.2772 52.5981 62.6109 52.5981 62.9546C51.5972 63.1214 50.5963 63.2882 49.5651 63.4601C49.3983 63.1265 49.2314 62.7928 49.0596 62.4491C50.892 61.3749 50.892 61.3749 52.5981 61.9436Z" fill="#F5F5F5"/>
<path d="M29.3456 60.4268C29.5124 60.4268 29.6793 60.4268 29.8511 60.4268C29.8511 61.4277 29.8511 62.4286 29.8511 63.4598C28.8502 63.9603 28.8502 63.9603 27.8291 64.4708C28.3296 63.1363 28.83 61.8017 29.3456 60.4268Z" fill="#707070"/>
<path d="M15.6973 62.9541C16.6982 63.2877 17.6991 63.6214 18.7303 63.9651C18.7303 64.2988 18.7303 64.6324 18.7303 64.9761C17.229 64.7259 17.229 64.7259 15.6973 64.4706C15.6973 63.9702 15.6973 63.4697 15.6973 62.9541Z" fill="#777777"/>
</g>
<defs>
<clipPath id="clip0_3305_1431">
<rect width="144.696" height="64" fill="white" transform="translate(0.949219 0.155273)"/>
</clipPath>
</defs>
</svg>
