<svg width="658" height="351" viewBox="0 0 658 351" fill="none" xmlns="http://www.w3.org/2000/svg">
<path d="M119.776 227.639C119.7 227.639 119.623 227.618 119.557 227.58L30.5436 176.189C30.3331 176.068 30.262 175.798 30.3835 175.589C30.5051 175.379 30.7748 175.31 30.9839 175.429L119.776 226.692L330.468 105.05C330.604 104.972 330.772 104.972 330.908 105.05L471.3 186.105L563.915 132.633C564.124 132.516 564.394 132.584 564.515 132.793C564.637 133.004 564.564 133.272 564.355 133.394L471.519 186.993C471.383 187.071 471.215 187.071 471.079 186.993L330.687 105.938L119.995 227.58C119.927 227.62 119.852 227.639 119.776 227.639Z" fill="#081348"/>
<path d="M657.564 289.907C657.489 289.907 657.413 289.887 657.345 289.847L536.284 219.953L477.589 253.677C477.453 253.756 477.286 253.756 477.15 253.677L182.774 83.7195C182.638 83.6409 182.555 83.4957 182.555 83.3385C182.555 83.1799 182.639 83.0361 182.774 82.9576L316.949 5.65631C317.159 5.53328 317.428 5.6074 317.549 5.8164C317.671 6.02837 317.598 6.29519 317.389 6.41674L183.875 83.3385L477.371 252.789L536.066 219.065C536.203 218.987 536.369 218.987 536.505 219.065L657.785 289.085C657.996 289.207 658.067 289.477 657.945 289.686C657.864 289.827 657.715 289.907 657.564 289.907Z" fill="#081348"/>
<path d="M384.847 348.414C384.771 348.414 384.696 348.395 384.628 348.355L294.774 296.477C294.638 296.399 294.555 296.253 294.555 296.096C294.555 295.941 294.639 295.794 294.774 295.715L406.538 231.189C406.747 231.066 407.018 231.14 407.138 231.349C407.26 231.559 407.187 231.827 406.978 231.949L295.872 296.096L385.068 347.593C385.278 347.715 385.349 347.985 385.228 348.194C385.146 348.334 385 348.414 384.847 348.414Z" fill="#081348"/>
<path d="M416.389 316.667C416.313 316.667 416.238 316.648 416.169 316.608L30.5436 93.9688C30.3331 93.8473 30.262 93.5775 30.3835 93.3685C30.5051 93.158 30.7748 93.0854 30.9839 93.2084L416.608 315.848C416.819 315.969 416.89 316.239 416.768 316.448C416.688 316.587 416.54 316.667 416.389 316.667Z" fill="#081348"/>
<path d="M222.864 254.891C222.788 254.891 222.711 254.87 222.645 254.832L95.2233 181.266C95.0869 181.188 95.0039 181.042 95.0039 180.885C95.0039 180.728 95.0884 180.583 95.2233 180.504L206.987 115.976C207.197 115.859 207.466 115.926 207.587 116.136C207.709 116.347 207.636 116.615 207.427 116.736L96.3217 180.884L222.864 253.941L526.392 78.7003C526.602 78.5772 526.872 78.6513 526.992 78.8603C527.114 79.0708 527.041 79.3391 526.832 79.4607L223.083 254.832C223.015 254.87 222.94 254.891 222.864 254.891Z" fill="#081348"/>
<path opacity="0.3" d="M139.104 95.5179L100.586 73.2787L139.102 51.041L177.62 73.2802L139.104 95.5179Z" fill="#081348"/>
<path opacity="0.5" d="M139.104 69.9012L100.586 47.6635L139.102 25.4258L177.62 47.6635L139.104 69.9012Z" fill="#081348"/>
<path opacity="0.7" d="M139.104 49.3675L100.586 27.1283L139.102 4.89062L177.62 27.1298L139.104 49.3675Z" fill="#081348"/>
<path d="M139.099 50.4605C138.91 50.4605 138.721 50.4116 138.552 50.3138L100.034 28.0746C99.6973 27.8789 99.4883 27.5187 99.4883 27.1274C99.4883 26.7361 99.6973 26.3759 100.034 26.1802L138.55 3.94251C138.89 3.74833 139.306 3.74833 139.644 3.94251L178.162 26.1817C178.5 26.3773 178.708 26.7376 178.708 27.1289C178.708 27.5202 178.499 27.8804 178.162 28.0761L139.646 50.3138C139.477 50.4116 139.287 50.4605 139.099 50.4605ZM102.766 27.1289L139.099 48.1051L175.43 27.1304L139.097 6.15411L102.766 27.1289Z" fill="#081348"/>
<path opacity="0.7" d="M435.612 349.605L397.094 327.368L435.61 305.13L474.128 327.368L435.612 349.605Z" fill="#081348"/>
<path d="M435.607 350.7C435.418 350.7 435.229 350.651 435.06 350.553L396.542 328.314C396.204 328.118 395.996 327.758 395.996 327.367C395.996 326.975 396.205 326.615 396.542 326.419L435.058 304.182C435.396 303.988 435.814 303.988 436.152 304.182L474.67 326.421C475.007 326.617 475.215 326.977 475.215 327.368C475.215 327.759 475.007 328.12 474.67 328.315L436.154 350.553C435.985 350.651 435.795 350.7 435.607 350.7ZM399.275 327.368L435.608 348.344L471.94 327.37L435.607 306.393L399.275 327.368Z" fill="#081348"/>
<path opacity="0.7" d="M530.647 323.601L510.438 311.934L530.647 300.267L550.856 311.934L530.647 323.601Z" fill="#081348"/>
<path opacity="0.5" d="M530.647 311.934L510.438 300.266L530.647 288.598L550.856 300.266L530.647 311.934Z" fill="#081348"/>
<path opacity="0.3" d="M530.647 300.267L510.438 288.598L530.647 276.931L550.856 288.599L530.647 300.267Z" fill="#081348"/>
<path d="M530.652 324.694C530.464 324.694 530.274 324.645 530.105 324.548L509.897 312.88C509.561 312.685 509.352 312.324 509.352 311.933C509.352 311.542 509.561 311.181 509.897 310.986L530.105 299.318C530.445 299.124 530.861 299.124 531.199 299.318L551.409 310.987C551.747 311.183 551.955 311.543 551.955 311.935C551.955 312.326 551.746 312.686 551.408 312.882L531.198 324.548C531.029 324.645 530.839 324.694 530.652 324.694ZM512.629 311.933L530.651 322.339L548.674 311.936L530.651 301.529L512.629 311.933Z" fill="#081348"/>
<path opacity="0.7" d="M21.3061 181.105L1.09766 169.438L21.3061 157.771L41.5145 169.438L21.3061 181.105Z" fill="#081348"/>
<path d="M21.3024 182.199C21.1141 182.199 20.9244 182.15 20.7554 182.052L0.545498 170.384C0.209012 170.188 0 169.828 0 169.436C0 169.045 0.209012 168.685 0.545498 168.489L20.7539 156.823C21.0934 156.629 21.5099 156.629 21.8479 156.823L42.0577 168.491C42.3957 168.686 42.6032 169.047 42.6032 169.438C42.6032 169.829 42.3942 170.189 42.0577 170.385L21.8493 182.052C21.6804 182.15 21.4906 182.199 21.3024 182.199ZM3.27889 169.438L21.3024 179.845L39.3244 169.439L21.3009 159.034L3.27889 169.438Z" fill="#081348"/>
<path opacity="0.2" d="M310.707 9.11171C316.961 12.7226 322.875 17.807 328.14 23.8148C335.447 0.345283 357.733 -6.93585 384.102 8.28901C405.916 20.8828 424.928 45.6552 434.986 71.9011C438.319 72.0078 442.031 73.1048 445.964 75.3742C460.198 83.5936 471.74 103.581 471.74 120.017C471.74 120.371 471.704 120.694 471.694 121.04C475.754 121.32 480.241 122.755 484.962 125.481C503.169 135.993 517.929 161.557 517.929 182.58C517.929 203.603 503.169 212.124 484.962 201.611L310.708 101.006C288.732 88.3178 270.914 57.4604 270.914 32.0831C270.913 6.70887 288.729 -3.57691 310.707 9.11171Z" fill="url(#paint0_linear_2920_121918)"/>
<path opacity="0.4" d="M295.639 18.4984C301.893 22.1093 307.807 27.1937 313.072 33.2015C320.379 9.732 342.665 2.45087 369.034 17.6757C390.848 30.2695 409.86 55.0419 419.918 81.2878C423.251 81.3945 426.963 82.4915 430.896 84.7609C445.13 92.9803 456.672 112.968 456.672 129.404C456.672 129.758 456.636 130.081 456.626 130.427C460.686 130.707 465.173 132.142 469.894 134.868C488.101 145.38 502.861 170.944 502.861 191.966C502.861 212.99 488.101 221.51 469.894 210.999L295.64 110.395C273.664 97.706 255.848 66.8486 255.848 41.4713C255.846 16.0956 273.662 5.80979 295.639 18.4984Z" fill="#FFF4EE"/>
<path opacity="0.6" d="M277.854 30.1957C284.108 33.8066 290.022 38.8909 295.287 44.8988C302.594 21.4293 324.88 14.1481 351.249 29.373C373.063 41.9668 392.075 66.7392 402.133 92.9851C405.466 93.0918 409.178 94.1887 413.111 96.4582C427.345 104.678 438.887 124.665 438.887 141.101C438.887 141.455 438.851 141.778 438.841 142.124C442.901 142.404 447.388 143.839 452.109 146.565C470.316 157.077 485.076 182.641 485.076 203.664C485.076 224.687 470.316 233.208 452.109 222.697L277.855 122.092C255.878 109.403 238.063 78.5458 238.063 53.1686C238.061 27.7928 255.877 17.5071 277.854 30.1957Z" fill="#FFF4EE"/>
<path d="M404.596 295.292C403.255 295.292 401.989 295.04 401.089 294.522L163.213 157.185C162.639 156.855 162.371 156.324 162.371 156.069C162.371 155.523 163.232 154.913 163.953 154.496L213.392 125.954C214.721 125.186 216.511 124.746 218.303 124.746C219.7 124.746 220.945 125.025 221.813 125.529L459.685 262.864C459.939 263.011 460.528 263.394 460.528 263.82C460.528 264.125 460.195 264.834 458.948 265.553L409.51 294.095C408.145 294.883 406.308 295.292 404.596 295.292ZM163.29 156.082C163.345 156.173 163.455 156.309 163.652 156.423L401.529 293.76C403.307 294.785 406.904 294.587 409.071 293.333L458.51 264.791C459.206 264.389 459.489 264.045 459.596 263.875C459.531 263.812 459.421 263.725 459.248 263.626L221.373 126.289C220.636 125.861 219.548 125.627 218.305 125.627C216.685 125.627 215.013 126.033 213.833 126.716L164.393 155.258C163.676 155.672 163.394 155.953 163.29 156.082Z" fill="#081348"/>
<path d="M257.804 42.8519C264.058 46.4628 269.973 51.5472 275.238 57.555C282.544 34.0855 304.831 26.8044 331.2 42.0292C353.014 54.623 372.026 79.3955 382.083 105.641C385.417 105.748 389.129 106.845 393.061 109.114C407.296 117.334 418.837 137.321 418.837 153.757C418.837 154.112 418.802 154.435 418.791 154.78C422.851 155.06 427.338 156.495 432.06 159.221C450.267 169.732 465.026 195.298 465.026 216.32C465.026 237.344 450.267 245.864 432.06 235.353L257.806 134.748C235.829 122.059 218.012 91.2021 218.012 65.8249C218.012 40.4476 235.828 30.1618 257.804 42.8519Z" fill="url(#paint1_linear_2920_121918)"/>
<path d="M257.807 42.8522C261.433 44.9453 264.939 47.5467 268.276 50.5232L287.761 39.265L287.758 39.271C298.463 31.7452 313.958 32.0728 331.201 42.0281C353.015 54.6218 372.027 79.3958 382.085 105.64C385.419 105.747 389.13 106.844 393.063 109.113C407.299 117.333 418.839 137.32 418.839 153.756C418.839 154.11 418.803 154.434 418.793 154.779C422.853 155.059 427.34 156.494 432.061 159.22C450.268 169.731 465.028 195.297 465.028 216.319C465.028 226.738 461.396 234.074 455.522 237.556L455.537 237.562L455.385 237.649C455.375 237.655 455.366 237.661 455.356 237.667L407.627 265.371L397.203 215.226L257.806 134.745C235.829 122.057 218.012 91.1994 218.012 65.8222C218.015 40.4479 235.831 30.1621 257.807 42.8522Z" fill="url(#paint2_radial_2920_121918)"/>
<path d="M181.094 68.2853L229.451 40.188L229.45 40.1999C236.667 35.9012 246.703 36.4407 257.805 42.8503C261.431 44.9433 264.936 47.5448 268.273 50.5213L287.758 39.2631L287.755 39.269C298.461 31.7433 313.955 32.0709 331.199 42.0261C353.013 54.6199 372.025 79.3938 382.082 105.638C385.416 105.745 389.128 106.842 393.06 109.111C407.297 117.331 418.836 137.318 418.836 153.754C418.836 154.108 418.801 154.432 418.79 154.777C422.851 155.057 427.338 156.492 432.059 159.218C450.266 169.729 465.025 195.295 465.025 216.317C465.025 226.736 461.394 234.072 455.519 237.554L455.534 237.56L455.383 237.647C455.373 237.653 455.364 237.659 455.353 237.665L407.624 265.37L397.201 215.224L257.804 134.743C239.988 124.458 224.912 102.232 219.839 80.6656L181.094 68.2853Z" fill="#FF9557"/>
<path d="M209.922 70.6443C216.176 74.2552 222.09 79.3396 227.355 85.3474C234.661 61.8779 256.948 54.5968 283.317 69.8202C305.131 82.4139 324.143 107.186 334.201 133.432C337.534 133.539 341.246 134.636 345.178 136.905C359.415 145.123 370.954 165.112 370.954 181.548C370.954 181.903 370.919 182.226 370.909 182.571C374.97 182.851 379.456 184.286 384.177 187.012C402.384 197.523 417.143 223.087 417.143 244.111C417.143 265.135 402.384 273.655 384.177 263.144L209.923 162.539C187.946 149.85 170.129 118.993 170.129 93.6158C170.129 68.24 187.945 57.9557 209.922 70.6443Z" fill="#FFEFE6"/>
<path d="M225.759 86.3052C220.494 80.2974 214.579 75.213 208.325 71.6021C197.58 65.3986 187.835 64.699 180.676 68.5589C187.947 63.6599 198.355 63.9667 209.922 70.6445C215.814 74.0464 221.398 78.7676 226.427 84.3263C226.195 84.9741 225.969 85.6307 225.759 86.3052Z" fill="white"/>
<path d="M415.546 245.072C415.546 224.048 400.786 198.484 382.579 187.973C377.858 185.247 373.371 183.812 369.311 183.532C369.321 183.186 369.357 182.863 369.357 182.509C369.357 166.072 357.817 146.084 343.581 137.866C339.648 135.597 335.937 134.5 332.603 134.392C322.545 108.147 303.533 83.3732 281.719 70.7795C265.771 61.5713 251.325 60.6093 240.773 66.4674C251.437 59.5717 266.548 60.1409 283.316 69.8204C305.13 82.4142 324.142 107.188 334.199 133.432C337.533 133.539 341.245 134.636 345.177 136.906C359.412 145.125 370.953 165.113 370.953 181.548C370.953 181.903 370.918 182.226 370.907 182.571C374.967 182.851 379.454 184.286 384.176 187.012C402.383 197.523 417.142 223.089 417.142 244.111C417.142 254.907 413.242 262.395 406.99 265.713C412.305 262.025 415.546 254.92 415.546 245.072Z" fill="white"/>
<defs>
<linearGradient id="paint0_linear_2920_121918" x1="517.926" y1="153.102" x2="270.913" y2="153.102" gradientUnits="userSpaceOnUse">
<stop stop-color="#42E8E0"/>
<stop offset="0.0185" stop-color="#40DEDA"/>
<stop offset="0.1149" stop-color="#37ADBC"/>
<stop offset="0.2166" stop-color="#2E82A2"/>
<stop offset="0.3219" stop-color="#285E8C"/>
<stop offset="0.4319" stop-color="#22417A"/>
<stop offset="0.5479" stop-color="#1E2A6C"/>
<stop offset="0.6729" stop-color="#1A1A63"/>
<stop offset="0.813" stop-color="#19105D"/>
<stop offset="1" stop-color="#180D5B"/>
</linearGradient>
<linearGradient id="paint1_linear_2920_121918" x1="465.025" y1="186.842" x2="218.011" y2="186.842" gradientUnits="userSpaceOnUse">
<stop stop-color="#5761D7"/>
<stop offset="0.1779" stop-color="#5C66D9"/>
<stop offset="0.3876" stop-color="#6A73DF"/>
<stop offset="0.6134" stop-color="#8289E8"/>
<stop offset="0.849" stop-color="#A3A7F5"/>
<stop offset="1" stop-color="#BCBEFF"/>
</linearGradient>
<radialGradient id="paint2_radial_2920_121918" cx="0" cy="0" r="1" gradientUnits="userSpaceOnUse" gradientTransform="translate(406.976 112.697) rotate(180) scale(117.83 117.83)">
<stop stop-color="#2B237C"/>
<stop offset="1" stop-color="#180D5B"/>
</radialGradient>
</defs>
</svg>
