<svg width="968" height="628" viewBox="0 0 968 628" fill="none" xmlns="http://www.w3.org/2000/svg">
<path d="M699.01 357.518C697.897 356.876 696.812 356.287 695.735 355.74C696.87 351.52 697.443 346.833 697.443 341.772C697.443 310.073 675.113 271.391 647.666 255.544C642.657 252.652 637.687 250.658 632.865 249.605C627.758 228.596 617.741 206.631 604.528 187.518C590.424 167.116 573.611 150.93 555.908 140.709C551.832 138.356 543.871 134.782 543.871 134.782C522.42 124.496 508.781 127.235 497.554 130.75C486.447 134.229 475.47 150.018 470.938 151.084C466.407 152.149 460.004 150.116 455.415 151.894C455.106 151.999 454.943 152.069 454.943 152.069L454.937 152.072C454.432 152.281 453.935 152.508 453.448 152.755C452.235 153.371 451.097 154.108 450.024 154.938L429.935 166.654C422.677 164.386 413.981 165.109 408.725 166.76C408.702 166.769 408.675 166.781 408.651 166.789C407.043 167.249 405.503 167.879 404.052 168.698C403.415 169.057 402.807 169.459 402.214 169.881C387.235 177.68 355.564 196.252 355.564 196.252C355.564 196.252 362.237 193.36 371.946 194.727L317.612 226.777C317.612 226.777 335.011 217.334 353.792 230.529C354.06 239.713 356.638 250.07 361.295 260.606C370.026 282.982 386.212 303.094 403.551 313.105C404.634 313.731 405.757 314.326 407.074 314.974C408.592 315.962 409.949 316.799 411.218 317.531L683.889 474.959C691.828 479.542 676.431 512.128 683.704 513.244C701.079 509.022 730.602 487.97 738.89 481.795C747.297 475.53 751.927 463.94 751.927 449.158C751.927 415.473 728.188 374.365 699.01 357.518Z" fill="#F9F8F5" stroke="#081348" stroke-width="2.9693" stroke-miterlimit="10"/>
<path d="M635.597 502.776L362.925 345.349C361.656 344.616 360.3 343.779 358.782 342.791C357.464 342.143 356.342 341.547 355.258 340.922C337.919 330.911 321.733 310.8 313.002 288.423C308.076 277.278 305.472 266.331 305.472 256.764C305.472 250.626 306.539 245.158 308.645 240.51C313.707 225.016 326.756 218.282 342.882 222.732C343.325 210.245 347.87 200.965 355.759 196.514C363.945 191.896 374.791 193.013 386.3 199.657C387.996 200.636 389.695 201.733 391.371 202.93C392.874 192.238 397.73 184.336 405.156 180.572C412.768 176.715 422.621 177.45 433.003 182.627C445.684 155.174 474.862 149.616 507.615 168.526C525.318 178.747 542.131 194.933 556.235 215.335C569.449 234.448 579.466 256.413 584.572 277.422C589.394 278.475 594.365 280.469 599.373 283.361C626.821 299.208 649.151 337.889 649.151 369.589C649.151 374.65 648.577 379.337 647.443 383.558C648.52 384.104 649.604 384.693 650.717 385.336C679.896 402.182 703.634 443.291 703.634 476.974C703.634 491.757 699.004 503.347 690.597 509.612C682.309 515.786 670.923 516.407 658.52 511.363C651.248 510.248 643.536 507.359 635.597 502.776Z" fill="#F9F8F5" stroke="#081348" stroke-width="2.9693" stroke-miterlimit="10"/>
<path d="M270.466 142.923C266.575 140.677 263.41 135.195 263.41 130.704C263.41 126.209 266.575 124.381 270.466 126.628C274.357 128.875 277.523 134.357 277.523 138.852C277.523 143.343 274.357 145.17 270.466 142.923Z" fill="#F9F8F5" stroke="#081348" stroke-width="2.9693" stroke-miterlimit="10" stroke-linejoin="round"/>
<path d="M270.467 164.207C260.266 158.318 258 151.867 257.909 151.596C257.507 150.398 257.541 148.985 257.985 148.303C258.158 148.042 262.245 141.906 266.937 142.635C267.088 142.658 267.248 142.717 267.407 142.809C268.286 143.317 268.913 144.599 269.516 145.841C269.784 146.389 270.277 147.402 270.497 147.604C270.626 147.591 271.094 147.132 271.343 146.883C271.932 146.307 272.535 145.707 273.41 146.213C273.558 146.298 273.703 146.409 273.841 146.546C278.671 151.258 282.726 162.306 282.896 162.775C283.327 163.962 283.355 165.412 282.958 166.143C282.869 166.305 280.67 170.098 270.467 164.207Z" fill="#F9F8F5" stroke="#081348" stroke-width="2.9693" stroke-miterlimit="10" stroke-linejoin="round"/>
<path d="M306.748 163.871C302.857 161.625 299.692 156.143 299.692 151.653C299.692 147.157 302.857 145.329 306.748 147.576C310.639 149.823 313.804 155.305 313.804 159.8C313.804 164.291 310.639 166.118 306.748 163.871Z" fill="#F9F8F5" stroke="#081348" stroke-width="2.9693" stroke-miterlimit="10" stroke-linejoin="round"/>
<path d="M306.748 185.155C296.548 179.266 294.281 172.815 294.191 172.544C293.788 171.347 293.822 169.933 294.266 169.251C294.439 168.991 298.526 162.854 303.219 163.584C303.369 163.606 303.529 163.666 303.688 163.758C304.567 164.265 305.194 165.548 305.798 166.789C306.065 167.337 306.558 168.351 306.778 168.552C306.907 168.539 307.374 168.08 307.624 167.831C308.212 167.256 308.816 166.656 309.69 167.162C309.839 167.248 309.983 167.358 310.122 167.495C314.951 172.206 319.007 183.255 319.177 183.724C319.607 184.911 319.636 186.361 319.239 187.092C319.151 187.253 316.952 191.046 306.748 185.155Z" fill="#F9F8F5" stroke="#081348" stroke-width="2.9693" stroke-miterlimit="10" stroke-linejoin="round"/>
<path d="M289.463 159.961C284.591 157.148 280.629 150.284 280.629 144.662C280.629 139.034 284.591 136.746 289.463 139.559C294.335 142.372 298.298 149.236 298.298 154.864C298.298 160.486 294.335 162.773 289.463 159.961Z" fill="#F9F8F5" stroke="#F9F8F5" stroke-width="10.0956" stroke-miterlimit="10" stroke-linejoin="round"/>
<path d="M289.463 186.608C276.692 179.235 273.855 171.158 273.741 170.819C273.237 169.319 273.28 167.549 273.836 166.695C274.052 166.369 279.169 158.686 285.045 159.599C285.234 159.627 285.434 159.701 285.633 159.817C286.733 160.452 287.518 162.058 288.273 163.613C288.608 164.298 289.225 165.567 289.501 165.819C289.663 165.803 290.248 165.229 290.56 164.917C291.297 164.196 292.052 163.446 293.148 164.078C293.334 164.186 293.515 164.325 293.688 164.495C299.736 170.394 304.812 184.228 305.026 184.815C305.566 186.301 305.601 188.116 305.104 189.032C304.993 189.235 302.239 193.984 289.463 186.608Z" fill="#F9F8F5" stroke="#F9F8F5" stroke-width="10.0956" stroke-miterlimit="10" stroke-linejoin="round"/>
<path d="M289.463 159.961C284.591 157.148 280.629 150.284 280.629 144.662C280.629 139.034 284.591 136.746 289.463 139.559C294.335 142.372 298.298 149.236 298.298 154.864C298.298 160.486 294.335 162.773 289.463 159.961Z" fill="#F9F8F5" stroke="#081348" stroke-width="2.9693" stroke-miterlimit="10" stroke-linejoin="round"/>
<path d="M289.463 186.608C276.692 179.235 273.855 171.158 273.741 170.819C273.237 169.319 273.28 167.549 273.836 166.695C274.052 166.369 279.169 158.686 285.045 159.599C285.234 159.627 285.434 159.701 285.633 159.817C286.733 160.452 287.518 162.058 288.273 163.613C288.608 164.298 289.225 165.567 289.501 165.819C289.663 165.803 290.248 165.229 290.56 164.917C291.297 164.196 292.052 163.446 293.148 164.078C293.334 164.186 293.515 164.325 293.688 164.495C299.736 170.394 304.812 184.228 305.026 184.815C305.566 186.301 305.601 188.116 305.104 189.032C304.993 189.235 302.239 193.984 289.463 186.608Z" fill="#F9F8F5" stroke="#081348" stroke-width="2.9693" stroke-miterlimit="10" stroke-linejoin="round"/>
<path d="M915.415 463.017C908.944 466.753 898.452 460.696 891.981 449.488C885.51 438.28 885.51 426.165 891.981 422.429C898.453 418.693 908.944 424.75 915.416 435.959C921.886 447.167 921.886 459.281 915.415 463.017Z" fill="#F9F8F5" stroke="#081348" stroke-width="2.9693" stroke-miterlimit="10" stroke-linejoin="round"/>
<path d="M915.415 463.017C908.944 466.753 898.452 460.696 891.981 449.488C885.51 438.28 885.51 426.165 891.981 422.429C898.453 418.693 908.944 424.75 915.416 435.959C921.886 447.167 921.886 459.281 915.415 463.017Z" fill="#F9F8F5" stroke="#081348" stroke-width="2.9693" stroke-miterlimit="10" stroke-linejoin="round"/>
<path d="M911.928 456.977C907.382 459.601 900.013 455.347 895.468 447.474C890.923 439.602 890.923 431.092 895.468 428.469C900.014 425.844 907.383 430.099 911.928 437.972C916.472 445.844 916.472 454.354 911.928 456.977Z" fill="#F9F8F5" stroke="#081348" stroke-width="2.9693" stroke-miterlimit="10" stroke-linejoin="round"/>
<path d="M883.189 445.529L867.913 454.35L875.548 467.574L890.825 458.754L883.189 445.529Z" fill="#F9F8F5" stroke="#081348" stroke-width="2.9693" stroke-miterlimit="10" stroke-linejoin="round"/>
<path d="M889.15 445.827L884.826 448.323L889.182 455.868L893.506 453.371L889.15 445.827Z" fill="#F9F8F5" stroke="#081348" stroke-width="2.9693" stroke-miterlimit="10" stroke-linejoin="round"/>
<path d="M336.162 73.9519C336.162 87.5056 326.647 92.9988 314.908 86.2223C303.171 79.4457 293.655 62.9643 293.655 49.4112C293.655 35.8576 303.171 30.3643 314.908 37.1409C326.647 43.9174 336.162 60.3982 336.162 73.9519Z" fill="#F9F8F5" stroke="#FF9557" stroke-width="2.9693" stroke-miterlimit="10" stroke-linejoin="round"/>
<path d="M296.998 38.125C302.393 42.614 308.474 46.8987 314.908 50.6139C321.343 54.3291 327.425 57.0662 332.82 58.8074" fill="#F9F8F5"/>
<path d="M296.998 38.125C302.393 42.614 308.474 46.8987 314.908 50.6139C321.343 54.3291 327.425 57.0662 332.82 58.8074" stroke="#FF9557" stroke-width="2.9693" stroke-miterlimit="10" stroke-linejoin="round"/>
<path d="M332.82 85.0627C327.425 80.5743 321.344 76.2895 314.909 72.5744C308.474 68.8592 302.393 66.1221 296.998 64.3809" fill="#F9F8F5"/>
<path d="M332.82 85.0627C327.425 80.5743 321.344 76.2895 314.909 72.5744C308.474 68.8592 302.393 66.1221 296.998 64.3809" stroke="#FF9557" stroke-width="2.9693" stroke-miterlimit="10" stroke-linejoin="round"/>
<path d="M314.908 86.2228C321.6 90.0858 326.278 85.0547 326.278 68.1593C326.278 51.264 320.11 39.9694 314.908 36.9668" stroke="#FF9557" stroke-width="2.9693" stroke-miterlimit="10" stroke-linejoin="round"/>
<path d="M314.908 86.2215C308.218 82.359 303.54 71.9255 303.54 55.0302C303.54 38.1348 309.707 33.9624 314.908 36.9655" stroke="#FF9557" stroke-width="2.9693" stroke-miterlimit="10" stroke-linejoin="round"/>
<path d="M293.655 49.4111L336.162 73.9524" stroke="#FF9557" stroke-width="2.9693" stroke-miterlimit="10" stroke-linejoin="round"/>
<path d="M314.908 37.1406V86.2226" stroke="#FF9557" stroke-width="2.9693" stroke-miterlimit="10" stroke-linejoin="round"/>
<path d="M179.104 42.665C177.197 39.2129 176.082 35.7317 176.082 32.6756C176.082 24.5617 183.939 22.5212 193.631 28.1166C203.323 33.7119 211.18 44.8254 211.18 52.9394C211.18 61.0533 203.323 63.0944 193.631 57.499C191.64 56.3493 189.727 54.9632 187.943 53.421L178.461 53.32L179.104 42.665Z" fill="#F9F8F5" stroke="#081348" stroke-width="2.9693" stroke-miterlimit="10" stroke-linejoin="round"/>
<path d="M240.368 68.2662C243.001 66.5416 244.541 63.5147 244.541 59.2959C244.541 48.0969 233.696 32.7569 220.319 25.0337C206.942 17.3106 196.097 20.1273 196.097 31.3263C196.097 42.5253 206.942 57.8653 220.319 65.5885C223.067 67.1752 225.705 68.3089 228.169 69.0257L241.258 83.9999L240.368 68.2662Z" fill="#F9F8F5"/>
<path d="M240.368 68.2662C243.001 66.5416 244.541 63.5147 244.541 59.2959C244.541 48.0969 233.696 32.7569 220.319 25.0337C206.942 17.3106 196.097 20.1273 196.097 31.3263C196.097 42.5253 206.942 57.8653 220.319 65.5885C223.067 67.1752 225.705 68.3089 228.169 69.0257L241.258 83.9999L240.368 68.2662Z" stroke="#F9F8F5" stroke-width="10.0956" stroke-miterlimit="10"/>
<path d="M240.368 68.2662C243.001 66.5416 244.541 63.5147 244.541 59.2959C244.541 48.0969 233.696 32.7569 220.319 25.0337C206.942 17.3106 196.097 20.1273 196.097 31.3263C196.097 42.5253 206.942 57.8653 220.319 65.5885C223.067 67.1752 225.705 68.3089 228.169 69.0257L241.258 83.9999L240.368 68.2662Z" fill="#F9F8F5" stroke="#081348" stroke-width="2.9693" stroke-miterlimit="10" stroke-linejoin="round"/>
<path d="M211.18 40.7934C211.18 42.9901 209.638 43.8803 207.737 42.7823C205.835 41.6842 204.293 39.0137 204.293 36.817C204.293 34.6209 205.835 33.7307 207.737 34.8287C209.639 35.9268 211.18 38.5968 211.18 40.7934Z" fill="#F9F8F5" stroke="#081348" stroke-width="2.9693" stroke-miterlimit="10" stroke-linejoin="round"/>
<path d="M223.128 47.6909C223.128 49.8876 221.587 50.7778 219.684 49.6798C217.783 48.5817 216.241 45.9111 216.241 43.7144C216.241 41.5183 217.783 40.6281 219.684 41.7262C221.587 42.8242 223.128 45.4942 223.128 47.6909Z" fill="#F9F8F5" stroke="#081348" stroke-width="2.9693" stroke-miterlimit="10" stroke-linejoin="round"/>
<path d="M235.076 54.5894C235.076 56.786 233.535 57.6762 231.633 56.5782C229.731 55.4801 228.189 52.8095 228.189 50.6128C228.189 48.4167 229.731 47.5266 231.633 48.6246C233.535 49.7233 235.076 52.3933 235.076 54.5894Z" fill="#F9F8F5" stroke="#081348" stroke-width="2.9693" stroke-miterlimit="10" stroke-linejoin="round"/>
<path d="M721.759 228.536L726.435 242.175L736.89 249.967L729.324 254.114L731.11 267.17L721.759 256.094L712.406 256.372L714.193 245.378L706.627 232.494L717.082 236.777L721.759 228.536Z" fill="#F9F8F5" stroke="#081348" stroke-width="2.9693" stroke-miterlimit="10" stroke-linejoin="round"/>
<path d="M420.538 120.069C420.463 119.336 418.963 116.594 417.974 114.853C417.994 113.292 418.003 111.682 418.013 110.037C418.06 102.04 416.634 93.9676 414.875 87.8378C413.253 82.1914 411.348 78.1929 410.05 77.428C408.751 76.6625 406.813 78.393 405.137 82.0928C403.316 86.112 401.804 92.4551 401.756 100.454C401.746 102.12 401.745 103.757 401.759 105.357C400.763 105.932 399.391 106.827 399.312 107.433C397.52 116.767 398.916 136.865 398.916 136.865C401.506 131.184 401.779 131.566 405.049 127.78V127.757C405.061 127.781 405.072 127.807 405.085 127.831C405.751 127.754 406.572 127.869 407.49 128.178L405.678 131.871C405.432 132.374 405.571 132.63 405.987 132.44C405.987 132.44 407.219 131.88 409.81 133.424C412.402 134.968 413.531 136.91 413.531 136.91C413.932 137.6 414.083 137.517 413.866 136.726L412.331 131.123C413.192 131.887 413.954 132.718 414.565 133.551C414.578 133.543 414.588 133.532 414.6 133.523V133.534C414.6 133.534 418.731 143.338 420.583 149.76C420.583 149.76 422.207 131.443 420.538 120.069Z" fill="#F9F8F5" stroke="#081348" stroke-width="2.9693" stroke-miterlimit="10" stroke-linejoin="round"/>
<path d="M413.68 104.992C413.662 107.385 411.961 108.334 409.88 107.113C407.8 105.891 406.127 102.961 406.145 100.568C406.162 98.1755 407.863 97.2265 409.945 98.4481C412.025 99.6703 413.697 102.6 413.68 104.992Z" fill="#F9F8F5" stroke="#081348" stroke-width="2.9693" stroke-miterlimit="10" stroke-linejoin="round"/>
<path d="M412.601 116.805C412.588 118.57 411.333 119.27 409.798 118.369C408.263 117.467 407.03 115.307 407.043 113.542C407.056 111.777 408.31 111.077 409.845 111.978C411.38 112.879 412.613 115.041 412.601 116.805Z" fill="#F9F8F5" stroke="#081348" stroke-width="2.9693" stroke-miterlimit="10" stroke-linejoin="round"/>
<path d="M767.104 487.665C765.197 484.213 764.082 480.732 764.082 477.676C764.082 469.562 771.939 467.521 781.631 473.117C791.323 478.712 799.18 489.825 799.18 497.939C799.18 506.053 791.323 508.094 781.631 502.499C779.64 501.349 777.727 499.963 775.943 498.421L766.461 498.32L767.104 487.665Z" fill="#F9F8F5" stroke="#081348" stroke-width="2.9693" stroke-miterlimit="10" stroke-linejoin="round"/>
<path d="M828.368 513.266C831.001 511.542 832.541 508.515 832.541 504.296C832.541 493.097 821.696 477.757 808.319 470.034C794.942 462.311 784.097 465.127 784.097 476.326C784.097 487.525 794.942 502.865 808.319 510.588C811.067 512.175 813.705 513.309 816.169 514.026L829.258 529L828.368 513.266Z" fill="#F9F8F5"/>
<path d="M828.368 513.266C831.001 511.542 832.541 508.515 832.541 504.296C832.541 493.097 821.696 477.757 808.319 470.034C794.942 462.311 784.097 465.127 784.097 476.326C784.097 487.525 794.942 502.865 808.319 510.588C811.067 512.175 813.705 513.309 816.169 514.026L829.258 529L828.368 513.266Z" stroke="#F9F8F5" stroke-width="10.0956" stroke-miterlimit="10"/>
<path d="M828.368 513.266C831.001 511.542 832.541 508.515 832.541 504.296C832.541 493.097 821.696 477.757 808.319 470.034C794.942 462.311 784.097 465.127 784.097 476.326C784.097 487.525 794.942 502.865 808.319 510.588C811.067 512.175 813.705 513.309 816.169 514.026L829.258 529L828.368 513.266Z" fill="#F9F8F5" stroke="#081348" stroke-width="2.9693" stroke-miterlimit="10" stroke-linejoin="round"/>
<path d="M799.18 485.793C799.18 487.99 797.638 488.88 795.737 487.782C793.835 486.684 792.293 484.014 792.293 481.817C792.293 479.621 793.835 478.731 795.737 479.829C797.639 480.927 799.18 483.597 799.18 485.793Z" fill="#F9F8F5" stroke="#081348" stroke-width="2.9693" stroke-miterlimit="10" stroke-linejoin="round"/>
<path d="M811.128 492.691C811.128 494.888 809.587 495.778 807.684 494.68C805.783 493.582 804.241 490.911 804.241 488.714C804.241 486.518 805.783 485.628 807.684 486.726C809.587 487.824 811.128 490.494 811.128 492.691Z" fill="#F9F8F5" stroke="#081348" stroke-width="2.9693" stroke-miterlimit="10" stroke-linejoin="round"/>
<path d="M823.076 499.589C823.076 501.786 821.535 502.676 819.633 501.578C817.731 500.48 816.189 497.81 816.189 495.613C816.189 493.417 817.731 492.527 819.633 493.625C821.535 494.723 823.076 497.393 823.076 499.589Z" fill="#F9F8F5" stroke="#081348" stroke-width="2.9693" stroke-miterlimit="10" stroke-linejoin="round"/>
<path d="M407.509 380.282C407.509 380.282 274.093 302.748 271.197 301.355C269.842 300.703 268.682 300.151 267.258 300.083C264.622 299.637 262.335 300.457 260.676 302.326C255.028 305.658 222.436 324.889 222.436 324.889L231.529 325.325L237.725 328.884L257.851 340.506V434.974C257.851 444.773 263.808 456.154 271.156 460.397L378.985 561.323C378.985 561.323 414.51 541.176 416.917 539.356C419.325 537.536 420.814 533.961 420.814 529.062V405.704C420.815 395.906 414.858 384.524 407.509 380.282Z" fill="#F9F8F5" stroke="#081348" stroke-width="2.9693" stroke-miterlimit="10"/>
<path d="M367.882 562.886L231.53 484.163C224.181 479.92 218.224 468.538 218.224 458.74V335.383C218.224 325.585 224.181 321.082 231.53 325.324L367.882 404.048C375.231 408.29 381.188 419.672 381.188 429.47V552.827C381.188 562.626 375.231 567.129 367.882 562.886Z" fill="#F9F8F5" stroke="#081348" stroke-width="2.9693" stroke-miterlimit="10"/>
<path d="M309.736 440.815C315.283 437.612 315.283 427.227 309.736 417.619C304.188 408.011 295.195 402.819 289.647 406.021C284.1 409.224 284.1 419.609 289.648 429.217C295.195 438.825 304.189 444.017 309.736 440.815Z" fill="#F9F8F5" stroke="#081348" stroke-width="2.9693" stroke-miterlimit="10"/>
<path d="M266.62 331.438C276.459 331.438 284.435 326.832 284.435 321.151C284.435 315.471 276.459 310.865 266.62 310.865C256.78 310.865 248.804 315.471 248.804 321.151C248.804 326.832 256.78 331.438 266.62 331.438Z" fill="#F9F8F5" stroke="#081348" stroke-width="2.9693" stroke-miterlimit="10"/>
<path d="M382.616 373.824C389.574 377.841 389.574 384.354 382.616 388.371C375.658 392.388 364.378 392.388 357.42 388.371C350.463 384.354 350.463 377.841 357.42 373.824C364.378 369.807 375.658 369.807 382.616 373.824Z" fill="#F9F8F5" stroke="#081348" stroke-width="2.9693" stroke-miterlimit="10"/>
<path d="M381.67 379.644V343.866C381.67 306.552 356.358 262.71 324.045 244.056C306.487 233.92 289.388 232.629 275.894 240.421C262.398 248.211 254.966 263.666 254.966 283.937V321.17H254.968C254.975 322.886 256.111 324.601 258.379 325.91C262.93 328.538 270.309 328.538 274.859 325.91C277.904 324.153 278.901 321.664 277.871 319.423V283.937C277.871 272.364 281.324 263.734 287.346 260.257C293.368 256.78 302.568 258.106 312.592 263.892C337.62 278.342 358.765 314.965 358.765 343.866V380.218C358.306 382.223 359.397 384.322 362.064 385.862C366.615 388.49 373.994 388.49 378.544 385.862C381.469 384.174 382.503 381.814 381.67 379.644Z" fill="#F9F8F5" stroke="#081348" stroke-width="2.9693" stroke-miterlimit="10"/>
<path d="M212.381 235.389L169.201 260.319" stroke="#FF9557" stroke-width="2.9693" stroke-miterlimit="10" stroke-linecap="round" stroke-linejoin="round"/>
<path d="M235.676 203.152L192.496 228.083" stroke="#FF9557" stroke-width="2.9693" stroke-miterlimit="10" stroke-linecap="round" stroke-linejoin="round"/>
<path d="M524.92 461.313L484.188 484.83" stroke="#FF9557" stroke-width="2.9693" stroke-miterlimit="10" stroke-linecap="round" stroke-linejoin="round"/>
<path d="M690.902 531.171L650.17 554.687" stroke="#FF9557" stroke-width="2.9693" stroke-miterlimit="10" stroke-linecap="round" stroke-linejoin="round"/>
<path d="M641.886 544.108L601.155 567.625" stroke="#FF9557" stroke-width="2.9693" stroke-miterlimit="10" stroke-linecap="round" stroke-linejoin="round"/>
<path d="M229.063 593.478L188.332 616.994" stroke="#FF9557" stroke-width="2.9693" stroke-miterlimit="10" stroke-linecap="round" stroke-linejoin="round"/>
<path d="M182.958 608.236L152.229 625.751" stroke="#FF9557" stroke-width="2.9693" stroke-miterlimit="10" stroke-linecap="round" stroke-linejoin="round"/>
<path d="M130.499 399.997L72.1411 433.69" stroke="#FF9557" stroke-width="2.9693" stroke-miterlimit="10" stroke-linecap="round" stroke-linejoin="round"/>
<path d="M84.9285 440.207L47.9595 461.551" stroke="#FF9557" stroke-width="2.9693" stroke-miterlimit="10" stroke-linecap="round" stroke-linejoin="round"/>
<path d="M172.576 508.635C158.913 488.047 150.17 463.529 150.17 441.699C150.17 403.434 177.034 387.925 210.173 407.057C243.312 426.19 270.175 472.719 270.175 510.984C270.175 516.594 269.598 521.715 268.508 526.309" stroke="#081348" stroke-width="2.9693" stroke-miterlimit="10"/>
<path d="M11.7779 597.522C5.81555 588.538 2 577.837 2 568.311C2 551.612 13.7234 544.844 28.1851 553.193C42.6468 561.543 54.3702 581.848 54.3702 598.547C54.3702 600.995 54.1184 603.23 53.6427 605.235" stroke="#081348" stroke-width="2.9693" stroke-miterlimit="10"/>
<path d="M73.3843 505.625C73.3843 476.821 93.6064 465.146 118.552 479.548C143.497 493.949 163.719 528.975 163.719 557.779" stroke="#081348" stroke-width="2.9693" stroke-miterlimit="10"/>
<path d="M237.915 493.729C240.988 503.127 242.704 512.619 242.704 521.582C242.704 554.454 219.627 567.777 191.159 551.341C172.582 540.615 156.299 519.866 147.228 497.607" stroke="#081348" stroke-width="2.9693" stroke-miterlimit="10"/>
<path d="M80.9545 504.829C86.0035 507.744 90.8203 511.675 95.2191 516.298C108.909 530.69 118.551 551.802 118.551 569.948C118.551 593.924 101.718 603.642 80.9545 591.654C60.1908 579.666 43.3584 550.511 43.3584 526.535" stroke="#081348" stroke-width="2.9693" stroke-miterlimit="10"/>
<path d="M751.928 303.378L765.85 311.416" stroke="#081348" stroke-width="2.9693" stroke-miterlimit="10" stroke-linecap="round" stroke-linejoin="round"/>
<path d="M758.889 299.359V315.435" stroke="#081348" stroke-width="2.9693" stroke-miterlimit="10" stroke-linecap="round" stroke-linejoin="round"/>
<path d="M683.941 179.142L697.863 187.18" stroke="#081348" stroke-width="2.9693" stroke-miterlimit="10" stroke-linecap="round" stroke-linejoin="round"/>
<path d="M690.902 175.123V191.198" stroke="#081348" stroke-width="2.9693" stroke-miterlimit="10" stroke-linecap="round" stroke-linejoin="round"/>
<path d="M867.939 372.602L881.861 380.639" stroke="#081348" stroke-width="2.9693" stroke-miterlimit="10" stroke-linecap="round" stroke-linejoin="round"/>
<path d="M874.9 368.583V384.658" stroke="#081348" stroke-width="2.9693" stroke-miterlimit="10" stroke-linecap="round" stroke-linejoin="round"/>
<path d="M877.896 542.524L891.817 550.562" stroke="#081348" stroke-width="2.9693" stroke-miterlimit="10" stroke-linecap="round" stroke-linejoin="round"/>
<path d="M884.856 538.506V554.58" stroke="#081348" stroke-width="2.9693" stroke-miterlimit="10" stroke-linecap="round" stroke-linejoin="round"/>
<path d="M368.118 44.4482L382.04 52.4867" stroke="#081348" stroke-width="2.9693" stroke-miterlimit="10" stroke-linecap="round" stroke-linejoin="round"/>
<path d="M375.079 40.4297V56.5049" stroke="#081348" stroke-width="2.9693" stroke-miterlimit="10" stroke-linecap="round" stroke-linejoin="round"/>
<path d="M195.479 122.689L209.4 130.727" stroke="#081348" stroke-width="2.9693" stroke-miterlimit="10" stroke-linecap="round" stroke-linejoin="round"/>
<path d="M202.439 118.671V134.746" stroke="#081348" stroke-width="2.9693" stroke-miterlimit="10" stroke-linecap="round" stroke-linejoin="round"/>
<path d="M136.088 36.4111L150.01 44.449" stroke="#081348" stroke-width="2.9693" stroke-miterlimit="10" stroke-linecap="round" stroke-linejoin="round"/>
<path d="M143.048 32.3926V48.4678" stroke="#081348" stroke-width="2.9693" stroke-miterlimit="10" stroke-linecap="round" stroke-linejoin="round"/>
<path d="M344.699 137.239C344.699 139.961 342.788 141.064 340.431 139.703C338.074 138.342 336.163 135.032 336.163 132.311C336.163 129.589 338.074 128.486 340.431 129.847C342.788 131.208 344.699 134.517 344.699 137.239Z" fill="#F9F8F5"/>
<path d="M344.699 137.239C344.699 139.961 342.788 141.064 340.431 139.703C338.074 138.342 336.163 135.032 336.163 132.311C336.163 129.589 338.074 128.486 340.431 129.847C342.788 131.208 344.699 134.517 344.699 137.239Z" stroke="#081348" stroke-width="2.9693" stroke-miterlimit="10" stroke-linecap="round" stroke-linejoin="round"/>
<path d="M497.555 77.1873C497.555 79.909 495.644 81.0124 493.287 79.6512C490.93 78.2907 489.019 74.9805 489.019 72.2589C489.019 69.5372 490.93 68.4338 493.287 69.7949C495.644 71.1555 497.555 74.4651 497.555 77.1873Z" fill="#F9F8F5"/>
<path d="M497.555 77.1873C497.555 79.909 495.644 81.0124 493.287 79.6512C490.93 78.2907 489.019 74.9805 489.019 72.2589C489.019 69.5372 490.93 68.4338 493.287 69.7949C495.644 71.1555 497.555 74.4651 497.555 77.1873Z" stroke="#081348" stroke-width="2.9693" stroke-miterlimit="10" stroke-linecap="round" stroke-linejoin="round"/>
<path d="M258.546 9.97541C258.546 12.6971 256.635 13.8005 254.278 12.4393C251.921 11.0788 250.01 7.76862 250.01 5.04695C250.01 2.32529 251.921 1.2219 254.278 2.58302C256.635 3.94356 258.546 7.25315 258.546 9.97541Z" fill="#F9F8F5"/>
<path d="M258.546 9.97541C258.546 12.6971 256.635 13.8005 254.278 12.4393C251.921 11.0788 250.01 7.76862 250.01 5.04695C250.01 2.32529 251.921 1.2219 254.278 2.58302C256.635 3.94356 258.546 7.25315 258.546 9.97541Z" stroke="#081348" stroke-width="2.9693" stroke-miterlimit="10" stroke-linecap="round" stroke-linejoin="round"/>
<path d="M967.307 470.024C967.307 472.746 965.396 473.849 963.039 472.488C960.682 471.128 958.771 467.817 958.771 465.096C958.771 462.374 960.682 461.271 963.039 462.632C965.396 463.992 967.307 467.302 967.307 470.024Z" fill="#F9F8F5"/>
<path d="M803.449 430.158C803.449 432.88 801.538 433.983 799.181 432.622C796.824 431.261 794.913 427.951 794.913 425.23C794.913 422.508 796.824 421.405 799.181 422.766C801.538 424.126 803.449 427.436 803.449 430.158Z" fill="#F9F8F5"/>
<path d="M803.449 430.158C803.449 432.88 801.538 433.983 799.181 432.622C796.824 431.261 794.913 427.951 794.913 425.23C794.913 422.508 796.824 421.405 799.181 422.766C801.538 424.126 803.449 427.436 803.449 430.158Z" stroke="#081348" stroke-width="2.9693" stroke-miterlimit="10" stroke-linecap="round" stroke-linejoin="round"/>
<path d="M841.994 286.2C841.994 288.922 840.083 290.025 837.726 288.664C835.369 287.303 833.458 283.993 833.458 281.272C833.458 278.55 835.369 277.447 837.726 278.808C840.083 280.169 841.994 283.478 841.994 286.2Z" fill="#F9F8F5"/>
<path d="M841.994 286.2C841.994 288.922 840.083 290.025 837.726 288.664C835.369 287.303 833.458 283.993 833.458 281.272C833.458 278.55 835.369 277.447 837.726 278.808C840.083 280.169 841.994 283.478 841.994 286.2Z" stroke="#081348" stroke-width="2.9693" stroke-miterlimit="10" stroke-linecap="round" stroke-linejoin="round"/>
</svg>
