<?xml version="1.0" encoding="UTF-8"?><svg id="Artwork" xmlns="http://www.w3.org/2000/svg" viewBox="0 0 214 214"><defs><style>.cls-1{stroke-width:0px;}</style></defs><path class="cls-1" d="m197.31,26.39l-6.84-3.72c-1.61-.88-3.53-1.25-5.57-.96L22.55,44.52c-2.86.4-5.49,2.03-7.37,4.32-1.88,2.29-3.05,5.28-3.06,8.36l-.24,126.84c0,3.09,1.16,5.76,3.03,7.51.54.5,1.13.94,1.78,1.29l6.84,3.72s-.02-.01-.03-.02c0,0,0,0,0,0,1.61.89,3.54,1.26,5.59.97l117.75-16.55c1.43,3.88,3.65,7.23,6.45,9.86,5.13,4.84,12.28,7.29,20.15,6.19,7.87-1.11,15.03-5.57,20.19-11.86,5.17-6.28,8.38-14.46,8.4-22.95,0-1.08-.05-2.15-.15-3.19v-.04l.22-123.79c.01-3.09-1.16-5.75-3.04-7.51-.53-.5-1.13-.94-1.77-1.29M22.56,195.93s.07.05.11.08c-.04-.03-.07-.05-.11-.08Zm6.57-7.39c-.1.01-.2.02-.29.02-.11,0-.22-.01-.32-.03h-.02c-.1-.02-.19-.05-.28-.08,0-.01-.01-.01-.02-.01-.08-.03-.15-.08-.23-.12-.09-.05-.18-.12-.26-.19-.02-.01-.04-.03-.05-.04-.08-.08-.16-.16-.22-.25-.01,0-.02-.02-.02-.03-.07-.09-.12-.19-.17-.29-.02-.03-.03-.07-.05-.1-.03-.08-.06-.16-.08-.25v-.02c-.03-.08-.04-.17-.05-.26-.01-.1-.02-.2-.02-.3v-2.44l.24-124.39c0-.63.22-1.2.61-1.67.39-.47.88-.78,1.47-.86l157.59-22.15,3.56-.5,1.2-.17h0s0,0,0,0c.04,0,.08,0,.1,0h.03s.08,0,.13,0h.04c.09,0,.19,0,.28.03.03,0,.07.01.1.02h.02s.01.01.01.01l.75.41c.38.36.6.87.61,1.5l-.2,105.13c-4.86-4.52-11.5-6.91-18.82-6.2l.08-41.81c.01-4.8-3.63-7.47-7.43-6.94-1.81.25-3.66,1.24-5.17,3.08l-13.38,16.29c-1.51,1.83-3.36,2.82-5.18,3.08-3.8.53-7.44-2.14-7.43-6.95l.08-42.89c.01-4.8-3.62-7.47-7.42-6.94-1.82.25-3.67,1.24-5.17,3.08l-42.41,51.62-41.01,47.5c-4.86,5.64-1.64,13.99,5.05,13.05l104.24-14.65c-2.93,5.23-4.64,11.24-4.65,17.42,0,.68.02,1.36.07,2.02l-115.92,16.29Zm158.65-8.91c-3.68,4.47-8.71,7.62-14.3,8.4-5.59.79-10.62-.94-14.28-4.38-1.22-1.15-2.28-2.48-3.15-3.97-1.45-2.48-2.39-5.39-2.66-8.61-.05-.66-.08-1.33-.08-2.01.02-6.04,2.28-11.78,5.94-16.26.44-.53.89-1.04,1.37-1.53,3.51-3.64,8.01-6.16,12.94-6.86.22-.03.44-.06.67-.08,5.32-.56,10.09,1.16,13.61,4.46,3.08,2.9,5.16,6.99,5.72,11.83.12.89.17,1.82.17,2.76,0,4.02-1.02,7.92-2.79,11.4-.87,1.74-1.94,3.37-3.16,4.85Z"/><path class="cls-1" d="m182.6,162.83c-.59.08-1.18.42-1.62.98l-2.94,3.8-2.44,3.15v-2.81s.03-12.93.03-12.93c0-1.32-1-2.26-2.22-2.09-1.23.17-2.23,1.4-2.24,2.72l-.02,12.93v2.8l-2.43-2.46-2.66-2.69c-.44-.44-1.03-.62-1.62-.53-.55.07-1.1.37-1.53.86-.83.96-.93,2.34-.27,3.21.04.07.1.14.16.2l7.6,7.69,1.33,1.35c.41.41.96.59,1.56.54.02,0,.04-.01.07-.01.02,0,.04-.01.1-.02.03,0,.06-.01.09-.02.06-.01.13-.03.19-.06-.03.02-.07.03-.1.04.05-.02.11-.04.16-.05t.02-.01s.04-.01.06-.02c.04-.02.09-.04.13-.06.02,0,.04-.02.06-.03.03-.01.07-.03.1-.05.05-.03.11-.07.16-.1.02-.01.03-.02.05-.03.08-.05.15-.11.21-.17.06-.05.11-.1.16-.15.06-.06.12-.13.18-.2.02,0,.04-.03.05-.05l1.34-1.73,7.81-10.08.09-.11c.85-1.08.8-2.59-.09-3.37-.43-.38-.98-.52-1.53-.44Z"/><path class="cls-1" d="m173.36,179.54s.04,0,.06-.01c-.02,0-.04,0-.07.01,0,0,0,0,0,0Z"/><path class="cls-1" d="m60.6,102.96c8.14-1.14,14.75-9.19,14.77-17.97.02-8.78-6.57-14.98-14.71-13.84-8.14,1.14-14.74,9.19-14.76,17.98-.02,8.78,6.56,14.97,14.7,13.83Z"/></svg>