<svg width="212" height="61" viewBox="0 0 212 61" fill="none" xmlns="http://www.w3.org/2000/svg">
<g opacity="0.5">
<g clip-path="url(#clip0_134_2451)">
<g clip-path="url(#clip1_134_2451)">
<g clip-path="url(#clip2_134_2451)">
<path fill-rule="evenodd" clip-rule="evenodd" d="M25.281 4.60866C24.6434 4.47762 23.9858 4.47762 23.3482 4.60866C22.6105 4.76025 21.9511 5.12912 21.4281 5.42346L21.2841 5.50304L3.52266 15.3691L3.37107 15.4537C2.8165 15.7594 2.12044 16.1435 1.58356 16.7246C1.12079 17.2272 0.770642 17.8228 0.55653 18.4716C0.307668 19.222 0.311458 20.0179 0.312721 20.652V40.4801C0.311458 41.113 0.307668 41.9089 0.55653 42.6605C0.770642 43.3093 1.12079 43.9049 1.58356 44.4076C2.11918 44.9887 2.8165 45.3727 3.37233 45.6784L3.52392 45.7618L21.2841 55.6278L21.4268 55.7087C21.9511 56.0018 22.6105 56.3719 23.347 56.5235C23.985 56.6547 24.643 56.6547 25.281 56.5235C26.0188 56.3719 26.6782 56.0018 27.2012 55.7087L27.3452 55.6291L45.1066 45.7618C45.1569 45.7337 45.2075 45.7059 45.2582 45.6784C45.8127 45.3727 46.5088 44.9887 47.0457 44.4076C47.5084 43.9049 47.8586 43.3093 48.0727 42.6605C48.3216 41.9089 48.3178 41.113 48.3165 40.4801V20.652C48.319 20.0179 48.3216 19.222 48.0727 18.4716C47.8586 17.8228 47.5084 17.2272 47.0457 16.7246C46.5101 16.1435 45.8127 15.7594 45.2569 15.4537L45.1066 15.3703L27.3452 5.50304L27.2024 5.42346C26.6782 5.12912 26.0188 4.76025 25.2823 4.60866H25.281ZM23.6148 9.69959C23.9786 9.49746 24.1643 9.39514 24.3032 9.32819L24.3146 9.32313L24.3272 9.32819C24.4649 9.39514 24.6506 9.49746 25.0145 9.69959L40.9732 18.5651L24.3146 27.8198L7.65604 18.5651L23.6148 9.69959ZM5.11436 22.6442L21.9144 31.9784V50.4876L5.85463 41.5653C5.4706 41.3518 5.27353 41.2419 5.1371 41.1547L5.12447 41.1471V41.1345C5.11393 40.8588 5.11056 40.5829 5.11436 40.3071V22.6442Z" fill="#2C2C2C"/>
<path d="M70.1583 38.5865H77.7998V43.0888H64.3271V19.145H70.1596L70.1583 38.5865ZM83.1737 22.0783C82.1505 22.0783 81.3091 21.7827 80.6497 21.1915C80.3417 20.9041 80.0975 20.5552 79.933 20.1674C79.7685 19.7796 79.6873 19.3615 79.6947 18.9404C79.6947 18.0308 80.013 17.2804 80.6497 16.6892C81.3091 16.0753 82.1505 15.7683 83.1737 15.7683C84.1742 15.7683 84.9928 16.0753 85.6295 16.6905C86.2889 17.2804 86.6186 18.0308 86.6186 18.9404C86.6186 19.8272 86.2889 20.5775 85.6295 21.1915C84.9928 21.7827 84.1742 22.0783 83.1737 22.0783ZM86.0729 24.0565V43.09H80.2404V24.0565H86.0729ZM97.1895 23.7837C98.5311 23.7837 99.7022 24.0565 100.701 24.6023C101.725 25.148 102.51 25.8655 103.056 26.7511V24.0565H108.889V43.0559C108.889 44.8055 108.535 46.3859 107.831 47.7957C107.149 49.2282 106.092 50.3651 104.659 51.2065C103.249 52.0478 101.487 52.4697 99.3724 52.4697C96.5528 52.4697 94.2676 51.7977 92.5167 50.4561C90.7659 49.1373 89.7654 47.3409 89.5152 45.067H95.2795C95.4614 45.7947 95.8934 46.3631 96.5756 46.7724C97.2578 47.2045 98.0991 47.4205 99.0996 47.4205C100.305 47.4205 101.26 47.068 101.965 46.3631C102.692 45.681 103.056 44.5782 103.056 43.0547V40.3614C102.488 41.2482 101.703 41.9759 100.703 42.5443C99.7022 43.09 98.5299 43.3629 97.1895 43.3629C95.6206 43.3629 94.1994 42.965 92.926 42.1691C91.6527 41.3505 90.6395 40.2022 89.8904 38.7242C89.1628 37.2235 88.799 35.4953 88.799 33.5398C88.799 31.5843 89.1628 29.8675 89.8904 28.3895C90.6408 26.9115 91.6527 25.7746 92.926 24.9787C94.1994 24.1829 95.6206 23.7837 97.1895 23.7837ZM103.056 33.5739C103.056 32.1174 102.647 30.9691 101.828 30.1278C101.457 29.7213 101.003 29.3986 100.497 29.181C99.9917 28.9634 99.4454 28.8559 98.8949 28.8658C97.7353 28.8658 96.7461 29.2864 95.9263 30.129C95.1304 30.9463 94.7338 32.0833 94.7338 33.5398C94.7338 34.9938 95.1317 36.1548 95.9275 37.0176C96.7461 37.8589 97.734 38.2808 98.8949 38.2808C100.055 38.2808 101.032 37.8589 101.828 37.0176C102.647 36.1762 103.056 35.0279 103.056 33.5727V33.5739ZM124.466 23.8519C126.649 23.8519 128.4 24.5795 129.718 26.0348C131.037 27.4673 131.697 29.4456 131.697 31.9696V43.0888H125.898V32.7553C125.898 31.4807 125.57 30.4916 124.909 29.7867C124.25 29.0818 123.363 28.7293 122.249 28.7293C121.135 28.7293 120.248 29.083 119.588 29.7867C118.929 30.4916 118.599 31.4807 118.599 32.7553V43.0888H112.768V17.8502H118.6V26.6172C119.192 25.7746 119.999 25.1038 121.022 24.6035C122.045 24.1033 123.195 23.8532 124.467 23.8532L124.466 23.8519ZM146.016 38.1431V43.0888H143.048C140.934 43.0888 139.285 42.5772 138.103 41.5539C136.92 40.5079 136.329 38.8139 136.329 36.4718V28.8999H134.01V24.0565H136.329V19.4179H142.161V24.0565H145.982V28.8999H142.161V36.5401C142.161 37.1085 142.298 37.5178 142.571 37.7679C142.844 38.0181 143.298 38.1431 143.935 38.1431H146.016ZM154.756 26.7511C155.302 25.8643 156.086 25.148 157.11 24.6035C158.133 24.0565 159.304 23.7837 160.623 23.7837C162.192 23.7837 163.613 24.1816 164.886 24.9775C166.16 25.7733 167.16 26.9102 167.888 28.3883C168.638 29.8663 169.013 31.5843 169.013 33.5386C169.013 35.4941 168.638 37.2222 167.888 38.723C167.16 40.201 166.16 41.3505 164.886 42.1679C163.613 42.9637 162.192 43.3616 160.623 43.3616C159.281 43.3616 158.11 43.1002 157.11 42.5784C156.109 42.0314 155.325 41.3152 154.756 40.4284V43.0888H148.924V17.8502H154.756V26.7511ZM163.079 33.5386C163.079 32.0833 162.669 30.9464 161.851 30.1278C161.055 29.2864 160.066 28.8658 158.883 28.8658C157.724 28.8658 156.734 29.2864 155.916 30.129C155.12 30.9691 154.722 32.1174 154.722 33.5727C154.722 35.0279 155.12 36.1762 155.916 37.0176C156.734 37.8589 157.724 38.2808 158.883 38.2808C160.043 38.2808 161.032 37.8589 161.851 37.0176C162.669 36.1535 163.079 34.9938 163.079 33.5386ZM180.395 43.3616C178.531 43.3616 176.848 42.9637 175.347 42.1679C173.88 41.3824 172.663 40.2006 171.834 38.7571C170.993 37.2791 170.572 35.5509 170.572 33.5727C170.572 31.6171 171.004 29.9004 171.868 28.4224C172.695 26.9574 173.927 25.7614 175.415 24.9775C176.916 24.1816 178.599 23.7837 180.463 23.7837C182.328 23.7837 184.011 24.1816 185.511 24.9775C187 25.7614 188.231 26.9574 189.059 28.4224C189.923 29.9004 190.355 31.6184 190.355 33.5727C190.355 35.5282 189.911 37.2563 189.025 38.7571C188.183 40.214 186.939 41.398 185.443 42.1679C183.942 42.9637 182.26 43.3616 180.395 43.3616ZM180.395 38.3137C181.509 38.3137 182.453 37.9044 183.226 37.0858C184.022 36.2672 184.42 35.0962 184.42 33.5739C184.42 32.0492 184.033 30.8781 183.26 30.0595C182.911 29.6644 182.48 29.35 181.997 29.138C181.514 28.926 180.991 28.8214 180.463 28.8317C179.327 28.8317 178.383 29.241 177.633 30.0595C176.882 30.8554 176.507 32.0264 176.507 33.5727C176.507 35.0961 176.871 36.2672 177.598 37.0858C177.948 37.4809 178.379 37.7953 178.862 38.0073C179.345 38.2194 179.868 38.3239 180.395 38.3137ZM204.364 43.09L200.715 37.802L197.645 43.0888H191.335L197.611 33.368L191.165 24.0578H197.713L201.363 29.3079L204.433 24.0553H210.742L204.364 33.6396L210.913 43.0888L204.364 43.09Z" fill="#2C2C2C"/>
</g>
</g>
</g>
</g>
<defs>
<clipPath id="clip0_134_2451">
<rect width="210.964" height="60.6364" fill="white" transform="translate(0.3125 0.25293)"/>
</clipPath>
<clipPath id="clip1_134_2451">
<rect width="210.964" height="60.6364" fill="white" transform="translate(0.3125 0.25293)"/>
</clipPath>
<clipPath id="clip2_134_2451">
<rect width="210.964" height="60.6364" fill="white" transform="translate(0.3125 0.25293)"/>
</clipPath>
</defs>
</svg>
