<?xml version="1.0" encoding="UTF-8"?><svg id="Artwork" xmlns="http://www.w3.org/2000/svg" viewBox="0 0 214 214"><defs><style>.cls-1{stroke-width:0px;}</style></defs><path class="cls-1" d="m170.79,7.99l-.09-.05s.09.04.13.07l-6.84-3.72c-2.11-1.15-4.61-1.63-7.29-1.26l-108.16,15.2c-8.69,1.22-15.77,9.85-15.79,19.22l-.28,153.24c0,5.24,2.53,9.49,6.35,11.57l6.58,3.58s0,0,0,0c.08.04.15.08.23.12l.03.02s0,0,0,0c0,0,0,0,0,0,2.11,1.14,4.6,1.63,7.28,1.25l110.26-15.49c7.53-1.06,13.67-8.54,13.69-16.66l.29-155.5c.01-5.26-2.55-9.51-6.39-11.59ZM39.6,197.44s0,0,0,0c0,.01,0,.03,0,.04,0-.02,0-.03,0-.05Zm5.61,8.28s.02.02.04.02c.01.01.02.02.04.02-.03-.01-.05-.03-.08-.04Zm123.18-29.45c-.01,3.07-2.33,5.9-5.19,6.3l-110.25,15.5c-.23.03-.45.05-.67.05-.38,0-.75-.05-1.1-.14h-.01c-.14-.04-.27-.08-.4-.13h-.01s-.09-.03-.13-.06c-.03-.01-.06-.02-.09-.04-.12-.04-.23-.1-.34-.16-.18-.1-.35-.21-.52-.33-.14-.11-.27-.22-.4-.34-.18-.16-.34-.34-.48-.53-.11-.15-.21-.3-.31-.46-.07-.12-.13-.24-.19-.36,0-.01,0-.01,0-.03h0s-.01-.01-.01-.01c-.05-.11-.1-.23-.14-.35-.06-.15-.11-.3-.15-.46-.04-.14-.07-.28-.1-.43-.01-.06-.02-.12-.03-.19-.02-.1-.03-.2-.04-.31-.02-.19-.03-.38-.03-.57l.29-153.24c0-4.32,3.27-8.3,7.28-8.86l106.41-14.96,1.74-.24c.46-.07.9-.06,1.32,0,.16.02.31.05.45.09.15.03.29.08.43.14.05.01.1.03.15.05.09.03.17.07.25.11s.16.08.23.13c.13.07.26.15.38.24.09.06.17.12.25.19.06.05.11.09.16.14.09.08.17.16.25.25.15.16.29.33.4.51.07.09.14.19.2.29.06.12.13.24.19.36.06.13.11.26.16.39.06.15.11.3.15.46.04.14.07.28.1.43.01.03.01.07.02.1.02.13.04.26.05.4.02.19.03.38.03.57l-.29,155.5Z"/><path class="cls-1" d="m141.12,158.77l-62.91,8.84c-2.3.32-4.17,2.6-4.17,5.08,0,2.48,1.86,4.22,4.16,3.9l62.91-8.84c2.3-.32,4.17-2.59,4.17-5.07,0-2.48-1.86-4.23-4.16-3.91Z"/><path class="cls-1" d="m149.28,134.48l-79.22,11.13c-2.3.32-4.17,2.6-4.17,5.08,0,2.47,1.86,4.22,4.16,3.9l79.22-11.13c2.3-.32,4.16-2.6,4.17-5.07,0-2.48-1.85-4.23-4.15-3.91Z"/><path class="cls-1" d="m78.2,128.36l62.91-8.84c2.3-.32,4.16-2.59,4.17-5.07,0-2.48-1.85-4.23-4.15-3.91l-62.91,8.84c-2.3.32-4.16,2.6-4.17,5.08,0,2.48,1.85,4.23,4.15,3.9Z"/><path class="cls-1" d="m88.04,61.25l43.22-6.07c2.3-.32,4.17-2.59,4.17-5.07,0-2.48-1.86-4.23-4.16-3.91l-43.22,6.07c-2.3.32-4.17,2.6-4.17,5.08,0,2.48,1.86,4.22,4.16,3.9Z"/><path class="cls-1" d="m149.28,84.3l-79.22,11.13c-2.3.32-4.17,2.6-4.17,5.08,0,2.48,1.86,4.22,4.16,3.9l79.22-11.13c2.3-.32,4.16-2.59,4.17-5.07,0-2.48-1.85-4.23-4.15-3.91Z"/></svg>