<svg id="Layer_1" style="enable-background:new 0 0 362 131;" version="1.1" viewBox="0 0 362 131" x="0px" xml:space="preserve" xmlns="http://www.w3.org/2000/svg" xmlns:xlink="http://www.w3.org/1999/xlink" y="0px">
<style type="text/css">
	.st0{enable-background:new    ;}
	.st1{fill:#162B4D;}
	.st2{fill-rule:evenodd;clip-rule:evenodd;fill:#162B4D;}
</style>
<title>neptune-ai-blue-horizontal</title>
<desc>Created with Sketch.</desc>
<g id="neptune-ai-blue-horizontal">
<g id="Group-Copy-2" transform="translate(36.000000, 34.000000)">
<g class="st0">
<path class="st1" d="M120.8,40.9c0,0.5-0.7,1.1-1.5,1.1c-0.9,0-1.5-0.5-1.5-1.1V26c0-0.6,0.6-1,1.5-1c0.7,0,1.4,0.4,1.4,1v1.5
				c0.7-1.4,2.4-2.7,4.8-2.7c3.4,0,6.3,3.1,6.3,6.9V41c0,0.7-0.8,1.1-1.5,1.1s-1.5-0.4-1.5-1.1v-9.3c0-2.1-1.9-4.2-4.1-4.2
				c-1.9,0-3.9,1.6-3.9,4.2V40.9z"></path>
<path class="st1" d="M150.3,31.3c0,2.9-1.6,3-3.2,3h-7.9v1.1c0,2.7,2.1,4.4,5.1,4.4c2.7,0,3.5-1.4,4.4-1.4c0.7,0,1.2,0.8,1.2,1.4
				c0,0.9-2.2,2.6-5.7,2.6c-4.7,0-8-2.8-8-7v-3.8c0-3.7,3.2-6.8,7.2-6.8C147.1,24.7,150.3,27.5,150.3,31.3z M145.9,32.3
				c1.3,0,1.6-0.2,1.6-1.2c0-2.1-1.7-4.1-4.1-4.1c-2.3,0-4.1,1.7-4.1,3.9v1.3h6.6V32.3z"></path>
<path class="st1" d="M157.5,26v1.5c0.8-1.4,2.5-2.7,4.8-2.7c3.6,0,6.5,3.1,6.5,6.9v3.7c0,3.6-3,7-6.3,7c-2.2,0-4.1-1.3-4.8-2.8
				v9.7c0,0.5-0.7,1.1-1.5,1.1c-0.9,0-1.5-0.5-1.5-1.1V26c0-0.6,0.6-1,1.4-1C156.9,24.9,157.5,25.4,157.5,26z M165.8,31.6
				c0-2.1-1.9-4.2-4.2-4.2c-2,0-4,1.6-4,4.2v4.6c0,1,1.7,3.3,4.1,3.3c2.2,0,4.1-2.1,4.1-4.3L165.8,31.6L165.8,31.6z"></path>
<path class="st1" d="M176.3,36.6c0,2.1,0.8,2.8,3,2.8h1.1c0.8,0,1.3,0.6,1.3,1.3s-0.5,1.3-1.3,1.3h-1.1c-3.9,0-6-1.7-6-5.4V18
				c0-0.6,0.8-1,1.5-1c0.8,0,1.5,0.4,1.5,1v6.9h4.5c0.5,0,0.9,0.6,0.9,1.2s-0.4,1.2-0.9,1.2h-4.5V36.6z"></path>
<path class="st1" d="M185.4,35.4V26c0-0.5,0.6-1.1,1.5-1.1c0.8,0,1.5,0.5,1.5,1.1v9.4c0,2.1,1.8,4.2,4.1,4.2s4.1-2.1,4.1-4.2V26
				c0-0.5,0.7-1,1.5-1c0.9,0,1.5,0.5,1.5,1v9.4c0,3.7-3.2,6.9-7.1,6.9C188.6,42.3,185.4,39,185.4,35.4z"></path>
<path class="st1" d="M207.8,40.9c0,0.5-0.7,1.1-1.5,1.1c-0.9,0-1.5-0.5-1.5-1.1V26c0-0.6,0.6-1,1.5-1c0.7,0,1.4,0.4,1.4,1v1.5
				c0.7-1.4,2.4-2.7,4.8-2.7c3.4,0,6.3,3.1,6.3,6.9V41c0,0.7-0.8,1.1-1.5,1.1s-1.5-0.4-1.5-1.1v-9.3c0-2.1-1.9-4.2-4.1-4.2
				c-1.9,0-3.9,1.6-3.9,4.2V40.9z"></path>
<path class="st1" d="M237.3,31.3c0,2.9-1.6,3-3.2,3h-7.9v1.1c0,2.7,2.1,4.4,5.1,4.4c2.7,0,3.5-1.4,4.4-1.4c0.7,0,1.2,0.8,1.2,1.4
				c0,0.9-2.2,2.6-5.7,2.6c-4.7,0-8-2.8-8-7v-3.8c0-3.7,3.2-6.8,7.2-6.8C234.1,24.7,237.3,27.5,237.3,31.3z M232.9,32.3
				c1.3,0,1.6-0.2,1.6-1.2c0-2.1-1.7-4.1-4.1-4.1c-2.3,0-4.1,1.7-4.1,3.9v1.3h6.6V32.3z"></path>
<path class="st1" d="M244.6,40.3c0,1-0.8,1.9-1.8,1.9c-1.1,0-1.9-0.9-1.9-1.9s0.8-1.9,1.9-1.9C243.7,38.4,244.6,39.3,244.6,40.3z
				"></path>
<path class="st1" d="M261,31.7v9.2c0,0.6-0.6,1.1-1.5,1.1c-0.8,0-1.4-0.5-1.4-1.1v-1.4c-1.3,1.4-3,2.8-5.4,2.8
				c-2.7,0-4.9-1.5-4.9-4.8c0-4,3.4-5,8.4-5h1.7v-0.8c0-2.1-1.1-4.5-4-4.5c-2.5,0-3.3,1-3.9,1c-0.7,0-1.1-0.9-1.1-1.5
				c0-1.1,2.7-2.1,5.1-2.1C259.2,24.7,261,28.1,261,31.7z M258,34.3h-1.3c-3.1,0-5.9,0.3-5.9,2.8c0,1.9,1.2,2.7,2.8,2.7
				c2.1,0,4.4-2,4.4-3.7L258,34.3L258,34.3z"></path>
<path class="st1" d="M269.4,18.5c0,0.9-0.8,1.7-1.8,1.7s-1.9-0.8-1.9-1.7c0-0.9,0.8-1.7,1.9-1.7
				C268.6,16.8,269.4,17.6,269.4,18.5z M269.1,26v14.9c0,0.5-0.7,1.1-1.5,1.1s-1.5-0.5-1.5-1.1V26c0-0.6,0.6-1,1.5-1
				S269.1,25.4,269.1,26z"></path>
</g>
<g id="Group-29-Copy-20">
<path class="st2" d="M85.3,51.6c1.7-4,2.6-8.8,3.4-13.4c0.2-1.3,0.5-2.6,0.7-3.8c0.4-2.1,0.6-3.5,0.5-5
				s-1.4-3.2-3.2-3.2c-2.3-0.1-3.5,1-4,3.3l-0.8,4.1c-0.6,3.2-1.2,6.3-1.8,9.5c0,0.1,0,0.3-0.1,0.5c-0.4,2.3-0.7,3.6-1.3,4.3
				c-0.1,0.1-0.9,1-2.1,0.8c-0.6-0.1-1.4-0.5-2-1.9c-0.1-1-0.4-2.8-0.6-3.8c-0.5-2.5-1-5.1-1.5-7.6c-1.1-5.5-2.2-11.1-3.5-16.7
				c-1-4.3-2.4-8.8-4.1-13.2C63.4,1.6,61.3,0,58.1,0c-3.9,0-5.8,2.5-7.4,5.5c-2.2,4.3-3.4,9.2-4.5,14.7c-1,4.6-1.9,9.4-2.8,13.9
				c-0.5,2.4-0.9,4.7-1.4,7.1c0,0.2-1.1,5-1.2,5.4c-0.5,1.3-1.3,2-2.2,2c-1.4,0-2.1-1.7-2.2-2.2c0-0.1-0.4-1.4-0.5-1.6
				c-0.2-0.6-0.4-1.2-0.5-1.8c-0.5-2.6-1-5.2-1.6-7.8c-1.1-5.5-2.2-11.2-3.5-16.7c-1-4.4-2.4-8.7-4.1-13.1c-1.4-3.5-4-4.8-6.3-4.9
				c0,0-5.2-0.2-7.6,5l0,0c-2,4.1-3.5,8.8-4.8,14.8c-0.8,3.7-1.3,6.4-1.5,9c-0.1,1.6,0.9,3.2,2.3,3.7c1.1,0.4,2.2,0.3,3.1-0.2
				c0.8-0.5,1.4-1.4,1.7-2.5c0.6-2.8,1.1-5.7,1.6-8.4c0.3-1.4,1.8-8.8,2.1-9.7s0.9-3,2.4-3c0,0,0,0,0.1,0c1.4,0.1,2,1.9,2.4,3.6
				c0.2,0.8,0.6,2.8,0.9,4.6c0.2,0.9,0.4,1.8,0.5,2.4c0.6,2.8,1.1,5.6,1.7,8.3c0.3,1.6,0.7,3.1,1,4.7c1.1,5,2.2,10.2,3.5,15.2
				c0.8,2.9,2.2,5.5,3.2,7.1c1.2,2,3.2,3.1,5.3,3.2c3.5,0.1,6.6-2.4,8.2-6.5c2.2-5.6,3.4-11.7,4.6-17.7c0,0,2.9-14.9,3.5-17.6
				c0.1-0.7,1-4.3,1.2-4.9C56.1,9.2,57.2,9,57.7,9h0.1c1.5,0,2.5,2.2,3.8,8.8l0.1,0.4c0.7,3.1,1.3,6.3,1.9,9.4
				c1.1,5.4,2.2,10.9,3.4,16.3c1,4.7,2.3,7.9,4.2,10.6c2.6,3.7,6.2,4.4,10,2.1C82.9,55.6,84.4,53.7,85.3,51.6" id="Fill-11"></path>
<path class="st2" d="M4.5,48.8L4.5,48.8C2,48.9,0,50.9,0,53.4c0,1.2,0.5,2.3,1.4,3.2s2,1.4,3.2,1.4
				c1.1,0,2.3-0.6,3.1-1.5s1.3-2,1.3-3.1C9,50.9,6.9,48.8,4.5,48.8" id="Fill-13"></path>
</g>
</g>
</g>
</svg>