<svg width="194" height="65" viewBox="0 0 194 65" fill="none" xmlns="http://www.w3.org/2000/svg">
<path d="M48.2251 32.1553C50.8779 32.3211 53.5307 32.4869 56.2638 32.6577C56.4296 33.3209 56.5954 33.9841 56.7662 34.6674C59.2532 34.8332 61.7402 34.999 64.3026 35.1698C64.9213 37.0258 64.6263 38.2876 64.3026 40.194C62.3332 40.8505 61.3463 40.4135 59.351 39.8663C59.0186 39.7763 58.6861 39.6864 58.3436 39.5938C57.2829 39.3058 56.2239 39.0121 55.1648 38.7182C54.4456 38.5218 53.7263 38.3259 53.0069 38.1304C51.2443 37.6504 49.4831 37.1651 47.7227 36.6771C47.8885 35.1849 48.0543 33.6927 48.2251 32.1553Z" fill="#808080"/>
<path d="M14.0609 5.52637C15.8396 6.11928 16.0621 6.55317 17.0735 8.07773C17.3542 8.49546 17.635 8.9132 17.9242 9.3436C18.2141 9.78335 18.5039 10.2231 18.8025 10.6762C19.3766 11.5377 19.9517 12.3987 20.5276 13.259C20.797 13.6641 21.0663 14.0692 21.3438 14.4866C22.1398 15.6695 22.1398 15.6695 23.342 17.0428C23.5952 17.3874 23.8484 17.7319 24.1093 18.0869C23.5507 19.7627 22.8663 20.4167 21.5972 21.6039C19.9297 20.8715 18.7582 19.9484 17.4522 18.6835C17.0973 18.3487 16.7424 18.0139 16.3767 17.6689C15.5682 16.5796 15.5682 16.5796 15.6074 15.355C15.6975 13.9472 15.6975 13.9472 14.4691 12.7585C14.0028 12.3304 13.5365 11.9023 13.0561 11.4612C12.2035 10.6714 11.3621 9.86878 10.5439 9.04332C10.5439 8.71172 10.5439 8.38012 10.5439 8.03848C11.2603 7.37316 11.2603 7.37316 12.2082 6.68822C12.5171 6.4583 12.8261 6.22838 13.1444 5.9915C13.4468 5.83801 13.7493 5.68451 14.0609 5.52637Z" fill="#808080"/>
<path d="M51.7423 6.0293C53.7954 7.27904 54.6597 7.84487 55.7616 10.0487C52.1141 13.6963 48.4665 17.3438 44.7084 21.102C42.6987 20.0971 42.6987 20.0971 41.1914 19.0923C41.515 17.2657 42.2899 16.0021 43.3267 14.4763C43.6194 14.0339 43.9122 13.5916 44.2138 13.1358C45.2108 12.0584 45.2108 12.0584 46.4492 11.8307C48.3417 11.4224 48.8269 10.3283 49.8896 8.76122C50.24 8.25281 50.5903 7.7444 50.9513 7.22059C51.2123 6.82746 51.4734 6.43434 51.7423 6.0293Z" fill="#808080"/>
<path d="M64.3026 24.6187C65.1101 26.2338 64.8339 27.8524 64.805 29.6429C62.8477 29.8593 60.8902 30.0739 58.9326 30.2869C57.9412 30.3951 56.9499 30.5048 55.9586 30.6144C55.332 30.6824 54.7054 30.7504 54.0598 30.8205C53.4836 30.8836 52.9074 30.9468 52.3138 31.0118C50.9389 31.1325 49.6038 31.1773 48.2251 31.1502C48.0593 29.658 47.8935 28.1658 47.7227 26.6284C48.5902 26.3731 49.4593 26.1229 50.329 25.8748C50.8128 25.7349 51.2966 25.595 51.795 25.4508C53.1757 25.1378 54.3526 25.0593 55.7614 25.1211C55.7614 25.4527 55.7614 25.7843 55.7614 26.126C56.1675 26.0172 56.5736 25.9084 56.9919 25.7963C57.7973 25.5864 57.7973 25.5864 58.6189 25.3723C59.1494 25.2325 59.6798 25.0926 60.2263 24.9484C61.6455 24.6493 62.8598 24.5545 64.3026 24.6187Z" fill="#808080"/>
<path d="M59.2787 14.0684C60.75 15.5396 61.4253 16.7302 62.2933 18.5902C61.7829 18.8453 61.2726 19.1005 60.7468 19.3634C60.4146 19.5295 60.0825 19.6957 59.7403 19.8668C59.0105 20.2316 58.2805 20.596 57.5503 20.96C55.8392 21.8136 54.1303 22.6703 52.4313 23.5476C51.9035 23.8184 51.3756 24.0891 50.8318 24.368C50.1275 24.7333 50.1275 24.7333 49.4089 25.1059C48.2255 25.6241 48.2255 25.6241 46.7182 25.6241C46.2208 24.4635 45.7234 23.3029 45.2109 22.1071C46.003 21.4435 46.7993 20.7851 47.5974 20.1288C48.0404 19.7616 48.4834 19.3944 48.9398 19.016C50.1162 18.173 50.8364 17.7926 52.2448 17.5853C52.2448 17.9169 52.2448 18.2485 52.2448 18.5902C54.566 17.098 56.8872 15.6058 59.2787 14.0684Z" fill="#808080"/>
<path d="M25.1141 0.50293C25.6909 2.71119 26.2662 4.91987 26.8411 7.12862C27.0047 7.75458 27.1682 8.38053 27.3367 9.02546C27.4937 9.62939 27.6508 10.2333 27.8126 10.8556C27.9573 11.4107 28.102 11.9659 28.2511 12.5379C28.5845 13.8809 28.8757 15.2212 29.1334 16.5804C26.2445 18.0877 26.2445 18.0877 25.1141 18.0877C21.9437 12.4913 21.9437 12.4913 22.602 8.54168C22.0497 7.17171 21.388 5.92279 20.657 4.64006C20.0898 3.51746 20.0898 3.51746 20.0898 2.0102C20.738 1.75696 21.3872 1.50622 22.0367 1.25656C22.5788 1.04672 22.5788 1.04672 23.1319 0.832644C24.1092 0.50293 24.1092 0.50293 25.1141 0.50293Z" fill="#808080"/>
<path d="M21.0943 42.7061C22.6016 43.6167 22.6016 43.6167 24.1088 44.7157C24.1088 46.6242 23.4998 47.4617 22.5074 49.0805C22.2101 49.5799 21.9128 50.0792 21.6065 50.5937C21.2717 50.9752 20.9369 51.3566 20.5919 51.7496C20.1826 51.7425 19.7732 51.7354 19.3515 51.7281C18.9318 51.7352 18.5122 51.7423 18.0798 51.7496C16.8912 53.0748 16.8912 53.0748 15.9131 54.7642C15.5627 55.3238 15.2123 55.8833 14.8513 56.4599C14.5903 56.8951 14.3293 57.3303 14.0604 57.7787C12.586 57.0663 11.3306 56.2798 10.041 55.2666C10.2982 53.1669 11.4285 52.1983 12.9005 50.7527C13.2507 50.4056 13.2507 50.4056 13.608 50.0516C14.352 49.3161 15.101 48.586 15.8503 47.8559C16.3566 47.3571 16.8627 46.8579 17.3683 46.3584C18.6064 45.1369 19.8491 43.9203 21.0943 42.7061Z" fill="#808080"/>
<path d="M18.5824 38.1846C19.2456 39.3452 19.9088 40.5058 20.5921 41.7015C19.6463 42.4754 18.6939 43.237 17.7346 43.9938C17.4681 44.2137 17.2016 44.4336 16.927 44.6601C16.1272 45.2832 16.1272 45.2832 14.563 46.2233C13.7233 46.0683 12.8857 45.9011 12.0509 45.7209C10.5814 46.5351 10.5814 46.5351 9.19341 47.6992C6.60617 49.7403 6.60617 49.7403 5.51945 49.7403C3.90032 47.1398 3.90032 47.1398 3.50977 46.2233C4.01219 44.7161 4.01219 44.7161 5.29854 43.9454C5.85783 43.6796 6.41712 43.4139 6.99335 43.1401C7.29136 42.9973 7.58936 42.8544 7.8964 42.7072C8.52667 42.4063 9.15812 42.1079 9.79065 41.8118C10.7604 41.3576 11.7262 40.8959 12.6917 40.4327C17.4194 38.1846 17.4194 38.1846 18.5824 38.1846Z" fill="#808080"/>
<path d="M6.02238 13.0635C8.60052 13.8905 10.6066 15.4498 12.7737 17.02C13.5159 17.5529 14.2584 18.0854 15.0012 18.6176C15.3528 18.87 15.7044 19.1224 16.0666 19.3825C17.3897 20.3198 18.7346 21.2177 20.0902 22.1071C19.857 22.6822 19.857 22.6822 19.6192 23.2689C19.2467 24.2112 18.9033 25.1652 18.5829 26.1264C15.9721 25.3231 13.5255 24.2467 11.0466 23.1119C11.0466 22.4487 11.0466 21.7855 11.0466 21.1022C8.72541 19.9416 6.40422 18.781 4.0127 17.5853C4.67589 16.0931 5.33909 14.6009 6.02238 13.0635Z" fill="#808080"/>
<path d="M47.2202 37.6816C49.7071 38.6764 52.1941 39.6712 54.7565 40.6962C54.7565 41.3594 54.7565 42.0226 54.7565 42.7059C57.9896 44.4468 57.9896 44.4468 61.288 46.2228C60.1575 49.6142 60.1575 49.6142 58.7759 50.7446C54.341 47.8368 50.012 44.8045 45.7129 41.701C45.9878 40.0055 46.2429 39.1475 47.2202 37.6816Z" fill="#808080"/>
<path d="M44.2064 42.2031C46.3038 43.962 48.3839 45.7098 50.2355 47.7298C50.2355 48.0614 50.2355 48.393 50.2355 48.7346C49.9039 48.7346 49.5723 48.7346 49.2307 48.7346C51.9007 51.8358 51.9007 51.8358 54.7573 54.7637C54.0573 56.4554 53.2606 57.2687 51.7428 58.2806C50.1013 57.5876 49.2941 56.8773 48.2886 55.4152C48.0322 55.0467 47.7757 54.6782 47.5114 54.2985C47.2498 53.9132 46.9881 53.5278 46.7186 53.1308C46.4569 52.7532 46.1953 52.3756 45.9257 51.9866C44.4925 49.9129 43.0864 47.8216 41.6943 45.7201C42.3487 44.2603 43.0553 43.3038 44.2064 42.2031Z" fill="#808080"/>
<path d="M41.6936 1.00488C43.568 1.37976 44.9966 1.77446 46.7179 2.51215C46.0659 4.56386 45.3092 6.50522 44.4059 8.45878C44.0368 9.26025 44.0368 9.26025 43.6601 10.0779C43.405 10.6278 43.1498 11.1776 42.8869 11.7442C42.6278 12.3057 42.3688 12.8672 42.1019 13.4457C41.4648 14.8261 40.8262 16.2057 40.1864 17.5848C37.2974 17.1452 37.2974 17.1452 36.167 16.58C36.3637 13.588 36.8559 11.2401 38.1767 8.54121C38.6741 8.70701 39.1715 8.87281 39.6839 9.04363C40.3471 6.39084 41.0103 3.73806 41.6936 1.00488Z" fill="#808080"/>
<path d="M17.075 33.1599C17.3237 35.1495 17.3237 35.1495 17.5775 37.1793C16.5221 37.5301 15.4644 37.8743 14.4059 38.2156C13.8172 38.4079 13.2285 38.6003 12.6219 38.7985C11.046 39.189 11.046 39.189 9.53871 38.6866C9.53871 38.355 9.53871 38.0234 9.53871 37.6817C9.1268 37.7905 8.7149 37.8994 8.29051 38.0115C7.74907 38.1513 7.20763 38.2912 6.64979 38.4354C6.11353 38.5753 5.57727 38.7152 5.02476 38.8593C3.50965 39.189 3.50965 39.189 1.49996 39.189C0.83864 37.3704 0.495117 36.1264 0.495117 34.1648C6.03941 33.5457 11.4888 32.9765 17.075 33.1599Z" fill="#808080"/>
<path d="M1.50047 23.1113C6.88918 24.3513 12.2442 25.6711 17.578 27.1307C17.4122 28.4571 17.2464 29.7835 17.0755 31.1501C14.4228 31.1501 11.77 31.1501 9.0368 31.1501C9.0368 30.4869 9.0368 29.8237 9.0368 29.1404C6.38401 28.9746 3.73122 28.8088 0.998047 28.638C0.998047 24.6814 0.998047 24.6814 1.50047 23.1113Z" fill="#808080"/>
<path d="M31.143 47.7305C32.4694 47.7305 33.7958 47.7305 35.1624 47.7305C35.3282 50.3833 35.494 53.036 35.6648 55.7692C35.1674 55.7692 34.67 55.7692 34.1575 55.7692C34.2398 56.1183 34.322 56.4674 34.4068 56.8271C34.6805 58.3995 34.7089 59.8579 34.6914 61.4529C34.6868 61.9898 34.6823 62.5267 34.6776 63.0798C34.6718 63.4859 34.666 63.892 34.66 64.3104C33.002 64.3104 31.344 64.3104 29.6357 64.3104C30.3754 49.2657 30.3754 49.2657 31.143 47.7305Z" fill="#808080"/>
<path d="M25.6164 46.2227C27.0719 46.4085 28.3175 46.5684 29.6357 47.2275C28.9725 49.8803 28.3094 52.5331 27.6261 55.2662C26.9629 55.1005 26.2997 54.9347 25.6164 54.7638C25.0722 57.4373 24.5347 60.107 24.1091 62.8026C22.6169 62.471 21.1247 62.1394 19.5873 61.7977C18.9918 59.4158 19.3158 58.9139 20.337 56.7519C20.6084 56.1713 20.8797 55.5907 21.1593 54.9925C21.4517 54.3824 21.7442 53.7724 22.0366 53.1624C22.3256 52.5467 22.6141 51.9308 22.9021 51.3146C25.0206 46.8184 25.0206 46.8184 25.6164 46.2227Z" fill="#808080"/>
<path d="M40.6892 45.7207C41.194 46.7873 41.6959 47.8552 42.1965 48.9236C42.4763 49.5182 42.7561 50.1127 43.0443 50.7253C43.7038 52.2522 43.7038 52.2522 43.7038 53.257C43.3722 53.5886 43.0406 53.9202 42.6989 54.2619C42.8803 54.6375 43.0616 55.0132 43.2484 55.4002C43.4816 55.895 43.7147 56.3898 43.955 56.8996C44.1881 57.3892 44.4213 57.8788 44.6615 58.3833C45.211 59.7885 45.211 59.7885 45.211 61.7982C43.7188 62.2956 42.2266 62.793 40.6892 63.3055C40.1125 61.3492 39.5402 59.3918 38.972 57.433C38.7782 56.7675 38.5833 56.1024 38.3871 55.4376C38.1046 54.4794 37.8268 53.5199 37.5491 52.5603C37.3807 51.9841 37.2123 51.4079 37.0388 50.8142C36.7029 49.3788 36.5931 48.1905 36.6698 46.7255C39.5588 45.7207 39.5588 45.7207 40.6892 45.7207Z" fill="#808080"/>
<path d="M31.143 0C32.6352 0 34.1274 0 35.6648 0C35.826 5.40149 35.2179 10.7126 34.66 16.0775C32.4217 16.3262 32.4217 16.3262 30.1382 16.5799C29.9724 13.7613 29.8066 10.9427 29.6357 8.03875C30.1331 8.03875 30.6305 8.03875 31.143 8.03875C31.143 5.38596 31.143 2.73318 31.143 0Z" fill="#808080"/>
<path d="M105.407 23.0827C108.439 25.0279 110.542 28.1447 111.766 31.5317C112.031 33.2126 112.031 34.8883 112.033 36.5853C112.039 36.9344 112.045 37.2835 112.051 37.6431C112.063 41.8626 110.598 45.0176 107.919 48.2038C103.926 51.6237 99.8678 52.5314 94.6757 52.443C90.7592 51.9724 87.5035 50.1491 84.8078 47.2932C84.2826 46.6088 83.7788 45.9073 83.3006 45.1893C83.0836 44.8661 82.8666 44.5429 82.6431 44.21C80.5585 40.423 80.6307 35.3787 81.6226 31.2471C82.0844 30.0954 82.6094 29.1365 83.3006 28.1069C83.6493 27.5833 83.6493 27.5833 84.0051 27.0491C89.2833 20.1708 97.9589 19.3025 105.407 23.0827Z" fill="#808080"/>
<path d="M114.563 11.8623C116.553 11.8623 118.543 11.8623 120.593 11.8623C120.593 18.9917 120.593 26.121 120.593 33.4664C121.422 33.4664 122.251 33.4664 123.105 33.4664C123.242 33.1767 123.379 32.887 123.521 32.5884C124.107 31.4624 124.759 30.4635 125.491 29.4274C125.755 29.0531 126.02 28.6788 126.292 28.2931C126.566 27.9071 126.841 27.5211 127.124 27.1234C127.536 26.5385 127.536 26.5385 127.956 25.9419C130.006 23.0485 130.006 23.0485 131.143 21.9107C132.67 21.8126 132.67 21.8126 134.472 21.8479C135.368 21.8615 135.368 21.8615 136.281 21.8754C136.741 21.8871 137.201 21.8987 137.675 21.9107C136.145 24.7635 134.336 27.2513 132.337 29.7925C131.753 30.5364 131.171 31.2815 130.59 32.0279C130.334 32.3528 130.079 32.6777 129.815 33.0125C129.136 33.9656 128.622 34.919 128.129 35.9786C128.321 36.211 128.513 36.4434 128.711 36.6829C134.922 44.2042 134.922 44.2042 137.518 47.4087C137.81 47.7687 138.102 48.1288 138.403 48.4999C139.254 49.6407 139.977 50.8247 140.689 52.0561C134.121 52.6647 134.121 52.6647 132.011 51.3378C131.112 50.2866 130.379 49.2031 129.636 48.0367C128.953 47.1721 128.262 46.3139 127.564 45.4618C127.231 45.0408 126.898 44.6198 126.555 44.1861C125.759 43.1899 124.943 42.2191 124.109 41.254C123.105 39.9979 123.105 39.9979 123.105 38.9931C122.276 38.9931 121.447 38.9931 120.593 38.9931C120.593 43.3039 120.593 47.6146 120.593 52.0561C118.603 52.0561 116.613 52.0561 114.563 52.0561C114.563 38.7921 114.563 25.5282 114.563 11.8623Z" fill="#808080"/>
<path d="M143.317 12.0732C145.306 12.0732 147.296 12.0732 149.346 12.0732C149.346 15.3892 149.346 18.7052 149.346 22.1217C151.833 22.1217 154.32 22.1217 156.882 22.1217C156.882 23.9455 156.882 25.7693 156.882 27.6483C154.395 27.6483 151.908 27.6483 149.346 27.6483C149.512 33.7829 149.677 39.9175 149.848 46.2379C153.33 46.4866 153.33 46.4866 156.882 46.7403C156.882 48.5641 156.882 50.3879 156.882 52.267C155.353 52.3215 153.827 52.3612 152.298 52.3926C151.868 52.4094 151.437 52.4263 150.994 52.4436C148.193 52.4867 146.48 52.2337 144.322 50.2573C143.26 48.2124 143.195 46.4688 143.203 44.1854C143.203 43.8371 143.202 43.4888 143.202 43.13C143.203 41.9855 143.211 40.8411 143.219 39.6966C143.221 38.9004 143.222 38.1043 143.223 37.3081C143.227 35.2175 143.237 33.1271 143.248 31.0365C143.258 28.9013 143.263 26.7661 143.268 24.6308C143.278 20.4449 143.296 16.2591 143.317 12.0732Z" fill="#808080"/>
<path d="M180.826 22.5206C182.069 23.2146 182.996 23.991 183.876 25.1112C184.042 23.9506 184.208 22.79 184.378 21.5942C186.202 21.5942 188.026 21.5942 189.905 21.5942C190.071 29.3868 190.237 37.1794 190.407 45.2081C191.402 45.5397 192.397 45.8713 193.422 46.2129C193.422 48.0367 193.422 49.8605 193.422 51.7396C187.854 51.9623 187.854 51.9623 185.886 50.2323C184.975 48.882 184.975 48.882 184.378 47.7202C184.016 48.1036 183.653 48.487 183.279 48.882C179.987 52.0281 177.028 52.4861 172.585 52.4461C168.908 52.0225 165.554 50.2758 163.025 47.5632C162.586 46.9601 162.167 46.342 161.769 45.7105C161.563 45.41 161.358 45.1095 161.145 44.7998C159.037 41.0784 159.194 36.2826 159.76 32.1451C160.345 30.2442 161.131 28.7412 162.272 27.1209C162.552 26.6649 162.831 26.209 163.12 25.7392C168.132 20.8623 174.44 19.6457 180.826 22.5206Z" fill="#808080"/>
<path d="M100.915 27.6497C103.24 28.8623 104.816 30.7093 105.608 33.203C106.23 36.3918 106.422 39.6914 104.693 42.5383C102.926 44.9176 101.216 46.0197 98.3101 46.7427C95.5972 47.056 93.6198 46.8027 91.3018 45.2478C88.6162 42.7152 87.3138 40.3031 87.1094 36.5899C87.185 33.7952 88.1074 31.5475 90.0484 29.5145C93.0566 26.9084 97.1182 26.4771 100.915 27.6497Z" fill="#FBFBFB"/>
<path d="M178.404 27.3102C181.047 28.5348 182.602 30.3875 184.036 32.8849C184.934 36.2378 184.785 39.3443 183.046 42.3817C181.648 44.2988 179.684 46.0093 177.403 46.7438C173.839 47.0346 171.334 46.4542 168.518 44.0966C166.102 41.2243 165.607 38.965 165.717 35.2693C166.052 32.3848 167.172 30.2602 169.331 28.3068C172.021 26.593 175.357 26.9169 178.404 27.3102Z" fill="#FBFBFB"/>
</svg>
