<?xml version="1.0" encoding="UTF-8"?><svg id="Layer_2" xmlns="http://www.w3.org/2000/svg" xmlns:xlink="http://www.w3.org/1999/xlink" viewBox="0 0 974.49 1325.34"><defs><style>.cls-1{clip-path:url(#clippath);}.cls-2{fill:none;}.cls-2,.cls-3,.cls-4,.cls-5,.cls-6{stroke-width:0px;}.cls-7{clip-path:url(#clippath-1);}.cls-8{clip-path:url(#clippath-4);}.cls-9{clip-path:url(#clippath-3);}.cls-10{clip-path:url(#clippath-2);}.cls-11{clip-path:url(#clippath-7);}.cls-12{clip-path:url(#clippath-8);}.cls-13{clip-path:url(#clippath-6);}.cls-14{clip-path:url(#clippath-5);}.cls-15{clip-path:url(#clippath-9);}.cls-16{clip-path:url(#clippath-10);}.cls-17{isolation:isolate;}.cls-4{fill:#f4934b;}.cls-5{fill:#c4c4c4;}.cls-6{fill:#e8e8e8;}</style><clipPath id="clippath"><polygon class="cls-2" points="435.45 384.35 435.53 356.51 882 614.28 881.92 642.12 435.45 384.35"/></clipPath><clipPath id="clippath-1"><polygon class="cls-2" points="104.86 769.36 105.38 587.15 359.84 734.07 359.33 916.28 104.86 769.36"/></clipPath><clipPath id="clippath-2"><polygon class="cls-2" points="133.55 465.64 133.84 364.75 207.59 407.33 207.3 508.22 133.55 465.64"/></clipPath><clipPath id="clippath-3"><polygon class="cls-2" points="117.31 536.14 117.57 444.73 223.83 506.08 223.57 597.49 117.31 536.14"/></clipPath><clipPath id="clippath-4"><polygon class="cls-2" points="245.19 447.5 245.24 433.19 379.62 510.78 379.58 525.09 245.19 447.5"/></clipPath><clipPath id="clippath-5"><polygon class="cls-2" points="245.21 483.86 245.26 469.56 352.84 531.67 352.8 545.98 245.21 483.86"/></clipPath><clipPath id="clippath-6"><polygon class="cls-2" points="244 559.29 244.04 544.98 310.61 583.42 310.57 597.72 244 559.29"/></clipPath><clipPath id="clippath-7"><polygon class="cls-2" points="116.73 719.22 116.92 652.64 180.92 689.59 180.73 756.17 116.73 719.22"/></clipPath><clipPath id="clippath-8"><polygon class="cls-2" points="143.16 724.09 143.27 684.89 151.38 689.58 151.26 728.77 143.16 724.09"/></clipPath><clipPath id="clippath-9"><polygon class="cls-2" points="192.89 768.57 193.1 696.07 342.12 782.11 341.91 854.61 192.89 768.57"/></clipPath><clipPath id="clippath-10"><polygon class="cls-2" points="209.36 767.79 209.49 722.92 327.6 791.11 327.47 835.98 209.36 767.79"/></clipPath></defs><g id="line"><g class="cls-17"><path class="cls-3" d="m24.25,752.35l79.53-46.22c-.14,48.4,34.01,107.57,76.15,131.9l-79.53,46.22c-42.14-24.33-76.29-83.5-76.15-131.9Z"/><polygon class="cls-3" points="26.04 123.23 105.57 77.01 103.79 706.13 24.25 752.35 26.04 123.23"/><path class="cls-3" d="m106.23,67.16c-.43,3.11-.65,6.39-.65,9.86l-15.25,8.85L26.03,123.23c0-.78,0-1.55.05-2.33,0-.25,0-.5.03-.75,0-.15.02-.28.02-.4v-.4c0-.13.03-.25.03-.38v-.03c.03-.73.1-1.43.15-2.13,0-.13.03-.25.03-.38,0-.08.03-.15.03-.23.03-.18.03-.33.05-.5.03-.1.03-.23.03-.33.03-.1.03-.2.05-.3v-.05c.05-.5.1-.98.18-1.45,0-.08.03-.13.03-.2.02-.13.02-.23.05-.35.02-.2.05-.4.07-.6.03-.07.03-.18.05-.25.03-.15.05-.3.08-.45.1-.73.23-1.45.38-2.16,0-.08,0-.13.02-.2.03-.15.05-.3.08-.43.03-.15.05-.28.1-.43.18-.85.38-1.71.58-2.53t.03-.05c.03-.1.05-.2.08-.3.15-.55.3-1.08.48-1.6v-.03c.03-.05.03-.13.05-.18.05-.13.1-.25.13-.38.03-.1.05-.18.08-.28,0-.02.03-.05.03-.07.03-.13.08-.25.13-.38.03-.13.08-.23.1-.33.03-.05.05-.13.08-.18.02-.15.07-.3.15-.48.03-.07.05-.15.08-.23.05-.08.08-.18.13-.28.03-.1.05-.2.1-.3.03-.08.05-.15.08-.2.02-.05.02-.1.05-.15,0-.05.02-.1.02-.13.03-.05.05-.1.08-.15.08-.2.15-.4.23-.58.25-.65.53-1.3.83-1.93.12-.28.25-.55.38-.83,0-.03.03-.03.03-.05.05-.13.13-.25.18-.38.08-.15.15-.28.23-.43,0-.03.03-.03.03-.05.03-.03.03-.05.03-.05,0-.05.03-.08.08-.13l.08-.15c.05-.1.1-.23.15-.33.03-.08.08-.13.1-.2.03-.03.05-.08.07-.1.03-.03.03-.08.05-.1.08-.13.15-.28.23-.4,0-.03,0-.05.03-.08s.03-.05.05-.08c.7-1.25,1.48-2.43,2.28-3.54.3-.43.6-.83.93-1.23.85-1.1,1.76-2.11,2.71-3.06.45-.43.88-.85,1.35-1.25.43-.4.88-.78,1.33-1.13.98-.78,2.01-1.5,3.08-2.16.1-.08.23-.13.35-.2.08-.07.18-.13.25-.18l43.08-25.03c1,.55,2.01,1.1,3.01,1.68l15.2,8.78Z"/><path class="cls-4" d="m115.03,72.23l-9.45,5.49-14.62,8.5c-.2-.13-.43-.25-.63-.35-.43-.25-.88-.5-1.33-.75-.63-.33-1.28-.68-1.93-1-.33-.18-.65-.33-.95-.48-.3-.15-.63-.33-.95-.48-.63-.3-1.25-.58-1.88-.85h-.03c-.5-.23-.98-.43-1.45-.63-.15-.07-.28-.13-.43-.18-.48-.2-.95-.38-1.43-.58-.15-.05-.33-.13-.5-.18-.58-.23-1.15-.43-1.76-.63h-.03c-.6-.2-1.2-.4-1.81-.58h-.03c-.5-.18-1.03-.3-1.53-.45-.1-.03-.18-.05-.28-.08-.58-.15-1.18-.3-1.76-.45-.38-.07-.78-.15-1.15-.23-.08-.03-.18-.03-.25-.05-.13-.03-.25-.05-.38-.08-.25-.05-.5-.1-.75-.15-.08,0-.13-.03-.18-.03s-.08-.03-.13-.03-.1-.03-.15-.03c-.6-.1-1.18-.18-1.76-.25-.18-.03-.35-.05-.53-.08-.33-.05-.65-.08-.98-.1-.68-.08-1.38-.13-2.03-.15-.68-.03-1.33-.05-1.96-.05h-.05c-.25,0-.5,0-.75.03-.53,0-1.03.03-1.53.05-.1,0-.18,0-.28.02-.1,0-.23,0-.33.03h-.08c-.33.03-.65.05-.95.08-.1.03-.2.03-.3.05-.4.03-.8.08-1.18.15-.13,0-.28.03-.4.05-.18.03-.33.05-.5.08-.1,0-.18.02-.28.05-.03,0-.03.03-.05.03-.05,0-.13,0-.18.03-.1,0-.18.03-.28.05h-.05c-.07.03-.15.03-.2.05-.18.03-.33.05-.5.1-.25.05-.5.1-.75.18-.08,0-.18.03-.25.05-.1.03-.2.05-.28.08-.33.1-.63.18-.95.28-.3.08-.63.18-.93.28l-.23.08c-.48.15-.93.33-1.38.5-.1.03-.2.08-.3.1-.1.05-.2.1-.3.13-.4.15-.78.33-1.15.5-.08.03-.15.07-.23.1l-.9.45c-.43.2-.83.43-1.23.65.18-.1.35-.2.53-.3l42.2-24.55c1,.55,2.01,1.1,3.01,1.68l15.2,8.78,8.8,5.07Z"/><polygon class="cls-3" points="100.41 884.26 179.94 838.04 871.83 1237.5 792.29 1283.72 100.41 884.26"/><path class="cls-3" d="m170.57,12.17l-33.05,19.21c-4.76.48-9.15,1.88-13.04,4.14l-36.46,21.19c-.15-.08-.3-.15-.45-.23-.78-.43-1.55-.83-2.33-1.2-.73-.38-1.43-.73-2.13-1.05-.98-.48-1.93-.93-2.91-1.35-.78-.33-1.55-.65-2.33-.95-.58-.25-1.18-.48-1.76-.68-.15-.08-.3-.13-.45-.18-.45-.2-.9-.35-1.35-.5-.07-.05-.18-.07-.25-.1-.18-.08-.38-.13-.55-.2-.78-.28-1.56-.53-2.31-.75-.58-.18-1.13-.35-1.68-.5-.73-.23-1.43-.43-2.16-.6-.63-.18-1.23-.33-1.86-.45-.58-.15-1.13-.28-1.68-.38-.05-.03-.13-.03-.18-.03-.53-.13-1.05-.23-1.58-.3-.6-.13-1.2-.23-1.78-.3-.55-.1-1.1-.18-1.66-.23-.35-.08-.73-.1-1.08-.13-3.18-.38-6.27-.45-9.25-.28-.5,0-1,.05-1.5.1-.43.03-.85.05-1.28.13-.55.02-1.08.1-1.6.2-.4.03-.8.1-1.2.18-.6.1-1.2.2-1.78.35-.23.03-.45.08-.68.15-.65.1-1.28.28-1.91.45-.83.2-1.66.45-2.46.73-.8.25-1.61.55-2.41.88t-.05.03c-.38.15-.78.3-1.15.5-.1.03-.18.05-.28.1-.38.15-.75.33-1.13.5-.38.18-.75.38-1.13.58-.5.25-1,.53-1.5.83-.15.05-.3.13-.45.23L107.3,6.02c16.2-9.4,38.59-8.12,63.27,6.14Z"/><path class="cls-3" d="m926.17,1242.77l-79.53,46.22c-13.9,8.08-33.14,6.96-54.34-5.28l79.53-46.22c21.2,12.24,40.44,13.36,54.34,5.28Z"/><path class="cls-4" d="m948.48,1193.81c-.05,12.76-2.46,23.55-6.8,32.02-3.81,7.5-9.1,13.19-15.52,16.93l-33.28,19.33v.03l-46.24,26.88c.25-.15.53-.3.78-.48.05-.02.08-.05.1-.07.13-.05.28-.15.4-.23.03-.03.03-.05.05-.05.4-.28.83-.55,1.23-.83.58-.38,1.15-.8,1.71-1.28.7-.53,1.38-1.1,2.06-1.73,2.01-1.81,3.84-3.86,5.47-6.17.45-.6.85-1.2,1.28-1.83.43-.65.83-1.33,1.23-2.03.8-1.35,1.53-2.76,2.18-4.26.18-.35.35-.75.5-1.13.18-.38.33-.78.48-1.15.28-.63.53-1.28.73-1.96.1-.2.18-.4.23-.63.03-.08.05-.18.08-.25.2-.53.38-1.08.55-1.65.03-.1.05-.18.08-.28.5-1.55.93-3.16,1.28-4.84.08-.25.13-.53.18-.8.1-.38.18-.75.23-1.15.05-.23.1-.43.12-.65.1-.4.18-.83.23-1.25.05-.23.08-.43.1-.65.1-.45.15-.93.23-1.4.13-.95.25-1.96.35-2.96.08-.65.13-1.3.18-1.96.02-.2.05-.4.05-.6.02-.28.05-.55.05-.83.05-.58.08-1.15.1-1.75.03-.1.03-.2.03-.3v-.33c.05-1.15.08-2.31.08-3.49l3.64-2.11,20.66-12.01,55.24-32.1Z"/><path class="cls-3" d="m943.31,1272.31l-79.53,46.22c18.08-10.51,29.3-32.82,29.39-64.5l79.53-46.22c-.09,31.68-11.31,54-29.39,64.5Z"/><path class="cls-4" d="m451.28,202.1c-16.4,9.53-36.56,21.24-55.32,32.15l-2.76,1.58-2.33,1.38c-6.7,3.89-13.17,7.65-19.13,11.11L105.52,94.62l-14.57-8.4,14.62-8.5,9.45-5.49,55.47-32.22,256.79,148.25,24,13.84Z"/><polygon class="cls-4" points="436.26 360.08 515.8 313.86 527.92 320.85 448.38 367.07 436.26 360.08"/><polygon class="cls-4" points="448.38 367.07 527.92 320.85 540.02 327.84 460.49 374.06 448.38 367.07"/><path class="cls-6" d="m170.5,40l-55.47,32.22-8.8-5.07-15.2-8.78c-1-.58-2.01-1.13-3.01-1.68l36.46-21.19c3.89-2.26,8.27-3.66,13.04-4.14,9.68-1.03,20.96,1.68,32.98,8.63Z"/><path class="cls-3" d="m451.36,174.27l-24.07,13.99-55.47,32.22L115.03,72.23l55.47-32.22c-12.01-6.95-23.3-9.65-32.98-8.63l33.05-19.21,280.79,162.1Z"/><path class="cls-4" d="m515.81,313.87l-25.53,14.85h-.03l-.03.03h-.03l-19.48,11.33s-.03,0-.03,0l-34.43,20.01c0-1.1-.03-2.23-.05-3.36,0-.1,0-.18-.03-.28v-.02c0-.23,0-.45-.03-.7-.03-.58-.05-1.15-.1-1.73-.05-.93-.13-1.86-.23-2.78,0-.15-.03-.3-.03-.45-.05-.53-.1-1.05-.18-1.6,0-.1-.03-.2-.05-.3,0-.25-.03-.5-.08-.75-.12-1.08-.28-2.16-.45-3.26-.03-.25-.08-.5-.13-.75-.03-.28-.07-.55-.12-.83-.05-.25-.08-.5-.13-.73-.05-.33-.13-.68-.2-1-.05-.38-.13-.73-.2-1.1,0-.03,0-.08-.03-.1,0-.08-.02-.15-.02-.23-.05-.28-.1-.53-.18-.8,0-.08-.03-.13-.03-.18-.1-.45-.2-.9-.3-1.33,0-.1-.03-.18-.05-.25-.1-.5-.2-1-.33-1.48-.1-.48-.23-.93-.35-1.38-.02-.15-.05-.3-.1-.45-.05-.2-.07-.4-.15-.6-.05-.28-.13-.58-.23-.88,0-.08-.03-.13-.05-.2-.15-.58-.33-1.18-.5-1.81-.1-.43-.23-.85-.35-1.28-.08-.23-.15-.48-.23-.73-.13-.48-.28-.95-.43-1.43-.08-.3-.18-.6-.3-.93-.13-.45-.28-.88-.43-1.33-.15-.45-.3-.9-.45-1.35-.3-.9-.63-1.81-.95-2.68-.13-.38-.25-.73-.4-1.1-.18-.53-.38-1.05-.6-1.58-.03-.1-.08-.23-.13-.33-.35-.95-.73-1.88-1.1-2.83-.1-.25-.2-.5-.33-.75-.35-.8-.68-1.6-1.03-2.38h.03c5.77-3.36,11.53-6.72,17.3-10.08,20.76-12.06,41.48-24.1,62.22-36.16,1.48,3.39,2.81,6.8,4.01,10.21.45,1.28.88,2.56,1.3,3.84,2.58,8.1,4.36,16.22,5.17,24.15.28,2.51.43,4.99.48,7.45.05.83.05,1.63.05,2.43Z"/><path class="cls-4" d="m442.58,301.96c-5.77,3.36-11.53,6.72-17.3,10.08h-.03c-.13-.28-.25-.58-.38-.85-.6-1.38-1.23-2.73-1.88-4.09-.8-1.63-1.6-3.26-2.46-4.86-.68-1.33-1.38-2.61-2.11-3.91-.18-.3-.35-.6-.5-.9-.1-.15-.18-.3-.28-.45-.2-.35-.4-.7-.6-1.05-.63-1.08-1.25-2.13-1.91-3.18-.38-.63-.75-1.23-1.15-1.83-.25-.4-.5-.8-.78-1.2-.33-.55-.68-1.05-1.03-1.58-.05-.07-.1-.15-.15-.23-.8-1.23-1.63-2.43-2.48-3.61-.08-.1-.13-.18-.2-.28-.15-.25-.33-.48-.53-.73-.15-.23-.33-.45-.5-.68-.08-.13-.18-.25-.28-.38-.68-1-1.43-1.98-2.18-2.93-1.1-1.43-2.21-2.83-3.36-4.21-.25-.33-.53-.63-.8-.95-.55-.65-1.1-1.3-1.65-1.93-.13-.15-.23-.28-.35-.4-.03-.03-.05-.05-.08-.08-.2-.23-.4-.45-.6-.68-.73-.8-1.45-1.6-2.18-2.38-.08-.08-.15-.13-.2-.2-.65-.7-1.33-1.4-2.01-2.08-.35-.38-.7-.73-1.08-1.08-.63-.63-1.25-1.23-1.88-1.83-.25-.25-.5-.48-.75-.73-.13-.13-.28-.25-.4-.38-.08-.08-.15-.13-.23-.2-.25-.23-.5-.45-.75-.68-.25-.23-.5-.45-.75-.68-.25-.25-.53-.48-.78-.7-.05-.05-.1-.1-.15-.13-.07-.08-.18-.15-.25-.23-.4-.35-.8-.7-1.2-1.03-1.68-1.43-3.41-2.81-5.14-4.11-.13-.1-.28-.2-.4-.28-.35-.28-.7-.53-1.03-.75-.08-.05-.18-.13-.25-.18-.3-.23-.58-.43-.88-.63-.25-.2-.53-.38-.78-.55-.75-.53-1.53-1.03-2.31-1.53-.18-.1-.35-.23-.53-.33-.03-.03-.08-.07-.13-.1s-.1-.08-.15-.08c-1.03-.65-2.06-1.28-3.08-1.88,5.97-3.46,12.44-7.22,19.13-11.11.78-.45,1.55-.9,2.36-1.35t.05.05c1.23,1.05,2.46,2.16,3.66,3.26.88.8,1.78,1.63,2.63,2.46.15.13.28.28.43.4.55.53,1.1,1.08,1.65,1.63.7.68,1.4,1.38,2.08,2.08.93.95,1.86,1.91,2.76,2.88.7.73,1.4,1.48,2.08,2.26,3.66,4.04,7.17,8.25,10.53,12.66.83,1.05,1.61,2.11,2.41,3.18.65.88,1.3,1.78,1.96,2.71.45.63.9,1.25,1.33,1.91.73,1.03,1.43,2.06,2.13,3.11.98,1.48,1.96,2.93,2.88,4.44.7,1.1,1.4,2.23,2.11,3.36.6,1,1.23,2.03,1.83,3.06.73,1.25,1.45,2.51,2.16,3.76.65,1.15,1.28,2.33,1.91,3.49,1.68,3.11,3.28,6.24,4.76,9.4Z"/><path class="cls-6" d="m504.8,265.8c-20.74,12.06-41.45,24.1-62.22,36.16-1.48-3.16-3.08-6.29-4.76-9.4-.6-1.18-1.25-2.33-1.91-3.49-.7-1.25-1.43-2.51-2.16-3.76-.6-1.03-1.2-2.03-1.83-3.06-.68-1.13-1.38-2.26-2.11-3.36-.93-1.5-1.91-2.98-2.88-4.44-.7-1.05-1.4-2.08-2.13-3.11-.43-.65-.88-1.28-1.33-1.91-.65-.93-1.3-1.81-1.96-2.71-.78-1.08-1.58-2.13-2.41-3.18-3.36-4.41-6.87-8.63-10.53-12.66-.68-.78-1.38-1.53-2.08-2.26-.9-.98-1.83-1.93-2.76-2.88-.68-.7-1.38-1.4-2.08-2.08-.55-.55-1.1-1.1-1.65-1.63-.15-.13-.28-.28-.43-.4-.88-.85-1.76-1.68-2.63-2.46-1.2-1.1-2.43-2.21-3.66-3.26t-.05-.05c.9-.55,1.81-1.08,2.73-1.61,18.76-10.91,38.92-22.62,55.32-32.15,22.27,12.86,41.93,37.24,53.51,63.7Z"/><path class="cls-3" d="m528.07,269.41l-17.96,10.43-30.12,17.5-.03.03-31.45,18.26c-1.81-4.59-3.79-9.15-5.94-13.67,20.76-12.06,41.48-24.1,62.22-36.16-11.59-26.46-31.25-50.83-53.51-63.7-16.4,9.53-36.56,21.24-55.32,32.15-.93.53-1.83,1.05-2.73,1.61l-.03-.03c-2.18-1.88-4.41-3.71-6.65-5.42-.8-.63-1.6-1.25-2.43-1.83-1.18-.88-2.36-1.71-3.54-2.53-.73-.53-1.48-1-2.21-1.48-1.15-.78-2.33-1.53-3.51-2.26-1.03-.63-2.03-1.23-3.06-1.83l55.47-32.22,24.07-13.99c31.7,18.31,59.53,53.54,75.21,91.4.53,1.25,1.03,2.48,1.5,3.74Z"/><path class="cls-3" d="m479.39,332.58l79.53-46.22c-11.63,6.76-18.85,21.11-18.91,41.48l-79.53,46.22c.06-20.37,7.28-34.72,18.91-41.48Z"/><path class="cls-4" d="m604.95,290.82l-55.47,32.25-24.05,13.99c-.23-.13-.43-.25-.65-.38-1.73-.98-3.44-1.88-5.14-2.68-1.28-.6-2.53-1.15-3.79-1.65-.63-.25-1.25-.5-1.86-.73-.98-.38-1.93-.7-2.88-1-.28-.07-.55-.15-.8-.25-1.23-.38-2.41-.68-3.61-.95-1.18-.28-2.36-.5-3.51-.68-3.01-.48-5.94-.63-8.73-.48-1.43.05-2.83.2-4.19.45-.5.05-.98.15-1.45.28-.6.1-1.2.25-1.81.43-.58.15-1.18.33-1.76.53s-1.15.4-1.71.63c-1.1.43-2.18.93-3.21,1.5-.05,0-.1.03-.15.08-.28.13-.55.28-.8.43l36.36-21.14,6.72-3.89,36.16-21.01.3-.18c3.89-2.26,8.27-3.69,13.06-4.16,9.65-1.03,20.94,1.71,32.95,8.63Z"/><path class="cls-3" d="m462.24,303.07l79.53-46.22c16.18-9.4,38.59-8.1,63.26,6.15l-79.53,46.22c-24.68-14.25-47.08-15.55-63.26-6.15Z"/><polygon class="cls-4" points="950.26 564.69 950.19 592.8 894.94 624.9 893.24 1225.91 872.57 1237.92 868.94 1240.03 868.94 1235.84 870.72 610.93 870.72 610.9 892.33 598.34 950.26 564.69"/><path class="cls-4" d="m827.69,486.67c-7.55,4.39-14.82,8.63-21.47,12.49h-.03l-280.76-162.1,24.05-13.99,256.81,148.25c7.37,4.26,14.54,9.43,21.39,15.35Z"/><polygon class="cls-6" points="950.19 592.8 948.48 1193.81 893.24 1225.91 894.94 624.9 950.19 592.8"/><polygon class="cls-3" points="974.49 578.68 972.71 1207.81 941.69 1225.84 903.72 1247.88 893.16 1254.02 893.19 1246.35 893.24 1225.91 948.48 1193.81 950.19 592.8 974.49 578.68"/><path class="cls-6" d="m931.38,501.09c-20.81,12.09-41.63,24.2-62.44,36.29-11.18-19.36-25.38-37.01-41.25-50.71-6.85-5.92-14.02-11.08-21.39-15.35l-256.81-148.25,55.47-32.25,256.79,148.28,24,13.84c17.83,10.28,33.95,27.94,45.64,48.15Z"/><polygon class="cls-3" points="885.81 425.11 861.74 439.1 604.95 290.82 549.48 323.07 540.68 317.98 525.51 309.23 548.88 295.64 572 282.2 605.03 262.99 885.81 425.11"/><path class="cls-4" d="m950.26,564.69l-57.93,33.68-21.62,12.56v-.03c.03-6.47-.68-13.19-2.03-19.99-.48-2.41-1.03-4.81-1.68-7.22-.53-2.03-1.1-4.09-1.76-6.14-.28-.93-.58-1.83-.9-2.76-.65-1.93-1.35-3.84-2.11-5.77-.7-1.86-1.45-3.71-2.26-5.57-.65-1.53-1.35-3.08-2.08-4.61-1.2-2.56-2.48-5.09-3.84-7.57-.13-.23-.25-.45-.35-.65-.6-1.1-1.23-2.21-1.86-3.31,5.69-3.31,11.38-6.62,17.08-9.93,20.81-12.09,41.63-24.2,62.44-36.29,11.71,20.26,18.93,43.08,18.88,63.59Z"/><path class="cls-4" d="m868.94,537.38c-5.69,3.31-11.38,6.62-17.08,9.93-.75-1.28-1.5-2.56-2.28-3.81-1.15-1.86-2.33-3.71-3.56-5.52-1.2-1.78-2.46-3.56-3.71-5.29,0,0-.03,0-.03-.03-1.71-2.31-3.46-4.56-5.29-6.77t-.03-.03c-2.76-3.29-5.62-6.44-8.58-9.4-6.92-6.9-14.39-12.79-22.17-17.3,6.65-3.86,13.92-8.1,21.47-12.49,15.87,13.69,30.07,31.35,41.25,50.71Z"/><path class="cls-4" d="m806.21,499.16c35.69,20.6,64.64,70.75,64.52,111.75l-1.78,629.12c-.14,48.4-34.53,68-76.65,43.68L100.41,884.26c-42.14-24.33-76.29-83.5-76.15-131.9l1.78-629.12c.12-41.01,29.24-57.62,64.93-37.02l280.78,162.11c35.69,20.6,64.64,70.75,64.52,111.75l12.12,7,12.1,6.99c.12-41.01,29.25-57.61,64.94-37.01l280.78,162.11Z"/><path class="cls-3" d="m974.49,578.68l-24.3,14.12-55.24,32.1c.03-8.6-.88-17.53-2.61-26.53v-.03c-3.96-20.54-12.19-41.6-23.4-60.96,20.81-12.09,41.63-24.2,62.44-36.29-11.69-20.21-27.81-37.87-45.64-48.15l-24-13.84,24.07-13.99c49.05,28.31,88.82,97.22,88.67,153.57Z"/><path class="cls-3" d="m838.92,528.3c-.65-.83-1.28-1.63-1.93-2.41-.28-.33-.58-.65-.85-.98.78.95,1.56,1.91,2.33,2.88l.95,1.15c-.18-.23-.33-.43-.5-.65Zm-4.74-5.67l-.1-.1s-.03,0-.05-.03c.1.1.2.23.33.35-.05-.08-.1-.15-.18-.23Zm-.83-.93c-.13-.15-.28-.28-.4-.43.18.23.4.48.65.73-.07-.1-.18-.2-.25-.3Zm18.33,25.33c.05.08.08.15.13.23.03,0,.03.03.05.05-.05-.1-.1-.18-.18-.28Zm-14.69-21.14c-.28-.33-.58-.65-.85-.98.78.95,1.56,1.91,2.33,2.88l.95,1.15c-.18-.23-.33-.43-.5-.65-.65-.83-1.28-1.63-1.93-2.41Zm-2.91-3.36s-.03,0-.05-.03c.1.1.2.23.33.35-.05-.08-.1-.15-.18-.23l-.1-.1Zm-1.13-1.25c.18.23.4.48.65.73-.07-.1-.18-.2-.25-.3-.13-.15-.28-.28-.4-.43Zm59.38,77.09v-.03c-3.96-20.54-12.19-41.6-23.4-60.96-11.18-19.36-25.38-37.01-41.25-50.71-6.85-5.92-14.02-11.08-21.39-15.35l-256.81-148.25-8.8-5.09-15.17-8.75c-1-.58-2.03-1.15-3.03-1.68-1.66-.9-3.29-1.73-4.91-2.51-.78-.38-1.53-.73-2.28-1.05-.98-.43-1.96-.85-2.93-1.25-3.44-1.38-6.8-2.53-10.11-3.41-.95-.25-1.91-.48-2.83-.68-.85-.2-1.68-.38-2.51-.53-.65-.13-1.3-.23-1.96-.33-.8-.13-1.58-.25-2.36-.33-.4-.05-.83-.1-1.23-.13-.58-.07-1.13-.13-1.68-.15-.58-.05-1.15-.08-1.73-.1-.78-.03-1.53-.05-2.28-.05-.85,0-1.71.03-2.53.08-.15,0-.28.03-.43.03h-.18c-.85.05-1.71.13-2.53.2-.1,0-.18.03-.25.03-.05,0-.1.03-.15.03-.28.03-.53.08-.78.1-.28.02-.53.07-.78.13-.4.03-.8.1-1.18.18-.5.08-1,.18-1.5.3-.08,0-.15.03-.23.05-.05,0-.08,0-.13.03-.35.05-.7.13-1.03.23-.05.03-.13.03-.18.05-.33.08-.65.15-.98.25-.05,0-.08.03-.13.03-.55.13-1.1.3-1.63.48-.43.13-.88.28-1.3.43-.33.13-.65.23-.98.38-.58.18-1.15.4-1.71.65-.23.1-.45.2-.68.3-.1.05-.2.08-.28.13l-.15.07c-.48.2-.95.43-1.4.65-.78.4-1.55.8-2.31,1.25-5.29,3.06-9.93,7.27-13.74,12.56-1.81-4.59-3.79-9.15-5.94-13.67-1.5-3.16-3.08-6.29-4.76-9.4-.63-1.15-1.25-2.33-1.91-3.49-.7-1.25-1.43-2.51-2.16-3.76-.6-1.03-1.23-2.06-1.83-3.06-.7-1.13-1.4-2.26-2.11-3.36-.93-1.5-1.91-2.96-2.88-4.44-.7-1.05-1.4-2.08-2.13-3.11-.43-.65-.88-1.28-1.33-1.91-.65-.93-1.3-1.83-1.96-2.71-.8-1.08-1.58-2.13-2.41-3.18-3.36-4.41-6.87-8.63-10.53-12.66-.68-.78-1.38-1.53-2.08-2.26-.9-.98-1.83-1.93-2.76-2.88-.68-.7-1.38-1.4-2.08-2.08-.55-.55-1.1-1.1-1.65-1.63-.15-.13-.28-.28-.43-.4-.85-.83-1.76-1.66-2.63-2.46-1.2-1.1-2.43-2.21-3.66-3.26t-.05-.05l-.03-.03c-2.18-1.88-4.41-3.71-6.65-5.42-.8-.63-1.6-1.25-2.43-1.83-1.18-.88-2.36-1.71-3.54-2.53-.73-.53-1.48-1-2.21-1.48-1.15-.78-2.33-1.53-3.51-2.26-1.03-.63-2.03-1.23-3.06-1.83L115.03,72.23l-8.8-5.07-15.2-8.78c-1-.58-2.01-1.13-3.01-1.68-.15-.08-.3-.15-.45-.23-.78-.43-1.55-.83-2.33-1.2-.73-.38-1.43-.73-2.13-1.05-.98-.48-1.93-.93-2.91-1.35-.78-.33-1.55-.65-2.33-.95-.58-.25-1.18-.48-1.76-.68-.15-.08-.3-.13-.45-.18-.45-.2-.9-.35-1.35-.5-.07-.05-.18-.07-.25-.1-.18-.08-.38-.13-.55-.2-.78-.28-1.56-.53-2.31-.75-.55-.18-1.13-.35-1.68-.5-.73-.23-1.43-.43-2.16-.6-.63-.18-1.23-.33-1.86-.45-.58-.15-1.13-.28-1.68-.38-.05-.03-.13-.03-.18-.03-.55-.13-1.05-.2-1.58-.3-.6-.13-1.2-.23-1.78-.3-.55-.1-1.1-.18-1.66-.23-.38-.05-.73-.1-1.08-.13-3.18-.35-6.27-.45-9.25-.28-.5,0-1,.05-1.5.1-.43.03-.85.05-1.28.13-.55.02-1.08.1-1.6.2-.4.03-.8.1-1.2.18-.6.1-1.2.2-1.78.35-.23.03-.45.08-.68.15-.65.1-1.28.28-1.91.45-.83.2-1.66.45-2.46.73-.8.25-1.61.55-2.41.88t-.05.03c-.38.15-.78.3-1.15.5-.1.03-.18.05-.28.1-.38.15-.75.33-1.13.5-.38.18-.75.38-1.13.58-.5.25-1,.53-1.5.83-.15.05-.3.13-.45.23C11.81,61.52,1.88,81.23,1.81,109.24L0,738.34c-.18,63.77,44.84,141.73,100.33,173.76l691.87,399.47c27.94,16.12,53.26,17.6,71.57,6.95.35-.2.7-.4,1.05-.63.85-.53,1.68-1.05,2.48-1.65.68-.45,1.35-.95,1.98-1.45.6-.48,1.2-.95,1.78-1.45.05-.05.1-.1.15-.15.4-.35.8-.7,1.18-1.05.68-.63,1.33-1.25,1.98-1.93.78-.8,1.53-1.63,2.28-2.51.08-.1.15-.18.23-.28.38-.45.78-.95,1.15-1.43.58-.75,1.15-1.53,1.71-2.31.43-.6.85-1.2,1.25-1.83,0-.02.03-.02.03-.05.5-.75.98-1.5,1.43-2.31.38-.63.73-1.28,1.08-1.93.25-.43.48-.88.7-1.33.5-.98.95-1.96,1.4-2.96.4-.85.75-1.71,1.13-2.58.38-.93.73-1.88,1.08-2.86.33-.93.63-1.88.93-2.83.18-.5.33-1,.45-1.5.28-.85.5-1.73.73-2.61.3-1.15.58-2.31.83-3.49.25-1.18.5-2.38.7-3.61.23-1.2.43-2.46.6-3.69v-.1c.33-2.38.58-4.81.78-7.32,0-.18.03-.38.03-.55v-.03c.03-.2.03-.4.03-.6.05-.53.08-1.1.1-1.66.03-.6.05-1.2.08-1.81.05-1.33.07-2.66.07-4.01l.03-7.67.05-20.44,1.71-601.02c.03-8.6-.88-17.53-2.61-26.53Zm-44.41,689.86l-.02.03h-.05s-.05.03-.05.03c-.03,0-.03.03-.05.03-.05.05-.1.08-.15.1-.03.03-.05.05-.08.05-.03.03-.05.05-.1.07-.25.15-.53.3-.8.45-.73.45-1.45.83-2.23,1.2-.75.38-1.53.73-2.33,1.05-.6.25-1.2.48-1.81.68-.35.15-.7.25-1.08.35l-.03.02c-.38.13-.73.23-1.1.33-.18.05-.33.1-.5.15-.05.03-.13.03-.18.05-.3.05-.58.13-.88.2-.33.1-.65.18-.98.23-.15.03-.3.05-.43.08-.05,0-.13.03-.18.03-.25.08-.5.13-.73.15-.53.1-1.05.2-1.58.25-.03,0-.08,0-.1.03-.15,0-.3.03-.45.05s-.3.05-.45.05c-.3.05-.6.08-.9.1-.33.05-.63.05-.93.08-.23.03-.45.03-.65.05-.85.05-1.73.07-2.61.07-.98,0-1.96-.02-2.93-.1-.5-.03-1-.05-1.5-.1s-1-.1-1.5-.15c-1.35-.18-2.71-.38-4.09-.65-2.76-.53-5.59-1.28-8.5-2.26-1.45-.48-2.91-1.03-4.39-1.63-.73-.3-1.45-.6-2.21-.93-1.48-.68-2.98-1.38-4.51-2.16-1.5-.78-3.03-1.6-4.56-2.48L100.41,884.27c-1.3-.75-2.61-1.55-3.91-2.38-1.3-.83-2.58-1.68-3.86-2.56-.83-.58-1.68-1.18-2.51-1.81-.12-.08-.25-.18-.38-.28-.3-.23-.63-.45-.93-.68v-.03c-.63-.45-1.28-.93-1.91-1.43-1.23-.98-2.48-2.01-3.71-3.03-1.23-1.03-2.43-2.11-3.64-3.18-.6-.55-1.2-1.1-1.81-1.66-1.2-1.13-2.38-2.26-3.54-3.44-.9-.9-1.81-1.83-2.71-2.78-.9-.93-1.78-1.88-2.66-2.86-.88-.95-1.76-1.93-2.61-2.93-1-1.18-2.01-2.36-3.01-3.56-.23-.3-.48-.6-.75-.93-.4-.53-.85-1.08-1.28-1.63-.33-.4-.63-.78-.93-1.18-.3-.38-.6-.78-.93-1.18v-.03c-.18-.25-.38-.5-.58-.78-.8-1.05-1.58-2.13-2.36-3.21,0,0,0-.03-.03-.03-.03-.03-.03-.05-.08-.08v-.03c-.5-.7-.98-1.4-1.48-2.11-.25-.35-.48-.7-.73-1.05-.73-1.05-1.45-2.13-2.16-3.21-1.18-1.81-2.33-3.64-3.44-5.47-.68-1.1-1.33-2.21-1.96-3.31-.45-.75-.88-1.5-1.3-2.26-.53-.98-1.08-1.96-1.6-2.96-1.28-2.36-2.51-4.76-3.66-7.17-.58-1.2-1.13-2.41-1.71-3.61-1.13-2.51-2.21-5.04-3.21-7.57-.48-1.15-.93-2.31-1.35-3.46-.1-.25-.2-.48-.28-.73-.38-1-.73-1.98-1.08-2.98-.3-.88-.6-1.73-.88-2.61-.28-.8-.53-1.6-.78-2.41-.18-.5-.33-1.03-.48-1.53-.25-.8-.48-1.58-.7-2.38-.15-.5-.3-1-.43-1.53-.18-.65-.38-1.3-.53-1.98-.02-.05-.05-.1-.05-.15-.1-.35-.2-.73-.28-1.1-.2-.8-.4-1.58-.58-2.38-.18-.73-.35-1.48-.5-2.21-.08-.38-.18-.78-.25-1.15-.05-.2-.08-.38-.13-.58-.05-.3-.12-.58-.18-.88-.15-.75-.28-1.5-.43-2.23-.2-1.1-.38-2.21-.53-3.29-.18-1.1-.35-2.18-.48-3.26-.1-.85-.2-1.71-.3-2.56-.03-.4-.08-.83-.13-1.25-.05-.43-.07-.85-.1-1.28-.15-1.68-.25-3.34-.33-5.02-.03-.55-.05-1.1-.08-1.66-.03-.98-.03-1.96-.03-2.93l1.78-629.13c0-.78,0-1.55.05-2.33,0-.25,0-.5.03-.75,0-.15.02-.28.02-.4v-.4c0-.13.03-.25.03-.38v-.03c.03-.73.1-1.43.15-2.13,0-.13.03-.25.03-.38,0-.08.03-.15.03-.23.03-.18.03-.33.05-.5.03-.1.03-.23.03-.33.03-.1.03-.2.05-.3v-.05c.03-.13.03-.23.03-.35.05-.38.08-.75.15-1.1,0-.08.03-.13.03-.2.02-.13.02-.23.05-.35.02-.2.05-.4.07-.6.03-.07.03-.18.05-.25.03-.15.05-.3.08-.45.1-.73.23-1.45.38-2.16,0-.08,0-.13.02-.2.03-.15.05-.3.08-.43.03-.15.05-.28.1-.43.18-.85.38-1.71.58-2.53t.03-.05c.03-.1.05-.2.08-.3.13-.55.3-1.08.48-1.6v-.03c.03-.05.03-.13.05-.18.05-.13.1-.25.13-.38.03-.1.05-.18.08-.28,0-.02.03-.05.03-.07.03-.13.08-.25.13-.38.03-.13.08-.23.1-.33.03-.05.05-.13.08-.18.02-.15.07-.3.15-.48.03-.07.05-.15.08-.23.05-.08.08-.18.13-.28.03-.1.05-.2.1-.3.03-.08.05-.15.08-.2.02-.05.02-.1.05-.15,0-.05.02-.1.02-.13.03-.05.05-.1.08-.15.08-.2.15-.4.23-.58.25-.65.53-1.3.83-1.93.12-.28.23-.58.38-.83,0-.03.03-.03.03-.05.05-.13.13-.25.18-.38.08-.15.15-.28.23-.43,0-.03.03-.03.03-.05.03-.03.03-.05.03-.05.03-.03.03-.05.03-.08l.05-.05.08-.15c.05-.1.1-.23.15-.33.03-.08.08-.13.1-.2.03-.03.05-.08.07-.1.03-.03.03-.08.05-.1.08-.15.15-.28.23-.4,0-.03,0-.05.03-.08s.03-.05.05-.08c.7-1.25,1.48-2.43,2.28-3.54.3-.43.6-.83.93-1.23.85-1.1,1.76-2.11,2.71-3.06.45-.43.88-.85,1.35-1.25.43-.4.88-.78,1.33-1.13.98-.78,2.01-1.5,3.08-2.16.1-.08.23-.13.35-.2.15-.1.3-.18.45-.25.03,0,.03-.03.05-.05.03,0,.08-.03.1-.05.18-.1.35-.2.53-.3.23-.13.45-.25.7-.35l.9-.45c.07-.03.15-.07.23-.1.38-.18.75-.35,1.15-.5.1-.05.2-.07.3-.13.1-.03.2-.08.3-.1.45-.2.93-.35,1.38-.5l.23-.08c.3-.1.63-.2.93-.28.33-.1.63-.18.95-.28.08-.03.18-.05.28-.08.08-.03.18-.05.25-.05.25-.08.5-.13.75-.18.15-.03.33-.08.5-.1.05-.02.13-.02.2-.05h.05c.1-.03.18-.05.28-.05.05-.03.13-.03.18-.03.03,0,.03-.03.05-.03.07-.03.18-.03.28-.05.15-.05.33-.05.5-.08.12-.03.28-.05.4-.05.4-.08.78-.13,1.18-.15.1-.03.2-.03.3-.05.07,0,.12,0,.2-.03.25-.03.5-.05.75-.05h.08c.1-.03.23-.03.33-.03.1-.02.18-.02.28-.02.5-.03,1-.05,1.53-.05.25-.03.5-.03.75-.03h.05c.65,0,1.28.03,1.96.05.65.03,1.35.07,2.03.15.33.03.65.05.98.1.18.03.35.05.53.08.58.08,1.18.15,1.76.25.05,0,.1.03.15.03s.08.03.13.03.1.03.18.03c.25.05.5.1.75.15.13.03.25.05.38.08.08.03.18.03.25.05.43.08.83.18,1.28.28.53.13,1.08.25,1.63.4.1.03.18.05.28.08.5.15,1.03.28,1.53.45h.03c.6.18,1.2.38,1.81.58h.03c.6.2,1.18.4,1.76.63.18.05.35.13.5.18.48.2.95.38,1.43.58.15.05.28.1.43.18.48.2.95.4,1.45.63h.03c.63.28,1.25.55,1.88.85.33.15.65.33.95.48.3.15.63.3.95.48.65.33,1.3.68,1.93,1,.45.25.9.5,1.33.75.2.1.43.23.63.35l14.57,8.4,266.22,153.7c1.03.6,2.06,1.23,3.08,1.88.05,0,.1.05.15.08s.1.07.13.1c.18.1.35.23.53.33.78.5,1.56,1,2.31,1.53.25.18.53.35.78.55.3.2.58.4.88.63.07.05.18.13.25.18.35.25.68.5,1.03.75.13.08.28.18.4.28,1.73,1.3,3.46,2.68,5.14,4.11.4.33.8.68,1.2,1.03.08.08.18.15.25.2v.03c.05.03.1.08.15.13.25.23.53.45.78.7.25.23.5.45.75.68.25.23.5.45.75.68.07.07.15.13.23.2.13.13.28.25.4.38.25.25.5.48.75.73.63.6,1.25,1.2,1.88,1.83.38.35.73.7,1.08,1.08.68.68,1.35,1.38,2.01,2.08.05.07.13.13.2.2.73.78,1.45,1.58,2.18,2.38.2.23.4.45.6.68.03.03.05.05.08.08.12.13.23.25.35.4.55.63,1.1,1.28,1.65,1.93.28.33.55.63.8.95.7.83,1.38,1.66,2.03,2.51.45.58.9,1.13,1.33,1.71.12.18.28.33.38.5.35.43.68.88,1,1.3.05.05.08.13.13.18.13.15.23.3.35.48.13.15.23.33.33.48.1.13.2.25.28.38.18.23.35.45.5.68.2.25.38.48.53.73.08.1.13.18.2.28.85,1.18,1.68,2.38,2.48,3.61.05.07.1.15.15.23.35.53.7,1.03,1.03,1.58.28.4.53.8.78,1.2.1.13.18.25.25.38l.15.23c.08.13.15.25.23.38.18.28.35.58.53.85.1.18.2.33.3.5.05.08.13.18.18.25.43.73.88,1.48,1.3,2.21.05.08.08.15.13.23.2.35.4.7.6,1.05.1.15.18.3.28.45.15.3.33.6.5.9.73,1.3,1.43,2.58,2.11,3.91.43.8.85,1.6,1.25,2.43.4.8.8,1.63,1.2,2.43.4.8.8,1.63,1.15,2.46.25.55.5,1.08.73,1.63.13.28.25.58.38.85h.03c.25.58.48,1.13.7,1.68.1.23.2.48.3.7.13.25.23.5.33.75.38.95.75,1.88,1.1,2.83.05.1.1.23.13.33.23.53.43,1.05.6,1.58.15.38.28.73.4,1.1.33.88.65,1.78.95,2.68.15.45.3.9.45,1.35.15.45.3.88.43,1.33.13.33.23.63.3.93.15.48.3.95.43,1.43.08.25.15.5.23.73.12.43.25.85.35,1.28.18.63.35,1.23.5,1.81.03.07.05.13.05.2.1.3.18.6.23.88.08.2.1.4.15.6.05.15.08.3.1.45.13.45.25.9.35,1.38.13.48.23.98.33,1.48.03.08.05.15.05.25.1.43.2.88.3,1.33,0,.05.03.1.03.18.08.35.15.68.2,1.03.03.03.03.08.03.1.08.38.15.73.2,1.1.08.33.15.68.2,1,.03.13.05.28.08.4.02.1.05.23.05.33v.02c.05.28.1.53.12.8.05.25.1.5.13.75.18,1.1.33,2.18.45,3.26.05.25.08.5.08.75.03.1.05.2.05.3.08.55.13,1.08.18,1.6,0,.15.03.3.03.45.1.93.18,1.86.23,2.78.05.48.07.95.1,1.43v.3c.03.23.03.48.03.7v.02c.03.1.03.18.03.28.03,1.13.05,2.26.05,3.36l12.11,7,12.11,6.97c0-.78,0-1.55.05-2.33,0-.25,0-.5.03-.75,0-.15.02-.28.02-.4v-.4c0-.13.03-.25.03-.38v-.03c.03-.73.1-1.43.15-2.13,0-.13.03-.25.03-.38,0-.08.03-.15.03-.23v-.08c.03-.07.03-.18.03-.25.1-1,.23-1.98.35-2.96.05-.45.12-.88.2-1.3,0-.1,0-.18.03-.28.03-.08.03-.18.05-.25l.08-.45c.03-.07.03-.15.05-.2.03-.08.03-.18.05-.25.03-.15.05-.33.08-.48.07-.3.12-.6.18-.93l.08-.38s.03-.03.03-.05v-.03c.05-.18.08-.38.13-.55.03-.08.05-.18.08-.25.03-.07.03-.15.05-.23.05-.3.12-.58.2-.88.05-.25.12-.53.2-.78.18-.63.33-1.23.53-1.83.2-.65.4-1.28.63-1.88.05-.23.13-.43.2-.63.05-.15.1-.3.18-.45.12-.4.28-.78.43-1.13.25-.65.53-1.3.83-1.93t.03-.05c.05-.13.1-.23.15-.35.13-.23.23-.43.33-.65.03-.05.05-.13.08-.18.12-.3.28-.55.43-.83l.08-.15s.05-.1.08-.15c.03-.05.05-.1.08-.15s.05-.08.08-.13c.18-.33.35-.65.55-.95.18-.33.35-.63.55-.93.1-.18.2-.35.33-.53.2-.33.4-.65.63-.95.03-.05.08-.1.1-.15.05-.07.1-.13.15-.2.13-.18.23-.35.35-.53.08-.1.13-.2.2-.28.05-.05.1-.13.13-.18.05-.05.08-.1.13-.15.03-.05.05-.08.08-.1.05-.08.07-.13.12-.18.08-.1.13-.18.2-.25.15-.2.3-.38.45-.55h.03s0-.03.03-.05c0,0,0-.03.03-.03,0-.03.03-.03.05-.05.03-.05.08-.1.13-.15.25-.33.53-.65.83-.98.4-.45.83-.9,1.28-1.35.43-.43.88-.83,1.33-1.23.45-.43.93-.8,1.4-1.18s.95-.75,1.43-1.08c0-.03.03-.03.05-.03.03-.03.08-.05.13-.08t.05-.05c.33-.23.68-.45,1.03-.65.1-.1.23-.15.33-.23.03-.03.08-.05.1-.05.4-.25.78-.48,1.18-.68.05-.03.08-.05.13-.08.05-.05.1-.08.15-.08,1.03-.58,2.11-1.08,3.21-1.5.55-.23,1.13-.43,1.71-.63.58-.18,1.15-.35,1.76-.53.58-.15,1.18-.3,1.81-.43.45-.1.88-.18,1.35-.25h.05c.05,0,.08-.03.13-.03.1-.03.2-.03.3-.05.3-.05.6-.1.9-.13.3-.05.6-.08.9-.13.65-.08,1.33-.13,2.01-.15,2.81-.15,5.72.03,8.73.48,1.15.18,2.33.4,3.51.68,1.2.28,2.38.58,3.61.95.25.1.53.18.8.25.95.3,1.91.63,2.88,1,.6.23,1.23.48,1.86.73,1.25.5,2.51,1.05,3.79,1.65,1.71.8,3.41,1.71,5.14,2.68.23.13.43.25.65.38l280.76,162.1h.03c.98.55,1.93,1.15,2.91,1.76.05.03.1.05.15.1.93.58,1.86,1.18,2.76,1.81.08.05.15.1.23.15.85.6,1.71,1.2,2.56,1.83.83.6,1.66,1.2,2.46,1.86.3.23.58.45.88.68.08.07.18.13.25.2.25.2.5.4.78.63.2.15.43.33.63.5.05.05.1.08.15.13l.03.03c.33.28.65.55.98.83.65.55,1.33,1.13,1.98,1.71.23.2.45.4.65.6.73.65,1.45,1.3,2.16,1.98.9.83,1.78,1.68,2.63,2.53.68.68,1.35,1.38,2.03,2.08.23.25.48.5.7.75.28.28.55.58.78.85.1.08.15.13.2.2.2.18.35.38.5.55.05.05.08.1.15.15.05.08.12.15.2.23.18.23.4.48.65.73.05.05.08.1.13.15,0,.03.03.05.08.08.05.1.15.18.23.28.1.1.2.23.33.35.08.08.13.13.18.2.55.6,1.08,1.23,1.6,1.86.78.95,1.56,1.91,2.33,2.88l.95,1.15.11.14c.2.26.42.53.61.79l.2.25c.65.83,1.3,1.68,1.93,2.53,0,.03.03.03.03.03.65.88,1.28,1.78,1.93,2.71,0,.03.02.03.02.05.1.13.2.28.3.4.28.4.58.83.85,1.25l.15.23c.1.1.18.23.25.35.08.1.13.2.2.3,1.23,1.81,2.41,3.66,3.56,5.52.63,1,1.23,2.01,1.83,3.03.05.1.1.18.15.28.03.07.08.15.12.23.05.08.08.15.13.23.03,0,.03.03.05.05.63,1.1,1.25,2.21,1.86,3.31.1.2.23.43.35.65,1.35,2.48,2.63,5.02,3.84,7.57.28.55.53,1.1.78,1.68.18.38.35.75.53,1.15.03.03.03.08.05.1.03.08.08.15.1.23.03.07.05.13.08.2.18.4.38.85.55,1.25.8,1.86,1.56,3.69,2.26,5.57.25.65.5,1.3.75,1.96.02.05.02.1.05.15.18.45.35.93.5,1.38.28.75.55,1.5.8,2.28.33.93.63,1.83.9,2.76.05.18.1.35.15.53.03.1.07.23.1.33.02.05.05.13.05.18.02.08.07.18.1.25,0,.05.03.13.05.18.1.3.18.63.25.93.15.48.3.93.43,1.4.05.18.1.38.15.55.03.05.03.13.05.18.15.55.3,1.08.43,1.63.65,2.41,1.2,4.81,1.68,7.22.12.53.23,1.05.3,1.61.1.55.18,1.08.28,1.6.02.15.05.28.07.43.05.23.1.48.13.7.05.3.1.58.13.88.03.08.03.15.05.23.05.3.08.6.13.9,0,.1.03.23.03.33.07.45.12.9.18,1.33.08.5.13,1,.18,1.53.05.23.08.45.08.7.03.23.05.48.08.7.03.1.03.23.03.33v.05c.05.38.08.73.1,1.08.03.18.03.35.05.53.02.33.05.68.05,1,0,.05,0,.13.02.18,0,.33.05.68.05,1,.03.08.03.13.03.2v.18c.03.25.03.5.03.75.03.48.05.93.03,1.38.05.45.05.9.05,1.35v1.05l-1.78,624.91v4.19c0,1.18-.03,2.33-.08,3.49v.33c0,.1,0,.2-.03.3-.03.6-.05,1.18-.1,1.75,0,.28-.03.55-.05.83,0,.2-.03.4-.05.6-.03.65-.1,1.3-.18,1.96-.1,1-.23,2.01-.35,2.96-.08.48-.13.95-.23,1.4-.03.23-.05.43-.1.65-.05.43-.13.85-.23,1.25-.03.23-.08.43-.12.65-.08.38-.15.78-.23,1.15-.05.28-.1.55-.18.8-.35,1.68-.78,3.29-1.28,4.84-.03.1-.05.18-.08.28-.18.58-.35,1.13-.55,1.65-.03.08-.05.18-.08.25-.05.23-.12.43-.23.63v.03c-.03.08-.05.18-.08.25-.2.58-.43,1.13-.65,1.68-.15.38-.3.78-.48,1.15-.15.38-.33.78-.5,1.13-.68,1.48-1.4,2.91-2.18,4.26-.4.7-.8,1.38-1.23,2.03-.43.63-.83,1.23-1.28,1.83-.38.53-.78,1.05-1.18,1.56-.05.07-.13.15-.18.23-.28.33-.58.68-.85,1v.03c-.12.12-.23.25-.35.38-.05.05-.1.13-.15.18-.03.03-.05.08-.08.1-.15.15-.28.28-.43.43-.35.38-.7.78-1.08,1.15l-.03.03c-.38.38-.75.75-1.15,1.1-.13.13-.28.25-.4.35-.55.5-1.08.95-1.65,1.38-.55.45-1.13.88-1.71,1.28-.4.28-.83.55-1.23.83-.02,0-.02.03-.05.05Zm-14.57-766.52c-.13-.15-.28-.28-.4-.43.18.23.4.48.65.73-.07-.1-.18-.2-.25-.3Zm.83.93l-.1-.1s-.03,0-.05-.03c.1.1.2.23.33.35-.05-.08-.1-.15-.18-.23Zm4.74,5.67c-.65-.83-1.28-1.63-1.93-2.41-.28-.33-.58-.65-.85-.98.78.95,1.56,1.91,2.33,2.88l.95,1.15c-.18-.23-.33-.43-.5-.65Zm16.8,753.23c.05-.03.08-.05.13-.1,0-.03.03-.05.03-.08-.05.05-.1.13-.15.18Z"/></g><g class="cls-17"><path class="cls-3" d="m85.26,766.87l31.56-18.34c-.03,8.85,6.22,19.67,13.92,24.12l-31.56,18.34c-7.7-4.45-13.95-15.27-13.92-24.12Z"/><polygon class="cls-3" points="99.19 790.98 130.75 772.64 401.91 929.2 370.35 947.54 99.19 790.98"/><path class="cls-3" d="m411.85,930.16l-31.56,18.34c-2.54,1.48-6.06,1.27-9.93-.96l31.56-18.34c3.88,2.24,7.39,2.44,9.93.96Z"/><path class="cls-6" d="m415.93,921.21c-.01,4.38-1.56,7.47-4.05,8.93l-31.56,18.34c2.49-1.46,4.04-4.55,4.05-8.93,9.47-5.5,22.09-12.84,31.56-18.34Z"/><path class="cls-3" d="m423.1,949.51l-31.56,18.34c5.36-3.12,8.69-9.73,8.72-19.13l31.56-18.34c-.03,9.39-3.36,16.01-8.72,19.13Z"/><polygon class="cls-3" points="86.66 273.86 118.22 255.52 116.82 748.52 85.26 766.87 86.66 273.86"/><path class="cls-3" d="m90.74,264.91l31.56-18.34c-2.51,1.46-4.07,4.55-4.08,8.95l-31.56,18.34c.01-4.4,1.57-7.49,4.08-8.95Z"/><path class="cls-6" d="m122.28,246.59c.65-.38,1.36-.65,2.13-.81-10.52,6.11-21.04,12.23-31.56,18.34-.77.16-1.48.43-2.13.81,9.47-5.5,22.11-12.82,31.56-18.34Z"/><path class="cls-6" d="m124.4,245.78c2.24-.45,4.94.08,7.83,1.75l-31.56,18.34c-2.9-1.67-5.59-2.21-7.83-1.75,10.52-6.11,21.04-12.23,31.56-18.34Z"/><path class="cls-3" d="m79.5,245.56l31.56-18.34c5.43-3.16,12.94-2.72,21.23,2.06l-31.56,18.34c-8.28-4.78-15.8-5.22-21.23-2.06Z"/><polygon class="cls-6" points="385.76 446.55 417.32 428.21 415.93 921.21 384.36 939.55 385.76 446.55"/><polygon class="cls-6" points="100.68 265.88 132.24 247.53 403.4 404.09 371.84 422.43 100.68 265.88"/><path class="cls-6" d="m371.84,422.43l31.56-18.34c7.7,4.45,13.95,15.27,13.92,24.12l-31.56,18.34c.03-8.85-6.22-19.67-13.92-24.12Z"/><path class="cls-3" d="m371.89,404.18c16.46,9.5,29.81,32.63,29.76,51.54l-1.4,493c-.05,18.91-13.49,26.56-29.95,17.06l-271.16-156.56c-16.46-9.5-29.8-32.62-29.75-51.53l1.4-493c.05-18.91,13.49-26.58,29.95-17.07l271.16,156.56Zm12.47,535.37l1.4-493c.03-8.85-6.22-19.67-13.92-24.12L100.67,265.88c-7.7-4.45-13.99-.86-14.02,7.99l-1.4,493c-.03,8.85,6.22,19.67,13.92,24.12l271.16,156.56c7.7,4.45,13.99.86,14.02-7.99"/><path class="cls-6" d="m371.84,422.43c7.7,4.45,13.95,15.27,13.92,24.12l-1.4,493c-.03,8.85-6.32,12.43-14.02,7.99l-271.16-156.56c-7.7-4.45-13.95-15.27-13.92-24.12l1.4-493c.03-8.85,6.32-12.43,14.02-7.99l271.16,156.56Z"/><polygon class="cls-3" points="401.65 455.72 433.21 437.38 431.81 930.38 400.25 948.72 401.65 455.72"/><polygon class="cls-3" points="100.73 247.62 132.29 229.28 403.45 385.84 371.89 404.18 100.73 247.62"/><path class="cls-3" d="m371.89,404.18l31.56-18.34c16.46,9.5,29.81,32.63,29.76,51.54l-31.56,18.34c.05-18.91-13.3-42.04-29.76-51.54Z"/></g><g class="cls-17"><g class="cls-1"><polyline class="cls-3" points="882 614.28 435.53 356.51 435.45 384.35 881.92 642.12 882 614.28"/></g></g><g class="cls-17"><g class="cls-7"><path class="cls-5" d="m343.35,724.54l-221.46-127.86c-9.08-5.24-16.53-1-16.56,9.44l-.41,144.28c-.03,10.43,7.37,23.25,16.45,28.49l221.46,127.86c9.07,5.24,16.52.99,16.55-9.44l.41-144.28c.03-10.43-7.37-23.25-16.44-28.49"/></g></g><g class="cls-17"><g class="cls-10"><path class="cls-3" d="m170.72,386.04c-20.37-11.76-36.94,1.29-37.02,29.15-.08,27.86,16.37,59.98,36.74,71.74,20.36,11.76,36.94-1.29,37.01-29.16.08-27.86-16.37-59.97-36.73-71.73"/></g></g><g class="cls-17"><g class="cls-9"><path class="cls-3" d="m170.7,475.4c-29.22-16.87-53.21-3.21-53.31,30.37l-.03,10.82c-.03,10.75,7.6,23.96,16.95,29.36l72.24,41.71c9.35,5.4,17.03,1.02,17.06-9.72l.03-10.82c.1-33.58-23.73-74.85-52.95-91.72"/></g></g><g class="cls-17"><g class="cls-8"><path class="cls-3" d="m373.39,507.19l-121.93-70.4c-3.44-1.99-6.24-.4-6.25,3.56-.01,3.95,2.77,8.76,6.21,10.75l121.93,70.4c3.43,1.98,6.23.4,6.25-3.56.01-3.95-2.77-8.76-6.2-10.75"/></g></g><g class="cls-17"><g class="cls-14"><path class="cls-3" d="m346.62,528.08l-95.14-54.93c-3.44-1.99-6.23-.39-6.25,3.56-.01,3.95,2.76,8.76,6.2,10.75l95.14,54.93c3.44,1.99,6.23.4,6.25-3.56.01-3.95-2.76-8.76-6.2-10.75"/></g></g><g class="cls-17"><g class="cls-13"><path class="cls-3" d="m304.38,579.82l-54.12-31.24c-3.44-1.99-6.24-.4-6.25,3.56s2.77,8.76,6.21,10.75l54.12,31.24c3.43,1.98,6.23.39,6.25-3.56s-2.77-8.76-6.2-10.75"/></g></g><g class="cls-17"><g class="cls-11"><path class="cls-3" d="m148.92,671.11c-3.2-1.85-6.4-1.87-8.23.71l-22.63,31.78c-3.67,5.16.87,16.88,8.17,21.1l45,25.98c7.3,4.22,11.89-2.23,8.26-11.61l-22.37-57.76c-1.82-4.69-5.01-8.35-8.2-10.2"/></g></g><g class="cls-17"><g class="cls-12"><path class="cls-6" d="m151.29,719.56l-8.11-4.68-.03,9.21,8.11,4.68.03-9.21m.04-30.01l-8.01-4.63-.03,9.26,1.95,18.26,4.01,2.31,2.05-15.95.03-9.26"/></g></g><g class="cls-17"><g class="cls-15"><path class="cls-3" d="m320.77,769.78l-106.32-61.38c-11.74-6.78-21.38-1.29-21.42,12.2l-.07,23.45c-.04,13.49,9.54,30.07,21.28,36.85l106.32,61.38c11.74,6.78,21.38,1.29,21.42-12.2l.07-23.45c.04-13.49-9.54-30.07-21.28-36.85"/></g></g><g class="cls-17"><g class="cls-16"><path class="cls-6" d="m308.89,788.44c-1.02-.59-2.05-.69-2.79-.01l-10.44,9.36,31.88,18.24.03-10.14c0-2.48-1.75-5.14-3.59-6.2-.88-.51-1.78-.65-2.51-.23l-2.86,1.62c-.73.42-1.63.28-2.51-.23-1.84-1.06-3.6-3.72-3.59-6.2s-1.77-5.15-3.6-6.21m-35.48-18.21c-1.18-.68-2.36-.71-3.07.23l-6.71,9,16.88,9.66-3.74-14.22c-.55-2.11-1.95-3.86-3.37-4.67m22.24,27.56l-15.14-8.66,2.55,9.69c.55,2.08,1.95,3.85,3.37,4.67,1.04.6,2.09.69,2.82.04l6.4-5.73m-32.02-18.32l-23.76-13.6,8.36,22.24c.68,1.8,1.9,3.22,3.13,3.92s2.38.71,3.08-.23l9.2-12.34m-38.06-47.26c-.9-.52-1.81-.66-2.52-.25l-13.63,16.48,30.46,17.43-11.17-29.73c-.66-1.77-1.89-3.21-3.13-3.93"/></g></g></g></svg>