<svg width="313" height="63" viewBox="0 0 313 63" fill="none" xmlns="http://www.w3.org/2000/svg">
<path d="M29.4926 0.155273C34.1846 4.84726 35.3793 14.0785 35.5737 20.4658C35.5694 30.7899 33.2451 39.3854 26.31 47.3474C23.748 49.5572 21.4248 49.7628 18.1427 50.4193C19.4469 51.1968 19.4469 51.1968 20.7775 51.99C21.5111 52.4274 21.5111 52.4274 22.2596 52.8736C26.9621 55.2535 32.4496 55.1244 37.4794 53.9186C43.8473 51.8048 48.5566 49.04 51.6858 42.9709C54.4603 36.8549 55.1143 29.5531 53.1362 23.0642C49.9946 16.9708 45.0951 13.0349 38.9171 10.2891C35.4096 8.68064 35.4096 8.68064 34.2935 6.75179C33.8502 5.17154 33.8502 5.17154 33.5462 2.5874C41.7113 2.7785 47.648 5.23996 53.6619 10.7958C58.2337 15.6428 61.4721 21.7969 61.921 28.5301C62.0046 29.4665 62.0882 30.4029 62.1744 31.3676C62.0121 39.8227 58.9937 47.7207 53.0032 53.6621C46.1226 60.0277 38.9278 62.2722 29.7018 62.1506C21.5269 61.8097 15.0212 58.6478 9.22488 52.8514C3.71485 45.9719 0.438139 37.9757 0.7916 29.0685C2.18974 19.8109 6.85268 12.5911 14.2095 6.91963C17.648 4.65363 21.5114 2.22326 25.7431 2.89142C26.1778 3.05863 26.6126 3.22584 27.0605 3.39811C27.2733 6.94409 27.2733 6.94409 26.2498 9.07308C24.1381 10.4869 21.9379 11.5314 19.6564 12.6484C14.828 15.3258 11.2499 19.741 9.5764 25.0213C8.27832 31.9911 9.0079 38.2319 11.657 44.7443C12.1921 44.7443 12.7271 44.7443 13.2784 44.7443C13.4843 44.1758 13.6902 43.6073 13.9023 43.0215C15.0081 40.4379 16.402 38.211 17.8893 35.8265C24.2911 25.0295 27.507 12.466 29.4926 0.155273Z" fill="#808080"/>
<path d="M172.178 8.26172C195.688 8.26172 195.688 8.26172 203.795 12.3153C207.161 16.5012 208.037 20.7512 207.849 26.0973C207.071 31.1907 205.153 34.1992 201.135 37.3713C198.659 38.947 196.556 39.167 193.703 39.1479C193.083 39.1458 192.464 39.1438 191.826 39.1417C191.044 39.1343 190.262 39.127 189.456 39.1194C185.719 39.0943 185.719 39.0943 181.906 39.0687C181.906 44.6869 181.906 50.3051 181.906 56.0936C178.696 56.0936 175.485 56.0936 172.178 56.0936C172.178 40.3091 172.178 24.5246 172.178 8.26172Z" fill="#808080"/>
<path d="M125.662 24.0717C126.298 24.473 126.933 24.8743 127.588 25.2877C127.588 25.8228 127.588 26.3579 127.588 26.9091C128.123 26.9091 128.658 26.9091 129.209 26.9091C129.209 25.839 129.209 24.7689 129.209 23.6663C132.152 23.6663 135.095 23.6663 138.127 23.6663C138.127 34.3677 138.127 45.069 138.127 56.0947C135.184 56.0947 132.241 56.0947 129.209 56.0947C129.209 55.0246 129.209 53.9544 129.209 52.8519C128.674 52.8519 128.139 52.8519 127.588 52.8519C127.588 53.3869 127.588 53.922 127.588 54.4733C122.681 56.7038 119.082 57.4826 113.806 56.0947C109.463 54.4062 106.754 51.6885 104.077 47.9876C102.415 43.0005 102.108 36.2285 104.125 31.2952C109.404 23.841 116.969 20.4745 125.662 24.0717Z" fill="#808080"/>
<path d="M90.9546 8.76816C94.4378 10.5314 96.3487 12.2196 98.403 15.5579C98.935 17.7737 99.0951 19.7501 99.2137 22.0435C96.0033 22.0435 92.7929 22.0435 89.4852 22.0435C88.9501 20.9734 88.4151 19.9033 87.8638 18.8007C85.9659 17.8517 84.7072 17.8285 82.5942 17.7873C81.9504 17.7664 81.3067 17.7455 80.6434 17.724C80.0832 17.8118 79.5231 17.8995 78.946 17.99C77.1151 20.2227 77.1151 20.2227 77.4005 22.4932C77.948 24.5819 77.948 24.5819 79.7313 25.4954C80.7471 25.8434 80.7471 25.8434 81.7834 26.1984C82.516 26.4618 83.2486 26.7251 84.0034 26.9965C85.3972 27.4459 86.7964 27.8796 88.2026 28.2885C93.2098 29.7709 97.3743 31.9821 100.161 36.5761C101.566 40.0807 101.385 43.7778 100.278 47.356C98.091 52.2308 95.1146 54.3467 90.1439 56.296C84.1837 57.4685 78.4967 57.8915 73.1 54.7379C70.0961 52.508 67.3862 50.0317 66.3071 46.3585C66.0759 44.7941 66.0759 44.7941 65.9746 42.3113C67.6791 42.2019 69.3855 42.1232 71.0922 42.0579C72.0422 42.0109 72.9921 41.9639 73.9709 41.9154C74.81 42.0461 75.6492 42.1767 76.5138 42.3113C77.9674 44.3032 77.9674 44.3032 78.946 46.3648C82.1626 47.9731 86.125 47.4401 89.4852 46.3648C89.4852 44.2245 89.4852 42.0843 89.4852 39.8791C86.0153 38.3019 82.5989 37.0744 78.946 35.9776C74.0667 34.3818 70.2299 32.2755 67.4725 27.8357C65.9512 23.9868 65.9861 19.3579 67.4092 15.4787C72.4444 7.38318 82.5283 5.46182 90.9546 8.76816Z" fill="#808080"/>
<path d="M232.981 25.2876C236.552 28.5211 239.981 31.805 240.442 36.7991C240.547 42.3405 240.203 46.9165 236.439 51.2145C232.275 55.1289 228.664 56.5118 222.999 57.26C217.864 56.6507 212.989 54.3939 209.47 50.5209C206.367 45.672 205.414 40.7065 206.548 35.0383C208.003 30.1646 211.02 27.3189 215.145 24.4769C220.948 21.7532 227.398 22.2241 232.981 25.2876Z" fill="#808080"/>
<path d="M280.002 22.8553C282.896 24.1201 285.586 25.5631 287.372 28.231C288.403 30.9199 288.29 33.2685 288.267 36.1433C288.265 36.7146 288.262 37.2858 288.26 37.8744C288.251 39.6916 288.231 41.5086 288.21 43.3257C288.202 44.5608 288.195 45.7959 288.188 47.0309C288.17 50.0522 288.142 53.0733 288.109 56.0944C285.166 56.0944 282.223 56.0944 279.191 56.0944C279.142 54.7275 279.093 53.3605 279.042 51.9522C278.974 50.1576 278.905 48.3631 278.836 46.5686C278.804 45.6677 278.772 44.7669 278.74 43.8388C278.706 42.9714 278.672 42.104 278.637 41.2103C278.607 40.4121 278.577 39.614 278.547 38.7916C278.4 36.8893 278.102 35.2209 277.569 33.3945C276.253 33.3289 274.935 33.2817 273.617 33.2425C272.884 33.2143 272.15 33.1861 271.394 33.157C270.757 33.2354 270.119 33.3138 269.462 33.3945C267.631 36.1413 267.604 37.2645 267.505 40.4977C267.458 41.8576 267.458 41.8576 267.41 43.245C267.385 44.1913 267.36 45.1376 267.334 46.1125C267.287 47.5461 267.287 47.5461 267.239 49.0086C267.163 51.3703 267.096 53.7323 267.03 56.0944C263.82 56.0944 260.609 56.0944 257.302 56.0944C257.302 45.393 257.302 34.6917 257.302 23.666C260.512 23.666 263.723 23.666 267.03 23.666C267.298 24.7362 267.565 25.8063 267.841 26.9089C268.476 26.3905 269.112 25.8722 269.766 25.3381C273.092 22.7251 275.827 22.1984 280.002 22.8553Z" fill="#808080"/>
<path d="M172.178 8.26172C195.688 8.26172 195.688 8.26172 202.174 11.5046C202.174 12.0396 202.174 12.5747 202.174 13.126C201.689 12.9922 201.204 12.8584 200.705 12.7206C198.839 12.2249 198.839 12.2249 196.499 12.3153C197.034 13.3854 197.569 14.4555 198.12 15.5581C196.499 17.1795 196.499 17.1795 194.975 17.3636C194.373 17.3551 193.77 17.3466 193.149 17.3379C192.169 17.33 192.169 17.33 191.169 17.322C190.487 17.3084 189.804 17.2949 189.101 17.2809C188.068 17.2699 188.068 17.2699 187.014 17.2587C185.312 17.2396 183.609 17.2105 181.906 17.1795C181.906 21.4601 181.906 25.7406 181.906 30.1509C181.639 30.1509 181.371 30.1509 181.096 30.1509C180.828 27.208 180.56 24.2651 180.285 21.2331C179.75 21.5006 179.215 21.7681 178.663 22.0438C178.283 24.3267 178.283 24.3267 178.157 26.9587C178.066 28.3021 178.066 28.3021 177.973 29.6727C177.933 30.3656 177.894 31.0584 177.853 31.7723C178.12 31.7723 178.388 31.7723 178.663 31.7723C178.663 33.645 178.663 35.5178 178.663 37.4473C178.128 37.4473 177.593 37.4473 177.042 37.4473C177.31 38.7849 177.577 40.1226 177.853 41.5008C178.388 41.5008 178.923 41.5008 179.474 41.5008C179.474 39.3605 179.474 37.2203 179.474 35.0151C181.079 34.6138 181.079 34.6138 182.717 34.2044C182.717 35.007 182.717 35.8096 182.717 36.6366C186.998 37.1716 191.278 37.7067 195.688 38.258C195.688 38.5255 195.688 38.793 195.688 39.0687C191.14 39.0687 186.592 39.0687 181.906 39.0687C181.906 44.6869 181.906 50.3051 181.906 56.0936C178.696 56.0936 175.485 56.0936 172.178 56.0936C172.178 40.3091 172.178 24.5246 172.178 8.26172Z" fill="#808080"/>
<path d="M296.216 11.5049C299.159 11.5049 302.102 11.5049 305.134 11.5049C305.134 15.5179 305.134 19.5309 305.134 23.6655C307.274 23.6655 309.414 23.6655 311.619 23.6655C311.619 26.0733 311.619 28.4811 311.619 30.9619C309.747 30.9619 307.874 30.9619 305.944 30.9619C305.944 39.2555 305.944 47.549 305.944 56.0939C302.734 56.0939 299.524 56.0939 296.216 56.0939C296.216 47.8004 296.216 39.5068 296.216 30.9619C294.343 30.9619 292.471 30.9619 290.541 30.9619C290.541 28.5541 290.541 26.1463 290.541 23.6655C292.414 23.6655 294.286 23.6655 296.216 23.6655C296.216 19.6525 296.216 15.6395 296.216 11.5049Z" fill="#808080"/>
<path d="M157.585 5.83105C160.795 5.83105 164.006 5.83105 167.313 5.83105C167.313 22.4182 167.313 39.0053 167.313 56.0951C164.103 56.0951 160.893 56.0951 157.585 56.0951C157.585 39.5079 157.585 22.9208 157.585 5.83105Z" fill="#808080"/>
<path d="M117.86 23.6657C124.809 23.4341 124.809 23.4341 127.589 25.2872C127.589 25.8222 127.589 26.3573 127.589 26.9086C128.124 26.9086 128.659 26.9086 129.21 26.9086C129.21 25.8385 129.21 24.7683 129.21 23.6657C132.153 23.6657 135.096 23.6657 138.128 23.6657C138.128 34.3671 138.128 45.0685 138.128 56.0941C135.185 56.0941 132.242 56.0941 129.21 56.0941C129.21 55.024 129.21 53.9539 129.21 52.8513C125.465 53.1188 121.719 53.3864 117.86 53.662C119.482 49.6085 119.482 49.6085 120.292 48.7978C121.647 48.6974 121.647 48.6974 123.029 48.5951C125.977 48.252 125.977 48.252 127.64 46.4163C128.769 42.7282 128.083 39.423 126.778 35.8264C125.851 34.2996 125.851 34.2996 124.346 33.3943C122.204 33.1303 122.204 33.1303 119.887 33.2929C117.212 33.4008 115.559 33.4379 112.996 32.5836C112.996 32.0485 112.996 31.5134 112.996 30.9621C115.939 30.1595 118.882 29.3569 121.914 28.53C122.181 27.1923 122.449 25.8547 122.725 24.4765C121.119 24.4765 119.514 24.4765 117.86 24.4765C117.86 24.2089 117.86 23.9414 117.86 23.6657Z" fill="#808080"/>
<path d="M36.7894 14.748C43.269 20.9312 48.1457 28.8005 48.4433 37.9039C48.4782 41.8137 47.9552 44.7371 45.7072 47.9871C42.3336 49.0783 38.9444 49.303 35.4213 49.5579C34.4656 49.6483 33.5099 49.7387 32.5252 49.8318C30.1644 50.0517 27.8041 50.2464 25.4395 50.4193C25.7653 49.9887 26.0912 49.5581 26.4269 49.1145C26.8587 48.5418 27.2905 47.9692 27.7354 47.3791C28.1616 46.8148 28.5878 46.2505 29.0269 45.669C34.5476 38.1654 37.207 31.8212 36.9414 22.4498C36.9304 21.7057 36.9194 20.9616 36.9081 20.195C36.8798 18.3788 36.84 16.5637 36.7894 14.748Z" fill="#808080"/>
<path d="M143.803 23.665C146.746 23.665 149.688 23.665 152.721 23.665C152.721 34.3664 152.721 45.0678 152.721 56.0934C149.778 56.0934 146.835 56.0934 143.803 56.0934C143.803 45.3921 143.803 34.6907 143.803 23.665Z" fill="#808080"/>
<path d="M243.52 23.665C246.462 23.665 249.405 23.665 252.437 23.665C252.437 34.3664 252.437 45.0678 252.437 56.0934C249.494 56.0934 246.552 56.0934 243.52 56.0934C243.52 45.3921 243.52 34.6907 243.52 23.665Z" fill="#808080"/>
<path d="M301.892 20.4238C302.159 20.4238 302.427 20.4238 302.702 20.4238C302.97 22.2966 303.237 24.1693 303.513 26.0988C307.125 25.6975 307.125 25.6975 310.809 25.2881C310.809 28.5309 310.809 28.5309 309.999 30.1523C308.661 30.1523 307.323 30.1523 305.945 30.1523C305.945 38.7134 305.945 47.2745 305.945 56.0951C305.678 56.0951 305.41 56.0951 305.134 56.0951C304.867 53.6872 304.599 51.2794 304.324 48.7987C303.521 50.8052 303.521 50.8052 302.702 52.8522C301.351 52.8522 300 52.8522 298.649 52.8522C298.658 52.0987 298.668 51.3452 298.677 50.5689C298.818 41.8533 298.818 41.8533 297.027 33.3952C297.295 32.8601 297.562 32.325 297.838 31.7738C298.373 31.7738 298.908 31.7738 299.459 31.7738C299.727 28.5634 299.995 25.3529 300.27 22.0452C300.805 22.0452 301.34 22.0452 301.892 22.0452C301.892 21.5102 301.892 20.9751 301.892 20.4238Z" fill="#808080"/>
<path d="M181.906 17.18C192.45 16.6873 192.45 16.6873 195.992 18.852C197.648 21.845 197.861 23.537 197.31 26.9085C195.796 28.8258 194.618 29.8759 192.445 30.962C188.93 31.075 185.424 30.9965 181.906 30.962C181.906 26.4139 181.906 21.8659 181.906 17.18Z" fill="white"/>
<path d="M122.413 32.1081C124.522 32.6266 125.415 33.1311 126.879 34.7113C128.547 37.7143 129.097 38.9601 128.399 42.3117C126.403 45.7883 126.403 45.7883 124.345 47.1759C121.796 47.7844 119.605 47.7316 117.049 47.1759C114.722 45.7216 113.408 44.7579 112.184 42.3117C111.74 39.0515 112.088 37.6202 113.704 34.7113C116.22 31.9949 118.847 31.8845 122.413 32.1081Z" fill="white"/>
<path d="M224.924 32.1934C227.767 32.8983 228.937 34.2695 230.549 36.6365C231.109 40.1248 230.967 41.6706 229.029 44.6423C226.84 46.8304 226.097 47.1212 222.999 47.5304C220.009 47.1757 220.009 47.1757 217.628 45.0983C216.176 43.0528 215.903 42.0126 215.449 39.4233C215.956 36.6365 215.956 36.6365 217.577 34.255C220.282 32.3957 221.712 31.9683 224.924 32.1934Z" fill="white"/>
<path d="M157.585 6.6416C158.923 6.6416 160.26 6.6416 161.639 6.6416C160.836 7.84551 160.836 7.84551 160.017 9.07373C159.782 11.1549 159.782 11.1549 159.833 13.5174C159.833 14.4261 159.833 15.3349 159.833 16.2712C159.842 17.2517 159.85 18.2322 159.859 19.2424C159.861 20.2467 159.863 21.2509 159.866 22.2856C159.873 24.9526 159.888 27.6194 159.906 30.2863C159.922 33.0089 159.93 35.7315 159.938 38.454C159.956 43.7939 159.983 49.1337 160.017 54.4735C162.157 54.741 164.298 55.0085 166.503 55.2842C166.503 39.2321 166.503 23.1801 166.503 6.6416C166.77 6.6416 167.038 6.6416 167.313 6.6416C167.313 22.9612 167.313 39.2808 167.313 56.0949C164.103 56.0949 160.893 56.0949 157.585 56.0949C157.585 39.7753 157.585 23.4557 157.585 6.6416Z" fill="#808080"/>
<path d="M117.86 23.6657C124.809 23.4341 124.809 23.4341 127.589 25.2872C127.589 25.8222 127.589 26.3573 127.589 26.9086C128.124 26.9086 128.659 26.9086 129.21 26.9086C129.21 25.8385 129.21 24.7683 129.21 23.6657C132.153 23.6657 135.096 23.6657 138.128 23.6657C138.128 34.3671 138.128 45.0685 138.128 56.0941C135.185 56.0941 132.242 56.0941 129.21 56.0941C129.478 55.2915 129.745 54.4889 130.021 53.662C130.021 54.1971 130.021 54.7321 130.021 55.2834C132.429 55.2834 134.837 55.2834 137.317 55.2834C137.05 45.9197 136.782 36.556 136.507 26.9086C132.346 27.8359 132.346 27.8359 128.4 29.3407C128.4 28.8056 128.4 28.2706 128.4 27.7193C127.597 27.9868 126.794 28.2544 125.967 28.53C125.967 29.3326 125.967 30.1352 125.967 30.9621C124.264 31.3924 122.557 31.8128 120.85 32.2289C119.9 32.464 118.95 32.6991 117.971 32.9414C115.428 33.3943 115.428 33.3943 112.996 32.5836C112.996 32.0485 112.996 31.5134 112.996 30.9621C115.939 30.1595 118.882 29.3569 121.914 28.53C122.181 27.1923 122.449 25.8547 122.725 24.4765C121.119 24.4765 119.514 24.4765 117.86 24.4765C117.86 24.2089 117.86 23.9414 117.86 23.6657Z" fill="#808080"/>
<path d="M250.006 7.45122C252.387 8.71796 252.387 8.71796 254.059 10.6941C254.16 13.5822 254.16 13.5822 253.248 16.369C251.123 18.2586 249.963 18.8199 247.117 18.7505C244.601 17.7826 243.43 16.9859 241.898 14.7476C241.949 11.8088 241.949 11.8088 242.709 9.07264C245.557 7.17421 246.653 7.04892 250.006 7.45122Z" fill="#808080"/>
<path d="M150.288 7.45228C152.619 9.0737 152.619 9.0737 154.342 10.6951C154.081 13.0434 153.844 15.0073 152.67 17.0795C150.1 18.5714 147.503 18.4249 144.613 17.9915C142.992 17.0795 142.992 17.0795 142.181 15.5594C141.743 12.6162 141.805 11.2447 143.499 8.76968C146.016 7.04716 147.29 6.96272 150.288 7.45228Z" fill="#808080"/>
<path d="M172.178 8.26172C179.401 8.26172 186.625 8.26172 194.067 8.26172C194.067 8.52925 194.067 8.79679 194.067 9.07243C192.513 9.21274 190.959 9.34644 189.405 9.47778C188.107 9.59065 188.107 9.59065 186.783 9.7058C182.461 9.94124 178.128 9.88314 173.799 9.88314C173.799 24.5975 173.799 39.3119 173.799 54.4722C175.939 54.4722 178.08 54.4722 180.285 54.4722C180.552 49.9241 180.82 45.376 181.096 40.6901C181.363 40.6901 181.631 40.6901 181.906 40.6901C181.906 45.7733 181.906 50.8564 181.906 56.0936C178.696 56.0936 175.485 56.0936 172.178 56.0936C172.178 40.3091 172.178 24.5246 172.178 8.26172Z" fill="#808080"/>
<path d="M12.4682 11.5049C13.7349 12.5183 13.7349 12.5183 14.9003 13.937C14.647 15.7104 14.647 15.7104 14.0896 17.1799C13.287 16.9123 12.4844 16.6448 11.6575 16.3691C9.73517 20.3926 8.06461 24.038 7.60392 28.5298C7.06885 28.5298 6.53379 28.5298 5.9825 28.5298C5.9825 27.7272 5.9825 26.9246 5.9825 26.0977C5.44743 25.8301 4.91237 25.5626 4.36108 25.2869C2.42289 28.3881 2.28594 31.4456 1.92895 35.0155C1.66142 35.0155 1.39389 35.0155 1.11824 35.0155C0.376536 27.7138 2.16029 20.9225 6.22952 14.7699C7.24924 13.633 7.24924 13.633 9.22534 12.3156C11.1001 12.4676 11.1001 12.4676 12.4682 13.1263C12.4682 12.5912 12.4682 12.0562 12.4682 11.5049Z" fill="#808080"/>
<path d="M122.414 32.1087C124.523 32.6272 125.416 33.1317 126.879 34.7118C128.519 37.663 129.045 39.0122 128.399 42.3122C126.778 44.2377 126.778 44.2377 125.157 45.5551C125.157 45.02 125.157 44.4849 125.157 43.9336C124.622 43.3986 124.086 42.8635 123.535 42.3122C123.788 41.2271 124.061 40.1465 124.346 39.0694C124.039 37.2963 124.039 37.2963 123.535 35.8265C121.662 35.8265 119.79 35.8265 117.86 35.8265C117.593 36.3616 117.325 36.8967 117.049 37.448C116.514 37.448 115.979 37.448 115.428 37.448C115.462 38.3509 115.495 39.2538 115.529 40.1841C115.428 43.1229 115.428 43.1229 113.807 44.7443C111.893 41.8734 111.721 40.8306 112.185 37.448C114.783 32.772 117.084 31.7746 122.414 32.1087Z" fill="white"/>
<path d="M66.7854 19.6123C67.8555 19.6123 68.9257 19.6123 70.0282 19.6123C70.2958 20.1474 70.5633 20.6824 70.8389 21.2337C71.6415 21.5013 72.4441 21.7688 73.2711 22.0444C73.5386 21.5094 73.8061 20.9743 74.0818 20.423C74.3493 20.6905 74.6168 20.9581 74.8925 21.2337C75.4275 20.9662 75.9626 20.6987 76.5139 20.423C76.7313 21.0417 76.9486 21.6604 77.1726 22.2978C78.0901 24.3743 78.8749 25.4469 80.5674 26.9087C80.2999 27.4438 80.0324 27.9788 79.7567 28.5301C77.884 28.2626 76.0113 27.995 74.0818 27.7194C73.8142 26.9168 73.5467 26.1142 73.2711 25.2873C72.736 25.0197 72.2009 24.7522 71.6496 24.4766C72.1349 26.3831 72.6786 28.2755 73.2711 30.1515C73.8061 30.4191 74.3412 30.6866 74.8925 30.9622C73.5548 31.2298 72.2171 31.4973 70.8389 31.773C67.1203 27.2147 66.6924 25.3778 66.7854 19.6123Z" fill="#808080"/>
<path d="M34.3573 37.4482C35.1599 37.9833 35.9625 38.5184 36.7894 39.0697C36.572 39.6549 36.3546 40.2401 36.1307 40.8431C35.6958 43.3372 35.6958 43.3372 37.9548 45.4033C38.6403 45.9886 39.3259 46.5738 40.0322 47.1768C40.1158 46.6584 40.1994 46.1401 40.2856 45.606C40.5615 44.7783 40.5615 44.7783 40.8429 43.9339C41.6455 43.6664 42.4481 43.3989 43.2751 43.1232C43.0075 44.4609 42.74 45.7986 42.4644 47.1768C41.9293 47.1768 41.3942 47.1768 40.8429 47.1768C40.8429 47.7118 40.8429 48.2469 40.8429 48.7982C33.2182 49.6008 33.2182 49.6008 25.4395 50.4196C26.518 49.015 26.518 49.015 27.6182 47.5821C30.0702 44.3206 32.2563 40.9437 34.3573 37.4482Z" fill="#808080"/>
<path d="M301.891 20.4238C302.159 20.4238 302.426 20.4238 302.702 20.4238C302.969 22.2966 303.237 24.1693 303.513 26.0988C307.124 25.6975 307.124 25.6975 310.809 25.2881C310.809 28.5309 310.809 28.5309 309.998 30.1523C308.661 30.1523 307.323 30.1523 305.945 30.1523C305.945 38.7134 305.945 47.2745 305.945 56.0951C305.677 56.0951 305.41 56.0951 305.134 56.0951C304.866 47.2664 304.599 38.4378 304.323 29.3416C301.831 29.9711 301.831 29.9711 300.27 31.7738C299.433 29.2648 299.479 28.1042 299.814 25.5414C299.896 24.8862 299.979 24.2309 300.064 23.5558C300.132 23.0573 300.2 22.5588 300.27 22.0452C300.805 22.0452 301.34 22.0452 301.891 22.0452C301.891 21.5102 301.891 20.9751 301.891 20.4238Z" fill="#808080"/>
<path d="M296.217 11.5049C299.16 11.5049 302.103 11.5049 305.135 11.5049C305.135 15.5179 305.135 19.5309 305.135 23.6655C307.275 23.6655 309.415 23.6655 311.62 23.6655C311.62 26.0733 311.62 28.4811 311.62 30.9619C309.748 30.9619 307.875 30.9619 305.945 30.9619C305.945 30.6944 305.945 30.4268 305.945 30.1512C307.283 29.8837 308.621 29.6161 309.999 29.3405C309.999 28.5379 309.999 27.7353 309.999 26.9084C310.266 26.3733 310.534 25.8382 310.81 25.2869C309.882 25.4876 309.882 25.4876 308.935 25.6923C306.756 26.0977 306.756 26.0977 304.324 26.0977C303.459 23.2908 303.431 20.7142 303.463 17.7879C303.47 16.9142 303.477 16.0406 303.485 15.1404C303.494 14.4758 303.503 13.8111 303.513 13.1263C301.509 13.4056 301.509 13.4056 299.46 13.937C298.529 15.7986 298.399 17.2423 298.193 19.308C298.125 19.9705 298.057 20.6331 297.987 21.3157C297.938 21.8236 297.889 22.3315 297.838 22.8548C297.303 22.8548 296.768 22.8548 296.217 22.8548C296.217 19.1093 296.217 15.3639 296.217 11.5049Z" fill="#808080"/>
<path d="M16.5216 38.2588C17.4571 40.1298 17.7655 41.8845 18.143 43.9338C17.3404 44.2013 16.5378 44.4688 15.7108 44.7445C15.7108 45.5471 15.7108 46.3497 15.7108 47.1766C16.2459 47.1766 16.781 47.1766 17.3323 47.1766C18.6497 48.3927 18.6497 48.3927 19.7644 49.6087C15.9135 52.0409 15.9135 52.0409 14.0894 52.0409C13.5544 53.111 13.0193 54.1811 12.468 55.2837C11.6654 54.7486 10.8628 54.2136 10.0359 53.6623C9.88387 50.7235 9.88387 50.7235 10.0359 47.9873C10.5709 47.7198 11.106 47.4522 11.6573 47.1766C11.6573 46.374 11.6573 45.5714 11.6573 44.7445C12.1924 44.7445 12.7274 44.7445 13.2787 44.7445C13.6299 43.8165 13.6299 43.8165 13.9881 42.8697C14.9001 40.6909 14.9001 40.6909 16.5216 38.2588Z" fill="#808080"/>
<path d="M65.9746 42.3128C67.6791 42.2034 69.3855 42.1248 71.0922 42.0595C72.0422 42.0125 72.9921 41.9654 73.9709 41.917C76.5138 42.3128 76.5138 42.3128 78.0181 44.2541C78.3243 44.9512 78.6305 45.6482 78.946 46.3664C79.2135 46.9015 79.481 47.4365 79.7567 47.9878C77.5948 46.9069 75.4329 45.8259 73.271 44.745C73.271 44.4774 73.271 44.2099 73.271 43.9343C71.9333 43.6667 70.5957 43.3992 69.2174 43.1236C69.8419 45.9514 69.8419 45.9514 70.8389 48.7985C71.6415 49.0661 72.4441 49.3336 73.271 49.6092C73.271 50.1443 73.271 50.6794 73.271 51.2307C74.3411 51.4982 75.4113 51.7657 76.5138 52.0414C76.7814 53.379 77.0489 54.7167 77.3245 56.0949C72.5525 54.4724 69.4283 52.372 66.7853 47.9878C66.2 46.0048 66.0598 44.4 65.9746 42.3128Z" fill="#808080"/>
<path d="M122.724 22.8556C122.724 23.1232 122.724 23.3907 122.724 23.6664C121.119 23.6664 119.514 23.6664 117.86 23.6664C117.8 24.1795 117.741 24.6926 117.68 25.2213C117.368 26.0568 117.368 26.0568 117.049 26.9092C115.431 27.5584 115.431 27.5584 113.452 27.9732C110.679 28.6813 110.679 28.6813 108.911 30.7537C108.405 32.4969 108.405 32.4969 108.132 35.0163C106.096 33.9985 105.804 32.989 104.889 30.9627C109.979 24.1761 114.329 22.2475 122.724 22.8556Z" fill="#808080"/>
<path d="M199.742 13.9375C200.277 13.9375 200.812 13.9375 201.363 13.9375C201.58 14.5729 201.798 15.2083 202.022 15.8629C202.861 18.219 202.861 18.219 205.417 19.6125C204.881 22.8229 204.346 26.0333 203.795 29.341C201.789 28.5384 201.789 28.5384 199.742 27.7196C199.206 27.9871 198.671 28.2546 198.12 28.5303C198.978 25.7713 199.749 23.655 201.363 21.2339C200.828 21.2339 200.293 21.2339 199.742 21.2339C199.206 19.6287 198.671 18.0235 198.12 16.3696C198.655 16.1021 199.19 15.8346 199.742 15.5589C199.742 15.0239 199.742 14.4888 199.742 13.9375Z" fill="#808080"/>
<path d="M117.86 24.4766C119.465 24.4766 121.071 24.4766 122.724 24.4766C122.724 26.3513 122.724 26.3513 121.914 28.5301C119.059 30.1688 116.277 30.9622 112.996 30.9622C112.728 32.0324 112.461 33.1025 112.185 34.2051C111.115 33.67 110.045 33.1349 108.942 32.5837C109.094 31.1142 109.094 31.1142 109.753 29.3408C112.136 27.6018 114.228 26.8033 117.049 26.098C117.317 25.5629 117.585 25.0278 117.86 24.4766Z" fill="#808080"/>
<path d="M206.227 17.9912C208.622 21.9214 207.852 25.7864 207.038 30.1519C205.771 32.736 205.771 32.736 204.606 34.2054C203.803 33.4028 203.001 32.6002 202.174 31.7733C202.575 30.5694 202.575 30.5694 202.985 29.3411C203.143 28.1449 203.276 26.945 203.39 25.7436C203.615 23.3635 203.846 21.0772 204.606 18.8019C205.141 18.5344 205.676 18.2669 206.227 17.9912Z" fill="#808080"/>
<path d="M27.0596 55.2833C28.0795 55.2499 29.0995 55.2165 30.1504 55.182C30.7241 55.1632 31.2979 55.1444 31.889 55.125C33.5452 55.2833 33.5452 55.2833 35.9774 56.9048C35.7098 57.4398 35.4423 57.9749 35.1667 58.5262C35.7017 58.5262 36.2368 58.5262 36.7881 58.5262C37.0556 57.9911 37.3232 57.456 37.5988 56.9048C38.4014 56.9048 39.204 56.9048 40.0309 56.9048C40.0309 57.9749 40.0309 59.045 40.0309 60.1476C38.4095 61.769 38.4095 61.769 35.7684 61.9274C34.7338 61.9086 33.6992 61.8897 32.6332 61.8704C31.075 61.8484 31.075 61.8484 29.4854 61.826C28.2846 61.7978 28.2846 61.7978 27.0596 61.769C27.0596 61.234 27.0596 60.6989 27.0596 60.1476C29.8687 59.7463 29.8687 59.7463 32.7345 59.3369C29.9254 57.7317 29.9254 57.7317 27.0596 56.0941C27.0596 55.8265 27.0596 55.559 27.0596 55.2833Z" fill="#808080"/>
<path d="M11.6568 14.748C12.6702 16.0148 12.6702 16.0148 13.2782 17.9909C11.8088 20.8284 11.8088 20.8284 10.8809 22.2218C7.496 28.0027 8.85727 36.7906 10.0354 43.1229C9.23276 42.8554 8.43016 42.5878 7.60324 42.3122C7.42147 40.1507 7.25491 37.9897 7.09654 35.8265C7.04429 35.2235 6.99204 34.6205 6.9382 33.9992C6.4444 26.9008 8.50532 21.051 11.6568 14.748Z" fill="#808080"/>
<path d="M36.7891 14.748C41.3493 19.3083 41.3493 19.3083 42.464 22.8551C41.929 23.3902 41.3939 23.9253 40.8426 24.4766C40.3075 24.209 39.7725 23.9415 39.2212 23.6659C39.2306 24.2323 39.24 24.7987 39.2497 25.3823C39.2607 26.489 39.2607 26.489 39.2719 27.6181C39.2813 28.3517 39.2907 29.0853 39.3004 29.8412C39.2212 31.773 39.2212 31.773 38.4105 33.3944C37.8754 33.3944 37.3403 33.3944 36.7891 33.3944C36.7891 27.2411 36.7891 21.0878 36.7891 14.748Z" fill="#808080"/>
<path d="M50.5713 45.5547C51.3739 46.6248 52.1765 47.695 53.0034 48.7975C51.3982 49.6001 51.3982 49.6001 49.7606 50.4189C50.0365 51.0961 50.0365 51.0961 50.3179 51.787C50.5713 53.6618 50.5713 53.6618 49.7099 55.7392C47.799 58.1433 46.1362 59.0745 43.2749 60.1475C42.4723 59.8799 41.6697 59.6124 40.8428 59.3368C40.8428 58.8017 40.8428 58.2666 40.8428 57.7153C43.2506 57.1803 45.6584 56.6452 48.1392 56.0939C48.1392 55.0238 48.1392 53.9536 48.1392 52.8511C46.8015 52.5835 45.4638 52.316 44.0856 52.0404C46.2475 49.8785 48.4094 47.7166 50.5713 45.5547Z" fill="#808080"/>
<path d="M4.36105 18.8018C5.96626 19.3368 7.57146 19.8719 9.22531 20.4232C8.69024 23.0985 8.15517 25.7739 7.60389 28.5303C7.06882 28.5303 6.53375 28.5303 5.98247 28.5303C5.98247 27.7277 5.98247 26.9251 5.98247 26.0981C5.4474 25.8306 4.91233 25.5631 4.36105 25.2874C2.42286 28.3885 2.28591 31.4461 1.92892 35.016C1.66139 35.016 1.39385 35.016 1.11821 35.016C0.646542 28.858 1.71092 24.3623 4.36105 18.8018Z" fill="#808080"/>
<path d="M182.717 30.9619C186.73 30.9619 190.743 30.9619 194.878 30.9619C194.878 31.497 194.878 32.0321 194.878 32.5833C192.47 32.182 192.47 32.182 190.013 31.7726C190.799 32.107 191.585 32.4415 192.395 32.786C194.878 34.2048 194.878 34.2048 195.587 35.9782C195.62 36.4631 195.654 36.948 195.688 37.4476C193.548 37.1801 191.408 36.9125 189.203 36.6369C189.203 35.2992 189.203 33.9615 189.203 32.5833C186.795 32.5833 184.387 32.5833 181.906 32.5833C182.174 32.0483 182.441 31.5132 182.717 30.9619Z" fill="#808080"/>
<path d="M14.0882 51.231C18.6737 50.7725 21.5682 52.2737 25.4382 54.4739C22.8212 56.2185 21.9651 56.2581 18.9525 56.0953C18.9525 55.5602 18.9525 55.0252 18.9525 54.4739C17.3473 54.4739 15.7421 54.4739 14.0882 54.4739C13.8207 55.009 13.5531 55.544 13.2775 56.0953C13.01 55.5602 12.7424 55.0252 12.4668 54.4739C13.2268 52.7511 13.2268 52.7511 14.0882 51.231Z" fill="#808080"/>
<path d="M57.8675 17.9912C61.4467 21.7331 61.9839 27.038 62.1237 32.0266C61.9443 34.673 61.7455 36.0902 60.2996 38.259C59.6149 35.9202 59.4594 33.9961 59.5903 31.5706C59.6574 27.0602 58.2571 23.6346 56.2461 19.6126C56.7812 19.6126 57.3162 19.6126 57.8675 19.6126C57.8675 19.0776 57.8675 18.5425 57.8675 17.9912Z" fill="#808080"/>
<path d="M49.7604 11.5049C52.5911 12.0291 54.7037 13.0942 57.0568 14.7477C57.3243 15.5503 57.5919 16.3529 57.8675 17.1799C57.3324 17.1799 56.7974 17.1799 56.2461 17.1799C56.2461 16.6448 56.2461 16.1097 56.2461 15.5584C55.711 15.5584 55.176 15.5584 54.6247 15.5584C54.3571 16.0935 54.0896 16.6286 53.814 17.1799C53.5464 16.3772 53.2789 15.5746 53.0033 14.7477C52.4682 14.4802 51.9331 14.2127 51.3818 13.937C51.4989 14.3718 51.6159 14.8065 51.7365 15.2544C52.2692 17.5035 52.6402 19.7622 53.0033 22.0441C52.5351 21.4422 52.0669 20.8402 51.5845 20.22C49.8361 17.9971 49.8361 17.9971 47.9363 16.2171C46.5176 14.7477 46.5176 14.7477 46.5176 13.1263C47.0526 13.1263 47.5877 13.1263 48.139 13.1263C48.139 13.6614 48.139 14.1964 48.139 14.7477C48.6741 14.7477 49.2091 14.7477 49.7604 14.7477C49.7604 13.6776 49.7604 12.6074 49.7604 11.5049Z" fill="#808080"/>
<path d="M89.4847 9.07227C90.0198 9.07227 90.5549 9.07227 91.1061 9.07227C91.3737 9.87487 91.6412 10.6775 91.9169 11.5044C91.1143 11.9057 91.1143 11.9057 90.2954 12.3151C91.6331 13.1177 92.9708 13.9203 94.349 14.7472C93.8139 15.8174 93.2788 16.8875 92.7276 17.9901C92.7276 17.455 92.7276 16.9199 92.7276 16.3687C91.6574 16.6362 90.5873 16.9037 89.4847 17.1794C89.2172 18.2495 88.9497 19.3196 88.674 20.4222C88.1601 17.1458 87.7627 14.0123 87.8633 10.6937C88.3984 10.6937 88.9334 10.6937 89.4847 10.6937C89.4847 10.1586 89.4847 9.62355 89.4847 9.07227Z" fill="#808080"/>
<path d="M152.468 10.1369C153.396 10.4128 153.396 10.4128 154.342 10.6943C154.07 13.2401 153.489 13.9784 151.606 15.8119C150.553 16.4891 150.553 16.4891 149.478 17.1799C148.675 16.9124 147.873 16.6449 147.046 16.3692C147.339 14.1977 147.646 12.632 148.87 10.7956C150.289 9.88354 150.289 9.88354 152.468 10.1369Z" fill="#808080"/>
<path d="M215.145 26.9082C217.017 26.9082 218.89 26.9082 220.82 26.9082C221.087 27.9783 221.355 29.0485 221.63 30.151C220.594 30.2681 219.557 30.3851 218.489 30.5057C216.558 30.7237 215.271 30.8987 213.523 31.7725C213.523 31.2374 213.523 30.7023 213.523 30.151C212.186 30.6861 210.848 31.2212 209.47 31.7725C209.47 30.9699 209.47 30.1673 209.47 29.3403C212.51 28.4283 212.51 28.4283 214.334 29.3403C214.602 28.5377 214.869 27.7351 215.145 26.9082Z" fill="#808080"/>
<path d="M250.005 7.4515C251.931 8.66757 251.931 8.66757 253.248 9.88363C252.221 11.9384 251.272 12.2453 249.194 13.1265C248.659 13.1265 248.124 13.1265 247.573 13.1265C247.356 12.6248 247.138 12.1232 246.914 11.6064C245.988 9.6408 245.988 9.6408 243.52 8.26221C245.797 7.12351 247.482 7.24967 250.005 7.4515Z" fill="#808080"/>
<path d="M91.1058 9.07227C95.3352 11.4753 97.0976 13.5968 99.2129 17.9901C99.2129 18.5251 99.2129 19.0602 99.2129 19.6115C98.4103 19.6115 97.6077 19.6115 96.7808 19.6115C96.5132 17.7388 96.2457 15.866 95.9701 13.9365C95.1674 14.2041 94.3648 14.4716 93.5379 14.7472C91.3591 13.9872 91.3591 13.9872 89.4844 13.1258C90.0194 11.7881 90.5545 10.4505 91.1058 9.07227Z" fill="#808080"/>
<path d="M33.5459 2.58789C35.9537 2.85542 38.3615 3.12296 40.8423 3.3986C40.8423 3.93367 40.8423 4.46874 40.8423 5.02002C39.5046 5.02002 38.1669 5.02002 36.7887 5.02002C37.0563 5.82262 37.3238 6.62523 37.5994 7.45215C40.0073 7.85345 40.0073 7.85345 42.4637 8.26286C42.1962 8.79793 41.9286 9.333 41.653 9.88428C39.7803 9.61674 37.9075 9.34921 35.978 9.07357C35.1754 6.93329 34.3728 4.79302 33.5459 2.58789Z" fill="#808080"/>
<path d="M99.2137 47.9873C98.3951 50.9344 97.6357 52.0057 95.2108 53.9663C93.9818 54.6184 93.9818 54.6184 92.728 55.2837C91.9254 55.0162 91.1228 54.7486 90.2959 54.473C90.831 54.473 91.366 54.473 91.9173 54.473C92.1347 53.8543 92.3521 53.2356 92.576 52.5982C94.2396 48.8333 94.9872 47.9873 99.2137 47.9873Z" fill="#808080"/>
<path d="M18.3964 48.3413C19.0736 48.9683 19.0736 48.9683 19.7645 49.608C17.3552 51.1473 15.2937 52.3276 12.4681 52.8509C11.933 51.7807 11.398 50.7106 10.8467 49.608C11.3817 49.608 11.9168 49.608 12.4681 49.608C12.4681 49.073 12.4681 48.5379 12.4681 47.9866C16.0602 46.889 16.0602 46.889 18.3964 48.3413Z" fill="#808080"/>
<path d="M242.709 9.07227C243.944 11.4535 244.98 13.8691 245.952 16.3687C246.755 16.1011 247.558 15.8336 248.384 15.5579C249.187 16.3605 249.99 17.1631 250.817 17.9901C248.292 18.7835 247.052 18.906 244.534 17.9901C242.709 16.3687 242.709 16.3687 242 13.4805C241.899 10.6937 241.899 10.6937 242.709 9.07227Z" fill="#808080"/>
<path d="M55.4349 48.7979C55.292 50.7269 54.8697 51.7993 53.4873 53.1586C52.2679 54.1657 51.0155 55.1325 49.7599 56.0942C49.2026 54.2195 49.2026 54.2195 48.9492 52.0407C50.8045 49.567 52.3368 48.7979 55.4349 48.7979Z" fill="#808080"/>
<path d="M51.4833 9.63095C52.9827 10.6805 54.2059 11.7746 55.4355 13.1271C55.168 13.6622 54.9005 14.1973 54.6248 14.7486C54.2737 14.364 53.9226 13.9794 53.5608 13.5832C52.174 12.1244 52.174 12.1244 49.7606 11.5057C49.7606 12.5759 49.7606 13.646 49.7606 14.7486C49.2255 14.7486 48.6904 14.7486 48.1392 14.7486C48.1392 14.2135 48.1392 13.6784 48.1392 13.1271C47.3366 13.3947 46.534 13.6622 45.707 13.9378C45.707 12.8677 45.707 11.7976 45.707 10.695C49.2684 8.91434 49.2684 8.91434 51.4833 9.63095Z" fill="#808080"/>
<path d="M118.873 22.7537C119.596 22.7684 120.319 22.783 121.064 22.7981C121.886 22.8263 121.886 22.8263 122.724 22.8551C122.724 23.1226 122.724 23.3901 122.724 23.6658C122.176 23.7546 121.629 23.8434 121.064 23.935C120.341 24.0635 119.618 24.192 118.873 24.3245C118.158 24.4468 117.443 24.569 116.707 24.695C114.446 25.3355 113.194 26.2695 111.374 27.7193C109.144 28.2767 109.144 28.2767 107.32 28.53C111.085 24.5563 113.323 22.6077 118.873 22.7537Z" fill="#808080"/>
<path d="M214.334 52.041C215.003 52.2918 215.672 52.5426 216.361 52.8011C219.516 53.7587 222.41 54.1345 225.684 54.4731C225.417 55.0082 225.149 55.5433 224.873 56.0946C220.411 56.357 217.223 56.5266 213.523 53.6624C213.791 53.1274 214.059 52.5923 214.334 52.041Z" fill="#808080"/>
<path d="M87.8634 54.4729C88.3985 55.008 88.9336 55.5431 89.4849 56.0943C86.9317 56.9454 85.1166 56.9872 82.4418 56.9557C81.6361 56.9484 80.8303 56.9411 80.0002 56.9335C79.0769 56.9194 79.0769 56.9194 78.1349 56.905C77.8674 56.37 77.5999 55.8349 77.3242 55.2836C80.8844 54.589 84.2353 54.2636 87.8634 54.4729Z" fill="#808080"/>
<path d="M269.462 25.2871C271.354 27.1788 273.246 29.0704 275.137 30.9621C273.264 31.4971 271.392 32.0322 269.462 32.5835C268.927 32.0484 268.392 31.5134 267.841 30.9621C268.376 30.427 268.911 29.8919 269.462 29.3407C268.927 28.5381 268.392 27.7355 267.841 26.9085C268.376 26.3735 268.911 25.8384 269.462 25.2871Z" fill="#808080"/>
<path d="M43.2749 24.4766C45.4853 26.3855 46.5077 28.1579 47.3285 30.9622C47.0244 32.837 47.0244 32.837 46.5177 34.2051C46.2502 34.2051 45.9827 34.2051 45.707 34.2051C45.6569 33.6031 45.6067 33.0012 45.555 32.381C44.7003 29.4879 43.2756 28.593 40.8428 26.9087C41.6535 25.2873 41.6535 25.2873 43.2749 24.4766Z" fill="#808080"/>
<path d="M73.2707 9.88379C73.5382 9.88379 73.8057 9.88379 74.0814 9.88379C74.0814 11.2215 74.0814 12.5591 74.0814 13.9373C73.563 14.0377 73.0447 14.138 72.5106 14.2414C71.6829 14.4922 71.6829 14.4922 70.8385 14.748C70.571 15.2831 70.3035 15.8182 70.0278 16.3695C69.2332 17.1959 68.4242 18.0091 67.5957 18.8016C67.9323 14.875 69.5917 13.2759 72.46 10.6945C72.7275 10.427 72.995 10.1594 73.2707 9.88379Z" fill="#808080"/>
<path d="M111.374 52.8516C115.12 53.6542 118.865 54.4568 122.724 55.2837C121.103 56.9051 121.103 56.9051 119.462 56.9431C118.833 56.8637 118.204 56.7843 117.556 56.7024C116.931 56.6314 116.306 56.5603 115.662 56.4871C113.743 56.0809 112.271 55.4243 110.563 54.473C110.831 53.9379 111.099 53.4028 111.374 52.8516Z" fill="#808080"/>
<path d="M4.36051 26.0977C4.89558 26.0977 5.43065 26.0977 5.98193 26.0977C7.02222 29.2185 6.8465 31.73 6.79264 35.0155C5.99004 35.4168 5.99004 35.4168 5.17122 35.8262C4.63616 35.2911 4.10109 34.756 3.5498 34.2048C3.56881 32.273 3.56881 32.273 3.85382 30.0499C3.9437 29.3121 4.03357 28.5742 4.12617 27.8141C4.2035 27.2477 4.28084 26.6812 4.36051 26.0977Z" fill="#808080"/>
<path d="M172.988 45.5547C173.256 45.5547 173.523 45.5547 173.799 45.5547C173.799 47.9625 173.799 50.3703 173.799 52.8511C175.404 53.2524 175.404 53.2524 177.042 53.6618C177.845 53.9293 178.647 54.1969 179.474 54.4725C179.474 53.9374 179.474 53.4024 179.474 52.8511C180.009 52.8511 180.544 52.8511 181.095 52.8511C180.828 53.6537 180.56 54.4563 180.285 55.2832C175.297 55.3624 175.297 55.3624 173.799 55.2832C172.988 54.4725 172.988 54.4725 172.909 52.4426C172.919 51.6243 172.928 50.806 172.938 49.9629C172.945 49.1426 172.952 48.3222 172.96 47.477C172.969 46.8426 172.979 46.2083 172.988 45.5547Z" fill="#808080"/>
<path d="M258.112 23.665C261.055 23.665 263.998 23.665 267.03 23.665C267.03 24.4676 267.03 25.2702 267.03 26.0972C265.42 26.0708 263.81 26.0444 262.201 26.018C260.38 26.0302 260.38 26.0302 258.112 26.9079C258.112 25.8377 258.112 24.7676 258.112 23.665Z" fill="#808080"/>
<path d="M29.4918 0.155273C31.6927 2.35613 32.0396 4.45732 32.7347 7.45166C32.4671 7.98673 32.1996 8.5218 31.924 9.07308C31.1214 8.80555 30.3188 8.53801 29.4918 8.26237C28.7215 5.26646 28.7215 3.15118 29.4918 0.155273Z" fill="#808080"/>
<path d="M30.3037 43.9336C30.5712 43.9336 30.8388 43.9336 31.1144 43.9336C31.2147 44.569 31.3151 45.2044 31.4184 45.859C31.7558 48.1011 31.7558 48.1011 33.5465 49.6086C30.8712 49.8761 28.1959 50.1436 25.4395 50.4193C29.1605 45.3523 29.1605 45.3523 30.3037 43.9336Z" fill="#808080"/>
<path d="M65.9746 42.3128C67.6791 42.2034 69.3855 42.1248 71.0922 42.0595C72.0422 42.0125 72.9921 41.9654 73.9709 41.917C76.5138 42.3128 76.5138 42.3128 78.0181 44.2541C78.3243 44.9512 78.6305 45.6482 78.946 46.3664C79.2135 46.9015 79.481 47.4365 79.7567 47.9878C77.5948 46.9069 75.4329 45.8259 73.271 44.745C73.271 44.4774 73.271 44.2099 73.271 43.9343C70.8632 43.6667 68.4554 43.3992 65.9746 43.1236C65.9746 42.856 65.9746 42.5885 65.9746 42.3128Z" fill="#808080"/>
<path d="M254.06 10.6943C253.792 12.5671 253.525 14.4398 253.249 16.3693C252.446 16.3693 251.644 16.3693 250.817 16.3693C250.817 15.8342 250.817 15.2992 250.817 14.7479C250.014 14.4804 249.212 14.2128 248.385 13.9372C251.324 10.6943 251.324 10.6943 254.06 10.6943Z" fill="#808080"/>
<path d="M309.188 51.2305C310.258 51.7655 311.328 52.3006 312.431 52.8519C312.163 53.922 311.896 54.9922 311.62 56.0947C310.282 55.8272 308.945 55.5597 307.566 55.284C308.276 52.1425 308.276 52.1425 309.188 51.2305Z" fill="#808080"/>
<path d="M3.54992 19.6123C4.08499 20.4149 4.62006 21.2175 5.17134 22.0444C4.60997 23.6216 4.03892 25.197 3.39158 26.7408C2.39437 29.4759 2.18668 32.1243 1.9285 35.0158C1.66097 35.0158 1.39343 35.0158 1.11779 35.0158C0.798974 29.3597 1.41698 24.8685 3.54992 19.6123Z" fill="#808080"/>
<path d="M27.0605 3.39725C26.793 5.26999 26.5255 7.14273 26.2498 9.07222C25.9823 8.53715 25.7148 8.00208 25.4391 7.4508C24.9041 7.4508 24.369 7.4508 23.8177 7.4508C23.8177 6.91573 23.8177 6.38066 23.8177 5.82938C23.2826 5.82938 22.7476 5.82938 22.1963 5.82938C22.1963 5.02678 22.1963 4.22417 22.1963 3.39725C24.2157 2.38754 24.9615 2.76752 27.0605 3.39725Z" fill="#808080"/>
<path d="M32.736 58.5263C33.0035 59.0614 33.2711 59.5964 33.5467 60.1477C31.4064 60.1477 29.2662 60.1477 27.061 60.1477C27.061 60.6828 27.061 61.2179 27.061 61.7691C26.2584 61.5016 25.4558 61.2341 24.6289 60.9584C27.4324 58.0275 28.721 57.3939 32.736 58.5263Z" fill="#808080"/>
<path d="M229.738 52.8516C230.541 53.3866 231.343 53.9217 232.17 54.473C228.216 57.1094 224.692 56.9969 220.01 56.9051C220.01 56.6376 220.01 56.37 220.01 56.0944C221.289 55.7433 221.289 55.7433 222.594 55.385C225.587 54.5797 225.587 54.5797 227.914 53.4596C228.516 53.2589 229.118 53.0583 229.738 52.8516Z" fill="#808080"/>
<path d="M90.2962 35.8264C90.5638 37.4316 90.8313 39.0368 91.1069 40.6907C90.505 40.3228 89.903 39.9549 89.2828 39.5759C87.4836 38.5128 85.6917 37.5428 83.8105 36.6371C86.2974 35.1272 87.5377 34.8412 90.2962 35.8264Z" fill="#808080"/>
<path d="M71.6504 24.4766C74.2132 25.5871 74.8873 26.0891 76.5146 28.5301C76.5146 29.3327 76.5146 30.1353 76.5146 30.9622C75.4445 30.6947 74.3744 30.4272 73.2718 30.1515C73.2718 29.6165 73.2718 29.0814 73.2718 28.5301C72.7367 28.2626 72.2017 27.995 71.6504 27.7194C71.6504 26.6493 71.6504 25.5791 71.6504 24.4766Z" fill="#808080"/>
<path d="M76.5132 23.665C77.8509 24.7352 79.1885 25.8053 80.5667 26.9079C80.2992 27.4429 80.0317 27.978 79.756 28.5293C77.8833 28.2618 76.0105 27.9942 74.0811 27.7186C74.3851 26.1478 74.3851 26.1478 74.8918 24.4757C75.4268 24.2082 75.9619 23.9407 76.5132 23.665Z" fill="#808080"/>
<path d="M290.541 23.665C292.414 23.9326 294.286 24.2001 296.216 24.4757C294.696 25.3371 294.696 25.3371 292.973 26.0972C292.438 25.8296 291.903 25.5621 291.352 25.2865C291.352 26.8917 291.352 28.4969 291.352 30.1507C292.689 30.1507 294.027 30.1507 295.405 30.1507C295.405 30.4183 295.405 30.6858 295.405 30.9614C293.8 30.9614 292.195 30.9614 290.541 30.9614C290.541 28.5536 290.541 26.1458 290.541 23.665Z" fill="#808080"/>
<path d="M276.911 22.7537C278.441 22.8039 278.441 22.8039 280.002 22.8551C278.457 24.8295 277.565 25.2885 275.087 25.9459C273.908 26.0211 273.908 26.0211 272.705 26.0979C272.17 25.5628 271.635 25.0278 271.084 24.4765C273.588 22.807 274.091 22.6613 276.911 22.7537Z" fill="#808080"/>
<path d="M145.424 7.45195C149.984 7.24928 149.984 7.24928 152.72 9.07337C152.453 9.60844 152.185 10.1435 151.91 10.6948C149.502 10.4273 147.094 10.1597 144.613 9.88408C144.881 9.08148 145.148 8.27888 145.424 7.45195Z" fill="#808080"/>
<path d="M303.513 48.7979C303.781 48.7979 304.048 48.7979 304.324 48.7979C304.591 50.9381 304.859 53.0784 305.134 55.2835C302.459 55.2835 299.784 55.2835 297.027 55.2835C299.459 53.6621 299.459 53.6621 301.182 52.9527C302.865 52.1626 302.865 52.1626 303.31 50.3179C303.377 49.8163 303.444 49.3147 303.513 48.7979Z" fill="#808080"/>
<path d="M267.03 28.5303C268.601 28.8343 268.601 28.8343 270.273 29.341C270.541 29.8761 270.808 30.4111 271.084 30.9624C270.281 31.3637 270.281 31.3637 269.463 31.7731C268.878 33.1056 268.333 34.457 267.841 35.8267C267.306 35.5591 266.771 35.2916 266.22 35.016C266.487 32.8757 266.755 30.7354 267.03 28.5303Z" fill="#808080"/>
<path d="M206.228 17.9912C207.775 20.5651 207.98 22.1306 207.545 25.0849C207.455 25.7329 207.366 26.3808 207.273 27.0484C207.196 27.5374 207.118 28.0265 207.039 28.5304C206.771 28.5304 206.504 28.5304 206.228 28.5304C205.693 25.32 205.158 22.1096 204.606 18.8019C205.142 18.5344 205.677 18.2669 206.228 17.9912Z" fill="#808080"/>
<path d="M28.6818 6.6416C29.7519 7.4442 30.8221 8.24681 31.9246 9.07373C32.1922 8.53866 32.4597 8.00359 32.7354 7.45231C33.0029 9.05752 33.2704 10.6627 33.5461 12.3166C33.2785 11.7815 33.011 11.2464 32.7354 10.6951C31.3977 10.6951 30.06 10.6951 28.6818 10.6951C28.4143 11.2302 28.1467 11.7653 27.8711 12.3166C28.1386 10.4438 28.4062 8.57109 28.6818 6.6416Z" fill="#808080"/>
<path d="M36.7891 14.748C37.8592 15.8182 38.9293 16.8883 40.0319 17.9909C39.9939 20.081 39.9939 20.081 39.4239 22.2471C39.2441 22.9703 39.0644 23.6935 38.8792 24.4386C38.7245 24.9862 38.5698 25.5338 38.4105 26.098C38.1429 26.098 37.8754 26.098 37.5998 26.098C37.3322 22.3525 37.0647 18.607 36.7891 14.748Z" fill="#808080"/>
<path d="M89.4844 13.127C91.4605 13.431 91.4605 13.431 93.5379 13.9377C93.8055 14.4727 94.073 15.0078 94.3486 15.5591C93.546 16.763 93.546 16.763 92.7272 17.9912C92.7272 17.4561 92.7272 16.9211 92.7272 16.3698C91.6571 16.6373 90.5869 16.9049 89.4844 17.1805C89.4844 15.8428 89.4844 14.5052 89.4844 13.127Z" fill="#808080"/>
<path d="M44.0856 43.123C44.8882 43.6581 45.6908 44.1932 46.5177 44.7445C46.2502 45.8146 45.9827 46.8847 45.707 47.9873C44.1018 47.9873 42.4966 47.9873 40.8428 47.9873C41.3778 47.7198 41.9129 47.4522 42.4642 47.1766C43.0492 45.8441 43.5939 44.4927 44.0856 43.123Z" fill="#808080"/>
<path d="M25.4391 42.3115C26.2417 43.1141 27.0443 43.9167 27.8713 44.7437C26.5336 46.0813 25.1959 47.419 23.8177 48.7972C23.2826 48.2621 22.7476 47.7271 22.1963 47.1758C22.7314 47.1758 23.2664 47.1758 23.8177 47.1758C23.8177 46.3732 23.8177 45.5706 23.8177 44.7437C24.3528 44.7437 24.8878 44.7437 25.4391 44.7437C25.4391 43.941 25.4391 43.1384 25.4391 42.3115Z" fill="#808080"/>
<path d="M276.759 31.7734C277.829 32.041 278.899 32.3085 280.002 32.5841C280.002 35.527 280.002 38.4699 280.002 41.502C279.734 41.502 279.467 41.502 279.191 41.502C278.38 38.2591 277.569 35.0163 276.759 31.7734Z" fill="#808080"/>
<path d="M89.485 29.3408C90.8227 29.6084 92.1604 29.8759 93.5386 30.1515C93.0035 30.6866 92.4684 31.2217 91.9172 31.7729C91.6496 32.308 91.3821 32.8431 91.1064 33.3944C88.6986 32.9931 88.6986 32.9931 86.2422 32.5837C86.2422 32.0486 86.2422 31.5135 86.2422 30.9622C87.3123 30.9622 88.3825 30.9622 89.485 30.9622C89.485 30.4272 89.485 29.8921 89.485 29.3408Z" fill="#808080"/>
<path d="M78.9463 52.8516C81.3541 52.8516 83.7619 52.8516 86.2427 52.8516C85.9751 53.3866 85.7076 53.9217 85.432 54.473C83.2847 54.9542 81.1417 55.0746 78.9463 55.2837C78.9463 54.4811 78.9463 53.6785 78.9463 52.8516Z" fill="#808080"/>
<path d="M74.8916 46.3662C78.3695 46.9013 81.8475 47.4363 85.4308 47.9876C85.4308 48.2552 85.4308 48.5227 85.4308 48.7983C82.488 49.0659 79.5451 49.3334 76.513 49.609C75.978 48.5389 75.4429 47.4688 74.8916 46.3662Z" fill="#808080"/>
<path d="M244.33 25.2871C246.203 25.5546 248.076 25.8222 250.005 26.0978C248.967 27.4821 247.883 28.8329 246.762 30.1514C246.227 30.1514 245.692 30.1514 245.141 30.1514C244.873 28.5462 244.606 26.941 244.33 25.2871Z" fill="#808080"/>
<path d="M252.438 23.6659C252.438 24.4685 252.438 25.2712 252.438 26.0981C249.702 26.1994 249.702 26.1994 246.763 26.0981C246.228 25.563 245.693 25.0279 245.142 24.4767C247.633 23.7384 249.845 23.5939 252.438 23.6659Z" fill="#808080"/>
<path d="M7.60368 43.9336C8.94135 43.9336 10.279 43.9336 11.6572 43.9336C11.9248 45.2713 12.1923 46.6089 12.4679 47.9871C8.61707 47.2778 8.61707 47.2778 6.79297 46.3657C7.0605 45.5631 7.32804 44.7605 7.60368 43.9336Z" fill="#808080"/>
<path d="M278.381 23.665C283.042 24.2731 283.042 24.2731 284.867 26.0972C284.599 26.6322 284.331 27.1673 284.056 27.7186C282.718 27.7186 281.38 27.7186 280.002 27.7186C280.27 26.6485 280.537 25.5783 280.813 24.4757C280.01 24.2082 279.208 23.9407 278.381 23.665Z" fill="#808080"/>
<path d="M67.5957 25.2871C68.1308 25.2871 68.6658 25.2871 69.2171 25.2871C72.46 29.6745 72.46 29.6745 72.46 31.7728C69.8972 30.6622 69.223 30.1602 67.5957 27.7192C67.5957 26.9166 67.5957 26.114 67.5957 25.2871Z" fill="#808080"/>
<path d="M66.7852 19.6123C67.8553 19.6123 68.9254 19.6123 70.028 19.6123C70.2955 20.4149 70.5631 21.2175 70.8387 22.0444C69.724 23.2605 69.724 23.2605 68.4066 24.4766C67.8715 24.4766 67.3364 24.4766 66.7852 24.4766C66.7852 22.8714 66.7852 21.2662 66.7852 19.6123Z" fill="#808080"/>
<path d="M31.1141 43.9336C31.9167 44.2011 32.7194 44.4687 33.5463 44.7443C33.5463 45.8144 33.5463 46.8846 33.5463 47.9871C34.6164 48.2547 35.6865 48.5222 36.7891 48.7979C35.1681 48.8323 33.5459 48.8309 31.9249 48.7979C31.1141 47.9871 31.1141 47.9871 31.0635 45.9097C31.0802 45.2576 31.0969 44.6055 31.1141 43.9336Z" fill="#808080"/>
<path d="M202.984 29.3408C204.055 29.3408 205.125 29.3408 206.227 29.3408C205.96 30.6785 205.692 32.0162 205.417 33.3944C204.614 33.3944 203.811 33.3944 202.984 33.3944C202.984 32.0432 202.984 30.692 202.984 29.3408Z" fill="#808080"/>
<path d="M74.0825 9.88379C75.1527 10.4189 76.2228 10.9539 77.3254 11.5052C75.7202 13.913 75.7202 13.913 74.0825 16.3695C73.2799 15.8344 72.4773 15.2993 71.6504 14.748C72.1855 14.4805 72.7205 14.213 73.2718 13.9373C73.8033 11.8884 73.8033 11.8884 74.0825 9.88379Z" fill="#808080"/>
<path d="M151.099 9.88379C152.771 10.2385 152.771 10.2385 154.342 10.6945C154.088 12.2146 154.088 12.2146 153.531 13.9373C152.728 14.4724 151.926 15.0075 151.099 15.5588C150.79 13.9443 150.521 12.3218 150.288 10.6945C150.556 10.427 150.823 10.1594 151.099 9.88379Z" fill="#808080"/>
<path d="M42.4644 7.45215C43.267 7.71968 44.0696 7.98722 44.8965 8.26286C44.8965 9.60053 44.8965 10.9382 44.8965 12.3164C43.2913 11.7813 41.6861 11.2463 40.0322 10.695C40.8348 9.62485 41.6374 8.55471 42.4644 7.45215Z" fill="#808080"/>
<path d="M231.36 50.4199C232.965 50.4199 234.57 50.4199 236.224 50.4199C235.21 52.0413 235.21 52.0413 233.792 53.6628C232.722 53.6628 231.651 53.6628 230.549 53.6628C230.816 52.5926 231.084 51.5225 231.36 50.4199Z" fill="#808080"/>
<path d="M56.2459 43.123C56.5135 43.6581 56.781 44.1932 57.0566 44.7445C56.2966 46.8726 56.2966 46.8726 55.4352 48.798C54.3651 48.798 53.2949 48.798 52.1924 48.798C52.1924 48.2629 52.1924 47.7279 52.1924 47.1766C52.7275 47.1766 53.2625 47.1766 53.8138 47.1766C54.19 46.3991 54.19 46.3991 54.5738 45.6058C55.4352 43.9338 55.4352 43.9338 56.2459 43.123Z" fill="#808080"/>
<path d="M91.1064 41.501C91.909 41.7685 92.7117 42.036 93.5386 42.3117C93.5386 43.9169 93.5386 45.5221 93.5386 47.1759C93.0035 47.1759 92.4684 47.1759 91.9172 47.1759C91.6496 45.3032 91.3821 43.4305 91.1064 41.501Z" fill="#808080"/>
<path d="M2.73926 38.2588C4.36068 39.0695 4.36068 39.0695 5.3234 40.9443C6.01148 43.2202 5.98152 44.1785 5.17139 46.3659C3.52212 43.3422 2.73926 41.7699 2.73926 38.2588Z" fill="#808080"/>
<path d="M218.388 26.9082C219.191 26.9082 219.993 26.9082 220.82 26.9082C221.088 27.9783 221.355 29.0485 221.631 30.151C220.026 30.151 218.42 30.151 216.767 30.151C217.302 29.0809 217.837 28.0108 218.388 26.9082Z" fill="#808080"/>
<path d="M213.523 25.2871C214.326 25.5546 215.128 25.8222 215.955 26.0978C215.42 27.168 214.885 28.2381 214.334 29.3407C212.996 29.3407 211.658 29.3407 210.28 29.3407C211.35 28.003 212.421 26.6653 213.523 25.2871Z" fill="#808080"/>
<path d="M106.51 48.7979C107.848 49.6005 109.185 50.4031 110.563 51.23C110.296 52.0326 110.028 52.8352 109.753 53.6621C108.415 52.3244 107.077 50.9868 105.699 49.6086C105.967 49.341 106.234 49.0735 106.51 48.7979Z" fill="#808080"/>
<path d="M28.6816 30.1514C29.2167 30.1514 29.7518 30.1514 30.3031 30.1514C30.5706 31.7566 30.8381 33.3618 31.1138 35.0156C30.3112 35.2832 29.5086 35.5507 28.6816 35.8263C28.6816 33.9536 28.6816 32.0809 28.6816 30.1514Z" fill="#808080"/>
<path d="M42.4641 22.0449C42.9992 22.8475 43.5342 23.6501 44.0855 24.4771C42.7343 25.8282 41.3832 27.1794 40.032 28.5306C39.88 26.1998 39.88 26.1998 40.032 23.6663C40.8346 23.1313 41.6372 22.5962 42.4641 22.0449Z" fill="#808080"/>
</svg>
