<svg width="234" height="65" viewBox="0 0 234 65" fill="none" xmlns="http://www.w3.org/2000/svg">
<path d="M0.535638 0.123104C3.91787 0.0960795 7.30003 0.0764465 10.6823 0.0634176C11.831 0.0579813 12.9796 0.0505876 14.1282 0.0411346C15.7871 0.0278325 17.4459 0.0217624 19.1048 0.0169948C19.6115 0.0113867 20.1182 0.0057787 20.6403 7.16591e-07C27.0167 -0.00106933 33.4189 1.19594 38.2532 5.64715C41.0458 8.89705 41.8249 11.6053 41.8249 15.8782C38.06 15.8782 34.295 15.8782 30.416 15.8782C30.416 14.6232 30.416 13.3683 30.416 12.0753C30.0245 11.9373 29.6331 11.7993 29.2297 11.6572C27.0963 10.7251 25.4097 9.3394 23.572 7.92638C22.3627 7.09327 22.3627 7.09327 21.2036 7.20696C19.6585 7.93374 18.3934 8.90017 17.0378 9.93609C14.2332 12.0753 14.2332 12.0753 13.0311 12.0753C13.2103 13.6888 13.3896 15.3023 13.5743 16.9648C16.6843 18.0771 19.7097 18.8891 22.9514 19.5101C30.1977 20.9085 37.4071 22.4795 41.8249 28.9169C42.6963 30.6599 42.491 32.5388 42.504 34.4516C42.5152 34.8553 42.5264 35.259 42.5379 35.675C42.5672 39.8554 41.2321 42.8778 38.4251 45.992C36.8473 47.4142 35.0799 48.2132 33.1324 49.0183C32.6842 49.2312 32.236 49.444 31.7742 49.6634C24.7087 51.9597 15.689 51.1832 9.02438 48.1015C4.60473 45.7012 2.63882 43.0131 0.986139 38.309C0.128267 34.9077 0.271353 31.4581 0.32342 27.9768C0.327483 27.1692 0.330571 26.3617 0.332738 25.5541C0.340957 23.4489 0.362236 21.344 0.386422 19.239C0.408822 17.0828 0.418614 14.9265 0.429529 12.7703C0.452697 8.5544 0.48969 4.3388 0.535638 0.123104Z" fill="#808080"/>
<path d="M62.2333 12.5128C66.7162 12.3215 70.9566 13.2786 74.6248 15.9805C77.6181 19.1877 79.3843 22.7047 79.3722 27.1119C79.3722 27.8621 79.3722 27.8621 79.3721 28.6275C79.3693 29.163 79.3665 29.6984 79.3636 30.2501C79.3628 30.8017 79.3621 31.3533 79.3613 31.9216C79.3582 33.6819 79.3514 35.4421 79.3445 37.2023C79.3418 38.3964 79.3393 39.5905 79.3371 40.7846C79.3311 43.7104 79.3217 46.6362 79.3105 49.5619C76.2627 49.5619 73.215 49.5619 70.0748 49.5619C69.8955 48.6655 69.7162 47.7691 69.5315 46.8455C69.2227 47.029 68.9138 47.2125 68.5956 47.4016C63.7371 50.208 59.4165 51.2975 53.7764 50.6485C49.7339 49.3739 47.1353 47.2889 45.0266 43.6304C43.904 41.0175 44.2899 37.9976 45.1179 35.3348C46.4274 32.2486 48.9492 30.3788 51.9428 29.0192C54.5153 28.1141 56.7681 27.7625 59.4915 27.7777C60.0465 27.7795 60.6015 27.7812 61.1733 27.783C61.7465 27.7876 62.3197 27.7921 62.9103 27.7968C63.494 27.7993 64.0777 27.8017 64.6791 27.8042C66.1155 27.8106 67.5519 27.8195 68.9882 27.8308C68.9196 27.1416 68.851 26.4525 68.7803 25.7425C68.7224 25.1611 68.7224 25.1611 68.6633 24.5679C68.4996 23.3545 68.4996 23.3545 67.4263 22.1263C64.8819 20.905 62.5234 20.8954 59.7525 21.3114C58.031 22.1426 58.031 22.1426 57.0361 23.4845C56.8568 24.2017 56.6775 24.9188 56.4928 25.6576C53.0864 25.6576 49.6801 25.6576 46.1705 25.6576C46.1705 21.7158 47.1215 19.9178 49.7803 17.1074C53.492 13.7308 57.3656 12.8833 62.2333 12.5128Z" fill="#808080"/>
<path d="M131.466 13.7051C134.693 13.7051 137.92 13.7051 141.245 13.7051C143.241 18.3688 145.034 23.0703 146.719 27.8521C147.126 29.0031 147.535 30.1527 147.946 31.3022C148.206 32.0364 148.466 32.7707 148.726 33.5051C148.959 34.1635 149.192 34.8218 149.432 35.5002C149.937 37.0661 149.937 37.0661 149.937 38.1527C150.296 38.1527 150.654 38.1527 151.024 38.1527C151.078 37.808 151.132 37.4633 151.188 37.1081C151.709 34.8114 152.498 32.635 153.284 30.4173C153.452 29.9388 153.62 29.4603 153.793 28.9673C154.328 27.4445 154.866 25.9227 155.404 24.4009C155.768 23.3664 156.132 22.3318 156.496 21.2972C157.386 18.7657 158.28 16.2354 159.173 13.7051C162.579 13.7051 165.986 13.7051 169.495 13.7051C168.884 17.3722 168.884 17.3722 168.187 19.1381C167.955 19.7338 167.955 19.7338 167.718 20.3416C167.55 20.7637 167.381 21.1859 167.208 21.6208C166.944 22.2942 166.944 22.2942 166.674 22.9812C166.101 24.4404 165.523 25.8977 164.945 27.355C164.548 28.3616 164.152 29.3683 163.755 30.3751C163.158 31.8911 162.56 33.4069 161.961 34.9222C160.783 37.9037 159.618 40.8899 158.469 43.8826C158.203 44.5708 157.937 45.259 157.671 45.9472C157.196 47.1792 156.724 48.4123 156.254 49.6467C151.847 61.0012 151.847 61.0012 147.221 63.1435C143.974 64.1385 141.095 64.3696 137.714 64.298C137.267 64.2931 136.82 64.2882 136.36 64.2831C135.272 64.2705 134.184 64.251 133.096 64.2301C133.096 61.3616 133.096 58.493 133.096 55.5376C133.743 55.5236 134.391 55.5096 135.059 55.4952C135.91 55.4646 136.761 55.4334 137.612 55.4018C138.039 55.3941 138.465 55.3864 138.905 55.3784C141.35 55.3058 141.35 55.3058 143.407 54.12C144.939 50.5295 144.438 48.2546 143.062 44.7098C142.842 44.1693 142.622 43.6288 142.395 43.0719C142.172 42.5031 141.948 41.9344 141.718 41.3484C141.003 39.5328 140.275 37.7222 139.547 35.9116C139.07 34.7065 138.593 33.5011 138.117 32.2954C137.209 29.9984 136.298 27.7027 135.383 25.4084C135.176 24.8908 134.97 24.3733 134.758 23.84C134.4 22.9427 134.042 22.0454 133.683 21.1482C133.282 20.1411 132.885 19.1324 132.489 18.1235C132.285 17.6088 132.081 17.0942 131.871 16.5639C131.466 15.3349 131.466 15.3349 131.466 13.7051Z" fill="#808080"/>
<path d="M199.375 14.2486C202.616 16.4109 205.048 19.1178 206.215 22.8916C206.464 24.1607 206.503 25.325 206.5 26.6183C206.499 27.3849 206.499 27.3849 206.499 28.1669C206.497 28.7142 206.494 29.2615 206.491 29.8254C206.49 30.3891 206.489 30.9528 206.489 31.5336C206.486 33.3326 206.479 35.1315 206.472 36.9305C206.469 38.1508 206.467 39.371 206.464 40.5913C206.458 43.5815 206.449 46.5716 206.438 49.5618C203.211 49.5618 199.984 49.5618 196.659 49.5618C196.651 48.8712 196.643 48.1806 196.635 47.469C196.603 44.8992 196.561 42.3296 196.516 39.7599C196.498 38.6492 196.483 37.5384 196.471 36.4276C196.452 34.8279 196.424 33.2287 196.394 31.6293C196.39 31.1351 196.387 30.641 196.383 30.1318C196.319 27.3413 196.043 25.3545 194.486 22.9411C192.346 21.4299 189.943 21.5001 187.423 21.8545C184.978 23.077 183.67 24.2737 182.534 26.744C182.281 28.5345 182.268 30.3133 182.256 32.1195C182.246 32.6342 182.236 33.1489 182.226 33.6792C182.197 35.3175 182.178 36.9558 182.16 38.5943C182.142 39.7074 182.123 40.8205 182.104 41.9336C182.056 44.6574 182.024 47.3809 181.99 50.105C178.584 50.105 175.178 50.105 171.668 50.105C171.668 38.0931 171.668 26.0812 171.668 13.7053C174.895 13.7053 178.122 13.7053 181.447 13.7053C181.806 14.4225 182.164 15.1396 182.534 15.8784C182.828 15.6887 183.123 15.4989 183.427 15.3033C183.816 15.0561 184.204 14.8089 184.605 14.5542C184.989 14.3084 185.374 14.0626 185.77 13.8093C189.836 11.4379 195.276 12.3532 199.375 14.2486Z" fill="#808080"/>
<path d="M78.7676 13.7051C82.1739 13.7051 85.5803 13.7051 89.0899 13.7051C90.2537 17.0011 91.4142 20.2982 92.5716 23.5965C92.9659 24.7187 93.3612 25.8406 93.7574 26.9622C94.3261 28.5729 94.8916 30.1847 95.4564 31.7967C95.6347 32.2993 95.813 32.8019 95.9966 33.3197C96.1598 33.7873 96.3229 34.2549 96.491 34.7366C96.6358 35.148 96.7805 35.5594 96.9297 35.9832C97.2391 37.0661 97.2391 37.0661 97.2391 38.6959C98.5723 37.5093 99.1801 36.5406 99.7435 34.8536C99.8939 34.4113 100.044 33.9689 100.199 33.5132C100.356 33.0378 100.512 32.5624 100.673 32.0726C100.838 31.5831 101.003 31.0936 101.173 30.5892C101.7 29.0259 102.22 27.4605 102.74 25.8949C103.265 24.3279 103.791 22.7612 104.318 21.1948C104.645 20.22 104.971 19.2448 105.295 18.269C105.516 17.6081 105.516 17.6081 105.741 16.9339C105.87 16.5455 105.999 16.1571 106.132 15.757C106.475 14.7916 106.475 14.7916 107.018 13.7051C110.424 13.7051 113.831 13.7051 117.34 13.7051C116.16 17.7859 114.799 21.7667 113.332 25.7527C113.107 26.3656 112.883 26.9786 112.652 27.6101C112.181 28.8965 111.71 30.1826 111.237 31.4684C110.514 33.436 109.794 35.4043 109.073 37.3728C108.614 38.6267 108.155 39.8805 107.695 41.1343C107.48 41.7212 107.265 42.3081 107.043 42.9128C106.842 43.4606 106.641 44.0085 106.433 44.5729C106.257 45.0524 106.081 45.5318 105.9 46.0258C105.387 47.3929 104.844 48.749 104.302 50.1048C100.178 50.1048 96.0547 50.1048 91.8063 50.1048C90.5606 46.7347 89.3149 43.3647 88.0692 39.9946C87.6473 38.853 87.2253 37.7115 86.8034 36.5699C86.6002 36.0204 86.3971 35.4708 86.1878 34.9047C85.985 34.3562 85.7823 33.8077 85.5734 33.2426C85.1665 32.1414 84.7598 31.0401 84.3534 29.9387C83.3795 27.3 82.4029 24.6623 81.4185 22.0275C81.2403 21.5489 81.0621 21.0703 80.8786 20.5772C80.5447 19.6805 80.2095 18.7843 79.8727 17.8887C78.7676 14.914 78.7676 14.914 78.7676 13.7051Z" fill="#808080"/>
<path d="M214.044 3.38281C217.45 3.38281 220.856 3.38281 224.366 3.38281C224.366 6.78918 224.366 10.1955 224.366 13.7051C226.876 13.7051 229.386 13.7051 231.972 13.7051C231.972 16.3944 231.972 19.0836 231.972 21.8543C229.462 21.8543 226.952 21.8543 224.366 21.8543C224.545 27.9499 224.725 34.0455 224.909 40.3258C226.448 41.0953 227.884 41.0572 229.595 41.1747C230.738 41.2531 231.881 41.3316 233.059 41.4124C233.059 44.2809 233.059 47.1494 233.059 50.1049C221.312 50.561 221.312 50.561 217.416 47.0553C214.488 43.9186 213.876 40.7392 213.938 36.5101C213.939 36.1047 213.941 35.6994 213.942 35.2817C213.948 33.9976 213.962 32.7137 213.976 31.4296C213.981 30.5546 213.986 29.6795 213.991 28.8045C214.003 26.6688 214.021 24.5332 214.044 22.3976C211.892 22.3976 209.741 22.3976 207.524 22.3976C207.524 19.5291 207.524 16.6606 207.524 13.7051C209.676 13.7051 211.827 13.7051 214.044 13.7051C214.044 10.2988 214.044 6.8924 214.044 3.38281Z" fill="#808080"/>
<path d="M118.971 13.1621C122.377 13.1621 125.783 13.1621 129.293 13.1621C129.293 25.3533 129.293 37.5445 129.293 50.1051C125.887 50.1051 122.48 50.1051 118.971 50.1051C118.971 37.9139 118.971 25.7227 118.971 13.1621Z" fill="#808080"/>
<path d="M0.535156 0.123047C5.91362 0.123047 11.2921 0.123047 16.8335 0.123047C16.8335 0.302329 16.8335 0.481611 16.8335 0.666326C16.4133 0.752466 15.9932 0.838605 15.5602 0.927355C10.2982 2.10611 6.34521 3.72274 3.25155 8.27224C1.76372 11.8856 1.36718 16.4601 2.84409 20.1565C5.17728 24.3229 8.02833 26.2764 12.4873 27.8303C15.2808 28.6124 18.0997 29.2846 20.9331 29.9057C24.0182 30.6036 26.3002 31.2853 28.7857 33.2631C29.1218 33.4984 29.458 33.7337 29.8043 33.9762C30.8736 35.58 30.6597 36.8266 30.4155 38.6959C29.3861 39.9654 28.1417 40.7931 26.7823 41.6839C26.2723 42.0537 26.2723 42.0537 25.752 42.4309C24.2575 43.4575 23.2721 44.1237 21.4344 44.1435C19.6422 43.3977 18.0147 42.5008 16.3921 41.4462C16.0675 41.261 15.7429 41.0758 15.4085 40.8849C14.48 40.2769 14.48 40.2769 13.0306 38.6959C13.0306 36.9031 13.0306 35.1102 13.0306 33.2631C8.90709 33.2631 4.7836 33.2631 0.535156 33.2631C0.535156 22.3269 0.535156 11.3907 0.535156 0.123047Z" fill="#FBFBFC"/>
<path d="M224.366 13.1621C227.056 13.1621 229.745 13.1621 232.516 13.1621C232.978 19.517 233.127 25.8073 233.093 32.1769C233.09 33.0795 233.088 33.9822 233.085 34.8848C233.079 37.0608 233.07 39.2367 233.059 41.4126C231.916 41.442 230.773 41.4631 229.629 41.4806C228.993 41.4932 228.356 41.5058 227.7 41.5188C225.996 41.4126 225.996 41.4126 224.366 40.3261C224.221 38.9002 224.177 37.6039 224.207 36.1793C224.209 35.7709 224.212 35.3624 224.214 34.9416C224.223 33.635 224.244 32.3289 224.264 31.0224C224.273 30.1375 224.28 29.2525 224.287 28.3676C224.305 26.1964 224.333 24.0256 224.366 21.8546C226.876 21.8546 229.386 21.8546 231.972 21.8546C231.972 19.1653 231.972 16.4761 231.972 13.7054C229.462 13.7054 226.952 13.7054 224.366 13.7054C224.366 13.5261 224.366 13.3468 224.366 13.1621Z" fill="#F4F4F5"/>
<path d="M61.6264 34.2963C62.0869 34.2981 62.5473 34.2998 63.0217 34.3016C63.5004 34.3062 63.9791 34.3107 64.4722 34.3154C65.1997 34.3191 65.1997 34.3191 65.9419 34.3228C67.1384 34.3292 68.335 34.3382 69.5315 34.3494C69.1594 37.7588 68.6793 39.0592 66.2719 41.412C64.234 42.4326 62.5295 42.6597 60.2618 42.6683C59.4288 42.682 59.4288 42.682 58.5789 42.6959C56.831 42.4723 56.0908 42.1196 54.863 40.8687C54.5574 39.0012 54.5574 39.0012 54.863 37.0658C56.9211 34.952 58.729 34.2769 61.6264 34.2963Z" fill="#F6F6F7"/>
</svg>
