<svg width="233" height="65" viewBox="0 0 233 65" fill="none" xmlns="http://www.w3.org/2000/svg">
<path d="M0.311523 0.124023C77.0443 0.124023 153.777 0.124023 232.835 0.124023C232.835 21.2793 232.835 42.4346 232.835 64.231C156.102 64.231 79.3696 64.231 0.311523 64.231C0.311523 43.0757 0.311523 21.9204 0.311523 0.124023Z" fill="#FCFCFC"/>
<path d="M0.312006 0.124081C3.69423 0.0970561 7.0764 0.0774231 10.4587 0.0643941C11.6073 0.0589578 12.756 0.0515641 13.9046 0.0421112C15.5635 0.028809 17.2222 0.0227389 18.8811 0.0179713C19.3878 0.0123633 19.8946 0.00675526 20.4166 0.000977279C26.7931 -9.27696e-05 33.1953 1.19692 38.0296 5.64813C40.8222 8.89803 41.6012 11.6063 41.6012 15.8792C37.8363 15.8792 34.0714 15.8792 30.1924 15.8792C30.1924 14.6242 30.1924 13.3692 30.1924 12.0762C29.8009 11.9383 29.4094 11.8003 29.0061 11.6582C26.8727 10.7261 25.1861 9.34038 23.3483 7.92736C22.1391 7.09425 22.1391 7.09425 20.98 7.20794C19.4348 7.93471 18.1698 8.90115 16.8141 9.93707C14.0095 12.0762 14.0095 12.0762 12.8074 12.0762C12.9867 13.6898 13.166 15.3033 13.3507 16.9657C16.4606 18.078 19.486 18.89 22.7277 19.511C29.9741 20.9094 37.1834 22.4805 41.6012 28.9179C42.4727 30.6608 42.2674 32.5398 42.2803 34.4526C42.2915 34.8563 42.3028 35.26 42.3143 35.676C42.3436 39.8564 41.0085 42.8788 38.2015 45.993C36.6236 47.4152 34.8562 48.2142 32.9088 49.0192C32.4606 49.2321 32.0124 49.445 31.5506 49.6644C24.4851 51.9607 15.4654 51.1841 8.80075 48.1024C4.3811 45.7022 2.41519 43.0141 0.762506 38.3099C-0.0953654 34.9087 0.0477202 31.459 0.099787 27.9778C0.10385 27.1702 0.106939 26.3627 0.109105 25.5551C0.117324 23.4499 0.138603 21.345 0.162789 19.2399C0.18519 17.0837 0.194981 14.9275 0.205896 12.7712C0.229064 8.55537 0.266057 4.33977 0.312006 0.124081Z" fill="#1C1C3B"/>
<path d="M62.0097 12.5138C66.4926 12.3225 70.7329 13.2796 74.4011 15.9815C77.3945 19.1886 79.1607 22.7057 79.1486 27.1128C79.1485 27.8631 79.1485 27.8631 79.1485 28.6285C79.1457 29.1639 79.1429 29.6994 79.14 30.251C79.1392 30.8027 79.1384 31.3543 79.1376 31.9226C79.1346 33.6829 79.1278 35.4431 79.1209 37.2033C79.1181 38.3974 79.1157 39.5915 79.1134 40.7856C79.1075 43.7114 79.0981 46.6371 79.0869 49.5629C76.0391 49.5629 72.9913 49.5629 69.8512 49.5629C69.6719 48.6665 69.4926 47.7701 69.3079 46.8465C68.999 47.03 68.6902 47.2135 68.372 47.4025C63.5135 50.209 59.1928 51.2984 53.5528 50.6495C49.5103 49.3749 46.9116 47.2898 44.803 43.6314C43.6804 41.0185 44.0663 37.9986 44.8943 35.3358C46.2038 32.2495 48.7255 30.3797 51.7192 29.0202C54.2917 28.115 56.5444 27.7635 59.2678 27.7787C59.8228 27.7804 60.3778 27.7822 60.9497 27.784C61.5229 27.7885 62.0961 27.7931 62.6867 27.7978C63.2704 27.8002 63.8541 27.8027 64.4555 27.8052C65.8919 27.8116 67.3282 27.8205 68.7646 27.8317C68.696 27.1426 68.6273 26.4535 68.5566 25.7435C68.4987 25.1621 68.4987 25.1621 68.4396 24.5689C68.2759 23.3555 68.2759 23.3555 67.2027 22.1273C64.6583 20.906 62.2998 20.8963 59.5289 21.3124C57.8073 22.1436 57.8073 22.1436 56.8125 23.4855C56.6332 24.2026 56.4539 24.9198 56.2692 25.6586C52.8628 25.6586 49.4565 25.6586 45.9469 25.6586C45.9469 21.7168 46.8978 19.9188 49.5567 17.1083C53.2684 13.7318 57.1419 12.8843 62.0097 12.5138Z" fill="#1B1B3B"/>
<path d="M131.242 13.7061C134.469 13.7061 137.696 13.7061 141.021 13.7061C143.017 18.3698 144.81 23.0712 146.496 27.8531C146.902 29.0041 147.312 30.1537 147.722 31.3032C147.982 32.0374 148.242 32.7717 148.502 33.506C148.735 34.1644 148.968 34.8228 149.208 35.5012C149.714 37.0671 149.714 37.0671 149.714 38.1536C150.072 38.1536 150.431 38.1536 150.8 38.1536C150.854 37.8089 150.909 37.4643 150.965 37.1091C151.485 34.8124 152.274 32.636 153.06 30.4183C153.228 29.9398 153.396 29.4613 153.57 28.9683C154.105 27.4455 154.643 25.9237 155.18 24.4019C155.545 23.3674 155.909 22.3328 156.272 21.2982C157.162 18.7667 158.056 16.2364 158.949 13.7061C162.356 13.7061 165.762 13.7061 169.272 13.7061C168.661 17.3732 168.661 17.3732 167.964 19.1391C167.731 19.7348 167.731 19.7348 167.494 20.3426C167.326 20.7647 167.158 21.1869 166.984 21.6218C166.72 22.2952 166.72 22.2952 166.45 22.9822C165.877 24.4414 165.3 25.8987 164.722 27.356C164.325 28.3626 163.928 29.3693 163.532 30.3761C162.934 31.8921 162.337 33.4079 161.738 34.9232C160.559 37.9047 159.395 40.8909 158.245 43.8835C157.979 44.5718 157.714 45.26 157.448 45.9482C156.972 47.1802 156.5 48.4133 156.031 49.6477C151.623 61.0021 151.623 61.0021 146.997 63.1445C143.75 64.1395 140.871 64.3705 137.49 64.299C137.043 64.2941 136.596 64.2892 136.136 64.2841C135.048 64.2715 133.96 64.252 132.872 64.231C132.872 61.3625 132.872 58.494 132.872 55.5386C133.52 55.5246 134.168 55.5106 134.835 55.4961C135.686 55.4656 136.537 55.4344 137.388 55.4028C137.815 55.3951 138.242 55.3873 138.682 55.3794C141.126 55.3067 141.126 55.3067 143.184 54.121C144.715 50.5305 144.214 48.2556 142.838 44.7108C142.618 44.1703 142.398 43.6297 142.171 43.0729C141.948 42.5041 141.725 41.9354 141.494 41.3494C140.779 39.5338 140.051 37.7232 139.323 35.9126C138.846 34.7075 138.369 33.5021 137.893 32.2964C136.985 29.9994 136.074 27.7037 135.159 25.4094C134.953 24.8918 134.747 24.3743 134.534 23.841C134.176 22.9437 133.818 22.0464 133.46 21.1492C133.059 20.142 132.662 19.1333 132.265 18.1244C132.061 17.6098 131.858 17.0951 131.648 16.5649C131.242 15.3359 131.242 15.3359 131.242 13.7061Z" fill="#1B1B3A"/>
<path d="M199.152 14.2496C202.392 16.4119 204.824 19.1188 205.992 22.8926C206.24 24.1617 206.279 25.326 206.276 26.6193C206.276 27.3858 206.276 27.3858 206.276 28.1679C206.273 28.7152 206.27 29.2625 206.267 29.8264C206.267 30.3901 206.266 30.9538 206.265 31.5345C206.262 33.3335 206.255 35.1325 206.248 36.9315C206.245 38.1518 206.243 39.372 206.241 40.5923C206.235 43.5824 206.225 46.5726 206.214 49.5627C202.987 49.5627 199.76 49.5627 196.435 49.5627C196.427 48.8721 196.419 48.1815 196.411 47.47C196.38 44.9002 196.338 42.3306 196.293 39.7609C196.275 38.6502 196.259 37.5394 196.247 36.4285C196.229 34.8289 196.2 33.2297 196.17 31.6303C196.166 31.1361 196.163 30.6419 196.159 30.1328C196.095 27.3422 195.82 25.3555 194.262 22.9421C192.122 21.4309 189.72 21.5011 187.199 21.8555C184.754 23.078 183.446 24.2747 182.31 26.745C182.058 28.5355 182.045 30.3143 182.032 32.1205C182.022 32.6352 182.012 33.1499 182.002 33.6801C181.973 35.3185 181.955 36.9568 181.936 38.5953C181.918 39.7084 181.9 40.8215 181.88 41.9346C181.833 44.6584 181.8 47.3818 181.767 50.106C178.36 50.106 174.954 50.106 171.444 50.106C171.444 38.0941 171.444 26.0822 171.444 13.7063C174.671 13.7063 177.898 13.7063 181.223 13.7063C181.582 14.4234 181.94 15.1406 182.31 15.8794C182.605 15.6896 182.9 15.4998 183.203 15.3043C183.592 15.0571 183.981 14.8099 184.381 14.5552C184.766 14.3094 185.15 14.0635 185.546 13.8103C189.613 11.4388 195.053 12.3542 199.152 14.2496Z" fill="#1B1B3B"/>
<path d="M78.5439 13.7061C81.9503 13.7061 85.3567 13.7061 88.8663 13.7061C90.0301 17.0021 91.1905 20.2992 92.348 23.5974C92.7423 24.7197 93.1376 25.8416 93.5337 26.9632C94.1025 28.5739 94.668 30.1857 95.2328 31.7977C95.4111 32.3003 95.5893 32.8029 95.773 33.3207C95.9361 33.7882 96.0993 34.2558 96.2674 34.7376C96.4121 35.149 96.5569 35.5604 96.7061 35.9842C97.0154 37.0671 97.0154 37.0671 97.0154 38.6969C98.3487 37.5103 98.9564 36.5416 99.5199 34.8546C99.6703 34.4122 99.8207 33.9699 99.9756 33.5142C100.132 33.0388 100.288 32.5634 100.449 32.0736C100.614 31.584 100.78 31.0945 100.95 30.5902C101.476 29.0269 101.996 27.4615 102.516 25.8959C103.041 24.3288 103.567 22.7622 104.094 21.1958C104.421 20.221 104.747 19.2457 105.072 18.27C105.292 17.6091 105.292 17.6091 105.517 16.9348C105.646 16.5465 105.775 16.1581 105.908 15.7579C106.251 14.7926 106.251 14.7926 106.794 13.7061C110.201 13.7061 113.607 13.7061 117.117 13.7061C115.936 17.7869 114.575 21.7677 113.108 25.7537C112.884 26.3666 112.66 26.9795 112.428 27.611C111.958 28.8974 111.486 30.1836 111.014 31.4694C110.291 33.4369 109.57 35.4053 108.85 37.3737C108.39 38.6276 107.931 39.8815 107.471 41.1353C107.256 41.7222 107.041 42.3091 106.82 42.9137C106.618 43.4616 106.417 44.0095 106.21 44.5739C106.034 45.0534 105.858 45.5328 105.676 46.0268C105.163 47.3939 104.62 48.7499 104.078 50.1058C99.9546 50.1058 95.8311 50.1058 91.5827 50.1058C90.3369 46.7357 89.0912 43.3657 87.8456 39.9956C87.4237 38.854 87.0017 37.7124 86.5797 36.5709C86.3766 36.0213 86.1735 35.4718 85.9642 34.9056C85.7614 34.3572 85.5586 33.8087 85.3497 33.2436C84.9428 32.1424 84.5361 31.0411 84.1297 29.9397C83.1559 27.3009 82.1792 24.6633 81.1948 22.0285C81.0167 21.5499 80.8385 21.0712 80.6549 20.5781C80.3211 19.6815 79.9858 18.7853 79.6491 17.8897C78.5439 14.915 78.5439 14.915 78.5439 13.7061Z" fill="#1B1B3B"/>
<path d="M213.82 3.38379C217.226 3.38379 220.633 3.38379 224.142 3.38379C224.142 6.79015 224.142 10.1965 224.142 13.7061C226.652 13.7061 229.162 13.7061 231.748 13.7061C231.748 16.3953 231.748 19.0846 231.748 21.8553C229.238 21.8553 226.728 21.8553 224.142 21.8553C224.322 27.9509 224.501 34.0465 224.686 40.3268C226.225 41.0963 227.66 41.0582 229.372 41.1757C230.514 41.2541 231.657 41.3325 232.835 41.4134C232.835 44.2819 232.835 47.1504 232.835 50.1058C221.089 50.562 221.089 50.562 217.192 47.0562C214.264 43.9195 213.653 40.7402 213.714 36.5111C213.716 36.1057 213.717 35.7003 213.719 35.2827C213.725 33.9986 213.738 32.7147 213.752 31.4306C213.758 30.5555 213.763 29.6805 213.767 28.8055C213.779 26.6697 213.798 24.5342 213.82 22.3986C211.669 22.3986 209.517 22.3986 207.301 22.3986C207.301 19.5301 207.301 16.6615 207.301 13.7061C209.452 13.7061 211.604 13.7061 213.82 13.7061C213.82 10.2997 213.82 6.89337 213.82 3.38379Z" fill="#1C1C3B"/>
<path d="M118.747 13.1631C122.153 13.1631 125.56 13.1631 129.069 13.1631C129.069 25.3543 129.069 37.5455 129.069 50.1061C125.663 50.1061 122.257 50.1061 118.747 50.1061C118.747 37.9149 118.747 25.7237 118.747 13.1631Z" fill="#20203E"/>
<path d="M0.311523 0.124023C5.68999 0.124023 11.0685 0.124023 16.6099 0.124023C16.6099 0.303306 16.6099 0.482588 16.6099 0.667303C16.1897 0.753442 15.7695 0.839582 15.3366 0.928332C10.0745 2.10708 6.12158 3.72371 3.02792 8.27322C1.54008 11.8865 1.14354 16.4611 2.62046 20.1575C4.95364 24.3239 7.8047 26.2774 12.2637 27.8313C15.0571 28.6134 17.8761 29.2856 20.7094 29.9066C23.7946 30.6046 26.0766 31.2863 28.5621 33.2641C28.8982 33.4994 29.2344 33.7347 29.5807 33.9771C30.6499 35.581 30.4361 36.8276 30.1919 38.6969C29.1625 39.9664 27.918 40.7941 26.5587 41.6849C26.0487 42.0547 26.0487 42.0547 25.5284 42.4319C24.0339 43.4585 23.0484 44.1247 21.2108 44.1445C19.4186 43.3987 17.791 42.5018 16.1685 41.4472C15.8439 41.262 15.5193 41.0767 15.1849 40.8859C14.2564 40.2779 14.2564 40.2779 12.807 38.6969C12.807 36.904 12.807 35.1112 12.807 33.2641C8.68346 33.2641 4.55997 33.2641 0.311523 33.2641C0.311523 22.3279 0.311523 11.3916 0.311523 0.124023Z" fill="#FBFBFC"/>
<path d="M224.143 13.1631C226.832 13.1631 229.521 13.1631 232.292 13.1631C232.755 19.5179 232.903 25.8083 232.869 32.1779C232.866 33.0805 232.864 33.9831 232.862 34.8858C232.856 37.0617 232.846 39.2377 232.835 41.4136C231.692 41.443 230.549 41.464 229.406 41.4815C228.769 41.4941 228.133 41.5067 227.477 41.5197C225.773 41.4136 225.773 41.4136 224.143 40.3271C223.998 38.9012 223.953 37.6049 223.984 36.1803C223.986 35.7719 223.988 35.3634 223.991 34.9426C224 33.636 224.02 32.3298 224.041 31.0234C224.049 30.1385 224.056 29.2535 224.063 28.3685C224.081 26.1974 224.109 24.0265 224.143 21.8556C226.653 21.8556 229.163 21.8556 231.749 21.8556C231.749 19.1663 231.749 16.4771 231.749 13.7064C229.239 13.7064 226.729 13.7064 224.143 13.7064C224.143 13.5271 224.143 13.3478 224.143 13.1631Z" fill="#F4F4F5"/>
<path d="M61.4028 34.2973C61.8632 34.299 62.3237 34.3008 62.7981 34.3026C63.2768 34.3071 63.7554 34.3117 64.2486 34.3164C64.9761 34.3201 64.9761 34.3201 65.7182 34.3238C66.9148 34.3302 68.1113 34.3391 69.3079 34.3503C68.9358 37.7598 68.4557 39.0602 66.0482 41.413C64.0104 42.4336 62.3058 42.6607 60.0382 42.6693C59.2052 42.683 59.2052 42.683 58.3553 42.6969C56.6074 42.4733 55.8671 42.1205 54.6394 40.8697C54.3338 39.0022 54.3338 39.0022 54.6394 37.0667C56.6974 34.953 58.5053 34.2778 61.4028 34.2973Z" fill="#F6F6F7"/>
</svg>
