<svg width="50" height="50" viewBox="0 0 50 50" fill="none" xmlns="http://www.w3.org/2000/svg">
<path d="M27.2096 4.56299V10.8166C34.2062 11.8279 39.5929 17.8132 39.5929 25.0987C39.5929 26.9562 39.2214 28.7105 38.6023 30.341L43.9684 33.4987C45.1242 30.9395 45.7846 28.0913 45.7846 25.0987C45.7846 14.4077 37.6323 5.59493 27.2096 4.56299ZM25.1457 39.5459C17.1585 39.5459 10.6985 33.0859 10.6985 25.0987C10.6985 17.8132 16.0853 11.8279 23.0818 10.8166V4.56299C12.6386 5.59493 4.50684 14.3871 4.50684 25.0987C4.50684 36.4913 13.7324 45.7376 25.1251 45.7376C31.9566 45.7376 38.0037 42.4147 41.76 37.2963L36.3939 34.1385C33.7521 37.4407 29.7069 39.5459 25.1457 39.5459Z" fill="#081348"/>
</svg>
