<svg width="539" height="369" viewBox="0 0 539 369" fill="none" xmlns="http://www.w3.org/2000/svg">
<path d="M82.3131 197.836C80.2094 197.836 78.1411 197.284 76.3294 196.238L7.43118 156.459C6.34686 155.832 5.69922 154.711 5.69922 153.46C5.69922 152.209 6.34686 151.089 7.42971 150.462L132.092 78.4894C132.306 78.3655 132.57 78.3655 132.782 78.4894L133.362 78.8228L207.32 121.522C208.403 122.147 209.05 123.268 209.05 124.521C209.05 125.773 208.403 126.893 207.32 127.519L88.2954 196.238C86.4852 197.284 84.4154 197.836 82.3131 197.836ZM132.44 79.8895L8.12309 151.663C7.47249 152.039 7.08449 152.712 7.08449 153.463C7.08449 154.214 7.47249 154.887 8.12457 155.263L77.0213 195.042C80.2242 196.891 84.4021 196.891 87.605 195.042L206.63 126.322C207.279 125.948 207.667 125.275 207.667 124.524C207.667 123.771 207.279 123.099 206.629 122.723L132.44 79.8895Z" fill="#42E8E0"/>
<path d="M216.265 102.204L209.033 105.98L136.513 64.1106C135.3 63.4098 133.18 63.4983 131.779 64.3068L6.70184 136.52C5.50539 135.85 0.046875 133.226 0.046875 133.226L2.695 140.124L2.70532 140.115C2.81449 140.422 3.05053 140.708 3.44591 140.937L79.8238 185.034C81.038 185.735 83.1565 185.647 84.558 184.838L212.551 110.942C213.127 110.61 213.479 110.207 213.625 109.8L213.636 109.806L216.265 102.204Z" fill="url(#paint0_linear_2935_5527)"/>
<path d="M215.145 103.393L83.9682 179.127C82.5328 179.957 80.3597 180.047 79.1175 179.328L0.839475 134.135C-0.404181 133.416 -0.247802 132.162 1.18764 131.335L132.365 55.5998C133.8 54.7707 135.973 54.6807 137.215 55.3992L215.493 100.593C216.737 101.31 216.581 102.564 215.145 103.393Z" fill="url(#paint1_linear_2935_5527)"/>
<path d="M215.146 102.637L83.9704 178.372C82.5349 179.201 80.3618 179.291 79.1196 178.572L0.841598 133.379C0.434422 133.144 0.192478 132.849 0.0818323 132.532C-0.114379 133.12 0.121664 133.718 0.841598 134.134L79.1196 179.328C80.3633 180.046 82.5349 179.956 83.9704 179.127L215.146 103.392C216.112 102.835 216.484 102.087 216.254 101.438C216.112 101.865 215.749 102.289 215.146 102.637Z" fill="white"/>
<path d="M44.4023 162.744V161.306C44.4023 161.17 44.485 161.107 44.5882 161.166L49.6617 164.096C49.7635 164.155 49.8476 164.312 49.8476 164.45V165.888C49.8476 166.024 49.765 166.087 49.6617 166.028L44.5882 163.098C44.485 163.039 44.4023 162.88 44.4023 162.744Z" fill="#2842A2"/>
<path d="M51.9922 167.124V165.686C51.9922 165.55 52.0748 165.487 52.1781 165.546L57.2516 168.475C57.3534 168.534 57.4375 168.692 57.4375 168.83V170.268C57.4375 170.404 57.3549 170.467 57.2516 170.408L52.1781 167.478C52.0748 167.419 51.9922 167.261 51.9922 167.124Z" fill="#2842A2"/>
<path d="M44.9651 144.408L153.973 81.4732C154.7 81.0543 155.596 81.0542 156.322 81.4747L195.139 103.933C195.697 104.256 195.697 105.06 195.138 105.382L86.1813 168.287C85.4555 168.706 84.5615 168.706 83.8357 168.287L44.9651 145.859C44.4075 145.536 44.4075 144.73 44.9651 144.408Z" fill="#ADB1F2"/>
<path d="M44.9651 145.859L45.3561 146.084L153.973 83.3734C154.7 82.9544 155.596 82.9544 156.322 83.3749L194.748 105.607L195.138 105.382C195.695 105.06 195.695 104.254 195.139 103.933L156.322 81.4747C155.596 81.0542 154.7 81.0543 153.973 81.4732L44.9651 144.408C44.4075 144.73 44.4075 145.536 44.9651 145.859Z" fill="#9198DB"/>
<path d="M159.252 87.1618L58.8409 145.133L53.8633 143.146L155.041 84.7305L159.252 87.1618Z" fill="#24126A"/>
<path d="M169.577 93.1202L80.7612 144.398L76.5508 141.967L165.366 90.6904L169.577 93.1202Z" fill="#24126A"/>
<path d="M176.297 97.002L71.7285 157.375L67.5195 154.945L172.088 94.5723L176.297 97.002Z" fill="#24126A"/>
<path d="M183.016 100.883L78.4472 161.256L74.2383 158.826L178.807 98.4531L183.016 100.883Z" fill="#24126A"/>
<path d="M189.743 104.765L85.1738 165.137L80.9648 162.708L185.534 102.335L189.743 104.765Z" fill="#24126A"/>
<path d="M58.8413 145.132L54.6324 147.563L50.4219 145.132L54.6309 142.702L58.8413 145.132Z" fill="#24126A"/>
<path d="M85.8663 141.449L64.9527 153.523L60.7422 151.093L81.8078 138.931L85.8663 141.449Z" fill="#24126A"/>
<path d="M83.7778 116.204L113.17 99.2342C114.319 98.5703 114.319 97.4963 113.17 96.8324L93.0707 85.2278C91.9214 84.5639 90.0596 84.5654 88.9104 85.2278L59.5182 102.198C58.3689 102.862 58.3689 103.936 59.5182 104.6L79.6175 116.204C80.7653 116.868 82.6286 116.868 83.7778 116.204Z" fill="url(#paint2_linear_2935_5527)"/>
<path d="M59.5187 103.181L88.9109 86.2104C90.0601 85.5465 91.9219 85.5465 93.0712 86.2104L113.17 97.815C113.525 98.02 113.756 98.2649 113.892 98.5246C114.196 97.9448 113.964 97.2913 113.17 96.8324L93.0712 85.2278C91.9219 84.5639 90.0601 84.5654 88.9109 85.2278L59.5187 102.198C58.725 102.657 58.4934 103.31 58.7958 103.89C58.9315 103.632 59.1631 103.386 59.5187 103.181Z" fill="#9198DB"/>
<path d="M216.054 100.255L199.472 1.8761L200.805 1.31403L198.802 0.166267L198.805 0.178062C198.417 -0.0801106 197.867 -0.06536 197.26 0.28428L64.7363 76.7964C63.6475 77.4249 62.8243 79.0359 63.0161 80.163L79.7295 179.324C79.818 179.84 80.0732 180.182 80.4273 180.333H80.4258L82.3865 181.466L82.7228 179.635L82.6107 179.669L214.332 103.62C215.422 102.993 216.245 101.382 216.054 100.255Z" fill="url(#paint3_linear_2935_5527)"/>
<path d="M65.4744 79.4868L63.2954 78.5234C63.0505 79.0811 62.931 79.6683 63.0151 80.164L79.7286 179.325C79.8171 179.842 80.0709 180.184 80.4264 180.335H80.4249L82.3856 181.468L82.722 179.638L82.6098 179.672L89.2752 175.825L65.4744 79.4868Z" fill="url(#paint4_linear_2935_5527)"/>
<path d="M216.414 104.814L83.8901 181.326C82.8663 181.917 81.9915 181.576 81.8115 180.516L65.0981 81.3559C64.9063 80.2288 65.731 78.6178 66.8183 77.9893L199.342 1.47717C200.366 0.887065 201.241 1.22785 201.421 2.28709L218.134 101.448C218.326 102.575 217.503 104.186 216.414 104.814Z" fill="#453C9E"/>
<path d="M456.097 197.836C453.995 197.836 451.925 197.284 450.113 196.238L331.088 127.519C330.006 126.893 329.359 125.772 329.359 124.521C329.359 123.268 330.006 122.147 331.088 121.522L405.625 78.4894C405.841 78.3655 406.103 78.3655 406.317 78.4894L530.979 150.462C532.063 151.089 532.71 152.21 532.71 153.46C532.71 154.711 532.062 155.832 530.979 156.459L462.079 196.238C460.269 197.284 458.201 197.836 456.097 197.836ZM450.804 195.041C454.007 196.889 458.186 196.889 461.388 195.041L530.286 155.261C530.935 154.885 531.324 154.212 531.324 153.461C531.324 152.71 530.936 152.038 530.286 151.662L405.97 79.888L405.737 80.0222L331.78 122.721C331.131 123.096 330.742 123.77 330.742 124.522C330.742 125.273 331.13 125.946 331.78 126.321L450.804 195.041Z" fill="#42E8E0"/>
<path d="M322.16 102.204L329.392 105.98L401.912 64.1106C403.125 63.4098 405.245 63.4983 406.646 64.3068L531.723 136.52C532.919 135.85 538.376 133.226 538.376 133.226L535.728 140.124L535.718 140.115C535.609 140.422 535.373 140.708 534.977 140.937L458.599 185.034C457.385 185.735 455.267 185.647 453.865 184.838L325.872 110.942C325.297 110.61 324.944 110.207 324.798 109.8L324.788 109.806L322.16 102.204Z" fill="url(#paint5_linear_2935_5527)"/>
<path d="M323.277 103.393L454.454 179.127C455.89 179.957 458.062 180.047 459.305 179.328L537.583 134.135C538.827 133.416 538.67 132.162 537.235 131.335L406.058 55.5998C404.623 54.7707 402.45 54.6807 401.207 55.3992L322.929 100.593C321.686 101.31 321.842 102.564 323.277 103.393Z" fill="url(#paint6_linear_2935_5527)"/>
<path d="M323.276 102.637L454.452 178.372C455.888 179.201 458.06 179.291 459.303 178.572L537.581 133.379C537.988 133.144 538.23 132.849 538.341 132.532C538.537 133.12 538.301 133.718 537.581 134.134L459.303 179.328C458.06 180.046 455.888 179.956 454.452 179.127L323.276 103.392C322.309 102.835 321.937 102.087 322.168 101.438C322.309 101.865 322.672 102.289 323.276 102.637Z" fill="white"/>
<path d="M494.022 162.744V161.306C494.022 161.17 493.939 161.107 493.837 161.166L488.764 164.096C488.662 164.155 488.578 164.312 488.578 164.45V165.888C488.578 166.024 488.661 166.087 488.764 166.028L493.837 163.098C493.939 163.039 494.022 162.88 494.022 162.744Z" fill="#2842A2"/>
<path d="M486.432 167.124V165.686C486.432 165.55 486.349 165.487 486.248 165.546L481.174 168.475C481.072 168.534 480.988 168.692 480.988 168.83V170.268C480.988 170.404 481.071 170.467 481.174 170.408L486.248 167.478C486.349 167.419 486.432 167.261 486.432 167.124Z" fill="#2842A2"/>
<path d="M493.452 144.408L384.444 81.4732C383.716 81.0543 382.821 81.0542 382.095 81.4747L343.278 103.933C342.72 104.256 342.72 105.06 343.278 105.382L452.234 168.287C452.96 168.706 453.854 168.706 454.58 168.287L493.452 145.859C494.009 145.536 494.009 144.73 493.452 144.408Z" fill="#ADB1F2"/>
<path d="M493.45 145.859L493.059 146.084L384.442 83.3734C383.715 82.9544 382.819 82.9544 382.094 83.3749L343.667 105.607L343.278 105.382C342.72 105.06 342.72 104.254 343.278 103.933L382.095 81.4747C382.821 81.0542 383.716 81.0543 384.444 81.4732L493.452 144.408C494.008 144.73 494.008 145.536 493.45 145.859Z" fill="#9198DB"/>
<path d="M379.172 87.1618L479.583 145.133L484.561 143.146L383.382 84.7305L379.172 87.1618Z" fill="#24126A"/>
<path d="M368.852 93.1202L457.667 144.398L461.877 141.967L373.062 90.6904L368.852 93.1202Z" fill="#24126A"/>
<path d="M362.125 97.002L466.694 157.375L470.904 154.945L366.335 94.5723L362.125 97.002Z" fill="#24126A"/>
<path d="M355.398 100.883L459.967 161.256L464.178 158.826L359.609 98.4531L355.398 100.883Z" fill="#24126A"/>
<path d="M348.68 104.765L453.247 165.137L457.458 162.708L352.889 102.335L348.68 104.765Z" fill="#24126A"/>
<path d="M479.582 145.132L483.791 147.563L488.002 145.132L483.791 142.702L479.582 145.132Z" fill="#24126A"/>
<path d="M452.555 141.449L473.468 153.523L477.679 151.093L456.613 138.931L452.555 141.449Z" fill="#24126A"/>
<path d="M454.637 116.204L425.245 99.2342C424.096 98.5703 424.096 97.4963 425.245 96.8324L445.344 85.2278C446.493 84.5639 448.355 84.5654 449.504 85.2278L478.897 102.198C480.046 102.862 480.046 103.936 478.897 104.6L458.797 116.204C457.649 116.868 455.786 116.868 454.637 116.204Z" fill="url(#paint7_linear_2935_5527)"/>
<path d="M478.896 103.181L449.504 86.2104C448.355 85.5465 446.493 85.5465 445.344 86.2104L425.245 97.815C424.891 98.02 424.659 98.2649 424.523 98.5246C424.219 97.9448 424.451 97.2913 425.245 96.8324L445.344 85.2278C446.493 84.5639 448.355 84.5654 449.504 85.2278L478.896 102.198C479.69 102.657 479.922 103.31 479.618 103.89C479.484 103.632 479.252 103.386 478.896 103.181Z" fill="#9198DB"/>
<path d="M322.368 100.255L338.95 1.8761L337.616 1.31403L339.62 0.166267L339.617 0.178062C340.005 -0.0801106 340.555 -0.06536 341.161 0.28428L473.685 76.7964C474.774 77.4249 475.597 79.0359 475.405 80.163L458.692 179.324C458.603 179.84 458.348 180.182 457.994 180.333L456.035 181.466L455.699 179.635L455.811 179.669L324.088 103.621C322.999 102.993 322.176 101.382 322.368 100.255Z" fill="url(#paint8_linear_2935_5527)"/>
<path d="M472.945 79.4868L475.124 78.5234C475.369 79.0811 475.489 79.6683 475.405 80.164L458.691 179.325C458.604 179.842 458.349 180.184 457.993 180.335L456.034 181.468L455.698 179.638L455.81 179.672L449.145 175.825L472.945 79.4868Z" fill="url(#paint9_linear_2935_5527)"/>
<path d="M322.006 104.814L454.53 181.326C455.554 181.917 456.428 181.576 456.608 180.516L473.322 81.3559C473.514 80.2288 472.689 78.6178 471.602 77.9893L339.078 1.47717C338.054 0.887065 337.179 1.22785 336.999 2.28709L320.286 101.448C320.094 102.575 320.917 104.186 322.006 104.814Z" fill="#453C9E"/>
<path d="M269.217 221.567L145.82 150.323L269.214 79.082L392.61 150.325L269.217 221.567Z" fill="#BCBEFF"/>
<path d="M269.218 202.113L179.516 150.322L269.215 98.5342L358.918 150.324L269.218 202.113Z" fill="#453C9E"/>
<path d="M269.215 102.041L355.88 152.078L358.918 150.324L269.215 98.5342L179.516 150.322L182.553 152.076L269.215 102.041Z" fill="white"/>
<path d="M392.612 150.324V190.707L269.219 261.948V221.567L392.612 150.324Z" fill="url(#paint10_linear_2935_5527)"/>
<path d="M145.82 150.323V190.706L269.217 261.948V221.567L145.82 150.323Z" fill="#24126A"/>
<g opacity="0.51">
<path d="M154.18 168.467V181.184L260.858 242.773V230.058L154.18 168.467Z" fill="#453C9E"/>
</g>
<path d="M269.217 219.25L147.825 149.166L145.82 150.323L269.217 221.567L392.61 150.324L390.605 149.167L269.217 219.25Z" fill="white"/>
<path d="M374.099 178.623V185.852L287.723 235.721V228.492L374.099 178.623Z" fill="#453C9E"/>
<path opacity="0.51" d="M145.82 150.323V190.706L269.217 261.948V221.567L145.82 150.323Z" fill="#453C9E"/>
<path d="M233.195 219.421L210.851 206.52L210.848 209.184L233.192 222.087L233.195 219.421Z" fill="#42E8E0"/>
<path d="M207.628 204.687L201.573 201.19L201.57 203.855L207.625 207.351L207.628 204.687Z" fill="#42E8E0"/>
<path d="M179.268 188.316L166.882 181.164L166.879 183.828L179.265 190.981L179.268 188.316Z" fill="#42E8E0"/>
<path d="M190.573 194.842L181.615 189.67L181.613 192.334L190.571 197.507L190.573 194.842Z" fill="#42E8E0"/>
<path d="M198.97 199.693L192.917 196.196L192.914 198.862L198.969 202.357L198.97 199.693Z" fill="#42E8E0"/>
<path d="M269.34 116.317L265.422 114.054L269.34 111.792L273.259 114.054L269.34 116.317Z" fill="#42E8E0"/>
<path opacity="0.1" d="M277.176 120.841L273.258 118.579L277.176 116.317L281.095 118.579L277.176 120.841Z" fill="#42E8E0"/>
<path opacity="0.4" d="M285.016 125.365L281.098 123.103L285.016 120.84L288.934 123.103L285.016 125.365Z" fill="#42E8E0"/>
<path d="M292.852 129.89L288.934 127.628L292.852 125.365L296.77 127.628L292.852 129.89Z" fill="#42E8E0"/>
<path opacity="0.4" d="M300.684 134.413L296.766 132.152L300.684 129.889L304.602 132.152L300.684 134.413Z" fill="#42E8E0"/>
<path d="M308.52 138.939L304.602 136.677L308.52 134.414L312.438 136.677L308.52 138.939Z" fill="#42E8E0"/>
<path d="M316.36 143.464L312.441 141.201L316.36 138.939L320.278 141.201L316.36 143.464Z" fill="#42E8E0"/>
<path d="M324.196 147.988L320.277 145.725L324.196 143.463L328.114 145.725L324.196 147.988Z" fill="#42E8E0"/>
<path opacity="0.1" d="M332.036 152.513L328.117 150.25L332.036 147.988L335.954 150.25L332.036 152.513Z" fill="#42E8E0"/>
<path d="M261.475 120.86L257.555 118.597L261.473 116.335L265.391 118.598L261.475 120.86Z" fill="#42E8E0"/>
<path d="M269.309 125.385L265.391 123.122L269.308 120.86L273.226 123.122L269.309 125.385Z" fill="#42E8E0"/>
<path d="M277.149 129.908L273.23 127.645L277.149 125.384L281.067 127.645L277.149 129.908Z" fill="#42E8E0"/>
<path d="M284.985 134.432L281.066 132.171L284.983 129.909L288.902 132.171L284.985 134.432Z" fill="#42E8E0"/>
<path d="M292.823 138.956L288.906 136.695L292.823 134.432L296.742 136.695L292.823 138.956Z" fill="#42E8E0"/>
<path d="M300.654 143.482L296.734 141.22L300.653 138.957L304.571 141.22L300.654 143.482Z" fill="#42E8E0"/>
<path d="M308.493 148.007L304.574 145.746L308.493 143.482L312.411 145.746L308.493 148.007Z" fill="#42E8E0"/>
<path d="M316.329 152.531L312.41 150.269L316.329 148.006L320.247 150.269L316.329 152.531Z" fill="#42E8E0"/>
<path d="M324.168 157.056L320.25 154.793L324.168 152.531L328.087 154.794L324.168 157.056Z" fill="#42E8E0"/>
<path d="M253.602 125.402L249.684 123.14L253.602 120.877L257.52 123.14L253.602 125.402Z" fill="#42E8E0"/>
<path d="M261.438 129.927L257.52 127.665L261.438 125.402L265.356 127.665L261.438 129.927Z" fill="#42E8E0"/>
<path d="M269.278 134.45L265.359 132.187L269.278 129.926L273.196 132.187L269.278 134.45Z" fill="#42E8E0"/>
<path opacity="0.1" d="M277.114 138.976L273.195 136.713L277.114 134.451L281.032 136.713L277.114 138.976Z" fill="#42E8E0"/>
<path opacity="0.4" d="M284.946 143.5L281.027 141.237L284.946 138.976L288.864 141.237L284.946 143.5Z" fill="#42E8E0"/>
<path opacity="0.4" d="M292.782 148.025L288.863 145.762L292.782 143.5L296.7 145.762L292.782 148.025Z" fill="#42E8E0"/>
<path d="M300.621 152.549L296.703 150.287L300.621 148.025L304.54 150.287L300.621 152.549Z" fill="#42E8E0"/>
<path d="M308.457 157.073L304.539 154.811L308.457 152.55L312.376 154.811L308.457 157.073Z" fill="#42E8E0"/>
<path d="M316.297 161.598L312.379 159.336L316.297 157.073L320.216 159.336L316.297 161.598Z" fill="#42E8E0"/>
<path opacity="0.4" d="M245.735 129.944L241.816 127.682L245.735 125.421L249.652 127.682L245.735 129.944Z" fill="#42E8E0"/>
<path opacity="0.4" d="M253.571 134.47L249.652 132.208L253.571 129.946L257.489 132.208L253.571 134.47Z" fill="#42E8E0"/>
<path opacity="0.1" d="M261.404 138.993L257.484 136.732L261.403 134.469L265.321 136.732L261.404 138.993Z" fill="#42E8E0"/>
<path d="M269.246 143.519L265.328 141.257L269.245 138.994L273.163 141.257L269.246 143.519Z" fill="#42E8E0"/>
<path d="M277.079 148.042L273.16 145.779L277.079 143.518L280.997 145.779L277.079 148.042Z" fill="#42E8E0"/>
<path d="M284.914 152.568L280.996 150.305L284.913 148.043L288.831 150.305L284.914 152.568Z" fill="#42E8E0"/>
<path opacity="0.4" d="M292.753 157.093L288.836 154.83L292.753 152.568L296.671 154.83L292.753 157.093Z" fill="#42E8E0"/>
<path d="M300.59 161.617L296.672 159.353L300.59 157.092L304.509 159.353L300.59 161.617Z" fill="#42E8E0"/>
<path d="M308.43 166.142L304.512 163.879L308.43 161.617L312.348 163.879L308.43 166.142Z" fill="#42E8E0"/>
<path d="M237.868 134.489L233.949 132.225L237.868 129.964L241.786 132.225L237.868 134.489Z" fill="#42E8E0"/>
<path d="M245.704 139.014L241.785 136.751L245.704 134.489L249.622 136.751L245.704 139.014Z" fill="#42E8E0"/>
<path d="M253.543 143.536L249.625 141.274L253.543 139.013L257.462 141.274L253.543 143.536Z" fill="#42E8E0"/>
<path d="M261.379 148.062L257.461 145.8L261.379 143.537L265.298 145.8L261.379 148.062Z" fill="#42E8E0"/>
<path d="M269.211 152.585L265.293 150.324L269.211 148.061L273.13 150.324L269.211 152.585Z" fill="#42E8E0"/>
<path d="M277.047 157.111L273.129 154.849L277.047 152.586L280.966 154.849L277.047 157.111Z" fill="#42E8E0"/>
<path d="M284.887 161.636L280.969 159.374L284.887 157.111L288.805 159.374L284.887 161.636Z" fill="#42E8E0"/>
<path d="M292.723 166.159L288.805 163.896L292.723 161.635L296.641 163.896L292.723 166.159Z" fill="#42E8E0"/>
<path d="M300.563 170.685L296.645 168.422L300.563 166.16L304.481 168.422L300.563 170.685Z" fill="#42E8E0"/>
<path d="M229.996 139.031L226.078 136.769L229.995 134.506L233.913 136.769L229.996 139.031Z" fill="#42E8E0"/>
<path d="M237.831 143.556L233.914 141.294L237.831 139.031L241.751 141.294L237.831 143.556Z" fill="#42E8E0"/>
<path opacity="0.4" d="M245.672 148.079L241.754 145.816L245.672 143.555L249.589 145.816L245.672 148.079Z" fill="#42E8E0"/>
<path d="M253.504 152.605L249.586 150.342L253.504 148.08L257.423 150.342L253.504 152.605Z" fill="#42E8E0"/>
<path opacity="0.1" d="M261.342 157.128L257.422 154.866L261.34 152.604L265.259 154.866L261.342 157.128Z" fill="#42E8E0"/>
<path d="M269.175 161.652L265.258 159.391L269.175 157.129L273.093 159.391L269.175 161.652Z" fill="#42E8E0"/>
<path d="M277.016 166.178L273.098 163.916L277.016 161.653L280.934 163.916L277.016 166.178Z" fill="#42E8E0"/>
<path d="M284.852 170.701L280.934 168.44L284.85 166.177L288.769 168.44L284.852 170.701Z" fill="#42E8E0"/>
<path d="M292.69 175.227L288.773 172.965L292.69 170.702L296.609 172.965L292.69 175.227Z" fill="#42E8E0"/>
<path d="M222.129 143.572L218.211 141.31L222.129 139.049L226.048 141.31L222.129 143.572Z" fill="#42E8E0"/>
<path d="M229.965 148.097L226.047 145.835L229.965 143.572L233.884 145.835L229.965 148.097Z" fill="#42E8E0"/>
<path opacity="0.4" d="M237.805 152.621L233.887 150.36L237.805 148.097L241.723 150.36L237.805 152.621Z" fill="#42E8E0"/>
<path d="M245.641 157.147L241.723 154.885L245.641 152.622L249.559 154.885L245.641 157.147Z" fill="#42E8E0"/>
<path d="M253.473 161.67L249.555 159.407L253.473 157.146L257.391 159.407L253.473 161.67Z" fill="#42E8E0"/>
<path opacity="0.1" d="M261.309 166.196L257.391 163.933L261.309 161.671L265.227 163.933L261.309 166.196Z" fill="#42E8E0"/>
<path opacity="0.4" d="M269.149 170.721L265.23 168.458L269.149 166.196L273.067 168.458L269.149 170.721Z" fill="#42E8E0"/>
<path d="M276.985 175.243L273.066 172.981L276.985 170.72L280.903 172.981L276.985 175.243Z" fill="#42E8E0"/>
<path opacity="0.1" d="M284.825 179.769L280.906 177.507L284.825 175.244L288.743 177.507L284.825 179.769Z" fill="#42E8E0"/>
<path d="M214.262 148.117L210.344 145.853L214.261 143.592L218.18 145.853L214.262 148.117Z" fill="#42E8E0"/>
<path opacity="0.4" d="M222.098 152.642L218.18 150.379L222.098 148.117L226.016 150.379L222.098 152.642Z" fill="#42E8E0"/>
<path d="M229.938 157.164L226.02 154.902L229.936 152.641L233.855 154.902L229.938 157.164Z" fill="#42E8E0"/>
<path d="M237.771 161.69L233.852 159.428L237.771 157.165L241.69 159.428L237.771 161.69Z" fill="#42E8E0"/>
<path d="M245.606 166.213L241.688 163.952L245.604 161.688L249.523 163.952L245.606 166.213Z" fill="#42E8E0"/>
<path d="M253.442 170.739L249.523 168.475L253.442 166.214L257.36 168.477L253.442 170.739Z" fill="#42E8E0"/>
<path d="M261.283 175.264L257.363 173.001L261.282 170.739L265.2 173.001L261.283 175.264Z" fill="#42E8E0"/>
<path opacity="0.4" d="M269.116 179.787L265.199 177.524L269.116 175.263L273.034 177.524L269.116 179.787Z" fill="#42E8E0"/>
<path d="M276.957 184.313L273.039 182.05L276.957 179.788L280.876 182.05L276.957 184.313Z" fill="#42E8E0"/>
<path d="M206.391 152.658L202.473 150.395L206.391 148.134L210.309 150.395L206.391 152.658Z" fill="#42E8E0"/>
<path opacity="0.1" d="M214.227 157.184L210.309 154.921L214.227 152.659L218.145 154.921L214.227 157.184Z" fill="#42E8E0"/>
<path d="M222.067 161.707L218.148 159.444L222.067 157.183L225.985 159.444L222.067 161.707Z" fill="#42E8E0"/>
<path d="M229.903 166.233L225.984 163.97L229.903 161.708L233.821 163.97L229.903 166.233Z" fill="#42E8E0"/>
<path d="M237.735 170.756L233.816 168.494L237.735 166.232L241.653 168.494L237.735 170.756Z" fill="#42E8E0"/>
<path d="M245.571 175.281L241.652 173.019L245.571 170.756L249.489 173.019L245.571 175.281Z" fill="#42E8E0"/>
<path opacity="0.4" d="M253.411 179.806L249.492 177.544L253.411 175.281L257.329 177.544L253.411 179.806Z" fill="#42E8E0"/>
<path d="M261.246 184.329L257.328 182.068L261.246 179.805L265.165 182.068L261.246 184.329Z" fill="#42E8E0"/>
<path d="M269.086 188.855L265.168 186.592L269.086 184.33L273.005 186.592L269.086 188.855Z" fill="#42E8E0"/>
<path d="M269.217 151.645L145.82 80.4021L269.214 9.16113L392.61 80.4036L269.217 151.645Z" fill="#BCBEFF"/>
<path d="M269.218 132.191L179.516 80.4018L269.215 28.6123L358.918 80.4033L269.218 132.191Z" fill="#453C9E"/>
<path d="M269.215 32.1205L355.88 82.1574L358.918 80.4033L269.215 28.6123L179.516 80.4018L182.553 82.1544L269.215 32.1205Z" fill="white"/>
<path d="M392.612 80.4033V120.786L269.219 192.027V151.644L392.612 80.4033Z" fill="url(#paint11_linear_2935_5527)"/>
<path d="M145.82 80.4023V120.785L269.217 192.027V151.645L145.82 80.4023Z" fill="#24126A"/>
<g opacity="0.51">
<path d="M154.18 98.5449V111.262L260.858 172.853V160.136L154.18 98.5449Z" fill="#453C9E"/>
</g>
<path d="M269.217 149.329L147.825 79.2432L145.82 80.4013L269.217 151.644L392.61 80.4027L390.605 79.2446L269.217 149.329Z" fill="white"/>
<path d="M374.099 108.7V115.929L287.723 165.798V158.569L374.099 108.7Z" fill="#453C9E"/>
<path opacity="0.51" d="M145.82 80.4023V120.785L269.217 192.027V151.645L145.82 80.4023Z" fill="#453C9E"/>
<path d="M233.195 149.5L210.851 136.597L210.848 139.261L233.192 152.164L233.195 149.5Z" fill="#42E8E0"/>
<path d="M207.628 134.764L201.573 131.268L201.57 133.933L207.625 137.428L207.628 134.764Z" fill="#42E8E0"/>
<path d="M179.268 118.394L166.882 111.242L166.879 113.907L179.265 121.06L179.268 118.394Z" fill="#42E8E0"/>
<path d="M190.573 124.92L181.615 119.748L181.613 122.414L190.571 127.586L190.573 124.92Z" fill="#42E8E0"/>
<path d="M198.97 129.77L192.917 126.275L192.914 128.94L198.969 132.435L198.97 129.77Z" fill="#42E8E0"/>
<path d="M269.34 46.3948L265.422 44.1332L269.34 41.8701L273.259 44.1332L269.34 46.3948Z" fill="#FF9557"/>
<path opacity="0.1" d="M277.176 50.9202L273.258 48.6571L277.176 46.3955L281.095 48.6586L277.176 50.9202Z" fill="#FF9557"/>
<path opacity="0.4" d="M285.016 55.4436L281.098 53.1806L285.016 50.9189L288.934 53.1806L285.016 55.4436Z" fill="#FF9557"/>
<path d="M292.852 59.969L288.934 57.706L292.852 55.4443L296.77 57.706L292.852 59.969Z" fill="#FF9557"/>
<path opacity="0.4" d="M300.684 64.4935L296.766 62.2304L300.684 59.9688L304.602 62.2304L300.684 64.4935Z" fill="#FF9557"/>
<path d="M308.52 69.0164L304.602 66.7548L308.52 64.4932L312.438 66.7548L308.52 69.0164Z" fill="#FF9557"/>
<path d="M316.36 73.5423L312.441 71.2807L316.36 69.0176L320.278 71.2807L316.36 73.5423Z" fill="#FF9557"/>
<path d="M324.196 78.0657L320.277 75.8041L324.196 73.541L328.114 75.8041L324.196 78.0657Z" fill="#FF9557"/>
<path opacity="0.1" d="M332.036 82.5911L328.117 80.3295L332.036 78.0664L335.954 80.3295L332.036 82.5911Z" fill="#FF9557"/>
<path d="M261.475 50.9378L257.555 48.6762L261.473 46.4131L265.391 48.6762L261.475 50.9378Z" fill="#FF9557"/>
<path d="M269.309 55.4632L265.391 53.2016L269.308 50.9385L273.226 53.2016L269.309 55.4632Z" fill="#FF9557"/>
<path d="M277.149 59.9866L273.23 57.725L277.149 55.4619L281.067 57.725L277.149 59.9866Z" fill="#FF9557"/>
<path d="M284.985 64.512L281.066 62.2489L284.983 59.9873L288.902 62.2489L284.985 64.512Z" fill="#FF9557"/>
<path d="M292.823 69.0364L288.906 66.7733L292.823 64.5117L296.742 66.7733L292.823 69.0364Z" fill="#FF9557"/>
<path d="M300.654 73.5608L296.734 71.2977L300.653 69.0361L304.571 71.2977L300.654 73.5608Z" fill="#FF9557"/>
<path d="M308.493 78.0862L304.574 75.8231L308.493 73.5615L312.411 75.8231L308.493 78.0862Z" fill="#FF9557"/>
<path d="M316.329 82.6092L312.41 80.3476L316.329 78.0859L320.247 80.3476L316.329 82.6092Z" fill="#FF9557"/>
<path d="M324.168 87.1341L320.25 84.8725L324.168 82.6094L328.087 84.8725L324.168 87.1341Z" fill="#FF9557"/>
<path d="M253.602 55.4817L249.684 53.2187L253.602 50.957L257.52 53.2187L253.602 55.4817Z" fill="#FF9557"/>
<path d="M261.438 60.0071L257.52 57.744L261.438 55.4824L265.356 57.744L261.438 60.0071Z" fill="#FF9557"/>
<path d="M269.278 64.5291L265.359 62.2675L269.278 60.0059L273.196 62.2675L269.278 64.5291Z" fill="#FF9557"/>
<path opacity="0.1" d="M277.114 69.055L273.195 66.7934L277.114 64.5303L281.032 66.7934L277.114 69.055Z" fill="#FF9557"/>
<path opacity="0.4" d="M284.946 73.5784L281.027 71.3168L284.946 69.0537L288.864 71.3168L284.946 73.5784Z" fill="#FF9557"/>
<path opacity="0.4" d="M292.782 78.1038L288.863 75.8407L292.782 73.5791L296.7 75.8422L292.782 78.1038Z" fill="#FF9557"/>
<path d="M300.621 82.6292L296.703 80.3661L300.621 78.1045L304.54 80.3661L300.621 82.6292Z" fill="#FF9557"/>
<path d="M308.457 87.1526L304.539 84.8895L308.457 82.6279L312.376 84.8895L308.457 87.1526Z" fill="#FF9557"/>
<path d="M316.297 91.678L312.379 89.4149L316.297 87.1533L320.216 89.4149L316.297 91.678Z" fill="#FF9557"/>
<path opacity="0.4" d="M245.735 60.0237L241.816 57.7606L245.735 55.499L249.652 57.7606L245.735 60.0237Z" fill="#FF9557"/>
<path opacity="0.4" d="M253.571 64.5491L249.652 62.286L253.571 60.0244L257.489 62.286L253.571 64.5491Z" fill="#FF9557"/>
<path opacity="0.1" d="M261.404 69.0726L257.484 66.8095L261.403 64.5479L265.321 66.8095L261.404 69.0726Z" fill="#FF9557"/>
<path d="M269.246 73.5979L265.328 71.3349L269.245 69.0732L273.163 71.3349L269.246 73.5979Z" fill="#FF9557"/>
<path d="M277.079 78.1209L273.16 75.8593L277.079 73.5977L280.997 75.8593L277.079 78.1209Z" fill="#FF9557"/>
<path d="M284.914 82.6458L280.996 80.3842L284.913 78.1211L288.831 80.3842L284.914 82.6458Z" fill="#FF9557"/>
<path opacity="0.4" d="M292.753 87.1712L288.836 84.9096L292.753 82.6465L296.671 84.9096L292.753 87.1712Z" fill="#FF9557"/>
<path d="M300.59 91.6946L296.672 89.433L300.59 87.1699L304.509 89.433L300.59 91.6946Z" fill="#FF9557"/>
<path d="M308.43 96.22L304.512 93.9569L308.43 91.6953L312.348 93.9569L308.43 96.22Z" fill="#FF9557"/>
<path d="M237.868 64.5677L233.949 62.3061L237.868 60.043L241.786 62.3061L237.868 64.5677Z" fill="#FF9557"/>
<path d="M245.704 69.0931L241.785 66.8314L245.704 64.5684L249.622 66.8314L245.704 69.0931Z" fill="#FF9557"/>
<path d="M253.543 73.6165L249.625 71.3534L253.543 69.0918L257.462 71.3534L253.543 73.6165Z" fill="#FF9557"/>
<path d="M261.379 78.1419L257.461 75.8788L261.379 73.6172L265.298 75.8788L261.379 78.1419Z" fill="#FF9557"/>
<path d="M269.211 82.6663L265.293 80.4032L269.211 78.1416L273.13 80.4032L269.211 82.6663Z" fill="#FF9557"/>
<path d="M277.047 87.1907L273.129 84.9276L277.047 82.666L280.966 84.9276L277.047 87.1907Z" fill="#FF9557"/>
<path d="M284.887 91.7146L280.969 89.453L284.887 87.1914L288.805 89.453L284.887 91.7146Z" fill="#FF9557"/>
<path d="M292.723 96.2386L288.805 93.977L292.723 91.7139L296.641 93.977L292.723 96.2386Z" fill="#FF9557"/>
<path d="M300.563 100.764L296.645 98.5023L300.563 96.2393L304.481 98.5023L300.563 100.764Z" fill="#FF9557"/>
<path d="M229.996 69.1116L226.078 66.8485L229.995 64.5869L233.913 66.8485L229.996 69.1116Z" fill="#FF9557"/>
<path d="M237.831 73.6355L233.914 71.3739L237.831 69.1123L241.751 71.3739L237.831 73.6355Z" fill="#FF9557"/>
<path opacity="0.4" d="M245.672 78.1595L241.754 75.8979L245.672 73.6348L249.589 75.8979L245.672 78.1595Z" fill="#FF9557"/>
<path d="M253.504 82.6849L249.586 80.4233L253.504 78.1602L257.423 80.4233L253.504 82.6849Z" fill="#FF9557"/>
<path opacity="0.1" d="M261.342 87.2083L257.422 84.9467L261.34 82.6836L265.259 84.9467L261.342 87.2083Z" fill="#FF9557"/>
<path d="M269.175 91.7337L265.258 89.4706L269.175 87.209L273.093 89.4721L269.175 91.7337Z" fill="#FF9557"/>
<path d="M277.016 96.2591L273.098 93.996L277.016 91.7344L280.934 93.996L277.016 96.2591Z" fill="#FF9557"/>
<path d="M284.852 100.783L280.934 98.5194L284.85 96.2578L288.769 98.5194L284.852 100.783Z" fill="#FF9557"/>
<path d="M292.69 105.306L288.773 103.045L292.69 100.783L296.609 103.045L292.69 105.306Z" fill="#FF9557"/>
<path d="M222.129 73.6507L218.211 71.3876L222.129 69.126L226.048 71.3876L222.129 73.6507Z" fill="#FF9557"/>
<path d="M229.965 78.1761L226.047 75.913L229.965 73.6514L233.884 75.913L229.965 78.1761Z" fill="#FF9557"/>
<path opacity="0.4" d="M237.805 82.6995L233.887 80.4364L237.805 78.1748L241.723 80.4364L237.805 82.6995Z" fill="#FF9557"/>
<path d="M245.641 87.2234L241.723 84.9618L245.641 82.7002L249.559 84.9618L245.641 87.2234Z" fill="#FF9557"/>
<path d="M253.473 91.7474L249.555 89.4857L253.473 87.2227L257.391 89.4857L253.473 91.7474Z" fill="#FF9557"/>
<path opacity="0.1" d="M261.309 96.2728L257.391 94.0111L261.309 91.748L265.227 94.0111L261.309 96.2728Z" fill="#FF9557"/>
<path opacity="0.4" d="M269.149 100.798L265.23 98.5365L269.149 96.2734L273.067 98.5365L269.149 100.798Z" fill="#FF9557"/>
<path d="M276.985 105.322L273.066 103.06L276.985 100.797L280.903 103.06L276.985 105.322Z" fill="#FF9557"/>
<path opacity="0.1" d="M284.825 109.847L280.906 107.584L284.825 105.322L288.743 107.584L284.825 109.847Z" fill="#FF9557"/>
<path d="M214.262 78.1937L210.344 75.932L214.261 73.6689L218.18 75.932L214.262 78.1937Z" fill="#FF9557"/>
<path opacity="0.4" d="M222.098 82.719L218.18 80.456L222.098 78.1943L226.016 80.456L222.098 82.719Z" fill="#FF9557"/>
<path d="M229.938 87.2425L226.02 84.9794L229.936 82.7178L233.855 84.9794L229.938 87.2425Z" fill="#FF9557"/>
<path d="M237.771 91.7679L233.852 89.5048L237.771 87.2432L241.69 89.5048L237.771 91.7679Z" fill="#FF9557"/>
<path d="M245.606 96.2923L241.688 94.0292L245.604 91.7676L249.523 94.0292L245.606 96.2923Z" fill="#FF9557"/>
<path d="M253.442 100.816L249.523 98.5546L253.442 96.293L257.36 98.5546L253.442 100.816Z" fill="#FF9557"/>
<path d="M261.283 105.341L257.363 103.079L261.282 100.817L265.2 103.079L261.283 105.341Z" fill="#FF9557"/>
<path opacity="0.4" d="M269.116 109.865L265.199 107.603L269.116 105.34L273.034 107.603L269.116 109.865Z" fill="#FF9557"/>
<path d="M276.957 114.39L273.039 112.128L276.957 109.865L280.876 112.128L276.957 114.39Z" fill="#FF9557"/>
<path d="M206.391 82.7356L202.473 80.474L206.391 78.2109L210.309 80.474L206.391 82.7356Z" fill="#FF9557"/>
<path opacity="0.1" d="M214.227 87.261L210.309 84.9994L214.227 82.7363L218.145 84.9994L214.227 87.261Z" fill="#FF9557"/>
<path d="M222.067 91.7845L218.148 89.5229L222.067 87.2598L225.985 89.5229L222.067 91.7845Z" fill="#FF9557"/>
<path d="M229.903 96.3099L225.984 94.0468L229.903 91.7852L233.821 94.0482L229.903 96.3099Z" fill="#FF9557"/>
<path d="M237.735 100.834L233.816 98.5712L237.735 96.3096L241.653 98.5712L237.735 100.834Z" fill="#FF9557"/>
<path d="M245.571 105.359L241.652 103.096L245.571 100.834L249.489 103.096L245.571 105.359Z" fill="#FF9557"/>
<path opacity="0.4" d="M253.411 109.884L249.492 107.621L253.411 105.359L257.329 107.621L253.411 109.884Z" fill="#FF9557"/>
<path d="M261.246 114.408L257.328 112.145L261.246 109.884L265.165 112.145L261.246 114.408Z" fill="#FF9557"/>
<path d="M269.086 118.932L265.168 116.671L269.086 114.409L273.005 116.671L269.086 118.932Z" fill="#FF9557"/>
<path d="M402.039 368.999C399.9 368.999 397.797 368.437 395.957 367.375L325.842 326.894C324.742 326.258 324.086 325.122 324.086 323.853C324.086 322.584 324.742 321.447 325.842 320.811L452.708 247.567C452.922 247.443 453.186 247.443 453.4 247.567L529.254 291.36C530.353 291.997 531.008 293.133 531.008 294.404C531.008 295.672 530.353 296.808 529.255 297.444L408.125 367.378C406.281 368.437 404.177 368.999 402.039 368.999ZM453.051 248.965L326.532 322.01C325.867 322.395 325.468 323.084 325.468 323.853C325.468 324.622 325.867 325.311 326.532 325.696L396.647 366.177C399.908 368.058 404.167 368.06 407.43 366.177L528.559 296.243C529.223 295.858 529.621 295.171 529.621 294.402C529.621 293.633 529.223 292.943 528.557 292.557L453.051 248.965Z" fill="#42E8E0"/>
<path d="M453.209 219.265L436.333 119.147L437.691 118.576L435.652 117.408L435.655 117.419C435.259 117.157 434.7 117.172 434.084 117.529L299.217 195.395C298.109 196.034 297.271 197.674 297.466 198.821L314.476 299.735C314.564 300.26 314.825 300.61 315.187 300.762L317.18 301.914L317.522 300.051L317.408 300.085L451.459 222.691C452.566 222.05 453.404 220.411 453.209 219.265Z" fill="url(#paint12_linear_2935_5527)"/>
<path d="M299.967 198.13L297.75 197.149C297.5 197.717 297.379 198.315 297.465 198.818L314.475 299.734C314.563 300.259 314.825 300.608 315.186 300.76L317.179 301.913L317.521 300.049L317.408 300.083L324.191 296.166L299.967 198.13Z" fill="url(#paint13_linear_2935_5527)"/>
<path d="M453.571 223.904L318.704 301.769C317.663 302.371 316.772 302.022 316.589 300.944L299.579 200.029C299.384 198.883 300.222 197.242 301.33 196.604L436.197 118.739C437.238 118.137 438.129 118.485 438.312 119.563L455.322 220.478C455.517 221.624 454.679 223.265 453.571 223.904Z" fill="#24126A"/>
<path d="M434.435 125.181L304.434 200.238L320.555 295.277L450.47 220.272L434.435 125.181Z" fill="#42E8E0"/>
<path d="M538.347 271.678L530.987 275.521L457.185 232.911C455.95 232.199 453.793 232.287 452.368 233.11L325.08 306.6C323.862 305.918 318.309 303.248 318.309 303.248L321.002 310.267L321.013 310.258C321.125 310.571 321.364 310.862 321.767 311.093L399.496 355.97C400.731 356.682 402.888 356.594 404.313 355.77L534.569 280.567C535.155 280.229 535.513 279.819 535.662 279.404L535.673 279.41L538.347 271.678Z" fill="url(#paint14_linear_2935_5527)"/>
<path d="M537.21 272.89L403.714 349.964C402.252 350.808 400.042 350.9 398.778 350.169L319.116 304.176C317.85 303.446 318.01 302.17 319.47 301.326L452.966 224.252C454.427 223.408 456.638 223.316 457.903 224.047L537.564 270.04C538.832 270.77 538.672 272.046 537.21 272.89Z" fill="url(#paint15_linear_2935_5527)"/>
<path d="M537.21 272.12L403.714 349.194C402.253 350.038 400.042 350.13 398.778 349.399L319.116 303.406C318.701 303.167 318.455 302.866 318.341 302.545C318.141 303.145 318.381 303.751 319.116 304.175L398.778 350.168C400.043 350.898 402.253 350.807 403.714 349.963L537.21 272.889C538.193 272.321 538.572 271.561 538.339 270.898C538.194 271.335 537.825 271.766 537.21 272.12Z" fill="white"/>
<path d="M363.449 333.291V331.826C363.449 331.688 363.533 331.624 363.638 331.683L368.802 334.665C368.906 334.725 368.99 334.886 368.99 335.025V336.488C368.99 336.627 368.906 336.69 368.802 336.631L363.638 333.65C363.533 333.591 363.449 333.43 363.449 333.291Z" fill="#2842A2"/>
<path d="M371.172 337.749V336.285C371.172 336.147 371.256 336.083 371.361 336.142L376.524 339.124C376.627 339.184 376.713 339.345 376.713 339.484V340.949C376.713 341.087 376.629 341.151 376.524 341.092L371.361 338.11C371.256 338.048 371.172 337.887 371.172 337.749Z" fill="#2842A2"/>
<path d="M339.883 299.867L450.818 235.82C451.557 235.393 452.468 235.393 453.208 235.821L492.711 258.676C493.277 259.004 493.277 259.824 492.711 260.151L381.828 324.169C381.089 324.596 380.178 324.596 379.441 324.169L339.884 301.342C339.315 301.015 339.315 300.195 339.883 299.867Z" fill="#ADB1F2"/>
<path d="M339.883 301.342L340.28 301.571L450.818 237.752C451.557 237.326 452.469 237.326 453.208 237.754L492.314 260.38L492.711 260.151C493.279 259.824 493.279 259.005 492.711 258.676L453.208 235.821C452.469 235.393 451.557 235.393 450.818 235.82L339.883 299.867C339.315 300.195 339.315 301.015 339.883 301.342Z" fill="#9198DB"/>
<path d="M456.199 241.609L359.836 297.245L355.551 294.771L451.915 239.135L456.199 241.609Z" fill="#24126A"/>
<path d="M466.7 247.674L376.315 299.858L372.031 297.384L462.416 245.2L466.7 247.674Z" fill="#24126A"/>
<path d="M473.543 251.624L367.126 313.064L362.84 310.59L469.257 249.15L473.543 251.624Z" fill="#24126A"/>
<path d="M480.381 255.574L373.964 317.014L369.68 314.54L476.097 253.1L480.381 255.574Z" fill="#24126A"/>
<path d="M487.223 259.522L380.805 320.963L376.52 318.489L482.938 257.05L487.223 259.522Z" fill="#24126A"/>
<path d="M354.011 300.605L349.727 303.079L345.441 300.605L349.727 298.133L354.011 300.605Z" fill="#24126A"/>
<path d="M369.123 304.009L360.23 309.143L355.945 306.669L364.838 301.535L369.123 304.009Z" fill="#24126A"/>
<path d="M455.091 315.366L485.002 298.096C486.172 297.42 486.172 296.327 485.002 295.651L464.547 283.842C463.379 283.166 461.483 283.166 460.313 283.842L430.4 301.111C429.232 301.787 429.23 302.88 430.4 303.556L450.855 315.366C452.025 316.041 453.921 316.041 455.091 315.366Z" fill="url(#paint16_linear_2935_5527)"/>
<path d="M430.401 302.113L460.314 284.843C461.482 284.169 463.378 284.169 464.548 284.843L485.003 296.653C485.364 296.861 485.599 297.112 485.738 297.376C486.048 296.786 485.811 296.121 485.003 295.654L464.548 283.845C463.38 283.169 461.484 283.169 460.314 283.845L430.401 301.114C429.593 301.581 429.357 302.246 429.666 302.838C429.804 302.57 430.04 302.321 430.401 302.113Z" fill="#9198DB"/>
<g opacity="0.11">
<mask id="mask0_2935_5527" style="mask-type:luminance" maskUnits="userSpaceOnUse" x="304" y="125" width="147" height="171">
<path d="M434.435 125.181L304.434 200.238L320.555 295.277L450.47 220.272L434.435 125.181Z" fill="white"/>
</mask>
<g mask="url(#mask0_2935_5527)">
<path d="M453.101 224.093L319.605 301.167C318.143 302.011 315.933 302.103 314.669 301.372L235.007 255.379C233.741 254.649 233.9 253.373 235.361 252.529L368.857 175.455C370.319 174.611 372.529 174.52 373.793 175.25L453.455 221.243C454.721 221.973 454.563 223.249 453.101 224.093Z" fill="url(#paint17_linear_2935_5527)"/>
<path d="M319.207 237.912L349.12 220.642C350.29 219.966 350.29 218.873 349.12 218.197L328.665 206.388C327.497 205.712 325.601 205.712 324.431 206.388L294.518 223.657C293.348 224.333 293.348 225.426 294.518 226.102L314.973 237.912C316.143 238.587 318.039 238.587 319.207 237.912Z" fill="url(#paint18_linear_2935_5527)"/>
<path d="M294.52 224.657L324.431 207.387C325.6 206.712 327.495 206.712 328.665 207.387L349.12 219.197C349.482 219.405 349.716 219.656 349.855 219.92C350.165 219.33 349.929 218.664 349.12 218.198L328.665 206.389C327.497 205.713 325.601 205.713 324.431 206.389L294.518 223.658C293.71 224.125 293.474 224.79 293.784 225.38C293.922 225.116 294.158 224.867 294.52 224.657Z" fill="#9198DB"/>
<path d="M281.371 264.9L392.306 200.851C393.045 200.424 393.957 200.424 394.696 200.852L434.199 223.707C434.766 224.035 434.766 224.855 434.198 225.183L323.315 289.201C322.576 289.627 321.665 289.627 320.928 289.201L281.371 266.374C280.803 266.048 280.803 265.229 281.371 264.9Z" fill="#ADB1F2"/>
<path d="M281.371 266.375L281.768 266.603L392.306 202.784C393.045 202.357 393.957 202.358 394.696 202.786L433.802 225.412L434.199 225.184C434.767 224.856 434.767 224.037 434.201 223.708L394.697 200.853C393.958 200.425 393.046 200.425 392.307 200.852L281.373 264.901C280.803 265.228 280.803 266.047 281.371 266.375Z" fill="#9198DB"/>
<path d="M423.859 222.148L327.215 277.947L331.043 280.157L427.688 224.36L423.859 222.148Z" fill="#24126A"/>
<path d="M413.679 216.271L321.82 269.306L325.649 271.516L417.508 218.482L413.679 216.271Z" fill="#24126A"/>
<path d="M314.962 273.266L306.383 278.218L310.211 280.428L318.79 275.476L314.962 273.266Z" fill="#24126A"/>
<path d="M322.541 280.647L316.566 284.097L320.395 286.307L326.37 282.857L322.541 280.647Z" fill="#24126A"/>
<path d="M407.293 212.587L299.996 274.535L303.824 276.745L411.121 214.798L407.293 212.587Z" fill="#24126A"/>
<path d="M400.914 208.902L293.617 270.851L297.446 273.061L404.742 211.112L400.914 208.902Z" fill="#24126A"/>
<path d="M394.535 205.219L287.238 267.167L291.067 269.377L398.363 207.43L394.535 205.219Z" fill="#24126A"/>
</g>
</g>
<path d="M353.391 259.044L363.908 252.966L364.216 254.792L353.699 260.87L353.391 259.044Z" fill="#5761D7"/>
<path d="M365.602 251.996L371.332 248.684L371.64 250.51L365.908 253.822L365.602 251.996Z" fill="#5761D7"/>
<path d="M380.246 243.536L384.393 241.14L384.701 242.966L380.554 245.362L380.246 243.536Z" fill="#5761D7"/>
<path d="M377.227 245.284L378.643 244.465L378.951 246.291L377.535 247.11L377.227 245.284Z" fill="#5761D7"/>
<path d="M373.039 247.701L375.612 246.213L375.92 248.039L373.347 249.526L373.039 247.701Z" fill="#5761D7"/>
<path d="M361.711 245.076L365.856 242.679L366.165 244.505L362.018 246.902L361.711 245.076Z" fill="#5761D7"/>
<path d="M351.984 250.7L360.109 246.004L360.417 247.83L352.294 252.526L351.984 250.7Z" fill="#5761D7"/>
<path d="M363.629 221.1L371.753 216.405L372.062 218.23L363.937 222.926L363.629 221.1Z" fill="#5761D7"/>
<path d="M359.445 223.517L362.018 222.03L362.328 223.857L359.754 225.344L359.445 223.517Z" fill="#5761D7"/>
<path d="M364.984 229.457L373.109 224.761L373.417 226.587L365.293 231.283L364.984 229.457Z" fill="#5761D7"/>
<path d="M360.805 231.872L363.378 230.385L363.687 232.21L361.113 233.698L360.805 231.872Z" fill="#5761D7"/>
<path d="M357.633 185.043L342.328 193.889L342.02 192.063L357.324 183.217L357.633 185.043Z" fill="#5761D7"/>
<path d="M363.029 181.926L359.242 184.115L358.934 182.289L362.721 180.1L363.029 181.926Z" fill="#5761D7"/>
<path d="M389.922 180.151L374.617 188.996L374.309 187.17L389.613 178.324L389.922 180.151Z" fill="#5761D7"/>
<path d="M395.314 177.033L391.527 179.223L391.219 177.396L395.006 175.207L395.314 177.033Z" fill="#5761D7"/>
<path d="M347.178 195.663L343.031 198.06L342.723 196.234L346.87 193.838L347.178 195.663Z" fill="#5761D7"/>
<path d="M372.409 190.252L368.261 192.649L367.953 190.823L372.1 188.427L372.409 190.252Z" fill="#5761D7"/>
<path d="M356.913 190.04L348.789 194.736L348.48 192.91L356.605 188.214L356.913 190.04Z" fill="#5761D7"/>
<path d="M361.088 187.625L358.515 189.112L358.207 187.286L360.78 185.799L361.088 187.625Z" fill="#5761D7"/>
<path d="M370.894 181.967L362.769 186.662L362.461 184.836L370.585 180.142L370.894 181.967Z" fill="#5761D7"/>
<path d="M375.078 179.55L372.504 181.037L372.195 179.211L374.768 177.724L375.078 179.55Z" fill="#5761D7"/>
<path d="M371.704 186.079L367.558 188.477L367.25 186.65L371.396 184.253L371.704 186.079Z" fill="#5761D7"/>
<path d="M381.433 180.455L373.308 185.151L373 183.325L381.124 178.629L381.433 180.455Z" fill="#5761D7"/>
<path d="M385.616 178.039L383.041 179.526L382.734 177.701L385.307 176.214L385.616 178.039Z" fill="#5761D7"/>
<path d="M352.218 197.33L343.734 202.234L343.426 200.408L351.909 195.504L352.218 197.33Z" fill="#5761D7"/>
<path d="M359.966 192.855L353.832 196.401L353.523 194.575L359.658 191.028L359.966 192.855Z" fill="#5761D7"/>
<path d="M365.716 189.53L361.57 191.925L361.262 190.099L365.407 187.703L365.716 189.53Z" fill="#5761D7"/>
<path d="M405.929 170.917L397.445 175.82L397.137 173.995L405.621 169.091L405.929 170.917Z" fill="#5761D7"/>
<path d="M413.671 166.443L407.535 169.988L407.227 168.161L413.361 164.616L413.671 166.443Z" fill="#5761D7"/>
<path d="M419.427 163.117L415.281 165.513L414.973 163.687L419.118 161.291L419.427 163.117Z" fill="#5761D7"/>
<path d="M402.617 226.042L411.1 221.14L411.41 222.965L402.925 227.868L402.617 226.042Z" fill="#5761D7"/>
<path d="M394.875 230.517L401.009 226.972L401.319 228.798L395.183 232.343L394.875 230.517Z" fill="#5761D7"/>
<path d="M389.121 233.841L393.268 231.445L393.576 233.272L389.429 235.668L389.121 233.841Z" fill="#5761D7"/>
<path d="M399.797 232.266L408.28 227.362L408.59 229.189L400.105 234.093L399.797 232.266Z" fill="#5761D7"/>
<path d="M392.059 236.741L398.193 233.194L398.503 235.021L392.367 238.567L392.059 236.741Z" fill="#5761D7"/>
<path d="M386.309 240.067L390.456 237.671L390.764 239.496L386.617 241.893L386.309 240.067Z" fill="#5761D7"/>
<path d="M365.543 224.55L368.408 222.894L368.716 224.72L365.851 226.377L365.543 224.55Z" fill="#5761D7"/>
<path d="M360.148 227.667L363.934 225.479L364.244 227.304L360.457 229.494L360.148 227.667Z" fill="#5761D7"/>
<path d="M352.979 201.477L344.496 206.381L344.188 204.554L352.67 199.65L352.979 201.477Z" fill="#5761D7"/>
<path d="M360.721 197.001L354.587 200.548L354.277 198.721L360.413 195.175L360.721 197.001Z" fill="#5761D7"/>
<path d="M366.479 193.676L362.332 196.073L362.023 194.247L366.17 191.85L366.479 193.676Z" fill="#5761D7"/>
<path d="M348.064 208.896L345.199 210.553L344.891 208.726L347.756 207.069L348.064 208.896Z" fill="#5761D7"/>
<path d="M353.463 205.779L349.676 207.968L349.367 206.141L353.154 203.952L353.463 205.779Z" fill="#5761D7"/>
<path d="M361.172 201.323L355.07 204.849L354.762 203.024L360.863 199.497L361.172 201.323Z" fill="#5761D7"/>
<path d="M369.445 236.053L372.31 234.397L372.619 236.224L369.754 237.879L369.445 236.053Z" fill="#5761D7"/>
<path d="M364.051 239.17L367.838 236.982L368.146 238.809L364.359 240.997L364.051 239.17Z" fill="#5761D7"/>
<path d="M356.34 243.626L362.442 240.1L362.75 241.926L356.648 245.452L356.34 243.626Z" fill="#5761D7"/>
<path d="M373.809 229.281L379.909 225.755L380.217 227.581L374.117 231.107L373.809 229.281Z" fill="#5761D7"/>
<path d="M363.824 234.721L372.049 229.968L372.357 231.794L364.133 236.548L363.824 234.721Z" fill="#5761D7"/>
<path d="M359.648 237.136L362.221 235.649L362.53 237.476L359.957 238.963L359.648 237.136Z" fill="#5761D7"/>
<path d="M355.637 239.455L358.21 237.968L358.518 239.794L355.944 241.281L355.637 239.455Z" fill="#5761D7"/>
<path d="M356.195 215.88L364.32 211.186L364.628 213.012L356.504 217.706L356.195 215.88Z" fill="#5761D7"/>
<path d="M352.016 218.296L354.589 216.809L354.897 218.635L352.324 220.122L352.016 218.296Z" fill="#5761D7"/>
<path d="M356.754 210.976L359.619 209.32L359.927 211.147L357.062 212.802L356.754 210.976Z" fill="#5761D7"/>
<path d="M366.867 214.318L369.734 212.661L370.042 214.488L367.175 216.144L366.867 214.318Z" fill="#5761D7"/>
<path d="M370.953 211.96L377.829 207.988L378.138 209.815L371.261 213.785L370.953 211.96Z" fill="#5761D7"/>
<path d="M379.051 207.286L383.14 204.923L383.449 206.749L379.359 209.113L379.051 207.286Z" fill="#5761D7"/>
<path d="M351.359 214.092L355.146 211.904L355.455 213.731L351.668 215.919L351.359 214.092Z" fill="#5761D7"/>
<path d="M351.004 209.805L353.869 208.148L354.177 209.975L351.312 211.632L351.004 209.805Z" fill="#5761D7"/>
<path d="M345.609 212.923L349.396 210.733L349.705 212.56L345.918 214.749L345.609 212.923Z" fill="#5761D7"/>
<path d="M362.711 216.719L365.284 215.231L365.592 217.058L363.019 218.545L362.711 216.719Z" fill="#5761D7"/>
<path d="M358.699 219.036L361.272 217.548L361.58 219.374L359.008 220.863L358.699 219.036Z" fill="#5761D7"/>
<path d="M378.457 240.004L387.235 234.931L387.543 236.757L378.765 241.831L378.457 240.004Z" fill="#5761D7"/>
<path d="M368.625 245.686L376.848 240.933L377.157 242.759L368.932 247.512L368.625 245.686Z" fill="#5761D7"/>
<path d="M364.449 248.101L367.022 246.614L367.33 248.441L364.758 249.928L364.449 248.101Z" fill="#5761D7"/>
<path d="M360.438 250.422L363.01 248.935L363.319 250.76L360.746 252.248L360.438 250.422Z" fill="#5761D7"/>
<path d="M358.243 251.688L352.691 254.897L353 256.724L358.551 253.515L358.243 251.688Z" fill="#5761D7"/>
<path d="M136.377 368.998C134.238 368.998 132.134 368.436 130.293 367.374L9.16426 297.44C8.06518 296.806 7.41016 295.67 7.41016 294.4C7.41016 293.131 8.06518 291.993 9.16279 291.356L85.0184 247.563C85.2323 247.439 85.4964 247.439 85.7103 247.563L212.577 320.807C213.676 321.443 214.331 322.579 214.331 323.849C214.331 325.118 213.676 326.255 212.577 326.89L142.46 367.371C140.619 368.436 138.516 368.998 136.377 368.998ZM130.985 366.176C134.248 368.057 138.507 368.057 141.768 366.176L211.885 325.695C212.55 325.31 212.948 324.621 212.948 323.852C212.948 323.082 212.55 322.394 211.885 322.009L85.3651 248.964L85.1217 249.104L9.85616 292.556C9.19081 292.941 8.79397 293.631 8.79397 294.4C8.79397 295.17 9.19228 295.856 9.85616 296.241L130.985 366.176Z" fill="#42E8E0"/>
<path d="M85.2157 219.266L102.091 119.148L100.734 118.577L102.773 117.409L102.77 117.42C103.165 117.158 103.725 117.172 104.341 117.529L239.208 195.396C240.316 196.035 241.154 197.675 240.959 198.822L223.949 299.736C223.861 300.261 223.599 300.611 223.238 300.763L221.245 301.915L220.903 300.052L221.016 300.086L86.9654 222.691C85.8589 222.051 85.021 220.412 85.2157 219.266Z" fill="url(#paint19_linear_2935_5527)"/>
<path d="M238.462 198.13L240.68 197.149C240.928 197.717 241.05 198.315 240.965 198.818L223.955 299.734C223.866 300.259 223.605 300.608 223.243 300.76L221.25 301.913L220.908 300.049L221.022 300.083L214.238 296.166L238.462 198.13Z" fill="url(#paint20_linear_2935_5527)"/>
<path d="M84.8536 223.905L219.72 301.77C220.762 302.372 221.653 302.023 221.836 300.945L238.846 200.03C239.04 198.884 238.202 197.243 237.095 196.605L102.228 118.74C101.186 118.138 100.295 118.486 100.112 119.564L83.1024 220.479C82.9077 221.625 83.7456 223.266 84.8536 223.905Z" fill="#24126A"/>
<path d="M103.99 125.182L233.991 200.239L217.871 295.278L87.957 220.273L103.99 125.182Z" fill="#42E8E0"/>
<path d="M0.0703125 271.679L7.43045 275.522L81.2325 232.912C82.4673 232.199 84.6242 232.288 86.0493 233.111L213.337 306.601C214.556 305.919 220.109 303.249 220.109 303.249L217.415 310.268L217.405 310.259C217.293 310.572 217.054 310.863 216.651 311.094L138.922 355.971C137.687 356.683 135.53 356.595 134.105 355.771L3.84849 280.568C3.2628 280.23 2.90431 279.82 2.75531 279.405L2.74498 279.411L0.0703125 271.679Z" fill="url(#paint21_linear_2935_5527)"/>
<path d="M1.20954 272.891L134.706 349.965C136.168 350.809 138.378 350.901 139.642 350.17L219.304 304.177C220.57 303.447 220.41 302.171 218.95 301.327L85.4536 224.253C83.9931 223.409 81.7816 223.317 80.5173 224.048L0.855481 270.041C-0.41178 270.771 -0.252453 272.047 1.20954 272.891Z" fill="url(#paint22_linear_2935_5527)"/>
<path d="M1.20692 272.121L134.703 349.195C136.164 350.039 138.375 350.13 139.639 349.4L219.301 303.407C219.716 303.168 219.962 302.867 220.076 302.546C220.276 303.146 220.036 303.752 219.301 304.176L139.639 350.169C138.374 350.899 136.164 350.808 134.703 349.964L1.20692 272.89C0.224389 272.322 -0.154755 271.562 0.078338 270.899C0.222915 271.336 0.591733 271.767 1.20692 272.121Z" fill="white"/>
<path d="M174.975 333.292V331.827C174.975 331.689 174.891 331.625 174.786 331.684L169.622 334.666C169.518 334.726 169.434 334.887 169.434 335.026V336.489C169.434 336.628 169.518 336.691 169.622 336.632L174.786 333.651C174.891 333.592 174.975 333.431 174.975 333.292Z" fill="#2842A2"/>
<path d="M167.252 337.75V336.286C167.252 336.148 167.168 336.084 167.063 336.143L161.9 339.125C161.796 339.185 161.711 339.346 161.711 339.485V340.95C161.711 341.088 161.795 341.152 161.9 341.093L167.063 338.111C167.168 338.049 167.252 337.888 167.252 337.75Z" fill="#2842A2"/>
<path d="M198.539 299.868L87.604 235.821C86.8648 235.394 85.9531 235.394 85.214 235.822L45.7106 258.677C45.1426 259.005 45.1441 259.825 45.7106 260.152L156.594 324.17C157.333 324.597 158.243 324.597 158.981 324.17L198.537 301.343C199.107 301.016 199.107 300.196 198.539 299.868Z" fill="#ADB1F2"/>
<path d="M198.531 301.343L198.135 301.572L87.5967 237.753C86.8576 237.327 85.9458 237.327 85.2067 237.755L46.1002 260.381L45.7033 260.152C45.1353 259.825 45.1353 259.006 45.7033 258.677L85.2067 235.822C85.9458 235.394 86.8576 235.394 87.5967 235.821L198.531 299.868C199.099 300.196 199.099 301.016 198.531 301.343Z" fill="#9198DB"/>
<path d="M91.5039 246.968L185.406 301.182L189.463 298.576L95.8058 244.504L91.5039 246.968Z" fill="#24126A"/>
<path d="M85.4062 255.576L170.66 304.798L173.581 301.537L89.6875 253.101L85.4062 255.576Z" fill="#24126A"/>
<path d="M64.8711 251.625L171.289 313.065L175.574 310.591L69.1553 249.151L64.8711 251.625Z" fill="#24126A"/>
<path d="M58.0312 255.575L164.449 317.015L168.733 314.541L62.3155 253.101L58.0312 255.575Z" fill="#24126A"/>
<path d="M51.1914 259.523L157.609 320.964L161.895 318.49L55.4756 257.051L51.1914 259.523Z" fill="#24126A"/>
<path d="M184.406 300.604L188.69 303.079L192.975 300.604L188.69 298.132L184.406 300.604Z" fill="#24126A"/>
<path d="M169.297 304.01L178.19 309.144L182.474 306.67L173.581 301.536L169.297 304.01Z" fill="#24126A"/>
<path d="M83.3283 315.367L53.4154 298.097C52.247 297.421 52.247 296.328 53.4154 295.652L73.8702 283.843C75.0387 283.167 76.9344 283.167 78.1043 283.843L108.017 301.112C109.186 301.788 109.186 302.881 108.017 303.557L87.5624 315.367C86.394 316.042 84.4982 316.042 83.3283 315.367Z" fill="url(#paint23_linear_2935_5527)"/>
<path d="M108.017 302.114L78.1057 284.844C76.9373 284.17 75.0415 284.17 73.8716 284.844L53.4168 296.654C53.0553 296.862 52.8207 297.113 52.6821 297.377C52.3722 296.787 52.6083 296.122 53.4168 295.655L73.8716 283.846C75.0401 283.17 76.9358 283.17 78.1057 283.846L108.017 301.115C108.826 301.582 109.062 302.247 108.752 302.838C108.615 302.571 108.379 302.322 108.017 302.114Z" fill="#9198DB"/>
<g opacity="0.11">
<mask id="mask1_2935_5527" style="mask-type:luminance" maskUnits="userSpaceOnUse" x="87" y="125" width="147" height="171">
<path d="M103.994 125.18L233.995 200.237L217.875 295.276L87.9609 220.271L103.994 125.18Z" fill="white"/>
</mask>
<g mask="url(#mask1_2935_5527)">
<path d="M85.3295 224.092L218.826 301.166C220.286 302.01 222.498 302.102 223.762 301.372L303.424 255.378C304.69 254.648 304.53 253.372 303.07 252.528L169.574 175.454C168.113 174.61 165.902 174.519 164.637 175.249L84.9755 221.242C83.7097 221.972 83.869 223.248 85.3295 224.092Z" fill="url(#paint24_linear_2935_5527)"/>
<path d="M219.223 237.911L189.31 220.641C188.141 219.965 188.141 218.872 189.31 218.196L209.765 206.387C210.933 205.711 212.829 205.711 213.999 206.387L243.912 223.656C245.082 224.332 245.082 225.425 243.912 226.101L223.457 237.911C222.288 238.586 220.393 238.586 219.223 237.911Z" fill="url(#paint25_linear_2935_5527)"/>
<path d="M243.912 224.656L214 207.386C212.83 206.711 210.936 206.711 209.766 207.386L189.311 219.196C188.95 219.404 188.715 219.655 188.577 219.919C188.267 219.329 188.503 218.664 189.311 218.197L209.766 206.388C210.935 205.712 212.83 205.712 214 206.388L243.913 223.657C244.722 224.124 244.958 224.789 244.648 225.379C244.509 225.115 244.273 224.866 243.912 224.656Z" fill="#9198DB"/>
<path d="M257.062 264.897L146.127 200.85C145.388 200.424 144.476 200.423 143.737 200.851L104.234 223.706C103.666 224.034 103.667 224.854 104.235 225.182L215.118 289.2C215.858 289.626 216.768 289.626 217.505 289.2L257.062 266.373C257.63 266.045 257.63 265.226 257.062 264.897Z" fill="#ADB1F2"/>
<path d="M257.063 266.373L256.666 266.601L146.128 202.782C145.389 202.355 144.477 202.356 143.738 202.784L104.632 225.41L104.235 225.182C103.667 224.854 103.667 224.035 104.233 223.706L143.737 200.851C144.476 200.423 145.388 200.424 146.127 200.85L257.061 264.899C257.631 265.226 257.631 266.045 257.063 266.373Z" fill="#9198DB"/>
<path d="M114.574 222.146L211.219 277.945L207.391 280.155L110.746 224.358L114.574 222.146Z" fill="#24126A"/>
<path d="M124.758 216.269L216.617 269.304L212.789 271.514L120.93 218.48L124.758 216.269Z" fill="#24126A"/>
<path d="M223.477 273.264L232.057 278.216L228.229 280.426L219.648 275.474L223.477 273.264Z" fill="#24126A"/>
<path d="M215.899 280.646L221.874 284.095L218.045 286.305L212.07 282.856L215.899 280.646Z" fill="#24126A"/>
<path d="M131.137 212.585L238.434 274.533L234.605 276.743L127.309 214.796L131.137 212.585Z" fill="#24126A"/>
<path d="M137.516 208.9L244.813 270.849L240.984 273.059L133.688 211.11L137.516 208.9Z" fill="#24126A"/>
<path d="M143.903 205.217L251.199 267.165L247.371 269.375L140.074 207.428L143.903 205.217Z" fill="#24126A"/>
</g>
</g>
<path d="M133.09 160.411L143.607 166.49L143.916 164.663L133.398 158.585L133.09 160.411Z" fill="#5761D7"/>
<path d="M145.301 167.461L151.031 170.773L151.339 168.947L145.609 165.635L145.301 167.461Z" fill="#5761D7"/>
<path d="M159.949 175.919L164.095 178.315L164.403 176.489L160.258 174.093L159.949 175.919Z" fill="#5761D7"/>
<path d="M156.926 174.171L158.342 174.99L158.65 173.164L157.234 172.345L156.926 174.171Z" fill="#5761D7"/>
<path d="M152.738 171.755L155.311 173.244L155.62 171.417L153.047 169.929L152.738 171.755Z" fill="#5761D7"/>
<path d="M141.41 174.379L145.556 176.776L145.864 174.95L141.718 172.553L141.41 174.379Z" fill="#5761D7"/>
<path d="M131.684 168.756L139.808 173.452L140.116 171.626L131.992 166.93L131.684 168.756Z" fill="#5761D7"/>
<path d="M143.328 198.356L151.453 203.051L151.761 201.224L143.636 196.528L143.328 198.356Z" fill="#5761D7"/>
<path d="M139.145 195.94L141.719 197.427L142.027 195.6L139.454 194.113L139.145 195.94Z" fill="#5761D7"/>
<path d="M144.684 189.999L152.808 194.695L153.116 192.869L144.992 188.173L144.684 189.999Z" fill="#5761D7"/>
<path d="M140.504 187.583L143.077 189.07L143.385 187.244L140.812 185.757L140.504 187.583Z" fill="#5761D7"/>
<path d="M137.332 234.413L122.027 225.567L121.719 227.394L137.023 236.24L137.332 234.413Z" fill="#5761D7"/>
<path d="M142.728 237.53L138.941 235.341L138.633 237.167L142.42 239.357L142.728 237.53Z" fill="#5761D7"/>
<path d="M169.621 239.304L154.316 230.458L154.008 232.284L169.312 241.13L169.621 239.304Z" fill="#5761D7"/>
<path d="M175.013 242.422L171.226 240.232L170.918 242.059L174.705 244.248L175.013 242.422Z" fill="#5761D7"/>
<path d="M126.877 223.792L122.73 221.395L122.422 223.221L126.569 225.617L126.877 223.792Z" fill="#5761D7"/>
<path d="M152.108 229.202L147.962 226.806L147.652 228.632L151.799 231.028L152.108 229.202Z" fill="#5761D7"/>
<path d="M136.612 229.416L128.488 224.72L128.18 226.546L136.304 231.242L136.612 229.416Z" fill="#5761D7"/>
<path d="M140.789 231.83L138.215 230.343L137.906 232.169L140.479 233.656L140.789 231.83Z" fill="#5761D7"/>
<path d="M150.593 237.488L142.468 232.794L142.16 234.62L150.285 239.315L150.593 237.488Z" fill="#5761D7"/>
<path d="M154.776 239.905L152.203 238.418L151.895 240.244L154.467 241.731L154.776 239.905Z" fill="#5761D7"/>
<path d="M151.403 233.377L147.258 230.979L146.949 232.806L151.095 235.202L151.403 233.377Z" fill="#5761D7"/>
<path d="M161.132 239.001L153.008 234.305L152.699 236.131L160.822 240.827L161.132 239.001Z" fill="#5761D7"/>
<path d="M165.315 241.415L162.742 239.93L162.434 241.755L165.007 243.242L165.315 241.415Z" fill="#5761D7"/>
<path d="M131.918 222.127L123.433 217.223L123.125 219.049L131.609 223.953L131.918 222.127Z" fill="#5761D7"/>
<path d="M139.667 226.601L133.531 223.055L133.223 224.881L139.358 228.428L139.667 226.601Z" fill="#5761D7"/>
<path d="M145.415 229.926L141.269 227.53L140.961 229.355L145.107 231.753L145.415 229.926Z" fill="#5761D7"/>
<path d="M185.629 248.539L177.144 243.635L176.836 245.461L185.32 250.365L185.629 248.539Z" fill="#5761D7"/>
<path d="M193.37 253.012L187.234 249.467L186.926 251.293L193.061 254.838L193.37 253.012Z" fill="#5761D7"/>
<path d="M199.127 256.337L194.98 253.941L194.672 255.768L198.819 258.164L199.127 256.337Z" fill="#5761D7"/>
<path d="M182.316 193.413L190.801 198.316L191.109 196.489L182.625 191.587L182.316 193.413Z" fill="#5761D7"/>
<path d="M174.574 188.939L180.71 192.484L181.018 190.657L174.883 187.112L174.574 188.939Z" fill="#5761D7"/>
<path d="M168.82 185.614L172.967 188.009L173.276 186.183L169.129 183.787L168.82 185.614Z" fill="#5761D7"/>
<path d="M179.496 187.19L187.98 192.094L188.289 190.267L179.804 185.363L179.496 187.19Z" fill="#5761D7"/>
<path d="M171.758 182.715L177.894 186.262L178.202 184.435L172.066 180.889L171.758 182.715Z" fill="#5761D7"/>
<path d="M166.008 179.39L170.155 181.786L170.463 179.959L166.316 177.563L166.008 179.39Z" fill="#5761D7"/>
<path d="M145.242 194.905L148.107 196.561L148.416 194.735L145.551 193.078L145.242 194.905Z" fill="#5761D7"/>
<path d="M139.848 191.787L143.635 193.975L143.943 192.149L140.156 189.961L139.848 191.787Z" fill="#5761D7"/>
<path d="M132.679 217.978L124.195 213.074L123.887 214.901L132.37 219.804L132.679 217.978Z" fill="#5761D7"/>
<path d="M140.421 222.453L134.285 218.906L133.977 220.733L140.111 224.279L140.421 222.453Z" fill="#5761D7"/>
<path d="M146.177 225.779L142.031 223.382L141.723 225.208L145.868 227.606L146.177 225.779Z" fill="#5761D7"/>
<path d="M127.765 210.561L124.898 208.904L124.59 210.731L127.456 212.387L127.765 210.561Z" fill="#5761D7"/>
<path d="M133.162 213.678L129.375 211.488L129.066 213.315L132.853 215.504L133.162 213.678Z" fill="#5761D7"/>
<path d="M140.871 218.132L134.769 214.604L134.461 216.431L140.563 219.958L140.871 218.132Z" fill="#5761D7"/>
<path d="M149.145 183.403L152.011 185.058L152.319 183.231L149.453 181.576L149.145 183.403Z" fill="#5761D7"/>
<path d="M143.75 180.283L147.537 182.472L147.845 180.646L144.058 178.458L143.75 180.283Z" fill="#5761D7"/>
<path d="M136.039 175.83L142.141 179.356L142.449 177.53L136.347 174.004L136.039 175.83Z" fill="#5761D7"/>
<path d="M153.508 190.175L159.61 193.701L159.918 191.875L153.816 188.349L153.508 190.175Z" fill="#5761D7"/>
<path d="M143.523 184.735L151.748 189.488L152.057 187.662L143.832 182.908L143.523 184.735Z" fill="#5761D7"/>
<path d="M139.348 182.319L141.921 183.806L142.229 181.979L139.656 180.492L139.348 182.319Z" fill="#5761D7"/>
<path d="M135.336 180L137.909 181.487L138.217 179.661L135.644 178.174L135.336 180Z" fill="#5761D7"/>
<path d="M135.895 203.572L144.019 208.268L144.327 206.441L136.203 201.747L135.895 203.572Z" fill="#5761D7"/>
<path d="M131.715 201.157L134.288 202.645L134.596 200.818L132.023 199.331L131.715 201.157Z" fill="#5761D7"/>
<path d="M136.453 208.48L139.318 210.135L139.628 208.309L136.761 206.653L136.453 208.48Z" fill="#5761D7"/>
<path d="M146.566 205.137L149.431 206.794L149.74 204.966L146.875 203.311L146.566 205.137Z" fill="#5761D7"/>
<path d="M150.652 207.494L157.527 211.466L157.836 209.639L150.959 205.668L150.652 207.494Z" fill="#5761D7"/>
<path d="M158.75 212.167L162.84 214.531L163.148 212.704L159.058 210.341L158.75 212.167Z" fill="#5761D7"/>
<path d="M131.059 205.362L134.846 207.549L135.154 205.723L131.367 203.535L131.059 205.362Z" fill="#5761D7"/>
<path d="M130.703 209.648L133.568 211.304L133.876 209.478L131.011 207.821L130.703 209.648Z" fill="#5761D7"/>
<path d="M125.309 206.53L129.096 208.719L129.404 206.892L125.617 204.703L125.309 206.53Z" fill="#5761D7"/>
<path d="M142.41 202.737L144.983 204.224L145.291 202.397L142.718 200.91L142.41 202.737Z" fill="#5761D7"/>
<path d="M138.402 200.417L140.975 201.906L141.284 200.079L138.711 198.591L138.402 200.417Z" fill="#5761D7"/>
<path d="M158.156 179.451L166.933 184.525L167.241 182.699L158.465 177.625L158.156 179.451Z" fill="#5761D7"/>
<path d="M148.324 173.768L156.547 178.522L156.856 176.697L148.633 171.943L148.324 173.768Z" fill="#5761D7"/>
<path d="M144.148 171.354L146.721 172.841L147.031 171.014L144.457 169.527L144.148 171.354Z" fill="#5761D7"/>
<path d="M140.137 169.034L142.71 170.522L143.018 168.695L140.445 167.208L140.137 169.034Z" fill="#5761D7"/>
<path d="M137.944 167.767L132.391 164.558L132.699 162.731L138.252 165.94L137.944 167.767Z" fill="#5761D7"/>
<path d="M82.2266 241.612L86.5108 244.086L90.795 241.612L86.5108 239.138L82.2266 241.612Z" fill="#24126A"/>
<path d="M71.7188 247.677L80.6118 252.811L84.896 250.337L76.003 245.203L71.7188 247.677Z" fill="#24126A"/>
<defs>
<linearGradient id="paint0_linear_2935_5527" x1="0.0467275" y1="124.572" x2="216.264" y2="124.572" gradientUnits="userSpaceOnUse">
<stop stop-color="#5761D7"/>
<stop offset="0.1779" stop-color="#5C66D9"/>
<stop offset="0.3876" stop-color="#6A73DF"/>
<stop offset="0.6134" stop-color="#8289E8"/>
<stop offset="0.849" stop-color="#A3A7F5"/>
<stop offset="1" stop-color="#BCBEFF"/>
</linearGradient>
<linearGradient id="paint1_linear_2935_5527" x1="72.6954" y1="117.363" x2="289.028" y2="117.363" gradientUnits="userSpaceOnUse">
<stop stop-color="#C0BFF6"/>
<stop offset="0.2938" stop-color="#C5C4F7"/>
<stop offset="0.6399" stop-color="#D3D2F9"/>
<stop offset="1" stop-color="#E9E9FD"/>
</linearGradient>
<linearGradient id="paint2_linear_2935_5527" x1="58.656" y1="100.717" x2="114.032" y2="100.717" gradientUnits="userSpaceOnUse">
<stop stop-color="#C0BFF6"/>
<stop offset="0.2938" stop-color="#C5C4F7"/>
<stop offset="0.6399" stop-color="#D3D2F9"/>
<stop offset="1" stop-color="#E9E9FD"/>
</linearGradient>
<linearGradient id="paint3_linear_2935_5527" x1="62.9887" y1="90.7342" x2="216.082" y2="90.7342" gradientUnits="userSpaceOnUse">
<stop stop-color="#C0BFF6"/>
<stop offset="0.2938" stop-color="#C5C4F7"/>
<stop offset="0.6399" stop-color="#D3D2F9"/>
<stop offset="1" stop-color="#E9E9FD"/>
</linearGradient>
<linearGradient id="paint4_linear_2935_5527" x1="62.9888" y1="129.996" x2="89.2767" y2="129.996" gradientUnits="userSpaceOnUse">
<stop stop-color="#5761D7"/>
<stop offset="0.1779" stop-color="#5C66D9"/>
<stop offset="0.3876" stop-color="#6A73DF"/>
<stop offset="0.6134" stop-color="#8289E8"/>
<stop offset="0.849" stop-color="#A3A7F5"/>
<stop offset="1" stop-color="#BCBEFF"/>
</linearGradient>
<linearGradient id="paint5_linear_2935_5527" x1="538.378" y1="124.572" x2="322.16" y2="124.572" gradientUnits="userSpaceOnUse">
<stop stop-color="#5761D7"/>
<stop offset="0.1779" stop-color="#5C66D9"/>
<stop offset="0.3876" stop-color="#6A73DF"/>
<stop offset="0.6134" stop-color="#8289E8"/>
<stop offset="0.849" stop-color="#A3A7F5"/>
<stop offset="1" stop-color="#BCBEFF"/>
</linearGradient>
<linearGradient id="paint6_linear_2935_5527" x1="465.727" y1="117.363" x2="249.395" y2="117.363" gradientUnits="userSpaceOnUse">
<stop stop-color="#C0BFF6"/>
<stop offset="0.2938" stop-color="#C5C4F7"/>
<stop offset="0.6399" stop-color="#D3D2F9"/>
<stop offset="1" stop-color="#E9E9FD"/>
</linearGradient>
<linearGradient id="paint7_linear_2935_5527" x1="479.759" y1="100.717" x2="424.383" y2="100.717" gradientUnits="userSpaceOnUse">
<stop stop-color="#C0BFF6"/>
<stop offset="0.2938" stop-color="#C5C4F7"/>
<stop offset="0.6399" stop-color="#D3D2F9"/>
<stop offset="1" stop-color="#E9E9FD"/>
</linearGradient>
<linearGradient id="paint8_linear_2935_5527" x1="475.432" y1="90.7342" x2="322.339" y2="90.7342" gradientUnits="userSpaceOnUse">
<stop stop-color="#C0BFF6"/>
<stop offset="0.2938" stop-color="#C5C4F7"/>
<stop offset="0.6399" stop-color="#D3D2F9"/>
<stop offset="1" stop-color="#E9E9FD"/>
</linearGradient>
<linearGradient id="paint9_linear_2935_5527" x1="475.431" y1="129.996" x2="449.143" y2="129.996" gradientUnits="userSpaceOnUse">
<stop stop-color="#5761D7"/>
<stop offset="0.1779" stop-color="#5C66D9"/>
<stop offset="0.3876" stop-color="#6A73DF"/>
<stop offset="0.6134" stop-color="#8289E8"/>
<stop offset="0.849" stop-color="#A3A7F5"/>
<stop offset="1" stop-color="#BCBEFF"/>
</linearGradient>
<linearGradient id="paint10_linear_2935_5527" x1="330.916" y1="237.016" x2="330.916" y2="152.692" gradientUnits="userSpaceOnUse">
<stop stop-color="#C0BFF6"/>
<stop offset="0.2938" stop-color="#C5C4F7"/>
<stop offset="0.6399" stop-color="#D3D2F9"/>
<stop offset="1" stop-color="#E9E9FD"/>
</linearGradient>
<linearGradient id="paint11_linear_2935_5527" x1="330.916" y1="167.094" x2="330.916" y2="82.7708" gradientUnits="userSpaceOnUse">
<stop stop-color="#C0BFF6"/>
<stop offset="0.2938" stop-color="#C5C4F7"/>
<stop offset="0.6399" stop-color="#D3D2F9"/>
<stop offset="1" stop-color="#E9E9FD"/>
</linearGradient>
<linearGradient id="paint12_linear_2935_5527" x1="297.437" y1="209.575" x2="453.237" y2="209.575" gradientUnits="userSpaceOnUse">
<stop stop-color="#C0BFF6"/>
<stop offset="0.2938" stop-color="#C5C4F7"/>
<stop offset="0.6399" stop-color="#D3D2F9"/>
<stop offset="1" stop-color="#E9E9FD"/>
</linearGradient>
<linearGradient id="paint13_linear_2935_5527" x1="297.438" y1="249.531" x2="324.19" y2="249.531" gradientUnits="userSpaceOnUse">
<stop stop-color="#5761D7"/>
<stop offset="0.1779" stop-color="#5C66D9"/>
<stop offset="0.3876" stop-color="#6A73DF"/>
<stop offset="0.6134" stop-color="#8289E8"/>
<stop offset="0.849" stop-color="#A3A7F5"/>
<stop offset="1" stop-color="#BCBEFF"/>
</linearGradient>
<linearGradient id="paint14_linear_2935_5527" x1="318.307" y1="294.443" x2="538.347" y2="294.443" gradientUnits="userSpaceOnUse">
<stop stop-color="#5761D7"/>
<stop offset="0.1779" stop-color="#5C66D9"/>
<stop offset="0.3876" stop-color="#6A73DF"/>
<stop offset="0.6134" stop-color="#8289E8"/>
<stop offset="0.849" stop-color="#A3A7F5"/>
<stop offset="1" stop-color="#BCBEFF"/>
</linearGradient>
<linearGradient id="paint15_linear_2935_5527" x1="392.243" y1="287.107" x2="612.4" y2="287.107" gradientUnits="userSpaceOnUse">
<stop stop-color="#C0BFF6"/>
<stop offset="0.2938" stop-color="#C5C4F7"/>
<stop offset="0.6399" stop-color="#D3D2F9"/>
<stop offset="1" stop-color="#E9E9FD"/>
</linearGradient>
<linearGradient id="paint16_linear_2935_5527" x1="429.525" y1="299.604" x2="485.879" y2="299.604" gradientUnits="userSpaceOnUse">
<stop stop-color="#C0BFF6"/>
<stop offset="0.2938" stop-color="#C5C4F7"/>
<stop offset="0.6399" stop-color="#D3D2F9"/>
<stop offset="1" stop-color="#E9E9FD"/>
</linearGradient>
<linearGradient id="paint17_linear_2935_5527" x1="308.134" y1="238.311" x2="528.291" y2="238.311" gradientUnits="userSpaceOnUse">
<stop stop-color="#C0BFF6"/>
<stop offset="0.2938" stop-color="#C5C4F7"/>
<stop offset="0.6399" stop-color="#D3D2F9"/>
<stop offset="1" stop-color="#E9E9FD"/>
</linearGradient>
<linearGradient id="paint18_linear_2935_5527" x1="293.642" y1="222.15" x2="349.997" y2="222.15" gradientUnits="userSpaceOnUse">
<stop stop-color="#C0BFF6"/>
<stop offset="0.2938" stop-color="#C5C4F7"/>
<stop offset="0.6399" stop-color="#D3D2F9"/>
<stop offset="1" stop-color="#E9E9FD"/>
</linearGradient>
<linearGradient id="paint19_linear_2935_5527" x1="240.987" y1="209.576" x2="85.1874" y2="209.576" gradientUnits="userSpaceOnUse">
<stop stop-color="#C0BFF6"/>
<stop offset="0.2938" stop-color="#C5C4F7"/>
<stop offset="0.6399" stop-color="#D3D2F9"/>
<stop offset="1" stop-color="#E9E9FD"/>
</linearGradient>
<linearGradient id="paint20_linear_2935_5527" x1="240.992" y1="249.531" x2="214.239" y2="249.531" gradientUnits="userSpaceOnUse">
<stop stop-color="#5761D7"/>
<stop offset="0.1779" stop-color="#5C66D9"/>
<stop offset="0.3876" stop-color="#6A73DF"/>
<stop offset="0.6134" stop-color="#8289E8"/>
<stop offset="0.849" stop-color="#A3A7F5"/>
<stop offset="1" stop-color="#BCBEFF"/>
</linearGradient>
<linearGradient id="paint21_linear_2935_5527" x1="220.111" y1="294.444" x2="0.070601" y2="294.444" gradientUnits="userSpaceOnUse">
<stop stop-color="#5761D7"/>
<stop offset="0.1779" stop-color="#5C66D9"/>
<stop offset="0.3876" stop-color="#6A73DF"/>
<stop offset="0.6134" stop-color="#8289E8"/>
<stop offset="0.849" stop-color="#A3A7F5"/>
<stop offset="1" stop-color="#BCBEFF"/>
</linearGradient>
<linearGradient id="paint22_linear_2935_5527" x1="146.177" y1="287.108" x2="-73.9806" y2="287.108" gradientUnits="userSpaceOnUse">
<stop stop-color="#C0BFF6"/>
<stop offset="0.2938" stop-color="#C5C4F7"/>
<stop offset="0.6399" stop-color="#D3D2F9"/>
<stop offset="1" stop-color="#E9E9FD"/>
</linearGradient>
<linearGradient id="paint23_linear_2935_5527" x1="108.894" y1="299.605" x2="52.5397" y2="299.605" gradientUnits="userSpaceOnUse">
<stop stop-color="#C0BFF6"/>
<stop offset="0.2938" stop-color="#C5C4F7"/>
<stop offset="0.6399" stop-color="#D3D2F9"/>
<stop offset="1" stop-color="#E9E9FD"/>
</linearGradient>
<linearGradient id="paint24_linear_2935_5527" x1="230.298" y1="238.31" x2="10.1409" y2="238.31" gradientUnits="userSpaceOnUse">
<stop stop-color="#C0BFF6"/>
<stop offset="0.2938" stop-color="#C5C4F7"/>
<stop offset="0.6399" stop-color="#D3D2F9"/>
<stop offset="1" stop-color="#E9E9FD"/>
</linearGradient>
<linearGradient id="paint25_linear_2935_5527" x1="244.789" y1="222.149" x2="188.434" y2="222.149" gradientUnits="userSpaceOnUse">
<stop stop-color="#C0BFF6"/>
<stop offset="0.2938" stop-color="#C5C4F7"/>
<stop offset="0.6399" stop-color="#D3D2F9"/>
<stop offset="1" stop-color="#E9E9FD"/>
</linearGradient>
</defs>
</svg>
