<?xml version="1.0" encoding="UTF-8"?><svg id="Layer_2" xmlns="http://www.w3.org/2000/svg" viewBox="0 0 963.77 1591.13"><defs><style>.cls-1,.cls-2,.cls-3{stroke-width:0px;}.cls-4{isolation:isolate;}.cls-2{fill:#8dc7ff;}.cls-3{fill:#e8e8e8;}</style></defs><g id="line"><g class="cls-4"><path class="cls-1" d="m138.2,632.67l79.53-46.22c-.9,5.34,2.25,10.49,3.64,12.46.92,1.31,2.86,3.75,5.39,5.21,1.3.75,2.75,1.24,4.31,1.2l-79.53,46.22c-1.55.05-3.01-.45-4.31-1.2-2.53-1.46-4.47-3.9-5.39-5.21-1.39-1.96-4.53-7.11-3.64-12.46Z"/><polygon class="cls-1" points="170.53 438.39 250.07 392.17 217.73 586.45 138.2 632.67 170.53 438.39"/><polygon class="cls-1" points="240.55 352.59 161 398.81 27.02 170.64 44.37 160.56 72.78 144.03 132.41 168.48 154.21 205.59 240.55 352.59"/><path class="cls-1" d="m161.01,398.81l79.53-46.22c7.85,13.38,11.42,28.17,9.52,39.57l-79.53,46.22c1.89-11.4-1.67-26.19-9.52-39.57Z"/><path class="cls-1" d="m106.51,109.22c-1.33.78-1.98,2.16-2.26,3.01-.12.4-.28.93-.35,1.63l-43.31,25.15,12.19,5.02-28.41,16.53-17.35,10.08c-3.69-6.27-2.83-10.61-2.31-12.19.02-.1.07-.23.12-.35l.08-.15c.08-.18.18-.38.28-.58.03-.05.07-.1.1-.15.02-.05.07-.13.12-.2,0-.02.03-.08.05-.1.03-.05.08-.1.1-.13.15-.2.3-.4.48-.58.08-.1.18-.2.28-.28.1-.1.2-.18.33-.25.05-.05.13-.1.2-.15.1-.08.23-.15.35-.2l.03-.03.05-.03,30.19-17.55,49.05-28.51Z"/><path class="cls-2" d="m111.7,109.32l-7.8,4.54-43.31,25.15-28.44,16.53c-1.13-.48-2.11-.65-2.93-.65-.23,0-.45.03-.65.05-.25,0-.48.05-.68.15-.2.03-.38.1-.55.18-.05.02-.08.02-.1.05-.02,0-.05.03-.05.03l.03-.03.05-.03,30.19-17.55,49.05-28.51c1.15-.65,2.83-.88,5.19.1Z"/><polygon class="cls-1" points="151.54 651.53 231.07 605.31 397.5 600.86 317.96 647.08 151.54 651.53"/><path class="cls-1" d="m9.78,125.96l79.53-46.22c5.02-2.92,11.61-3.01,18.99.01L28.77,125.97c-7.38-3.03-13.97-2.93-18.99-.01Z"/><path class="cls-1" d="m317.96,647.08l79.53-46.22c4.89-.12,10.24,1.49,15.59,4.58,5.33,3.08,10.68,7.64,15.55,13.4l-79.53,46.22c-4.88-5.76-10.22-10.32-15.55-13.4-5.35-3.09-10.7-4.7-15.59-4.58Z"/><polygon class="cls-1" points="349.1 665.06 428.64 618.84 594.5 815.14 514.96 861.36 349.1 665.06"/><path class="cls-1" d="m605.41,819.44l-79.53,46.22c-.45.26-.88.41-1.21.5-.92.24-2.87.43-5.42-1.04-1.3-.75-2.74-1.93-4.29-3.75l79.53-46.22c1.54,1.83,2.99,3,4.29,3.75,2.54,1.47,4.49,1.28,5.42,1.04.33-.08.76-.23,1.21-.5Z"/><path class="cls-2" d="m607.9,811.71c.66,4.85-1.03,6.88-2.48,7.73l-79.53,46.22c1.46-.85,3.14-2.88,2.48-7.73,23.86-13.87,55.67-32.35,79.53-46.22Z"/><path class="cls-1" d="m622.57,848.99l-79.53,46.22c7.55-4.39,11.04-14.72,9.22-28.2l79.53-46.22c1.81,13.48-1.68,23.81-9.22,28.2Z"/><path class="cls-2" d="m297.57,185.56c-14.07,8.18-30.89,17.96-47.22,27.43-11.38,6.62-22.52,13.09-32.32,18.78l-63.82-26.18-109.84-45.04-12.21-5.02,28.44-16.53,12.19,5.02,59.63,24.45,82.2,33.73,8.88-5.17,19.48-33.88,22.77,9.33,3.03,1.25,3.34,1.38,25.45,10.43Z"/><polygon class="cls-3" points="242.98 163.16 223.49 197.04 214.62 202.21 132.41 168.48 72.78 144.03 60.59 139.01 103.9 113.86 111.7 109.32 242.98 163.16"/><polygon class="cls-1" points="294.16 155.99 277.58 165.62 265.75 172.49 223.49 197.04 242.98 163.16 111.7 109.32 103.9 113.86 60.59 139.01 57.46 137.74 28.77 125.97 108.32 79.76 256.07 140.37 285.23 152.33 294.16 155.99"/><path class="cls-2" d="m297.56,185.56c7.28,2.98,13.91,2.89,18.97-.04l-79.53,46.22c-5.06,2.94-11.69,3.03-18.97.04,23.86-13.87,55.67-32.35,79.53-46.22Z"/><path class="cls-1" d="m299.38,155.97l-24.4,14.17v.03l-6.19,3.59-48.95,28.46c-.35.2-.73.35-1.13.45-.4.1-.83.15-1.25.15-.88,0-1.83-.2-2.83-.6l8.88-5.17,42.25-24.55,11.84-6.87,16.58-9.63c2.01.83,3.81.8,5.22-.03Z"/><path class="cls-1" d="m316.55,185.5l-79.53,46.22c2.51-1.46,4.63-3.61,6.26-6.44l79.53-46.22c-1.63,2.82-3.75,4.98-6.26,6.44Z"/><polygon class="cls-2" points="497.23 627.01 576.77 580.79 607.9 811.71 528.36 857.93 497.23 627.01"/><polygon class="cls-1" points="521.13 636.09 600.67 589.87 631.8 820.79 552.26 867.01 521.13 636.09"/><path class="cls-1" d="m523.7,628.31l79.53-46.22c-2.1,1.22-3.06,4.1-2.56,7.78l-79.53,46.22c-.49-3.67.47-6.56,2.56-7.78Z"/><path class="cls-2" d="m506.54,598.78l79.53-46.22c-7.62,4.43-11.1,14.92-9.31,28.23l-79.53,46.22c-1.79-13.31,1.69-23.8,9.31-28.23Z"/><path class="cls-1" d="m506.54,598.78l79.53-46.22c.14-.08.27-.16.41-.23l-79.53,46.22c-.14.08-.28.15-.41.23Z"/><path class="cls-2" d="m530.61,320.09l-39.82,23.12c-.3.18-.73.43-1.2.7-.5.28-1.08.63-1.73,1l-1.03.6c-.93.53-1.93,1.1-3.03,1.76-1.1.63-2.31,1.33-3.54,2.06-2.48,1.43-5.19,3.01-7.92,4.61h-.03c-1.58.93-3.16,1.86-4.74,2.76l-3.18,1.86c-1.03.6-2.06,1.18-3.03,1.76-1.45.85-2.83,1.66-4.09,2.38-.85.48-1.63.95-2.33,1.35l-3.86,2.26c-10.88-8.1-20.29-21.39-25.13-35.56l18.1-10.51,61.44-35.71c1.2,3.51,2.68,6.97,4.41,10.31,1.81,3.56,3.91,7,6.22,10.21,4.24,5.92,9.18,11.08,14.49,15.05Z"/><path class="cls-1" d="m447.72,330.98l79.53-46.22c1.33,3.9,3.91,7.56,6.92,9.8l-79.53,46.22c-3.01-2.24-5.58-5.89-6.92-9.8Z"/><polygon class="cls-1" points="406.43 33.59 403.22 39.16 389.88 62.35 389.85 62.38 378.77 81.69 365.18 89.59 368.56 99.47 354.97 123.12 322.8 179.06 307.83 187.76 243.28 225.28 250.35 212.99 272.12 175.12 274.98 170.16 274.98 170.13 277.58 165.62 285.23 152.33 326.91 79.83 331.1 77.38 331.12 77.38 351.76 65.36 406.43 33.59"/><path class="cls-1" d="m328.68,77.95l79.53-46.22c-.66.38-1.27.98-1.78,1.88l-79.53,46.22c.51-.89,1.12-1.49,1.78-1.88Z"/><path class="cls-2" d="m328.68,77.95l79.53-46.22c2.29-1.33,5.15-.02,6.48.75l-79.53,46.22c-1.33-.77-4.2-2.08-6.48-.75Z"/><polygon class="cls-2" points="444.04 320.24 425.94 330.75 354.97 123.12 343.44 89.36 360.79 79.28 389.85 62.38 389.88 62.35 422.95 43.15 426.62 53.88 378.77 81.69 365.18 89.59 368.56 99.47 444.04 320.24"/><path class="cls-2" d="m335.16,78.7l79.53-46.22c1.73,1,5.99,4.03,8.26,10.67l-79.53,46.22c-2.27-6.64-6.53-9.67-8.26-10.67Z"/><polygon class="cls-3" points="505.48 284.54 444.04 320.24 368.56 99.47 365.18 89.59 378.77 81.69 426.62 53.88 505.48 284.54"/><polygon class="cls-1" points="527.25 284.76 509.9 294.84 447.71 330.98 444.04 320.24 505.48 284.54 426.62 53.88 444.72 43.37 527.25 284.76"/><path class="cls-1" d="m444.72,43.37l-18.11,10.51-47.85,27.81-13.59,7.9c-1.2-3.54-2.68-7-4.39-10.31-2.03-4.04-4.41-7.87-7.05-11.38-.65-.85-1.3-1.71-1.98-2.53-.13-.18-.28-.38-.45-.55v-.03c-4.84-5.82-10.31-10.63-16.07-13.94-1.35-.78-2.66-1.45-3.96-2.03-4.84-2.13-9.4-2.93-13.44-2.46-.38.05-.78.13-1.15.18-.73.13-1.45.3-2.13.55h-.03c-1.05.35-2.03.78-2.98,1.33L391.03,2.22c6.17-3.59,14.62-2.86,23.75,2.41,12.81,7.4,24.3,22.24,29.94,38.74Z"/><polygon class="cls-1" points="506.95 598.54 586.48 552.32 721.34 479.37 641.8 525.59 506.95 598.54"/><path class="cls-2" d="m723.69,469.86c.52,2.17,1.34,7.37-2.2,9.43l-79.53,46.22c3.54-2.06,2.72-7.26,2.2-9.43,26.51-15.41,53.02-30.81,79.53-46.22Z"/><path class="cls-1" d="m721.48,479.29l-79.53,46.22s-.09.05-.14.08l79.53-46.22s.09-.05.14-.08Z"/><path class="cls-2" d="m716.28,458.37c-11.91,6.92-25.85,15.02-39.75,23.12l-10.41,6.04c-3.84,2.21-7.62,4.41-11.31,6.55-6.32,3.69-12.41,7.22-18.06,10.51l-185.69-138.27,3.86-2.26,2.33-1.35,4.09-2.38,3.03-1.76,3.18-1.86,4.76-2.76,167.96,125.08,58.28-33.85,17.7,13.19Z"/><path class="cls-2" d="m723.69,469.85s0,0,0,0c-26.51,15.41-53.02,30.81-79.53,46.22,0,0,0,0,0,0,26.51-15.41,53.02-30.81,79.53-46.22Z"/><path class="cls-2" d="m716.28,458.38c5.1,3.79,6.88,9.29,7.41,11.48-26.51,15.41-53.02,30.81-79.53,46.22-.52-2.19-2.31-7.69-7.41-11.48,23.86-13.87,55.67-32.35,79.53-46.22Z"/><path class="cls-1" d="m668.81,531.42c-.03-.58-.08-1.18-.13-1.78-.05-.63-.12-1.28-.2-1.93-.07-.65-.15-1.33-.28-1.98-.08-.55-.18-1.08-.28-1.63-.2-1.08-.43-2.18-.7-3.31-.43-1.73-.9-3.49-1.48-5.22-.1-.38-.23-.75-.38-1.13-.23-.7-.48-1.4-.75-2.11-.23-.63-.48-1.23-.75-1.86-.6-1.58-1.3-3.13-2.06-4.66-.38-.78-.75-1.56-1.18-2.31-.25-.53-.53-1.05-.85-1.55-.2-.43-.43-.83-.68-1.25-.3-.5-.58-.98-.9-1.48-.48-.85-1.03-1.68-1.55-2.51-.6-.9-1.2-1.78-1.83-2.63-.53-.75-1.08-1.48-1.63-2.21-.3-.4-.6-.78-.93-1.15-.48-.6-.95-1.18-1.45-1.76-.48-.58-.98-1.15-1.5-1.71-.55-.63-1.1-1.23-1.71-1.81-.33-.35-.65-.68-.98-.98-1.35-1.33-2.73-2.58-4.14-3.74-.73-.6-1.45-1.15-2.18-1.71l-167.96-125.08h-.03l-17.68-13.17c-3.01-2.23-5.57-5.89-6.92-9.81l-3.66-10.73-75.48-220.78-3.39-9.88c-1.2-3.54-2.68-7-4.39-10.31-2.03-4.04-4.41-7.87-7.05-11.38-.65-.85-1.3-1.71-1.98-2.53-.13-.18-.28-.38-.45-.55v-.03c-4.84-5.82-10.31-10.63-16.07-13.94-1.35-.78-2.66-1.45-3.96-2.03-4.84-2.13-9.4-2.93-13.44-2.46-.38.05-.78.13-1.15.18-.73.15-1.45.33-2.13.55h-.03c-1.05.35-2.03.8-2.98,1.33-2.53,1.45-4.69,3.64-6.34,6.52l-49.13,85.44-13.09,22.79-19.48,33.88-1.93,3.36c-.45.78-1.03,1.38-1.73,1.81-.35.2-.73.35-1.13.45-.4.1-.83.15-1.25.15-.88,0-1.83-.2-2.83-.6l-82.2-33.73-59.63-24.45-12.19-5.02-3.13-1.28-28.69-11.76c-3.66-1.5-7.15-2.23-10.31-2.23-.48,0-.95.03-1.43.05-.33.03-.63.05-.93.1-.35.03-.68.08-1,.15-.3.03-.58.1-.85.18-.3.08-.58.15-.85.23h-.05s-.12.03-.18.05c-.13.05-.25.08-.38.13-.35.1-.7.23-1.03.38-.2.08-.4.15-.6.28-.05.03-.1.05-.15.08h-.03c-.23.08-.43.18-.6.3-3.91,2.03-6.92,5.72-8.7,10.88-3.99,11.74-.8,28.69,8.35,44.29l134.01,228.17c2.16,3.69,3.13,7.77,2.61,10.88l-32.32,194.3c-2.21,13.27,2.83,30.62,13.19,45.26,5.84,8.28,12.69,14.72,19.61,18.71,5.32,3.08,10.66,4.69,15.6,4.56l166.46-4.46c1.33-.03,2.81.43,4.26,1.25,1.48.85,2.96,2.11,4.29,3.71l165.88,196.3c4.91,5.82,10.26,10.38,15.57,13.44,6.9,3.99,13.77,5.47,19.66,3.96,1.58-.4,3.06-1.03,4.39-1.83.08-.03.13-.05.18-.1.1-.05.2-.13.3-.23.28-.13.55-.33.8-.53.35-.25.7-.55,1.05-.88.23-.15.4-.35.6-.53.78-.75,1.48-1.58,2.13-2.51.05-.1.13-.18.18-.28.23-.3.43-.65.63-.98.13-.23.28-.45.4-.7.13-.23.28-.48.38-.73.05-.1.1-.18.13-.28.18-.33.33-.68.48-1.05l.08-.15c.03-.05.03-.08.05-.13.03-.03.03-.07.03-.1.1-.28.2-.53.3-.8.13-.35.25-.68.35-1.03.23-.73.43-1.45.6-2.21.02-.08.02-.18.05-.25v-.03c.1-.48.2-.9.28-1.38.1-.53.18-1.08.25-1.63,0-.08.02-.15.02-.23,0-.13,0-.28.05-.4.03-.4.08-.8.1-1.23.03-.38.05-.73.05-1.1.13-2.71-.03-5.59-.43-8.63l-2.08-15.47v-.03l-.8-5.79v-.03l-.53-4.04v-.03l-12.94-95.84-14.8-109.71c-.25-1.78-.13-3.36.28-4.66.08-.23.15-.45.25-.65.03-.08.05-.18.1-.23.1-.25.23-.5.38-.7.28-.48.63-.85,1.03-1.15.15-.13.3-.25.48-.35.05-.03.12-.07.18-.1l.05-.03,55.27-29.92,21.52-11.64,58-31.37c.43-.23.83-.48,1.2-.73.23-.13.43-.28.6-.4.6-.43,1.15-.9,1.68-1.4.33-.3.63-.6.9-.93.28-.3.53-.6.78-.93.75-.93,1.4-1.96,1.96-3.06.18-.3.35-.63.48-.95.15-.28.28-.58.38-.88.12-.3.25-.6.35-.9.15-.3.25-.58.33-.9.1-.25.18-.53.25-.8.55-1.86.93-3.89,1.13-6.07.03-.15.03-.33.05-.5.15-1.71.18-3.51.08-5.42Zm-89.1,27.79l-72.75,39.35c-.2.1-.4.23-.6.35-.2.13-.4.25-.6.38-.38.25-.75.53-1.13.8-.35.3-.7.6-1.05.93l-.38.38c-.23.2-.4.4-.6.63-.33.35-.63.73-.9,1.1-.18.23-.35.45-.5.7-.12.15-.23.3-.35.48-.08.13-.15.25-.23.4-.2.28-.38.58-.53.88-.05.08-.1.18-.13.25-.23.4-.43.83-.63,1.25-.23.48-.45.98-.63,1.5-.18.48-.35.98-.5,1.48s-.3,1.03-.43,1.55c-.15.53-.28,1.08-.38,1.63-.1.53-.18,1.08-.28,1.63-.03.08-.03.18-.03.25-.08.53-.13,1.05-.18,1.55-.13,1.45-.18,2.93-.15,4.46,0,.65.02,1.3.07,1.96,0,.15,0,.3.03.43.03.48.08.95.13,1.43.05.68.13,1.35.23,2.06l11.71,86.84v.03l18.86,140,.55,4.06c.13.98.18,1.83.13,2.58,0,.15,0,.28-.03.4,0,.23-.03.45-.08.65-.03.2-.05.4-.1.58-.03.08-.03.15-.05.2v.05s-.03.05-.03.08c-.15.53-.33.95-.55,1.35-.13.23-.25.43-.4.6-.15.2-.33.4-.5.58-.1.1-.23.18-.33.28-.1.08-.23.15-.33.23-.15.1-.28.18-.43.25h-.03l-.02.03c-.15.08-.28.13-.4.18-.1.05-.2.08-.3.1-.1.03-.18.05-.25.08-.93.25-2.88.43-5.42-1.03-1.3-.75-2.73-1.93-4.29-3.76l-165.86-196.3c-4.86-5.74-10.21-10.31-15.55-13.39-5.34-3.08-10.71-4.71-15.6-4.59l-166.41,4.46c-1.55.05-3.01-.45-4.31-1.2-2.53-1.45-4.49-3.89-5.39-5.22-1.4-1.96-4.54-7.1-3.64-12.44l32.32-194.3c1.91-11.38-1.68-26.18-9.53-39.57L27.02,170.64c-3.69-6.27-2.83-10.61-2.31-12.19.02-.1.07-.23.12-.35l.08-.15c.08-.18.18-.38.28-.58.03-.05.07-.1.1-.15.02-.05.07-.13.12-.2,0-.02.03-.08.05-.1.03-.05.08-.1.1-.13.15-.2.3-.4.48-.58.08-.1.18-.2.28-.28.1-.1.2-.18.33-.25.08-.05.13-.1.2-.15.1-.08.23-.15.35-.2l.03-.03h.02s.03-.03.03-.03c.03,0,.05,0,.08-.02.18-.08.35-.15.55-.18.2-.08.43-.13.68-.15.2-.03.43-.05.65-.05.83,0,1.81.18,2.93.65l12.21,5.02,109.84,45.04,63.82,26.18c.78.33,1.58.6,2.33.85.33.1.65.2.98.3.33.1.65.2.98.28.33.08.65.15.98.23.65.13,1.25.23,1.88.33.63.08,1.23.15,1.86.2.48,0,.95.02,1.4.02.38,0,.73-.02,1.1-.05.35-.03.7-.05,1.05-.1.1,0,.2-.03.28-.03.15-.02.33-.05.45-.08h.08c.12-.03.25-.05.38-.08.38-.08.75-.15,1.1-.23.38-.1.73-.23,1.05-.33.35-.1.68-.23,1.03-.38.73-.3,1.45-.65,2.13-1.05.35-.2.7-.43,1.05-.68.05-.02.08-.05.1-.08.2-.13.4-.28.58-.43.18-.13.35-.28.53-.43.05-.03.1-.08.13-.1,0,0,.03-.03.03-.05t.05-.03c.15-.13.28-.23.4-.38.18-.15.35-.3.5-.48.35-.35.7-.73,1-1.13.13-.13.23-.25.33-.4.13-.13.23-.28.33-.43.07-.1.15-.18.2-.28.13-.15.23-.33.33-.5h.03c.05-.08.1-.15.15-.25.18-.25.33-.5.48-.78l7.07-12.29,21.77-37.87,2.86-4.97v-.03l2.61-4.51,7.65-13.29,41.68-72.5c.25-.45.53-.83.83-1.13.18-.18.35-.33.53-.48.13-.1.28-.2.43-.28.03-.03.08-.05.13-.08h.03v-.02s.03,0,.05-.03h.03s.03-.03.05-.03c.08-.03.18-.08.25-.1.15-.08.3-.13.45-.15.05-.02.1-.02.15-.05.15-.03.28-.05.43-.08.23-.03.45-.05.68-.05h.2c.33.02.68.05,1.03.13.03.03.05.03.08.03s.05.02.08.02c.15.03.3.08.45.1.98.28,1.83.73,2.41,1.05,1.73,1,5.99,4.01,8.28,10.66l11.54,33.75,70.97,207.64c4.84,14.17,14.24,27.46,25.13,35.56l185.69,138.27c5.09,3.81,6.87,9.3,7.4,11.49.25,1.05.58,2.78.45,4.54,0,.1-.03.2-.03.3,0,.05-.03.1-.03.15,0,.03-.03.07-.03.13-.03.3-.1.6-.18.9,0,.05,0,.1-.03.13-.08.25-.15.5-.25.75-.02.07-.05.18-.1.25-.1.2-.2.4-.3.6-.13.18-.25.38-.4.55-.35.45-.78.83-1.33,1.13-.05.05-.1.08-.15.1l-62.09,33.6Z"/><path class="cls-2" d="m335.16,78.7c1.73,1,5.99,4.03,8.26,10.67l82.51,241.39c4.85,14.17,14.24,27.46,25.13,35.57l185.68,138.27c5.1,3.79,6.89,9.3,7.41,11.48.52,2.2,1.36,7.51-2.35,9.51l-134.85,72.95c-7.9,4.28-11.54,14.92-9.72,28.46l31.13,230.92c.86,6.36-2.3,7.87-3.7,8.22-.92.23-2.88.43-5.42-1.04-1.3-.75-2.74-1.93-4.29-3.75l-165.86-196.3c-4.88-5.76-10.22-10.32-15.55-13.4-5.35-3.09-10.7-4.7-15.59-4.58l-166.43,4.45c-1.55.05-3.01-.45-4.31-1.2-2.53-1.46-4.47-3.9-5.39-5.21-1.39-1.96-4.53-7.11-3.64-12.46l32.34-194.28c1.89-11.4-1.67-26.19-9.53-39.57L27.01,170.64c-3.69-6.27-2.82-10.6-2.29-12.19.53-1.57,2.34-5.01,7.45-2.9l185.86,76.24c10.89,4.46,20.33,2.04,25.24-6.49l83.63-145.47c2.29-4,6.55-2.12,8.26-1.13Z"/><polygon class="cls-3" points="698.57 445.18 640.3 479.03 472.33 353.95 480.26 349.33 483.79 347.28 486.83 345.52 487.85 344.92 489.58 343.92 490.79 343.21 530.61 320.09 698.57 445.18"/><path class="cls-1" d="m719.84,432.81l-21.27,12.36-167.96-125.08-39.82,23.12c-.3.18-.73.43-1.2.7l-1.73,1-1.03.6-3.03,1.76-3.54,2.06-7.92,4.61h-.03l-17.68-13.17,61.49-35.73,18.06-10.48,185.67,138.25Z"/><path class="cls-1" d="m738.62,508.82l-79.52,46.22c.25-.15.5-.3.75-.48.23-.13.43-.28.6-.4.6-.43,1.15-.9,1.68-1.4.33-.3.63-.6.9-.93.28-.3.53-.6.78-.93.75-.93,1.4-1.96,1.96-3.06.18-.3.35-.63.48-.95.15-.28.28-.58.38-.88.15-.3.28-.6.35-.9.15-.3.25-.58.33-.9.1-.25.18-.53.25-.8.55-1.86.93-3.89,1.13-6.07.03-.15.03-.33.05-.5.15-1.71.18-3.51.08-5.42-.03-.58-.08-1.18-.13-1.78-.05-.63-.1-1.28-.2-1.93-.07-.65-.15-1.33-.28-1.98-.08-.55-.18-1.08-.28-1.63-.2-1.08-.43-2.18-.7-3.31-.43-1.73-.9-3.49-1.48-5.22-.1-.38-.23-.75-.38-1.13-.23-.7-.48-1.4-.75-2.11-.23-.63-.48-1.23-.75-1.86-.6-1.58-1.3-3.13-2.06-4.66-.38-.78-.75-1.56-1.18-2.31-.25-.53-.53-1.05-.85-1.55-.2-.43-.43-.83-.68-1.25-.3-.5-.58-.98-.9-1.48-.48-.85-1.03-1.68-1.55-2.51-.6-.9-1.2-1.78-1.83-2.63-.53-.75-1.08-1.48-1.63-2.21-.3-.4-.6-.78-.93-1.15-.45-.6-.93-1.18-1.45-1.76-.48-.58-.98-1.15-1.5-1.71-.55-.63-1.1-1.23-1.71-1.81-.3-.33-.65-.68-.98-.98-1.35-1.33-2.73-2.58-4.14-3.74-.73-.6-1.45-1.15-2.18-1.71l58.28-33.85,21.27-12.36c12.69,9.45,23,25.45,26.93,41.75,3.84,16.02.75,29.09-8.15,34.26Z"/></g><g class="cls-4"><path class="cls-1" d="m544.76,1419.75l79.53-46.22c-.07.33-.23,1.34.81,2.81.45.64.86.99,1.21,1.2l-79.53,46.22c-.35-.2-.76-.56-1.21-1.2-1.04-1.47-.88-2.48-.81-2.81Z"/><polygon class="cls-1" points="565.43 1295.49 644.96 1249.27 624.29 1373.53 544.76 1419.75 565.43 1295.49"/><polygon class="cls-1" points="637.8 1219.46 558.25 1265.68 472.57 1119.73 476.48 1117.45 503.59 1101.7 589.27 1136.84 602.49 1159.33 606.1 1165.47 637.8 1219.46"/><path class="cls-1" d="m558.26,1265.68l79.53-46.22c5.92,10.07,8.6,21.22,7.16,29.81l-79.53,46.22c1.44-8.59-1.24-19.73-7.16-29.81Z"/><path class="cls-2" d="m672.13,1118.86c-16.38,9.5-36.49,21.19-55.19,32.07-4.94,2.86-9.78,5.69-14.44,8.4-3.41,1.98-6.72,3.89-9.91,5.74l-116.11-47.62-2.76-1.13,27.11-15.75,50.63-29.42c-.15,1.03.43,2.01.63,2.36l-48.5,28.19,85.69,35.13.08.03,1.98-1.15,23.27-40.45,27.16,11.13.63.28.07.03,29.67,12.16Z"/><path class="cls-1" d="m552.08,1073.52l-48.5,28.19-27.11,15.75-3.91,2.28c-.23-.4-.93-1.58-.53-2.76.03-.08.05-.15.1-.23.03-.08.05-.13.1-.18.03-.05.08-.1.13-.15.03-.05.08-.07.13-.1.02-.03.02-.05.05-.05l.15-.08s.03,0,.05-.03l27.33-15.9h.02l51.83-30.12c-.13.13-.28.33-.38.6-.05.13-.07.28-.1.4-.15,1.03.43,2.01.63,2.36Z"/><path class="cls-2" d="m472.54,1116.27l.15-.08-.03.03c-.05,0-.08.03-.12.05Z"/><path class="cls-2" d="m553.26,1070.11l-1.81,1.05-50.63,29.42-27.11,15.75s-.07-.03-.15-.05c-.1-.05-.23-.1-.38-.1-.15-.03-.3-.05-.45,0l27.33-15.9h.02l51.83-30.12.15-.1c.43-.25.95-.05,1.18.05Z"/><polygon class="cls-1" points="546.78 1423.76 626.31 1377.54 733.75 1374.94 654.22 1421.16 546.78 1423.76"/><path class="cls-1" d="m456.17,1088.1l79.53-46.22c3.78-2.2,8.75-2.28,14.3,0l-79.53,46.22c-5.55-2.28-10.52-2.2-14.3,0Z"/><path class="cls-1" d="m654.22,1421.16l79.53-46.22c3.68-.1,7.71,1.12,11.74,3.45,4.03,2.33,8.05,5.76,11.72,10.1l-79.53,46.22c-3.67-4.34-7.69-7.77-11.72-10.1-4.03-2.32-8.06-3.54-11.74-3.45Z"/><polygon class="cls-1" points="677.67 1434.7 757.21 1388.48 863.31 1514.05 783.77 1560.27 677.67 1434.7"/><polygon class="cls-2" points="766.87 1411.79 846.41 1365.57 866.32 1513.27 786.79 1559.49 766.87 1411.79"/><path class="cls-1" d="m865.81,1515l-79.53,46.22c-.09.05-.2.1-.33.13-.44.12-.86,0-2.18-1.07l79.53-46.22c1.32,1.07,1.73,1.19,2.18,1.07.13-.03.24-.07.33-.13Z"/><path class="cls-2" d="m865.81,1515l-79.53,46.22c.69-.4.55-1.38.51-1.73l79.53-46.22c.04.35.18,1.33-.51,1.73Z"/><path class="cls-1" d="m882.19,1543.19l-79.53,46.22c5.69-3.31,8.32-11.09,6.95-21.25l79.53-46.22c1.37,10.16-1.26,17.94-6.95,21.25Z"/><path class="cls-3" d="m614.6,1095.26l-23.27,40.45-1.98,1.15-.08-.03-85.69-35.13,48.5-28.19c-.2-.35-.78-1.33-.63-2.36l1.81-1.05,61.34,25.15Z"/><path class="cls-1" d="m668.87,1090.64l-25.93,15.07-1.18.68-50.43,29.31,23.27-40.45-61.34-25.15-1.81,1.05c-.15,1.03.43,2.01.63,2.36l-48.5,28.19-2.76-1.13-.73-.3-29.64-12.16,79.54-46.24,77.09,31.62v.03l27.81,11.38,13.97,5.74Z"/><path class="cls-2" d="m672.13,1118.86c5.49,2.26,10.49,2.19,14.3-.02l-79.53,46.22c-3.81,2.21-8.81,2.28-14.3.02,23.86-13.87,55.67-32.35,79.53-46.22Z"/><path class="cls-1" d="m670.05,1090.64l-27.58,16.05-.12.05-51.81,30.12c-.33.2-.73.2-1.18,0l1.98-1.15,50.43-29.31,1.18-.68,25.93-15.07c.45.2.88.18,1.18,0Z"/><path class="cls-1" d="m686.43,1118.83l-79.53,46.22c1.89-1.1,3.49-2.73,4.72-4.86l79.53-46.22c-1.22,2.14-2.82,3.76-4.72,4.86Z"/><polygon class="cls-1" points="789.69 1420.47 869.22 1374.25 889.13 1521.94 809.6 1568.16 789.69 1420.47"/><path class="cls-2" d="m773.89,1390.51l79.53-46.22c-5.74,3.34-8.36,11.26-7.02,21.28l-79.53,46.22c-1.34-10.03,1.27-17.95,7.02-21.28Z"/><path class="cls-1" d="m790.28,1418.69l79.53-46.22c-.48.27-.71.94-.6,1.77l-79.53,46.22c-.11-.84.12-1.5.6-1.77Z"/><path class="cls-1" d="m773.89,1390.51l79.53-46.22c.1-.06.21-.12.31-.17l-79.53,46.22c-.1.06-.21.11-.31.17Z"/><path class="cls-2" d="m820.08,1204.29l-18.81,10.91-4.79,2.78-2.33,1.35-2.86,1.66c-1.91,1.1-3.76,2.18-5.62,3.26l-2.76,1.6c-1.71.98-3.39,1.96-5.06,2.96l-.95.55c-1.71.98-3.41,1.98-5.14,2.98l-4.61,2.68-4.79,2.78c-.5.3-1,.58-1.53.88-.58.35-1.13.68-1.71,1l-1.78,1.03-16.8,9.78c-8.2-6.12-15.27-16.12-18.91-26.81l17.25-10.03,62.27-36.19c1.15,3.34,2.61,6.62,4.36,9.76.45.78.9,1.55,1.38,2.33,3.64,5.87,8.23,11.01,13.19,14.72Z"/><path class="cls-1" d="m742.39,1223.92l79.53-46.22c.3.87.88,1.7,1.56,2.21l-79.53,46.22c-.69-.51-1.26-1.34-1.56-2.21Z"/><polygon class="cls-1" points="744.63 1020.93 743.9 1022.18 741.62 1026.17 740.86 1027.48 730.31 1045.86 689.61 1069.5 699.71 1099.04 691.14 1113.97 685.27 1117.38 679.85 1120.54 679.83 1120.54 611.62 1160.18 616.93 1150.93 642.34 1106.74 642.39 1106.67 642.94 1105.72 654.9 1084.9 665.11 1067.15 666.03 1066.6 666.08 1066.6 683.34 1056.56 744.63 1020.93"/><path class="cls-1" d="m665.52,1066.7l79.53-46.22c-.23.13-.35.34-.42.45l-79.53,46.22c.06-.1.19-.31.42-.45Z"/><path class="cls-2" d="m665.52,1066.7l79.53-46.22c.29-.17.73-.22,1.44.19l-79.53,46.22c-.71-.41-1.16-.36-1.44-.19Z"/><polygon class="cls-2" points="699.71 1099.04 738.88 1213.67 721.63 1223.7 685.87 1119.16 685.87 1119.13 685.27 1117.38 668.84 1069.33 685.24 1059.8 740.86 1027.48 748.36 1023.11 751.85 1033.32 730.31 1045.86 689.61 1069.5 699.71 1099.04"/><path class="cls-2" d="m748.08,1022.4c.15.3.24.56.29.7l-79.53,46.22c-.05-.15-.14-.4-.29-.7,26.51-15.41,53.02-30.81,79.53-46.22Z"/><path class="cls-2" d="m748.08,1022.4c-26.51,15.41-53.02,30.81-79.53,46.22-.27-.54-.75-1.24-1.58-1.72l79.53-46.22c.84.48,1.31,1.18,1.58,1.72Z"/><polygon class="cls-3" points="801.15 1177.49 738.88 1213.67 699.71 1099.04 689.61 1069.5 730.31 1045.86 751.85 1033.32 801.15 1177.49"/><polygon class="cls-1" points="821.91 1177.71 805.51 1187.24 742.39 1223.93 738.88 1213.67 801.15 1177.49 751.85 1033.32 769.12 1023.29 821.91 1177.71"/><path class="cls-1" d="m769.12,1023.29l-17.28,10.03-21.54,12.54-40.7,23.65c-.65-1.88-1.4-3.74-2.26-5.54-.25-.6-.55-1.2-.85-1.81-.38-.8-.8-1.58-1.25-2.36-.1-.23-.23-.43-.38-.65-.35-.68-.75-1.33-1.15-1.98l-.38-.6c-.05-.08-.08-.13-.1-.18-.95-1.48-1.98-2.88-3.03-4.24-.4-.5-.78-.98-1.18-1.45-.15-.18-.28-.35-.45-.5-.4-.48-.83-.95-1.25-1.43-1.3-1.45-2.68-2.78-4.11-3.99-.45-.43-.93-.8-1.4-1.18-1.56-1.23-3.13-2.33-4.76-3.26-4.74-2.76-9.25-3.86-13.12-3.39-.78.1-1.53.25-2.26.48-.35.1-.7.23-1.03.38-.2.08-.38.15-.55.23-.3.15-.6.3-.9.48l79.49-46.22c4.66-2.68,11.03-2.16,17.9,1.81,9.65,5.59,18.31,16.78,22.54,29.19Z"/><path class="cls-2" d="m940.52,1295.32c.37,1.54-.22,1.96-.49,2.11l-79.53,46.22c.26-.15.86-.57.49-2.11-.15-.62-.38-1.11-.63-1.49,17.08-9.92,34.15-19.85,51.23-29.77,5.08-2.95,10.16-5.91,15.25-8.86.59-.34,1.37-.8,1.96-1.14,2.53-1.47,5.05-2.94,7.58-4.41.54-.31,1.25-.73,1.79-1.04s1.3-.58,1.73-1c.25.38.48.87.63,1.49Z"/><path class="cls-1" d="m940.03,1297.43l-79.53,46.22s-.04.02-.05.03l79.53-46.22s.03-.02.05-.03Z"/><path class="cls-1" d="m860.98,1341.54c-.11-.44-.26-.8-.43-1.12l-6.83,3.69-79.53,46.22,86.25-46.65.07-.04c.27-.16.82-.6.46-2.1Z"/><polygon class="cls-2" points="938.85 1292.74 875.9 1329.3 859.3 1338.96 740.54 1250.51 757.34 1240.73 760.85 1238.72 862.71 1314.56 921.94 1280.15 938.85 1292.74"/><path class="cls-2" d="m939.89,1293.83c-26.51,15.41-53.02,30.81-79.53,46.22-.4-.63-.85-.96-1.05-1.1l79.53-46.22c.2.14.65.47,1.05,1.1Z"/><path class="cls-2" d="m666.96,1066.9c1.3.75,1.73,2.01,1.87,2.42l52.79,154.39c3.64,10.67,10.72,20.69,18.93,26.79l118.76,88.45c.32.22,1.28.94,1.68,2.59s-.31,2.01-.54,2.14l-86.25,46.65c-5.96,3.23-8.69,11.25-7.33,21.46l19.92,147.7c.05.4.22,1.6-.84,1.86-.44.12-.86,0-1.2-.2l-107.07-126.44c-3.67-4.34-7.69-7.77-11.72-10.1-4.03-2.32-8.06-3.54-11.74-3.45l-106.46,2.85c-1.33-.46-1.74-.81-2.19-1.45-1.04-1.47-.88-2.48-.81-2.81l20.67-124.26c1.44-8.59-1.24-19.73-7.16-29.81l-85.7-145.95c-.22-.39-.93-1.57-.52-2.75.4-1.19,1.37-.8,1.69-.65l118.87,48.75c8.22,3.38,15.33,1.55,19.02-4.89l53.49-93.04c.15-.23.58-.99,1.86-.25Z"/><polygon class="cls-3" points="921.94 1280.15 862.71 1314.56 760.85 1238.72 762.35 1237.82 767.14 1235.04 771.76 1232.35 794.15 1219.34 796.48 1217.98 801.27 1215.2 820.08 1204.29 921.94 1280.15"/><polygon class="cls-1" points="942.26 1268.34 921.94 1280.15 820.08 1204.29 801.27 1215.2 796.48 1217.98 794.15 1219.34 771.76 1232.35 767.14 1235.04 762.35 1237.82 760.85 1238.72 760.82 1238.7 743.95 1226.13 806.89 1189.57 823.49 1179.92 942.26 1268.34"/><path class="cls-1" d="m956.4,1325.64l-79.54,46.22c.2-.13.4-.23.58-.38.25-.15.5-.33.73-.5.6-.48,1.18-.98,1.68-1.55.23-.23.43-.45.6-.7,1.68-2.13,2.81-4.86,3.36-8.07.07-.3.12-.6.15-.9.58-4.01.28-8.65-.95-13.72-1.05-4.31-2.68-8.63-4.79-12.69-.48-.95-1-1.88-1.53-2.78-.25-.43-.5-.85-.78-1.25-3.59-5.84-8.15-10.98-13.19-14.75l59.23-34.41,20.31-11.81c9.55,7.12,17.33,19.18,20.29,31.47,2.91,12.09.55,21.92-6.14,25.83Z"/><path class="cls-1" d="m602.54,1166.58c.13,0,.28-.02.4-.05l.02-.03c-.12.03-.28.05-.43.07Zm280.46,179.45c-1.05-4.31-2.68-8.6-4.79-12.66v-.03c-.48-.95-1-1.88-1.53-2.78-.25-.43-.5-.85-.78-1.25-3.59-5.84-8.15-10.98-13.19-14.75l-101.86-75.83-.02-.03-16.88-12.56c-.68-.5-1.25-1.33-1.56-2.21l-3.51-10.26-39.17-114.63-10.11-29.54c-.65-1.88-1.4-3.74-2.26-5.54-.25-.63-.55-1.23-.85-1.81-.4-.8-.83-1.58-1.25-2.36-.1-.23-.23-.43-.38-.65-.35-.68-.75-1.33-1.15-1.98l-.38-.6c-.05-.08-.08-.13-.1-.18-.95-1.48-1.98-2.88-3.03-4.24-.4-.5-.78-.98-1.18-1.45-.15-.18-.28-.35-.45-.5-.4-.48-.83-.95-1.25-1.43-1.3-1.45-2.68-2.78-4.11-3.99-.45-.43-.93-.8-1.4-1.18-1.56-1.23-3.13-2.33-4.76-3.26-4.74-2.76-9.25-3.86-13.12-3.39-.78.1-1.53.25-2.26.48-.35.1-.7.23-1.03.38-.2.08-.38.15-.55.23-.3.15-.6.3-.9.48-1.91,1.1-3.54,2.73-4.79,4.91l-17.3,30.07v.03l-12.49,21.74-23.27,40.45-.43.75c-.1.18-.23.33-.38.4-.33.2-.73.2-1.18,0l-.08-.03-85.69-35.13-2.76-1.13-.73-.3h-.02l-29.62-12.16c-2.76-1.13-5.37-1.68-7.77-1.68-.38,0-.73.03-1.08.05h-.2c-.35.02-.73.05-1.05.13-.28.05-.55.1-.83.18-.35.08-.68.18-1,.28-.03,0-.05.03-.1.03-.28.1-.58.2-.85.33-.3.13-.6.25-.9.43-2.96,1.53-5.27,4.31-6.6,8.23-3.01,8.85-.63,21.62,6.29,33.4l85.69,145.92c.5.83.73,1.76.6,2.46l-20.69,124.26c-1.66,10.01,2.16,23.07,9.96,34.13,4.39,6.22,9.55,11.08,14.77,14.09,4.01,2.31,8.02,3.54,11.76,3.41l108.38-1.71,106.1,125.53c3.71,4.41,7.75,7.85,11.76,10.16,5.19,3.01,10.36,4.11,14.8,2.98,1.23-.33,2.38-.8,3.41-1.43l.03-.03s.05-.05.05-.05c.33-.18.65-.4.95-.65.23-.15.45-.35.65-.53.18-.15.33-.3.48-.45,1.13-1.08,2.06-2.41,2.78-3.94.2-.4.38-.83.55-1.25.35-.85.63-1.76.85-2.73.13-.48.23-.98.3-1.48.2-1.03.3-2.08.35-3.18.03-.58.05-1.13.05-1.71,0-1.63-.1-3.34-.35-5.12l-2.56-19.01-.18-1.33-.13-.88-16.02-118.81-1.03-7.67c-.1-.83.13-1.48.6-1.76l34.76-18.81.3-.15.03-.03,23.9-12.94,20.16-10.91,7.1-3.84c.33-.18.63-.35.9-.55.25-.15.5-.33.73-.5.6-.48,1.18-.98,1.68-1.55.2-.23.4-.45.6-.7,1.68-2.13,2.81-4.86,3.36-8.07.07-.3.12-.6.15-.9.58-4.01.28-8.65-.95-13.72Zm-96.22,213.45c.03.18.08.53.03.88,0,.08-.03.18-.05.25-.05.13-.12.25-.2.38-.05.05-.1.1-.15.15-.03,0-.03.03-.05.03-.03.03-.05.03-.08.05-.1.05-.2.1-.33.13-.18.05-.35.05-.58,0-.23-.08-.5-.23-.9-.53-.2-.13-.43-.33-.7-.53l-106.1-125.58c-3.66-4.34-7.7-7.77-11.71-10.08-4.04-2.33-8.05-3.56-11.74-3.46l-107.13,2.61h-.33c-.23-.13-.45-.3-.68-.58-.13-.13-.23-.25-.35-.4-.05-.08-.13-.15-.18-.23-1.03-1.48-.88-2.48-.8-2.81l20.66-124.26c1.43-8.6-1.25-19.74-7.17-29.82l-85.69-145.95c-.23-.4-.93-1.58-.53-2.76.03-.08.05-.15.1-.23.03-.08.08-.13.1-.18.03-.05.08-.1.13-.15.03-.05.08-.07.13-.1.05-.05.12-.08.18-.1l.03-.03s.03,0,.05-.03c.15-.05.3-.03.45,0,.15,0,.28.05.38.1.08.03.1.05.15.05l2.76,1.13,116.11,47.62c3.46,1.43,6.75,1.93,9.65,1.55.03,0,.08,0,.1-.03.08,0,.13,0,.2-.03.13,0,.28-.02.4-.05l.02-.03c.1,0,.18-.03.25-.05.13-.03.25-.05.38-.08.18-.05.35-.1.53-.15.18-.05.33-.1.5-.15.08-.03.18-.08.25-.1.38-.13.75-.28,1.13-.45.03-.03.08-.03.1-.05.28-.13.53-.28.8-.43.25-.13.48-.28.7-.43.38-.28.73-.55,1.08-.83.28-.25.55-.5.8-.78.2-.2.4-.4.6-.63.55-.65,1.08-1.4,1.53-2.21l5.32-9.25,25.4-44.19.05-.08.55-.95,11.96-20.81,10.21-17.75s.05-.1.1-.15c.03-.05.08-.08.13-.13,0-.03.03-.03.03-.03,0,0,0-.03.03-.03,0-.03.03-.05.05-.05.05-.05.08-.08.15-.1l.02-.03c.05-.03.13-.03.18-.03h.05c.08-.05.1-.05.15-.03h.13s.03,0,.05.03h.05c.05-.03.1,0,.15.03.03,0,.03.03.05.03h.03c.05,0,.08,0,.13.05.05,0,.13.05.2.08.05.03.13.08.2.1.1.08.2.13.3.2.1.05.18.13.25.2.1.08.15.13.23.2.08.07.13.13.2.2.03.03.03.05.05.05t.03.05l.03.03c.1.13.18.23.25.35v.03l.05.03c.05.13.13.25.18.35.03,0,.03.03.03.05.15.3.25.55.3.7l16.43,48.05.6,1.76v.03l35.76,104.55c3.64,10.68,10.71,20.69,18.91,26.81l118.76,88.45c.12.07.33.23.58.48.07.08.15.18.23.28.08.1.15.2.25.33.08.1.15.25.2.38.05.1.1.2.15.3t.03.05c.1.23.18.48.25.78.13.53.15.9.1,1.2,0,.08-.03.15-.03.2h-.03v.05c-.03.1-.08.18-.1.25t-.03.05h-.03v.03s-.08.07-.1.1-.05.05-.08.1h-.03v.02h-.03s0,.03-.03.03c-.02.03-.05.03-.05.03,0,0-.02,0-.02.03h-.03v.03h-.02s-.03.03-.05.03l-12.36,6.7-73.88,39.97h-.03c-.33.18-.63.38-.93.58-.18.1-.35.23-.5.35-.07.05-.18.13-.25.18-.05.05-.1.1-.15.13-.03.03-.05.05-.08.07t-.05.03c-.2.18-.4.35-.58.53-.2.18-.4.38-.58.58-.08.1-.18.18-.25.28-.13.15-.28.33-.4.48-.3.38-.55.75-.83,1.15-.18.25-.33.5-.45.75-.2.35-.4.73-.58,1.13-.1.18-.18.38-.28.55-.08.2-.15.43-.25.63-.15.43-.3.83-.43,1.28-.1.33-.23.7-.33,1.08,0,.03-.03.08-.03.13s-.03.08-.03.13c-.08.33-.15.65-.23,1-.03.1-.03.2-.05.3-.03.18-.05.35-.1.53,0,.05,0,.1-.03.15v.15c-.03.08-.05.18-.05.25-.03.13-.03.25-.05.38-.03.23-.05.45-.08.68,0,.08-.03.15-.03.23-.03.35-.05.73-.07,1.1-.03.5-.05,1-.05,1.56v.1c0,1.6.12,3.28.35,5.04l19.79,146.8.13.88Zm-184.24-392.9c.13,0,.28-.02.4-.05l.02-.03c-.12.03-.28.05-.43.07Z"/></g></g></svg>