<?xml version="1.0" encoding="UTF-8"?><svg id="Layer_2" xmlns="http://www.w3.org/2000/svg" xmlns:xlink="http://www.w3.org/1999/xlink" viewBox="0 0 799.25 1470.01"><defs><style>.cls-1{clip-path:url(#clippath);}.cls-2{fill:none;}.cls-2,.cls-3,.cls-4,.cls-5,.cls-6{stroke-width:0px;}.cls-7{clip-path:url(#clippath-1);}.cls-8{clip-path:url(#clippath-4);}.cls-9{clip-path:url(#clippath-3);}.cls-10{clip-path:url(#clippath-2);}.cls-11{clip-path:url(#clippath-7);}.cls-12{clip-path:url(#clippath-8);}.cls-13{clip-path:url(#clippath-6);}.cls-14{clip-path:url(#clippath-5);}.cls-15{clip-path:url(#clippath-9);}.cls-16{clip-path:url(#clippath-10);}.cls-17{isolation:isolate;}.cls-4{fill:#f4934b;}.cls-5{fill:#e8e8e8;}.cls-6{fill:#0080ff;}</style><clipPath id="clippath"><polygon class="cls-2" points="165.49 1341.02 163.09 495.71 724.93 171.33 727.32 1016.65 165.49 1341.02"/></clipPath><clipPath id="clippath-1"><polygon class="cls-2" points="236.01 645.92 235.94 619.34 450.31 495.58 450.38 522.16 236.01 645.92"/></clipPath><clipPath id="clippath-2"><polygon class="cls-2" points="244.87 694.41 244.8 667.84 378.41 590.7 378.48 617.27 244.87 694.41"/></clipPath><clipPath id="clippath-3"><polygon class="cls-2" points="236.01 858.72 235.94 832.15 450.31 708.38 450.38 734.95 236.01 858.72"/></clipPath><clipPath id="clippath-4"><polygon class="cls-2" points="244.87 907.21 244.8 880.64 378.41 803.49 378.48 830.07 244.87 907.21"/></clipPath><clipPath id="clippath-5"><polygon class="cls-2" points="236.01 1091.35 235.94 1064.78 450.31 941.01 450.38 967.58 236.01 1091.35"/></clipPath><clipPath id="clippath-6"><polygon class="cls-2" points="244.87 1139.84 244.8 1113.27 378.41 1036.13 378.48 1062.7 244.87 1139.84"/></clipPath><clipPath id="clippath-7"><polygon class="cls-2" points="522.96 788.21 522.51 627.62 662.26 546.93 662.71 707.52 522.96 788.21"/></clipPath><clipPath id="clippath-8"><polygon class="cls-2" points="550.72 1002.13 550.35 871.87 660.35 808.36 660.72 938.62 550.72 1002.13"/></clipPath><clipPath id="clippath-9"><polygon class="cls-2" points="549.03 1001.17 548.68 874.77 662.03 809.32 662.39 935.72 549.03 1001.17"/></clipPath><clipPath id="clippath-10"><polygon class="cls-2" points="524.57 530.79 524.2 397.47 660.44 318.81 660.81 452.13 524.57 530.79"/></clipPath></defs><g id="line"><g class="cls-17"><path class="cls-3" d="m723.85,1106.31l-79.53-46.22c28.91-16.69,52.36-57.3,52.26-90.54l79.53,46.22c.09,33.24-23.35,73.85-52.26,90.54Z"/><polygon class="cls-3" points="723.84 1106.3 157.83 1433.1 105.22 1402.54 82.03 1389.04 78.32 1386.89 82 1384.76 105.12 1371.41 644.32 1060.09 723.84 1106.3"/><path class="cls-3" d="m157.83,1433.1c-9.08,5.24-17.63,7.5-25.1,7.12-.23,0-.45-.03-.7-.05h-.18c-.05,0-.1,0-.15-.03h-.03c-.35-.03-.7-.05-1.05-.1h-.05l-.53-.08c-.18-.03-.33-.03-.5-.08-.13-.03-.28-.05-.4-.07-.23-.03-.45-.08-.68-.13-.5-.07-.98-.2-1.45-.33-.58-.15-1.15-.33-1.71-.5h-.02c-.55-.2-1.1-.4-1.63-.63-.38-.15-.75-.3-1.1-.48-.03,0-.08-.03-.1-.05-.18-.08-.33-.15-.48-.23-.18-.08-.33-.15-.48-.25-.03,0-.03-.03-.05-.03-.15-.05-.28-.13-.4-.23-.08-.03-.15-.08-.23-.13-.08-.03-.15-.08-.23-.1l-.08-.05s-.05-.03-.08-.05l-.43-.25-.08-.05-37.84-21.97v-.03l-41.03-23.82c1.96,1.13,4.06,1.98,6.32,2.58,8.55,2.23,19.06.48,30.39-5.94.18-.1.35-.2.53-.3l3.71,2.16,23.2,13.49,52.61,30.57Z"/><path class="cls-4" d="m35.53,1386.22c26.51,15.41,53.02,30.81,79.53,46.22,1.67,1.71,3.53,3.16,5.55,4.32l-79.53-46.22c-2.02-1.16-3.87-2.61-5.55-4.32Z"/><path class="cls-4" d="m115.05,1432.45c-10.98-6.39-21.97-12.79-32.95-19.16-11.56-6.72-23.15-13.44-34.71-20.16-3.96-2.31-7.9-4.59-11.86-6.9-6.17-6.34-9.8-16.33-9.86-29.34l52.11,30.29,4.24,2.46,23.2,13.47c0,1.08.02,2.16.1,3.18-.03.03,0,.08,0,.13.03.28.03.58.05.85.05.75.1,1.48.18,2.21.05.5.1,1,.18,1.5,0,.05,0,.1.03.13,0,.08,0,.13.03.18-.03.08,0,.13,0,.18h.03s-.03.07,0,.13c0,.03.03.07.03.1,0,.08.03.13.03.18.05.53.15,1.05.25,1.55.08.58.2,1.13.33,1.68.03.13.05.23.05.33.02.13.05.25.08.35.1.45.23.9.33,1.33.15.6.33,1.18.5,1.76s.35,1.13.55,1.68c.13.38.25.73.4,1.08.05.2.13.38.2.55h.03c.1.28.2.55.33.8.05.1.1.23.15.33.2.5.45,1,.7,1.48.03.1.08.18.13.28.05.13.13.28.2.4.23.43.45.85.7,1.25.15.3.33.6.53.88.08.15.18.3.25.43.05.08.1.15.13.2.23.33.45.65.68.95.05.07.1.15.15.23.28.4.58.78.85,1.13h.03c.02.05.08.1.1.15.03.03.05.05.08.08.25.33.53.63.8.93.23.28.48.53.7.78Z"/><path class="cls-3" d="m104.17,1464.9l-79.53-46.22c-13.58-7.89-22.01-24.65-22.07-48.45l79.53,46.22c.07,23.79,8.5,40.56,22.07,48.45Z"/><polygon class="cls-3" points="776.1 1015.78 696.58 969.56 694.13 98.62 694.13 98.59 694.05 72.03 694.03 67.47 694.03 66.89 698.49 69.48 721.46 82.84 773.55 113.11 776.1 1015.78"/><path class="cls-3" d="m678.7,33.28l79.53,46.22c9.42,5.48,15.27,17.11,15.32,33.62l-79.53-46.22c-.05-16.51-5.9-28.14-15.32-33.62Z"/><path class="cls-4" d="m678.49,33.15c.05.03.1.06.15.09l79.53,46.22c-.05-.03-.1-.06-.15-.09-26.51-15.41-53.02-30.81-79.53-46.22Z"/><path class="cls-4" d="m719.81,57.16c12.56,7.3,25.1,14.59,37.64,21.89-.4-.23-.8-.43-1.2-.6-.95-.43-1.93-.83-2.93-1.15-.55-.18-1.1-.35-1.68-.48-.58-.15-1.15-.28-1.73-.38-.58-.13-1.18-.2-1.78-.28-.4-.05-.83-.1-1.25-.13-.28-.03-.55-.05-.83-.05-7.32-.38-15.7,1.81-24.58,6.85-.18.08-.35.18-.53.28l-22.95-13.34-3.96-2.31-52.61-30.57c14.44-8.35,27.56-9.15,37.06-3.74l.15.08c.13.1.28.18.4.23.08.08.15.1.23.15,12.29,7.12,24.55,14.24,36.81,21.39,1.25.7,2.51,1.43,3.74,2.16Z"/><path class="cls-4" d="m757.85,79.28c-.13-.08-.28-.15-.4-.23.03,0,.05.03.1.05.1.05.2.1.3.18Z"/><path class="cls-3" d="m695.08,5.11l79.53,46.22c-13.75-7.99-32.78-6.89-53.74,5.22l-79.53-46.22c20.96-12.1,39.99-13.21,53.74-5.22Z"/><path class="cls-4" d="m105.22,1402.54v.58l-23.2-13.47-4.24-2.46c.18-.1.35-.2.53-.3l3.69-2.13-2.46-870.94-56.35-32.75-.08-26.83,59.18,34.38,20.36,11.84,2.46,870.97.1,31.12Z"/><polygon class="cls-4" points="720.93 83.12 694.13 98.59 694.13 98.62 154.92 409.89 134.69 398.13 75.41 363.68 98.3 350.46 154.85 383.34 694.05 72.03 694.03 67.47 697.99 69.78 720.93 83.12"/><path class="cls-3" d="m82,1384.76l-3.69,2.13c-.18.1-.35.2-.53.3l-52.11-30.29-2.48-875.83,56.35,32.75,2.46,870.94Z"/><polyline class="cls-5" points="25.68 1356.9 23.2 1087.99 79.54 1120.74 82 1384.76"/><path class="cls-3" d="m82.1,1413.29v3.16l-79.54-46.22L0,467.57l23.2,13.49,2.48,875.83,52.11,30.29c.18-.1.35-.2.53-.3l3.69-2.13.03,4.29v.6l.08,23.65Z"/><polygon class="cls-5" points="694.05 72.03 154.85 383.34 98.3 350.46 641.42 36.9 694.03 67.47 694.05 72.03"/><polygon class="cls-3" points="720.86 56.56 719.81 57.16 698.49 69.48 697.99 69.78 694.05 72.03 694.03 67.47 641.42 36.9 98.3 350.46 75.33 337.12 641.34 10.32 720.86 56.56"/><path class="cls-6" d="m720.95,83.12c28.92-16.69,52.51-3.23,52.61,30l2.56,902.66c.09,33.24-23.35,73.85-52.26,90.54l-566.01,326.79c-28.92,16.69-52.53,3.26-52.62-29.99l-2.56-902.66c-.09-33.23,23.36-73.86,52.28-90.55L720.95,83.12Z"/><path class="cls-4" d="m154.92,409.89c-28.91,16.7-52.36,57.33-52.26,90.55l-20.36-11.84c7.07-33.23,27.06-67.76,52.39-90.48l20.24,11.76Z"/><path class="cls-3" d="m796.69,99.74c-.08-24.05-8.7-40.9-22.54-48.65-.5-.3-1.03-.58-1.56-.83-.1-.08-.18-.1-.25-.13-.1-.05-.18-.1-.28-.13-.05-.03-.1-.05-.15-.08-.6-.3-1.2-.55-1.81-.8-.78-.33-1.58-.63-2.38-.88-.8-.28-1.63-.53-2.46-.73-.75-.2-1.5-.38-2.28-.53-.18-.05-.38-.08-.55-.1-.7-.13-1.38-.23-2.08-.33-.15-.03-.3-.05-.43-.05-.65-.08-1.3-.13-1.96-.18-.23-.03-.45-.05-.68-.05-.85-.05-1.71-.08-2.58-.08-10.21,0-21.69,3.31-33.85,10.33l-1.05.6-21.32,12.31-.5.3-3.94,2.26L154.85,383.34c-6.97,4.04-13.74,9.03-20.16,14.8-25.33,22.72-45.31,57.25-52.39,90.48-1.83,8.55-2.78,17.03-2.76,25.2l2.46,870.94.03,4.29v.6l.08,23.65v3.16c0,1.28.03,2.53.08,3.76.02.7.08,1.38.13,2.06,0,.28.03.53.05.78,0,.18.03.35.05.53,0,.35.05.7.08,1.03.02.35.08.68.1,1,0,.05,0,.13.03.18,0,.08,0,.15.03.23.08.85.18,1.68.3,2.51.08.53.15,1.03.23,1.53.1.7.23,1.4.38,2.08.08.43.13.83.23,1.25,0,.05.03.1.03.15.18.83.38,1.66.58,2.46.08.38.18.75.28,1.1.25,1,.55,1.98.85,2.93.03.1.08.23.13.33,0,.05.02.08.05.13.03.07.05.18.08.25.2.68.43,1.33.7,1.98.03.05.03.08.05.13.13.38.25.73.4,1.08.35.88.73,1.76,1.1,2.58.03.05.05.1.08.15.55,1.18,1.13,2.31,1.76,3.39.18.33.38.65.58.98.35.6.7,1.2,1.08,1.76.4.6.8,1.15,1.23,1.71.35.5.73,1,1.13,1.48.38.48.78.95,1.18,1.4.33.38.68.75,1.03,1.1.35.38.7.73,1.05,1.08.25.25.5.48.75.7.48.45.98.88,1.48,1.28.38.33.78.63,1.18.93.78.6,1.58,1.18,2.41,1.68.08.07.15.13.23.15.08.05.15.1.23.15.15.1.33.2.48.28h.03c13.77,8.2,32.9,7.17,54.04-5.02l566.01-326.8c41.65-24.05,75.46-82.58,75.33-130.47l-2.56-902.67Zm-72.85,1006.56l-566.01,326.8c-9.08,5.24-17.63,7.5-25.1,7.12-.23,0-.45-.03-.7-.05h-.18c-.05,0-.1,0-.15-.03h-.03c-.35-.03-.7-.05-1.05-.1h-.05l-.53-.08c-.18-.03-.33-.03-.5-.08-.13-.03-.28-.05-.4-.07-.23-.03-.45-.08-.68-.13-.5-.07-.98-.2-1.45-.33-.58-.15-1.15-.33-1.71-.5h-.02c-.48-.18-.93-.33-1.4-.5-.23-.1-.45-.2-.68-.3-.23-.1-.43-.2-.65-.3-.03,0-.08-.03-.1-.05-.18-.08-.33-.15-.48-.23-.18-.08-.33-.15-.48-.25-.03,0-.03-.03-.05-.03-.15-.05-.28-.13-.4-.23-.08-.03-.15-.08-.23-.13-.03,0-.05-.03-.08-.05-.08-.03-.15-.05-.23-.1-.03-.03-.05-.03-.08-.05l-.43-.25-.08-.05c-.18-.1-.38-.23-.55-.35-.03-.03-.05-.03-.08-.05-.1-.05-.23-.13-.33-.23-.05-.03-.08-.05-.13-.08,0-.03-.02-.03-.02-.03-.38-.25-.75-.53-1.13-.83-.43-.33-.85-.68-1.25-1.03-.48-.43-.95-.88-1.4-1.33-.23-.25-.48-.5-.7-.78-.28-.3-.53-.6-.8-.93-.02-.03-.05-.05-.08-.08-.03-.05-.08-.1-.13-.15-.28-.35-.58-.73-.85-1.13-.05-.08-.1-.15-.15-.23-.23-.3-.45-.63-.68-.95-.02-.05-.08-.13-.13-.2-.08-.13-.18-.28-.25-.43-.2-.28-.38-.58-.53-.88-.25-.4-.48-.83-.7-1.25-.08-.13-.15-.28-.2-.4-.05-.1-.1-.18-.13-.28-.25-.48-.5-.98-.7-1.48-.05-.1-.1-.23-.15-.33-.13-.28-.25-.53-.35-.8-.08-.18-.15-.35-.2-.55-.15-.35-.28-.7-.4-1.08-.2-.55-.38-1.1-.55-1.68s-.35-1.15-.5-1.76c-.1-.43-.23-.88-.33-1.33-.03-.1-.05-.23-.08-.35,0-.1-.03-.2-.05-.33-.13-.55-.23-1.1-.33-1.68-.1-.5-.18-1.03-.25-1.55,0-.05-.03-.1-.03-.18,0-.03-.03-.07-.03-.1,0-.05,0-.08-.03-.13,0-.05-.03-.1,0-.18-.03-.05-.03-.1-.03-.18-.03-.03-.03-.08-.03-.13-.08-.5-.13-1-.18-1.5-.08-.73-.13-1.45-.18-2.21-.03-.28-.03-.58-.05-.85,0-.05-.03-.1,0-.13-.08-1.03-.1-2.11-.1-3.18v-.58l-.1-31.12-2.46-870.97c-.1-33.23,23.35-73.85,52.26-90.55L694.13,98.59l26.81-15.47c.18-.1.35-.2.53-.28.35-.2.73-.4,1.08-.6.3-.15.58-.3.88-.48.88-.45,1.76-.88,2.63-1.28.43-.23.88-.43,1.33-.63.45-.2.9-.38,1.33-.55.5-.2,1-.4,1.5-.6.1-.03.2-.08.3-.1.5-.18.98-.35,1.45-.5.5-.18.98-.33,1.45-.45.8-.25,1.58-.45,2.36-.63.18-.05.35-.08.5-.13.53-.13,1.05-.23,1.58-.33.4-.08.8-.15,1.2-.2.18-.03.38-.05.55-.08.68-.1,1.33-.18,1.98-.23.05,0,.13,0,.18-.03,1.48-.1,2.88-.13,4.26-.05.28,0,.55.03.83.05h.1c.08,0,.15,0,.23.03.33.03.63.05.93.1.3.03.6.08.9.13.3.05.58.1.88.15.58.1,1.15.23,1.73.38.13.03.28.08.43.1.15.02.3.08.43.13.28.08.55.15.83.25.25.08.5.15.75.25.25.1.5.2.73.28.5.2.98.4,1.45.63.4.18.8.38,1.2.6.03,0,.05.03.1.05.1.05.2.1.3.18.05.03.1.05.18.1.03.03.05.03.1.05l.03.02.02.03s.03,0,.05.03c.23.13.43.23.63.35.33.2.63.4.9.6.03.03.08.05.1.08.03.03.07.05.1.08.03,0,.05,0,.05.03.3.18.58.38.85.6.25.2.5.4.73.6.53.4,1.05.88,1.55,1.38.07.08.15.15.23.23s.15.13.23.23c.18.18.38.35.55.55l.45.53c.48.53.95,1.08,1.35,1.65.45.58.88,1.18,1.28,1.78,0,.03.03.03.03.03.38.63.75,1.25,1.1,1.91.2.33.38.65.55,1,.1.2.2.4.28.63.03.05.05.1.08.15.05.08.1.18.13.25.07.13.13.23.18.35.15.3.28.6.4.93.08.15.15.3.2.48.05.15.1.3.18.45.05.1.08.2.13.3.15.35.28.68.38,1.03.1.28.2.55.28.83.05.1.07.18.07.28.03.1.08.2.1.3.23.65.43,1.33.6,2.03.15.58.28,1.15.4,1.78.03.15.08.3.1.48.03.07.03.13.05.2.03.05.03.13.05.2.03.1.03.2.05.3.05.33.13.65.18.98.08.43.15.88.2,1.3.13.78.23,1.58.3,2.38.05.4.08.78.1,1.18.03.08.03.18.03.25.03.38.05.75.08,1.15.05.48.05.95.08,1.43.03.78.05,1.55.05,2.36l2.56,902.67c.1,33.23-23.35,73.85-52.26,90.53Z"/><path class="cls-5" d="m134.69,398.13c-25.33,22.72-45.31,57.25-52.39,90.48l-59.18-34.38c-.1-33.23,23.37-73.85,52.29-90.55l59.28,34.46Z"/><path class="cls-3" d="m23.12,454.23l59.18,34.38c-1.83,8.55-2.78,17.03-2.76,25.2l-56.35-32.75L0,467.57c-.13-47.85,33.65-106.4,75.33-130.45l22.97,13.34,56.55,32.88c-6.97,4.04-13.74,9.03-20.16,14.8l-59.28-34.46c-28.91,16.7-52.39,57.33-52.29,90.55Z"/></g><g class="cls-17"><g class="cls-1"><path class="cls-5" d="m677.27,228.09L210.92,497.33c-12.32,7.11-22.31,24.41-22.27,38.56l2.09,735.6c.04,14.16,10.1,19.88,22.41,12.77l466.35-269.25c12.32-7.11,22.3-24.41,22.26-38.56l-2.09-735.6c-.04-14.15-10.09-19.88-22.41-12.77"/><path class="cls-3" d="m213.15,1284.26c-12.32,7.11-22.37,1.39-22.41-12.77l-2.09-735.6c-.04-14.15,9.95-31.45,22.27-38.56l466.35-269.25c12.32-7.11,22.37-1.38,22.41,12.77l2.09,735.6c.04,14.16-9.94,31.45-22.26,38.56l-466.35,269.25M677.19,198.89L210.84,468.14c-26.32,15.2-47.67,52.17-47.59,82.42l2.09,735.6c.09,30.26,21.58,42.49,47.9,27.3l466.35-269.25c26.32-15.2,47.67-52.17,47.58-82.42l-2.09-735.6c-.09-30.25-21.57-42.49-47.89-27.29"/></g></g><g class="cls-17"><g class="cls-7"><path class="cls-3" d="m438.75,502.25l-191.25,110.42c-6.38,3.69-11.55,12.63-11.52,19.97s5.22,10.3,11.6,6.61l191.25-110.42c6.38-3.69,11.55-12.63,11.53-19.96s-5.22-10.3-11.6-6.62"/></g></g><g class="cls-17"><g class="cls-10"><path class="cls-3" d="m366.84,597.37l-110.49,63.79c-6.38,3.69-11.55,12.63-11.53,19.96s5.22,10.3,11.6,6.61l110.49-63.79c6.38-3.69,11.55-12.63,11.53-19.96s-5.22-10.3-11.6-6.61"/></g></g><g class="cls-17"><g class="cls-9"><path class="cls-3" d="m438.75,715.06l-191.25,110.42c-6.38,3.69-11.55,12.63-11.53,19.96.02,7.34,5.22,10.3,11.6,6.61l191.25-110.42c6.38-3.69,11.55-12.63,11.53-19.96s-5.22-10.3-11.6-6.61"/></g></g><g class="cls-17"><g class="cls-8"><path class="cls-3" d="m366.84,810.17l-110.49,63.79c-6.38,3.69-11.55,12.63-11.53,19.96s5.22,10.3,11.6,6.61l110.49-63.79c6.38-3.69,11.55-12.62,11.53-19.96s-5.22-10.3-11.6-6.61"/></g></g><g class="cls-17"><g class="cls-14"><path class="cls-3" d="m438.75,947.69l-191.25,110.42c-6.38,3.69-11.55,12.63-11.53,19.96s5.22,10.3,11.6,6.61l191.25-110.42c6.38-3.69,11.55-12.63,11.53-19.96-.02-7.34-5.22-10.3-11.6-6.61"/></g></g><g class="cls-17"><g class="cls-13"><path class="cls-3" d="m366.84,1042.8l-110.49,63.79c-6.38,3.69-11.55,12.63-11.53,19.96s5.22,10.3,11.6,6.61l110.49-63.79c6.38-3.69,11.55-12.62,11.53-19.96s-5.22-10.3-11.6-6.61"/></g></g><g class="cls-17"><g class="cls-11"><path class="cls-5" d="m592.46,617.53c-4.53,2.62-8.87,5.91-12.95,9.72-4.08,3.82-7.89,8.16-11.37,12.86-6.94,9.41-12.46,20.29-15.73,31.15-2.19,7.25-3.38,14.5-3.36,21.44.01,5.22.71,9.8,2,13.77,1.28,3.95,3.15,7.28,5.51,9.92,4.72,5.28,11.42,7.79,19.22,7.07,5.21-.48,10.91-2.37,16.96-5.86,4.54-2.62,8.87-5.91,12.95-9.72s7.9-8.16,11.37-12.86c6.94-9.42,12.46-20.29,15.73-31.15,2.18-7.25,3.38-14.5,3.36-21.45l13.17-7.6-13.17,7.6c-.01-5.21-.72-9.79-2-13.76-1.28-3.95-3.15-7.28-5.52-9.92-4.72-5.28-11.41-7.79-19.22-7.08-5.21.48-10.91,2.37-16.96,5.86"/><path class="cls-3" d="m592.38,587.28c-9.61,5.55-18.83,13.13-27.18,22.02-12.54,13.35-23.16,29.66-30.65,46.82-3.74,8.58-6.71,17.37-8.74,26.11-2.02,8.73-3.1,17.4-3.07,25.68.03,11.05,2.02,20.52,5.59,28.09,5.35,11.36,14.23,18.49,25.4,20.7,5.59,1.11,11.75.99,18.33-.46,6.58-1.44,13.57-4.21,20.78-8.37,9.62-5.55,18.83-13.13,27.19-22.02,12.54-13.36,23.15-29.66,30.65-46.82,3.75-8.58,6.72-17.38,8.74-26.11,2.02-8.73,3.1-17.41,3.08-25.69l-13.17,7.6-13.17,7.6c.02,6.95-1.18,14.2-3.36,21.45-3.27,10.86-8.79,21.73-15.73,31.15-3.47,4.7-7.29,9.04-11.37,12.86s-8.41,7.1-12.95,9.72c-6.05,3.49-11.75,5.38-16.96,5.86-7.81.72-14.5-1.8-19.22-7.07-2.36-2.64-4.22-5.97-5.51-9.92-1.28-3.96-1.98-8.55-2-13.77-.02-6.95,1.17-14.19,3.36-21.44,3.27-10.86,8.79-21.73,15.73-31.15,3.47-4.7,7.29-9.04,11.37-12.86,4.08-3.82,8.42-7.11,12.95-9.72,6.05-3.49,11.75-5.38,16.96-5.86,7.81-.72,14.5,1.8,19.22,7.08,2.36,2.64,4.23,5.96,5.52,9.92,1.28,3.97,1.98,8.55,2,13.76l13.17-7.6,13.17-7.6c-.03-11.04-2.02-20.51-5.59-28.08-5.36-11.36-14.24-18.48-25.4-20.7-5.59-1.11-11.75-.99-18.33.46-6.58,1.44-13.58,4.22-20.79,8.38"/></g></g><g class="cls-17"><g class="cls-12"><path class="cls-3" d="m561.44,865.47c-2.77,1.6-5.54,4.38-7.68,8.01-4.4,7.43-4.51,15.57-.24,18.2l88.12,54.06c2.19,1.34,5.1.97,8-.71s5.54-4.38,7.68-8.01c4.4-7.43,4.5-15.57.24-18.19l-88.12-54.06c-2.18-1.34-5.09-.97-8,.71"/></g></g><g class="cls-17"><g class="cls-15"><path class="cls-3" d="m650.94,815.72c-2.77,1.6-5.54,4.38-7.68,8.01l-90.89,153.56c-4.4,7.43-4.51,15.57-.24,18.19,2.19,1.34,5.09.97,8-.71s5.54-4.39,7.69-8.01l90.89-153.55c4.4-7.43,4.51-15.57.24-18.19-2.18-1.34-5.09-.97-8,.71"/></g></g><g class="cls-17"><g class="cls-16"><path class="cls-3" d="m649.5,325.12c-3.45,1.99-6.86,5.81-9.01,10.53l-59.3,129.86-37.76-23.17c-2.18-1.34-5.09-.97-8,.71-2.77,1.6-5.54,4.38-7.69,8.01-4.4,7.43-4.5,15.58-.24,18.2l46.96,28.81c2.13,1.3,5,1.02,7.98-.7.75-.43,1.5-.95,2.25-1.56l.15-.12c2.74-2.22,5.16-5.43,6.78-8.98l66.94-146.62c3.55-7.78,2.39-15.08-2.6-16.31-1.96-.48-4.22.04-6.46,1.34"/></g></g></g></svg>