<?xml version="1.0" encoding="UTF-8"?><svg id="Artwork" xmlns="http://www.w3.org/2000/svg" viewBox="0 0 214 214"><defs><style>.cls-1{stroke-width:0px;}</style></defs><path class="cls-1" d="m160.69,55.51c-8.07-7.59-17.04-14.1-26.74-19.37-.09-.05-.18-.1-.27-.14-.28-.16-.57-.31-.86-.46.4.21.8.41,1.19.63l-6.84-3.72c-23.91-13.01-52.3-18.51-82.75-14.23l-10.97,1.54c-2.43.34-4.39,2.73-4.39,5.34,0,1.68.8,3.04,2.02,3.7l6.84,3.72s-.04-.03-.06-.04c.68.4,1.51.57,2.4.44l2.02-.28,2.43-.34,6.53-.92c1.61-.23,3.22-.42,4.82-.59.8-.08,1.6-.16,2.4-.23.39-.04.79-.07,1.19-.1.6-.05,1.19-.1,1.79-.13,1.19-.08,2.37-.14,3.55-.19.59-.03,1.18-.05,1.77-.06,1.18-.03,2.35-.05,3.51-.05.64,0,1.28,0,1.91.02.26,0,.53,0,.79.02h.43c.82.02,1.65.04,2.47.08.07,0,.13.01.2.01s.14,0,.21,0c.19.01.39.02.58.03.05,0,.11,0,.16,0,.79.04,1.58.08,2.36.14.72.05,1.43.1,2.14.17l.69.06c.27.02.54.05.81.08l.6.06c.47.05.94.1,1.4.15.23.03.45.06.67.08.55.06,1.1.13,1.64.21.24.03.47.07.71.1.34.04.67.09,1.01.15.15.02.3.04.45.06.46.07.92.14,1.37.22.19.03.38.06.56.09.32.05.65.1.97.17.47.08.93.16,1.39.25.36.07.71.13,1.06.21.28.04.55.1.83.16.27.05.53.11.8.17.36.07.72.14,1.08.23.68.15,1.35.3,2.02.46.33.08.65.16.97.24.44.1.87.21,1.3.33.28.06.56.14.84.21,1.05.28,2.09.58,3.13.88.48.14.96.29,1.43.44.03,0,.06,0,.09.02.42.13.84.26,1.26.4.04,0,.07.02.1.03.14.04.27.08.4.13.11.04.22.07.33.11.42.13.84.27,1.26.42.09.03.18.06.26.09.15.05.29.1.43.15.44.15.88.31,1.32.47.42.15.84.3,1.26.46.17.06.34.12.5.19.31.11.62.23.92.35.11.04.22.08.33.13.43.17.87.34,1.3.52.24.09.48.19.72.29.49.2.97.4,1.45.61.55.24,1.1.48,1.65.72.12.06.25.11.37.17.27.12.55.24.82.37.53.24,1.05.48,1.57.73.24.12.48.23.72.35.51.25,1.03.5,1.54.76.05.02.09.05.13.07.42.21.84.42,1.26.64.47.24.94.49,1.4.74.37.2.74.4,1.1.6.31.16.62.33.92.51.16.09.32.18.48.27.19.11.39.22.58.33.11.06.23.13.34.2.7.4,1.39.8,2.07,1.22.1.06.2.12.3.18.53.32,1.06.65,1.58.99.05.02.1.05.15.1.35.21.7.43,1.05.67.42.26.83.53,1.24.81.22.14.43.28.65.43.06.04.11.07.17.11.68.46,1.35.92,2.01,1.4.1.07.2.14.3.21.52.37,1.04.74,1.56,1.13.09.06.18.12.26.19.18.13.35.26.52.39.35.25.69.51,1.03.78.24.18.48.36.72.55.14.1.27.2.39.31.11.07.21.15.31.24.51.4,1.02.81,1.53,1.23.24.19.48.38.72.59.43.35.86.71,1.29,1.08.17.14.35.29.52.44.61.52,1.21,1.05,1.81,1.59.29.26.58.52.86.78.47.42.93.85,1.39,1.28,26.39,24.84,42.67,61.94,42.59,105.51v4.22s-.02,4.65-.02,4.65c0,.16.01.32.03.48,0,.03.01.05.01.08,0,.04,0,.08.01.12.02.15.05.3.09.45.01.05.02.11.04.16.02.11.06.22.1.32.02.07.05.14.08.21h.01c.04.12.09.23.15.33.01.02.02.03.03.05,0,.02,0,.03.02.05.05.1.11.19.18.28.08.13.17.25.28.36.07.09.16.18.25.26.07.07.14.14.22.19,0,0,.01,0,.01,0,.05.05.11.09.17.13.09.07.19.13.29.19.69.4,1.52.56,2.41.44,2.42-.34,4.38-2.73,4.39-5.34v-8.87c.1-46.15-17.17-85.54-45.14-111.84Z"/><path class="cls-1" d="m154.71,133.74c-4.74-18.12-13.95-33.63-26.32-45.26-5.35-5.04-11.3-9.35-17.74-12.85-.28-.15-.56-.3-.85-.46l-5.94-3.24c-7.98-4.34-16.71-7.42-25.99-9.04,0,0,0,0,0,0-1.11-.19-2.23-.36-3.36-.52-8.16-1.1-16.7-1.1-25.5.14h0s-18.36,2.58-18.36,2.58c-2.43.34-4.39,2.73-4.39,5.34,0,1.69.8,3.05,2.03,3.71l6.84,3.72s-.05-.04-.08-.05c.69.41,1.53.59,2.43.46l2.03-.29,2.43-.34,13.9-1.95c4.15-.58,8.24-.87,12.25-.87.83,0,1.66,0,2.49.04.08,0,.17,0,.26,0,.8.02,1.6.06,2.39.11.81.05,1.62.11,2.43.18.07,0,.14.02.21.02.76.07,1.51.15,2.26.25.15.02.3.04.46.06.62.07,1.23.16,1.84.26.2.03.39.06.59.09.67.1,1.32.21,1.98.34.76.14,1.51.29,2.26.45.39.08.77.16,1.15.26.43.09.86.19,1.28.3.2.05.4.1.6.15.67.17,1.34.36,2.01.55.04,0,.07.02.11.03.49.14.98.28,1.46.44.28.08.57.17.85.26.68.22,1.36.45,2.04.69.53.19,1.05.38,1.57.58,1.03.38,2.05.79,3.06,1.22.3.12.6.25.89.39.45.19.89.39,1.33.6.28.13.57.26.85.4.03.02.07.03.1.05.36.16.7.34,1.05.51.15.08.3.15.46.23.57.29,1.13.58,1.68.88.09.05.17.09.26.14.72.39,1.43.79,2.13,1.2.04.03.09.06.14.08.53.32,1.06.64,1.59.97.25.15.49.3.74.47.76.48,1.52.98,2.27,1.51.5.33.99.67,1.48,1.03.06.04.13.09.19.14.66.47,1.3.95,1.93,1.45.57.44,1.13.89,1.69,1.34.25.2.5.41.74.63.43.35.86.72,1.28,1.1.09.06.17.14.25.21.6.52,1.19,1.06,1.77,1.61,7.1,6.68,13.06,14.75,17.59,23.92h0c.73,1.48,1.42,2.96,2.06,4.49,5,11.7,7.76,25.01,7.73,39.42l-.02,13.05v4.65s-.01,0-.01.02c0,.19.01.38.04.57-.01.02,0,.04.01.05.01.19.05.37.1.55h0c.04.19.1.37.17.55h0c.07.17.14.33.23.48,0,0,.01.03.02.04.09.15.18.29.28.43.1.13.21.25.33.37.02.03.04.05.06.07.08.07.16.15.25.22.15.12.31.23.48.32.69.4,1.51.56,2.4.44,2.42-.34,4.39-2.73,4.39-5.34l.04-17.7c.01-8.94-.95-17.5-2.8-25.56-.25-1.13-.52-2.24-.82-3.34Zm-63.25-55.51h0s0,0,0,0c0,0,0,0,0,0Z"/><path class="cls-1" d="m46.21,105.43l-18.2,2.56c-2.43.34-4.39,2.73-4.39,5.34,0,1.69.8,3.05,2.03,3.71l6.84,3.72s-.04-.03-.06-.04c.69.4,1.52.57,2.41.44l2.08-.29,2.41-.34,13.71-1.93c2.31-.32,4.58-.48,6.81-.48.44,0,.88,0,1.32.02.12,0,.23,0,.35,0,.4.01.79.03,1.19.06.47.03.94.06,1.41.11.46.04.93.09,1.39.15.45.05.89.11,1.33.18.29.05.58.09.87.15.22.03.45.07.67.12.13.02.26.05.39.08.28.05.56.11.84.17.45.1.89.2,1.33.32.44.11.88.23,1.32.35.06.02.12.03.18.05.37.11.75.23,1.12.35.43.13.85.28,1.28.43.39.14.77.28,1.15.43.48.18.96.38,1.43.58.01,0,.02,0,.02,0,.08.04.16.07.24.11.3.13.6.26.89.4.3.13.59.27.88.42.2.1.4.2.59.3.3.15.6.31.9.47.42.23.83.46,1.23.7.4.23.8.47,1.19.72.81.51,1.6,1.05,2.38,1.62.33.24.66.48.98.74,1.13.86,2.21,1.79,3.25,2.77,9.45,8.9,15.28,22.15,15.25,37.75l-.03,13.11v4.62c-.01.19,0,.38.03.56,0,.04,0,.08.01.12.02.15.05.3.09.45.05.24.12.47.22.69.05.13.11.26.19.38,0,.02.01.03.02.05.05.1.11.19.18.28.08.13.17.25.28.36.07.09.16.18.25.26.07.08.15.14.23.2.14.12.3.23.46.32.69.4,1.52.56,2.41.44,2.42-.34,4.38-2.73,4.39-5.34l.03-17.74c.01-8.57-1.49-16.54-4.23-23.66h0c-.57-1.49-1.2-2.92-1.87-4.32-2.97-6.19-6.94-11.63-11.69-16.1-3.33-3.14-7.05-5.8-11.09-7.92l-6.26-3.41c-.53-.29-1.06-.57-1.6-.84-1.7-.84-3.44-1.59-5.24-2.24-7.83-2.85-16.57-3.83-25.78-2.54"/><path class="cls-1" d="m67.13,148.68c-1.63-1.53-3.45-2.83-5.42-3.88.06.03.12.05.17.09l-6.84-3.72c-4.72-2.57-10.32-3.66-16.31-2.81-8.42,1.18-16.08,5.96-21.6,12.68-5.53,6.72-8.97,15.47-8.98,24.55-.02,9.09,3.39,16.86,8.9,22.04,1.58,1.49,3.34,2.77,5.25,3.81l6.6,3.59c.08.04.15.09.23.13,4.71,2.56,10.32,3.64,16.31,2.8,8.41-1.18,16.08-5.95,21.59-12.68,5.53-6.72,8.98-15.46,8.99-24.55.02-9.08-3.39-16.86-8.89-22.04Zm-6.28,40.78c-3.95,4.81-9.37,8.19-15.39,9.03-.97.14-1.92.2-2.86.2-.4,0-.8-.01-1.19-.04-.31-.02-.62-.04-.93-.08-.16-.02-.33-.04-.5-.06-.63-.08-1.24-.2-1.85-.35-.25-.07-.5-.13-.75-.21-.28-.08-.55-.16-.82-.26-.54-.18-1.07-.39-1.58-.63-.17-.07-.33-.15-.5-.24-.14-.06-.28-.14-.42-.21-.17-.09-.34-.18-.51-.28-.52-.29-1.01-.6-1.49-.95-.18-.12-.35-.25-.52-.38-.23-.17-.45-.35-.67-.53-.08-.06-.16-.13-.24-.21-.19-.15-.36-.31-.54-.48-3.94-3.72-6.35-9.21-6.34-15.71.01-6.5,2.45-12.68,6.4-17.5,3.95-4.82,9.37-8.2,15.4-9.04.97-.14,1.92-.2,2.85-.2.4,0,.79.01,1.18.04.33.02.65.04.97.08.15.02.29.03.42.06.33.03.65.09.97.15.33.06.65.13.96.21.21.05.42.11.62.17.04,0,.07.02.1.03.28.08.55.16.81.26.7.23,1.37.51,2.03.84.19.09.38.18.56.28.07.04.15.08.22.12.31.17.61.35.91.54.41.25.81.53,1.2.83.24.17.47.35.69.54.3.24.59.5.88.77,3.29,3.1,5.52,7.45,6.14,12.6.13,1,.19,2.04.19,3.1-.01,6.5-2.45,12.68-6.4,17.51Z"/></svg>